<svg width="70" height="70" viewBox="0 0 70 70" fill="none" xmlns="http://www.w3.org/2000/svg">
<path d="M32.0833 39.3748V5.83317L8.74992 39.3748H32.0833ZM26.2499 33.5415H19.9208L26.2499 24.4415V33.5415ZM61.2499 39.3748C61.2499 18.9582 42.2916 2.9165 36.4583 2.9165C36.4583 2.9165 39.3749 11.6665 39.3749 21.8748C39.3749 32.0832 36.4583 39.3748 36.4583 39.3748H61.2499ZM44.8583 15.2832C48.9999 19.7165 53.2583 26.1332 54.8041 33.5415H44.0708C44.6833 30.3332 45.2083 26.3665 45.2083 21.8748C45.2083 19.5707 45.0624 17.354 44.8583 15.2832ZM64.1666 43.7498H5.83325C6.73742 48.2123 9.21659 52.0332 12.6291 54.629C14.5249 53.8415 16.1874 52.529 17.4999 51.0415C19.6291 53.4915 22.7499 55.4165 26.2499 55.4165C29.7499 55.4165 32.8708 53.4915 34.9999 51.0415C37.1291 53.4915 40.2499 55.4165 43.7499 55.4165C47.2499 55.4165 50.3416 53.4915 52.4999 51.0415C53.8124 52.529 55.4749 53.8415 57.3708 54.629C60.7833 52.0332 63.2624 48.2123 64.1666 43.7498ZM64.1666 67.0832V61.2498H61.2499C58.2166 61.2498 55.1833 60.229 52.4999 58.3332C47.1624 62.1248 40.3374 62.1248 34.9999 58.3332C29.6624 62.1248 22.8374 62.1248 17.4999 58.3332C14.8458 60.229 11.7833 61.2498 8.74992 61.2498H5.83325V67.0832H8.74992C11.7541 67.0832 14.7291 66.354 17.4999 64.8957C23.0124 67.8123 29.4874 67.8123 34.9999 64.8957C40.5124 67.8123 46.9874 67.8123 52.4999 64.8957C55.2708 66.354 58.2458 67.0832 61.2499 67.0832H64.1666Z" fill="#4E6C99"/>
</svg>
