<svg width="48" height="54" viewBox="0 0 48 54" fill="none" xmlns="http://www.w3.org/2000/svg">
<path d="M24 53.25C20.8403 53.25 17.8993 52.4965 15.1771 50.9896C12.4549 49.4826 10.4375 47.3194 9.125 44.5H0.666667V40.125H7.375C7.03472 38.8611 6.86458 37.5851 6.86458 36.2969C6.86458 35.0087 6.86458 33.7083 6.86458 32.3958H0.59375V28.0208H6.86458C6.86458 26.6111 6.87674 25.2135 6.90104 23.8281C6.92535 22.4427 7.13194 21.0694 7.52083 19.7083H0.666667V15.3333H9.41667C10.0972 13.9722 10.9965 12.7813 12.1146 11.7604C13.2326 10.7396 14.4722 9.88889 15.8333 9.20833L10.2188 3.66667L13.1354 0.75L19.9896 7.60417C21.3507 7.11806 22.724 6.875 24.1094 6.875C25.4948 6.875 26.8681 7.11806 28.2292 7.60417L35.0833 0.75L38 3.66667L32.4583 9.20833C33.8194 9.88889 35.0226 10.7517 36.0677 11.7969C37.1128 12.842 38.0243 14.0208 38.8021 15.3333H47.4062V19.7083H40.4792C40.9167 21.0694 41.1233 22.4427 41.099 23.8281C41.0746 25.2135 41.0625 26.6111 41.0625 28.0208H47.4062V32.3958H41.0625C41.0625 33.7083 41.0746 35.0087 41.099 36.2969C41.1233 37.5851 40.9653 38.8611 40.625 40.125H47.4062V44.5H38.9479C37.684 47.3681 35.6788 49.5434 32.9323 51.026C30.1858 52.5087 27.2083 53.25 24 53.25ZM24 48.875C27.5 48.875 30.4896 47.6476 32.9688 45.1927C35.4479 42.7378 36.6875 39.7604 36.6875 36.2604V24.0833C36.6875 20.5833 35.4479 17.6059 32.9688 15.151C30.4896 12.6962 27.5 11.4688 24 11.4688C20.5 11.4688 17.5104 12.6962 15.0312 15.151C12.5521 17.6059 11.3125 20.5833 11.3125 24.0833V36.2604C11.3125 39.7604 12.5521 42.7378 15.0312 45.1927C17.5104 47.6476 20.5 48.875 24 48.875ZM18.1667 38.6667H29.8333V34.2917H18.1667V38.6667ZM18.1667 26.0521H29.8333V21.6771H18.1667V26.0521ZM24 30.2083C24 30.2083 24.0122 30.2083 24.0365 30.2083C24.0608 30.2083 24.0486 30.2083 24 30.2083C24.0486 30.2083 24.0608 30.2083 24.0365 30.2083C24.0122 30.2083 24 30.2083 24 30.2083C24 30.2083 24.0122 30.2083 24.0365 30.2083C24.0608 30.2083 24.0486 30.2083 24 30.2083C24.0486 30.2083 24.0608 30.2083 24.0365 30.2083C24.0122 30.2083 24 30.2083 24 30.2083Z" fill="#4E6C99"/>
</svg>
