<svg width="70" height="70" viewBox="0 0 70 70" fill="none" xmlns="http://www.w3.org/2000/svg">
<path d="M43.75 11.6663V32.083H15.0791L13.3583 33.8038L11.6666 35.4955V11.6663H43.75ZM46.6667 5.83301H8.74998C7.14581 5.83301 5.83331 7.14551 5.83331 8.74967V49.583L17.5 37.9163H46.6667C48.2708 37.9163 49.5833 36.6038 49.5833 34.9997V8.74967C49.5833 7.14551 48.2708 5.83301 46.6667 5.83301ZM61.25 17.4997H55.4167V43.7497H17.5V49.583C17.5 51.1872 18.8125 52.4997 20.4166 52.4997H52.5L64.1667 64.1663V20.4163C64.1667 18.8122 62.8542 17.4997 61.25 17.4997Z" fill="#4E6C99"/>
</svg>
