<svg width="70" height="70" viewBox="0 0 70 70" fill="none" xmlns="http://www.w3.org/2000/svg">
<path d="M56.1458 57.6038V48.8538H47.3958V44.4788H56.1458V35.7288H60.5208V44.4788H69.2708V48.8538H60.5208V57.6038H56.1458ZM34.9999 64.1663C30.868 64.1663 27.0277 63.425 23.4791 61.9424C19.9305 60.4597 16.8437 58.4059 14.2187 55.7809C11.5937 53.1559 9.53985 50.0691 8.05721 46.5205C6.57457 42.9719 5.83325 39.1316 5.83325 34.9997C5.83325 30.9163 6.57457 27.1004 8.05721 23.5518C9.53985 20.0031 11.5937 16.9163 14.2187 14.2913C16.8437 11.6663 19.9305 9.60037 23.4791 8.09342C27.0277 6.58648 30.868 5.83301 34.9999 5.83301C38.6458 5.83301 42.0485 6.41634 45.2083 7.58301C48.368 8.74967 51.2117 10.3538 53.7395 12.3955L50.6041 15.5309C48.4652 13.8295 46.0833 12.517 43.4583 11.5934C40.8333 10.6698 38.0138 10.208 34.9999 10.208C27.9513 10.208 22.0572 12.5778 17.3176 17.3174C12.578 22.057 10.2083 27.9511 10.2083 34.9997C10.2083 42.0483 12.578 47.9424 17.3176 52.682C22.0572 57.4215 27.9513 59.7913 34.9999 59.7913C36.7985 59.7913 38.5364 59.6212 40.2135 59.2809C41.8905 58.9406 43.5069 58.4302 45.0624 57.7497L48.3437 61.1038C46.3506 62.0761 44.236 62.8295 41.9999 63.3643C39.7638 63.899 37.4305 64.1663 34.9999 64.1663ZM30.6978 48.2705L18.6666 36.1663L21.9478 32.8851L30.6978 41.6351L60.8853 11.4476L64.2395 14.7288L30.6978 48.2705Z" fill="#4E6C99"/>
</svg>
