<svg width="70" height="71" viewBox="0 0 70 71" fill="none" xmlns="http://www.w3.org/2000/svg">
<path d="M57.4983 8.0143C52.1726 3.58151 45.5712 0.679467 38.2683 0.00976562V6.41977C43.7854 7.02569 48.8241 9.22614 52.9698 12.5428L57.4983 8.0143Z" fill="#4E6C99"/>
<path d="M31.8909 6.41977V0.00976562C24.5879 0.647577 17.9866 3.58151 12.6609 8.0143L17.1893 12.5428C21.3351 9.22614 26.3738 7.02569 31.8909 6.41977Z" fill="#4E6C99"/>
<path d="M12.6929 17.0387L8.16443 12.5103C3.73165 17.836 0.829613 24.4373 0.159912 31.7403H6.5699C7.17582 26.2232 9.37627 21.1845 12.6929 17.0387Z" fill="#4E6C99"/>
<path d="M63.59 31.7403H70C69.3303 24.4373 66.4283 17.836 61.9955 12.5103L57.467 17.0387C60.7837 21.1845 62.9841 26.2232 63.59 31.7403Z" fill="#4E6C99"/>
<path d="M19.1345 34.9292L30.1049 39.9041L35.0798 50.8744L40.0547 39.9041L51.025 34.9292L40.0547 29.9542L35.0798 18.9839L30.1049 29.9542L19.1345 34.9292Z" fill="#4E6C99"/>
<path d="M35.0796 63.6316C25.1616 63.6316 16.4236 58.561 11.2892 50.8753H19.1343V44.4972H0V63.6316H6.3781V55.0211C12.7243 64.078 23.1844 70.0097 35.0796 70.0097C50.6102 70.0097 63.781 59.9004 68.3733 45.9004L62.1227 44.4653C58.2002 55.5951 47.5807 63.6316 35.0796 63.6316Z" fill="#4E6C99"/>
</svg>
