<svg width="46" height="36" viewBox="0 0 46 36" fill="none" xmlns="http://www.w3.org/2000/svg">
<path d="M41.7499 1.41667C39.4374 0.6875 36.8958 0.375 34.4583 0.375C30.3958 0.375 26.0208 1.20833 22.9999 3.5C19.9791 1.20833 15.6041 0.375 11.5416 0.375C7.47908 0.375 3.10409 1.20833 0.083252 3.5V34.0208C0.083252 34.5417 0.604085 35.0625 1.12492 35.0625C1.33325 35.0625 1.43742 34.9583 1.64575 34.9583C4.45825 33.6042 8.52075 32.6667 11.5416 32.6667C15.6041 32.6667 19.9791 33.5 22.9999 35.7917C25.8124 34.0208 30.9166 32.6667 34.4583 32.6667C37.8958 32.6667 41.4374 33.2917 44.3541 34.8542C44.5624 34.9583 44.6666 34.9583 44.8749 34.9583C45.3958 34.9583 45.9166 34.4375 45.9166 33.9167V3.5C44.6666 2.5625 43.3124 1.9375 41.7499 1.41667ZM41.7499 29.5417C39.4583 28.8125 36.9583 28.5 34.4583 28.5C30.9166 28.5 25.8124 29.8542 22.9999 31.625V7.66667C25.8124 5.89583 30.9166 4.54167 34.4583 4.54167C36.9583 4.54167 39.4583 4.85417 41.7499 5.58333V29.5417Z" fill="#4E6C99"/>
<path d="M34.4582 12.875C36.2916 12.875 38.0624 13.0625 39.6666 13.4167V10.25C38.0207 9.9375 36.2499 9.75 34.4582 9.75C30.9166 9.75 27.7083 10.3542 25.0833 11.4792V14.9375C27.4374 13.6042 30.7083 12.875 34.4582 12.875Z" fill="#4E6C99"/>
<path d="M25.0833 17.0212V20.4795C27.4374 19.1462 30.7083 18.417 34.4582 18.417C36.2916 18.417 38.0624 18.6045 39.6666 18.9587V15.792C38.0207 15.4795 36.2499 15.292 34.4582 15.292C30.9166 15.292 27.7083 15.917 25.0833 17.0212Z" fill="#4E6C99"/>
<path d="M34.4582 20.8545C30.9166 20.8545 27.7083 21.4587 25.0833 22.5837V26.042C27.4374 24.7087 30.7083 23.9795 34.4582 23.9795C36.2916 23.9795 38.0624 24.167 39.6666 24.5212V21.3545C38.0207 21.0212 36.2499 20.8545 34.4582 20.8545Z" fill="#4E6C99"/>
</svg>
