<svg width="70" height="70" viewBox="0 0 70 70" fill="none" xmlns="http://www.w3.org/2000/svg">
<path d="M8.75 35.0003C8.75 41.4462 11.4042 47.2503 15.6333 51.4503L8.75 58.3337H26.25V40.8337L19.7167 47.367C16.5667 44.1878 14.5833 39.842 14.5833 35.0003C14.5833 27.3878 19.4542 20.9128 26.25 18.5212V12.4253C16.1875 15.0212 8.75 24.1212 8.75 35.0003ZM32.0833 49.5837H37.9167V43.7503H32.0833V49.5837ZM61.25 11.667H43.75V29.167L50.2833 22.6337C53.4333 25.8128 55.4167 30.1587 55.4167 35.0003C55.4167 42.6128 50.5458 49.0878 43.75 51.4795V57.5753C53.8125 54.9795 61.25 45.8795 61.25 35.0003C61.25 28.5545 58.5958 22.7503 54.3667 18.5503L61.25 11.667ZM32.0833 37.917H37.9167V20.417H32.0833V37.917Z" fill="#4E6C99"/>
</svg>
