<svg width="101" height="100" viewBox="0 0 101 100" fill="none" xmlns="http://www.w3.org/2000/svg">
<g clip-path="url(#clip0_401_693)">
<path d="M16.0116 60.0002C20.2772 60.0002 23.7673 56.0872 23.7673 51.3046C23.7673 46.522 20.2772 42.6089 16.0116 42.6089C11.7459 42.6089 8.25578 46.522 8.25578 51.3046C8.25578 56.0872 11.7459 60.0002 16.0116 60.0002ZM20.3936 64.7828C18.9587 64.522 17.5239 64.348 16.0116 64.348C12.1724 64.348 8.52723 65.2611 5.23102 66.8698C2.36139 68.2611 0.5 71.3915 0.5 74.9133V81.7393H17.9505V74.7393C17.9505 71.1306 18.8424 67.7393 20.3936 64.7828ZM78.0578 60.0002C82.3234 60.0002 85.8135 56.0872 85.8135 51.3046C85.8135 46.522 82.3234 42.6089 78.0578 42.6089C73.7921 42.6089 70.302 46.522 70.302 51.3046C70.302 56.0872 73.7921 60.0002 78.0578 60.0002ZM93.5693 74.9133C93.5693 71.3915 91.7079 68.2611 88.8383 66.8698C85.5421 65.2611 81.8969 64.348 78.0578 64.348C76.5454 64.348 75.1106 64.522 73.6757 64.7828C75.2269 67.7393 76.1188 71.1306 76.1188 74.7393V81.7393H93.5693V74.9133ZM63.4769 62.8263C58.9398 60.5654 53.3556 58.9133 47.0347 58.9133C40.7137 58.9133 35.1295 60.6089 30.5924 62.8263C26.4043 64.9133 23.7673 69.6089 23.7673 74.7393V81.7393H70.302V74.7393C70.302 69.6089 67.665 64.9133 63.4769 62.8263ZM31.7946 73.0437C32.1436 72.0437 32.2987 71.348 35.3234 70.0437C39.085 68.3915 43.0404 67.6089 47.0347 67.6089C51.0289 67.6089 54.9843 68.3915 58.7459 70.0437C61.7318 71.348 61.887 72.0437 62.2748 73.0437H31.7946ZM47.0347 38.2611C49.1675 38.2611 50.9125 40.2176 50.9125 42.6089C50.9125 45.0002 49.1675 46.9567 47.0347 46.9567C44.9018 46.9567 43.1568 45.0002 43.1568 42.6089C43.1568 40.2176 44.9018 38.2611 47.0347 38.2611ZM47.0347 29.5654C40.5974 29.5654 35.401 35.3915 35.401 42.6089C35.401 49.8263 40.5974 55.6524 47.0347 55.6524C53.4719 55.6524 58.6683 49.8263 58.6683 42.6089C58.6683 35.3915 53.4719 29.5654 47.0347 29.5654Z" fill="#4E6C99"/>
</g>
<defs>
<clipPath id="clip0_401_693">
<rect width="100" height="100" fill="white" transform="translate(0.5)"/>
</clipPath>
</defs>
</svg>
