<svg width="101" height="100" viewBox="0 0 101 100" fill="none" xmlns="http://www.w3.org/2000/svg">
<path d="M50.4993 25.0003C55.0827 25.0003 58.8327 28.7503 58.8327 33.3337C58.8327 37.917 55.0827 41.667 50.4993 41.667C45.916 41.667 42.166 37.917 42.166 33.3337C42.166 28.7503 45.916 25.0003 50.4993 25.0003ZM50.4993 66.667C61.7493 66.667 74.666 72.042 75.4993 75.0003H25.4993C26.4577 72.0003 39.291 66.667 50.4993 66.667ZM50.4993 16.667C41.291 16.667 33.8327 24.1253 33.8327 33.3337C33.8327 42.542 41.291 50.0003 50.4993 50.0003C59.7077 50.0003 67.166 42.542 67.166 33.3337C67.166 24.1253 59.7077 16.667 50.4993 16.667ZM50.4993 58.3337C39.3743 58.3337 17.166 63.917 17.166 75.0003V83.3336H83.8327V75.0003C83.8327 63.917 61.6243 58.3337 50.4993 58.3337Z" fill="#4E6C99"/>
</svg>
