<svg width="42" height="22" viewBox="0 0 42 22" fill="none" xmlns="http://www.w3.org/2000/svg">
<path d="M31.418 0.583008H23.0846V4.74967H31.418C34.8555 4.74967 37.668 7.56217 37.668 10.9997C37.668 14.4372 34.8555 17.2497 31.418 17.2497H23.0846V21.4163H31.418C37.168 21.4163 41.8346 16.7497 41.8346 10.9997C41.8346 5.24967 37.168 0.583008 31.418 0.583008ZM18.918 17.2497H10.5846C7.14714 17.2497 4.33464 14.4372 4.33464 10.9997C4.33464 7.56217 7.14714 4.74967 10.5846 4.74967H18.918V0.583008H10.5846C4.83464 0.583008 0.167969 5.24967 0.167969 10.9997C0.167969 16.7497 4.83464 21.4163 10.5846 21.4163H18.918V17.2497ZM12.668 8.91634H29.3346V13.083H12.668V8.91634Z" fill="#4E6C99"/>
</svg>
