<svg width="100" height="100" viewBox="0 0 100 100" fill="none" xmlns="http://www.w3.org/2000/svg">
<path d="M86.7858 15.7861C87.987 15.7861 88.4675 16.4465 88.2272 17.61L74.7738 80.9434C74.5336 81.9496 73.993 82.4528 73.0321 82.4528H65.0741C64.1131 82.4528 63.5726 81.9496 63.3324 80.9434L49.939 17.6415C49.6987 16.478 50.1792 15.8176 51.3804 15.8176H58.948C59.9089 15.8176 60.4495 16.3207 60.6897 17.327L69.0381 61.9811L77.4765 17.2956C77.7167 16.2893 78.2573 15.7861 79.2182 15.7861H86.7858Z" fill="white"/>
<path d="M44.6854 36.1319C44.6854 36.9809 44.2049 37.4841 43.3941 37.4841H35.4061C34.5352 37.4841 34.1148 36.9809 34.1148 36.1319V29.4338C34.1148 27.264 33.0037 26.069 30.9016 26.069H26.7574C24.5953 26.069 23.5442 27.2325 23.5442 29.4338V67.6413C23.5442 69.9055 24.6553 70.9746 26.7574 70.9746H30.9316C33.0037 70.9746 34.1448 69.874 34.1448 67.6413V60.9432C34.1448 60.0941 34.5352 59.591 35.4361 59.591H43.4241C44.2349 59.591 44.7154 60.0941 44.7154 60.9432V69.9998C44.7154 77.8614 40.6313 82.0753 33.1839 82.0753H24.2049C16.6974 82.0753 12.6133 77.8929 12.6133 69.9998V27.1067C12.6133 19.2451 16.6974 15.0312 24.2049 15.0312H33.1538C40.6013 15.0312 44.6854 19.2136 44.6854 27.1067V36.1319V36.1319Z" fill="url(#paint0_linear_236_1923)"/>
<path d="M50.7811 57.6729C51.1414 57.8302 51.2615 58.0818 51.1114 58.4277L50.0303 60.849C49.8802 61.195 49.6099 61.2893 49.2195 61.1635L46.4567 60.0629C46.1865 59.9371 46.0063 59.8113 45.8261 59.5912L44.1444 57.2327C44.0243 57.1069 44.0243 56.9811 44.0844 56.8239L44.6249 55.6289C44.6549 55.566 44.715 55.4717 44.8051 55.4402C44.8652 55.4088 44.9552 55.4402 44.9853 55.4402C45.6159 55.5975 47.718 56.4465 47.718 56.4465C47.8081 56.478 47.9582 56.5409 48.1685 56.6352L50.7811 57.6729Z" fill="url(#paint1_linear_236_1923)"/>
<path d="M50.7808 49.9371C51.1412 49.8113 51.2613 49.5283 51.1112 49.2138L50.1202 46.9182C49.97 46.5723 49.6997 46.478 49.3394 46.6352L46.5766 47.7044C46.3063 47.8302 46.1262 47.956 45.946 48.1447L44.2343 50.4088C44.1142 50.5346 44.1142 50.6289 44.1742 50.7862L44.6547 51.9182C44.6847 51.9811 44.7448 52.044 44.8349 52.0755C44.8949 52.1069 44.985 52.0755 45.0151 52.0755C45.6457 51.9497 47.7478 51.1006 47.7478 51.1006C47.8379 51.0692 47.988 51.0063 48.1982 50.9434L50.7808 49.9371Z" fill="url(#paint2_linear_236_1923)"/>
<path d="M38.0787 17.17C38.379 16.8555 40.0307 17.6103 41.1118 18.7109C42.0727 19.7172 42.4031 20.8178 42.5232 21.1952C42.6433 21.6354 42.6133 21.6669 42.8535 23.931C43.0037 25.3776 43.0637 25.5348 42.9736 25.5662C42.6433 25.692 41.6523 23.1448 39.1598 19.2769C38.379 18.0505 37.8685 17.3901 38.0787 17.17Z" fill="white"/>
<path d="M22.1029 48.5534C22.6734 48.5849 22.4332 61.2578 22.4332 61.2578C22.4332 61.2578 21.6224 61.8868 21.3521 61.8553C20.3011 61.6667 21.5323 48.4906 22.1029 48.5534Z" fill="#DAE6FD"/>
<path opacity="0.6" d="M40.27 60.8803C40.3901 60.6917 40.5703 60.8489 42.4021 60.786C42.5522 60.786 42.8225 60.7545 43.0627 60.9432C43.273 61.1005 43.333 61.3206 43.3931 61.6351C43.5132 62.264 43.5132 62.7042 43.5132 63.2703C43.5432 64.2451 43.6033 64.5596 43.4531 64.6225C43.273 64.6854 42.9126 64.2451 42.6423 63.8992C40.9006 61.7294 40.0598 61.2577 40.27 60.8803Z" fill="white"/>
<defs>
<linearGradient id="paint0_linear_236_1923" x1="51.2973" y1="34.8531" x2="4.99148" y2="60.3835" gradientUnits="userSpaceOnUse">
<stop stop-color="#DAE6FD"/>
<stop offset="0.1616" stop-color="#D5E1F9"/>
<stop offset="0.3573" stop-color="#C6D4EE"/>
<stop offset="0.5709" stop-color="#AEBEDA"/>
<stop offset="0.7954" stop-color="#8CA0C0"/>
<stop offset="1" stop-color="#667EA3"/>
</linearGradient>
<linearGradient id="paint1_linear_236_1923" x1="51.1626" y1="58.3447" x2="44.0743" y2="58.3447" gradientUnits="userSpaceOnUse">
<stop offset="0.000339888" stop-color="#DAE6FD"/>
<stop offset="1" stop-color="#4E6C99"/>
</linearGradient>
<linearGradient id="paint2_linear_236_1923" x1="51.1716" y1="49.3389" x2="44.1136" y2="49.3389" gradientUnits="userSpaceOnUse">
<stop offset="0.000339888" stop-color="#DAE6FD"/>
<stop offset="1" stop-color="#4E6C99"/>
</linearGradient>
</defs>
</svg>
