<svg width="66" height="60" viewBox="0 0 66 60" fill="none" xmlns="http://www.w3.org/2000/svg">
<path d="M33.0007 15.3337C36.9587 15.3337 40.1673 12.0504 40.1673 8.00033C40.1673 3.95024 36.9587 0.666992 33.0007 0.666992C29.0426 0.666992 25.834 3.95024 25.834 8.00033C25.834 12.0504 29.0426 15.3337 33.0007 15.3337Z" fill="#4E6C99"/>
<path d="M65.25 44.6667V37.3333C57.2233 37.3333 50.3433 33.8133 45.1833 27.5067L40.3817 21.64C39.02 19.9533 37.0133 19 34.8992 19H31.1367C29.0225 19 27.0158 19.9533 25.6542 21.64L20.8525 27.5067C15.6567 33.8133 8.77667 37.3333 0.75 37.3333V44.6667C10.6758 44.6667 19.3475 40.3767 25.8333 32.75V41L11.93 46.6833C9.52917 47.6733 7.91667 50.0933 7.91667 52.77C7.91667 56.4 10.7833 59.3333 14.3308 59.3333H22.25V57.5C22.25 52.44 26.2633 48.3333 31.2083 48.3333H41.9583C42.9617 48.3333 43.75 49.14 43.75 50.1667C43.75 51.1933 42.9617 52 41.9583 52H31.2083C28.2342 52 25.8333 54.4567 25.8333 57.5V59.3333H51.6692C55.2167 59.3333 58.0833 56.4 58.0833 52.77C58.0833 50.0933 56.4708 47.6733 54.07 46.6833L40.1667 41V32.75C46.6525 40.3767 55.3242 44.6667 65.25 44.6667Z" fill="#4E6C99"/>
</svg>
