<svg width="54" height="54" viewBox="0 0 54 54" fill="none" xmlns="http://www.w3.org/2000/svg">
<path d="M5.125 48.875H34.2917V34.2917H48.875V5.125H5.125V48.875ZM5.125 53.25C3.90972 53.25 2.87674 52.8247 2.02604 51.974C1.17535 51.1233 0.75 50.0903 0.75 48.875V5.125C0.75 3.90972 1.17535 2.87674 2.02604 2.02604C2.87674 1.17535 3.90972 0.75 5.125 0.75H48.875C50.0903 0.75 51.1233 1.17535 51.974 2.02604C52.8247 2.87674 53.25 3.90972 53.25 5.125V35.75L35.75 53.25H5.125ZM13.875 31.375V27H26.2708V31.375H13.875ZM13.875 19.7083V15.3333H40.125V19.7083H13.875ZM5.125 48.875V34.2917V5.125V48.875Z" fill="#4E6C99"/>
</svg>
