<svg width="86" height="88" viewBox="0 0 86 88" fill="none" xmlns="http://www.w3.org/2000/svg">
<path d="M68.1915 13.0529C62.2073 7.95628 54.7898 4.61961 46.584 3.84961V11.2196C52.7831 11.9163 58.4448 14.4463 63.1031 18.2596L68.1915 13.0529Z" fill="#4E6C99"/>
<path d="M39.418 11.2196V3.84961C31.2122 4.58294 23.7947 7.95628 17.8105 13.0529L22.8989 18.2596C27.5572 14.4463 33.2189 11.9163 39.418 11.2196Z" fill="#4E6C99"/>
<path d="M17.8462 23.4293L12.7578 18.2227C7.77701 24.346 4.51617 31.936 3.76367 40.3327H10.9662C11.647 33.9893 14.1195 28.196 17.8462 23.4293Z" fill="#4E6C99"/>
<path d="M75.0363 40.3327H82.2388C81.4863 31.936 78.2254 24.346 73.2446 18.2227L68.1562 23.4293C71.8829 28.196 74.3554 33.9893 75.0363 40.3327Z" fill="#4E6C99"/>
<path d="M25.084 43.9993L37.4106 49.7193L43.0007 62.3327L48.5907 49.7193L60.9173 43.9993L48.5907 38.2793L43.0007 25.666L37.4106 38.2793L25.084 43.9993Z" fill="#4E6C99"/>
<path d="M43.0006 76.9996C31.8565 76.9996 22.0382 71.1696 16.269 62.3329H25.084V54.9996H3.58398V76.9996H10.7507V67.0996C17.8815 77.5129 29.6348 84.3329 43.0006 84.3329C60.4515 84.3329 75.2506 72.7096 80.4107 56.6129L73.3873 54.9629C68.9798 67.7596 57.0473 76.9996 43.0006 76.9996Z" fill="#4E6C99"/>
</svg>
