<svg width="70" height="70" viewBox="0 0 70 70" fill="none" xmlns="http://www.w3.org/2000/svg">
<path d="M35.2916 51.9893C36.0694 51.9893 36.7256 51.7219 37.2603 51.1872C37.7951 50.6525 38.0624 49.9962 38.0624 49.2184C38.0624 48.4407 37.7951 47.7844 37.2603 47.2497C36.7256 46.715 36.0694 46.4476 35.2916 46.4476C34.5138 46.4476 33.8576 46.715 33.3228 47.2497C32.7881 47.7844 32.5208 48.4407 32.5208 49.2184C32.5208 49.9962 32.7881 50.6525 33.3228 51.1872C33.8576 51.7219 34.5138 51.9893 35.2916 51.9893ZM32.7395 41.3434H37.0416C37.0416 40.0795 37.1996 38.925 37.5155 37.8799C37.8315 36.8347 38.8159 35.6316 40.4687 34.2705C41.9756 33.0066 43.0451 31.767 43.677 30.5518C44.309 29.3365 44.6249 27.9997 44.6249 26.5413C44.6249 23.965 43.7864 21.899 42.1093 20.3434C40.4322 18.7879 38.2083 18.0101 35.4374 18.0101C33.0555 18.0101 30.953 18.6056 29.1301 19.7966C27.3072 20.9875 25.9826 22.6281 25.1562 24.7184L29.0208 26.1768C29.5555 24.8156 30.3576 23.7584 31.427 23.0049C32.4964 22.2514 33.7603 21.8747 35.2187 21.8747C36.8714 21.8747 38.2083 22.3243 39.2291 23.2236C40.2499 24.1229 40.7603 25.2775 40.7603 26.6872C40.7603 27.7566 40.4444 28.7653 39.8124 29.7132C39.1805 30.6611 38.2569 31.6455 37.0416 32.6663C35.5833 33.9302 34.5017 35.182 33.7968 36.4216C33.0919 37.6611 32.7395 39.3018 32.7395 41.3434ZM34.9999 64.1663C30.9166 64.1663 27.1006 63.425 23.552 61.9424C20.0034 60.4597 16.9166 58.4059 14.2916 55.7809C11.6666 53.1559 9.60061 50.0691 8.09367 46.5205C6.58672 42.9719 5.83325 39.1316 5.83325 34.9997C5.83325 30.9163 6.58672 27.1004 8.09367 23.5518C9.60061 20.0031 11.6666 16.9163 14.2916 14.2913C16.9166 11.6663 20.0034 9.60037 23.552 8.09343C27.1006 6.58648 30.9166 5.83301 34.9999 5.83301C39.0346 5.83301 42.8263 6.58648 46.3749 8.09343C49.9235 9.60037 53.0103 11.6663 55.6353 14.2913C58.2603 16.9163 60.3385 20.0031 61.8697 23.5518C63.401 27.1004 64.1666 30.9163 64.1666 34.9997C64.1666 39.1316 63.401 42.9719 61.8697 46.5205C60.3385 50.0691 58.2603 53.1559 55.6353 55.7809C53.0103 58.4059 49.9235 60.4597 46.3749 61.9424C42.8263 63.425 39.0346 64.1663 34.9999 64.1663ZM34.9999 59.7913C41.8541 59.7913 47.6996 57.3608 52.5364 52.4997C57.3732 47.6386 59.7916 41.8052 59.7916 34.9997C59.7916 28.1941 57.3732 22.3608 52.5364 17.4997C47.6996 12.6386 41.8541 10.208 34.9999 10.208C28.0485 10.208 22.1787 12.6386 17.3905 17.4997C12.6024 22.3608 10.2083 28.1941 10.2083 34.9997C10.2083 41.8052 12.6024 47.6386 17.3905 52.4997C22.1787 57.3608 28.0485 59.7913 34.9999 59.7913Z" fill="#4E6C99"/>
</svg>
