<svg width="72" height="74" viewBox="0 0 72 74" fill="none" xmlns="http://www.w3.org/2000/svg">
<path d="M32.416 44.333H25.2493C25.2493 26.1097 39.6902 11.333 57.4994 11.333V18.6663C43.6319 18.6663 32.416 30.143 32.416 44.333ZM57.4994 33.333V25.9997C47.6094 25.9997 39.5827 34.213 39.5827 44.333H46.7494C46.7494 38.2463 51.551 33.333 57.4994 33.333ZM18.0827 7.66634C18.0827 3.59634 14.8935 0.333008 10.916 0.333008C6.93852 0.333008 3.74935 3.59634 3.74935 7.66634C3.74935 11.7363 6.93852 14.9997 10.916 14.9997C14.8935 14.9997 18.0827 11.7363 18.0827 7.66634ZM34.0285 9.49967H26.8618C26.0018 14.7063 21.6302 18.6663 16.291 18.6663H5.54102C2.56685 18.6663 0.166016 21.123 0.166016 24.1663V33.333H21.666V25.0463C28.331 22.883 33.3118 16.8697 34.0285 9.49967ZM61.0827 55.333C65.0602 55.333 68.2494 52.0697 68.2494 47.9997C68.2494 43.9297 65.0602 40.6663 61.0827 40.6663C57.1052 40.6663 53.916 43.9297 53.916 47.9997C53.916 52.0697 57.1052 55.333 61.0827 55.333ZM66.4577 58.9997H55.7077C50.3685 58.9997 45.9969 55.0397 45.1369 49.833H37.9702C38.6869 57.203 43.6677 63.2163 50.3327 65.3797V73.6663H71.8327V64.4997C71.8327 61.4563 69.4319 58.9997 66.4577 58.9997Z" fill="#4E6C99"/>
</svg>
