<svg width="70" height="70" viewBox="0 0 70 70" fill="none" xmlns="http://www.w3.org/2000/svg">
<g clip-path="url(#clip0_478_2524)">
<path d="M67.0834 32.1121L52.5 32.083C50.8959 32.083 49.5834 33.3955 49.5834 34.9996V61.2496C49.5834 62.8537 50.8959 64.1662 52.5 64.1662H67.0834C68.6875 64.1662 70 62.8537 70 61.2496V34.9996C70 33.3955 68.6875 32.1121 67.0834 32.1121ZM67.0834 58.3329H52.5V37.9163H67.0834V58.3329ZM58.3334 5.83301H5.83334C2.59583 5.83301 0 8.42884 0 11.6663V46.6663C0 49.8746 2.59583 52.4996 5.83334 52.4996H26.25V58.3329H20.4167V64.1662H43.75V58.3329H37.9167V52.4996H43.75V46.6663H5.83334V11.6663H58.3334V26.2496H64.1667V11.6663C64.1667 8.42884 61.5417 5.83301 58.3334 5.83301ZM34.9125 26.2496L32.0833 17.4997L29.2542 26.2496H20.4167L27.6208 31.383L24.8792 39.8704L32.0833 34.6205L39.2875 39.8704L36.5458 31.383L43.75 26.2496H34.9125Z" fill="#4E6C99"/>
</g>
<defs>
<clipPath id="clip0_478_2524">
<rect width="70" height="69.9999" fill="white"/>
</clipPath>
</defs>
</svg>
