<svg width="70" height="70" viewBox="0 0 70 70" fill="none" xmlns="http://www.w3.org/2000/svg">
<path d="M32.2877 37.4792C34.5335 33.425 38.8502 31.0333 41.3585 27.4458C44.0127 23.6833 42.5252 16.6542 35.0002 16.6542C30.071 16.6542 27.6502 20.3875 26.6294 23.4792L19.0752 20.3C21.146 14.0875 26.7752 8.75 34.971 8.75C41.8252 8.75 46.521 11.8708 48.9127 15.7792C50.9544 19.1333 52.1502 25.4042 49.0002 30.0708C45.5002 35.2333 42.146 36.8083 40.3377 40.1333C39.6085 41.475 39.3169 42.35 39.3169 46.6667H30.8877C30.8585 44.3917 30.5085 40.6875 32.2877 37.4792ZM40.8335 58.3333C40.8335 61.5417 38.2085 64.1667 35.0002 64.1667C31.7919 64.1667 29.1669 61.5417 29.1669 58.3333C29.1669 55.125 31.7919 52.5 35.0002 52.5C38.2085 52.5 40.8335 55.125 40.8335 58.3333Z" fill="#4E6C99"/>
</svg>
