<svg width="100" height="100" viewBox="0 0 100 100" fill="none" xmlns="http://www.w3.org/2000/svg">
<path d="M96.9907 4.46875C98.5343 4.46875 99.1491 5.39988 98.8417 7.03367L81.47 95.6954C81.1626 97.0934 80.4416 97.796 79.2076 97.796H68.9283C67.6921 97.796 66.9733 97.0958 66.6659 95.6954L49.396 7.03367C49.0885 5.40234 49.7055 4.46875 51.247 4.46875H61.0132C62.2472 4.46875 62.966 5.16649 63.2734 6.56933L74.068 69.0954L84.9643 6.56933C85.2738 5.16649 85.9926 4.46875 87.2267 4.46875H96.9928H96.9907Z" fill="white"/>
<path d="M42.5915 32.9462C42.5915 34.1181 41.9701 34.8232 40.9375 34.8232H30.6019C29.4653 34.8232 28.9479 34.1206 28.9479 32.9462V23.5611C28.9479 20.5122 27.5017 18.8711 24.8128 18.8711H19.4393C16.6487 18.8711 15.3064 20.5122 15.3064 23.5611V77.0437C15.3064 80.2105 16.7526 81.7337 19.4393 81.7337H24.8128C27.5017 81.7337 28.9479 80.2105 28.9479 77.0437V67.6586C28.9479 66.4867 29.4653 65.7816 30.6019 65.7816H40.9375C41.9701 65.7816 42.5915 66.4843 42.5915 67.6586V80.326C42.5915 91.3497 37.3198 97.2142 27.7073 97.2142H16.1334C6.417 97.2142 1.14746 91.3497 1.14746 80.326V20.2788C1.14746 9.25507 6.41916 3.38818 16.1334 3.38818H27.7073C37.3198 3.38818 42.5915 9.25261 42.5915 20.2788V32.9462Z" fill="url(#paint0_linear_665_3477)"/>
<path d="M34.0507 6.36806C34.449 5.92584 36.5664 6.97244 37.9584 8.53744C39.2033 9.93537 39.6385 11.4905 39.7835 12.0237C39.9437 12.6207 39.8939 12.6846 40.2295 15.8637C40.4395 17.8709 40.4871 18.1068 40.3811 18.1485C39.9502 18.3254 38.6815 14.7507 35.4622 9.35556C34.4274 7.62104 33.7736 6.67517 34.0528 6.36561L34.0507 6.36806Z" fill="white"/>
<path d="M13.425 50.3033C14.1611 50.3549 13.8342 68.0833 13.8342 68.0858C13.8342 68.0858 12.7776 68.9703 12.4529 68.9137C11.0976 68.6779 12.6737 50.2517 13.425 50.3033Z" fill="#DAE6FD"/>
<path opacity="0.6" d="M36.8976 67.5921C37.0318 67.344 37.2873 67.5307 39.6623 67.4423C39.8636 67.4349 40.2143 67.4202 40.5044 67.6486C40.7751 67.8624 40.8703 68.1867 40.9526 68.6363C41.115 69.5158 41.0933 70.1153 41.1041 70.9211C41.1236 72.3043 41.2167 72.7195 41.037 72.7957C40.7989 72.894 40.3594 72.2871 39.9805 71.7835C37.7116 68.7567 36.6248 68.0909 36.8954 67.5921H36.8976Z" fill="white"/>
<defs>
<linearGradient id="paint0_linear_665_3477" x1="51.1323" y1="31.1404" x2="-10.8449" y2="62.671" gradientUnits="userSpaceOnUse">
<stop stop-color="#DAE6FD"/>
<stop offset="0.16" stop-color="#D4E1F9"/>
<stop offset="0.36" stop-color="#C6D4ED"/>
<stop offset="0.57" stop-color="#ADBEDA"/>
<stop offset="0.8" stop-color="#8B9FC0"/>
<stop offset="1" stop-color="#667EA3"/>
</linearGradient>
</defs>
</svg>
