<svg width="101" height="100" viewBox="0 0 101 100" fill="none" xmlns="http://www.w3.org/2000/svg">
<path d="M29.7507 54.1663C20.5423 54.1663 13.084 61.6247 13.084 70.833C13.084 80.0413 20.5423 87.4997 29.7507 87.4997C38.959 87.4997 46.4173 80.0413 46.4173 70.833C46.4173 61.6247 38.959 54.1663 29.7507 54.1663ZM29.7507 79.1663C25.1673 79.1663 21.4173 75.4163 21.4173 70.833C21.4173 66.2497 25.1673 62.4997 29.7507 62.4997C34.334 62.4997 38.084 66.2497 38.084 70.833C38.084 75.4163 34.334 79.1663 29.7507 79.1663ZM54.6673 54.1663V87.4997H88.0007V54.1663H54.6673ZM79.6673 79.1663H63.0007V62.4997H79.6673V79.1663ZM29.6673 8.33301L8.83398 45.833H50.5007L29.6673 8.33301ZM29.6673 25.4997L36.334 37.4997H23.0007L29.6673 25.4997ZM80.709 10.4163C76.2923 10.4163 73.1673 12.7497 71.334 15.2913C69.5007 12.7497 66.3757 10.4163 61.959 10.4163C55.459 10.4163 50.5007 15.7497 50.5007 21.8747C50.5007 30.208 60.584 36.1247 71.334 45.833C82.084 36.1247 92.1673 30.208 92.1673 21.8747C92.1673 15.7497 87.209 10.4163 80.709 10.4163ZM71.334 34.7913C65.2923 29.708 58.834 24.7913 58.834 21.8747C58.834 20.083 60.2923 18.7497 61.959 18.7497C63.2507 18.7497 64.1257 19.458 65.0007 20.2913L71.334 26.2497L77.6673 20.2913C78.5423 19.458 79.4173 18.7497 80.709 18.7497C82.3757 18.7497 83.834 20.083 83.834 21.8747C83.834 24.7913 77.3757 29.708 71.334 34.7913Z" fill="#4E6C99"/>
</svg>
