<svg width="72" height="74" viewBox="0 0 72 74" fill="none" xmlns="http://www.w3.org/2000/svg">
<path fill-rule="evenodd" clip-rule="evenodd" d="M35.9994 0.333008C16.2193 0.333008 0.166016 16.7597 0.166016 36.9997C0.166016 57.2397 16.2193 73.6663 35.9994 73.6663C55.7794 73.6663 71.8327 57.2397 71.8327 36.9997C71.8327 16.7597 55.7794 0.333008 35.9994 0.333008ZM35.9994 66.333C20.1968 66.333 7.33268 53.1697 7.33268 36.9997C7.33268 20.8297 20.1968 7.66634 35.9994 7.66634C51.8018 7.66634 64.666 20.8297 64.666 36.9997C64.666 53.1697 51.8018 66.333 35.9994 66.333Z" fill="#4E6C99"/>
<path fill-rule="evenodd" clip-rule="evenodd" d="M41.339 34.7264C42.8798 30.2531 41.9482 25.0464 38.4365 21.4531C34.459 17.3831 28.439 16.6864 23.7448 19.2897L32.1657 27.9064L27.1132 33.0764L18.6923 24.4597C16.1482 29.2997 16.829 35.4231 20.8065 39.4931C24.3182 43.0864 29.4065 44.0397 33.7782 42.4631L45.9973 54.9664C46.714 55.6997 47.8248 55.6997 48.5415 54.9664L53.5582 49.8331C54.2748 49.0997 54.2748 47.9631 53.5582 47.2297L41.339 34.7264Z" fill="#4E6C99"/>
</svg>
