<svg width="26" height="26" viewBox="0 0 26 26" fill="none" xmlns="http://www.w3.org/2000/svg">
<g clip-path="url(#clip0_219_1985)">
<path d="M8.17934 23.5623C17.9882 23.5623 23.3548 15.4337 23.3548 8.38683C23.3548 8.15832 23.3497 7.92472 23.3396 7.69621C24.3835 6.94123 25.2845 6.00609 26 4.93472C25.0277 5.3673 23.9954 5.64981 22.9384 5.77261C24.0514 5.10547 24.8847 4.05741 25.284 2.82273C24.2369 3.44325 23.0919 3.88098 21.8979 4.11714C21.0934 3.26234 20.0297 2.69636 18.8713 2.50671C17.7129 2.31705 16.5243 2.51429 15.4892 3.06792C14.4541 3.62155 13.6303 4.50075 13.145 5.56957C12.6597 6.63839 12.54 7.83732 12.8045 8.98097C10.6844 8.87458 8.61026 8.32383 6.71665 7.36442C4.82303 6.40502 3.15217 5.05837 1.81238 3.41179C1.13143 4.58583 0.923061 5.9751 1.22962 7.29725C1.53617 8.6194 2.33465 9.77522 3.46277 10.5298C2.61585 10.5029 1.78747 10.2749 1.04609 9.86457V9.93058C1.04534 11.1626 1.47127 12.357 2.2515 13.3105C3.03173 14.264 4.1181 14.9179 5.32594 15.1611C4.54139 15.3757 3.71798 15.407 2.91941 15.2525C3.26024 16.312 3.92337 17.2388 4.81625 17.9033C5.70913 18.5679 6.78721 18.9371 7.90004 18.9595C6.01079 20.4435 3.67702 21.2485 1.27461 21.2446C0.848561 21.244 0.422932 21.2179 0 21.1664C2.44059 22.7322 5.27966 23.5638 8.17934 23.5623Z" fill="white"/>
</g>
<defs>
<clipPath id="clip0_219_1985">
<rect width="26" height="26" fill="white"/>
</clipPath>
</defs>
</svg>
