<svg width="29" height="34" viewBox="0 0 29 34" fill="none" xmlns="http://www.w3.org/2000/svg">
<path d="M21.8308 0V3.38356H26.5198C27.3743 3.38356 28.0682 4.1364 28.0682 5.0635V32.1557C28.0678 32.6011 27.9045 33.0281 27.6142 33.3431C27.3239 33.658 26.9303 33.8352 26.5198 33.8356H1.54843C1.13789 33.8352 0.744277 33.658 0.45398 33.3431C0.163683 33.0281 0.000412813 32.6011 0 32.1557V5.0635C0 4.1364 0.693908 3.38356 1.54843 3.38356H6.23737V0H21.8308ZM6.23737 6.76712H3.11869V30.4521H24.9495V6.76712H21.8308V10.1507H6.23737V6.76712ZM9.35606 23.6849V27.0685H6.23737V23.6849H9.35606ZM9.35606 18.6096V21.9931H6.23737V18.6096H9.35606ZM9.35606 13.5342V16.9178H6.23737V13.5342H9.35606ZM18.7121 3.38356H9.35606V6.76712H18.7121V3.38356Z" fill="#38689D"/>
<path d="M10.7397 15.2167C11.6104 15.167 12.8457 13.3519 13.3649 15.116C13.6429 16.0604 16.0632 14.6728 16.6334 14.6728C17.1637 14.6728 18.6296 14.9093 18.9577 15.3073C19.1584 15.5509 20.1385 15.398 20.4518 15.398C21.0165 15.398 20.9245 16.1231 21.4791 16.1231C22.1309 16.1231 22.2969 15.8265 22.5063 15.2167" stroke="#4E6C99" stroke-width="2" stroke-linecap="round"/>
<path d="M11.3003 19.3849C11.9216 19.3179 13.2161 18.1434 13.5519 19.2842C13.6541 19.6315 14.757 18.882 14.9319 18.8511C15.4281 18.7636 15.8082 18.8883 16.1978 19.1633C16.6112 19.4551 17.4134 19.044 17.8373 19.0223C18.3904 18.9941 18.8101 19.1213 19.3314 19.1936C19.8344 19.2633 20.5371 19.2777 21.0124 19.113C21.5816 18.9157 21.825 19.2036 22.3198 19.2036" stroke="#4E6C99" stroke-width="2" stroke-linecap="round"/>
<path d="M11.8601 25.7313C12.6379 25.6474 13.5533 24.6383 14.2881 24.3213C14.8466 24.0803 15.1896 25.0061 15.7823 25.0061C16.8046 25.0061 19.7467 25.4679 20.2648 24.4623" stroke="#4E6C99" stroke-width="2" stroke-linecap="round"/>
</svg>
