<svg width="70" height="70" viewBox="0 0 70 70" fill="none" xmlns="http://www.w3.org/2000/svg">
<path d="M35 51.7411C39.8325 51.7411 43.75 44.2456 43.75 34.9995C43.75 25.7533 39.8325 18.2578 35 18.2578C30.1675 18.2578 26.25 25.7533 26.25 34.9995C26.25 44.2456 30.1675 51.7411 35 51.7411Z" fill="#4E6C99"/>
<path d="M21.8751 34.9997C21.8751 32.1705 22.5459 22.8663 30.7126 16.0413C28.4376 15.1372 25.9584 14.583 23.3334 14.583C12.0751 14.583 2.91675 23.7413 2.91675 34.9997C2.91675 46.258 12.0751 55.4163 23.3334 55.4163C25.9584 55.4163 28.4376 54.8622 30.7126 53.958C22.5459 47.133 21.8751 37.8288 21.8751 34.9997Z" fill="#4E6C99"/>
<path d="M46.6668 14.583C44.0418 14.583 41.5626 15.1372 39.2876 16.0413C47.4543 22.8663 48.1251 32.1705 48.1251 34.9997C48.1251 37.8288 47.4543 47.133 39.2876 53.958C41.5626 54.8622 44.0418 55.4163 46.6668 55.4163C57.9251 55.4163 67.0834 46.258 67.0834 34.9997C67.0834 23.7413 57.9251 14.583 46.6668 14.583Z" fill="#4E6C99"/>
</svg>
