<svg width="101" height="100" viewBox="0 0 101 100" fill="none" xmlns="http://www.w3.org/2000/svg">
<path d="M50.5007 8.33301C27.5007 8.33301 8.83398 26.9997 8.83398 49.9997C8.83398 72.9997 27.5007 91.6664 50.5007 91.6664C73.5007 91.6664 92.1673 72.9997 92.1673 49.9997C92.1673 26.9997 73.5007 8.33301 50.5007 8.33301ZM17.1673 49.9997C17.1673 47.458 17.5007 44.958 18.0423 42.583L37.959 62.4997V66.6663C37.959 71.2497 41.709 74.9997 46.2923 74.9997V83.0414C29.9173 80.958 17.1673 66.958 17.1673 49.9997ZM75.0423 72.4997C73.959 69.1247 70.8757 66.6663 67.1257 66.6663H62.959V54.1663C62.959 51.8747 61.084 49.9997 58.7923 49.9997H33.7923V41.6663H42.1257C44.4173 41.6663 46.2923 39.7913 46.2923 37.4997V29.1663H54.6257C59.209 29.1663 62.959 25.4163 62.959 20.833V19.1247C75.1673 24.0413 83.834 36.0413 83.834 49.9997C83.834 58.6663 80.459 66.583 75.0423 72.4997Z" fill="#4E6C99"/>
</svg>
