<svg width="406" height="306" viewBox="0 0 406 306" fill="none" xmlns="http://www.w3.org/2000/svg">
<path opacity="0.3" d="M289.884 69.6577C321.552 80.4573 351.241 110.126 352.631 148.361C354.032 186.931 336.056 223.034 284.098 241.04C231.065 259.422 95.8565 264.101 68.147 212.539C40.4375 160.977 46.091 94.9109 102.657 71.6166C142.262 55.2954 228.03 48.5761 289.884 69.6577Z" fill="#E6E6E6"/>
<path d="M219.149 100.89L234.729 107.782C240.403 110.292 246.712 110.994 252.798 109.794C258.885 108.593 264.455 105.548 268.752 101.073L284.098 85.0762L289.945 89.1362L277.095 108.543C271.643 116.765 263.959 123.261 254.945 127.269C245.93 131.276 235.959 132.629 226.203 131.167L203.538 127.777L219.149 100.89Z" fill="#9ED6BE"/>
<path opacity="0.46" d="M219.149 100.89L234.729 107.782C240.403 110.292 246.712 110.994 252.798 109.794C258.885 108.593 264.455 105.548 268.752 101.073L284.098 85.0762L289.945 89.1362L277.095 108.543C271.643 116.765 263.959 123.261 254.945 127.269C245.93 131.276 235.959 132.629 226.203 131.167L203.538 127.777L219.149 100.89Z" fill="white"/>
<path d="M289.945 89.0541C289.945 89.0541 300.694 87.6229 297.781 84.6084C294.868 81.5938 284.098 85.0448 284.098 85.0448L289.945 89.0541Z" fill="#F4A28C"/>
<path d="M301.668 49.582H280.708C280.708 49.582 278.486 66.1671 291.193 66.1671C291.193 66.1671 303.312 66.563 301.668 49.582Z" fill="#FFD200"/>
<path d="M291.173 52.7795C296.969 52.7795 301.668 51.4389 301.668 49.7853C301.668 48.1316 296.969 46.791 291.173 46.791C285.377 46.791 280.678 48.1316 280.678 49.7853C280.678 51.4389 285.377 52.7795 291.173 52.7795Z" fill="#FFD200"/>
<path opacity="0.08" d="M291.173 52.7795C296.969 52.7795 301.668 51.4389 301.668 49.7853C301.668 48.1316 296.969 46.791 291.173 46.791C285.377 46.791 280.678 48.1316 280.678 49.7853C280.678 51.4389 285.377 52.7795 291.173 52.7795Z" fill="black"/>
<path d="M286.281 83.7461H296.806V73.2205H286.281V83.7461Z" fill="#24285B"/>
<path d="M289.945 73.2207H292.188V62.888H289.945V73.2207Z" fill="#FFD200"/>
<path d="M300.166 55.6309H303.921C304.998 55.6309 306.031 56.0586 306.792 56.82C307.554 57.5814 307.981 58.6141 307.981 59.6909C307.981 60.7676 307.554 61.8003 306.792 62.5617C306.031 63.3231 304.998 63.7509 303.921 63.7509H293.223" stroke="#FFD200" stroke-width="3.045" stroke-miterlimit="10"/>
<path d="M282.17 55.6309H278.414C277.338 55.6309 276.305 56.0586 275.544 56.82C274.782 57.5814 274.354 58.6141 274.354 59.6909C274.354 60.7676 274.782 61.8003 275.544 62.5617C276.305 63.3231 277.338 63.7509 278.414 63.7509H289.113" stroke="#FFD200" stroke-width="3.045" stroke-miterlimit="10"/>
<path opacity="0.46" d="M294.675 62.2092C296.671 62.2092 298.288 60.5914 298.288 58.5958C298.288 56.6002 296.671 54.9824 294.675 54.9824C292.679 54.9824 291.062 56.6002 291.062 58.5958C291.062 60.5914 292.679 62.2092 294.675 62.2092Z" fill="white"/>
<path d="M196.809 83.5237C198.126 86.0903 199.095 88.821 199.691 91.6437C199.787 92.3288 199.606 93.0237 199.189 93.5757C198.772 94.1277 198.153 94.4915 197.468 94.5872C196.384 94.803 195.26 94.7014 194.232 94.2946C193.204 93.8877 192.316 93.1928 191.673 92.2933L188.516 88.7103C187.96 87.9237 187.661 86.984 187.661 86.0206C187.661 85.0572 187.96 84.1174 188.516 83.3308C190.414 80.2655 195.499 80.6512 196.809 83.5237Z" fill="#F4A28C"/>
<path d="M190.099 87.3594L189.348 104.31L198.727 104.056L195.509 91.8254L190.099 87.3594Z" fill="#F4A28C"/>
<path d="M198.158 86.5078L200.249 87.7969C200.367 87.8722 200.463 87.9758 200.53 88.0982C200.597 88.2206 200.632 88.3578 200.632 88.4972C200.632 88.6367 200.597 88.7739 200.53 88.8962C200.463 89.0186 200.367 89.1222 200.249 89.1976L198.554 90.2938L198.158 86.5078Z" fill="#F4A28C"/>
<path opacity="0.31" d="M196.271 94.6272C195.078 94.4717 193.959 93.9666 193.053 93.1758C193.053 93.1758 193.53 96.2208 197.265 98.9004L196.271 94.6272Z" fill="#CE8172"/>
<path d="M217.291 254.621C217.291 254.621 218.672 258.448 222.123 258.742C225.574 259.036 226.487 262.406 223.381 263.289C220.275 264.172 212.216 260.173 212.216 260.173L212.44 255.189L217.291 254.621Z" fill="#9ED6BE"/>
<path d="M170.52 254.621C170.52 254.621 169.14 258.448 165.678 258.742C162.217 259.036 161.324 262.406 164.43 263.289C167.536 264.172 175.595 260.173 175.595 260.173L175.372 255.189L170.52 254.621Z" fill="#9ED6BE"/>
<path d="M211.638 99.3463C196.251 99.6305 181.063 102.88 166.907 108.918C164.736 109.837 162.777 111.191 161.15 112.896C159.523 114.601 158.263 116.622 157.447 118.833C156.631 121.044 156.277 123.399 156.406 125.753C156.535 128.106 157.145 130.408 158.198 132.516L182.558 181.064L227.665 178.374C227.665 178.374 235.876 151.091 234.232 120.225C233.894 114.499 231.353 109.127 227.141 105.234C222.928 101.342 217.372 99.2314 211.638 99.3463Z" fill="#9ED6BE"/>
<path d="M182.538 181.065L169.048 255.312H175.798L192.698 215.006C198.681 200.729 209.234 188.841 222.701 181.207L227.665 178.375L182.538 181.065Z" fill="#24285B"/>
<path d="M227.665 178.375L220.702 255.292H211.739C211.739 255.292 213.83 197.437 197.661 185.094L227.665 178.375Z" fill="#24285B"/>
<path opacity="0.08" d="M179.543 112.48C179.543 112.48 191.074 119.89 187.44 142.677C186.38 149.338 186.809 156.151 188.696 162.627C190.582 169.103 193.88 175.08 198.351 180.13L182.537 181.064C182.537 181.064 172.387 159.922 169.688 155.435C166.988 150.949 179.543 112.48 179.543 112.48Z" fill="black"/>
<path d="M181.888 119.384C181.939 109.061 169.038 104.301 162.136 111.974C156.115 118.503 152.273 126.743 151.144 135.553C148.403 158.218 151.428 207.699 151.428 207.699H159.629C159.629 207.699 165.171 158.248 177.26 135.553C180.67 129.229 181.868 123.85 181.888 119.384Z" fill="#9ED6BE"/>
<path opacity="0.46" d="M181.888 119.384C181.939 109.061 169.038 104.301 162.136 111.974C156.115 118.503 152.273 126.743 151.144 135.553C148.403 158.218 151.428 207.699 151.428 207.699H159.629C159.629 207.699 165.171 158.248 177.26 135.553C180.67 129.229 181.868 123.85 181.888 119.384Z" fill="white"/>
<path d="M148.505 222.02V218.519C148.501 217.889 148.621 217.266 148.858 216.683C149.095 216.1 149.444 215.57 149.886 215.122C150.328 214.674 150.854 214.318 151.434 214.074C152.014 213.829 152.636 213.701 153.265 213.697H157.751C158.381 213.696 159.005 213.819 159.588 214.059C160.17 214.299 160.7 214.652 161.146 215.097C161.591 215.542 161.945 216.07 162.187 216.652C162.428 217.234 162.552 217.858 162.552 218.488V222.244" stroke="#24285B" stroke-width="2.03" stroke-miterlimit="10"/>
<path d="M173.19 220.609H138.974V242.899H173.19V220.609Z" fill="#FFD200"/>
<path opacity="0.08" d="M138.974 231.053C138.974 231.053 151.793 242.076 173.19 238.828V242.888H138.974V231.053Z" fill="black"/>
<path d="M152.849 207.699C152.849 207.699 150.382 215.87 153.62 215.87C156.858 215.87 160.725 217.423 158.289 207.699H152.849Z" fill="#F4A28C"/>
<path d="M189.744 93.5509L192.982 91.8152L193.307 90.0897C193.761 89.4183 194.003 88.6265 194.003 87.8161C194.003 87.0057 193.761 86.2139 193.307 85.5425C193.307 85.5425 199.518 82.4975 198.057 79.9296C196.595 77.3616 192.018 73.8396 187.572 77.1688C183.126 80.498 180.883 86.4357 189.744 93.5509Z" fill="#24285B"/>
<path d="M193.408 89.7239C193.408 89.7239 192.617 87.8969 191.287 88.6074C189.957 89.3179 191.094 91.9671 193.073 91.4393L193.408 89.7239Z" fill="#F4A28C"/>
<path d="M186.557 102.483C192.073 100.91 197.756 99.9998 203.487 99.7734C203.487 99.7734 211.384 131.299 205.172 156.705C205.172 156.705 196.321 124.712 186.557 102.483Z" fill="white"/>
<path d="M186.557 102.484C186.557 102.484 186.253 98.6475 188.973 98.5257C190.462 98.4237 191.958 98.5504 193.408 98.9013C193.408 98.9013 201.366 92.6692 203.487 99.7742C203.487 99.7742 192.109 101.043 186.557 102.484Z" fill="#9ED6BE"/>
<path opacity="0.77" d="M186.557 102.484C186.557 102.484 186.253 98.6475 188.973 98.5257C190.462 98.4237 191.958 98.5504 193.408 98.9013C193.408 98.9013 201.366 92.6692 203.487 99.7742C203.487 99.7742 192.109 101.043 186.557 102.484Z" fill="white"/>
<path d="M192.119 101.296C192.119 101.296 191.216 98.2514 193.134 97.9266C195.053 97.6018 196.737 96.3331 197.143 100.17C197.549 104.006 193.662 104.412 192.119 101.296Z" fill="#24285B"/>
<path d="M193.368 102.808C193.368 102.808 199.336 123.951 199.397 137.542L205.172 156.705C206.829 149.874 207.63 142.864 207.557 135.836C207.557 135.836 201.386 108.025 197.052 101.529L193.368 102.808Z" fill="#24285B"/>
<path d="M246.026 71.3851L232.671 79.1895L236.409 85.5868L249.764 77.7824L246.026 71.3851Z" fill="#E6E6E6"/>
<path d="M310.356 153.138L295.851 147.764L293.277 154.712L307.782 160.086L310.356 153.138Z" fill="#E6E6E6"/>
<path d="M265.706 197.663L254.573 208.402L259.718 213.735L270.85 202.995L265.706 197.663Z" fill="#E6E6E6"/>
<path d="M119.167 97.0262L131.306 106.613L135.898 100.798L123.759 91.2114L119.167 97.0262Z" fill="#E6E6E6"/>
<path d="M99.6071 183.488L106.374 169.578L99.7105 166.337L92.9441 180.247L99.6071 183.488Z" fill="#E6E6E6"/>
</svg>
