<svg width="406" height="306" viewBox="0 0 406 306" fill="none" xmlns="http://www.w3.org/2000/svg">
<path d="M105.286 109.466C105.286 109.466 125.068 99.3164 147.398 107.02C169.728 114.724 126.347 127.32 126.347 127.32L105.286 109.466Z" fill="#9ED6BE"/>
<path opacity="0.08" d="M105.286 109.466C105.286 109.466 125.068 99.3164 147.398 107.02C169.728 114.724 126.347 127.32 126.347 127.32L105.286 109.466Z" fill="black"/>
<path d="M81.2 116.786C81.2 116.786 67.6294 124.581 64.2495 143.866C60.8695 163.151 107.214 189.206 107.214 189.206L136.01 167.597C136.01 167.597 153.113 92.2632 92.9638 112.482L81.2 116.786Z" fill="#9ED6BE"/>
<path opacity="0.45" d="M210.755 282.077C289.453 282.077 353.25 272.906 353.25 261.594C353.25 250.282 289.453 241.111 210.755 241.111C132.056 241.111 68.2588 250.282 68.2588 261.594C68.2588 272.906 132.056 282.077 210.755 282.077Z" fill="#E6E6E6"/>
<path d="M289.894 73.5957H126.357V261.594H289.894V73.5957Z" fill="#E6E6E6"/>
<path d="M270.812 180.15H247.965V201.252H270.812V180.15Z" fill="#24285B"/>
<path d="M270.812 211.363H247.965V232.465H270.812V211.363Z" fill="#A5A5A5"/>
<path opacity="0.08" d="M254.298 195.041C254.298 195.041 212.683 201.953 232.181 261.595H276.719L254.298 195.041Z" fill="black"/>
<path d="M107.225 189.205L126.804 215.25L126.357 174.822L107.225 189.205Z" fill="#24285B"/>
<path d="M292.787 59.9355H123.668V107.021H292.787V59.9355Z" fill="#9ED6BE"/>
<path d="M280.444 261.605C301.662 261.605 318.862 244.405 318.862 223.187C318.862 201.97 301.662 184.77 280.444 184.77C259.227 184.77 242.027 201.97 242.027 223.187C242.027 244.405 259.227 261.605 280.444 261.605Z" fill="#FFD200"/>
<path d="M268.934 222.71L277.197 236.931L294.431 211.17" stroke="white" stroke-width="10.15" stroke-linecap="round" stroke-linejoin="round"/>
<path d="M169.901 42.4453H156.34V83.4818H169.901V42.4453Z" fill="#F2F2F2"/>
<path opacity="0.08" d="M178.853 59.6191H169.901V83.4716H178.853V59.6191Z" fill="black"/>
<path opacity="0.08" d="M268.336 59.6191H259.383V83.4716H268.336V59.6191Z" fill="black"/>
<path d="M259.383 42.4453H245.823V83.4818H259.383V42.4453Z" fill="#F2F2F2"/>
<path d="M185.755 125.777H148.637V137.003H185.755V125.777Z" fill="#24285B"/>
<path d="M172.591 149.133H149.743V170.235H172.591V149.133Z" fill="white"/>
<path opacity="0.32" d="M205.751 149.133H182.903V170.235H205.751V149.133Z" fill="#A5A5A5"/>
<path d="M238.566 149.133H215.718V170.235H238.566V149.133Z" fill="#FFD200"/>
<path d="M270.812 149.133H247.965V170.235H270.812V149.133Z" fill="#24285B"/>
<path d="M80.5606 117.18C80.5606 117.18 79.982 124.58 86.7521 128.132C93.5221 131.685 92.8421 122.661 92.8421 122.661C92.8421 122.661 95.3085 125.321 99.2264 121.819C103.144 118.317 93.9383 111.902 93.9383 111.902L80.5606 117.18Z" fill="white"/>
<path d="M172.591 180.15H149.743V201.252H172.591V180.15Z" fill="white"/>
<path opacity="0.32" d="M205.751 180.15H182.903V201.252H205.751V180.15Z" fill="#A5A5A5"/>
<path opacity="0.32" d="M238.566 180.15H215.718V201.252H238.566V180.15Z" fill="#A5A5A5"/>
<path d="M172.591 211.363H149.743V232.465H172.591V211.363Z" fill="white"/>
<path opacity="0.32" d="M205.751 211.363H182.903V232.465H205.751V211.363Z" fill="#A5A5A5"/>
<path opacity="0.32" d="M238.566 211.363H215.718V232.465H238.566V211.363Z" fill="#A5A5A5"/>
<path d="M91.1064 109.01C91.6146 110.555 92.211 112.07 92.8928 113.547C93.8469 115.577 94.7299 118.845 91.8778 121.028C87.5133 124.397 82.3063 117.424 82.3063 117.424C82.3063 117.424 75.5972 111.832 80.2763 108.157C84.5799 104.859 88.7009 101.946 91.1064 109.01Z" fill="#F4A28C"/>
<path d="M74.9882 107.325C74.0685 108.336 73.5552 109.652 73.5469 111.019C73.5008 111.715 73.6599 112.409 74.0046 113.015C74.3492 113.622 74.8641 114.113 75.4856 114.43C78.6524 115.922 82.3165 117.475 82.3165 117.475C82.3165 117.475 78.7132 114.237 82.3165 112.846C85.9197 111.456 89.9493 112.654 91.1064 109.06C92.2635 105.467 93.1364 103.427 91.1064 101.184C89.0764 98.9409 87.9701 95.5914 84.6206 98.5755C81.2711 101.56 81.5756 97.9462 78.6422 96.8601C75.7089 95.7741 72.1665 97.459 73.5672 100.068C74.7446 102.301 76.7543 105.203 74.9882 107.325Z" fill="#24285B"/>
<path d="M86.7419 139.988C84.519 130.244 71.385 128.265 66.0258 136.7C59.3166 147.286 50.75 164.653 53.795 181.086C58.5249 207.13 78.8756 230.14 126.388 215.25V207.476C126.388 207.476 109.64 211.058 95.1258 205.537C80.6113 200.015 74.0138 182.72 80.8346 168.601C84.7525 160.43 88.8125 149.083 86.7419 139.988Z" fill="#9ED6BE"/>
<path opacity="0.2" d="M86.7419 139.988C84.519 130.244 71.385 128.265 66.0258 136.7C59.3166 147.286 50.75 164.653 53.795 181.086C58.5249 207.13 78.8756 230.14 126.388 215.25V207.476C126.388 207.476 109.64 211.058 95.1258 205.537C80.6113 200.015 74.0138 182.72 80.8346 168.601C84.7525 160.43 88.8125 149.083 86.7419 139.988Z" fill="white"/>
<path d="M126.357 215.251C126.357 215.251 119.252 210.856 123.668 204.258C128.083 197.661 137.025 206.461 126.357 215.251Z" fill="#F4A28C"/>
<path opacity="0.32" d="M289.894 107.02H126.357V116.784H289.894V107.02Z" fill="#A5A5A5"/>
<path d="M82.7732 117.577C82.7732 117.577 81.3116 115.405 79.3425 116.562C77.3734 117.719 80.388 121.597 82.7732 117.577Z" fill="#F4A28C"/>
<path d="M92.1823 113.984C92.1823 113.984 90.335 112.117 91.8271 110.371C93.3191 108.625 96.5975 112.401 92.1823 113.984Z" fill="#F4A28C"/>
<path d="M188.079 59.9351C188.079 59.9351 193.489 51.8151 199.579 55.8751C205.669 59.9351 200.259 65.3146 188.079 59.9351Z" fill="#F4A28C"/>
<path opacity="0.08" d="M105.286 109.466C105.286 109.466 132.894 152.827 94.6183 181.247L107.214 189.205L126.357 174.822V113.415C126.357 113.415 119.323 107.325 105.286 109.466Z" fill="black"/>
</svg>
