<svg width="406" height="306" viewBox="0 0 406 306" fill="none" xmlns="http://www.w3.org/2000/svg">
<path d="M148.87 109.903C148.87 109.903 136.081 133.086 154.006 140.079C171.931 147.072 199.397 120.967 199.397 120.967C199.397 120.967 208.735 116.754 206.4 111.06C204.066 105.366 194.474 116.237 194.474 116.237C194.474 116.237 154.047 134.923 162.085 109.903H148.87Z" fill="#F4A28C"/>
<path d="M130.732 206.572H85.1179V245.599H130.732V206.572Z" fill="#FFD200"/>
<path d="M194.484 181.105H148.87V245.599H194.484V181.105Z" fill="#FFD200"/>
<path d="M256.156 157.273H210.542V245.599H256.156V157.273Z" fill="#FFD200"/>
<path d="M318.355 109.902H272.741V245.598H318.355V109.902Z" fill="#FFD200"/>
<path d="M163.121 55.4683C163.121 55.4683 164.501 61.609 164.014 65.8822C163.965 66.2964 163.834 66.6969 163.63 67.0607C163.426 67.4244 163.152 67.7442 162.824 68.0017C162.495 68.2592 162.119 68.4493 161.718 68.5611C161.316 68.6728 160.896 68.7041 160.482 68.6531C159.144 68.57 157.859 68.1038 156.779 67.3101C155.699 66.5164 154.87 65.4288 154.392 64.177L151.803 58.9802C151.393 57.8834 151.333 56.6864 151.631 55.5539C151.929 54.4215 152.571 53.4093 153.468 52.6567C156.625 49.6523 162.471 51.6823 163.121 55.4683Z" fill="#F4A28C"/>
<path d="M156.087 58.4941L140.781 72.3286L149.012 80.2151L156.645 67.3145L156.087 58.4941Z" fill="#F4A28C"/>
<path d="M161.608 55.935C159.693 56.2711 157.744 56.3802 155.803 56.2598C156.473 57.034 156.903 57.9877 157.038 59.0031C157.173 60.0186 157.009 61.0514 156.564 61.9742C156.151 62.8745 155.439 63.6036 154.548 64.0368C153.658 64.47 152.645 64.5805 151.682 64.3493L150.667 56.3207C150.488 55.1784 150.622 54.0091 151.055 52.9369C151.487 51.8647 152.202 50.9296 153.123 50.2307C153.92 49.6248 154.754 49.0689 155.62 48.5661C157.812 47.3278 161.395 48.4138 163.253 46.5361C163.44 46.3516 163.672 46.2192 163.927 46.1519C164.181 46.0846 164.448 46.0848 164.702 46.1524C164.957 46.2201 165.189 46.3528 165.376 46.5376C165.563 46.7223 165.699 46.9527 165.77 47.206C166.46 49.5912 166.541 53.4888 163.425 55.2651C162.86 55.585 162.246 55.8112 161.608 55.935Z" fill="#24285B"/>
<path d="M157.213 61.7016C157.213 61.7016 156.848 59.3062 155.062 59.7325C153.275 60.1588 153.793 63.6199 156.29 63.6199L157.213 61.7016Z" fill="#F4A28C"/>
<path d="M163.791 59.377L165.821 61.5491C165.936 61.673 166.019 61.8241 166.062 61.9884C166.104 62.1528 166.105 62.3251 166.063 62.4897C166.022 62.6543 165.94 62.8058 165.825 62.9305C165.71 63.0552 165.565 63.1491 165.404 63.2035L163.08 63.9749L163.791 59.377Z" fill="#F4A28C"/>
<path opacity="0.31" d="M156.422 67.6793C155.6 66.5473 155.099 65.215 154.97 63.8223C154.97 63.8223 151.357 66.5323 154.239 71.3739L156.422 67.6793Z" fill="#CE8172"/>
<path d="M140.781 72.3281L149.012 80.2146C149.012 80.2146 171.677 99.2763 161.436 115.07C151.194 130.863 121.668 143.226 121.668 143.226L99.7035 120.896C99.7035 120.896 110.331 54.0479 140.781 72.3281Z" fill="#9ED6BE"/>
<path d="M99.7035 120.865C99.7035 120.865 90.8223 136.78 102.221 143.195C113.619 149.61 144.546 139.135 146.617 149.123C147.933 155.958 148.686 162.89 148.87 169.849L157.213 171.098C157.213 171.098 165.973 141.571 156.645 132.649C147.317 123.728 99.7035 120.865 99.7035 120.865Z" fill="#24285B"/>
<path d="M101.774 106.188H57.9058V135.734H101.774V106.188Z" fill="#FFD200"/>
<path d="M127.403 137.389C127.403 137.389 138.152 177.481 96.425 191.569L91.9286 186.139C91.9286 186.139 120.552 159.384 103.449 137.419L127.403 137.389Z" fill="#24285B"/>
<path d="M135.604 91.7152C142.76 83.4937 137.776 70.5728 127.048 68.6037C115.213 66.4316 98.0287 65.8226 85.1179 76.0132C63.3461 93.1768 72.674 124.023 72.674 124.023C72.674 124.023 69.5681 139.248 74.2371 139.035C78.9061 138.821 78.8959 120.866 78.8959 120.866C78.8959 120.866 89.7767 82.8137 116.217 93.6945C126.124 97.7748 132.062 95.7955 135.604 91.7152Z" fill="#F4A28C"/>
<path d="M92.6797 187.074L91.2688 187.48C90.5586 187.682 89.9405 188.125 89.5203 188.732C89.1 189.339 88.9037 190.073 88.9648 190.809L89.3708 195.712C89.4075 196.174 89.5813 196.616 89.8699 196.979C90.1585 197.342 90.5488 197.611 90.991 197.752C91.4333 197.892 91.9074 197.898 92.3528 197.768C92.7982 197.638 93.1947 197.378 93.4917 197.021C94.4153 195.813 95.1766 193.753 95.3085 190.241L92.6797 187.074Z" fill="#9ED6BE"/>
<path d="M150.596 170.144L151.123 172.965C151.186 173.304 151.321 173.626 151.517 173.909C151.714 174.192 151.968 174.43 152.264 174.608C152.559 174.785 152.889 174.898 153.231 174.938C153.574 174.979 153.921 174.946 154.25 174.843L159.72 173.128C160.03 173.036 160.307 172.859 160.52 172.616C160.733 172.373 160.872 172.075 160.922 171.756C160.972 171.437 160.931 171.111 160.802 170.814C160.674 170.518 160.464 170.264 160.197 170.083C158.249 168.723 155.001 167.586 150.596 170.144Z" fill="#9ED6BE"/>
<path opacity="0.09" d="M143.927 88.0399C143.927 88.0399 141.217 98.6568 128.611 103.671C124.975 105.136 122.061 107.972 120.498 111.567C118.935 115.162 118.849 119.227 120.257 122.885L99.7035 120.916C99.7035 120.916 101.733 105.843 106.808 94.7389C111.883 83.6348 143.927 88.0399 143.927 88.0399Z" fill="black"/>
<path d="M95.9175 68.1672L101.429 94.9937C101.429 94.9937 107.316 93.4306 120.277 97.0237C133.239 100.617 146.444 93.39 144.374 81.4739C142.303 69.5578 127.535 59.4788 95.9175 68.1672Z" fill="#9ED6BE"/>
<path opacity="0.44" d="M95.9175 68.1672L101.429 94.9937C101.429 94.9937 107.316 93.4306 120.277 97.0237C133.239 100.617 146.444 93.39 144.374 81.4739C142.303 69.5578 127.535 59.4788 95.9175 68.1672Z" fill="white"/>
<path d="M354.631 244.178H57.1241V256.957H354.631V244.178Z" fill="#E6E6E6"/>
<path opacity="0.58" d="M290.29 98.6983C290.29 98.6983 281.307 96.2522 279.358 87.8886C279.358 87.8886 293.274 85.077 293.67 99.4393L290.29 98.6983Z" fill="#9ED6BE"/>
<path opacity="0.73" d="M291.437 97.8151C291.437 97.8151 285.164 87.8884 290.686 78.6113C290.686 78.6113 301.262 85.3408 296.563 97.8354L291.437 97.8151Z" fill="#9ED6BE"/>
<path d="M293.051 97.8154C293.051 97.8154 296.38 87.3406 306.388 85.3613C306.388 85.3613 308.266 92.1618 299.902 97.8458L293.051 97.8154Z" fill="#9ED6BE"/>
<path d="M286.534 97.5801L288.361 110.034L299.831 110.085L301.516 97.641L286.534 97.5801Z" fill="#24285B"/>
</svg>
