<svg width="406" height="306" viewBox="0 0 406 306" fill="none" xmlns="http://www.w3.org/2000/svg">
<path d="M115.294 138.79C115.294 138.79 124.53 95.3379 147.774 95.3379C171.017 95.3379 183.38 163.647 126.845 171.077L115.294 138.79Z" fill="#F4A28C"/>
<path opacity="0.1" d="M115.294 138.79C115.294 138.79 124.53 95.3379 147.774 95.3379C171.017 95.3379 183.38 163.647 126.845 171.077L115.294 138.79Z" fill="black"/>
<path d="M279.419 48.4355H134.812V227.766H279.419V48.4355Z" fill="#24285B"/>
<path d="M264.905 59.3164H148.809V212.734H264.905V59.3164Z" fill="white"/>
<path d="M239.51 37.6562H176.275V64.503H239.51V37.6562Z" fill="#FFD200"/>
<path opacity="0.21" d="M229.492 128.133H200.808V134.456H229.492V128.133Z" fill="#A8A8A8"/>
<path opacity="0.21" d="M246.249 140.697H200.808V147.021H246.249V140.697Z" fill="#A8A8A8"/>
<path opacity="0.21" d="M229.492 168.793H200.808V175.116H229.492V168.793Z" fill="#A8A8A8"/>
<path opacity="0.21" d="M246.249 181.369H200.808V187.693H246.249V181.369Z" fill="#A8A8A8"/>
<path d="M189.49 83.9395H163.577V109.852H189.49V83.9395Z" fill="#9ED6BE"/>
<path d="M189.49 124.367H163.577V150.28H189.49V124.367Z" fill="#9ED6BE"/>
<path d="M189.49 164.795H163.577V190.708H189.49V164.795Z" fill="#9ED6BE"/>
<path d="M172.296 96.8606L175.351 101.316L181.685 93.1152" stroke="white" stroke-width="4.06" stroke-linecap="round" stroke-linejoin="round"/>
<path d="M172.296 137.226L175.351 141.682L181.685 133.471" stroke="white" stroke-width="4.06" stroke-linecap="round" stroke-linejoin="round"/>
<path opacity="0.1" d="M209.983 166.661L206.167 173.3L219.017 171.665L232.638 166.712C232.638 166.712 239.611 177.877 251.284 184.495C264.16 191.564 274.048 203.049 279.125 216.833L279.45 217.736V155.821L261.566 137.074L209.983 166.661Z" fill="black"/>
<path d="M172.296 177.888L175.351 182.344L181.685 174.143" stroke="white" stroke-width="4.06" stroke-linecap="round" stroke-linejoin="round"/>
<path d="M277.481 133.714C277.481 133.714 262.885 120.631 241.276 129.654C224.356 136.759 232.364 145.113 241.458 144.758C250.553 144.402 265.818 138.201 264.753 153.304C263.788 166.611 247.284 147.478 237.825 148.229C228.365 148.98 229.451 159.729 241.103 165.626C252.755 171.523 269.117 184.292 281.855 174.264C294.594 164.235 290.95 146.422 277.481 133.714Z" fill="#F4A28C"/>
<path d="M300.678 126.558L296.184 117.209L214.527 156.455L219.021 165.805L300.678 126.558Z" fill="#9ED6BE"/>
<path d="M273.664 177.999L324.77 261.199L366.466 225.603L293.132 153.518L273.664 177.999Z" fill="#9ED6BE"/>
<path d="M214.52 156.461L203.619 167.707L219.017 165.809L214.52 156.461Z" fill="#24285B"/>
<path d="M133.503 122.6C133.503 122.6 151.448 104.259 159.193 105.883C165.587 107.233 165.597 119.951 151.661 130.548C148.832 132.675 146.493 135.385 144.803 138.495C143.113 141.606 142.112 145.043 141.867 148.574C141.471 154.491 139.512 161.536 133.503 166.844C120.866 178.009 111.488 168.285 112.706 153.182C113.924 138.079 114.746 133.613 133.503 122.6Z" fill="#F4A28C"/>
<path d="M140.486 164.45L133.736 257.779L78.4189 247.172L106.24 154.066L140.486 164.45Z" fill="#9ED6BE"/>
<path opacity="0.21" d="M229.492 86.791H200.808V93.1145H229.492V86.791Z" fill="#A8A8A8"/>
<path opacity="0.21" d="M246.249 99.3574H200.808V105.681H246.249V99.3574Z" fill="#A8A8A8"/>
<path opacity="0.1" d="M112.147 253.637L124.134 159.496L140.486 164.449L133.736 257.779L112.147 253.637Z" fill="black"/>
<path opacity="0.1" d="M273.664 178L282.678 166.662L343.212 245.457L324.77 261.199L273.664 178Z" fill="black"/>
</svg>
