<svg width="406" height="306" viewBox="0 0 406 306" fill="none" xmlns="http://www.w3.org/2000/svg">
<path d="M248.675 144.453C246.919 144.24 245.163 143.986 243.427 143.631C242.017 143.347 240.514 143.631 239.114 143.286C238.445 143.061 237.829 142.701 237.305 142.227C236.781 141.754 236.36 141.178 236.069 140.535C235.446 139.47 235.098 138.267 235.054 137.034C235.041 136.422 235.15 135.814 235.373 135.245C235.595 134.675 235.929 134.155 236.353 133.715L238.383 137.561C238.421 136.815 238.609 136.083 238.935 135.41C239.261 134.737 239.719 134.137 240.281 133.644C241.375 134.961 242.306 136.406 243.052 137.947C243.28 136.558 243.729 135.215 244.382 133.968C244.448 133.797 244.574 133.657 244.737 133.573C245.031 133.461 245.325 133.735 245.528 133.989C246.198 134.841 246.818 136.242 247.68 136.831C248.544 135.835 249.302 134.754 249.944 133.603C251.657 134.866 252.92 136.644 253.547 138.678C254.522 137.303 255.346 135.826 256.003 134.273C257.135 135.267 257.858 136.644 258.033 138.14C258.761 137.326 259.317 136.373 259.667 135.339C259.769 134.973 259.952 134.496 260.327 134.547C260.486 134.585 260.627 134.679 260.723 134.811C261.526 135.74 261.975 136.922 261.992 138.15C261.992 137.572 266.001 136.201 266.651 136.019C266.63 137.57 266.078 139.067 265.088 140.261C263.141 142.541 260.439 144.044 257.475 144.494C254.556 144.919 251.59 144.905 248.675 144.453Z" fill="#FFD200"/>
<path d="M253.263 92.8509C253.061 92.4165 252.754 92.0396 252.37 91.7547C252.179 91.613 251.948 91.5365 251.71 91.5365C251.472 91.5365 251.241 91.613 251.05 91.7547C250.762 92.1 250.624 92.5454 250.664 92.993L250.563 96.1902C249.942 94.5618 249.164 92.998 248.239 91.5212C247.122 89.745 245.478 87.9484 243.387 87.9789C242.93 87.9789 242.372 88.1514 242.281 88.5879C242.248 88.8229 242.283 89.0623 242.382 89.2781C243.001 91.0137 243.833 92.6783 244.311 94.4546C244.88 96.2312 244.753 98.1577 243.955 99.8442C243.401 98.5149 242.567 97.3205 241.509 96.3425C240.91 95.7842 240.007 95.3275 239.307 95.703C239.071 95.8843 238.889 96.127 238.782 96.4044C238.674 96.6818 238.645 96.9834 238.698 97.2763C238.769 97.865 239.002 98.4232 239.104 99.0119C239.378 100.687 238.454 102.321 237.429 103.681C236.279 104.937 235.386 106.406 234.8 108.005C234.569 109.123 234.652 110.284 235.039 111.359C235.426 112.433 236.102 113.38 236.992 114.095C238.791 115.488 241.022 116.206 243.296 116.125C246.625 116.125 252.694 115.211 254.826 112.217C256.856 109.375 256.47 103.985 255.983 100.788C255.569 97.9984 254.647 95.3082 253.263 92.8509Z" fill="#E6E6E6"/>
<path opacity="0.45" d="M204.025 261.564C287.057 261.564 354.367 254.939 354.367 246.765C354.367 238.592 287.057 231.967 204.025 231.967C120.994 231.967 53.6833 238.592 53.6833 246.765C53.6833 254.939 120.994 261.564 204.025 261.564Z" fill="#E6E6E6"/>
<path opacity="0.58" d="M298.126 224.477C298.126 224.477 286.514 221.31 283.987 210.5C283.987 210.5 301.983 206.856 302.49 225.431L298.126 224.477Z" fill="#9ED6BE"/>
<path opacity="0.73" d="M299.547 223.329C299.547 223.329 291.427 210.499 298.532 198.502C298.532 198.502 312.214 207.19 306.134 223.349L299.547 223.329Z" fill="#9ED6BE"/>
<path d="M301.638 223.329C301.638 223.329 305.921 209.789 318.893 207.221C318.893 207.221 321.319 216.021 310.499 223.369L301.638 223.329Z" fill="#9ED6BE"/>
<path d="M293.213 223.025L295.568 239.133L310.397 239.194L312.579 223.107L293.213 223.025Z" fill="#24285B"/>
<path d="M135.746 80.488C143.115 71.353 157.782 73.0887 162.583 83.7563C164.089 87.316 164.908 91.1283 164.998 94.9924C166.013 118.134 177.95 130.751 188.912 126.762C199.874 122.773 205.152 103.417 205.152 103.417C205.152 103.417 214.114 97.0224 216.104 103.417C218.093 109.811 209.8 109.852 209.8 109.852C209.8 109.852 199.143 172.417 152.686 132.385C123.333 107.091 128.194 89.7956 135.746 80.488Z" fill="#F4A28C"/>
<path opacity="0.08" d="M135.746 80.488C143.115 71.353 157.782 73.0887 162.583 83.7563C164.089 87.316 164.908 91.1283 164.998 94.9924C166.013 118.134 177.95 130.751 188.912 126.762C199.874 122.773 205.152 103.417 205.152 103.417C205.152 103.417 214.114 97.0224 216.104 103.417C218.093 109.811 209.8 109.852 209.8 109.852C209.8 109.852 199.143 172.417 152.686 132.385C123.333 107.091 128.194 89.7956 135.746 80.488Z" fill="black"/>
<path d="M154.371 51.957C155.538 54.7315 156.327 57.6505 156.716 60.6353C156.739 60.9934 156.692 61.3527 156.575 61.6923C156.459 62.032 156.277 62.3453 156.039 62.6142C155.802 62.8831 155.513 63.1023 155.19 63.2591C154.867 63.4159 154.517 63.5073 154.158 63.528C153.008 63.6589 151.844 63.4591 150.803 62.9522C149.762 62.4452 148.888 61.6521 148.281 60.6657L145.236 56.6057C144.719 55.7394 144.484 54.7337 144.564 53.728C144.644 52.7223 145.035 51.7664 145.683 50.9928C147.967 48.0188 153.265 48.841 154.371 51.957Z" fill="#F4A28C"/>
<path d="M145.764 56.5234L143.673 74.1844L153.63 75.3618L151.133 61.9334L145.764 56.5234Z" fill="#F4A28C"/>
<path d="M155.539 55.1738L157.569 56.6963C157.687 56.7834 157.782 56.8991 157.844 57.0327C157.906 57.1662 157.933 57.3133 157.923 57.4601C157.913 57.607 157.866 57.7489 157.786 57.8727C157.706 57.9965 157.597 58.0981 157.467 58.1681L155.62 59.1831L155.539 55.1738Z" fill="#F4A28C"/>
<path opacity="0.31" d="M151.357 63.0716C150.39 62.9484 149.465 62.6008 148.657 62.0566C148.657 62.0566 147.53 68.2989 152.372 68.6541L151.357 63.0716Z" fill="#CE8172"/>
<path d="M149.652 57.5295C149.652 57.5295 148.972 55.5503 147.53 56.1897C146.089 56.8292 147.043 59.6813 149.164 59.2956L149.652 57.5295Z" fill="#F4A28C"/>
<path d="M153.265 52.0676C151.777 52.9825 150.148 53.6445 148.444 54.0266C148.444 54.0266 149.702 60.0252 145.845 63.2326C145.845 63.2326 138.243 56.6249 142.07 51.2962C145.277 46.82 147.5 43.1153 152.362 44.8814C153.068 45.1345 153.69 45.5783 154.16 46.1635C154.629 46.7488 154.927 47.4527 155.02 48.1971C155.114 48.9414 154.999 49.6971 154.69 50.3804C154.38 51.0636 153.887 51.6476 153.265 52.0676Z" fill="#24285B"/>
<path d="M138.182 55.4891C141.164 55.4891 143.582 53.0715 143.582 50.0893C143.582 47.107 141.164 44.6895 138.182 44.6895C135.2 44.6895 132.782 47.107 132.782 50.0893C132.782 53.0715 135.2 55.4891 138.182 55.4891Z" fill="#24285B"/>
<path d="M149.682 56.9206C149.682 56.9206 148.535 54.7891 146.901 55.9056C145.267 57.0221 146.353 59.5799 149.012 59.6915L149.682 56.9206Z" fill="#F4A28C"/>
<path d="M137.878 72.0745L142.293 72.2572C147.434 72.4548 152.446 73.9266 156.878 76.5405C166.074 81.9606 180.031 92.5166 178.102 105.803C175.25 125.413 160.279 143.236 160.279 143.236L123.556 141.835C123.556 141.835 92.6594 70.4404 137.878 72.0745Z" fill="#9ED6BE"/>
<path opacity="0.08" d="M133.686 79.3828C133.686 79.3828 153.458 93.5928 141.582 118.572C129.707 143.551 144.627 142.627 144.627 142.627L123.556 141.836L120.125 132.701L133.686 79.3828Z" fill="black"/>
<path d="M136.781 86.2233C135.848 76.2661 123.363 72.0945 116.583 79.4431C112.523 83.8989 109.173 90.5269 109.052 100.311C108.737 125.768 95.8566 140.252 79.6166 119.495C78.833 118.478 77.8482 117.633 76.7235 117.013C75.5989 116.393 74.3586 116.011 73.08 115.892C69.7711 115.608 65.7619 115.892 65.3762 118.683C64.6352 124.164 68.8576 124.408 71.7605 123.961C72.5136 123.836 73.2867 123.948 73.9738 124.281C74.6608 124.613 75.2279 125.15 75.5972 125.818C78.7742 131.594 87.899 145.256 102.231 143.144C117.74 140.871 139.634 116.562 136.781 86.2233Z" fill="#F4A28C"/>
<path d="M125.515 154.584L115.365 186.82C114.007 191.161 111.768 195.175 108.788 198.612C105.809 202.049 102.153 204.835 98.049 206.796L83.23 213.901L83.8288 218.275L105.976 213.495C111.173 211.954 115.992 209.347 120.127 205.842C124.261 202.336 127.621 198.009 129.991 193.134L145.632 160.918L125.515 154.584Z" fill="#F4A28C"/>
<path d="M158.919 163.668L163.659 232.718L159.254 234.251L141.724 169.656L158.919 163.668Z" fill="#F4A28C"/>
<path d="M164.562 233.905C164.562 233.905 165.516 237.965 168.622 239.264C171.728 240.564 170.144 244.999 165.506 242.309C164.074 241.472 162.716 240.514 161.446 239.447C160.242 238.5 158.81 237.888 157.295 237.671C157.007 237.61 156.745 237.462 156.544 237.248C156.342 237.034 156.211 236.764 156.168 236.473C155.549 234.22 160.674 232.078 160.674 232.078L164.562 233.905Z" fill="#9ED6BE"/>
<path d="M83.8288 218.233C83.8288 218.233 80.7026 220.619 80.7838 223.735C80.865 226.851 76.4802 227.236 77.0182 222.232C77.1778 220.675 77.4664 219.134 77.8809 217.624C78.2297 216.235 78.2016 214.777 77.7997 213.402C77.7468 213.132 77.7755 212.853 77.8822 212.6C77.9889 212.347 78.1687 212.131 78.3986 211.981C80.0936 210.59 83.8796 214.143 83.8796 214.143L83.8288 218.233Z" fill="#9ED6BE"/>
<path d="M122.247 138.789L161.832 140.9L168.145 195.802L104.088 193.152L122.247 138.789Z" fill="#9ED6BE"/>
<path opacity="0.08" d="M137.878 140.9C137.878 140.9 131.473 148.462 126.987 165.26C122.5 182.059 122.439 193.68 122.439 193.68L104.088 193.092L122.247 138.789L137.878 140.9Z" fill="black"/>
<path d="M161.832 140.902L170.185 179.198L140.943 180.954C144.739 161.669 122.247 138.79 122.247 138.79C122.247 138.79 141.988 118.988 148.748 105.539C150.311 102.433 151.184 99.6724 150.961 97.5713C149.763 86.3251 134.051 72.1253 134.051 72.1253C134.051 72.1253 136.416 71.6888 139.532 71.3438C144.759 78.1544 162.532 93.6737 163.689 87.6751C164.349 84.2444 162.674 83.5339 157.599 76.9059C159.061 77.7179 161.791 79.3724 161.791 79.3724C163.699 80.631 165.557 84.9244 167.648 86.5789C169.312 87.8882 180.274 95.7748 181.198 101.946C183.4 116.613 161.832 140.902 161.832 140.902Z" fill="#24285B"/>
<path d="M68.2486 78.276L66.2186 69.2628C66.1731 69.0606 66.0881 68.8694 65.9684 68.7002C65.8488 68.531 65.6969 68.3871 65.5215 68.2767C65.346 68.1664 65.1505 68.0918 64.9462 68.0572C64.7418 68.0226 64.5327 68.0288 64.3307 68.0753L52.8612 70.6838C52.6593 70.7293 52.4684 70.8143 52.2996 70.9341C52.1308 71.0539 51.9874 71.2061 51.8779 71.3817C51.7684 71.5573 51.6948 71.753 51.6615 71.9572C51.6282 72.1615 51.6358 72.3704 51.6838 72.5717L53.7138 81.6154C54.108 83.3765 55.1659 84.9179 56.6675 85.919L61.9455 89.4715L70.9485 128.843C71.0164 129.142 71.1997 129.401 71.4584 129.565C71.7172 129.729 72.0302 129.783 72.3289 129.716C72.6274 129.648 72.8869 129.465 73.0505 129.206C73.2141 128.948 73.2685 128.635 73.2018 128.336L64.2089 88.8523L67.4163 83.4931C68.354 81.9257 68.6521 80.0574 68.2486 78.276ZM62.1586 71.5872C62.1236 71.4364 62.15 71.278 62.2318 71.1466C62.3137 71.0153 62.4443 70.9218 62.5951 70.8868C62.7458 70.8518 62.9043 70.8782 63.0356 70.96C63.167 71.0419 63.2604 71.1725 63.2954 71.3233L65.3254 80.3162C65.3588 80.4656 65.3316 80.6221 65.2498 80.7514C65.1679 80.8808 65.0382 80.9725 64.889 81.0064C64.8156 81.0244 64.7394 81.0277 64.6648 81.016C64.5902 81.0042 64.5187 80.9777 64.4544 80.9381C64.3902 80.8984 64.3345 80.8463 64.2906 80.7848C64.2467 80.7233 64.2155 80.6537 64.1988 80.5801L62.1586 71.5872ZM58.6467 72.389C58.6186 72.2401 58.6481 72.0861 58.7291 71.958C58.8101 71.8299 58.9366 71.7373 59.0832 71.6988C59.2324 71.6649 59.389 71.6904 59.5198 71.77C59.6505 71.8496 59.7451 71.977 59.7835 72.1251L61.8135 81.118C61.8469 81.2674 61.8197 81.4239 61.7379 81.5533C61.6561 81.6826 61.5263 81.7743 61.3771 81.8082C61.2279 81.8389 61.0727 81.8105 60.944 81.7291C60.8153 81.6478 60.7231 81.5197 60.6869 81.3718L58.6467 72.389ZM55.1348 73.1807C55.1045 73.0328 55.1331 72.8789 55.2147 72.7519C55.2962 72.6248 55.4242 72.5347 55.5713 72.5007C55.6446 72.4826 55.7208 72.4794 55.7954 72.4911C55.87 72.5028 55.9416 72.5293 56.0058 72.569C56.0701 72.6087 56.1258 72.6608 56.1697 72.7223C56.2136 72.7837 56.2448 72.8533 56.2615 72.927L58.2915 81.9199C58.3248 82.0693 58.2976 82.2258 58.2158 82.3551C58.134 82.4845 58.0043 82.5762 57.855 82.6101C57.7059 82.6407 57.5506 82.6124 57.4219 82.531C57.2932 82.4496 57.2011 82.3215 57.1648 82.1736L55.1348 73.1807Z" fill="#9ED6BE"/>
<path d="M226.02 104.29L226.061 105.61L204.512 101.783L204.025 104.554L226.142 108.482L226.365 116.663L254.623 121.677L259.201 110.177L226.02 104.29Z" fill="#24285B"/>
<path d="M232.871 91.1762C232.595 91.0557 232.287 91.0301 231.995 91.1036C231.703 91.1771 231.444 91.3454 231.258 91.5822C231.054 92.0024 231.011 92.4824 231.136 92.9322C231.41 94.4547 232.648 96.3832 234.12 94.4547C235.074 93.2062 234.181 91.6837 232.871 91.1762Z" fill="#E6E6E6"/>
<path d="M238.19 87.8772C238.055 87.5424 237.82 87.258 237.516 87.0633C237.212 86.8687 236.855 86.7735 236.495 86.7911C236.221 86.7911 235.906 86.9535 235.876 87.2377C235.871 87.3492 235.892 87.4602 235.937 87.5625C236.072 88.0213 236.308 88.4443 236.627 88.8008C236.789 88.9779 237.006 89.0966 237.242 89.1388C237.479 89.181 237.723 89.1443 237.936 89.0343C238.037 88.9606 238.119 88.8657 238.178 88.7562C238.238 88.6468 238.272 88.5257 238.279 88.4015C238.285 88.2773 238.265 88.1531 238.218 88.0379C238.171 87.9226 238.099 87.8192 238.007 87.7351" fill="#E6E6E6"/>
<path d="M282.789 145.783H213.85V154.573H282.789V145.783Z" fill="#C9C9C9"/>
<path d="M277.389 154.584H219.24V243.143H277.389V154.584Z" fill="#E6E6E6"/>
<path d="M281.723 141.348H214.906V145.783H281.723V141.348Z" fill="#24285B"/>
<path d="M252.319 137.115H249.751V141.358H252.319V137.115Z" fill="#24285B"/>
<path d="M236.617 142.942H239.185L236.617 138.699H234.059L236.617 142.942Z" fill="#24285B"/>
<path d="M265.453 142.942H262.895L265.453 138.699H268.021L265.453 142.942Z" fill="#24285B"/>
<path opacity="0.46" d="M277.379 164.684H249.751V236.566H277.379V164.684Z" fill="white"/>
</svg>
