<svg width="406" height="306" viewBox="0 0 406 306" fill="none" xmlns="http://www.w3.org/2000/svg">
<g opacity="0.64">
<path opacity="0.64" d="M113.091 121.057H78.2769V234.564H113.091V227.358H147.733V153.892H113.091V121.057Z" fill="#DDDBDB"/>
<path opacity="0.64" d="M243.63 51.8848H210.207V192.34H243.285V219.553H284.576V154.248H243.63V51.8848Z" fill="#DDDBDB"/>
<path opacity="0.64" d="M345.821 111.75H295.192V219.553H345.821V111.75Z" fill="#DDDBDB"/>
</g>
<path d="M297.263 73.6474C306.854 73.6474 314.63 65.872 314.63 56.2807C314.63 46.6894 306.854 38.9141 297.263 38.9141C287.672 38.9141 279.896 46.6894 279.896 56.2807C279.896 65.872 287.672 73.6474 297.263 73.6474Z" fill="#FFD200"/>
<path opacity="0.15" d="M297.263 83.4209C312.253 83.4209 324.404 71.2694 324.404 56.2798C324.404 41.2902 312.253 29.1387 297.263 29.1387C282.274 29.1387 270.122 41.2902 270.122 56.2798C270.122 71.2694 282.274 83.4209 297.263 83.4209Z" fill="#FFD200"/>
<path d="M123.13 264.366H53.937V191.52L123.13 171.189V264.366Z" fill="#FFD200"/>
<path d="M190.789 69.8105H121.597V264.366H190.789V69.8105Z" fill="#9ED6BE"/>
<path d="M259.992 124.326H190.8V264.366H259.992V124.326Z" fill="#9ED6BE"/>
<path opacity="0.12" d="M259.992 124.326H190.8V264.366H259.992V124.326Z" fill="white"/>
<path d="M361.036 210.834H260.002V264.375H361.036V210.834Z" fill="#9ED6BE"/>
<path opacity="0.44" d="M259.992 124.326H190.8V140.718H259.992V124.326Z" fill="white"/>
<path d="M370.018 264.365H44.66C42.3336 264.365 40.4478 266.251 40.4478 268.577C40.4478 270.904 42.3336 272.79 44.66 272.79H370.018C372.345 272.79 374.23 270.904 374.23 268.577C374.23 266.251 372.345 264.365 370.018 264.365Z" fill="#24285B"/>
<path d="M121.597 69.8107H190.789L156.188 21.1719L121.597 69.8107Z" fill="#9ED6BE"/>
<path opacity="0.15" d="M121.597 69.8107H190.789L156.188 21.1719L121.597 69.8107Z" fill="black"/>
<path d="M78.287 240.238H63.9451V264.365H78.287V240.238Z" fill="white"/>
<path d="M163.273 240.238H148.931V264.365H163.273V240.238Z" fill="white"/>
<path d="M245.508 240.238H231.166V264.365H245.508V240.238Z" fill="white"/>
<path d="M286.149 240.238H271.807V264.365H286.149V240.238Z" fill="white"/>
<path opacity="0.44" d="M110.818 200.502H66.249V206.724H110.818V200.502Z" fill="white"/>
<path opacity="0.44" d="M110.818 216.053H66.249V222.275H110.818V216.053Z" fill="white"/>
<path d="M110.818 234.564H88.5283V253.707H110.818V234.564Z" fill="#24285B"/>
<path d="M347.972 227.541H312.437V252.307H347.972V227.541Z" fill="#24285B"/>
<path opacity="0.47" d="M141.674 81.9805H133.036V210.825H141.674V81.9805Z" fill="white"/>
<path opacity="0.47" d="M161.03 81.9805H152.392V210.825H161.03V81.9805Z" fill="white"/>
<path opacity="0.47" d="M179.685 81.9805H171.048V210.825H179.685V81.9805Z" fill="white"/>
<path d="M193.083 137.867H120.003V152.635H193.083V137.867Z" fill="#9ED6BE"/>
<path opacity="0.15" d="M193.083 137.867H120.003V152.635H193.083V137.867Z" fill="black"/>
<path opacity="0.47" d="M214.256 152.645H201.467V169.402H214.256V152.645Z" fill="white"/>
<path opacity="0.47" d="M244.737 152.645H231.948V169.402H244.737V152.645Z" fill="white"/>
<path opacity="0.47" d="M214.256 181.756H201.467V198.514H214.256V181.756Z" fill="white"/>
<path opacity="0.47" d="M244.737 181.756H231.948V198.514H244.737V181.756Z" fill="white"/>
<path opacity="0.47" d="M214.256 210.773H201.467V227.531H214.256V210.773Z" fill="white"/>
<path opacity="0.47" d="M244.737 210.773H231.948V227.531H244.737V210.773Z" fill="white"/>
<path d="M229.887 109.102H201.467V124.327H229.887V109.102Z" fill="#24285B"/>
<path d="M319.238 198.512H290.818V211.057H319.238V198.512Z" fill="#24285B"/>
</svg>
