<svg width="406" height="306" viewBox="0 0 406 306" fill="none" xmlns="http://www.w3.org/2000/svg">
<path d="M160.289 220.681L144.221 133.797C144.221 133.797 130.225 103.57 147.327 87.5026C164.43 71.4351 160.289 118.369 171.17 117.953C182.05 117.536 185.684 99.9871 190.871 109.833C196.057 119.678 174.286 133.807 174.286 133.807L200.199 221.767L160.289 220.681Z" fill="#F4A28C"/>
<path d="M366.567 220.68H58.941V233.428H366.567V220.68Z" fill="#E6E6E6"/>
<path d="M84.0927 220.681L68.005 133.797C68.005 133.797 54.0386 103.57 71.1413 87.5026C88.2441 71.4351 84.0927 118.369 94.9837 117.953C105.875 117.536 109.498 99.9871 114.675 109.833C119.851 119.678 98.0896 133.807 98.0896 133.807L124.003 221.767L84.0927 220.681Z" fill="#F2BF8C"/>
<path d="M153.032 220.68L142.668 156.938L186.719 152.949L206.421 220.68H153.032Z" fill="#FFD200"/>
<path d="M235.612 220.68L221.402 119.636C221.402 119.636 211.12 111.78 209.669 102.544C209.509 101.503 209.656 100.438 210.093 99.4802C210.529 98.522 211.236 97.712 212.126 97.1495C213.016 96.5871 214.051 96.2965 215.103 96.3136C216.156 96.3306 217.181 96.6545 218.052 97.2455C222.112 99.986 227.187 101.793 229.694 95.794C234.191 85.0858 225.868 70.5713 239.002 68.8458C252.136 67.1203 265.291 97.5195 242.483 116.865L268.396 220.68H235.612Z" fill="#9B6448"/>
<path d="M227.665 220.68L221.788 176.649L263.261 174.568L274.659 220.68H227.665Z" fill="#9ED6BE"/>
<path d="M224.843 176.497L221.788 156.258L251.527 152.949L257.008 174.883L224.843 176.497Z" fill="#9ED6BE"/>
<path opacity="0.46" d="M224.843 176.497L221.788 156.258L251.527 152.949L257.008 174.883L224.843 176.497Z" fill="white"/>
<path d="M102.357 135.366L65.6631 141.033L67.6772 154.074L104.371 148.406L102.357 135.366Z" fill="#24285B"/>
<path d="M78.9365 153.742C83.8751 153.742 87.8787 149.738 87.8787 144.8C87.8787 139.861 83.8751 135.857 78.9365 135.857C73.9979 135.857 69.9944 139.861 69.9944 144.8C69.9944 149.738 73.9979 153.742 78.9365 153.742Z" fill="white"/>
<path d="M294.005 220.681L283.987 124.124C283.987 124.124 271.553 119.292 271.898 110.309C272.243 101.327 279.501 89.573 289.519 90.6083C299.537 91.6436 304.327 93.3996 305.373 80.9557C306.418 68.5118 322.861 70.9173 318.192 84.1529C316.436 89.1366 312.833 106.574 310.763 116.927C309.726 122.093 309.789 127.418 310.945 132.558L330.636 220.681H294.005Z" fill="#F4A28C"/>
<path opacity="0.08" d="M302.47 99.7129C302.47 99.7129 309.575 108.746 301.242 118.602C292.909 128.458 305.302 220.681 305.302 220.681H294.005L283.987 124.124L302.47 99.7129Z" fill="black"/>
<path d="M290.442 121.322C288.958 122.801 287.024 123.746 284.945 124.009C282.866 124.271 280.758 123.837 278.952 122.773C274.629 120.246 269.817 116.196 269.99 110.827C270.335 101.144 279.775 87.8879 289.519 90.0904C299.263 92.293 305.068 97.0026 301.607 106.158C299.577 111.548 294.35 117.404 290.442 121.322Z" fill="#F4A28C"/>
<path d="M290.554 220.68L286.301 193.579L328.566 191.854L335.123 220.68H290.554Z" fill="#FFD200"/>
</svg>
