<svg width="406" height="306" viewBox="0 0 406 306" fill="none" xmlns="http://www.w3.org/2000/svg">
<path opacity="0.45" d="M203 279.946C265.84 279.946 316.782 273.843 316.782 266.315C316.782 258.787 265.84 252.684 203 252.684C140.16 252.684 89.2185 258.787 89.2185 266.315C89.2185 273.843 140.16 279.946 203 279.946Z" fill="#E6E6E6"/>
<path opacity="0.3" d="M316.233 87.8678C345.344 105.6 362.588 138.12 359.878 172.113C358.478 189.479 352.022 206.237 334.96 215.382C289.458 239.742 90.812 240.199 61.4075 197.112C32.0029 154.026 42.9446 92.7297 106.879 67.1923C162.278 45.0247 241.073 42.1015 316.233 87.8678Z" fill="#E6E6E6"/>
<path d="M298.583 174.71H297.568V169.798C297.565 168.899 297.207 168.039 296.572 167.403C295.937 166.768 295.076 166.41 294.178 166.408H279.125C278.227 166.41 277.366 166.768 276.731 167.403C276.096 168.039 275.738 168.899 275.735 169.798V174.71H274.72V169.798C274.723 168.63 275.188 167.511 276.013 166.686C276.839 165.86 277.958 165.395 279.125 165.393H294.188C295.355 165.395 296.474 165.86 297.3 166.686C298.125 167.511 298.59 168.63 298.593 169.798L298.583 174.71Z" fill="#FFD200"/>
<path d="M282.17 157.72C282.028 158.153 281.837 158.568 281.602 158.958C280.688 160.43 280.008 161.404 280.049 163.221C280.049 164.805 279.947 169.687 281.439 170.397C282.897 171.09 284.416 171.647 285.976 172.062C296.867 174.945 293.558 158.055 291.193 152.706C290.962 152.119 290.617 151.585 290.178 151.133C289.408 150.536 288.495 150.151 287.529 150.016C282.596 148.768 283.418 154.147 282.17 157.72Z" fill="#F4A28C"/>
<path d="M89.0966 101.834C89.4493 101.834 89.7875 101.974 90.0368 102.223C90.2862 102.473 90.4263 102.811 90.4263 103.164V118.724H87.7568V103.164C87.7568 102.988 87.7916 102.814 87.859 102.652C87.9265 102.49 88.0253 102.343 88.1499 102.22C88.2744 102.096 88.4222 101.999 88.5847 101.932C88.7472 101.866 88.9212 101.833 89.0966 101.834Z" fill="#24285B"/>
<path d="M102.18 98.0676C102.18 98.0676 94.3138 93.1144 92.7507 93.3478C90.5345 93.8883 88.4719 94.93 86.7216 96.3928C83.91 98.6055 83.433 101.224 84.0521 104.675C84.14 105.589 84.4928 106.456 85.0671 107.172C85.2147 107.344 85.3949 107.484 85.5973 107.585C85.7997 107.687 86.0202 107.746 86.246 107.762C86.4718 107.777 86.6983 107.747 86.9124 107.673C87.1265 107.6 87.3239 107.485 87.493 107.335C87.6273 107.158 87.7527 106.975 87.8685 106.786C88.0943 106.505 88.3612 106.258 88.6602 106.056C88.9024 105.854 89.1817 105.703 89.4824 105.609C89.635 105.567 89.7973 105.574 89.9452 105.631C90.0932 105.688 90.2191 105.79 90.3045 105.924C90.378 106.12 90.4257 106.324 90.4466 106.533C90.5281 106.769 90.6775 106.976 90.8761 107.128C91.0747 107.279 91.3137 107.369 91.5631 107.385C92.3697 107.359 93.1688 107.223 93.9382 106.979C97.3892 106.269 100.81 105.274 104.332 106.198L102.18 98.0676Z" fill="#F4A28C"/>
<path d="M99.47 154.259C99.4265 154.268 99.3815 154.268 99.338 154.259C99.2838 154.242 99.2332 154.216 99.1895 154.18C99.1457 154.144 99.1095 154.099 99.0831 154.049C99.0566 153.999 99.0404 153.944 99.0354 153.888C99.0303 153.832 99.0366 153.775 99.0538 153.721L109.762 118.622C109.798 118.542 109.857 118.474 109.931 118.426C110.004 118.379 110.09 118.354 110.178 118.354C110.266 118.354 110.352 118.379 110.426 118.426C110.5 118.474 110.558 118.542 110.594 118.622L121.292 153.721C121.31 153.775 121.316 153.832 121.311 153.888C121.306 153.944 121.29 153.999 121.263 154.049C121.237 154.099 121.201 154.144 121.157 154.18C121.113 154.216 121.063 154.242 121.008 154.259C120.954 154.276 120.896 154.282 120.839 154.278C120.782 154.273 120.726 154.257 120.675 154.23C120.624 154.204 120.579 154.168 120.542 154.124C120.505 154.08 120.477 154.029 120.46 153.974L110.158 120.216L99.8658 153.954C99.8377 154.039 99.785 154.113 99.7144 154.167C99.6439 154.221 99.5588 154.253 99.47 154.259Z" fill="#24285B"/>
<path d="M97.8765 153.822H122.439V154.482C122.439 157.36 121.296 160.12 119.261 162.154C117.227 164.189 114.467 165.332 111.589 165.332H108.727C105.849 165.332 103.089 164.189 101.054 162.154C99.0196 160.12 97.8765 157.36 97.8765 154.482V153.822Z" fill="#FFD200"/>
<path d="M78.7437 154.259C78.651 154.259 78.5606 154.23 78.4858 154.175C78.411 154.12 78.3555 154.043 78.3275 153.955L68.005 120.216L57.7433 153.955C57.7083 154.063 57.6325 154.153 57.532 154.206C57.4316 154.259 57.3144 154.271 57.2054 154.239C57.1502 154.224 57.0986 154.198 57.0537 154.162C57.0088 154.127 56.9715 154.083 56.944 154.033C56.9166 153.982 56.8995 153.927 56.8938 153.87C56.8882 153.813 56.894 153.756 56.911 153.701L67.6193 118.602C67.6555 118.522 67.714 118.455 67.7878 118.407C67.8616 118.359 67.9476 118.334 68.0354 118.334C68.1233 118.334 68.2092 118.359 68.283 118.407C68.3569 118.455 68.4154 118.522 68.4516 118.602L79.17 153.701C79.187 153.756 79.1928 153.813 79.1872 153.87C79.1815 153.927 79.1644 153.982 79.1369 154.033C79.1095 154.083 79.0722 154.127 79.0273 154.162C78.9824 154.198 78.9308 154.224 78.8756 154.239C78.8342 154.258 78.7887 154.265 78.7437 154.259Z" fill="#24285B"/>
<path d="M55.7539 153.822H80.3169V154.482C80.3169 157.36 79.1737 160.12 77.1389 162.154C75.1041 164.189 72.3442 165.332 69.4666 165.332H66.6043C63.7266 165.332 60.9667 164.189 58.9319 162.154C56.8971 160.12 55.7539 157.36 55.7539 154.482V153.822Z" fill="#FFD200"/>
<path d="M110.158 119.161H68.005C67.9428 119.17 67.8793 119.166 67.8188 119.149C67.7583 119.132 67.7022 119.102 67.6545 119.061C67.6067 119.02 67.5684 118.969 67.5421 118.912C67.5158 118.855 67.5022 118.792 67.5022 118.729C67.5022 118.666 67.5158 118.604 67.5421 118.547C67.5684 118.49 67.6067 118.439 67.6545 118.398C67.7022 118.357 67.7583 118.327 67.8188 118.31C67.8793 118.292 67.9428 118.288 68.005 118.298H110.128C110.231 118.314 110.325 118.366 110.392 118.445C110.46 118.524 110.498 118.625 110.498 118.729C110.498 118.834 110.46 118.934 110.392 119.014C110.325 119.093 110.231 119.145 110.128 119.161H110.158Z" fill="#24285B"/>
<path d="M185.745 75.2402C185.745 75.2402 130.143 104.218 100.993 95.9259V107.466C100.993 107.466 121.567 119.372 146.718 114.653C171.87 109.933 185.745 100.443 185.745 100.443V75.2402Z" fill="#9ED6BE"/>
<path opacity="0.46" d="M185.745 75.2402C185.745 75.2402 130.143 104.218 100.993 95.9259V107.466C100.993 107.466 121.567 119.372 146.718 114.653C171.87 109.933 185.745 100.443 185.745 100.443V75.2402Z" fill="white"/>
<path d="M187.136 50.0578C186.931 53.0784 187.129 56.1128 187.724 59.0812C187.921 59.7819 188.387 60.3766 189.02 60.7358C189.653 61.0951 190.402 61.1899 191.104 60.9995C192.24 60.7522 193.281 60.1849 194.105 59.3647C194.929 58.5446 195.501 57.5058 195.753 56.3711L197.296 51.5905C197.5 50.6032 197.394 49.5769 196.992 48.6521C196.591 47.7274 195.913 46.9492 195.053 46.4241C191.947 44.2419 187.207 46.7286 187.136 50.0578Z" fill="#F4A28C"/>
<path d="M196.352 52.9727L201.478 70.0653L191.865 72.2171L191.997 58.9104L196.352 52.9727Z" fill="#F4A28C"/>
<path d="M187.075 53.5293L185.593 55.6506C185.509 55.7712 185.456 55.9111 185.441 56.0573C185.425 56.2035 185.446 56.3513 185.503 56.487C185.56 56.6226 185.65 56.7418 185.765 56.8333C185.88 56.9249 186.016 56.9859 186.161 57.0107L188.252 57.366L187.075 53.5293Z" fill="#F4A28C"/>
<path opacity="0.31" d="M192.008 60.6864C192.008 60.6864 193.246 60.4225 195.408 58.291C195.408 58.291 195.875 61.8232 191.937 64.5942L192.008 60.6864Z" fill="#CE8172"/>
<path d="M194.352 53.3674C194.23 54.1084 193.703 54.7377 193.53 55.4989C193.434 55.8752 193.434 56.2696 193.53 56.6459C193.647 56.9813 193.87 57.2701 194.164 57.4694C194.458 57.6686 194.809 57.7678 195.164 57.7522C196.991 57.671 197.834 54.4433 198.443 53.0629C198.443 53.0629 200.381 47.2571 198.646 44.4354C197.275 42.2024 194.586 42.8419 192.789 41.2382C191.774 40.2232 190.972 38.792 189.572 38.4672C188.171 38.1424 186.821 39.1676 185.968 40.3044C185.06 41.4795 184.501 42.8865 184.354 44.3644C184.224 45.8333 184.66 47.2964 185.572 48.4548C186.882 50.0078 189.632 50.3529 191.551 50.3529C192.221 50.3613 192.867 50.603 193.379 51.0365C193.89 51.47 194.234 52.0681 194.352 52.728C194.39 52.9394 194.39 53.156 194.352 53.3674Z" fill="#24285B"/>
<path d="M192.495 53.2052C192.495 53.2052 192.495 51.1143 194.078 51.2462C195.662 51.3782 195.662 54.413 193.53 54.7277L192.495 53.2052Z" fill="#F4A28C"/>
<path d="M243.762 113.505C237.51 159.627 233.45 172.792 233.45 172.792L185.897 173.248C185.897 173.248 185.583 168.488 184.882 161.87C183.502 149.538 180.67 130.73 175.747 124.315C168.196 114.5 153.336 85.5421 190.049 72.6313L198.321 70.784C198.321 70.784 216.256 68.5713 229.786 76.671C239.236 82.3753 246.523 93.1952 243.762 113.505Z" fill="#9ED6BE"/>
<path opacity="0.08" d="M243.762 113.506C237.51 159.628 233.45 172.793 233.45 172.793L185.897 173.249C185.897 173.249 185.583 168.489 184.882 161.871C187.905 159.003 191.23 156.471 194.799 154.32C197.915 152.361 201.173 150.513 203.71 147.854C207.385 144.007 209.252 138.831 210.815 133.746C215.241 118.835 217.992 114.938 217.717 99.3776L223.168 77.9814C225.244 77.0416 227.509 76.5968 229.786 76.6822C239.235 82.3764 246.523 93.1963 243.762 113.506Z" fill="black"/>
<path d="M186.943 73.8308C186.943 73.8308 183.512 120.896 198.321 141.836C198.321 141.836 197.489 92.2429 210.227 70.8467C210.227 70.7858 198.321 67.5277 186.943 73.8308Z" fill="white"/>
<path opacity="0.27" d="M186.943 73.8301L177.625 100.352L185.075 113.182L182.264 125.595L198.321 141.835C198.321 141.835 185.024 129.868 186.943 73.8301Z" fill="white"/>
<path d="M191.967 71.993C192.028 70.643 192.911 70.8968 194.21 70.5212C195.509 70.1457 196.849 68.6942 197.976 69.9528C200.148 72.3584 196.301 76.9157 196.301 76.9157H192.748C192.288 75.3129 192.025 73.6596 191.967 71.993Z" fill="#24285B"/>
<path d="M192.748 76.875H196.301C196.301 76.875 196.636 104.442 198.981 120.733L198.321 141.835C198.321 141.835 190.658 131.594 189.44 118.49C189.44 118.429 189.805 92.6177 192.748 76.875Z" fill="#24285B"/>
<path d="M186.943 73.8292L191.297 76.8742L194.778 71.7992L198.412 76.316L210.227 70.7842C210.227 70.7842 195.895 65.019 186.943 73.8292Z" fill="#9ED6BE"/>
<path opacity="0.55" d="M186.943 73.8292L191.297 76.8742L194.778 71.7992L198.412 76.316L210.227 70.7842C210.227 70.7842 195.895 65.019 186.943 73.8292Z" fill="white"/>
<path opacity="0.27" d="M210.227 70.7852L212.196 105.853L203 111.385L208.43 122.804L198.28 141.815C198.28 141.815 197.712 91.9276 210.227 70.7852Z" fill="white"/>
<path d="M251.608 151.152H154.392V262.203H251.608V151.152Z" fill="#24285B"/>
<path d="M261.9 255.697H144.089V267.593H261.9V255.697Z" fill="#24285B"/>
<path opacity="0.08" d="M261.9 255.697H144.089V267.593H261.9V255.697Z" fill="white"/>
<path d="M261.9 150.645H144.089V162.54H261.9V150.645Z" fill="#24285B"/>
<path opacity="0.08" d="M261.9 150.645H144.089V162.54H261.9V150.645Z" fill="white"/>
<path opacity="0.08" d="M239.642 176.051H166.348V246.817H239.642V176.051Z" fill="white"/>
<path d="M225.391 74.4601C225.391 74.4601 282.718 97.8051 288.676 107.813C294.634 117.821 294.35 156.584 294.35 156.584L280.14 155.731C279.846 154.188 271.279 120.572 267.28 115.76C263.88 111.7 219.088 108.229 217.717 99.3784C216.347 90.5276 221.95 74.0643 225.391 74.4601Z" fill="#9ED6BE"/>
<path d="M192.495 130.67H154.392V150.645H192.495V130.67Z" fill="#E6E6E6"/>
<path d="M187.318 123.809H151.113V130.67H187.318V123.809Z" fill="#E6E6E6"/>
<path d="M192.485 139.814H166.298V140.779H192.485V139.814Z" fill="#C1C1C1"/>
<path d="M180.771 146.961H154.584V147.925H180.771V146.961Z" fill="#C1C1C1"/>
<path d="M186.11 135.725H159.923V136.689H186.11V135.725Z" fill="#C1C1C1"/>
<path d="M187.308 126.275H161.121V127.24H187.308V126.275Z" fill="#C1C1C1"/>
<path d="M175.595 130.67H154.584V131.431H175.595V130.67Z" fill="#C1C1C1"/>
<path d="M312.326 173.654H260.967V210.418H312.326V173.654Z" fill="#FFD200"/>
<path opacity="0.46" d="M304.358 187.286H268.934L260.967 173.654H312.326L304.358 187.286Z" fill="white"/>
</svg>
