<svg width="406" height="306" viewBox="0 0 406 306" fill="none" xmlns="http://www.w3.org/2000/svg">
<path opacity="0.3" d="M92.8217 70.7853C62.2702 90.8011 44.1728 127.534 47.0453 165.891C48.517 185.511 55.1653 204.552 73.2018 214.763C121.445 242.168 331.661 241.935 360.315 194.098C389.831 144.819 379.691 76.2155 312.61 47.3895C254.41 22.3799 171.708 19.0812 92.8217 70.7853Z" fill="#E6E6E6"/>
<path d="M79.779 223.563V208.49H103.124V223.563" stroke="#E6E6E6" stroke-width="3.045" stroke-linecap="round" stroke-linejoin="round"/>
<path opacity="0.45" d="M194.555 284.727C286.629 284.727 361.269 277.601 361.269 268.812C361.269 260.022 286.629 252.896 194.555 252.896C102.482 252.896 27.8415 260.022 27.8415 268.812C27.8415 277.601 102.482 284.727 194.555 284.727Z" fill="#E6E6E6"/>
<path d="M83.0981 124.408C83.0981 123.546 82.9281 122.693 82.598 121.897C82.2678 121.1 81.7839 120.377 81.174 119.768C80.5641 119.159 79.84 118.676 79.0433 118.347C78.2467 118.018 77.3929 117.85 76.531 117.851C76.1907 117.853 75.8511 117.883 75.516 117.943C74.7578 116.535 73.633 115.359 72.2606 114.539C70.8883 113.718 69.3196 113.285 67.7208 113.284H67.396C67.607 112.451 67.716 111.595 67.7208 110.736C67.7645 109.33 67.5253 107.929 67.0173 106.617C66.5093 105.305 65.7429 104.108 64.7635 103.098C63.7842 102.087 62.6118 101.284 61.3161 100.735C60.0204 100.187 58.6277 99.9043 57.2206 99.9043C55.8136 99.9043 54.4209 100.187 53.1251 100.735C51.8294 101.284 50.6571 102.087 49.6777 103.098C48.6984 104.108 47.932 105.305 47.424 106.617C46.916 107.929 46.6767 109.33 46.7205 110.736C46.7252 111.595 46.8343 112.451 47.0453 113.284H46.7205C45.5336 113.243 44.3508 113.443 43.2425 113.869C42.1342 114.295 41.123 114.941 40.2692 115.766C39.4154 116.591 38.7364 117.58 38.2727 118.673C37.809 119.767 37.57 120.942 37.57 122.129C37.57 123.317 37.809 124.492 38.2727 125.586C38.7364 126.679 39.4154 127.668 40.2692 128.493C41.123 129.318 42.1342 129.963 43.2425 130.39C44.3508 130.816 45.5336 131.015 46.7205 130.975H77.3938V130.914C78.9724 130.707 80.4218 129.933 81.4714 128.736C82.5211 127.538 83.0993 126 83.0981 124.408Z" fill="#E6E6E6"/>
<path d="M356.965 56.3005C356.968 53.9567 356.041 51.7074 354.387 50.0463C352.734 48.3851 350.489 47.4476 348.145 47.4396C347.669 47.444 347.194 47.4847 346.724 47.5614C345.704 45.6626 344.189 44.0757 342.339 42.9694C340.489 41.8631 338.374 41.2788 336.219 41.2785C336.067 41.2785 335.924 41.2785 335.782 41.2785C336.345 39.1735 336.416 36.9672 335.99 34.8303C335.564 32.6934 334.652 30.6831 333.326 28.9548C331.999 27.2264 330.292 25.8264 328.338 24.863C326.383 23.8995 324.233 23.3984 322.054 23.3984C319.875 23.3984 317.726 23.8995 315.771 24.863C313.817 25.8264 312.11 27.2264 310.783 28.9548C309.456 30.6831 308.545 32.6934 308.119 34.8303C307.693 36.9672 307.764 39.1735 308.327 41.2785C308.184 41.2785 308.042 41.2785 307.89 41.2785C304.786 41.3691 301.839 42.6658 299.676 44.8935C297.512 47.1212 296.302 50.1044 296.302 53.2099C296.302 56.3153 297.512 59.2985 299.676 61.5262C301.839 63.7539 304.786 65.0506 307.89 65.1412H349.302V65.06C351.423 64.7749 353.369 63.73 354.778 62.1191C356.188 60.5083 356.965 58.4408 356.965 56.3005Z" fill="#E6E6E6"/>
<path d="M166.156 124.529L188.963 96.1094L193.885 100.423L174.448 132.923L166.156 124.529Z" fill="#9ED6BE"/>
<path d="M137.451 87.1474L141.653 99.7639L131.666 106.118L128.073 84.2344L137.451 87.1474Z" fill="#F4A28C"/>
<path d="M124.642 72.0333C125.163 70.831 125.976 69.7781 127.008 68.9704C128.04 68.1628 129.258 67.626 130.55 67.4091C131.842 67.1923 133.168 67.3021 134.407 67.7286C135.646 68.1551 136.759 68.8847 137.644 69.8511C141.897 74.3881 147.023 81.6048 141.227 85.5328C132.346 91.5518 124.206 80.3157 124.206 80.3157C123.529 77.5725 123.681 74.6903 124.642 72.0333Z" fill="#F4A28C"/>
<path d="M131.128 79.7776C131.128 79.7776 128.854 77.8694 127.829 80.5693C126.804 83.2692 130.813 84.6293 132.011 83.2184C133.209 81.8076 131.128 79.7776 131.128 79.7776Z" fill="#F4A28C"/>
<path d="M120.003 112.309C121.509 108.964 123.718 105.982 126.48 103.569C129.243 101.155 132.493 99.3654 136.01 98.3222C149.591 94.2622 174.58 98.7079 182.203 111.406C192.637 128.792 177.361 184.019 177.361 184.019L131.747 187.561C131.747 187.561 106.656 142.292 120.003 112.309Z" fill="#9ED6BE"/>
<path opacity="0.08" d="M139.968 97.1758C139.968 97.1758 118.654 165.901 180.244 170.459L177.371 184.06L131.757 187.602C131.757 187.602 115.68 162.359 116.36 126.905C116.36 126.905 116.745 109.376 129.088 101.632C132.355 99.387 136.065 97.8677 139.968 97.1758Z" fill="black"/>
<path d="M158.573 97.9668C156.294 101.62 155.085 105.84 155.085 110.147C155.085 114.453 156.294 118.673 158.573 122.327C163.547 130.721 178.021 147.072 187.917 157.852C189.035 159.072 190.427 160.01 191.979 160.587C193.53 161.165 195.196 161.366 196.84 161.174C198.484 160.981 200.059 160.401 201.435 159.482C202.811 158.562 203.95 157.328 204.756 155.883L226.071 118.409L218.854 113.78L199.366 142.343C199.366 142.343 185.989 98.5149 158.573 97.9668Z" fill="#9ED6BE"/>
<path opacity="0.2" d="M158.573 97.9668C156.294 101.62 155.085 105.84 155.085 110.147C155.085 114.453 156.294 118.673 158.573 122.327C163.547 130.721 178.021 147.072 187.917 157.852C189.035 159.072 190.427 160.01 191.979 160.587C193.53 161.165 195.196 161.366 196.84 161.174C198.484 160.981 200.059 160.401 201.435 159.482C202.811 158.562 203.95 157.328 204.756 155.883L226.071 118.409L218.854 113.78L199.366 142.343C199.366 142.343 185.989 98.5149 158.573 97.9668Z" fill="white"/>
<path d="M223.503 116.795C223.503 116.795 235.571 112.359 230.608 105.538C225.645 98.7174 218.763 113.78 218.763 113.78L223.503 116.795Z" fill="#F4A28C"/>
<path d="M128.732 88.2434L121.973 81.2501C121.276 80.5224 120.737 79.6596 120.388 78.7151C120.039 77.7705 119.887 76.7644 119.943 75.7589C120.105 72.1963 120.866 66.5224 123.81 62.2594C128.438 55.5807 134.589 53.0534 136.122 58.8287C137.654 64.6041 137.959 57.7427 141.684 60.8587C145.409 63.9748 144.648 65.7307 141.684 67.3547C138.72 68.9787 132.6 71.3335 132.052 76.2157C131.503 81.0978 136.101 84.9954 128.732 88.2434Z" fill="#24285B"/>
<path d="M195.54 95.8056L206.238 71.2324L213.211 80.1543L226.761 73.6989L232.679 83.6966L247.274 81.6057L238.606 109.528L224.427 113.182L217.91 102.505L204.33 106.24L195.54 95.8056Z" fill="#FFD200"/>
<path opacity="0.2" d="M206.918 77.3105L199.173 94.5249L205.649 102.614L219.616 97.9658L225.32 110.278L236.119 107.212L243.103 85.1565L230.567 87.3083L225.32 77.3105L212.632 83.7659L206.918 77.3105Z" fill="white"/>
<path opacity="0.08" d="M213.211 80.1527L204.33 106.238L217.91 102.503L226.761 73.6973L213.211 80.1527Z" fill="black"/>
<path opacity="0.08" d="M232.679 83.6964L224.427 113.182L238.606 109.528L247.274 81.6055L232.679 83.6964Z" fill="black"/>
<path d="M189.805 96.8598C189.805 96.8598 191.155 90.7089 193.865 89.1255C196.575 87.5421 202.137 88.7905 199.762 92.1705C197.387 95.5504 193.865 100.422 193.865 100.422L189.805 96.8598Z" fill="#F4A28C"/>
<path d="M126.926 217.412H55.2465V270.466H126.926V217.412Z" fill="#C9C9C9"/>
<path opacity="0.08" d="M114.502 217.412L96.6077 270.466H121.475L129.595 242.828L126.926 217.412H114.502Z" fill="black"/>
<path d="M177.199 183.906L171.129 263.229H161.527L152.971 201.598L131.757 187.489L177.199 183.906Z" fill="#24285B"/>
<path d="M131.757 187.49L118.511 263.23H128.804L151.022 200.3L131.757 187.49Z" fill="#24285B"/>
<path d="M120.379 263.229L114.005 267.928C113.768 268.103 113.592 268.349 113.502 268.63C113.413 268.911 113.414 269.213 113.507 269.493C113.599 269.773 113.777 270.017 114.016 270.189C114.255 270.362 114.542 270.455 114.837 270.455H125.525C125.709 270.457 125.892 270.421 126.063 270.351C126.233 270.282 126.388 270.178 126.519 270.048C126.649 269.918 126.752 269.763 126.822 269.592C126.892 269.422 126.927 269.239 126.926 269.055V263.229H120.379Z" fill="#9ED6BE"/>
<path d="M170.855 263.229L176.864 267.928C177.097 268.108 177.269 268.358 177.353 268.641C177.438 268.924 177.431 269.226 177.335 269.505C177.238 269.784 177.057 270.026 176.816 270.197C176.575 270.367 176.286 270.457 175.991 270.455H168.378C167.302 270.455 166.269 270.028 165.507 269.266C164.746 268.505 164.318 267.472 164.318 266.395V263.229H170.855Z" fill="#9ED6BE"/>
<path d="M302.094 111.07H296.177V266.639H302.094V111.07Z" fill="#FFD200"/>
<path opacity="0.49" d="M73.3744 225.359H65.569V233.165H73.3744V225.359Z" fill="#E6E6E6"/>
<path opacity="0.49" d="M78.4088 231.977L85.189 227.541V235.915L78.4088 231.977Z" fill="#E6E6E6"/>
<path opacity="0.49" d="M76.3077 251.292C80.3718 251.292 83.6665 247.997 83.6665 243.933C83.6665 239.869 80.3718 236.574 76.3077 236.574C72.2436 236.574 68.949 239.869 68.949 243.933C68.949 247.997 72.2436 251.292 76.3077 251.292Z" fill="#E6E6E6"/>
<path d="M272.203 147.041H307.342V134.414H272.203V147.041Z" fill="#24285B"/>
<path d="M272.203 130.854V150.656L256.216 140.729L272.203 130.854Z" fill="#24285B"/>
<path d="M326.343 104.736H291.203V117.363H326.343V104.736Z" fill="#24285B"/>
<path d="M326.343 101.164V120.977L342.329 111.05L326.343 101.164Z" fill="#24285B"/>
<path d="M296.563 265.96C296.563 265.96 306.226 252.064 291.823 248.238C277.42 244.411 295.294 225.695 281.876 223.238C268.457 220.782 270.711 240.575 270.711 240.575C270.711 240.575 261.454 232.597 255.07 239.296C248.685 245.995 257.627 253.353 257.627 253.353C257.627 253.353 244.727 257.809 252.765 265.96H296.563Z" fill="#E6E6E6"/>
<path d="M277.197 267.806C277.197 267.806 283.286 257.311 292.371 258.6C301.455 259.889 300.44 267.806 300.44 267.806H277.197Z" fill="#C9C9C9"/>
<path d="M320.923 109.02H304.043V113.191H320.923V109.02Z" fill="white"/>
<path d="M293.771 138.668H276.892V142.84H293.771V138.668Z" fill="white"/>
</svg>
