<svg width="406" height="306" viewBox="0 0 406 306" fill="none" xmlns="http://www.w3.org/2000/svg">
<path opacity="0.45" d="M211.282 287.752C281.213 287.752 337.904 278.341 337.904 266.732C337.904 255.122 281.213 245.711 211.282 245.711C141.351 245.711 84.6612 255.122 84.6612 266.732C84.6612 278.341 141.351 287.752 211.282 287.752Z" fill="#E6E6E6"/>
<path d="M127.768 257.301C127.768 257.301 126.571 261.361 122.998 261.858C119.425 262.355 118.694 265.918 121.983 266.659C125.271 267.4 133.341 262.762 133.341 262.762L132.803 257.595L127.768 257.301Z" fill="#9ED6BE"/>
<path d="M188.871 257.301C188.871 257.301 190.079 261.361 193.642 261.858C197.204 262.355 197.945 265.918 194.657 266.659C191.368 267.4 183.309 262.762 183.309 262.762L183.837 257.595L188.871 257.301Z" fill="#9ED6BE"/>
<path d="M178.467 37.8888C178.467 37.8888 179.137 45.684 177.828 50.8707C177.701 51.3737 177.476 51.8466 177.166 52.2622C176.856 52.6778 176.466 53.0278 176.02 53.2921C175.573 53.5563 175.079 53.7295 174.565 53.8017C174.052 53.8739 173.529 53.8436 173.027 53.7127C170.429 53.0123 167.11 51.3071 166.237 47.1761L163.892 40.335C163.57 38.9155 163.696 37.4313 164.252 36.0863C164.809 34.7414 165.768 33.6017 166.998 32.824C171.403 29.647 178.285 33.1082 178.467 37.8888Z" fill="#F4A28C"/>
<path d="M165.059 42.1309L154.331 65.7905L167.759 70.4189L170.073 51.9256L165.059 42.1309Z" fill="#F4A28C"/>
<path d="M162.948 42.263L162.887 46.9421C164.036 47.3884 165.305 47.4208 166.476 47.0337C167.646 46.6466 168.645 45.8642 169.302 44.8207C170.001 43.7565 170.373 42.5111 170.373 41.2378C170.373 39.9645 170.001 38.7191 169.302 37.6549C169.302 37.6549 170.317 40.4766 172.794 38.7815C175.27 37.0865 176.854 37.1778 177.036 39.0353C177.219 40.8927 180.457 40.8115 181.827 37.0865C183.197 33.3614 177.95 34.8027 179.553 32.6103C181.157 30.4179 183.441 28.8954 180.142 26.9466C176.843 24.9978 177.27 29.2405 175.067 26.9466C172.865 24.6527 172.55 22.0645 168.896 23.3535C165.242 24.6426 167.688 28.1545 163.983 27.4846C160.279 26.8147 159.172 27.6267 158.746 31.5953C158.472 34.1836 158.259 36.1019 159.517 36.8226C160.524 37.3387 161.374 38.116 161.977 39.0731C162.581 40.0302 162.916 41.1319 162.948 42.263Z" fill="#24285B"/>
<path d="M170.144 44.5883C170.144 44.5883 170.084 41.5433 167.82 41.8072C165.557 42.0711 165.618 46.395 168.693 46.801L170.144 44.5883Z" fill="#F4A28C"/>
<path d="M178.64 42.8223L180.822 45.8673C180.945 46.0393 181.023 46.2396 181.048 46.4496C181.073 46.6596 181.045 46.8726 180.966 47.0689C180.887 47.2651 180.76 47.4383 180.597 47.5724C180.433 47.7066 180.238 47.7974 180.031 47.8364L176.986 48.4048L178.64 42.8223Z" fill="#F4A28C"/>
<path opacity="0.31" d="M170.002 52.4438C168.51 51.5627 167.286 50.2926 166.46 48.7695C166.46 48.7695 163.679 53.6517 169.363 57.7523L170.002 52.4438Z" fill="#CE8172"/>
<path d="M186.527 73.5254C186.527 73.5254 240.403 90.8413 240.098 132.456L203.771 110.126L186.527 73.5254Z" fill="#9ED6BE"/>
<path d="M311.24 167.281H305.363V264.955H311.24V167.281Z" fill="#C9C9C9"/>
<path d="M311.24 167.281H305.363V264.955H311.24V167.281Z" fill="#9ED6BE"/>
<path opacity="0.48" d="M311.24 167.281H305.363V264.955H311.24V167.281Z" fill="white"/>
<path d="M287.742 132.852H320.304C323.803 132.852 327.159 134.242 329.634 136.716C332.108 139.191 333.499 142.547 333.499 146.047V167.291H274.294V146.3C274.294 142.733 275.711 139.313 278.233 136.791C280.755 134.268 284.175 132.852 287.742 132.852Z" fill="#9ED6BE"/>
<path d="M285.418 132.852C288.379 132.852 291.219 134.028 293.313 136.122C295.407 138.216 296.583 141.055 296.583 144.017V167.362H274.294V144.017C274.294 141.055 275.47 138.216 277.564 136.122C279.658 134.028 282.497 132.852 285.459 132.852H285.418Z" fill="#9ED6BE"/>
<path opacity="0.08" d="M285.418 132.852C288.379 132.852 291.219 134.028 293.313 136.122C295.407 138.216 296.583 141.055 296.583 144.017V167.362H274.294V144.017C274.294 141.055 275.47 138.216 277.564 136.122C279.658 134.028 282.497 132.852 285.459 132.852H285.418Z" fill="black"/>
<path d="M296.045 264.965L289.783 245.71L300.542 252.977L301.455 232.17L312.539 253.15L324.546 245.71L317.36 264.965H296.045Z" fill="#C9C9C9"/>
<path d="M123.414 62.6656C124.896 61.3879 126.632 60.4373 128.507 59.8758C130.382 59.3144 132.354 59.1548 134.295 59.4074C147.297 61.0111 180.883 66.3297 195.986 79.88C214.936 96.8914 223.726 119.353 177.036 177.482H133.056C133.056 177.482 92.1112 90.1416 123.414 62.6656Z" fill="#9ED6BE"/>
<path opacity="0.08" d="M134.467 83.3398C134.467 83.3398 134.071 104.716 143.541 115.546C153.011 126.376 201.325 142.098 201.325 142.098C195.021 154.395 187.232 165.873 178.132 176.273L177.036 177.522H133.056C133.056 177.522 117.486 142.514 113.883 118.428C111.386 101.721 134.467 83.3398 134.467 83.3398Z" fill="black"/>
<path d="M190.293 85.885L143.586 82.9219L141.001 123.663L187.709 126.626L190.293 85.885Z" fill="#24285B"/>
<path d="M166.206 94.1914L138.476 113.121L136.101 150.595L188.952 153.944L191.328 116.471L166.206 94.1914Z" fill="#FFD200"/>
<path opacity="0.08" d="M138.476 113.121C138.476 113.121 140.709 143.622 189.622 143.358L188.942 153.944L136.101 150.595L138.476 113.121Z" fill="black"/>
<path d="M124.601 135.745C124.601 135.745 130.691 128.813 141.856 134.903L140.841 142.089H124.601V135.745Z" fill="#F4A28C"/>
<path d="M121.8 62.3C106.778 70.2678 76.7847 88.4667 66.4723 137.237C66.1345 138.815 66.1841 140.451 66.617 142.004C67.0499 143.558 67.853 144.984 68.9577 146.16C70.0624 147.335 71.4356 148.225 72.9596 148.754C74.4837 149.282 76.1131 149.433 77.7084 149.194L124.571 142.089V135.745L95.136 133.715C95.136 133.715 138.395 106.564 135.381 69.608C135.24 68.0879 134.725 66.6263 133.882 65.3534C133.039 64.0804 131.894 63.0357 130.55 62.3123C129.206 61.5889 127.703 61.2092 126.177 61.207C124.65 61.2049 123.146 61.5804 121.8 62.3Z" fill="#9ED6BE"/>
<path opacity="0.2" d="M121.8 62.3C106.778 70.2678 76.7847 88.4667 66.4723 137.237C66.1345 138.815 66.1841 140.451 66.617 142.004C67.0499 143.558 67.853 144.984 68.9577 146.16C70.0624 147.335 71.4356 148.225 72.9596 148.754C74.4837 149.282 76.1131 149.433 77.7084 149.194L124.571 142.089V135.745L95.136 133.715C95.136 133.715 138.395 106.564 135.381 69.608C135.24 68.0879 134.725 66.6263 133.882 65.3534C133.039 64.0804 131.894 63.0357 130.55 62.3123C129.206 61.5889 127.703 61.2092 126.177 61.207C124.65 61.2049 123.146 61.5804 121.8 62.3Z" fill="white"/>
<path d="M195.986 86.1106C195.986 86.1106 188.78 80.7514 182.061 81.736L181.046 88.841C181.046 88.841 193.946 91.886 195.976 95.2761L195.986 86.1106Z" fill="#F4A28C"/>
<path d="M195.986 86.1113L237.814 124.428C238.973 125.486 239.792 126.864 240.167 128.388C240.542 129.912 240.456 131.513 239.92 132.988C239.384 134.463 238.422 135.746 237.157 136.674C235.891 137.602 234.378 138.134 232.811 138.201C219.89 138.678 202.624 131.837 195.986 95.2463V86.1113Z" fill="#9ED6BE"/>
<path opacity="0.2" d="M195.986 86.1113L237.814 124.428C238.973 125.486 239.792 126.864 240.167 128.388C240.542 129.912 240.456 131.513 239.92 132.988C239.384 134.463 238.422 135.746 237.157 136.674C235.891 137.602 234.378 138.134 232.811 138.201C219.89 138.678 202.624 131.837 195.986 95.2463V86.1113Z" fill="white"/>
<path d="M183.907 121.643L172.937 120.947L172.357 130.084L183.327 130.78L183.907 121.643Z" fill="white"/>
<path opacity="0.08" d="M165.039 120.728L150.179 119.785L150.014 122.388L164.874 123.331L165.039 120.728Z" fill="black"/>
<path opacity="0.08" d="M164.72 125.773L149.86 124.83L149.695 127.433L164.555 128.376L164.72 125.773Z" fill="black"/>
<path d="M133.056 177.521L124.601 257.879H135.563L154.28 190.382L177.046 177.521H133.056Z" fill="#24285B"/>
<path d="M177.046 177.521L191.328 257.879H181.685L155.975 190.047L149.459 184.972L177.046 177.521Z" fill="#24285B"/>
<path d="M203 44.3948C203 44.3948 294.989 31.5652 296.126 119.505" stroke="#C9C9C9" stroke-width="2.03" stroke-linecap="round" stroke-linejoin="round" stroke-dasharray="3.05 10.15"/>
<path opacity="0.21" d="M321.166 150.341C321.166 147.959 319.235 146.027 316.853 146.027C314.47 146.027 312.539 147.959 312.539 150.341C312.539 152.724 314.47 154.655 316.853 154.655C319.235 154.655 321.166 152.724 321.166 150.341Z" fill="white"/>
<path d="M316.853 151.589C316.449 151.589 316.061 151.428 315.776 151.143C315.49 150.857 315.33 150.47 315.33 150.066V123.788C315.333 121.964 316.059 120.215 317.349 118.925C318.639 117.635 320.387 116.909 322.212 116.906H339.69C340.094 116.906 340.481 117.067 340.767 117.352C341.052 117.638 341.213 118.025 341.213 118.429C341.213 118.833 341.052 119.22 340.767 119.505C340.481 119.791 340.094 119.951 339.69 119.951H322.212C321.194 119.951 320.218 120.355 319.499 121.075C318.779 121.795 318.375 122.77 318.375 123.788V150.066C318.375 150.47 318.215 150.857 317.929 151.143C317.644 151.428 317.256 151.589 316.853 151.589Z" fill="#9ED6BE"/>
<path opacity="0.08" d="M316.853 151.589C316.449 151.589 316.061 151.428 315.776 151.143C315.49 150.857 315.33 150.47 315.33 150.066V123.788C315.333 121.964 316.059 120.215 317.349 118.925C318.639 117.635 320.387 116.909 322.212 116.906H339.69C340.094 116.906 340.481 117.067 340.767 117.352C341.052 117.638 341.213 118.025 341.213 118.429C341.213 118.833 341.052 119.22 340.767 119.505C340.481 119.791 340.094 119.951 339.69 119.951H322.212C321.194 119.951 320.218 120.355 319.499 121.075C318.779 121.795 318.375 122.77 318.375 123.788V150.066C318.375 150.47 318.215 150.857 317.929 151.143C317.644 151.428 317.256 151.589 316.853 151.589Z" fill="black"/>
<path d="M344.592 114.938H328.271V121.708H344.592V114.938Z" fill="#9ED6BE"/>
<path d="M344.592 115.271H328.271V122.042H344.592V115.271Z" fill="#9ED6BE"/>
</svg>
