<svg width="406" height="306" viewBox="0 0 406 306" fill="none" xmlns="http://www.w3.org/2000/svg">
<path d="M109.62 103.184H205.466C210.543 103.184 215.413 105.2 219.003 108.79C222.593 112.38 224.609 117.249 224.609 122.326V183.318H90.4771V122.326C90.4771 117.249 92.4939 112.38 96.0839 108.79C99.6739 105.2 104.543 103.184 109.62 103.184Z" fill="#C1C1C1"/>
<path d="M171.718 87.1359C171.718 87.1359 200.138 85.1059 197.884 119.484C195.631 153.862 234.282 151.964 234.282 151.964V159.901C234.282 159.901 181.37 166.854 176.559 137.165C171.748 107.477 171.718 87.1359 171.718 87.1359Z" fill="#9ED6BE"/>
<path opacity="0.46" d="M171.718 87.1359C171.718 87.1359 200.138 85.1059 197.884 119.484C195.631 153.862 234.282 151.964 234.282 151.964V159.901C234.282 159.901 181.37 166.854 176.559 137.165C171.748 107.477 171.718 87.1359 171.718 87.1359Z" fill="white"/>
<path d="M152.636 69.5052C153.208 71.9555 153.45 74.4712 153.356 76.9857C153.326 77.284 153.237 77.5733 153.094 77.8371C152.952 78.1008 152.758 78.3337 152.525 78.5224C152.292 78.711 152.024 78.8518 151.737 78.9364C151.449 79.0211 151.147 79.0481 150.849 79.0157C149.886 78.9652 148.958 78.6415 148.172 78.0825C147.387 77.5235 146.777 76.7522 146.414 75.8591L144.506 72.1442C144.199 71.3604 144.144 70.5009 144.348 69.6844C144.552 68.868 145.004 68.135 145.642 67.5868C147.906 65.3843 152.128 66.785 152.636 69.5052Z" fill="#F4A28C"/>
<path d="M144.881 74.4297L146.272 89.1979L154.351 87.848L150.098 77.6472L144.881 74.4297Z" fill="#F4A28C"/>
<path d="M144.435 75.6876C144.45 75.7813 144.496 75.8672 144.566 75.9315C144.636 75.9959 144.726 76.035 144.82 76.0428C145.471 76.1214 146.129 75.988 146.698 75.6625C147.267 75.3371 147.715 74.8368 147.977 74.2361C148.28 73.5733 148.384 72.8365 148.276 72.1155C148.168 71.3946 147.852 70.7207 147.368 70.1761C148.769 70.2432 150.172 70.1444 151.55 69.8818C152.012 69.7999 152.458 69.6421 152.869 69.4149L153.529 65.8827C153.529 65.8827 154.889 62.249 152.798 61.8227C150.707 61.3964 150.108 63.7715 148.271 62.3606C146.434 60.9498 145.977 60.4017 144.435 61.5182C142.892 62.6347 144.972 63.7004 142.252 64.0658C139.532 64.4312 139.623 65.5579 139.776 66.8063C139.895 67.2028 140.128 67.5556 140.446 67.8213C142.598 69.938 143.999 72.7005 144.435 75.6876Z" fill="#24285B"/>
<path d="M148.434 74.033C148.434 74.033 148.149 72.3177 146.87 72.6425C145.592 72.9673 145.998 75.454 147.784 75.4236L148.434 74.033Z" fill="#F4A28C"/>
<path d="M153.143 72.3184L154.645 73.8307C154.731 73.9178 154.793 74.0252 154.825 74.1428C154.858 74.2604 154.86 74.3844 154.832 74.5031C154.803 74.6218 154.745 74.7313 154.663 74.8214C154.581 74.9115 154.477 74.9793 154.361 75.0183L152.697 75.5968L153.143 72.3184Z" fill="#F4A28C"/>
<path opacity="0.31" d="M150.636 79.0163C149.464 79.0407 148.305 78.7684 147.266 78.2246C147.266 78.2246 148.007 81.0971 151.915 82.0004L150.636 79.0163Z" fill="#CE8172"/>
<path d="M121.11 120.521C116.806 108.432 115.233 102.606 135.431 90.9943C145.054 85.4727 160.218 84.6404 175.016 87.7971C204.451 94.0698 179.828 132.315 187.308 153.011L153.965 165.485C153.965 165.485 130.478 146.799 121.11 120.521Z" fill="#9ED6BE"/>
<path opacity="0.08" d="M144.232 103.672C144.232 103.672 153.072 111.985 147.54 125.87C143.744 135.421 152.047 145.551 162.004 143.023C162.309 142.952 162.613 142.861 162.928 142.77C177.564 138.365 185.847 142.638 185.847 142.638C185.847 142.638 186.09 151.367 187.339 152.981L153.965 165.485L153.164 164.968L141.633 153.508C141.633 153.508 133.107 143.693 129.23 137.096C125.353 130.498 144.232 103.672 144.232 103.672Z" fill="black"/>
<path d="M234.282 154.41C234.282 154.41 239.357 152.776 242.402 155.598C245.447 158.419 234.282 159.069 234.282 159.069V154.41Z" fill="#F4A28C"/>
<path d="M138.091 89.6242C138.091 89.6242 137.441 84.6507 147.226 83.4429C157.01 82.235 161.669 80.5095 162.877 86.092C162.928 86.092 158.746 94.1917 138.091 89.6242Z" fill="#9ED6BE"/>
<path opacity="0.46" d="M138.091 89.6242C138.091 89.6242 137.441 84.6507 147.226 83.4429C157.01 82.235 161.669 80.5095 162.877 86.092C162.928 86.092 158.746 94.1917 138.091 89.6242Z" fill="white"/>
<path d="M218.296 163.608C209.892 156.33 197.631 150.981 191.551 149.448C180.832 146.728 169.647 146.566 158.594 146.82C146.86 147.083 135.151 147.794 123.465 148.951C116.796 149.611 109.925 150.494 104.119 153.833C95.542 158.756 87.8787 170.733 86.3765 180.599C84.4581 193.702 103.185 187.409 111.356 186.922C141.115 185.172 170.96 185.491 200.676 187.876C206.684 188.364 222.194 191.185 225.695 184.364C229.502 176.833 225.198 169.576 218.296 163.608Z" fill="#FFD200"/>
<path opacity="0.45" d="M203 265.767C292.77 265.767 365.542 260.482 365.542 253.963C365.542 247.443 292.77 242.158 203 242.158C113.23 242.158 40.4579 247.443 40.4579 253.963C40.4579 260.482 113.23 265.767 203 265.767Z" fill="#E6E6E6"/>
<path d="M288.849 96.8594C288.849 96.8594 270.812 122.965 263.372 124.681C255.932 126.396 242.23 119.159 242.23 119.159L239.54 128.761C239.54 128.761 262.459 143.407 270.792 140.687C279.125 137.967 298.989 118.946 298.989 118.946L288.849 96.8594Z" fill="#9ED6BE"/>
<path opacity="0.46" d="M288.849 96.8594C288.849 96.8594 270.812 122.965 263.372 124.681C255.932 126.396 242.23 119.159 242.23 119.159L239.54 128.761C239.54 128.761 262.459 143.407 270.792 140.687C279.125 137.967 298.989 118.946 298.989 118.946L288.849 96.8594Z" fill="white"/>
<path d="M313.249 195.377L332.169 249.121L335.995 248.837L328.2 194.291L313.249 195.377Z" fill="#F4A28C"/>
<path d="M331.966 248.299C331.966 248.299 330.788 251.557 328.149 252.287C325.51 253.018 326.343 256.825 330.403 255.058C331.664 254.51 332.879 253.862 334.036 253.12C335.112 252.47 336.342 252.119 337.599 252.105C337.836 252.076 338.058 251.977 338.239 251.822C338.419 251.666 338.55 251.461 338.614 251.232C339.335 249.445 335.356 247.172 335.356 247.172L331.966 248.299Z" fill="#9ED6BE"/>
<path d="M292.158 192.199L288.25 249.039L291.873 250.298L306.307 197.122L292.158 192.199Z" fill="#F4A28C"/>
<path d="M288.382 248.207C288.382 248.207 286.017 250.724 283.307 250.359C280.597 249.993 279.856 253.81 284.322 253.79C285.699 253.788 287.074 253.673 288.433 253.444C289.68 253.271 290.95 253.428 292.117 253.901C292.338 253.958 292.572 253.948 292.788 253.874C293.004 253.8 293.194 253.665 293.335 253.485C294.715 252.135 291.944 248.501 291.944 248.501L288.382 248.207Z" fill="#9ED6BE"/>
<path opacity="0.08" d="M332.666 174.731C332.281 179.238 332.301 189.388 332.616 200.583C331.215 196.909 329.892 193.187 328.647 189.418C327.124 184.841 325.602 180.07 322.374 176.518C319.766 173.666 316.223 171.839 312.65 170.347C306.092 167.606 299.185 165.789 292.127 164.947C291.335 164.866 290.544 164.774 289.752 164.642C290.32 161.506 290.767 159.628 290.767 159.628L304.135 157.07C303.85 154.746 303.708 153.355 303.708 153.355H329.236C332.033 160.115 333.208 167.436 332.666 174.731Z" fill="black"/>
<path d="M306.53 54.0371V40.7507C306.53 40.7507 324.8 37.0358 329.875 49.4594L320.588 67.4249C320.588 67.4249 317.045 54.7476 306.53 54.0371Z" fill="#FFD200"/>
<path d="M303.333 60.8685C303.333 60.8685 291.701 77.8901 306.53 76.7634C321.359 75.6368 314.457 59.8535 314.457 59.8535L303.333 60.8685Z" fill="#FFD200"/>
<path d="M303.333 60.8685C303.333 60.8685 291.701 77.8901 306.53 76.7634C321.359 75.6368 314.457 59.8535 314.457 59.8535L303.333 60.8685Z" fill="#24285B"/>
<path d="M304.612 59.9452C304.612 59.9452 303.424 65.6799 303.942 69.6384C303.993 70.0226 304.119 70.393 304.314 70.7282C304.509 71.0633 304.768 71.3568 305.076 71.5916C305.385 71.8264 305.736 71.998 306.111 72.0966C306.486 72.1951 306.877 72.2186 307.261 72.1658C308.507 72.074 309.7 71.6236 310.696 70.869C311.692 70.1144 312.448 69.0878 312.874 67.9129L315.218 63.0409C315.581 62.0159 315.618 60.9037 315.324 59.8569C315.029 58.8102 314.418 57.8802 313.574 57.1945C310.59 54.454 305.17 56.413 304.612 59.9452Z" fill="#F4A28C"/>
<path d="M314.792 63.9238L315.553 83.087L304.957 82.7521L308.662 68.9481L314.792 63.9238Z" fill="#F4A28C"/>
<path d="M310.204 65.65C310.204 65.65 310.509 63.417 312.173 63.7926C313.838 64.1681 313.402 67.3958 311.087 67.4263L310.204 65.65Z" fill="#F4A28C"/>
<path d="M304.053 63.5879L302.166 65.6179C302.06 65.7352 301.985 65.8773 301.948 66.031C301.911 66.1848 301.914 66.3453 301.955 66.4978C301.997 66.6504 302.076 66.7901 302.185 66.9041C302.295 67.0182 302.431 67.1029 302.582 67.1505L304.754 67.8306L304.053 63.5879Z" fill="#F4A28C"/>
<path opacity="0.31" d="M307.718 71.9326C309.065 71.76 310.332 71.1953 311.361 70.3086C311.361 70.3086 310.803 73.8306 306.53 76.764L307.718 71.9326Z" fill="#CE8172"/>
<path d="M304.957 82.752C304.957 82.752 258.267 108.127 280.069 132.01L290.726 159.669H324.221C324.221 159.669 355.098 101.976 315.553 83.0869L304.957 82.752Z" fill="#9ED6BE"/>
<path opacity="0.08" d="M308.235 98.6055C308.235 98.6055 294.949 109.618 307.555 124.082C320.161 138.546 299.039 136.262 293.741 125.858L286.463 148.594L290.726 159.668H326.15L331.073 145.57L334.625 124.082L308.235 98.6055Z" fill="black"/>
<path opacity="0.08" d="M289.498 164.642L289.64 164.794L289.021 164.561C289.179 164.597 289.338 164.624 289.498 164.642Z" fill="black"/>
<path opacity="0.08" d="M289.722 164.825L290.27 165.038C290.074 165.029 289.884 164.966 289.722 164.855L289.651 164.805L289.722 164.825Z" fill="black"/>
<path d="M301.918 118.404L280.156 115.504L275.934 147.186L297.696 150.086L301.918 118.404Z" fill="#FFD200"/>
<path opacity="0.08" d="M300.095 132.111C300.095 132.111 292.411 130.609 291.356 136.82C290.817 140.343 289.563 143.717 287.671 146.737L286.463 148.594L297.699 150.097L300.095 132.111Z" fill="black"/>
<path d="M304.936 140.374C304.936 140.374 299.78 134.284 296.39 136.832C293 139.38 301.922 145.571 301.922 145.571L304.936 140.374Z" fill="#F4A28C"/>
<path d="M308.448 101.357C306.418 91.2069 318.598 84.2643 326.465 91.0039C330.586 94.526 333.955 99.2559 337.548 109.172C348.581 139.693 345.922 188.21 300.278 145.57L304.398 139.785C304.398 139.785 325.998 157.385 327.743 143.682C329.012 134.101 311.351 116.074 308.448 101.357Z" fill="#9ED6BE"/>
<path opacity="0.46" d="M308.448 101.357C306.418 91.2069 318.598 84.2643 326.465 91.0039C330.586 94.526 333.955 99.2559 337.548 109.172C348.581 139.693 345.922 188.21 300.278 145.57L304.398 139.785C304.398 139.785 325.998 157.385 327.743 143.682C329.012 134.101 311.351 116.074 308.448 101.357Z" fill="white"/>
<path d="M303.81 52.8702C303.006 53.4847 302.35 54.2713 301.89 55.1723C301.43 56.0733 301.177 57.0658 301.151 58.0772C301.151 59.8534 301.912 61.721 304.977 62.056C311.067 62.736 313.178 62.736 313.178 62.736C313.178 62.736 306.378 79.4835 318.385 78.296C330.393 77.1084 325.825 66.9584 320.588 57.8234C315.858 49.5918 309.626 48.2317 303.81 52.8702Z" fill="#24285B"/>
<path d="M317.807 45.1249L315.949 44.6884L316.376 42.8309L314.254 42.3438L313.818 44.2012L311.96 43.7648L311.473 45.8963L313.331 46.3327L312.894 48.1902L315.026 48.6774L315.462 46.8199L317.319 47.2564L317.807 45.1249Z" fill="white"/>
<path d="M249.984 118.895C249.984 118.895 242.362 110.877 241.976 112.399C241.831 113.508 242.106 114.63 242.747 115.546C242.747 115.546 238.555 112.968 237.409 113.353C236.262 113.739 235.693 117.759 236.079 118.895C236.465 120.032 249.03 125.594 249.03 125.594L249.7 116.886" fill="#F4A28C"/>
<path d="M235.957 174.67H79.1396V254.804H235.957V174.67Z" fill="#E6E6E6"/>
<path d="M143.399 102.504C137.796 95.3994 127.037 95.2065 120.826 101.814C110.442 112.878 97.1253 134.294 112.472 161.699C128.316 190.028 170.682 152.98 170.682 152.98L166.541 144.373C166.541 144.373 125.251 166.023 127.261 144.373C128.905 126.783 153.377 115.182 143.399 102.504Z" fill="#9ED6BE"/>
<path opacity="0.46" d="M143.399 102.504C137.796 95.3994 127.037 95.2065 120.826 101.814C110.442 112.878 97.1253 134.294 112.472 161.699C128.316 190.028 170.682 152.98 170.682 152.98L166.541 144.373C166.541 144.373 125.251 166.023 127.261 144.373C128.905 126.783 153.377 115.182 143.399 102.504Z" fill="white"/>
<path d="M167.82 147.043L178.366 142.77C178.366 142.77 183.644 149.956 170.682 152.98L167.82 147.043Z" fill="#F4A28C"/>
<path d="M69.3651 47.918H65.9344V253.019H69.3651V47.918Z" fill="#E6E6E6"/>
<path d="M89.2388 63.9844H82.6515C79.63 63.9844 77.1806 66.4338 77.1806 69.4552V82.0412C77.1806 85.0627 79.63 87.5121 82.6515 87.5121H89.2388C92.2603 87.5121 94.7097 85.0627 94.7097 82.0412V69.4552C94.7097 66.4338 92.2603 63.9844 89.2388 63.9844Z" fill="#E6E6E6"/>
<path d="M79.2715 74.7441V81.5548C79.2742 82.6577 79.7135 83.7146 80.4933 84.4945C81.2732 85.2743 82.3301 85.7136 83.433 85.7163H88.4471C89.5508 85.7163 90.6093 85.2778 91.3897 84.4974C92.1701 83.717 92.6086 82.6585 92.6086 81.5548V74.7441H79.2715Z" fill="#FFD200"/>
<path d="M87.4626 59.7012H85.1788V65.1314H87.4626V59.7012Z" fill="#E6E6E6"/>
<path d="M86.3663 62.0056H85.7878C82.2962 61.7214 79.6978 58.8997 78.7741 57.8035H67.6091C67.34 57.8035 67.0818 57.6965 66.8914 57.5062C66.7011 57.3158 66.5941 57.0576 66.5941 56.7885C66.5941 56.5193 66.7011 56.2611 66.8914 56.0707C67.0818 55.8804 67.34 55.7735 67.6091 55.7735H79.2715C79.4342 55.7726 79.5948 55.8109 79.7397 55.885C79.8845 55.9592 80.0094 56.0672 80.1038 56.1998C80.1038 56.1998 82.6514 59.7117 85.9603 59.9756C86.8955 59.9979 87.8239 59.8108 88.6774 59.4279C89.5309 59.0451 90.288 58.4762 90.8932 57.7629C91.0803 57.5677 91.3373 57.4548 91.6076 57.4491C91.8779 57.4434 92.1394 57.5453 92.3345 57.7324C92.5297 57.9195 92.6426 58.1765 92.6483 58.4467C92.654 58.717 92.5521 58.9785 92.365 59.1737C91.6103 60.029 90.6891 60.7212 89.6577 61.2081C88.6262 61.6951 87.5063 61.9664 86.3663 62.0056Z" fill="#E6E6E6"/>
</svg>
