<svg width="406" height="306" viewBox="0 0 406 306" fill="none" xmlns="http://www.w3.org/2000/svg">
<path d="M237.419 218.6C237.419 218.6 239.033 223.015 236.18 225.827C233.328 228.638 235.033 232.313 238.444 230.79C241.854 229.268 245.995 219.798 245.995 219.798L242.108 215.545L237.419 218.6Z" fill="#9ED6BE"/>
<path opacity="0.08" d="M237.419 218.6C237.419 218.6 239.033 223.015 236.18 225.827C233.328 228.638 235.033 232.313 238.444 230.79C241.854 229.268 245.995 219.798 245.995 219.798L242.108 215.545L237.419 218.6Z" fill="black"/>
<path d="M218.672 197.488L236.495 219.321L241.6 215.626L224.406 179.898L218.672 187.237V197.488Z" fill="#24285B"/>
<path opacity="0.08" d="M218.672 187.236V197.488L236.495 219.32" fill="black"/>
<path d="M240.443 215.118C240.443 215.118 242.057 219.523 239.205 222.345C236.353 225.167 238.058 228.821 241.458 227.308C244.859 225.796 249.02 216.316 249.02 216.316L245.133 212.053L240.443 215.118Z" fill="#9ED6BE"/>
<path d="M284.636 157.871C284.636 157.871 287.072 172.792 277.268 175.329C270.883 176.984 252.491 177.552 240.403 177.755C239.207 177.773 238.036 178.092 236.997 178.683C235.958 179.274 235.085 180.118 234.458 181.136C233.832 182.154 233.473 183.314 233.413 184.507C233.354 185.701 233.597 186.891 234.12 187.966L245.863 212.204L240.372 216.609L219.159 190.635C217.498 188.605 216.331 186.217 215.749 183.66C215.166 181.102 215.185 178.445 215.802 175.895C216.42 173.346 217.62 170.975 219.308 168.968C220.997 166.96 223.127 165.372 225.533 164.326L240.372 157.871H284.636Z" fill="#24285B"/>
<path d="M196.829 131.583C196.829 131.583 184.649 129.015 186.679 135.866L200.757 136.049L196.829 131.583Z" fill="#F4A28C"/>
<path opacity="0.08" d="M196.829 131.583C196.829 131.583 184.649 129.015 186.679 135.866L200.757 136.049L196.829 131.583Z" fill="black"/>
<path d="M222.853 76.216C220.547 75.3841 218.052 75.2271 215.66 75.7633C213.267 76.2996 211.078 77.5068 209.347 79.2435C207.617 80.9802 206.418 83.1743 205.891 85.5685C205.363 87.9626 205.529 90.4575 206.37 92.7605L206.542 93.1868C212.135 107.62 241.57 125.23 241.57 125.23L201.843 131.98L203.721 141.115C203.721 141.115 245.691 149.174 261.058 136.619C275.177 125.139 255.475 88.0408 222.853 76.216Z" fill="#9ED6BE"/>
<path opacity="0.08" d="M222.853 76.216C220.547 75.3841 218.052 75.2271 215.66 75.7633C213.267 76.2996 211.078 77.5068 209.347 79.2435C207.617 80.9802 206.418 83.1743 205.891 85.5685C205.363 87.9626 205.529 90.4575 206.37 92.7605L206.542 93.1868C212.135 107.62 241.57 125.23 241.57 125.23L201.843 131.98L203.721 141.115C203.721 141.115 245.691 149.174 261.058 136.619C275.177 125.139 255.475 88.0408 222.853 76.216Z" fill="black"/>
<path opacity="0.28" d="M154.798 134.314H124.094V140.12H154.798V134.314Z" fill="#C9C9C9"/>
<path opacity="0.28" d="M144.14 128.508H124.094V134.314H144.14V128.508Z" fill="#C9C9C9"/>
<path opacity="0.45" d="M200.929 290.198C276.601 290.198 337.944 280.805 337.944 269.218C337.944 257.631 276.601 248.238 200.929 248.238C125.258 248.238 63.9146 257.631 63.9146 269.218C63.9146 280.805 125.258 290.198 200.929 290.198Z" fill="#E6E6E6"/>
<path d="M180.914 65.5787C180.914 65.5787 182.944 72.836 185.826 77.0685C186.11 77.4776 186.472 77.8266 186.892 78.0956C187.311 78.3645 187.779 78.5481 188.269 78.6358C188.76 78.7235 189.262 78.7136 189.749 78.6066C190.235 78.4996 190.696 78.2977 191.104 78.0125C193.215 76.5204 195.631 73.8814 195.032 69.8925L194.88 62.9194C194.699 61.5337 194.092 60.2383 193.143 59.2127C192.194 58.1871 190.949 57.4819 189.582 57.1948C184.517 55.8043 179.482 61.2244 180.914 65.5787Z" fill="#F4A28C"/>
<path d="M187.724 60.8887L210.075 71.2823L203.467 83.1882L190.201 71.1605L187.724 60.8887Z" fill="#F4A28C"/>
<path d="M180.467 65.589C180.964 66.2082 182.03 65.4571 182.771 65.2236C184.986 64.5054 187.109 63.5276 189.095 62.3106C188.822 63.5005 188.902 64.7441 189.326 65.8889C189.75 67.0338 190.498 68.0302 191.48 68.7558C194.941 71.3238 196.88 65.7108 196.88 65.7108L194.504 59.5396L194.291 57.7938C194.104 55.6063 194.328 53.4031 194.951 51.2978C195.044 50.8107 195.013 50.3081 194.86 49.8362C194.708 49.3644 194.439 48.9385 194.078 48.5979C191.754 45.8371 189.46 46.842 186.973 50.4249C184.486 54.0079 182.771 47.2581 179.391 49.3592C176.011 51.4602 179.726 54.0992 177.229 55.5202C174.732 56.9412 169.992 57.7431 172.317 61.2245C172.698 61.841 173.229 62.3506 173.861 62.7057C174.493 63.0607 175.205 63.2496 175.93 63.2545C176.787 63.2581 177.632 63.4553 178.402 63.8315C179.171 64.2076 179.846 64.7529 180.376 65.4266L180.467 65.589Z" fill="#24285B"/>
<path d="M190.647 68.8363C190.647 68.8363 189.693 66.1059 191.815 65.5578C193.936 65.0097 195.337 68.9479 192.698 70.3486L190.647 68.8363Z" fill="#F4A28C"/>
<path d="M204.969 75.4227L206.553 73.8292C209.579 70.7793 213.213 68.4012 217.22 66.85C221.227 65.2987 225.515 64.6092 229.806 64.8261C239.956 65.3742 253.222 68.6933 263.656 80.3861C283.276 102.371 290.726 127.746 284.636 157.861H240.372C240.372 157.861 236.586 139.256 218.661 135.866C200.737 132.476 186.872 99.5493 204.969 75.4227Z" fill="#9ED6BE"/>
<path opacity="0.58" d="M118.867 128.976C118.867 128.976 109.488 126.448 107.407 117.729C107.407 117.729 121.922 114.684 122.399 129.727L118.867 128.976Z" fill="#9ED6BE"/>
<path opacity="0.73" d="M120.014 128.032C120.014 128.032 113.416 117.709 119.141 108.006C119.141 108.006 130.225 114.969 125.363 128.032H120.014Z" fill="#9ED6BE"/>
<path d="M121.698 128.032C121.698 128.032 125.119 117.09 135.574 114.969C135.574 114.969 137.604 122.074 128.854 128.032H121.698Z" fill="#9ED6BE"/>
<path d="M114.898 127.818L116.857 140.81H128.824L130.539 127.818H114.898Z" fill="#24285B"/>
<path opacity="0.08" d="M204.969 75.4241C204.969 75.4241 219.646 70.8668 235.48 86.3151C280.221 129.96 230.801 141.724 230.801 141.724C230.801 141.724 239.144 149.499 240.362 157.873H284.626C284.626 157.873 293.609 125.169 274.689 95.2166C274.689 95.2166 259.13 65.1828 229.796 64.8377C225.13 64.6363 220.478 65.4827 216.182 67.3146C211.885 69.1466 208.054 71.9176 204.969 75.4241Z" fill="black"/>
<path d="M182.416 70.084L181.452 73.5248C181.397 73.7211 181.393 73.9279 181.44 74.126C181.488 74.3241 181.584 74.5072 181.721 74.6581C181.857 74.809 182.03 74.9228 182.223 74.9891C182.415 75.0554 182.621 75.0719 182.822 75.0372L185.704 74.55L182.416 70.084Z" fill="#F4A28C"/>
<path d="M229.451 74.2355C227.145 73.4037 224.649 73.2466 222.257 73.7829C219.865 74.3191 217.675 75.5264 215.945 77.2631C214.215 78.9998 213.016 81.1939 212.488 83.588C211.961 85.9821 212.127 88.477 212.967 90.78C213.028 90.9221 213.079 91.0642 213.14 91.2165C218.753 105.64 248.178 123.25 248.178 123.25L208.451 130L210.328 139.135C210.328 139.135 252.299 147.184 267.666 134.628C281.774 123.159 262.073 86.0095 229.451 74.2355Z" fill="#9ED6BE"/>
<path opacity="0.46" d="M229.451 74.2355C227.145 73.4037 224.649 73.2466 222.257 73.7829C219.865 74.3191 217.675 75.5264 215.945 77.2631C214.215 78.9998 213.016 81.1939 212.488 83.588C211.961 85.9821 212.127 88.477 212.967 90.78C213.028 90.9221 213.079 91.0642 213.14 91.2165C218.753 105.64 248.178 123.25 248.178 123.25L208.451 130L210.328 139.135C210.328 139.135 252.299 147.184 267.666 134.628C281.774 123.159 262.073 86.0095 229.451 74.2355Z" fill="white"/>
<path d="M209.547 131.412C209.547 131.412 197.022 127.453 195.895 131.909C194.768 136.365 210.166 138.385 210.166 138.385L209.547 131.412Z" fill="#F4A28C"/>
<path d="M224.406 140.119H107.407V151.284H224.406V140.119Z" fill="#E6E6E6"/>
<path d="M205.243 140.12L204.695 136.091L160.776 135.542L141.176 96.7188L136.101 98.2413L155.386 140.12H205.243Z" fill="#FFD200"/>
<path d="M271.726 191.539H265.301V270.77H271.726V191.539Z" fill="#FFD200"/>
<path opacity="0.08" d="M271.726 191.539H265.301V270.77H271.726V191.539Z" fill="black"/>
<path d="M265.301 257.342H271.726L286.139 266.274C286.586 266.552 286.931 266.969 287.121 267.46C287.311 267.952 287.336 268.492 287.191 268.999C287.047 269.506 286.741 269.952 286.32 270.27C285.9 270.588 285.387 270.76 284.86 270.76H254.856C254.35 270.758 253.857 270.597 253.446 270.301C253.035 270.004 252.728 269.586 252.567 269.106C252.405 268.626 252.399 268.107 252.547 267.623C252.696 267.139 252.992 266.713 253.395 266.406L265.301 257.342Z" fill="#FFD200"/>
<path d="M293.386 173.27H244.757V191.54H293.386V173.27Z" fill="#FFD200"/>
<path d="M218.672 151.275H107.407V268.995H218.672V151.275Z" fill="#C9C9C9"/>
<path opacity="0.08" d="M194.636 68.5526L204.969 75.4242L210.044 71.283L196.595 65.0306L194.474 59.5191C193.983 56.7743 194.136 53.953 194.921 51.2773C194.921 51.2773 190.546 53.5002 192.068 59.6714C192.715 62.6884 193.573 65.6562 194.636 68.5526Z" fill="black"/>
<path opacity="0.08" d="M216.134 77.089C216.134 77.089 231.308 76.8048 243.742 92.4053C256.176 108.006 267.716 116.897 262.52 126.154C257.323 135.411 233.836 141.663 233.836 141.663C233.836 141.663 265.96 143.348 271.157 129.93C271.157 129.93 275.603 121.434 266.712 105.651C266.712 105.651 253.517 81.6971 229.451 74.2368C229.451 74.2368 221.514 71.0396 216.134 77.089Z" fill="black"/>
<path d="M311.443 79.656C326.253 79.656 338.259 67.65 338.259 52.8397C338.259 38.0295 326.253 26.0234 311.443 26.0234C296.632 26.0234 284.626 38.0295 284.626 52.8397C284.626 67.65 296.632 79.656 311.443 79.656Z" fill="#E6E6E6"/>
<path d="M311.443 70.8758C321.404 70.8758 329.479 62.8006 329.479 52.8393C329.479 42.878 321.404 34.8027 311.443 34.8027C301.481 34.8027 293.406 42.878 293.406 52.8393C293.406 62.8006 301.481 70.8758 311.443 70.8758Z" fill="#F2F2F2"/>
<path d="M311.443 40.3555V52.84L316.436 57.0624" stroke="#A5A5A5" stroke-width="2.03" stroke-linecap="round" stroke-linejoin="round"/>
<path opacity="0.08" d="M141.593 140.119C141.593 140.119 118.755 197.741 141.593 228.424C164.43 259.108 187.724 269.024 187.724 269.024H107.407V140.119H141.593Z" fill="black"/>
<path d="M150.971 61.4668H120.562V79.2801H150.971V61.4668Z" fill="#E6E6E6"/>
<path d="M133.412 79.2812L135.837 86.4979L138.091 79.2812H133.412Z" fill="#E6E6E6"/>
<path d="M129.037 71.7283C130.175 71.7283 131.097 70.8058 131.097 69.6679C131.097 68.5299 130.175 67.6074 129.037 67.6074C127.899 67.6074 126.977 68.5299 126.977 69.6679C126.977 70.8058 127.899 71.7283 129.037 71.7283Z" fill="#C9C9C9"/>
<path d="M135.756 71.7283C136.894 71.7283 137.817 70.8058 137.817 69.6679C137.817 68.5299 136.894 67.6074 135.756 67.6074C134.618 67.6074 133.696 68.5299 133.696 69.6679C133.696 70.8058 134.618 71.7283 135.756 71.7283Z" fill="#C9C9C9"/>
<path d="M142.496 71.7283C143.634 71.7283 144.556 70.8058 144.556 69.6679C144.556 68.5299 143.634 67.6074 142.496 67.6074C141.358 67.6074 140.435 68.5299 140.435 69.6679C140.435 70.8058 141.358 71.7283 142.496 71.7283Z" fill="#C9C9C9"/>
</svg>
