<svg width="406" height="306" viewBox="0 0 406 306" fill="none" xmlns="http://www.w3.org/2000/svg">
<path opacity="0.3" d="M302.977 67.4958C338.736 79.7468 372.799 113.323 373.835 156.694C374.85 199.903 363.025 244.228 297.872 261.351C236.678 277.428 91.35 283.254 52.6683 229.358C16.1588 178.547 27.7501 96.0579 91.5733 69.6781C136.304 51.1848 233.135 43.5824 302.977 67.4958Z" fill="#E6E6E6"/>
<path d="M170.52 163.455C170.52 163.455 205.284 162.856 268.417 97.8145L267.889 249.963C267.889 249.963 214.662 205.78 173.25 215.189C173.25 215.189 154.808 189.54 170.52 163.455Z" fill="#E6E6E6"/>
<path d="M325.123 173.697C326.345 129.687 308.043 93.4741 284.245 92.8135C260.447 92.1529 240.164 127.295 238.942 171.305C237.721 215.315 256.023 251.528 279.821 252.188C303.619 252.849 323.902 217.707 325.123 173.697Z" fill="#999999"/>
<path d="M136.67 213.667C136.67 213.667 131.717 228.111 146.16 232.424C160.603 236.738 172.885 276.597 172.885 276.597L192.586 267.828C192.586 267.828 166.683 221.452 177.3 213.535L136.67 213.667Z" fill="#999999"/>
<path d="M136.67 213.667C136.67 213.667 131.402 229.318 146.18 232.424C160.096 235.358 171.728 273.572 172.905 276.597L192.606 267.828C192.606 267.828 166.704 221.452 177.321 213.535L136.67 213.667Z" fill="#999999"/>
<path d="M241.814 206.897L281.642 199.011L282.901 153.701L240.778 150.971C240.778 150.971 234.221 175.229 241.814 206.897Z" fill="#9ED6BE"/>
<path d="M241.814 206.897L281.642 199.011L282.901 153.701L240.778 150.971C240.778 150.971 234.221 175.229 241.814 206.897Z" fill="#C9C9C9"/>
<path d="M294.518 176.703C294.865 164.191 289.664 153.895 282.9 153.707C276.137 153.519 270.372 163.511 270.025 176.023C269.678 188.536 274.879 198.832 281.642 199.02C288.406 199.207 294.17 189.216 294.518 176.703Z" fill="#E6E6E6"/>
<path d="M174.702 162.977C174.702 162.977 116.674 169.067 111.924 180.506C107.174 191.945 113.65 220.091 127.697 221.512C141.745 222.933 172.357 213.899 172.357 213.899C172.357 213.899 161.527 184.464 174.702 162.977Z" fill="#C9C9C9"/>
<path d="M171.007 213.555L176.803 232.079L185.989 228.353C187.077 227.913 187.967 227.091 188.493 226.04C189.018 224.99 189.142 223.784 188.841 222.649L186.638 214.357C186.638 214.357 177.625 211.667 171.007 213.555Z" fill="#C9C9C9"/>
<path d="M182.7 145.153C182.7 145.153 195.895 136.668 201.549 145.356C207.202 154.045 192.353 156.836 192.353 156.836L182.7 145.153Z" fill="#24285B"/>
<path d="M195.337 80.7227L220.712 115.497C221.091 116.067 221.595 116.545 222.184 116.894C222.774 117.243 223.435 117.455 224.117 117.514C224.8 117.572 225.487 117.476 226.128 117.232C226.768 116.988 227.346 116.603 227.817 116.106L244.828 98.0995L250.411 103.743C250.411 103.743 232.8 134.01 222.366 134.02C211.932 134.03 192.637 113.802 192.637 113.802L195.337 80.7227Z" fill="#9ED6BE"/>
<path opacity="0.46" d="M195.337 80.7227L220.712 115.497C221.091 116.067 221.595 116.545 222.184 116.894C222.774 117.243 223.435 117.455 224.117 117.514C224.8 117.572 225.487 117.476 226.128 117.232C226.768 116.988 227.346 116.603 227.817 116.106L244.828 98.0995L250.411 103.743C250.411 103.743 232.8 134.01 222.366 134.02C211.932 134.03 192.637 113.802 192.637 113.802L195.337 80.7227Z" fill="white"/>
<path d="M189.531 49.4492L182.223 68.0339L192.312 77.2501L193.845 56.4832L189.531 49.4492Z" fill="#F4A28C"/>
<path opacity="0.31" d="M193.743 59.7424C192.472 59.1139 191.413 58.1257 190.698 56.9004C190.698 56.9004 190.059 60.5036 193.205 64.8884L193.743 59.7424Z" fill="#CE8172"/>
<path d="M198.554 49.7849C198.554 49.7849 198.554 55.8749 197.245 59.8232C197.116 60.2054 196.912 60.5581 196.646 60.8609C196.38 61.1637 196.056 61.4106 195.693 61.5872C195.33 61.7637 194.936 61.8665 194.534 61.8896C194.131 61.9126 193.728 61.8554 193.347 61.7213C192.094 61.369 190.968 60.6626 190.106 59.6869C189.244 58.7111 188.681 57.5074 188.486 56.22L187.095 50.7694C186.932 49.6486 187.12 48.5048 187.635 47.4958C188.149 46.4867 188.964 45.6623 189.967 45.1362C193.591 42.9539 198.717 46.07 198.554 49.7849Z" fill="#F4A28C"/>
<path d="M198.382 53.6211L199.884 56.0977C199.96 56.2401 200.002 56.3987 200.005 56.5603C200.007 56.7219 199.971 56.8818 199.9 57.0268C199.829 57.1717 199.723 57.2975 199.594 57.3937C199.464 57.4898 199.313 57.5536 199.153 57.5796L196.798 57.8232L198.382 53.6211Z" fill="#F4A28C"/>
<path d="M186.08 57.0008L185.572 48.7286C185.572 48.7286 181.188 47.0538 183.136 44.3539C185.085 41.654 186.516 43.9987 187.257 40.6086C187.998 37.2185 190.891 37.0764 192.474 39.3804C194.058 41.6845 193.672 38.8222 196.189 38.944C198.707 39.0658 199.133 40.2838 198.818 42.1514C198.504 44.019 202.421 42.7401 202.878 45.2674C203.335 47.7948 202.99 50.0988 196.788 49.3274C190.587 48.556 194.048 54.3212 186.08 57.0008Z" fill="#FFD200"/>
<path d="M191.673 54.4647C191.673 54.4647 191.825 52.1201 190.049 52.1607C188.272 52.2013 188.019 55.5812 190.414 56.0887L191.673 54.4647Z" fill="#F4A28C"/>
<path opacity="0.08" d="M197.346 154.238C197.346 154.238 214.683 148.564 216.022 162.063C217.362 175.563 205.609 197.741 205.609 197.741C205.609 197.741 212.5 207.728 200.32 204.917L196.91 200.004L199.376 176.71L196.545 157.749L186.212 146.777L197.346 154.238Z" fill="black"/>
<path d="M183.055 144.88L182.802 145.073L182.72 145.133L182.659 145.184L165.13 143.52L153.184 142.383C153.184 142.383 150.322 116.51 153.823 94.5864C156.097 80.3764 167.323 73.4541 174.966 70.3279C177.309 69.3503 179.739 68.5926 182.223 68.0645L192.312 77.2807C224.376 110.725 187.318 141.5 183.055 144.88Z" fill="#9ED6BE"/>
<path d="M153.174 142.354C153.174 142.354 149.114 166.47 163.425 165.008C170.827 164.347 178.275 164.415 185.664 165.211C187.513 165.396 189.233 166.245 190.505 167.599C191.778 168.954 192.517 170.723 192.586 172.58L193.429 194.21L200.381 197.143L205.365 171.2C206.155 167.109 205.551 162.872 203.651 159.165C201.75 155.458 198.662 152.494 194.88 150.748L182.7 145.155L153.174 142.354Z" fill="#24285B"/>
<path opacity="0.08" d="M183.055 144.88L182.802 145.073L182.72 145.133L182.659 145.184L165.13 143.52C165.13 143.52 170.804 133.745 175.991 123.037C179.777 115.211 176.823 85.6747 174.976 70.3279C177.32 69.3503 179.749 68.5926 182.233 68.0645L192.322 77.2807C224.376 110.725 187.318 141.5 183.055 144.88Z" fill="black"/>
<path d="M174.286 92.2418C186.78 94.0688 193.571 78.1231 183.877 70.0539C181.014 67.6416 177.722 65.7892 174.174 64.5932C160.806 60.2287 107.042 33.8691 107.042 33.8691L102.698 42.1211C102.698 42.1211 140.994 74.733 162.238 87.6134C165.903 89.9486 170 91.5226 174.286 92.2418Z" fill="#9ED6BE"/>
<path opacity="0.46" d="M174.286 92.2418C186.78 94.0688 193.571 78.1231 183.877 70.0539C181.014 67.6416 177.722 65.7892 174.174 64.5932C160.806 60.2287 107.042 33.8691 107.042 33.8691L102.698 42.1211C102.698 42.1211 140.994 74.733 162.238 87.6134C165.903 89.9486 170 91.5226 174.286 92.2418Z" fill="white"/>
<path d="M106.321 35.2593C106.321 35.2593 101.388 25.8502 97.7952 30.9354C94.2021 36.0205 102.698 42.1004 102.698 42.1004L106.321 35.2593Z" fill="#F4A28C"/>
<path d="M248.675 101.945C248.675 101.945 257.069 96.2716 251.405 91.2778C245.742 86.284 244.859 98.0986 244.859 98.0986L248.675 101.945Z" fill="#F4A28C"/>
<path d="M241.211 94.8932L251.306 95.4258L252.146 79.5124L242.051 78.9798L241.211 94.8932Z" fill="#FFD200"/>
<path d="M198.717 196.442C198.717 196.442 198.991 202.624 202.168 203.547C202.168 203.547 202.401 207.932 197.793 206.734C193.185 205.537 192.525 199.386 192.525 199.386L194.647 194.768L198.717 196.442Z" fill="#9ED6BE"/>
<path d="M279.399 139.165L321.725 100.981L325.358 119.292L359.564 97.3066L311.25 143.357L310.671 124.133L279.399 139.165Z" fill="#9ED6BE"/>
<path d="M279.399 212.448L315.888 245.364L319.014 229.571L348.51 248.531L306.855 208.824L306.357 225.399L279.399 212.448Z" fill="#9ED6BE"/>
<path d="M113.051 107.406H105.469C106.829 92.4453 113.771 87.9082 114.857 87.2891C110.896 89.3718 107.389 92.2237 104.543 95.678C101.697 99.1323 99.5688 103.12 98.2824 107.406H74.6938C68.645 107.406 62.844 109.809 58.5668 114.086C54.2897 118.364 51.8868 124.165 51.8868 130.213C51.8868 136.262 54.2897 142.063 58.5668 146.34C62.844 150.618 68.645 153.02 74.6938 153.02H113.051C119.099 153.02 124.901 150.618 129.178 146.34C133.455 142.063 135.858 136.262 135.858 130.213C135.858 124.165 133.455 118.364 129.178 114.086C124.901 109.809 119.099 107.406 113.051 107.406Z" fill="#E6E6E6"/>
<path d="M114.857 87.2882L115 87.207L114.857 87.2882Z" fill="#E6E6E6"/>
<path opacity="0.08" d="M102.383 126.468C102.37 127.219 102.264 127.965 102.068 128.691C101.778 129.7 101.272 130.635 100.586 131.431C99.9574 132.154 99.2791 132.832 98.5565 133.461C97.2573 134.618 95.9175 135.745 94.6284 136.912C94.0397 137.44 93.451 137.927 92.8826 138.526C92.8826 138.526 92.8116 138.526 92.7608 138.526C91.3804 137.206 89.9391 135.948 88.4978 134.71C87.6046 133.928 86.7013 133.157 85.8588 132.314C85.1877 131.671 84.6102 130.936 84.1435 130.132C83.7272 129.372 83.4521 128.544 83.3315 127.686C83.2438 127.057 83.2064 126.422 83.2198 125.788C83.2421 124.702 83.6284 123.656 84.3169 122.817C85.0053 121.977 85.9559 121.393 87.0159 121.159C87.8514 120.977 88.7193 121.009 89.5391 121.252C90.3589 121.495 91.104 121.942 91.7052 122.55C92.0999 122.924 92.4414 123.351 92.7202 123.819V123.9C92.8974 123.601 93.1013 123.319 93.3292 123.057C94.0251 122.188 94.9767 121.56 96.0494 121.261C96.7019 121.074 97.386 121.024 98.0587 121.114C98.7314 121.205 99.3781 121.433 99.9579 121.786C100.538 122.139 101.038 122.608 101.428 123.164C101.817 123.72 102.087 124.351 102.221 125.016C102.333 125.492 102.387 125.979 102.383 126.468Z" fill="black"/>
</svg>
