<svg width="406" height="306" viewBox="0 0 406 306" fill="none" xmlns="http://www.w3.org/2000/svg">
<path d="M195.54 155.831C195.54 155.831 180.538 151.223 177.452 161.119C174.367 171.016 189.409 169.686 189.409 169.686L195.54 155.831Z" fill="#24285B"/>
<path d="M163.699 97.8457L150.859 137.563C150.65 138.214 150.296 138.809 149.824 139.304C149.352 139.799 148.774 140.18 148.134 140.42C147.493 140.661 146.807 140.753 146.126 140.69C145.445 140.628 144.787 140.412 144.201 140.06L122.957 127.321L119.1 134.254C119.1 134.254 144.231 158.614 154.29 155.833C164.349 153.052 177.452 128.346 177.452 128.346L163.699 97.8457Z" fill="#9ED6BE"/>
<path opacity="0.08" d="M163.699 97.8457L150.859 137.563C150.65 138.214 150.296 138.809 149.824 139.304C149.352 139.799 148.774 140.18 148.134 140.42C147.493 140.661 146.807 140.753 146.126 140.69C145.445 140.628 144.787 140.412 144.201 140.06L122.957 127.321L119.1 134.254C119.1 134.254 144.231 158.614 154.29 155.833C164.349 153.052 177.452 128.346 177.452 128.346L163.699 97.8457Z" fill="black"/>
<path d="M163.08 65.5371L175.148 81.4625L167.911 93.0639L160.837 73.4744L163.08 65.5371Z" fill="#F4A28C"/>
<path opacity="0.31" d="M161.811 76.59C162.859 75.6378 163.603 74.399 163.953 73.0273C163.953 73.0273 165.536 76.3261 163.699 81.4011L161.811 76.59Z" fill="#CE8172"/>
<path d="M154.493 68.2876C154.493 68.2876 156.097 74.1746 158.452 77.6053C158.679 77.9392 158.971 78.2245 159.31 78.4445C159.649 78.6644 160.029 78.8147 160.427 78.8865C160.824 78.9583 161.232 78.9502 161.627 78.8627C162.021 78.7752 162.395 78.61 162.725 78.3767C163.838 77.7029 164.732 76.7214 165.299 75.5507C165.866 74.38 166.083 73.0702 165.922 71.7792L165.79 66.1561C165.643 65.0325 165.151 63.9821 164.382 63.1496C163.613 62.3171 162.605 61.7433 161.497 61.5074C157.426 60.3706 153.326 64.7554 154.493 68.2876Z" fill="#F4A28C"/>
<path d="M155.691 71.9414L154.909 74.7327C154.874 74.8905 154.878 75.0545 154.919 75.2109C154.96 75.3673 155.038 75.5116 155.146 75.6317C155.254 75.7519 155.39 75.8444 155.541 75.9017C155.692 75.9589 155.855 75.9792 156.016 75.9608L158.35 75.565L155.691 71.9414Z" fill="#F4A28C"/>
<path d="M168.49 71.872L166.744 63.752C166.744 63.752 170.51 60.9607 167.911 58.8901C165.313 56.8195 164.562 59.4484 162.928 56.3932C161.294 53.3381 158.472 53.9775 157.569 56.6165C156.665 59.2555 156.269 56.4135 153.884 57.2052C151.499 57.9969 151.408 59.2352 152.209 61.0013C153.011 62.7674 148.901 62.5441 149.164 65.0613C149.428 67.5785 150.362 69.7506 156.056 67.2943C161.75 64.838 160.055 71.4457 168.49 71.872Z" fill="#FFD200"/>
<path d="M162.4 70.9481C162.4 70.9481 161.629 68.7253 163.354 68.2888C165.08 67.8524 166.196 71.0395 164.065 72.1661L162.4 70.9481Z" fill="#F4A28C"/>
<path d="M229.705 217.188L239.154 224.719C249.203 232.707 261.965 236.471 274.74 235.214L285.367 234.199C285.746 234.167 286.108 234.03 286.412 233.802C286.716 233.574 286.951 233.265 287.088 232.911C287.226 232.557 287.261 232.171 287.19 231.798C287.119 231.424 286.945 231.078 286.687 230.799L269.432 211.758L229.705 217.188Z" fill="#A8A8A8"/>
<path d="M229.705 164.316L239.154 156.785C249.196 148.781 261.961 145.006 274.74 146.259L285.367 147.274C285.746 147.307 286.108 147.444 286.412 147.672C286.716 147.9 286.951 148.208 287.088 148.563C287.226 148.917 287.261 149.303 287.19 149.676C287.119 150.05 286.945 150.396 286.687 150.675L269.432 169.716L229.705 164.316Z" fill="#A8A8A8"/>
<path d="M89.0663 190.727C89.0663 190.727 133.655 246.38 269.401 211.758V169.687C133.655 135.085 89.0663 190.727 89.0663 190.727Z" fill="#E6E6E6"/>
<path opacity="0.08" d="M178.752 158.512C178.752 158.512 165.638 167.759 167.993 181.126C170.347 194.494 187.653 212.662 187.653 212.662C187.653 212.662 183.715 224.142 194.677 218.143L196.656 212.49L187.998 190.728L185.593 171.697L192.576 158.35L178.752 158.512Z" fill="black"/>
<path d="M167.911 93.1151L175.148 81.5035C175.148 81.5035 200.351 79.1994 209.658 99.3776C218.966 119.556 223.188 145.225 223.188 145.225L195.55 155.883C195.55 155.883 144.78 136.374 167.911 93.1151Z" fill="#9ED6BE"/>
<path d="M223.178 145.174C223.178 145.174 233.582 167.311 219.423 169.747C212.133 171.116 204.994 173.193 198.108 175.949C196.38 176.629 194.956 177.911 194.098 179.557C193.24 181.204 193.006 183.105 193.439 184.911L198.514 205.972L192.617 210.672L180.67 187.032C178.808 183.303 178.252 179.057 179.089 174.973C179.926 170.89 182.109 167.206 185.288 164.51L195.499 155.831L223.178 145.174Z" fill="#24285B"/>
<path opacity="0.08" d="M186.993 111.385C186.993 111.385 183.542 126.772 191.419 135.684C199.295 144.596 206.644 151.498 206.644 151.498L195.479 155.801C195.479 155.801 181.787 150.168 173.565 141.226C165.344 132.284 178.792 108.705 186.993 111.385Z" fill="black"/>
<path d="M189.876 96.6573C189.176 84.051 172.195 80.5594 166.227 91.6838C164.426 94.9568 163.265 98.5427 162.806 102.25C161.192 116.226 146.069 174.163 146.069 174.163L155.021 176.781C155.021 176.781 179.351 132.761 187.775 109.355C189.315 105.305 190.03 100.988 189.876 96.6573Z" fill="#9ED6BE"/>
<path opacity="0.19" d="M158.563 180.404H137.127C135.299 180.404 133.818 181.886 133.818 183.713C133.818 185.541 135.299 187.022 137.127 187.022H158.563C160.391 187.022 161.872 185.541 161.872 183.713C161.872 181.886 160.391 180.404 158.563 180.404Z" fill="#878787"/>
<path opacity="0.36" d="M189.876 96.6573C189.176 84.051 172.195 80.5594 166.227 91.6838C164.426 94.9568 163.265 98.5427 162.806 102.25C161.192 116.226 146.069 174.163 146.069 174.163L155.021 176.781C155.021 176.781 179.351 132.761 187.775 109.355C189.315 105.305 190.03 100.988 189.876 96.6573Z" fill="white"/>
<path d="M147.54 174.609C147.54 174.609 139.299 181.319 145.003 183.836C150.707 186.353 155.021 176.802 155.021 176.802L147.54 174.609Z" fill="#F4A28C"/>
<path d="M275.278 169.688H269.401V211.749H275.278V169.688Z" fill="#A8A8A8"/>
<path d="M275.278 175.889C275.278 175.889 326.718 174.935 339.802 187.054C352.885 199.173 275.278 203.416 275.278 203.416V175.889Z" fill="#FFD200"/>
<path opacity="0.33" d="M275.278 183.714C275.278 183.714 314.863 182.384 317.127 187.023C319.39 191.661 275.278 196.391 275.278 196.391V183.714Z" fill="white"/>
<path d="M120.328 132.05C120.328 132.05 110.706 128.863 114.817 122.519C118.928 116.175 122.937 127.32 122.937 127.32L120.328 132.05Z" fill="#F4A28C"/>
<path d="M120.483 108.128L110.906 111.367L116.013 126.462L125.589 123.223L120.483 108.128Z" fill="#FFD200"/>
<path d="M193.936 209.546C193.936 209.546 195.337 215.575 192.525 217.29C192.525 217.29 193.479 221.573 197.6 219.168C201.721 216.762 200.645 210.672 200.645 210.672L197.387 206.795L193.936 209.546Z" fill="#9ED6BE"/>
<path d="M125.292 168.307V213.139C125.292 213.139 102.962 207.049 89.0663 190.728C89.0663 190.728 100.972 176.224 125.292 168.307Z" fill="#A8A8A8"/>
</svg>
