<svg width="406" height="306" viewBox="0 0 406 306" fill="none" xmlns="http://www.w3.org/2000/svg">
<path opacity="0.45" d="M206.603 273.591C295.33 273.591 367.257 266.32 367.257 257.351C367.257 248.382 295.33 241.111 206.603 241.111C117.876 241.111 45.949 248.382 45.949 257.351C45.949 266.32 117.876 273.591 206.603 273.591Z" fill="#E6E6E6"/>
<path d="M113.497 104.676C112.8 102.399 112.76 99.9702 113.381 97.6706C114.002 95.3709 115.26 93.2933 117.009 91.6765C118.758 90.0596 120.928 88.9693 123.27 88.5308C125.611 88.0923 128.029 88.3234 130.245 89.1975C138.02 92.2425 146.718 98.4645 153.894 110.868C159.487 120.531 163.506 126.935 166.379 131.168C167.096 132.229 168.053 133.105 169.173 133.725C170.294 134.346 171.545 134.692 172.824 134.737C174.104 134.781 175.376 134.523 176.537 133.982C177.697 133.441 178.714 132.633 179.503 131.625L203.325 101.175L212.226 107.731C212.226 107.731 192.129 157.659 169.525 155.639C150.037 153.924 124.074 138.79 113.497 104.676Z" fill="#9ED6BE"/>
<path opacity="0.64" d="M113.497 104.676C112.8 102.399 112.76 99.9702 113.381 97.6706C114.002 95.3709 115.26 93.2933 117.009 91.6765C118.758 90.0596 120.928 88.9693 123.27 88.5308C125.611 88.0923 128.029 88.3234 130.245 89.1975C138.02 92.2425 146.718 98.4645 153.894 110.868C159.487 120.531 163.506 126.935 166.379 131.168C167.096 132.229 168.053 133.105 169.173 133.725C170.294 134.346 171.545 134.692 172.824 134.737C174.104 134.781 175.376 134.523 176.537 133.982C177.697 133.441 178.714 132.633 179.503 131.625L203.325 101.175L212.226 107.731C212.226 107.731 192.129 157.659 169.525 155.639C150.037 153.924 124.074 138.79 113.497 104.676Z" fill="white"/>
<path d="M127.971 248.877C127.971 248.877 129.301 252.561 132.63 252.846C135.959 253.13 136.832 256.378 133.838 257.23C130.844 258.083 123.12 254.185 123.12 254.185L123.333 249.384L127.971 248.877Z" fill="#9ED6BE"/>
<path d="M86.1226 248.877C86.1226 248.877 84.8031 252.561 81.4739 252.846C78.1447 253.13 77.2718 256.378 80.2661 257.23C83.2603 258.083 90.9845 254.185 90.9845 254.185L90.7612 249.425L86.1226 248.877Z" fill="#9ED6BE"/>
<path d="M105.824 70.6734C107.216 73.3911 108.24 76.2822 108.869 79.2705C108.971 79.9869 108.788 80.7148 108.359 81.2976C107.93 81.8804 107.289 82.2714 106.575 82.3865C105.426 82.6185 104.234 82.514 103.143 82.0855C102.052 81.657 101.108 80.9227 100.424 79.9708L97.0746 76.1544C96.4846 75.3223 96.1677 74.3274 96.1677 73.3074C96.1677 72.2873 96.4846 71.2924 97.0746 70.4603C99.0437 67.2224 104.433 67.6284 105.824 70.6734Z" fill="#F4A28C"/>
<path d="M98.7087 74.7441L97.917 92.7198L107.854 92.4457L104.443 79.474L98.7087 74.7441Z" fill="#F4A28C"/>
<path d="M107.255 73.8301L109.468 75.2105C109.594 75.2889 109.698 75.398 109.77 75.5277C109.841 75.6573 109.879 75.8031 109.879 75.9514C109.879 76.0997 109.841 76.2456 109.77 76.3752C109.698 76.5048 109.594 76.614 109.468 76.6924L107.702 77.8901L107.255 73.8301Z" fill="#F4A28C"/>
<path opacity="0.31" d="M105.245 82.4479C103.986 82.2863 102.8 81.7608 101.835 80.9355C101.835 80.9355 102.353 84.1835 106.311 87.0255L105.245 82.4479Z" fill="#CE8172"/>
<path d="M121.546 87.462C105.223 87.7468 89.1091 91.1902 74.095 97.6019C71.7913 98.5731 69.7115 100.007 67.9843 101.814C66.257 103.622 64.9191 105.764 64.0532 108.11C63.1874 110.455 62.8122 112.953 62.9507 115.449C63.0892 117.945 63.7385 120.387 64.8585 122.622L90.67 174.092L138.537 171.271C138.537 171.271 147.246 142.343 145.49 109.619C145.144 103.545 142.456 97.841 137.99 93.7083C133.524 89.5757 127.63 87.3366 121.546 87.462Z" fill="#9ED6BE"/>
<path d="M98.3332 81.3111L101.764 79.4638L102.109 77.647C102.583 76.9307 102.836 76.0905 102.836 75.2313C102.836 74.3721 102.583 73.5319 102.109 72.8156C102.109 72.8156 108.686 69.6183 107.184 66.8677C105.682 64.117 100.789 60.4529 96.019 63.9343C91.2485 67.4158 88.9343 73.7697 98.3332 81.3111Z" fill="#24285B"/>
<path d="M102.211 77.2511C102.211 77.2511 101.368 75.3125 99.9674 76.0636C98.5667 76.8147 99.7644 79.6262 101.865 79.1086L102.211 77.2511Z" fill="#F4A28C"/>
<path d="M94.9534 90.7705C100.804 89.1076 106.831 88.1468 112.909 87.9082C112.909 87.9082 121.282 121.332 114.685 148.26C114.695 148.26 105.306 114.339 94.9534 90.7705Z" fill="white"/>
<path opacity="0.09" d="M76.2365 106.311C76.2365 106.311 92.7201 107.681 90.6191 118.968C88.518 130.254 95.6941 161.476 100.536 164.074L116.197 172.549L90.6901 174.052L82.3062 157.345L66.4316 125.859L76.2365 106.311Z" fill="black"/>
<path d="M94.9534 90.7697C94.9534 90.7697 94.6286 86.7097 97.5112 86.5778C99.0892 86.4682 100.675 86.6051 102.211 86.9838C102.211 86.9838 110.645 80.3761 112.909 87.9074C112.909 87.9074 100.84 89.2472 94.9534 90.7697Z" fill="#9ED6BE"/>
<path opacity="0.77" d="M94.9534 90.7697C94.9534 90.7697 94.6286 86.7097 97.5112 86.5778C99.0892 86.4682 100.675 86.6051 102.211 86.9838C102.211 86.9838 110.645 80.3761 112.909 87.9074C112.909 87.9074 100.84 89.2472 94.9534 90.7697Z" fill="white"/>
<path d="M100.84 89.5115C100.84 89.5115 99.8861 86.3346 101.855 85.9387C103.824 85.5429 105.672 84.2538 106.098 88.324C106.524 92.3941 102.515 92.8204 100.84 89.5115Z" fill="#24285B"/>
<path d="M102.17 91.0851C102.17 91.0851 108.504 113.496 108.564 127.909L114.654 148.209C116.411 140.97 117.26 133.541 117.182 126.092C117.182 126.092 110.645 96.6067 106.017 89.7148L102.17 91.0851Z" fill="#24285B"/>
<path d="M203.325 101.195L204.969 98.2617L213.201 104.128L211.191 106.991L203.325 101.195Z" fill="white"/>
<path d="M206.157 99.2852C206.157 99.2852 208.948 88.5871 211.983 87.4402C215.018 86.2932 212.47 92.911 212.47 92.911C212.47 92.911 221.331 97.8338 212.47 103.782L206.157 99.2852Z" fill="#F4A28C"/>
<path d="M83.3416 250.034L90.6902 174.091L138.537 171.27L130.417 250.044H121.201C121.201 250.044 123.505 200.085 116.217 188.646V188.596C115.82 188.002 115.276 187.521 114.638 187.199C114 186.876 113.29 186.723 112.576 186.755C111.863 186.787 111.169 187.002 110.562 187.379C109.955 187.757 109.456 188.284 109.112 188.91C99.1045 207.566 93.0856 250.044 93.0856 250.044L83.3416 250.034Z" fill="#24285B"/>
<path d="M68.2284 101.601C68.2284 101.601 27.2325 138.872 31.9726 149.844C36.7126 160.816 79.6776 179.787 79.6776 179.787L84.7526 173.412C84.7526 173.412 61.1843 151.082 61.032 148.261C60.8798 145.439 69.9336 141.836 77.7897 131.909C85.6458 121.982 92.4666 98.4343 68.2284 101.601Z" fill="#9ED6BE"/>
<path opacity="0.64" d="M68.2284 101.601C68.2284 101.601 27.2325 138.872 31.9726 149.844C36.7126 160.816 79.6776 179.787 79.6776 179.787L84.7526 173.412C84.7526 173.412 61.1843 151.082 61.032 148.261C60.8798 145.439 69.9336 141.836 77.7897 131.909C85.6458 121.982 92.4666 98.4343 68.2284 101.601Z" fill="white"/>
<path d="M84.7422 173.412C84.7422 173.412 90.1725 177.229 90.5074 178.944C90.8424 180.659 90.0608 187.399 88.4774 187.957C86.894 188.515 82.6919 187.176 83.5851 186.282L85.0264 184.841C85.0264 184.841 80.0935 182.395 79.6672 179.766L84.7422 173.412Z" fill="#F4A28C"/>
<path d="M244.503 90.3448C244.503 90.3448 234.171 89.8272 231.522 96.6987C228.872 103.57 232.618 136.568 228.954 138.71C225.29 140.851 199.874 129.828 199.874 129.828C198.283 128.507 196.546 127.373 194.697 126.448C192.87 125.748 194.474 127.89 194.545 128.549C194.545 128.549 187.44 125.048 187.247 128.945C187.054 132.843 224.67 152.94 235.571 149.905C246.473 146.87 244.443 91.644 244.443 91.644" fill="#F4A28C"/>
<path d="M271.015 190.535L279.348 251.699L275.166 251.516L255.465 189.875L271.015 190.535Z" fill="#F4A28C"/>
<path d="M251.304 190.028L241.032 250.055L236.83 249.872L237.043 189.084L251.304 190.028Z" fill="#F4A28C"/>
<path d="M279.348 251.698C279.348 251.698 281.551 254.743 284.525 254.743C287.499 254.743 287.763 258.945 282.992 258.306C281.51 258.115 280.047 257.799 278.618 257.362C277.288 257.003 275.887 257.003 274.558 257.362C274.3 257.411 274.033 257.381 273.793 257.274C273.554 257.166 273.353 256.988 273.218 256.763C271.929 255.108 275.42 251.576 275.42 251.576L279.348 251.698Z" fill="#9ED6BE"/>
<path d="M237.134 249.881C237.134 249.881 234.678 252.733 231.714 252.459C228.751 252.185 228.131 256.377 232.932 256.143C234.428 256.08 235.915 255.89 237.378 255.575C238.735 255.316 240.137 255.425 241.438 255.89C241.692 255.96 241.961 255.951 242.21 255.864C242.458 255.777 242.674 255.616 242.829 255.402C244.26 253.87 241.083 250.053 241.083 250.053L237.134 249.881Z" fill="#9ED6BE"/>
<path d="M266.935 141.794L280.13 207.738L228.233 208.875L235.927 141.469L266.935 141.794Z" fill="#24285B"/>
<path d="M244.392 69.0695C244.392 69.0695 243.488 75.3016 244.3 79.524C244.379 79.9334 244.538 80.3232 244.769 80.6707C244.999 81.0183 245.296 81.3167 245.642 81.5489C245.989 81.7811 246.378 81.9423 246.787 82.0233C247.196 82.1043 247.617 82.1035 248.025 82.0209C249.351 81.8365 250.596 81.2743 251.612 80.4013C252.627 79.5284 253.369 78.3817 253.75 77.0981L255.953 71.7085C256.279 70.5848 256.249 69.3872 255.865 68.2815C255.482 67.1759 254.764 66.2169 253.811 65.5373C250.441 62.7765 244.757 65.2429 244.392 69.0695Z" fill="#F4A28C"/>
<path d="M255.465 70.1758L255.496 90.8107L247.833 90.2728L249.923 76.0222L255.465 70.1758Z" fill="#F4A28C"/>
<path d="M244.026 73.0176L242.128 75.3419C242.023 75.4742 241.953 75.6306 241.923 75.7969C241.894 75.9633 241.906 76.1344 241.96 76.2947C242.013 76.455 242.106 76.5994 242.229 76.7148C242.353 76.8303 242.503 76.9131 242.666 76.9558L245.052 77.5546L244.026 73.0176Z" fill="#F4A28C"/>
<path d="M242.199 69.1815C247 70.5663 251.254 73.4027 254.379 77.3015L255.333 78.4992C255.333 78.4992 261.251 70.7852 259.393 65.9538C257.536 61.1224 245.244 55.9764 242.199 69.1815Z" fill="#24285B"/>
<path d="M259.891 65.0095C262.111 65.0095 263.91 63.21 263.91 60.9901C263.91 58.7702 262.111 56.9707 259.891 56.9707C257.671 56.9707 255.871 58.7702 255.871 60.9901C255.871 63.21 257.671 65.0095 259.891 65.0095Z" fill="#24285B"/>
<path d="M250.766 74.8454C250.766 74.8454 250.949 72.4297 252.796 72.7241C254.643 73.0184 254.359 76.51 251.872 76.6927L250.766 74.8454Z" fill="#F4A28C"/>
<path d="M244.686 85.8984L258.967 86.5074L258.825 90.9531C258.825 90.9531 282.84 91.5317 280.485 107.051C278.13 122.57 266.945 141.835 266.945 141.835L239.104 141.642C233.967 133.218 230.015 124.126 227.36 114.623C223.422 99.8648 244.554 90.3441 244.554 90.3441L244.686 85.8984Z" fill="#9ED6BE"/>
<path opacity="0.09" d="M271.817 100.646C271.817 100.646 261.545 103.306 263.504 117.333C265.463 131.36 263.23 136.07 247.264 136.983L249.751 142.058L266.945 141.835C266.945 141.835 271.289 134.111 272.375 131.249C273.461 128.386 271.817 100.646 271.817 100.646Z" fill="black"/>
<path d="M248.477 114.182L222.512 115.416L224.176 150.435L250.141 149.201L248.477 114.182Z" fill="#FFD200"/>
<path d="M253.141 145.641C253.141 145.641 250.888 140.16 245.671 140.708C240.454 141.257 243.712 151.011 250.624 151.549C257.536 152.087 271.939 169.524 281.165 161.262C290.392 153 291.001 107.833 279.47 100.108C267.94 92.3843 267.493 115.983 271.939 129.868C276.385 143.753 279.561 160.481 253.141 145.641Z" fill="#F4A28C"/>
<path d="M290.29 148.707C290.29 148.707 290.239 149.245 290.107 150.189C289.356 155.832 285.956 175.747 275.278 177.969C262.824 180.558 249.457 174.752 249.457 174.752L246.838 180.73C246.838 180.73 267.31 201.548 282.434 195.072C297.557 188.597 303.485 171.27 303.485 171.27L290.29 148.707Z" fill="#9ED6BE"/>
<path opacity="0.46" d="M290.29 148.707C290.29 148.707 290.239 149.245 290.107 150.189C289.356 155.832 285.956 175.747 275.278 177.969C262.824 180.558 249.457 174.752 249.457 174.752L246.838 180.73C246.838 180.73 267.31 201.548 282.434 195.072C297.557 188.597 303.485 171.27 303.485 171.27L290.29 148.707Z" fill="white"/>
<path d="M308.286 108.067C307.004 110.47 306.048 113.033 305.444 115.689C305.341 116.331 305.497 116.987 305.878 117.514C306.258 118.041 306.832 118.396 307.474 118.501C308.49 118.725 309.55 118.653 310.527 118.293C311.504 117.934 312.357 117.301 312.985 116.471L316.03 113.111C316.567 112.377 316.862 111.494 316.875 110.585C316.887 109.676 316.617 108.785 316.101 108.036C314.376 105.083 309.575 105.367 308.286 108.067Z" fill="#F4A28C"/>
<path d="M313.797 113.699L317.644 129.279L308.905 130.782L309.595 119.14L313.797 113.699Z" fill="#F4A28C"/>
<path d="M306.967 110.867L304.937 112.055C304.826 112.127 304.734 112.225 304.671 112.341C304.608 112.457 304.575 112.587 304.575 112.72C304.575 112.852 304.608 112.982 304.671 113.098C304.734 113.214 304.826 113.313 304.937 113.384L306.52 114.399L306.967 110.867Z" fill="#F4A28C"/>
<path opacity="0.31" d="M309.575 118.49C309.575 118.49 312.782 117.8 313.848 116.785C313.848 116.785 313.544 124.083 309.26 125.037L309.575 118.49Z" fill="#CE8172"/>
<path d="M312.062 113.476C312.062 113.476 312.833 111.75 314.092 112.461C315.35 113.171 314.224 115.638 312.356 115.11L312.062 113.476Z" fill="#F4A28C"/>
<path d="M318.223 113.162C318 113.162 317.746 113.162 317.512 113.162C316.599 113.223 316.782 114.349 315.706 114.309C315.524 114.278 315.341 114.258 315.158 114.248C314.955 114.271 314.759 114.337 314.584 114.442C314.409 114.548 314.259 114.689 314.143 114.857C313.924 115.189 313.649 115.481 313.331 115.72C313.17 115.811 312.992 115.867 312.809 115.884C312.625 115.902 312.44 115.88 312.265 115.821C312.145 115.786 312.039 115.715 311.96 115.618C311.818 115.395 311.96 115.1 312.072 114.857C312.265 114.474 312.428 114.077 312.559 113.669C312.671 113.314 312.762 112.959 312.854 112.654C312.945 112.35 313.331 111.457 313.158 111.172C312.986 110.888 312.478 110.817 312.245 110.624C312.011 110.431 311.808 110.076 311.433 109.873C310.59 109.406 309.565 109.376 308.702 108.939C308.363 108.79 308.081 108.533 307.9 108.209C307.816 108.047 307.781 107.865 307.801 107.684C307.821 107.503 307.894 107.332 308.012 107.194C308.337 106.869 309.027 106.727 308.915 106.28C308.915 106.097 308.712 105.976 308.56 105.864C308.154 105.582 307.817 105.212 307.574 104.782C307.331 104.351 307.19 103.871 307.159 103.377C307.141 102.882 307.295 102.396 307.595 102.002C307.895 101.608 308.322 101.33 308.804 101.215C309.392 101.114 310.164 101.215 310.438 100.698C310.53 100.409 310.551 100.103 310.499 99.8044C310.49 99.4257 310.595 99.0531 310.799 98.734C311.003 98.4149 311.297 98.1637 311.644 98.0124C311.991 97.8611 312.376 97.8165 312.748 97.8844C313.121 97.9523 313.465 98.1295 313.737 98.3935C313.99 98.6473 314.203 98.9822 314.549 99.0431C314.894 99.104 315.381 98.6574 315.777 98.3834C316.077 98.1911 316.423 98.0814 316.78 98.0654C317.136 98.0494 317.49 98.1275 317.807 98.292C318.441 98.639 318.923 99.2112 319.157 99.8957C319.223 100.164 319.344 100.416 319.512 100.637C319.695 100.802 319.92 100.914 320.162 100.961C321.177 101.215 322.435 100.961 323.207 101.621C323.521 101.901 323.72 102.288 323.765 102.706C323.81 103.124 323.698 103.544 323.45 103.885C323.186 104.209 322.79 104.484 322.78 104.9C322.792 105.132 322.873 105.354 323.014 105.539C323.531 106.371 324.13 107.336 323.785 108.249C323.44 109.163 322.242 109.954 321.562 110.584C320.882 111.213 319.532 110.98 319.045 111.812C318.832 112.187 318.893 112.715 318.578 113.01C318.474 113.088 318.352 113.14 318.223 113.162Z" fill="#24285B"/>
<path d="M315.228 112.227C315.228 112.227 317.857 111.385 318.273 113.425C318.69 115.465 315.807 116.317 314.295 114.805C314.907 114.087 315.239 113.171 315.228 112.227Z" fill="#F4A28C"/>
<path d="M350.997 216.771H294.259V257.321H350.997V216.771Z" fill="#E6E6E6"/>
<path opacity="0.08" d="M309.24 257.321L306.51 221.613L295.132 223.349L291.741 237.041L294.259 257.321H309.24Z" fill="black"/>
<path d="M307.809 252.633C307.809 252.633 306.601 256.013 303.546 256.267C300.491 256.52 299.689 259.515 302.44 260.327C305.19 261.139 312.265 257.576 312.265 257.576L312.062 253.171L307.809 252.633Z" fill="#9ED6BE"/>
<path d="M308.164 130.6L316.893 129.098C316.893 129.098 345.953 129.098 351.038 139.095C356.123 149.093 355.098 186.09 338.249 216.489L303.84 217.504C303.84 217.504 305.748 195.174 299.334 182.994C292.919 170.814 273.035 144.993 308.164 130.6Z" fill="#9ED6BE"/>
<path d="M338.249 216.488L321.42 213.951C318.989 213.583 316.506 213.777 314.161 214.517C311.817 215.257 309.673 216.524 307.893 218.221C306.114 219.918 304.747 222 303.897 224.307C303.046 226.614 302.735 229.085 302.988 231.531L305.19 252.917H313.442L312.732 232.901C312.689 231.781 312.895 230.666 313.336 229.636C313.776 228.605 314.44 227.685 315.279 226.943C316.117 226.2 317.111 225.653 318.187 225.34C319.263 225.028 320.395 224.958 321.501 225.136C328.667 226.283 337.548 225.786 338.249 216.488Z" fill="#24285B"/>
<path d="M290.676 252.633C290.676 252.633 289.458 256.013 286.413 256.267C283.368 256.52 282.556 259.515 285.296 260.327C288.037 261.139 295.131 257.576 295.131 257.576L294.928 253.171L290.676 252.633Z" fill="#9ED6BE"/>
<path opacity="0.08" d="M335.305 142.656C335.305 142.656 325.764 151.02 327.672 160.256C327.987 161.748 328.312 163.555 328.627 165.534C329.868 173.191 329.403 181.028 327.266 188.485C325.129 195.942 321.372 202.835 316.264 208.672L310.245 215.554L338.249 216.487L340.644 211.798L353.717 190.077L335.305 142.656Z" fill="black"/>
<path d="M321.116 216.488L304.287 213.951C301.856 213.583 299.373 213.777 297.028 214.517C294.684 215.257 292.54 216.524 290.76 218.221C288.981 219.918 287.614 222 286.764 224.307C285.913 226.614 285.602 229.085 285.855 231.531L288.047 252.917H296.309L295.599 232.901C295.556 231.781 295.762 230.666 296.202 229.636C296.643 228.605 297.307 227.685 298.145 226.943C298.984 226.2 299.978 225.653 301.054 225.34C302.13 225.028 303.262 224.958 304.368 225.136C311.534 226.283 320.415 225.786 321.116 216.488Z" fill="#24285B"/>
<path d="M351.525 140.007C357.899 148.98 363.573 168.793 358.63 196.715C357.893 200.842 355.791 204.601 352.662 207.392C349.534 210.182 345.559 211.841 341.375 212.103L315.076 213.767V205.19L335.062 202.298C336.155 202.141 337.202 201.749 338.13 201.15C339.057 200.55 339.844 199.757 340.436 198.824C341.029 197.892 341.412 196.842 341.56 195.747C341.708 194.653 341.617 193.539 341.294 192.483C337.782 180.891 332.321 159.891 333.732 144.93C334.595 135.835 346.237 132.567 351.525 140.007Z" fill="#9ED6BE"/>
<path opacity="0.46" d="M351.525 140.007C357.899 148.98 363.573 168.793 358.63 196.715C357.893 200.842 355.791 204.601 352.662 207.392C349.534 210.182 345.559 211.841 341.375 212.103L315.076 213.767V205.19L335.062 202.298C336.155 202.141 337.202 201.749 338.13 201.15C339.057 200.55 339.844 199.757 340.436 198.824C341.029 197.892 341.412 196.842 341.56 195.747C341.708 194.653 341.617 193.539 341.294 192.483C337.782 180.891 332.321 159.891 333.732 144.93C334.595 135.835 346.237 132.567 351.525 140.007Z" fill="white"/>
<path d="M315.076 207.272C315.076 207.272 304.409 206.998 305.941 212.56C307.474 218.122 315.076 213.768 315.076 213.768V207.272Z" fill="#F4A28C"/>
<path d="M279.572 215.768L275.268 191.418H305.82L308.469 212.175L322.476 212.378V215.768H279.572Z" fill="#FFD200"/>
<path d="M291.741 206.145C293.429 206.145 294.797 204.778 294.797 203.09C294.797 201.403 293.429 200.035 291.741 200.035C290.054 200.035 288.686 201.403 288.686 203.09C288.686 204.778 290.054 206.145 291.741 206.145Z" fill="white"/>
<path d="M249.446 174.751C249.446 174.751 247.63 170.255 246.828 170.904C246.602 171.096 246.446 171.358 246.384 171.648C246.321 171.937 246.356 172.24 246.483 172.508C246.483 172.508 244.605 169.463 243.702 169.351C242.798 169.24 241.103 171.807 241.235 173.817C241.367 175.827 246.828 180.729 246.828 180.729L249.446 174.751Z" fill="#F4A28C"/>
<path opacity="0.58" d="M162.298 245.913C162.298 245.913 153.925 243.619 152.148 235.834C152.148 235.834 165.11 233.216 165.486 246.593L162.298 245.913Z" fill="#9ED6BE"/>
<path opacity="0.73" d="M163.324 245.082C163.324 245.082 157.477 235.835 162.623 227.197C162.623 227.197 172.479 233.46 168.094 245.102L163.324 245.082Z" fill="#9ED6BE"/>
<path d="M164.826 245.08C164.826 245.08 167.871 235.326 177.25 233.479C177.25 233.479 179.005 239.812 171.21 245.11L164.826 245.08Z" fill="#9ED6BE"/>
<path d="M158.756 244.867L160.451 256.469L171.139 256.519L172.712 244.918L158.756 244.867Z" fill="#24285B"/>
<path d="M307.931 52.0371H301.252C298.779 52.0371 296.329 52.5245 294.044 53.4713C291.759 54.4181 289.683 55.8059 287.935 57.5554C286.186 59.3048 284.8 61.3816 283.854 63.6671C282.909 65.9527 282.422 68.4021 282.424 70.8755C282.425 74.6137 283.539 78.267 285.623 81.3705C287.707 84.4739 290.667 86.8871 294.127 88.3031L297.882 98.585L299.344 89.6023C299.978 89.6718 300.615 89.7056 301.252 89.7038H307.931C312.924 89.7011 317.711 87.7165 321.241 84.1861C324.772 80.6557 326.756 75.8682 326.759 70.8755C326.759 65.881 324.776 61.0909 321.245 57.5583C317.714 54.0257 312.925 52.0398 307.931 52.0371Z" fill="#F2F2F2"/>
<path d="M235.896 62.889C235.888 59.3275 234.468 55.9145 231.946 53.399C229.425 50.8834 226.009 49.4707 222.447 49.4707H205.03C203.263 49.4707 201.513 49.8189 199.881 50.4954C198.249 51.1719 196.766 52.1634 195.517 53.4133C194.268 54.6632 193.277 56.147 192.602 57.7799C191.927 59.4127 191.58 61.1626 191.581 62.9296C191.592 66.4894 193.014 69.8997 195.535 72.4131C198.056 74.9264 201.47 76.3378 205.03 76.3378H222.468C223.863 76.3357 225.25 76.1165 226.578 75.6882L235.916 79.8395L231.917 72.4503C233.182 71.2003 234.185 69.7112 234.868 68.0696C235.551 66.4281 235.901 64.667 235.896 62.889Z" fill="#F2F2F2"/>
<path d="M160.776 41.168H139.278C134.877 41.168 130.656 42.9164 127.544 46.0286C124.432 49.1408 122.683 53.3619 122.683 57.7632C122.684 60.339 123.286 62.879 124.44 65.1818C125.594 67.4845 127.269 69.4867 129.331 71.0293L124.601 80.4079L135.157 73.8307C136.503 74.1811 137.888 74.3618 139.278 74.3686H160.776C165.176 74.3659 169.394 72.6163 172.504 69.5044C175.614 66.3925 177.361 62.1729 177.361 57.7734C177.362 55.594 176.935 53.4358 176.102 51.4219C175.269 49.4079 174.048 47.5777 172.508 46.0358C170.968 44.4938 169.139 43.2703 167.126 42.4351C165.113 41.5999 162.955 41.1693 160.776 41.168Z" fill="#F2F2F2"/>
</svg>
