<svg width="406" height="306" viewBox="0 0 406 306" fill="none" xmlns="http://www.w3.org/2000/svg">
<path opacity="0.3" d="M204.969 254.368C290.377 254.368 359.615 248.706 359.615 241.721C359.615 234.736 290.377 229.074 204.969 229.074C119.561 229.074 50.3237 234.736 50.3237 241.721C50.3237 248.706 119.561 254.368 204.969 254.368Z" fill="#E6E6E6"/>
<path d="M331.976 234.2H186.232V126.447C186.232 123.957 187.221 121.569 188.982 119.808C190.743 118.048 193.131 117.059 195.621 117.059H331.976C333.688 117.059 335.384 117.396 336.966 118.052C338.548 118.707 339.985 119.668 341.195 120.879C342.405 122.091 343.365 123.529 344.02 125.111C344.674 126.693 345.01 128.389 345.009 130.101V221.147C345.011 222.86 344.676 224.557 344.022 226.14C343.369 227.724 342.409 229.163 341.199 230.375C339.988 231.588 338.551 232.55 336.968 233.206C335.386 233.862 333.689 234.2 331.976 234.2Z" fill="#9ED6BE"/>
<path opacity="0.08" d="M331.976 234.2H186.232V126.447C186.232 123.957 187.221 121.569 188.982 119.808C190.743 118.048 193.131 117.059 195.621 117.059H331.976C333.688 117.059 335.384 117.396 336.966 118.052C338.548 118.707 339.985 119.668 341.195 120.879C342.405 122.091 343.365 123.529 344.02 125.111C344.674 126.693 345.01 128.389 345.009 130.101V221.147C345.011 222.86 344.676 224.557 344.022 226.14C343.369 227.724 342.409 229.163 341.199 230.375C339.988 231.588 338.551 232.55 336.968 233.206C335.386 233.862 333.689 234.2 331.976 234.2Z" fill="black"/>
<path opacity="0.08" d="M232.79 148.057C248.133 148.057 260.571 135.619 260.571 120.277C260.571 104.934 248.133 92.4961 232.79 92.4961C217.448 92.4961 205.01 104.934 205.01 120.277C205.01 135.619 217.448 148.057 232.79 148.057Z" fill="black"/>
<path d="M232.79 148.057C248.133 148.057 260.571 135.619 260.571 120.277C260.571 104.934 248.133 92.4961 232.79 92.4961C217.448 92.4961 205.01 104.934 205.01 120.277C205.01 135.619 217.448 148.057 232.79 148.057Z" fill="#FFD200"/>
<g opacity="0.08">
<path opacity="0.08" d="M234.14 139.694C249.483 139.694 261.921 127.256 261.921 111.913C261.921 96.5706 249.483 84.1328 234.14 84.1328C218.797 84.1328 206.36 96.5706 206.36 111.913C206.36 127.256 218.797 139.694 234.14 139.694Z" fill="black"/>
</g>
<path opacity="0.08" d="M232.79 148.057C248.133 148.057 260.571 135.619 260.571 120.277C260.571 104.934 248.133 92.4961 232.79 92.4961C217.448 92.4961 205.01 104.934 205.01 120.277C205.01 135.619 217.448 148.057 232.79 148.057Z" fill="black"/>
<path d="M234.14 139.694C249.483 139.694 261.921 127.256 261.921 111.913C261.921 96.5706 249.483 84.1328 234.14 84.1328C218.797 84.1328 206.36 96.5706 206.36 111.913C206.36 127.256 218.797 139.694 234.14 139.694Z" fill="#FFD200"/>
<path d="M235.044 99.4785C235.825 99.4785 236.059 99.7526 236.059 100.494V102.249C237.438 102.397 238.751 102.918 239.858 103.754C240.965 104.591 241.823 105.713 242.342 107C242.748 107.822 242.575 108.268 241.661 108.674L239.987 109.426C239.195 109.801 238.819 109.639 238.373 108.817C238.025 107.967 237.413 107.252 236.627 106.778C235.84 106.305 234.922 106.098 234.008 106.188C231.095 106.188 229.766 107.04 229.766 108.989C229.834 109.583 230.106 110.135 230.535 110.552C230.964 110.968 231.525 111.223 232.12 111.273C232.933 111.454 233.757 111.58 234.587 111.648C236.138 111.722 237.67 112.023 239.134 112.542C239.872 112.774 240.561 113.142 241.164 113.628C241.77 114.266 242.242 115.018 242.554 115.84C242.866 116.663 243.011 117.539 242.981 118.418C242.981 122.143 240.484 124.671 236.079 125.32V127.097C236.079 127.878 235.835 128.112 235.064 128.112H233.176C232.395 128.112 232.161 127.838 232.161 127.097V125.351C230.631 125.246 229.166 124.691 227.95 123.755C226.735 122.82 225.823 121.546 225.33 120.093C225.257 119.94 225.22 119.773 225.222 119.604C225.223 119.435 225.263 119.268 225.338 119.116C225.414 118.965 225.522 118.832 225.656 118.729C225.79 118.626 225.946 118.554 226.112 118.52L227.786 117.901C228.639 117.596 229.015 117.799 229.39 118.652C230.141 120.574 231.681 121.531 234.008 121.524C237.155 121.524 238.718 120.509 238.718 118.479C238.746 118.013 238.618 117.551 238.353 117.167C238.088 116.782 237.702 116.498 237.256 116.358C236.164 115.977 235.022 115.759 233.866 115.708C232.297 115.61 230.752 115.267 229.289 114.693C228.549 114.444 227.862 114.062 227.259 113.567C226.646 112.964 226.166 112.24 225.848 111.442C225.53 110.643 225.381 109.787 225.411 108.928C225.411 105.234 227.736 102.777 232.11 102.189V100.544C232.11 99.7526 232.384 99.5293 233.125 99.5293L235.044 99.4785Z" fill="white"/>
<path opacity="0.08" d="M297.568 162.155C312.91 162.155 325.348 149.717 325.348 134.374C325.348 119.032 312.91 106.594 297.568 106.594C282.225 106.594 269.787 119.032 269.787 134.374C269.787 149.717 282.225 162.155 297.568 162.155Z" fill="black"/>
<path d="M297.568 162.155C312.91 162.155 325.348 149.717 325.348 134.374C325.348 119.032 312.91 106.594 297.568 106.594C282.225 106.594 269.787 119.032 269.787 134.374C269.787 149.717 282.225 162.155 297.568 162.155Z" fill="#FFD200"/>
<g opacity="0.08">
<path opacity="0.08" d="M294.147 154.401C309.49 154.401 321.928 141.963 321.928 126.62C321.928 111.278 309.49 98.8398 294.147 98.8398C278.804 98.8398 266.366 111.278 266.366 126.62C266.366 141.963 278.804 154.401 294.147 154.401Z" fill="black"/>
</g>
<path opacity="0.08" d="M297.568 162.155C312.91 162.155 325.348 149.717 325.348 134.374C325.348 119.032 312.91 106.594 297.568 106.594C282.225 106.594 269.787 119.032 269.787 134.374C269.787 149.717 282.225 162.155 297.568 162.155Z" fill="black"/>
<path d="M294.147 154.401C309.49 154.401 321.928 141.963 321.928 126.62C321.928 111.278 309.49 98.8398 294.147 98.8398C278.804 98.8398 266.366 111.278 266.366 126.62C266.366 141.963 278.804 154.401 294.147 154.401Z" fill="#FFD200"/>
<path d="M288.138 115.709C288.798 115.283 289.153 115.374 289.569 116.034L290.483 117.445C291.719 116.815 293.104 116.534 294.488 116.632C295.873 116.731 297.204 117.205 298.339 118.003C299.131 118.47 299.232 118.937 298.684 119.779L297.669 121.322C297.212 122.063 296.806 122.124 295.984 121.677C295.229 121.164 294.331 120.904 293.418 120.935C292.506 120.966 291.627 121.287 290.909 121.85C288.473 123.433 287.864 124.895 288.879 126.509C289.262 126.97 289.792 127.285 290.379 127.402C290.967 127.518 291.577 127.428 292.107 127.148C292.884 126.855 293.643 126.516 294.38 126.133C295.717 125.346 297.164 124.764 298.674 124.408C299.417 124.203 300.192 124.141 300.958 124.225C301.814 124.43 302.62 124.805 303.328 125.328C304.036 125.851 304.631 126.512 305.078 127.27C307.108 130.396 306.388 133.878 303.048 136.821L304.013 138.303C304.439 138.963 304.388 139.318 303.728 139.754L302.155 140.769C301.496 141.196 301.14 141.115 300.694 140.455L299.74 138.993C298.398 139.737 296.866 140.068 295.337 139.945C293.808 139.823 292.349 139.251 291.142 138.303C290.997 138.215 290.874 138.095 290.783 137.952C290.691 137.809 290.634 137.646 290.615 137.478C290.597 137.309 290.617 137.138 290.675 136.978C290.733 136.819 290.827 136.675 290.95 136.557L292.015 135.126C292.564 134.405 293.03 134.365 293.771 134.882C295.446 136.08 297.253 136.04 299.202 134.781C301.841 133.066 302.622 131.381 301.526 129.706C301.299 129.294 300.941 128.971 300.509 128.787C300.076 128.603 299.595 128.569 299.141 128.691C298.02 128.963 296.946 129.401 295.954 129.99C294.585 130.764 293.106 131.326 291.569 131.655C290.824 131.83 290.055 131.875 289.295 131.787C288.457 131.608 287.664 131.258 286.966 130.761C286.267 130.263 285.678 129.628 285.235 128.894C283.205 125.849 283.835 122.469 287.194 119.597L286.281 118.196C285.854 117.536 285.936 117.181 286.585 116.724L288.138 115.709Z" fill="white"/>
<path d="M186.232 126.447H320.953C324.579 126.447 328.057 127.888 330.621 130.452C333.185 133.016 334.625 136.493 334.625 140.119V229.906C334.625 233.532 333.185 237.01 330.621 239.574C328.057 242.138 324.579 243.578 320.953 243.578H186.232V126.447Z" fill="#9ED6BE"/>
<path d="M297.314 172.783H346.206V197.245H297.314C295.708 197.245 294.117 196.928 292.633 196.314C291.149 195.699 289.801 194.798 288.665 193.662C287.53 192.527 286.629 191.178 286.014 189.694C285.399 188.211 285.083 186.62 285.083 185.014C285.083 181.77 286.372 178.659 288.665 176.366C290.959 174.072 294.07 172.783 297.314 172.783Z" fill="#24285B"/>
<path d="M299.953 191.235C303.389 191.235 306.175 188.449 306.175 185.013C306.175 181.577 303.389 178.791 299.953 178.791C296.517 178.791 293.731 181.577 293.731 185.013C293.731 188.449 296.517 191.235 299.953 191.235Z" fill="#FFD200"/>
<path opacity="0.58" d="M166.632 233.631C166.632 233.631 158.786 231.489 157.081 224.181C157.081 224.181 169.261 221.725 169.586 234.331L166.632 233.631Z" fill="#9ED6BE"/>
<path opacity="0.73" d="M167.597 232.85C167.597 232.85 162.116 224.182 166.937 216.082C166.937 216.082 176.184 221.949 172.073 232.87L167.597 232.85Z" fill="#9ED6BE"/>
<path d="M169.008 232.86C169.008 232.86 171.91 223.725 180.66 221.969C180.66 221.969 182.304 227.917 174.996 232.88L169.008 232.86Z" fill="#9ED6BE"/>
<path d="M163.313 232.656L164.907 243.537L174.925 243.578L176.407 232.707L163.313 232.656Z" fill="#24285B"/>
<path d="M139.715 234.281C139.715 234.281 142.76 237.133 146.059 235.783C149.357 234.433 151.773 237.103 149.337 239.356C146.901 241.61 137.705 241.721 137.705 241.721L134.995 235.794L139.715 234.281Z" fill="#9ED6BE"/>
<path d="M88.4168 232.952C88.4168 232.952 86.9247 236.849 89.4318 239.397C91.9388 241.944 90.3656 245.182 87.4018 243.782C84.438 242.381 80.8347 233.895 80.8347 233.895L85.2601 229.125L88.4168 232.952Z" fill="#9ED6BE"/>
<path d="M80.246 159.689C80.246 159.689 77.0284 172.407 82.6211 178.67C88.2137 184.932 96.8311 214.581 82.6211 229.42L88.2239 234.688C88.2239 234.688 112.767 222.173 105.763 177.036L123.282 159.7L80.246 159.689Z" fill="#24285B"/>
<path d="M123.282 87.248C123.282 87.248 140.618 91.6633 140.74 106.015C140.862 120.367 133.056 145.489 144.201 147.539C155.346 149.589 162.014 118.571 162.014 118.571L169.962 121.778C169.962 121.778 161.507 174.761 132.285 166.022C103.063 157.283 123.282 87.248 123.282 87.248Z" fill="#9ED6BE"/>
<path opacity="0.44" d="M123.282 87.248C123.282 87.248 140.618 91.6633 140.74 106.015C140.862 120.367 133.056 145.489 144.201 147.539C155.346 149.589 162.014 118.571 162.014 118.571L169.962 121.778C169.962 121.778 161.507 174.761 132.285 166.022C103.063 157.283 123.282 87.248 123.282 87.248Z" fill="white"/>
<path d="M107.692 63.6797L102.414 82.2948L112.878 84.4669L112.523 70.0539L107.692 63.6797Z" fill="#F4A28C"/>
<path opacity="0.31" d="M112.736 73.2009C111.458 72.7247 110.346 71.885 109.539 70.7852C109.539 70.7852 109.275 74.3174 112.726 78.2556L112.736 73.2009Z" fill="#CE8172"/>
<path d="M102.413 82.2946L108.605 83.5836C108.605 83.5836 137.025 86.6286 138.172 102.676C139.319 118.723 123.272 159.688 123.272 159.688H80.2458C80.2458 159.688 45.7561 78.0519 102.413 82.2946Z" fill="#9ED6BE"/>
<path opacity="0.09" d="M98.6987 97.1758C98.6987 97.1758 102.17 107.184 93.0654 113.72C83.9609 120.257 88.4066 144.881 98.3637 148.819C108.321 152.757 92.1418 161.293 85.2601 157.812C78.3784 154.33 77.3735 151.986 77.3735 151.986C77.3735 151.986 70.9689 133.472 70.2685 121.658C69.5682 109.843 98.6987 97.1758 98.6987 97.1758Z" fill="black"/>
<path d="M98.6987 97.1749C98.6987 88.3545 89.7667 82.3356 81.3828 85.0862C74.0951 87.4512 65.2037 91.8867 59.8039 99.9864C49.4306 115.557 25.71 161.12 85.9198 162.825L87.6859 156.126C87.6859 156.126 51.5418 146.128 67.4976 124.986C79.911 108.533 98.7291 109.639 98.6987 97.1749Z" fill="#9ED6BE"/>
<path opacity="0.44" d="M98.6987 97.1749C98.6987 88.3545 89.7667 82.3356 81.3828 85.0862C74.0951 87.4512 65.2037 91.8867 59.8039 99.9864C49.4306 115.557 25.71 161.12 85.9198 162.825L87.6859 156.126C87.6859 156.126 51.5418 146.128 67.4976 124.986C79.911 108.533 98.7291 109.639 98.6987 97.1749Z" fill="white"/>
<path d="M163.872 119.322C163.872 119.322 164.329 111.648 167.404 109.476C170.479 107.304 169.962 112.806 169.962 112.806C169.962 112.806 173.007 109.212 175.605 110.887C178.204 112.562 169.962 121.778 169.962 121.778L163.872 119.322Z" fill="#F4A28C"/>
<path d="M118.532 64.2171C118.532 64.2171 118.004 70.1041 116.35 73.7784C116.19 74.1353 115.96 74.4569 115.675 74.7246C115.39 74.9922 115.054 75.2005 114.688 75.3374C114.322 75.4743 113.932 75.5371 113.541 75.5221C113.15 75.5072 112.766 75.4147 112.411 75.2501C111.235 74.7978 110.214 74.0149 109.472 72.9955C108.73 71.9762 108.298 70.7641 108.23 69.5052L107.387 64.1156C107.334 63.0188 107.623 61.9325 108.214 61.007C108.804 60.0814 109.668 59.3624 110.686 58.9492C114.38 57.173 119.029 60.6341 118.532 64.2171Z" fill="#F4A28C"/>
<path d="M118.014 67.9121L119.232 70.4395C119.3 70.5826 119.331 70.7406 119.322 70.8989C119.313 71.0572 119.265 71.2107 119.181 71.3453C119.097 71.4798 118.98 71.591 118.842 71.6686C118.704 71.7462 118.548 71.7878 118.39 71.7894H116.096L118.014 67.9121Z" fill="#F4A28C"/>
<path d="M123.282 159.689L141.278 234.678L132.285 235.997C132.285 235.997 114.289 184.598 102.414 174.082L123.282 159.689Z" fill="#24285B"/>
<path d="M87.4422 157.059C87.4422 157.059 93.8671 156.044 96.0088 160.48C98.1504 164.915 85.9197 162.834 85.9197 162.834L87.4422 157.059Z" fill="#F4A28C"/>
<path d="M105.935 69.8619L109.539 68.989L111.731 67.9131C111.731 67.9131 113.304 67.8116 112.746 63.9851C112.746 63.9851 120.48 66.6545 121.495 62.0667C122.612 57.0628 116.837 54.8399 112.746 55.2662C111.554 55.4098 110.424 55.8774 109.479 56.6183C108.534 57.3592 107.811 58.3449 107.387 59.4683C107.387 59.4683 100.952 58.4432 105.935 69.8619Z" fill="#24285B"/>
<path d="M111.467 68.0949C111.467 68.0949 111.823 65.8517 110.107 65.7299C108.392 65.6081 107.864 68.846 110.107 69.5463L111.467 68.0949Z" fill="#F4A28C"/>
<path opacity="0.08" d="M175.676 115.567C191.019 115.567 203.457 103.129 203.457 87.7864C203.457 72.4436 191.019 60.0059 175.676 60.0059C160.334 60.0059 147.896 72.4436 147.896 87.7864C147.896 103.129 160.334 115.567 175.676 115.567Z" fill="black"/>
<path d="M175.676 115.567C191.019 115.567 203.457 103.129 203.457 87.7864C203.457 72.4436 191.019 60.0059 175.676 60.0059C160.334 60.0059 147.896 72.4436 147.896 87.7864C147.896 103.129 160.334 115.567 175.676 115.567Z" fill="#FFD200"/>
<g opacity="0.08">
<path opacity="0.08" d="M177.036 107.204C192.379 107.204 204.817 94.7659 204.817 79.4231C204.817 64.0804 192.379 51.6426 177.036 51.6426C161.694 51.6426 149.256 64.0804 149.256 79.4231C149.256 94.7659 161.694 107.204 177.036 107.204Z" fill="black"/>
</g>
<path opacity="0.08" d="M175.676 115.567C191.019 115.567 203.457 103.129 203.457 87.7864C203.457 72.4436 191.019 60.0059 175.676 60.0059C160.334 60.0059 147.896 72.4436 147.896 87.7864C147.896 103.129 160.334 115.567 175.676 115.567Z" fill="black"/>
<path d="M177.036 107.204C192.379 107.204 204.817 94.7659 204.817 79.4231C204.817 64.0804 192.379 51.6426 177.036 51.6426C161.694 51.6426 149.256 64.0804 149.256 79.4231C149.256 94.7659 161.694 107.204 177.036 107.204Z" fill="#FFD200"/>
<path d="M177.93 66.9883C178.711 66.9883 178.945 67.2623 178.945 68.0033V69.7694C180.324 69.9132 181.638 70.4306 182.745 71.2658C183.852 72.1011 184.71 73.2225 185.227 74.5094C185.644 75.3316 185.471 75.7782 184.547 76.1842L182.873 76.9353C182.081 77.3108 181.705 77.1484 181.269 76.3263C180.918 75.4767 180.304 74.7625 179.516 74.2891C178.728 73.8158 177.809 73.6083 176.894 73.6974C173.991 73.6974 172.652 74.55 172.652 76.4988C172.72 77.0945 172.994 77.6479 173.425 78.0644C173.856 78.4809 174.419 78.7348 175.017 78.7826C175.826 78.9642 176.646 79.0897 177.473 79.1581C179.024 79.2357 180.555 79.5365 182.02 80.0513C182.758 80.2839 183.447 80.6522 184.05 81.1374C184.658 81.7741 185.131 82.5261 185.443 83.3489C185.755 84.1717 185.899 85.0488 185.867 85.9282C185.867 89.6532 183.37 92.1806 178.965 92.8302V94.6064C178.965 95.388 178.721 95.6214 177.95 95.6214H176.072C175.28 95.6214 175.057 95.3474 175.057 94.6064V92.82C173.527 92.7152 172.062 92.1601 170.846 91.2245C169.631 90.289 168.719 89.0148 168.226 87.5623C168.153 87.4089 168.117 87.2408 168.119 87.071C168.121 86.9012 168.161 86.7341 168.238 86.5824C168.314 86.4306 168.424 86.2984 168.559 86.1955C168.694 86.0927 168.851 86.0221 169.018 85.9891L170.693 85.3699C171.545 85.0654 171.921 85.2684 172.296 86.121C173.047 88.036 174.583 88.9935 176.904 88.9935C180.051 88.9935 181.624 87.9785 181.624 85.9485C181.654 85.4808 181.524 85.0169 181.257 84.6319C180.99 84.2469 180.601 83.9634 180.152 83.8271C179.063 83.4475 177.925 83.2286 176.772 83.1775C175.204 83.0752 173.66 82.7329 172.195 82.1625C171.456 81.9066 170.769 81.5217 170.165 81.0257C169.554 80.4219 169.075 79.6978 168.759 78.8993C168.443 78.1009 168.296 77.2454 168.328 76.3872C168.328 72.6926 170.652 70.2363 175.017 69.6577V68.054C175.017 67.2623 175.291 67.039 176.032 67.039L177.93 66.9883Z" fill="white"/>
</svg>
