<svg id="Layer_1" data-name="Layer 1" xmlns="http://www.w3.org/2000/svg" viewBox="0 0 400 300" width="406" height="306" class="illustration styles_illustrationTablet__1DWOa"><title>_</title><path d="M285.6,67.89c31.2,10.64,60.45,39.87,61.82,77.54,1.38,38-16.33,73.57-67.52,91.31-52.25,18.11-185.46,22.72-212.76-28.08s-21.73-115.89,34-138.84C140.16,53.74,224.66,47.12,285.6,67.89Z" fill="#e6e6e6" opacity="0.3"></path><path d="M215.91,98.66l15.35,6.79a29.77,29.77,0,0,0,33.52-6.61L279.9,83.08l5.76,4L273,106.2a51.08,51.08,0,0,1-50.14,22.29l-22.33-3.34Z" fill="#68e1fd"></path><path d="M215.91,98.66l15.35,6.79a29.77,29.77,0,0,0,33.52-6.61L279.9,83.08l5.76,4L273,106.2a51.08,51.08,0,0,1-50.14,22.29l-22.33-3.34Z" fill="#fff" opacity="0.46"></path><path d="M285.66,87s10.59-1.41,7.72-4.38-13.48.43-13.48.43Z" fill="#f4a28c"></path><path d="M297.21,48.11H276.56s-2.19,16.34,10.33,16.34C286.89,64.45,298.83,64.84,297.21,48.11Z" fill="#ffd200"></path><ellipse cx="286.87" cy="48.31" rx="10.34" ry="2.95" fill="#ffd200"></ellipse><ellipse cx="286.87" cy="48.31" rx="10.34" ry="2.95" opacity="0.08"></ellipse><rect x="282.05" y="71.4" width="10.37" height="10.37" transform="translate(574.47 153.17) rotate(-180)" fill="#24285b"></rect><rect x="285.66" y="61.22" width="2.21" height="10.18" transform="translate(573.53 132.62) rotate(-180)" fill="#ffd200"></rect><path d="M295.73,54.07h3.7a4,4,0,0,1,4,4h0a4,4,0,0,1-4,4H288.89" fill="none" stroke="#ffd200" stroke-miterlimit="10" stroke-width="3"></path><path d="M278,54.07h-3.7a4,4,0,0,0-4,4h0a4,4,0,0,0,4,4h10.54" fill="none" stroke="#ffd200" stroke-miterlimit="10" stroke-width="3"></path><circle cx="290.32" cy="56.99" r="3.56" fill="#fff" opacity="0.46"></circle><path d="M193.9,81.55a32,32,0,0,1,2.84,8,2.57,2.57,0,0,1-2.19,2.9,5.66,5.66,0,0,1-5.71-2.26l-3.11-3.53a4.59,4.59,0,0,1,0-5.3C187.6,78.34,192.61,78.72,193.9,81.55Z" fill="#f4a28c"></path><polygon points="187.29 85.33 186.55 102.03 195.79 101.78 192.62 89.73 187.29 85.33" fill="#f4a28c"></polygon><path d="M195.23,84.49l2.06,1.27a.82.82,0,0,1,0,1.38l-1.67,1.08Z" fill="#f4a28c"></path><path d="M193.37,92.49a6,6,0,0,1-3.17-1.43s.47,3,4.15,5.64Z" fill="#ce8172" opacity="0.31"></path><path d="M214.08,250.12s1.36,3.77,4.76,4.06,4.3,3.61,1.24,4.48-11-3.07-11-3.07l.22-4.91Z" fill="#68e1fd"></path><path d="M168,250.12s-1.36,3.77-4.77,4.06-4.29,3.61-1.23,4.48,11-3.07,11-3.07l-.22-4.91Z" fill="#68e1fd"></path><path d="M208.51,97.14a117.89,117.89,0,0,0-44.07,9.43,17,17,0,0,0-8.58,23.25l24,47.83L224.3,175s8.09-26.88,6.47-57.29A21.86,21.86,0,0,0,208.51,97.14Z" fill="#68e1fd"></path><path d="M179.84,177.65,166.55,250.8h6.65l16.65-39.71a68.88,68.88,0,0,1,29.56-33.3L224.3,175Z" fill="#24285b"></path><path d="M224.3,175l-6.86,75.78h-8.83s2.06-57-13.87-69.16Z" fill="#24285b"></path><path d="M176.89,110.08s11.36,7.3,7.78,29.75a45,45,0,0,0,10.75,36.9l-15.58.92s-10-20.83-12.66-25.25S176.89,110.08,176.89,110.08Z" opacity="0.08"></path><path d="M179.2,116.88c.05-10.17-12.66-14.86-19.46-7.3a42.18,42.18,0,0,0-10.83,23.23c-2.7,22.33.28,71.08.28,71.08h8.08s5.46-48.72,17.37-71.08C178,126.58,179.18,121.28,179.2,116.88Z" fill="#68e1fd"></path><path d="M179.2,116.88c.05-10.17-12.66-14.86-19.46-7.3a42.18,42.18,0,0,0-10.83,23.23c-2.7,22.33.28,71.08.28,71.08h8.08s5.46-48.72,17.37-71.08C178,126.58,179.18,121.28,179.2,116.88Z" fill="#fff" opacity="0.46"></path><path d="M146.31,218v-3.45A4.72,4.72,0,0,1,151,209.8h4.42a4.72,4.72,0,0,1,4.73,4.72v3.7" fill="none" stroke="#24285b" stroke-miterlimit="10" stroke-width="2"></path><rect x="136.92" y="216.61" width="33.71" height="21.96" fill="#ffd200"></rect><path d="M136.92,226.9s12.63,10.86,33.71,7.66v4H136.92Z" opacity="0.08"></path><path d="M150.59,203.89s-2.43,8.05.76,8.05,7,1.53,4.6-8.05Z" fill="#f4a28c"></path><path d="M186.94,91.43l3.19-1.71.32-1.7a4,4,0,0,0,0-4.48s6.12-3,4.68-5.53-5.95-6-10.33-2.72S178.21,84.42,186.94,91.43Z" fill="#24285b"></path><path d="M190.55,87.66s-.78-1.8-2.09-1.1-.19,3.31,1.76,2.79Z" fill="#f4a28c"></path><path d="M183.8,100.23a71,71,0,0,1,16.68-2.67s7.78,31.06,1.66,56.09C202.14,153.65,193.42,122.13,183.8,100.23Z" fill="#fff"></path><path d="M183.8,100.23s-.3-3.78,2.38-3.9a14.4,14.4,0,0,1,4.37.37s7.84-6.14,9.93.86C200.48,97.56,189.27,98.81,183.8,100.23Z" fill="#68e1fd"></path><path d="M183.8,100.23s-.3-3.78,2.38-3.9a14.4,14.4,0,0,1,4.37.37s7.84-6.14,9.93.86C200.48,97.56,189.27,98.81,183.8,100.23Z" fill="#fff" opacity="0.77"></path><path d="M189.28,99.06s-.89-3,1-3.32,3.55-1.57,3.95,2.21S190.8,102.13,189.28,99.06Z" fill="#24285b"></path><path d="M190.51,100.55s5.88,20.83,5.94,34.22l5.69,18.88a83.59,83.59,0,0,0,2.35-20.56s-6.08-27.4-10.35-33.8Z" fill="#24285b"></path><rect x="230.03" y="72.93" width="15.24" height="7.3" transform="translate(-6.17 130.37) rotate(-30.3)" fill="#e6e6e6"></rect><rect x="289.74" y="147.26" width="15.24" height="7.3" transform="translate(70.95 -93.91) rotate(20.33)" fill="#e6e6e6"></rect><rect x="251.21" y="198.24" width="15.24" height="7.3" transform="translate(-67.62 236.32) rotate(-43.97)" fill="#e6e6e6"></rect><rect x="118.04" y="93.05" width="15.24" height="7.3" transform="translate(164.33 250.48) rotate(-141.7)" fill="#e6e6e6"></rect><rect x="90.57" y="167.94" width="15.24" height="7.3" transform="translate(295.44 158.35) rotate(115.94)" fill="#e6e6e6"></rect></svg>