<svg width="406" height="306" viewBox="0 0 406 306" fill="none" xmlns="http://www.w3.org/2000/svg">
<path opacity="0.3" d="M108.828 61.9038C74.3893 71.2113 47.1975 93.0237 42.9041 133.167C39.2907 166.997 44.3961 226.73 102.393 236.514C215.251 255.515 307.545 261.757 349.058 209.698C374.718 177.533 382.645 87.4818 318.811 65.5679C275.522 50.7591 182.7 41.9489 108.828 61.9038Z" fill="#E6E6E6"/>
<path d="M322.719 77.9707H78.9163V206.815H322.719V77.9707Z" fill="#E6E6E6"/>
<g opacity="0.12">
<path opacity="0.12" d="M297.557 153.486H310.032V131.187H297.557V153.486Z" fill="black"/>
<path opacity="0.12" d="M277.227 153.486H289.701V123.036H277.227V153.486Z" fill="black"/>
<path opacity="0.12" d="M256.897 153.486H269.371V109.963H256.897V153.486Z" fill="black"/>
<path opacity="0.12" d="M236.566 153.486H249.041V98.0876H236.566V153.486Z" fill="black"/>
</g>
<path opacity="0.08" d="M106.382 180.751V161.12C106.382 161.12 116.075 173.077 120.359 172.174C124.642 171.27 131.412 155.934 136.142 154.807C140.872 153.68 141.329 162.927 145.622 161.577C149.915 160.227 165.465 133.837 171.779 133.38C178.092 132.924 182.832 148.037 188.912 145.56C194.992 143.084 212.368 111.284 220.935 106.777V180.74L106.382 180.751Z" fill="black"/>
<g opacity="0.08">
<path opacity="0.08" d="M228.832 187.631H100.404V89.5312H102.434V185.601H228.832V187.631Z" fill="black"/>
</g>
<path opacity="0.08" d="M322.77 141.337V206.795H285.733C284.646 197.203 271.665 194.523 253.07 192.991C232.049 191.245 232.293 153.893 229.43 143.925C226.568 133.958 235.206 134.973 235.206 134.973C235.206 134.973 241.296 163.83 254.734 170.853C268.173 177.877 266.194 162.733 270.254 141.926C274.314 121.118 304.764 128.081 304.764 128.081L306.124 115.901C306.124 115.901 300.815 111.131 300.755 104.432C300.694 97.7328 303.8 98.0373 303.8 98.0373L311.717 101.61L313.513 114.643L322.77 141.337Z" fill="black"/>
<path d="M239.713 140.921C239.713 140.921 240.21 132.74 234.962 130.69C229.715 128.64 234.962 143.52 234.962 143.52L239.713 140.921Z" fill="#F4A28C"/>
<path d="M300.318 130.396C299.375 129.307 298.211 128.432 296.904 127.828C295.596 127.224 294.176 126.905 292.736 126.893C291.295 126.88 289.869 127.175 288.552 127.756C287.234 128.337 286.055 129.192 285.093 130.264C278.528 137.501 274.829 146.884 274.689 156.654C274.009 179.298 258.013 177.055 241.387 139.987L233.338 144.382C233.338 144.382 255.364 217.604 289.011 176.081C309.575 150.817 306.114 137.196 300.318 130.396Z" fill="#9ED6BE"/>
<path opacity="0.08" d="M296.837 127.189C295.505 126.205 293.874 125.712 292.22 125.794C290.566 125.875 288.991 126.526 287.763 127.636C283.711 131.32 280.462 135.798 278.216 140.793C275.971 145.787 274.777 151.19 274.71 156.665C274.03 179.31 258.033 177.066 241.408 139.999L233.359 144.394C233.359 144.394 255.384 217.616 289.031 176.092C313.483 145.896 303.901 132.356 296.837 127.189Z" fill="black"/>
<path d="M306.814 102.139C306.415 105.079 306.415 108.06 306.814 111C306.969 111.688 307.39 112.288 307.985 112.668C308.58 113.048 309.301 113.178 309.991 113.03C311.118 112.863 312.173 112.374 313.029 111.621C313.884 110.868 314.503 109.884 314.812 108.787L316.68 104.28C316.943 103.326 316.904 102.314 316.568 101.383C316.232 100.452 315.615 99.649 314.802 99.0837C311.859 96.7492 307.078 98.901 306.814 102.139Z" fill="#F4A28C"/>
<path d="M316.325 105.072L318.304 122.439L308.662 122.845L311.087 110.046L316.325 105.072Z" fill="#F4A28C"/>
<path d="M308.124 102.422C309.765 102.557 311.417 102.502 313.046 102.26C312.539 102.962 312.248 103.798 312.21 104.664C312.172 105.53 312.389 106.387 312.833 107.132C313.249 107.862 313.906 108.424 314.691 108.723C315.476 109.021 316.341 109.036 317.137 108.766L317.36 101.925C317.424 100.945 317.222 99.9671 316.775 99.0933C316.329 98.2195 315.654 97.4828 314.823 96.9613C314.103 96.5052 313.354 96.0983 312.579 95.7433C310.651 94.8704 307.707 96.0579 305.992 94.6471C305.821 94.5155 305.618 94.4295 305.405 94.3972C305.191 94.3649 304.972 94.3873 304.77 94.4623C304.567 94.5373 304.386 94.6625 304.245 94.8262C304.104 94.9898 304.007 95.1866 303.962 95.3982C303.566 97.4282 303.789 100.757 306.56 102.026C307.058 102.237 307.585 102.37 308.124 102.422Z" fill="#24285B"/>
<path d="M312.275 106.949C312.275 106.949 312.397 104.919 313.939 105.122C315.482 105.325 315.3 108.319 313.188 108.502L312.275 106.949Z" fill="#F4A28C"/>
<path d="M306.53 105.498L304.957 107.528C304.867 107.641 304.808 107.774 304.784 107.916C304.76 108.058 304.773 108.204 304.821 108.34C304.868 108.475 304.949 108.597 305.057 108.693C305.164 108.789 305.294 108.856 305.434 108.888L307.464 109.365L306.53 105.498Z" fill="#F4A28C"/>
<path opacity="0.31" d="M310.438 112.827C311.65 112.578 312.762 111.978 313.635 111.102C313.635 111.102 313.361 114.289 309.717 117.293L310.438 112.827Z" fill="#CE8172"/>
<path d="M298.704 122.641C298.704 122.641 334.544 114.613 347.424 121.819C360.305 129.026 335.062 196.848 335.062 196.848L295.477 195.589C295.477 195.589 260.855 129.533 298.704 122.641Z" fill="#9ED6BE"/>
<path opacity="0.08" d="M329.875 128.102C329.875 128.102 318.558 135.44 324.313 152.198C330.068 168.955 331.022 180.963 317.421 176.761C303.82 172.559 304.815 153.801 304.815 153.801L290.899 155.943L289.559 182.566L295.446 195.589L329.875 193.427L343.882 189.854L349.058 172.285L339.548 142.535L329.875 128.102Z" fill="black"/>
<path d="M310.468 230.211C310.651 218.986 312.123 208.359 316.761 205.851C322.019 202.949 325.206 216.113 327.084 230.211H336.564V193.012L295.446 195.63L300.846 230.252L310.468 230.211Z" fill="#24285B"/>
<path d="M336.807 119.678C336.807 119.678 359.137 115.933 359.137 151.012C359.137 186.09 353.778 217.332 302.297 186.029L306.215 180.061C306.215 180.061 333.925 192.241 339.822 181.543C345.719 170.845 316.68 125.596 336.807 119.678Z" fill="#9ED6BE"/>
<path opacity="0.46" d="M336.807 119.678C336.807 119.678 359.137 115.933 359.137 151.012C359.137 186.09 353.778 217.332 302.297 186.029L306.215 180.061C306.215 180.061 333.925 192.241 339.822 181.543C345.719 170.845 316.68 125.596 336.807 119.678Z" fill="white"/>
<path d="M296.05 150.901L277.17 155.65L284.279 183.911L303.159 179.161L296.05 150.901Z" fill="#FFD200"/>
<path d="M306.205 180.06C306.205 180.06 296.918 172.701 295.446 178.324C293.974 183.947 303.627 183.988 303.627 183.988L306.205 180.06Z" fill="#F4A28C"/>
<path opacity="0.08" d="M189.531 98.0996H166.927V101.906H189.531V98.0996Z" fill="black"/>
<path opacity="0.08" d="M189.531 108.137H166.927V111.943H189.531V108.137Z" fill="black"/>
<path opacity="0.46" d="M159.893 98.0996H153.224V101.906H159.893V98.0996Z" fill="white"/>
<path d="M159.893 108.137H153.224V111.943H159.893V108.137Z" fill="#FFD200"/>
<path opacity="0.46" d="M145.074 106.786C145.085 110.557 143.647 114.188 141.057 116.929C138.468 119.669 134.925 121.311 131.16 121.514C127.395 121.718 123.695 120.467 120.826 118.021C117.956 115.575 116.136 112.121 115.74 108.371C115.345 104.621 116.405 100.862 118.701 97.8717C120.997 94.881 124.355 92.8865 128.079 92.3001C131.804 91.7137 135.612 92.5803 138.716 94.7208C141.82 96.8614 143.983 100.112 144.759 103.802C144.84 104.188 144.901 104.594 144.962 104.99C145.036 105.586 145.073 106.186 145.074 106.786Z" fill="white"/>
<path d="M130.407 92.0999V106.767L144.769 103.783C144.769 103.783 142.76 92.0289 130.407 92.0999Z" fill="#FFD200"/>
<path opacity="0.1" d="M145.074 106.787C145.072 109.442 144.348 112.046 142.982 114.323C141.615 116.599 139.656 118.462 137.314 119.712C134.972 120.962 132.334 121.553 129.682 121.422C127.031 121.291 124.464 120.442 122.257 118.967L130.377 106.787L144.729 103.803C144.81 104.188 144.871 104.594 144.932 104.99C145.016 105.586 145.063 106.186 145.074 106.787Z" fill="black"/>
<path opacity="0.08" d="M131.189 130.873C131.625 130.873 131.757 131.015 131.757 131.452V132.385C132.523 132.46 133.254 132.742 133.871 133.202C134.489 133.662 134.968 134.281 135.259 134.994C135.492 135.451 135.401 135.694 134.883 135.928L133.96 136.354C133.523 136.557 133.32 136.466 133.067 136.019C132.869 135.548 132.526 135.153 132.088 134.892C131.649 134.631 131.138 134.517 130.631 134.568C129.017 134.568 128.286 135.065 128.296 136.141C128.333 136.471 128.484 136.777 128.723 137.007C128.963 137.237 129.275 137.376 129.605 137.4C130.056 137.502 130.514 137.57 130.976 137.603C131.836 137.642 132.687 137.802 133.503 138.08C133.909 138.207 134.288 138.411 134.62 138.678C134.957 139.03 135.221 139.445 135.395 139.9C135.57 140.355 135.651 140.841 135.635 141.328C135.635 143.358 134.274 144.799 131.828 145.174V146.189C131.828 146.616 131.696 146.778 131.26 146.778H130.245C129.808 146.778 129.656 146.636 129.656 146.2V145.235C128.808 145.181 127.994 144.877 127.317 144.363C126.64 143.848 126.13 143.146 125.85 142.343C125.81 142.258 125.789 142.165 125.789 142.071C125.789 141.976 125.811 141.884 125.852 141.799C125.893 141.714 125.952 141.64 126.025 141.581C126.099 141.522 126.185 141.481 126.276 141.46L127.21 141.114C127.677 140.942 127.89 141.053 128.103 141.531C128.299 142.039 128.656 142.468 129.121 142.752C129.585 143.037 130.13 143.16 130.671 143.104C132.417 143.104 133.28 142.535 133.28 141.419C133.291 141.159 133.215 140.904 133.064 140.692C132.913 140.481 132.696 140.326 132.447 140.252C131.844 140.036 131.21 139.917 130.57 139.896C129.701 139.855 128.845 139.677 128.032 139.369C127.63 139.228 127.256 139.018 126.926 138.749C126.588 138.415 126.323 138.014 126.149 137.572C125.974 137.13 125.893 136.656 125.911 136.181C125.911 134.151 127.169 132.761 129.595 132.416V131.492C129.595 131.056 129.737 130.903 130.174 130.903L131.189 130.873Z" fill="black"/>
<path d="M351.86 219.898H48.8215V230.891H351.86V219.898Z" fill="#E6E6E6"/>
<path d="M351.86 230.383H48.8215V255.291H351.86V230.383Z" fill="#C9C9C9"/>
<path opacity="0.08" d="M92.7406 220.233C92.7406 220.233 82.5906 246.329 58.5757 255.281H214.338L211.222 240.96L109.559 219.898L92.7406 220.233Z" fill="black"/>
<path d="M122.642 173.412C122.642 173.412 138.882 185.592 145.805 202.675C146.675 204.787 147.013 207.081 146.791 209.355C146.568 211.629 145.791 213.813 144.528 215.717C143.264 217.62 141.553 219.185 139.544 220.273C137.535 221.362 135.29 221.941 133.006 221.96L113.964 222.092L122.642 173.412Z" fill="#F4A28C"/>
<path d="M103.753 156.979L102.282 165.485L94.6284 166.043L99.2873 152.432L103.753 156.979Z" fill="#F4A28C"/>
<path d="M101.074 144.404C101.739 143.867 102.53 143.506 103.372 143.356C104.214 143.206 105.08 143.271 105.89 143.546C106.7 143.82 107.428 144.295 108.006 144.926C108.583 145.557 108.992 146.323 109.194 147.155C110.209 151.052 110.95 156.756 106.423 157.223C99.5106 157.934 98.3027 149.012 98.3027 149.012C98.754 147.237 99.7177 145.635 101.074 144.404Z" fill="#F4A28C"/>
<path d="M102.403 150.827C102.403 150.827 101.693 149.041 100.272 150.269C98.8509 151.497 100.749 153.476 101.855 153.06C102.962 152.644 102.403 150.827 102.403 150.827Z" fill="#F4A28C"/>
<path d="M74.2473 170.163C74.2473 170.163 92.7 159.922 109.113 166.042C138.994 177.207 137.35 197.213 116.37 254.611L88.8532 254.763L74.2473 170.163Z" fill="#9ED6BE"/>
<path opacity="0.08" d="M102.515 164.398C102.515 164.398 100.739 168.772 103.794 181.48C106.849 194.188 122.683 236.787 122.683 236.787L116.41 254.611H106.392L75.5872 169.483C75.5872 169.483 89.5028 162.266 102.515 164.398Z" fill="black"/>
<path d="M108.757 254.764C108.757 254.764 114.411 176.224 80.8853 170.164C47.3598 164.105 36.2253 192.91 55.8148 254.764H108.757Z" fill="#FFD200"/>
<path d="M100.566 254.764C100.566 254.764 106.23 176.224 72.7044 170.164C39.179 164.105 28.0444 192.91 47.6238 254.764H100.566Z" fill="#FFD200"/>
<path opacity="0.08" d="M100.566 254.764C100.566 254.764 106.23 176.224 72.7044 170.164C39.179 164.105 28.0444 192.91 47.6238 254.764H100.566Z" fill="black"/>
<path d="M92.8927 161.12C94.007 159.674 94.7497 157.977 95.0558 156.177C95.362 154.378 95.2222 152.53 94.6487 150.797C93.8062 148.138 93.8671 144.707 96.8817 141.155C103.571 133.228 113.122 138.82 109.955 143.327C106.788 147.834 105.052 149.874 105.052 149.874C105.052 149.874 116.593 162.054 110.574 169.402C105.225 175.949 83.3619 173.168 92.8927 161.12Z" fill="#24285B"/>
<path d="M197.062 156.979L195.591 165.485L187.938 166.043L192.596 152.432L197.062 156.979Z" fill="#F4A28C"/>
<path d="M194.383 144.404C195.048 143.867 195.839 143.506 196.681 143.356C197.523 143.206 198.389 143.271 199.199 143.546C200.01 143.82 200.737 144.295 201.315 144.926C201.892 145.557 202.301 146.323 202.503 147.155C203.518 151.052 204.249 156.756 199.732 157.223C192.82 157.934 191.612 149.012 191.612 149.012C192.063 147.237 193.027 145.635 194.383 144.404Z" fill="#F4A28C"/>
<path d="M195.712 150.827C195.712 150.827 195.002 149.041 193.581 150.269C192.16 151.497 194.058 153.476 195.164 153.06C196.271 152.644 195.712 150.827 195.712 150.827Z" fill="#F4A28C"/>
<path d="M197.438 149.335C197.438 149.335 195.986 158.47 191.551 155.496C187.115 152.522 191.459 150.553 190.972 145.864C190.485 141.175 193.002 139.52 198.138 138.414C200.513 137.906 201.965 137.856 203.01 137.48C203.461 137.302 203.95 137.241 204.43 137.303C204.911 137.365 205.368 137.548 205.759 137.835C206.149 138.122 206.46 138.504 206.663 138.944C206.866 139.385 206.954 139.869 206.918 140.353C206.542 143.966 204.421 147.924 197.438 149.335Z" fill="#24285B"/>
<path d="M167.556 170.163C167.556 170.163 186.009 159.922 202.421 166.042C232.303 177.207 230.557 197.913 209.526 255.362L182.7 255.149L167.556 170.163Z" fill="#9ED6BE"/>
<path opacity="0.08" d="M195.895 164.794C195.895 164.794 194.129 169.158 197.184 181.866C200.239 194.574 216.063 237.173 216.063 237.173L209.79 255.007H199.782L169.008 169.869C169.008 169.869 182.883 162.652 195.895 164.794Z" fill="black"/>
<path d="M202.422 255.312C202.422 255.312 207.71 176.224 174.194 170.164C140.679 164.105 129.534 192.91 149.114 254.764L202.422 255.312Z" fill="#FFD200"/>
<path d="M193.865 254.764C193.865 254.764 199.519 176.224 165.993 170.164C132.468 164.105 122.135 193.844 141.735 255.708L193.865 254.764Z" fill="#FFD200"/>
<path opacity="0.08" d="M193.865 255.221C193.865 255.221 199.569 176.224 166.044 170.164C132.518 164.105 122.186 193.844 141.785 255.708L193.865 255.221Z" fill="black"/>
<path d="M199.711 185.978C200.28 175.198 213.972 170.834 220.742 179.248C225.98 185.744 229.583 195.316 229.167 209.424C228.916 217.93 230.423 226.395 233.595 234.291C236.767 242.187 241.534 249.344 247.599 255.312H228.05C228.05 255.312 211.445 235.682 202.421 204.694C200.148 196.879 199.458 190.758 199.711 185.978Z" fill="#9ED6BE"/>
</svg>
