<svg width="406" height="306" viewBox="0 0 406 306" fill="none" xmlns="http://www.w3.org/2000/svg">
<path opacity="0.3" d="M137.025 53.7943C106.707 63.2846 55.3986 78.9054 47.0147 119.404C40.742 149.722 43.6449 228.902 100.81 248.248C177.706 274.293 310.326 261.605 339.01 203.192C357.432 165.698 362.355 90.0704 305.951 67.4461C267.737 52.1196 202.137 33.474 137.025 53.7943Z" fill="#E6E6E6"/>
<path d="M197.56 96.9004H192.099V141.905H197.56V96.9004Z" fill="#E6E6E6"/>
<path d="M290.781 89.1519L272.93 125.051L277.819 127.482L295.671 91.5833L290.781 89.1519Z" fill="#E6E6E6"/>
<path d="M213.992 179.237L210.526 183.457L255.805 220.65L259.271 216.43L213.992 179.237Z" fill="#E6E6E6"/>
<path d="M261.728 219.787C261.967 219.422 262.104 218.999 262.124 218.564C262.144 218.128 262.045 217.695 261.839 217.31L256.957 219.746C255.699 217.229 257.972 215.493 263.372 211.291C266.529 208.855 270.974 205.566 276.567 201.527C286.098 194.655 295.852 187.895 295.943 187.824L299.06 192.311C284.687 202.298 263.595 217.422 261.728 219.787Z" fill="#E6E6E6"/>
<path d="M217.21 161.201L215.292 156.085L272.964 134.364L339.964 130.994L340.248 136.455L274.091 139.784L217.21 161.201Z" fill="#E6E6E6"/>
<path d="M167.567 184.963L124.796 211.824L127.7 216.449L170.471 189.587L167.567 184.963Z" fill="#E6E6E6"/>
<path d="M144.095 126.375L140.004 129.992L166.968 160.481L171.059 156.863L144.095 126.375Z" fill="#E6E6E6"/>
<path d="M70.6643 168.316L68.0152 163.536L119.76 134.862L63.9653 92.577L67.2641 88.2227L129.747 135.572L70.6643 168.316Z" fill="#E6E6E6"/>
<path d="M227.939 167.727C227.942 161.813 226.495 155.988 223.724 150.763C220.954 145.538 216.945 141.071 212.048 137.755C207.151 134.439 201.515 132.374 195.635 131.741C189.755 131.108 183.809 131.927 178.319 134.125C172.828 136.323 167.96 139.834 164.141 144.35C160.323 148.866 157.669 154.249 156.414 160.029C155.158 165.808 155.339 171.807 156.94 177.5C158.541 183.194 161.514 188.408 165.597 192.686C170.727 198.155 173.557 205.386 173.504 212.884V214.123H209.303V213.209C209.373 205.604 212.398 198.324 217.738 192.909C224.296 186.169 227.957 177.131 227.939 167.727Z" fill="#FFD200"/>
<path d="M182.05 214.215C181.758 214.216 181.475 214.115 181.249 213.93C181.023 213.745 180.869 213.487 180.812 213.2L173.25 167.434C173.223 167.27 173.228 167.103 173.265 166.942C173.303 166.781 173.371 166.628 173.467 166.493C173.564 166.359 173.685 166.244 173.826 166.156C173.966 166.069 174.122 166.009 174.286 165.982C174.449 165.955 174.616 165.96 174.777 165.997C174.939 166.034 175.091 166.103 175.226 166.199C175.361 166.295 175.475 166.417 175.563 166.557C175.651 166.698 175.71 166.854 175.737 167.017L183.299 212.784C183.352 213.11 183.276 213.445 183.087 213.716C182.897 213.987 182.609 214.173 182.284 214.235L182.05 214.215Z" fill="white"/>
<path d="M200.97 214.214H200.757C200.432 214.152 200.144 213.966 199.954 213.694C199.765 213.423 199.688 213.089 199.742 212.762L207.304 166.996C207.359 166.666 207.543 166.372 207.815 166.178C208.087 165.984 208.425 165.905 208.755 165.961C209.085 166.016 209.379 166.2 209.573 166.472C209.767 166.744 209.845 167.082 209.79 167.412L202.229 213.178C202.176 213.472 202.02 213.738 201.789 213.927C201.559 214.117 201.268 214.218 200.97 214.214Z" fill="white"/>
<path d="M212.247 208.57H171.271V240.918H212.247V208.57Z" fill="#24285B"/>
<path d="M195.479 176.679C193.885 176.679 192.343 175.725 190.881 173.827C190.292 173.056 189.714 172.701 189.176 172.741C187.958 172.853 186.577 174.822 186.131 175.786C185.979 176.084 185.715 176.308 185.397 176.411C185.079 176.514 184.733 176.486 184.436 176.334C184.138 176.182 183.913 175.918 183.811 175.6C183.708 175.282 183.736 174.937 183.888 174.639C184.101 174.223 186.06 170.518 188.963 170.254C189.74 170.213 190.515 170.379 191.207 170.735C191.899 171.092 192.484 171.627 192.901 172.284C193.601 173.188 194.647 174.253 195.651 174.142C196.819 174.02 197.844 172.416 198.108 171.868C198.258 171.58 198.515 171.361 198.823 171.257C199.131 171.153 199.468 171.173 199.762 171.313C200.056 171.452 200.285 171.699 200.4 172.004C200.516 172.308 200.509 172.645 200.381 172.944C200.219 173.289 198.696 176.355 195.926 176.649L195.479 176.679Z" fill="white"/>
<path opacity="0.21" d="M214.737 152.333C216.666 147.884 213.614 142.277 207.92 139.808C202.227 137.34 196.048 138.945 194.119 143.394C192.19 147.843 195.242 153.45 200.936 155.919C206.629 158.387 212.808 156.782 214.737 152.333Z" fill="white"/>
<path d="M178.011 240.92H205.527C205.527 242.577 205.201 244.217 204.567 245.748C203.933 247.279 203.004 248.67 201.832 249.841C200.661 251.013 199.27 251.942 197.739 252.576C196.208 253.21 194.568 253.536 192.911 253.536H190.627C187.281 253.536 184.072 252.207 181.706 249.841C179.34 247.475 178.011 244.266 178.011 240.92Z" fill="#24285B"/>
<path d="M140.933 106.574H108.585C104.268 106.574 100.769 110.073 100.769 114.39V146.738C100.769 151.054 104.268 154.553 108.585 154.553H140.933C145.249 154.553 148.748 151.054 148.748 146.738V114.39C148.748 110.073 145.249 106.574 140.933 106.574Z" fill="#9ED6BE"/>
<path d="M289.701 115.525H257.353C253.037 115.525 249.538 119.025 249.538 123.341V155.689C249.538 160.005 253.037 163.504 257.353 163.504H289.701C294.018 163.504 297.517 160.005 297.517 155.689V123.341C297.517 119.025 294.018 115.525 289.701 115.525Z" fill="#9ED6BE"/>
<path opacity="0.09" d="M289.701 115.525H257.353C253.037 115.525 249.538 119.025 249.538 123.341V155.689C249.538 160.005 253.037 163.504 257.353 163.504H289.701C294.018 163.504 297.517 160.005 297.517 155.689V123.341C297.517 119.025 294.018 115.525 289.701 115.525Z" fill="black"/>
<path d="M134.234 187.287H101.886C97.5694 187.287 94.0703 190.786 94.0703 195.103V227.451C94.0703 231.767 97.5694 235.266 101.886 235.266H134.234C138.55 235.266 142.049 231.767 142.049 227.451V195.103C142.049 190.786 138.55 187.287 134.234 187.287Z" fill="#9ED6BE"/>
<path opacity="0.6" d="M134.234 187.287H101.886C97.5694 187.287 94.0703 190.786 94.0703 195.103V227.451C94.0703 231.767 97.5694 235.266 101.886 235.266H134.234C138.55 235.266 142.049 231.767 142.049 227.451V195.103C142.049 190.786 138.55 187.287 134.234 187.287Z" fill="white"/>
<path d="M271.279 200.908H247.518C244.351 200.908 241.783 203.476 241.783 206.643V230.404C241.783 233.571 244.351 236.139 247.518 236.139H271.279C274.446 236.139 277.014 233.571 277.014 230.404V206.643C277.014 203.476 274.446 200.908 271.279 200.908Z" fill="#9ED6BE"/>
<path d="M210.673 66.9082H178.995C174.774 66.9082 171.352 70.3301 171.352 74.5512V106.229C171.352 110.45 174.774 113.872 178.995 113.872H210.673C214.894 113.872 218.316 110.45 218.316 106.229V74.5512C218.316 70.3301 214.894 66.9082 210.673 66.9082Z" fill="#9ED6BE"/>
<path opacity="0.46" d="M210.673 66.9082H178.995C174.774 66.9082 171.352 70.3301 171.352 74.5512V106.229C171.352 110.45 174.774 113.872 178.995 113.872H210.673C214.894 113.872 218.316 110.45 218.316 106.229V74.5512C218.316 70.3301 214.894 66.9082 210.673 66.9082Z" fill="white"/>
<path d="M75.1202 74.4902H55.2973C52.657 74.4902 50.5166 76.6306 50.5166 79.2709V99.0938C50.5166 101.734 52.657 103.874 55.2973 103.874H75.1202C77.7605 103.874 79.9009 101.734 79.9009 99.0938V79.2709C79.9009 76.6306 77.7605 74.4902 75.1202 74.4902Z" fill="#9ED6BE"/>
<path opacity="0.46" d="M75.1202 74.4902H55.2973C52.657 74.4902 50.5166 76.6306 50.5166 79.2709V99.0938C50.5166 101.734 52.657 103.874 55.2973 103.874H75.1202C77.7605 103.874 79.9009 101.734 79.9009 99.0938V79.2709C79.9009 76.6306 77.7605 74.4902 75.1202 74.4902Z" fill="white"/>
<path d="M76.0133 156.014H62.6559C60.8733 156.014 59.4282 157.459 59.4282 159.241V172.599C59.4282 174.381 60.8733 175.826 62.6559 175.826H76.0133C77.7959 175.826 79.241 174.381 79.241 172.599V159.241C79.241 157.459 77.7959 156.014 76.0133 156.014Z" fill="#9ED6BE"/>
<path opacity="0.09" d="M76.0133 156.014H62.6559C60.8733 156.014 59.4282 157.459 59.4282 159.241V172.599C59.4282 174.381 60.8733 175.826 62.6559 175.826H76.0133C77.7959 175.826 79.241 174.381 79.241 172.599V159.241C79.241 157.459 77.7959 156.014 76.0133 156.014Z" fill="black"/>
<path d="M302.003 177.381H288.646C286.863 177.381 285.418 178.826 285.418 180.609V193.966C285.418 195.749 286.863 197.194 288.646 197.194H302.003C303.786 197.194 305.231 195.749 305.231 193.966V180.609C305.231 178.826 303.786 177.381 302.003 177.381Z" fill="#9ED6BE"/>
<path opacity="0.6" d="M302.003 177.381H288.646C286.863 177.381 285.418 178.826 285.418 180.609V193.966C285.418 195.749 286.863 197.194 288.646 197.194H302.003C303.786 197.194 305.231 195.749 305.231 193.966V180.609C305.231 178.826 303.786 177.381 302.003 177.381Z" fill="white"/>
<path d="M296.522 80.4883H283.165C281.382 80.4883 279.937 81.9334 279.937 83.716V97.0734C279.937 98.856 281.382 100.301 283.165 100.301H296.522C298.305 100.301 299.75 98.856 299.75 97.0734V83.716C299.75 81.9334 298.305 80.4883 296.522 80.4883Z" fill="#9ED6BE"/>
<path opacity="0.6" d="M296.522 80.4883H283.165C281.382 80.4883 279.937 81.9334 279.937 83.716V97.0734C279.937 98.856 281.382 100.301 283.165 100.301H296.522C298.305 100.301 299.75 98.856 299.75 97.0734V83.716C299.75 81.9334 298.305 80.4883 296.522 80.4883Z" fill="white"/>
<path d="M349.972 114.643H327.165C324.121 114.643 321.654 117.11 321.654 120.154V142.961C321.654 146.005 324.121 148.473 327.165 148.473H349.972C353.016 148.473 355.484 146.005 355.484 142.961V120.154C355.484 117.11 353.016 114.643 349.972 114.643Z" fill="#9ED6BE"/>
<path d="M152.646 67.4961H129.748V90.3945H152.646V67.4961Z" fill="#E6E6E6"/>
<path d="M259.272 84.8926H242.23V97.5496H259.272V84.8926Z" fill="#E6E6E6"/>
</svg>
