<svg width="512" height="386" viewBox="0 0 512 386" fill="none" xmlns="http://www.w3.org/2000/svg">
<path opacity="0.3" d="M133.423 84.8402C90.0416 100.85 60.6584 117.363 54.3529 166.274C49.0564 207.495 56.1184 289.306 131.405 302.29C277.817 327.502 413.888 324.098 440.245 254.136C467.232 182.409 475.555 108.413 393.584 90.7649C335.575 78.2852 218.168 53.7039 133.423 84.8402Z" fill="#E6E6E6"/>
<path d="M377.191 67.6953H170.625V323.971H377.191V67.6953Z" fill="#E6E6E6"/>
<path opacity="0.08" d="M377.191 67.6953H170.625V140.809H377.191V67.6953Z" fill="black"/>
<path opacity="0.44" d="M194.082 78.7891H353.861C357.77 78.7891 360.923 81.9405 360.923 85.8483V122.783C360.923 126.691 357.77 129.843 353.861 129.843H194.082C190.172 129.843 187.02 126.691 187.02 122.783V85.8483C187.02 81.9405 190.172 78.7891 194.082 78.7891Z" fill="white"/>
<path opacity="0.08" d="M225.734 159.844H184.875V189.593H225.734V159.844Z" fill="black"/>
<path opacity="0.08" d="M271.765 159.844H230.906V189.593H271.765V159.844Z" fill="black"/>
<path opacity="0.08" d="M317.922 159.844H277.062V189.593H317.922V159.844Z" fill="black"/>
<path opacity="0.08" d="M364.074 159.844H323.215V189.593H364.074V159.844Z" fill="black"/>
<path opacity="0.08" d="M225.734 196.906H184.875V226.656H225.734V196.906Z" fill="black"/>
<path opacity="0.08" d="M271.765 196.906H230.906V226.656H271.765V196.906Z" fill="black"/>
<path opacity="0.08" d="M317.922 196.906H277.062V226.656H317.922V196.906Z" fill="black"/>
<path opacity="0.08" d="M364.074 196.906H323.215V226.656H364.074V196.906Z" fill="black"/>
<path opacity="0.08" d="M225.734 233.961H184.875V263.711H225.734V233.961Z" fill="black"/>
<path opacity="0.08" d="M271.765 233.961H230.906V263.711H271.765V233.961Z" fill="black"/>
<path opacity="0.08" d="M317.922 233.961H277.062V263.711H317.922V233.961Z" fill="black"/>
<path opacity="0.08" d="M271.89 271.023H184.875V300.773H271.89V271.023Z" fill="black"/>
<path opacity="0.08" d="M317.922 271.023H277.062V300.773H317.922V271.023Z" fill="black"/>
<path d="M364.074 233.961H323.215V300.772H364.074V233.961Z" fill="#FFD200"/>
<path opacity="0.2" d="M247.804 184.801C254.629 184.801 260.163 179.27 260.163 172.447C260.163 165.625 254.629 160.094 247.804 160.094C240.978 160.094 235.445 165.625 235.445 172.447C235.445 179.27 240.978 184.801 247.804 184.801Z" fill="#FFD200"/>
<path opacity="0.08" d="M250.075 189.719L221.574 231.948L197.866 226.78L175.797 192.996V246.445C187.525 256.277 204.297 267.875 215.647 264.471C234.563 258.799 262.433 231.696 250.075 189.719Z" fill="black"/>
<path d="M247.804 178.627C251.217 178.627 253.984 175.862 253.984 172.45C253.984 169.039 251.217 166.273 247.804 166.273C244.392 166.273 241.625 169.039 241.625 172.45C241.625 175.862 244.392 178.627 247.804 178.627Z" fill="#FFD200"/>
<path d="M109.463 178.375C109.463 178.375 80.8368 199.805 96.0959 245.942C111.355 292.079 143.891 269.641 143.891 269.641V231.95L109.463 178.375Z" fill="#9ED6BE"/>
<path opacity="0.46" d="M109.463 178.375C109.463 178.375 80.8368 199.805 96.0959 245.942C111.355 292.079 143.891 269.641 143.891 269.641V231.95L109.463 178.375Z" fill="white"/>
<path d="M181.851 337.836L187.652 342.374C188.283 342.878 188.409 343.635 187.904 344.265C187.652 344.643 187.274 344.769 186.769 344.769H179.455C177.311 344.769 175.672 343.004 175.672 340.987V337.836H181.851Z" fill="#9ED6BE"/>
<path d="M120.56 337.836L114.759 342.374C114.128 342.878 114.002 343.635 114.507 344.265C114.759 344.643 115.137 344.769 115.642 344.769H122.956C125.1 344.769 126.739 343.004 126.739 340.987V337.836H120.56Z" fill="#9ED6BE"/>
<path d="M143.891 172.445L144.899 156.183C144.899 156.183 146.034 145.721 151.331 147.611C156.628 149.502 162.05 159.839 159.276 162.99C157.763 164.755 156.123 163.621 154.105 163.873C152.34 163.999 152.592 163.747 152.592 165.512V171.688L143.891 172.445Z" fill="#F4A28C"/>
<path d="M138.72 171.691C138.72 171.691 106.058 168.791 101.77 190.852C97.4823 212.912 127.874 254.511 127.874 254.511L170.247 252.872C170.247 252.872 236.075 160.345 138.72 171.691Z" fill="#9ED6BE"/>
<path opacity="0.08" d="M167.473 180.516C167.473 180.516 142.125 195.895 154.61 219.089C162.555 234.09 142.125 253.881 142.125 253.881L170.247 252.747C170.247 252.747 180.462 237.494 182.606 231.569C184.75 225.77 167.473 180.516 167.473 180.516Z" fill="black"/>
<path d="M127.874 254.514L118.164 337.838H127.622L148.682 270.901L172.391 337.838H183.11L170.247 252.875L127.874 254.514Z" fill="#24285B"/>
<path d="M143.892 165.642H149.063C149.063 165.642 150.198 156.188 153.729 154.423C157.26 152.658 160.917 149.255 157.764 146.103C154.612 142.952 149.946 139.422 144.649 143.078C139.353 146.86 137.335 155.81 143.892 165.642Z" fill="#24285B"/>
<path d="M164.948 185.809C166.461 178.876 173.271 174.464 180.081 175.977C182.225 176.481 184.117 177.363 185.756 178.75C189.791 182.28 193.827 187.574 196.601 195.768C199.754 205.096 204.42 213.92 210.473 221.736C213.121 225.013 217.787 225.518 221.066 222.87C221.949 222.24 222.58 221.358 223.084 220.475L239.983 187.07L249.945 192.617C249.945 192.617 238.343 242.283 221.066 247.074C205.807 251.486 156.751 222.492 164.948 185.809Z" fill="#9ED6BE"/>
<path opacity="0.46" d="M164.948 185.809C166.461 178.876 173.271 174.464 180.081 175.977C182.225 176.481 184.117 177.363 185.756 178.75C189.791 182.28 193.827 187.574 196.601 195.768C199.754 205.096 204.42 213.92 210.473 221.736C213.121 225.013 217.787 225.518 221.066 222.87C221.949 222.24 222.58 221.358 223.084 220.475L239.983 187.07L249.945 192.617C249.945 192.617 238.343 242.283 221.066 247.074C205.807 251.486 156.751 222.492 164.948 185.809Z" fill="white"/>
<path d="M242.129 188.334C242.129 188.334 244.021 172.072 247.93 170.686C251.965 169.425 247.93 180.518 247.93 180.518C247.93 180.518 258.901 181.779 249.948 192.62L242.129 188.334Z" fill="#F4A28C"/>
</svg>
