<svg width="406" height="306" viewBox="0 0 406 306" fill="none" xmlns="http://www.w3.org/2000/svg">
<path opacity="0.3" d="M107.813 60.5126C74.8563 72.8144 50.4151 104.087 45.5938 141.885C41.5338 173.746 51.2372 208.946 108.361 218.974C219.514 238.483 323.612 244.045 350.175 191.397C376.738 138.749 368.587 48.5661 312.184 42.7298C267.341 38.0913 172.164 36.447 107.813 60.5126Z" fill="#E6E6E6"/>
<path opacity="0.43" d="M380.067 150.169C380.067 149.285 379.893 148.411 379.554 147.595C379.216 146.779 378.72 146.038 378.095 145.414C377.47 144.79 376.728 144.295 375.912 143.958C375.095 143.621 374.221 143.448 373.337 143.449C372.977 143.449 372.617 143.48 372.261 143.541C371.487 142.099 370.336 140.894 368.931 140.053C367.527 139.213 365.92 138.77 364.283 138.77H363.949C364.169 137.918 364.281 137.042 364.283 136.162C364.328 134.722 364.082 133.287 363.562 131.944C363.041 130.601 362.256 129.375 361.253 128.341C360.25 127.307 359.05 126.485 357.723 125.923C356.396 125.362 354.97 125.072 353.53 125.072C352.089 125.072 350.663 125.362 349.336 125.923C348.009 126.485 346.809 127.307 345.806 128.341C344.803 129.375 344.018 130.601 343.497 131.944C342.977 133.287 342.731 134.722 342.776 136.162C342.768 137.047 342.867 137.929 343.07 138.791H342.745C341.53 138.75 340.319 138.954 339.185 139.391C338.05 139.828 337.015 140.489 336.141 141.334C335.267 142.179 334.572 143.192 334.097 144.311C333.623 145.43 333.378 146.634 333.378 147.849C333.378 149.065 333.623 150.269 334.097 151.388C334.572 152.507 335.267 153.52 336.141 154.365C337.015 155.21 338.05 155.871 339.185 156.308C340.319 156.745 341.53 156.949 342.745 156.908H374.21V156.847C375.832 156.637 377.321 155.843 378.399 154.614C379.478 153.384 380.07 151.804 380.067 150.169Z" fill="#DDDBDB"/>
<path opacity="0.45" d="M200.747 262.731C288.93 262.731 360.416 258.214 360.416 252.642C360.416 247.07 288.93 242.553 200.747 242.553C112.564 242.553 41.077 247.07 41.077 252.642C41.077 258.214 112.564 262.731 200.747 262.731Z" fill="#E6E6E6"/>
<path d="M140.709 162.135L170.987 139.379C177.353 134.596 185.1 132.01 193.063 132.01H270.203C278.377 131.997 286.425 134.019 293.623 137.892C300.82 141.765 306.941 147.369 311.432 154.198C323.897 173.229 335.051 202.258 317.056 232.16H66.7159V206.206C66.7128 200.817 68.5367 195.585 71.8899 191.365C75.2431 187.146 79.9276 184.187 85.1788 182.973C102.515 178.954 127.799 171.838 140.709 162.135Z" fill="#9ED6BE"/>
<path opacity="0.03" d="M154.909 217.463V194.473C154.909 191.437 156.116 188.525 158.263 186.377C160.41 184.23 163.322 183.024 166.359 183.024H276.933C281.269 182.989 285.458 184.596 288.658 187.521C291.859 190.447 293.834 194.475 294.188 198.797C294.635 203.359 293.668 207.948 291.417 211.941L278.77 217.463H154.909Z" fill="black"/>
<path d="M323.328 217.463H65.5081C63.7703 217.463 62.3616 218.872 62.3616 220.609V229.024C62.3616 230.762 63.7703 232.17 65.5081 232.17H323.328C325.066 232.17 326.475 230.762 326.475 229.024V220.609C326.475 218.872 325.066 217.463 323.328 217.463Z" fill="#9ED6BE"/>
<path opacity="0.46" d="M323.328 217.463H65.5081C63.7703 217.463 62.3616 218.872 62.3616 220.609V229.024C62.3616 230.762 63.7703 232.17 65.5081 232.17H323.328C325.066 232.17 326.475 230.762 326.475 229.024V220.609C326.475 218.872 325.066 217.463 323.328 217.463Z" fill="white"/>
<path d="M298.075 253.141C310.822 253.141 321.156 242.807 321.156 230.06C321.156 217.312 310.822 206.979 298.075 206.979C285.328 206.979 274.994 217.312 274.994 230.06C274.994 242.807 285.328 253.141 298.075 253.141Z" fill="#24285B"/>
<path d="M298.075 243.456C305.475 243.456 311.473 237.458 311.473 230.058C311.473 222.659 305.475 216.66 298.075 216.66C290.676 216.66 284.677 222.659 284.677 230.058C284.677 237.458 290.676 243.456 298.075 243.456Z" fill="white"/>
<path d="M137.238 230.06C137.24 234.627 135.888 239.093 133.352 242.891C130.815 246.69 127.21 249.651 122.991 251.4C118.771 253.15 114.128 253.608 109.648 252.719C105.168 251.829 101.053 249.63 97.8225 246.401C94.5921 243.172 92.3919 239.058 91.5001 234.578C90.6083 230.099 91.065 225.455 92.8124 221.235C94.5598 217.016 97.5195 213.409 101.317 210.871C105.115 208.333 109.579 206.979 114.147 206.979C117.18 206.975 120.183 207.569 122.986 208.727C125.789 209.886 128.335 211.585 130.48 213.729C132.625 215.873 134.326 218.419 135.486 221.221C136.645 224.024 137.241 227.027 137.238 230.06Z" fill="#24285B"/>
<path d="M114.147 243.456C121.546 243.456 127.545 237.458 127.545 230.058C127.545 222.659 121.546 216.66 114.147 216.66C106.747 216.66 100.749 222.659 100.749 230.058C100.749 237.458 106.747 243.456 114.147 243.456Z" fill="white"/>
<path d="M177.26 147.143L154.93 168.549C154.373 169.083 153.989 169.771 153.826 170.525C153.663 171.278 153.73 172.064 154.017 172.779C154.304 173.495 154.798 174.109 155.436 174.542C156.075 174.974 156.828 175.206 157.599 175.208H282.271C283.392 175.208 284.496 174.941 285.493 174.429C286.489 173.917 287.349 173.174 288.001 172.263C288.653 171.352 289.079 170.298 289.242 169.19C289.405 168.082 289.302 166.95 288.94 165.89L284.383 152.512C283.382 149.575 281.488 147.025 278.965 145.219C276.442 143.414 273.417 142.443 270.315 142.443H188.952C184.595 142.445 180.406 144.128 177.26 147.143Z" fill="#24285B"/>
<path d="M295.801 139.145C295.801 139.145 289.955 164.52 323.085 178.242C323.085 178.242 317.472 150.553 295.801 139.145Z" fill="#24285B"/>
<path opacity="0.03" d="M111.305 195.427C110.724 195.375 110.18 195.118 109.77 194.702C109.361 194.286 109.112 193.738 109.068 193.156C109.024 192.574 109.188 191.996 109.531 191.523C109.874 191.051 110.373 190.715 110.939 190.576C116.688 189.069 122.761 189.363 128.337 191.418C133.776 193.346 138.657 196.584 142.547 200.848C143.17 201.554 143.595 202.413 143.776 203.338C143.958 204.262 143.89 205.218 143.58 206.108C143.27 206.997 142.729 207.788 142.012 208.4C141.296 209.011 140.429 209.421 139.502 209.587C138.391 209.793 137.243 209.643 136.223 209.156C135.204 208.669 134.365 207.871 133.828 206.877C131.777 202.949 126.205 196.93 111.305 195.427Z" fill="black"/>
<path d="M218.651 139.145L216.165 182.099H238.505L231.308 139.145H218.651Z" fill="#9ED6BE"/>
<path d="M289.945 209.668H154.909V211.942H289.945V209.668Z" fill="#24285B"/>
<path d="M192.353 183.023H182.03C180.461 183.023 179.188 184.296 179.188 185.865V186.779C179.188 188.349 180.461 189.621 182.03 189.621H192.353C193.922 189.621 195.195 188.349 195.195 186.779V185.865C195.195 184.296 193.922 183.023 192.353 183.023Z" fill="white"/>
<path d="M281.825 183.023H271.502C269.933 183.023 268.66 184.296 268.66 185.865V186.779C268.66 188.349 269.933 189.621 271.502 189.621H281.825C283.394 189.621 284.667 188.349 284.667 186.779V185.865C284.667 184.296 283.394 183.023 281.825 183.023Z" fill="white"/>
<path opacity="0.16" d="M252.897 142.443L259.607 175.208H276.791L266.803 142.443H252.897Z" fill="#BED9F4"/>
<path opacity="0.16" d="M189.054 142.443L195.753 175.208H212.937L202.949 142.443H189.054Z" fill="#BED9F4"/>
<path d="M169.596 164.084H157.975C155.104 164.084 152.778 166.411 152.778 169.281V170.935C152.778 173.805 155.104 176.132 157.975 176.132H169.596C172.466 176.132 174.793 173.805 174.793 170.935V169.281C174.793 166.411 172.466 164.084 169.596 164.084Z" fill="#9ED6BE"/>
<path opacity="0.46" d="M169.596 164.084H157.975C155.104 164.084 152.778 166.411 152.778 169.281V170.935C152.778 173.805 155.104 176.132 157.975 176.132H169.596C172.466 176.132 174.793 173.805 174.793 170.935V169.281C174.793 166.411 172.466 164.084 169.596 164.084Z" fill="white"/>
<path d="M71.5372 191.834H89.32C89.8404 191.832 90.3517 191.97 90.8001 192.234C91.2485 192.498 91.6174 192.878 91.8678 193.335C92.1183 193.791 92.241 194.306 92.2231 194.826C92.2052 195.346 92.0473 195.852 91.7661 196.29L87.0261 203.679C86.3787 204.691 85.4871 205.523 84.4335 206.1C83.3798 206.676 82.198 206.978 80.997 206.978H66.787V205.1C66.7856 200.249 68.4925 195.552 71.6082 191.834H71.5372Z" fill="white"/>
<path d="M304.886 105.214C316.086 105.214 325.165 96.1342 325.165 84.934C325.165 73.7338 316.086 64.6543 304.886 64.6543C293.686 64.6543 284.606 73.7338 284.606 84.934C284.606 96.1342 293.686 105.214 304.886 105.214Z" fill="#FFD200"/>
<path opacity="0.15" d="M304.886 116.633C322.392 116.633 336.584 102.441 336.584 84.9348C336.584 67.4282 322.392 53.2363 304.886 53.2363C287.379 53.2363 273.187 67.4282 273.187 84.9348C273.187 102.441 287.379 116.633 304.886 116.633Z" fill="#FFD200"/>
<path d="M212.257 70.724C212.254 67.9996 211.171 65.3874 209.246 63.4601C207.32 61.5327 204.709 60.4474 201.985 60.442C201.431 60.4477 200.878 60.4952 200.331 60.5841C199.148 58.3813 197.392 56.5397 195.247 55.2548C193.103 53.9699 190.65 53.2897 188.151 53.2863H187.653C187.98 51.9816 188.146 50.6422 188.151 49.2973C188.205 47.103 187.82 44.9199 187.018 42.8766C186.216 40.8333 185.013 38.9712 183.48 37.3999C181.947 35.8287 180.116 34.5799 178.093 33.7274C176.07 32.8748 173.898 32.4355 171.702 32.4355C169.507 32.4355 167.335 32.8748 165.312 33.7274C163.289 34.5799 161.457 35.8287 159.925 37.3999C158.392 38.9712 157.189 40.8333 156.387 42.8766C155.585 44.9199 155.2 47.103 155.254 49.2973C155.257 50.6429 155.427 51.983 155.762 53.2863C155.589 53.2863 155.427 53.2863 155.254 53.2863C151.643 53.384 148.213 54.8871 145.694 57.4757C143.174 60.0642 141.765 63.5339 141.765 67.1461C141.765 70.7583 143.174 74.228 145.694 76.8165C148.213 79.4051 151.643 80.9082 155.254 81.0059H203.355V80.9349C205.823 80.5983 208.086 79.378 209.723 77.5003C211.36 75.6226 212.26 73.215 212.257 70.724Z" fill="#EFEFEF"/>
<path d="M83.8695 140.464C83.8721 139.579 83.7001 138.701 83.3631 137.883C83.0261 137.064 82.5308 136.32 81.9057 135.693C81.2805 135.065 80.5377 134.568 79.72 134.229C78.9022 133.889 78.0255 133.714 77.14 133.714C76.7763 133.719 76.4133 133.749 76.054 133.806C75.2787 132.364 74.1277 131.16 72.7231 130.32C71.3185 129.48 69.7127 129.036 68.0761 129.035H67.7411C67.9617 128.183 68.0742 127.307 68.0761 126.427C67.9902 123.632 66.8196 120.98 64.8122 119.033C62.8048 117.087 60.1184 115.998 57.3221 115.998C54.5259 115.998 51.8395 117.087 49.8321 119.033C47.8247 120.98 46.6541 123.632 46.5682 126.427C46.5718 127.306 46.6808 128.182 46.893 129.035H46.5682C44.1643 129.035 41.8589 129.99 40.159 131.69C38.4592 133.39 37.5043 135.695 37.5043 138.099C37.5043 140.503 38.4592 142.808 40.159 144.508C41.8589 146.208 44.1643 147.163 46.5682 147.163H78.0332V147.102C79.6426 146.885 81.1192 146.093 82.1915 144.873C83.2638 143.654 83.8597 142.088 83.8695 140.464Z" fill="#DDDBDB"/>
</svg>
