<svg width="406" height="306" viewBox="0 0 406 306" fill="none" xmlns="http://www.w3.org/2000/svg">
<path d="M85.4124 178.203V174.701C85.4124 173.43 85.9171 172.212 86.8155 171.313C87.714 170.415 88.9326 169.91 90.2032 169.91H94.6996C95.9667 169.916 97.18 170.423 98.0741 171.321C98.9682 172.218 99.4701 173.434 99.4701 174.701V178.467" stroke="#24285B" stroke-width="2.03" stroke-miterlimit="10"/>
<path d="M143.166 98.1906C147.108 106.047 149.754 114.489 151.001 123.19C151.433 125.95 152.638 128.53 154.475 130.634C156.313 132.737 158.708 134.277 161.385 135.076L184.456 141.836L182.639 147.926L162.948 145.581C146.129 143.551 131.869 131.716 127.585 115.324C126.144 109.822 125.89 104.159 127.9 98.9315C128.498 97.4369 129.513 96.1455 130.824 95.2111C132.135 94.2766 133.687 93.7383 135.295 93.6603C136.903 93.5822 138.5 93.9677 139.895 94.7708C141.29 95.5739 142.425 96.7609 143.166 98.1906Z" fill="#9ED6BE"/>
<path opacity="0.08" d="M143.166 98.1906C147.108 106.047 149.754 114.489 151.001 123.19C151.433 125.95 152.638 128.53 154.475 130.634C156.313 132.737 158.708 134.277 161.385 135.076L184.456 141.836L182.639 147.926L162.948 145.581C146.129 143.551 131.869 131.716 127.585 115.324C126.144 109.822 125.89 104.159 127.9 98.9315C128.498 97.4369 129.513 96.1455 130.824 95.2111C132.135 94.2766 133.687 93.7383 135.295 93.6603C136.903 93.5822 138.5 93.9677 139.895 94.7708C141.29 95.5739 142.425 96.7609 143.166 98.1906Z" fill="black"/>
<path d="M300.511 51.2148H295.842V127.137H300.511V51.2148Z" fill="#9ED6BE"/>
<path opacity="0.45" d="M202.147 279.703C299.126 279.703 377.742 274.672 377.742 268.467C377.742 262.261 299.126 257.23 202.147 257.23C105.169 257.23 26.5525 262.261 26.5525 268.467C26.5525 274.672 105.169 279.703 202.147 279.703Z" fill="#E6E6E6"/>
<path d="M162.715 198.127C162.715 198.127 164.308 200.543 166.775 200.157C169.241 199.771 170.398 201.964 168.399 203.09C166.399 204.217 160.197 202.796 160.197 202.796L159.335 198.381L162.715 198.127Z" fill="#9ED6BE"/>
<path d="M91.6138 218.101C91.6138 218.101 90.2334 220.639 91.7153 222.618C93.1972 224.597 91.8269 226.678 89.8883 225.43C87.9496 224.181 86.2749 218.061 86.2749 218.061L89.7665 215.219L91.6138 218.101Z" fill="#9ED6BE"/>
<path d="M141.46 226.902H78.7437V266.264H141.46V226.902Z" fill="#E6E6E6"/>
<path d="M204.177 203.547H141.46V266.264H204.177V203.547Z" fill="#E6E6E6"/>
<path d="M266.894 167.789H204.177V266.264H266.894V167.789Z" fill="#E6E6E6"/>
<path d="M329.083 130H266.366V266.264H329.083V130Z" fill="#E6E6E6"/>
<path d="M123.83 68.6127C124.304 70.9494 124.458 73.3397 124.287 75.7177C124.251 75.9974 124.159 76.2671 124.018 76.5111C123.876 76.755 123.687 76.9683 123.462 77.1384C123.237 77.3085 122.981 77.432 122.708 77.5018C122.434 77.5716 122.15 77.5862 121.871 77.5447C120.967 77.4696 120.103 77.1358 119.383 76.5833C118.663 76.0308 118.117 75.2828 117.811 74.4287L116.126 70.8762C115.861 70.1296 115.835 69.3191 116.051 68.5571C116.268 67.795 116.716 67.1192 117.334 66.6233C119.465 64.5933 123.404 66.0448 123.83 68.6127Z" fill="#F4A28C"/>
<path d="M116.37 71.4844L115.75 85.4406L123.464 85.2275L120.815 75.1587L116.37 71.4844Z" fill="#F4A28C"/>
<path d="M119.709 72.7543C119.709 72.7543 119.486 71.1303 118.278 71.3942C117.07 71.6581 117.364 74.0129 119.059 74.0434L119.709 72.7543Z" fill="#F4A28C"/>
<path d="M124.195 71.2715L125.555 72.8143C125.632 72.8991 125.686 73.0019 125.713 73.1132C125.739 73.2245 125.737 73.3407 125.707 73.451C125.676 73.5613 125.619 73.6622 125.539 73.7443C125.459 73.8264 125.36 73.887 125.251 73.9206L123.667 74.4078L124.195 71.2715Z" fill="#F4A28C"/>
<path opacity="0.31" d="M121.485 77.3422C120.508 77.208 119.591 76.7918 118.846 76.1445C119.364 78.0982 120.605 79.782 122.318 80.8541L121.485 77.3422Z" fill="#CE8172"/>
<path d="M310.61 119.039H286.25V130.001H310.61V119.039Z" fill="#24285B"/>
<path d="M295.832 51.2148H248.239V86.2831H295.832V51.2148Z" fill="#FFD200"/>
<path d="M272.04 78.3476C277.338 78.3476 281.632 74.0532 281.632 68.7558C281.632 63.4584 277.338 59.1641 272.04 59.1641C266.743 59.1641 262.448 63.4584 262.448 68.7558C262.448 74.0532 266.743 78.3476 272.04 78.3476Z" fill="#24285B"/>
<path d="M272.446 62.7871C272.761 62.7871 272.852 62.8988 272.852 63.2134V63.8833C273.402 63.9407 273.926 64.1468 274.368 64.4794C274.81 64.812 275.152 65.2586 275.359 65.7712C275.522 66.096 275.451 66.2787 275.085 66.4411L274.415 66.7355C274.111 66.8877 273.959 66.8167 273.776 66.4919C273.633 66.1596 273.387 65.8819 273.075 65.6992C272.763 65.5166 272.4 65.4387 272.04 65.4769C270.883 65.4769 270.345 65.8118 270.345 66.5934C270.345 67.1009 270.812 67.4054 271.289 67.5069C271.624 67.5784 271.963 67.6293 272.304 67.6591C272.923 67.6858 273.535 67.802 274.121 68.0042C274.41 68.105 274.681 68.2525 274.923 68.4407C275.165 68.6943 275.353 68.9939 275.477 69.3217C275.6 69.6495 275.657 69.9988 275.644 70.3489C275.644 71.8409 274.629 72.8458 272.893 73.0995V73.8303C272.893 74.145 272.802 74.2566 272.487 74.2566H271.736C271.421 74.2566 271.31 74.145 271.31 73.8303V73.1401C270.699 73.0978 270.115 72.8757 269.631 72.5018C269.147 72.1278 268.784 71.6188 268.589 71.0391C268.56 70.9778 268.545 70.9107 268.546 70.8429C268.547 70.7751 268.563 70.7084 268.593 70.6477C268.624 70.5871 268.667 70.5341 268.721 70.4929C268.775 70.4517 268.838 70.4232 268.904 70.4098L269.574 70.1662C269.909 70.0444 270.061 70.1662 270.213 70.4707C270.358 70.8219 270.611 71.1172 270.937 71.3128C271.262 71.5084 271.642 71.594 272.02 71.5567C273.268 71.5567 273.898 71.1609 273.898 70.359C273.906 70.1733 273.853 69.99 273.747 69.8376C273.64 69.6852 273.486 69.5724 273.309 69.5166C272.878 69.3633 272.426 69.2777 271.969 69.2628C271.344 69.2246 270.728 69.0911 270.142 68.867C269.851 68.7679 269.582 68.6127 269.351 68.4102C269.106 68.1703 268.914 67.8822 268.786 67.5643C268.659 67.2463 268.599 66.9053 268.61 66.5629C268.61 65.0912 269.543 64.1066 271.279 63.8833V63.2134C271.279 62.8988 271.391 62.7871 271.705 62.7871H272.446Z" fill="white"/>
<path d="M310.61 236.596H286.25V266.264H310.61V236.596Z" fill="#9ED6BE"/>
<path opacity="0.19" d="M286.94 142.617H280.028V223.127H286.94V142.617Z" fill="#A5A5A5"/>
<path opacity="0.19" d="M302.663 142.617H295.751V223.127H302.663V142.617Z" fill="#A5A5A5"/>
<path opacity="0.19" d="M318.385 142.617H311.473V223.127H318.385V142.617Z" fill="#A5A5A5"/>
<path opacity="0.19" d="M266.367 167.789H253.425V266.264H266.367V167.789Z" fill="#A5A5A5"/>
<path opacity="0.19" d="M203.913 203.719H190.972V266.263H203.913V203.719Z" fill="#A5A5A5"/>
<path opacity="0.19" d="M140.953 227.703H128.012V266.273H140.953V227.703Z" fill="#A5A5A5"/>
<path d="M101.784 154.229C101.784 154.229 98.7391 167.545 107.783 170.134C111.985 171.341 121.993 170.479 131.453 169.22C137.219 168.463 143.053 169.985 147.715 173.464C152.376 176.942 155.496 182.102 156.411 187.845L158.056 198.127H162.633V179.472C162.634 172.978 160.079 166.745 155.52 162.12C150.962 157.495 144.766 154.85 138.273 154.756L101.784 154.229Z" fill="#24285B"/>
<path d="M106.575 161.395L104.383 175.848C102.545 187.935 98.1316 199.486 91.4413 209.719L87.4727 215.809L92.365 218.975L94.5574 216.854C106.82 205.062 115.97 190.416 121.191 174.224L124.469 164.074L106.575 161.395Z" fill="#24285B"/>
<path d="M116.268 73.6667L114.786 67.9624C114.786 67.9624 112.35 66.3993 114.116 64.6129C115.883 62.8265 117.324 64.278 118.765 61.7202C118.966 61.249 119.305 60.85 119.738 60.5759C120.17 60.3018 120.676 60.1657 121.188 60.1855C121.7 60.2053 122.193 60.3801 122.604 60.6868C123.014 60.9935 123.321 61.4176 123.485 61.9029C124.043 63.6081 127.941 63.06 127.159 65.5569C126.378 68.0538 122.856 68.1756 121.861 68.206C117.496 68.3278 121.252 74.1336 116.268 73.6667Z" fill="#24285B"/>
<path d="M116.989 85.096L118.542 84.8219C122.084 84.1552 125.733 84.3236 129.199 85.3138C132.664 86.3041 135.852 88.0888 138.507 90.5262C140.781 92.6653 142.586 95.2543 143.805 98.1286C149.246 110.826 133.188 154.684 133.188 154.684L101.784 154.228C101.784 154.228 80.5809 88.9124 116.989 85.096Z" fill="#9ED6BE"/>
<path opacity="0.08" d="M127.261 96.8304C127.273 101.007 126.233 105.118 124.238 108.787C122.242 112.455 119.355 115.562 115.842 117.821C103.662 125.859 117.537 154.685 117.537 154.685L101.784 154.229C101.784 154.229 96.354 135.746 96.0698 125.92C95.7856 116.095 100.089 96.4955 127.261 96.8304Z" fill="black"/>
<path d="M112.99 85.7664C115.728 85.1192 118.603 85.405 121.16 86.5784C124.084 87.9791 127.047 90.8617 127.25 96.8299C127.677 108.776 83.6867 101.306 94.0498 164.672L87.0869 166.398C87.0869 166.398 63.6607 96.7385 112.99 85.7664Z" fill="#9ED6BE"/>
<path opacity="0.46" d="M112.99 85.7664C115.728 85.1192 118.603 85.405 121.16 86.5784C124.084 87.9791 127.047 90.8617 127.25 96.8299C127.677 108.776 83.6867 101.306 94.0498 164.672L87.0869 166.398C87.0869 166.398 63.6607 96.7385 112.99 85.7664Z" fill="white"/>
<path d="M88.6299 166.022C88.6299 166.022 89.1374 172.01 91.8982 172.183C94.659 172.355 98.1201 170.975 94.0601 164.672L88.6299 166.022Z" fill="#F4A28C"/>
<path d="M184.162 142.85C184.162 142.85 188.77 143.388 190.323 146.372C191.876 149.356 182.903 147.042 182.903 147.042L184.162 142.85Z" fill="#F4A28C"/>
<path d="M110.107 176.822H75.8916V199.112H110.107V176.822Z" fill="#FFD200"/>
<path opacity="0.08" d="M75.8916 187.277C75.8916 187.277 88.7111 198.29 110.107 195.052V199.112H75.8916V187.277Z" fill="black"/>
<path opacity="0.46" d="M303.668 255.504C304.794 255.504 305.708 254.591 305.708 253.464C305.708 252.337 304.794 251.424 303.668 251.424C302.541 251.424 301.627 252.337 301.627 253.464C301.627 254.591 302.541 255.504 303.668 255.504Z" fill="white"/>
<path opacity="0.08" d="M295.751 62.7871C295.751 62.7871 294.888 86.3757 258.094 86.2945H295.842L295.751 62.7871Z" fill="black"/>
</svg>
