<svg id="Layer_1" data-name="Layer 1" xmlns="http://www.w3.org/2000/svg" viewBox="0 0 400 300" width="406" height="306" class="illustration styles_illustrationTablet__1DWOa"><path d="M84.15,174.83v-3.45a4.72,4.72,0,0,1,4.72-4.72H93.3A4.72,4.72,0,0,1,98,171.38v3.71" fill="none" stroke="#24285b" stroke-miterlimit="10" stroke-width="2"></path><path d="M141.05,96a80.33,80.33,0,0,1,7.72,24.63A14.57,14.57,0,0,0,159,132.34L181.73,139l-1.79,6-19.4-2.31c-16.57-2-30.62-13.66-34.84-29.81-1.42-5.42-1.67-11,.31-16.15A8.28,8.28,0,0,1,141.05,96Z" fill="#68e1fd"></path><path d="M141.05,96a80.33,80.33,0,0,1,7.72,24.63A14.57,14.57,0,0,0,159,132.34L181.73,139l-1.79,6-19.4-2.31c-16.57-2-30.62-13.66-34.84-29.81-1.42-5.42-1.67-11,.31-16.15A8.28,8.28,0,0,1,141.05,96Z" opacity="0.08"></path><rect x="291.47" y="49.72" width="4.6" height="74.8" fill="#68e1fd"></rect><ellipse cx="199.16" cy="263.76" rx="173" ry="11.07" fill="#e6e6e6" opacity="0.45"></ellipse><path d="M160.31,194.46s1.57,2.38,4,2,3.57,1.78,1.6,2.89-8.08-.29-8.08-.29l-.85-4.35Z" fill="#68e1fd"></path><path d="M90.26,214.14s-1.36,2.5.1,4.45.11,4-1.8,2.77S85,214.1,85,214.1l3.44-2.8Z" fill="#68e1fd"></path><rect x="77.58" y="222.81" width="61.79" height="38.78" fill="#e6e6e6"></rect><rect x="139.37" y="199.8" width="61.79" height="61.79" fill="#e6e6e6"></rect><rect x="201.16" y="164.57" width="61.79" height="97.02" fill="#e6e6e6"></rect><rect x="262.43" y="127.34" width="61.79" height="134.25" fill="#e6e6e6"></rect><path d="M122,66.86a25.87,25.87,0,0,1,.45,7,2.09,2.09,0,0,1-2.38,1.8,4.66,4.66,0,0,1-4-3.07l-1.66-3.5a3.76,3.76,0,0,1,1.19-4.19C117.7,62.9,121.58,64.33,122,66.86Z" fill="#f4a28c"></path><polygon points="114.65 69.69 114.04 83.44 121.64 83.23 119.03 73.31 114.65 69.69" fill="#f4a28c"></polygon><path d="M117.94,70.94s-.22-1.6-1.41-1.34-.9,2.58.77,2.61Z" fill="#f4a28c"></path><path d="M122.36,69.48,123.7,71a.67.67,0,0,1-.3,1.09l-1.56.48Z" fill="#f4a28c"></path><path d="M119.69,75.46a5,5,0,0,1-2.6-1.18,7.84,7.84,0,0,0,3.42,4.64Z" fill="#ce8172" opacity="0.31"></path><rect x="282.02" y="116.54" width="24" height="10.8" fill="#24285b"></rect><rect x="244.57" y="49.72" width="46.89" height="34.55" fill="#ffd200"></rect><circle cx="268.02" cy="67" r="9.45" fill="#24285b"></circle><path d="M268.42,61.12c.31,0,.4.11.4.42v.66a3,3,0,0,1,2.47,1.86c.16.32.09.5-.27.66l-.66.29c-.3.15-.45.08-.63-.24a1.67,1.67,0,0,0-1.71-1c-1.14,0-1.67.33-1.67,1.1,0,.5.46.8.93.9a8.21,8.21,0,0,0,1,.15,6.32,6.32,0,0,1,1.79.34,2.77,2.77,0,0,1,.79.43,2.58,2.58,0,0,1,.71,1.88c0,1.47-1,2.46-2.71,2.71V72c0,.31-.09.42-.4.42h-.74c-.31,0-.42-.11-.42-.42v-.68a3.05,3.05,0,0,1-2.68-2.07.44.44,0,0,1,.31-.62l.66-.24c.33-.12.48,0,.63.3A1.74,1.74,0,0,0,268,69.76c1.23,0,1.85-.39,1.85-1.18a.83.83,0,0,0-.58-.83,4.36,4.36,0,0,0-1.32-.25,6.07,6.07,0,0,1-1.8-.39,2.32,2.32,0,0,1-.78-.45,2.44,2.44,0,0,1-.73-1.82c0-1.45.92-2.42,2.63-2.64v-.66c0-.31.11-.42.42-.42Z" fill="#fff"></path><rect x="282.02" y="232.36" width="24" height="29.23" fill="#68e1fd"></rect><rect x="275.89" y="139.77" width="6.81" height="79.32" fill="#a5a5a5" opacity="0.19"></rect><rect x="291.38" y="139.77" width="6.81" height="79.32" fill="#a5a5a5" opacity="0.19"></rect><rect x="306.87" y="139.77" width="6.81" height="79.32" fill="#a5a5a5" opacity="0.19"></rect><rect x="249.68" y="164.57" width="12.75" height="97.02" fill="#a5a5a5" opacity="0.19"></rect><rect x="188.15" y="199.97" width="12.75" height="61.62" fill="#a5a5a5" opacity="0.19"></rect><rect x="126.12" y="223.6" width="12.75" height="38" fill="#a5a5a5" opacity="0.19"></rect><path d="M100.28,151.21s-3,13.12,5.91,15.67c4.14,1.19,14,.34,23.32-.9a22,22,0,0,1,24.59,18.35l1.62,10.13h4.51V176.08a24.35,24.35,0,0,0-24-24.35Z" fill="#24285b"></path><path d="M105,158.27l-2.16,14.24a84.07,84.07,0,0,1-12.75,33.37l-3.91,6L91,215l2.16-2.09a101.47,101.47,0,0,0,26.24-42l3.23-10Z" fill="#24285b"></path><path d="M114.55,71.84l-1.46-5.62s-2.4-1.54-.66-3.3,3.16-.33,4.58-2.85a2.49,2.49,0,0,1,4.65.18c.55,1.68,4.39,1.14,3.62,3.6s-4.24,2.58-5.22,2.61C115.76,66.58,119.46,72.3,114.55,71.84Z" fill="#24285b"></path><path d="M115.26,83.1l1.53-.27a22.84,22.84,0,0,1,19.67,5.62,22.17,22.17,0,0,1,5.22,7.49c5.36,12.51-10.46,55.72-10.46,55.72l-30.94-.45S79.39,86.86,115.26,83.1Z" fill="#68e1fd"></path><path d="M125.38,94.66a24.5,24.5,0,0,1-11.25,20.68c-12,7.92,1.67,36.32,1.67,36.32l-15.52-.45S94.93,133,94.65,123.32,98.61,94.33,125.38,94.66Z" opacity="0.08"></path><path d="M111.32,83.76a12.44,12.44,0,0,1,8.05.8c2.88,1.38,5.8,4.22,6,10.1.42,11.77-42.92,4.41-32.71,66.84l-6.86,1.7S62.72,94.57,111.32,83.76Z" fill="#68e1fd"></path><path d="M111.32,83.76a12.44,12.44,0,0,1,8.05.8c2.88,1.38,5.8,4.22,6,10.1.42,11.77-42.92,4.41-32.71,66.84l-6.86,1.7S62.72,94.57,111.32,83.76Z" fill="#fff" opacity="0.46"></path><path d="M87.32,162.83s.5,5.9,3.22,6.07,6.13-1.19,2.13-7.4Z" fill="#f4a28c"></path><path d="M181.44,140s4.54.53,6.07,3.47-7.31.66-7.31.66Z" fill="#f4a28c"></path><rect x="74.77" y="173.47" width="33.71" height="21.96" fill="#ffd200"></rect><path d="M74.77,183.77s12.63,10.85,33.71,7.66v4H74.77Z" opacity="0.08"></path><circle cx="299.18" cy="248.98" r="2.01" fill="#fff" opacity="0.46"></circle><path d="M291.38,61.12s-.85,23.24-37.1,23.16h37.19Z" opacity="0.08"></path></svg>