<svg id="Layer_1" data-name="Layer 1" xmlns="http://www.w3.org/2000/svg" viewBox="0 0 400 300" width="406" height="306" class="illustration styles_illustrationTablet__1DWOa"><path d="M242.15,93.21s-15,.52-21.79,27c-4.46,17.34-62.52,19.3-62.52,19.3v6.31h62.34a26,26,0,0,0,21.28-10.73,22.82,22.82,0,0,0,2.11-3.62C247.69,122.52,256.35,98,242.15,93.21Z" fill="#68e1fd"></path><path d="M242.15,93.21s-15,.52-21.79,27c-4.46,17.34-62.52,19.3-62.52,19.3v6.31h62.34a26,26,0,0,0,21.28-10.73,22.82,22.82,0,0,0,2.11-3.62C247.69,122.52,256.35,98,242.15,93.21Z" opacity="0.08"></path><ellipse cx="196.31" cy="250.7" rx="157.65" ry="19.11" fill="#e6e6e6" opacity="0.45"></ellipse><path d="M228.49,247.06s-.68,3.56-3.68,4.3-3.33,3.83-.47,4.18,9.35-4.29,9.35-4.29l-1.13-5.53Z" fill="#68e1fd"></path><path d="M254.2,247.06s-.68,3.56-3.68,4.3-3.33,3.83-.47,4.18,9.35-4.29,9.35-4.29l-1.13-5.53Z" fill="#68e1fd"></path><polygon points="128.22 127.19 124.65 144.48 144.65 144.48 141.93 124.61 128.22 127.19" fill="#c9c9c9"></polygon><rect x="92.37" y="71.39" width="79.33" height="53.88" fill="#24285b"></rect><rect x="92.37" y="120.64" width="79.33" height="10.2" fill="#e6e6e6"></rect><rect x="83.32" y="151.98" width="208.63" height="91.55" fill="#c9c9c9"></rect><rect x="83.32" y="145.84" width="208.63" height="14.36" fill="#e6e6e6"></rect><rect x="272.32" y="199.6" width="8.84" height="47.65" fill="#ffd200"></rect><rect x="272.32" y="199.6" width="8.84" height="47.65" opacity="0.08"></rect><rect x="83.32" y="160.2" width="10.6" height="83.33" fill="#e6e6e6"></rect><rect x="93.91" y="160.2" width="44.25" height="83.33" fill="#e6e6e6" opacity="0.61"></rect><rect x="281.17" y="160.2" width="10.6" height="83.33" fill="#e6e6e6"></rect><path d="M238.19,145.84l-15.82-.1-18.76,29.09a52.25,52.25,0,0,0-3,51.26l8.52,17.44h82.67l.19-37.22.66-56.55Z" opacity="0.08"></path><circle cx="134.99" cy="125.38" r="2.95" fill="#a5a5a5"></circle><rect x="98.59" y="166.66" width="34.9" height="17.25" fill="#c9c9c9"></rect><rect x="98.59" y="193.62" width="34.9" height="17.25" fill="#c9c9c9"></rect><circle cx="115.39" cy="175.63" r="2.64" fill="#a5a5a5"></circle><circle cx="115.39" cy="202.24" r="2.64" fill="#a5a5a5"></circle><rect x="109.57" y="141.39" width="41.63" height="4.45" fill="#a5a5a5"></rect><path d="M257,173s-9.78-64.87,13-76,59.56-.84,42.81,79.38l-.83,8.92a23.22,23.22,0,0,1-23.11,21.06H242.59c-8.49,0-11.08-11.63-3.35-15.13a40.69,40.69,0,0,1,8.28-2.67,11.4,11.4,0,0,0,8.92-10Z" fill="#ffd200"></path><path d="M244.84,61.59a33.46,33.46,0,0,0,.59,8.9,2.69,2.69,0,0,0,3.32,1.88,6,6,0,0,0,4.58-4.55l1.52-4.71a4.8,4.8,0,0,0-2.2-5.11C249.59,55.87,244.91,58.32,244.84,61.59Z" fill="#f4a28c"></path><polygon points="253.92 64.47 258.98 81.3 249.5 83.42 249.63 70.32 253.92 64.47" fill="#f4a28c"></polygon><path d="M244.78,65l-1.46,2.09a.86.86,0,0,0,.56,1.34l2.06.35Z" fill="#f4a28c"></path><path d="M249.64,72.06s1.22-.25,3.35-2.36c0,0,.46,3.48-3.42,6.22Z" fill="#ce8172" opacity="0.31"></path><path d="M252,64.87a2,2,0,0,1-1.81,1.84,7.77,7.77,0,0,0-5.34,2.39c-2.35,2.86,1.63,6.39,4.77,4.49s6.34-9,6.34-9,1.91-5.72.21-8.5-10.62-5-12.44,1.21c-1.17,3.95,2.6,4.64,5.47,4.64a2.8,2.8,0,0,1,2.8,3Z" fill="#24285b"></path><path d="M250.12,64.7s0-2.07,1.56-1.93,1.56,3.12-.54,3.43Z" fill="#f4a28c"></path><path d="M247.72,83.85,255.87,82s51.35-6.32,44.76,42.09c-6.18,45.44-10.7,57.3-10.7,57.3L243.65,183s-2.58-38.51-10-48.18S211.55,96.57,247.72,83.85Z" fill="#68e1fd"></path><path d="M244.66,85s-3.39,46.38,11.21,67c0,0-.83-48.86,11.72-69.94C267.59,82,255.87,78.8,244.66,85Z" fill="#fff"></path><path d="M241.69,164.31,220,186.49a30.75,30.75,0,0,0-5.92,34.41l12.2,26.35,6.28-1.53-6-23.68a22.34,22.34,0,0,1,10.3-24.78l24.8-14.63Z" fill="#24285b"></path><path d="M241.69,164.31l50.92,3s-.08,18-6.14,22.14c-3.36,2.26-15.84,6.75-26.3,10.3a16.41,16.41,0,0,0-10.3,20.74l8.4,25.21-7.13,1.88-15.38-30.2a21.34,21.34,0,0,1,5.32-26.08l15.36-12.85Z" fill="#24285b"></path><path d="M272.09,100.93a12,12,0,0,1,18.65-10.8,27.11,27.11,0,0,1,8.8,9.56c4.39,8.13,6.65,26.18,7.78,40.17a28.73,28.73,0,0,1-14.71,27.47l-30,16.58-4.33-5.64,22.78-17.79a15.45,15.45,0,0,0,4.09-19.58C279.84,131.21,273.2,116.31,272.09,100.93Z" fill="#68e1fd"></path><path d="M272.09,100.93a12,12,0,0,1,18.65-10.8,27.11,27.11,0,0,1,8.8,9.56c4.39,8.13,6.65,26.18,7.78,40.17a28.73,28.73,0,0,1-14.71,27.47l-30,16.58-4.33-5.64,22.78-17.79a15.45,15.45,0,0,0,4.09-19.58C279.84,131.21,273.2,116.31,272.09,100.93Z" fill="#fff" opacity="0.19"></path><path d="M258.27,178.27S247.93,184,253.65,187s8-4.36,8-4.36Z" fill="#f4a28c"></path><path d="M244.66,85l-9.23,26.13,7.33,12.65L240,136l15.83,16S242.76,140.23,244.66,85Z" fill="#fff" opacity="0.27"></path><path d="M249.6,83.21c.06-1.34.93-1.09,2.21-1.46s2.61-1.79,3.71-.56c2.14,2.38-1.64,6.87-1.64,6.87h-3.51A20.1,20.1,0,0,1,249.6,83.21Z" fill="#24285b"></path><path d="M250.37,88.06h3.51s.33,27.16,2.64,43.21L255.87,152s-7.56-10.09-8.76-23C247.11,129,247.47,103.53,250.37,88.06Z" fill="#24285b"></path><path d="M244.66,85l4.28,3,3.43-5L256,87.53,267.59,82S253.52,76.33,244.66,85Z" fill="#68e1fd"></path><path d="M244.66,85l4.28,3,3.43-5L256,87.53,267.59,82S253.52,76.33,244.66,85Z" fill="#fff" opacity="0.55"></path><path d="M267.59,82l1.94,34.55L260.46,122l5.35,11.25L255.87,152S255.26,102.84,267.59,82Z" fill="#fff" opacity="0.27"></path><path d="M157.84,140.92s-10-1.79-9.06,4.92h9.06Z" fill="#f4a28c"></path><rect x="100.62" y="220.11" width="29.77" height="23.42" fill="#c9c9c9"></rect><polygon points="272.32 239.65 281.17 239.65 295.43 255.55 259.4 255.55 272.32 239.65" fill="#ffd200"></polygon><polygon points="272.32 239.65 281.17 239.65 295.43 255.55 259.4 255.55 272.32 239.65" fill="#fff" opacity="0.33"></polygon><rect x="105.68" y="81.19" width="54.89" height="12.01" fill="#68e1fd"></rect><rect x="106.96" y="98.33" width="18.13" height="16.24" fill="#ffd200"></rect><rect x="129.17" y="98.33" width="31.4" height="5.01" fill="#fff"></rect><rect x="129.17" y="106.84" width="31.4" height="5.01" fill="#fff" opacity="0.14"></rect></svg>