<svg width="406" height="306" viewBox="0 0 406 306" fill="none" xmlns="http://www.w3.org/2000/svg">
<path opacity="0.45" d="M195.164 252.622C281.632 252.622 351.728 243.833 351.728 232.991C351.728 222.15 281.632 213.361 195.164 213.361C108.696 213.361 38.6004 222.15 38.6004 232.991C38.6004 243.833 108.696 252.622 195.164 252.622Z" fill="#E6E6E6"/>
<path d="M247.386 215.473L274.375 199.345C274.375 199.345 281.926 195.61 287.57 198.959C293.213 202.309 289.305 206.359 284.525 203.669C284.525 203.669 284.91 211.677 280.272 210.53C275.633 209.383 274.608 208.074 274.608 208.074L254.227 229.46L247.386 215.473Z" fill="#F4A28C"/>
<path opacity="0.08" d="M247.386 215.473L274.375 199.345C274.375 199.345 281.926 195.61 287.57 198.959C293.213 202.309 289.305 206.359 284.525 203.669C284.525 203.669 284.91 211.677 280.272 210.53C275.633 209.383 274.608 208.074 274.608 208.074L254.227 229.46L247.386 215.473Z" fill="black"/>
<path d="M257.962 160.104C257.962 160.104 266.519 182.272 252.837 183.794C239.154 185.317 242.209 160.003 249.792 155.273C257.374 150.543 257.962 160.104 257.962 160.104Z" fill="#24285B"/>
<path d="M114.228 201.335L125.089 162.765C129.453 160.258 129.301 157.69 124.074 155.122C118.846 152.554 121.029 148.454 113.812 147.378C106.595 146.302 117.395 159.314 117.395 159.314L95.2781 201.335L100.018 214.916L144.018 224.396L146.15 194.961L114.228 201.335Z" fill="#F4A28C"/>
<path opacity="0.08" d="M114.228 201.335L125.089 162.765C129.453 160.258 129.301 157.69 124.074 155.122C118.846 152.554 121.029 148.454 113.812 147.378C106.595 146.302 117.395 159.314 117.395 159.314L95.2781 201.335L100.018 214.916L144.018 224.396L146.15 194.961L114.228 201.335Z" fill="black"/>
<path d="M264.539 149.407C264.539 149.407 262.306 155.558 259.464 159.019C258.909 159.694 258.109 160.121 257.24 160.207C256.37 160.293 255.502 160.03 254.826 159.476C253.1 158.025 251.192 155.568 251.984 152.127L252.623 146.129C252.879 144.941 253.497 143.861 254.391 143.038C255.285 142.214 256.412 141.688 257.617 141.531C262.103 140.688 266.092 145.733 264.539 149.407Z" fill="#F4A28C"/>
<path d="M252.715 147.123L236.069 160.612L244.158 169.26L252.796 156.309L252.715 147.123Z" fill="#F4A28C"/>
<path d="M262.936 153.203L263.524 156.248C263.569 156.423 263.566 156.607 263.516 156.781C263.465 156.955 263.369 157.112 263.238 157.236C263.106 157.36 262.944 157.447 262.768 157.487C262.592 157.528 262.408 157.521 262.235 157.466L259.769 156.837L262.936 153.203Z" fill="#F4A28C"/>
<path opacity="0.31" d="M252.532 156.694C252.532 156.694 251.71 155.243 251.893 151.822C251.893 151.822 248.614 154.786 250.299 160.054L252.532 156.694Z" fill="#CE8172"/>
<path d="M255.78 150.462C255.78 150.462 256.795 148.158 254.998 147.539C253.202 146.92 251.72 150.229 253.902 151.599L255.78 150.462Z" fill="#F4A28C"/>
<path d="M256.318 149.956C256.318 149.956 257.069 147.144 254.735 146.748C252.4 146.352 251.243 149.55 253.496 151.823L256.318 149.956Z" fill="#F4A28C"/>
<path d="M248.777 174.315C252.198 178.77 254.806 183.793 256.48 189.155C260.287 201.335 265.28 222.924 256.48 231.663C246.99 241.082 143.501 231.663 143.501 231.663L146.546 189.54C146.546 189.54 177.341 176.701 196.534 163.942C218.956 149.042 235.104 154.746 245.011 169.129C246.209 170.925 247.477 172.661 248.777 174.315Z" fill="#9ED6BE"/>
<path opacity="0.08" d="M239.652 195.56C239.652 195.56 249.355 187.247 257.81 193.723C257.81 193.723 254.247 181.543 250.36 176.559C246.472 171.575 233.511 175.524 239.652 195.56Z" fill="black"/>
<path opacity="0.08" d="M194.342 165.403L182.751 172.203C182.751 172.203 183.766 173.117 185.339 174.771C187.691 177.183 189.141 180.331 189.444 183.687C189.748 187.042 188.886 190.399 187.004 193.193C179.706 203.922 170.266 222.06 179.249 234.342C179.249 234.342 226.873 237.224 244.818 234.971L220.651 207.809L230.659 183.764L217.586 164.773L194.342 165.403Z" fill="black"/>
<path d="M143.491 231.703H103.53C98.8852 231.705 94.3789 230.121 90.7561 227.214C87.1333 224.307 84.6108 220.252 83.6056 215.717L69.9031 154.076L80.0531 152.279L95.5419 194.554C96.8141 198.019 99.2225 200.951 102.374 202.871C105.526 204.792 109.236 205.588 112.898 205.13L145.713 200.999L143.491 231.703Z" fill="#F4A28C"/>
<path d="M264.915 147.458C264.915 147.458 262.814 149.133 258.378 148.473C254.806 147.976 256.622 151.518 254.044 154.076C252.928 155.172 253.192 158.877 252.867 160.166C251.852 164.328 254.663 177.066 247.558 177.847C240.453 178.629 224.315 162.135 215.962 170.326C207.608 178.517 187.136 172.042 196.951 157.507C206.766 142.972 235.916 155.385 244.432 139.754C252.816 124.367 273.603 138.912 264.915 147.458Z" fill="#24285B"/>
<path d="M146.536 189.58L114.218 201.334L115.578 231.703H143.491L146.536 189.58Z" fill="#24285B"/>
<path d="M69.9031 154.076C69.9031 154.076 53.3281 150.26 59.7531 146.707C66.178 143.155 68.8881 147.895 74.6431 146.707C80.3982 145.52 82.0831 147.54 80.0531 152.28L69.9031 154.076Z" fill="#F4A28C"/>
<path d="M305.152 202.394L297.426 198.354L286.522 219.202L294.248 223.243L305.152 202.394Z" fill="#FFD200"/>
<path d="M233.521 166.083C229.375 165.054 225.008 165.379 221.06 167.01C217.112 168.641 213.788 171.492 211.577 175.147C202.442 189.926 187.156 218.457 197.752 229.074C210.552 241.883 278.851 232.972 295.406 230.597C298.481 230.185 301.285 228.622 303.252 226.222C305.525 223.41 307.048 219.432 302.703 215.575C294.786 208.53 290.067 221.248 290.067 221.248L231.846 217.655C231.102 217.611 230.382 217.372 229.76 216.962C229.137 216.551 228.634 215.984 228.301 215.317C227.967 214.65 227.816 213.907 227.861 213.163C227.906 212.419 228.146 211.7 228.558 211.078C236.739 198.614 252.319 171.026 233.521 166.083Z" fill="#F4A28C"/>
<path d="M197.519 197.863L232.943 206.379C232.943 206.379 256.389 176.558 235.328 165.404C214.267 154.249 197.519 197.863 197.519 197.863Z" fill="#9ED6BE"/>
<path opacity="0.46" d="M197.519 197.863L232.943 206.379C232.943 206.379 256.389 176.558 235.328 165.404C214.267 154.249 197.519 197.863 197.519 197.863Z" fill="white"/>
<path opacity="0.45" d="M305.515 190.362C305.515 190.362 379.843 122.672 328.078 86.639C276.313 50.6065 249.081 120.905 278.008 127.503C306.936 134.1 319.116 58.5641 238.423 61.1016C157.731 63.6391 203.589 130.183 114.269 94.6575" stroke="#C9C9C9" stroke-width="3.045" stroke-linecap="round" stroke-linejoin="round" stroke-dasharray="2.03 12.18"/>
<path d="M105.875 82.6405L119.547 74.6626L64.3307 68.5117L89.5839 105.864L98.5768 86.6396L105.875 82.6405Z" fill="#FFD200"/>
<path d="M105.875 82.6405L102.048 96.5866L98.5768 86.6396L64.3307 68.5117L105.875 82.6405Z" fill="#FFD200"/>
<path opacity="0.46" d="M105.875 82.6405L102.048 96.5866L98.5768 86.6396L64.3307 68.5117L105.875 82.6405Z" fill="white"/>
<path d="M102.048 96.5857L95.948 92.2516L98.5768 86.6387L102.048 96.5857Z" fill="#24285B"/>
</svg>
