<svg width="406" height="306" viewBox="0 0 406 306" fill="none" xmlns="http://www.w3.org/2000/svg">
<path opacity="0.45" d="M214.003 284.27C304.68 284.27 378.189 273.323 378.189 259.819C378.189 246.314 304.68 235.367 214.003 235.367C123.325 235.367 49.8162 246.314 49.8162 259.819C49.8162 273.323 123.325 284.27 214.003 284.27Z" fill="#E6E6E6"/>
<path d="M85.1285 93.337L58.7393 93.5488L60.0814 260.704L86.4705 260.492L85.1285 93.337Z" fill="#FFD200"/>
<path d="M58.7482 93.5418L71.6286 54.8398L85.1382 93.3286L58.7482 93.5418Z" fill="#F4A28C"/>
<path d="M65.772 72.4298L77.7693 72.3384L71.6285 54.8398L65.772 72.4298Z" fill="#24285B"/>
<path opacity="0.08" d="M72.4621 93.4392L58.8108 93.5488L60.1528 260.704L73.8041 260.594L72.4621 93.4392Z" fill="black"/>
<path d="M348.531 242.797H299.303V255.758H348.531V242.797Z" fill="#E6E6E6"/>
<path opacity="0.43" d="M337.772 230.119H288.544V243.081H337.772V230.119Z" fill="#E6E6E6"/>
<path opacity="0.08" d="M59.4892 178.73V195.458C59.4892 195.458 73.8311 197.061 85.8792 189.246V174.214L75.516 172.184L59.4892 178.73Z" fill="black"/>
<path d="M318.548 65.0293H155.468V255.849H318.548V65.0293Z" fill="#C9C9C9"/>
<path opacity="0.08" d="M308.601 90.75H181.644V243.518H308.601V90.75Z" fill="black"/>
<path d="M300.481 81.9492H173.524V234.717H300.481V81.9492Z" fill="white"/>
<path opacity="0.08" d="M160.37 106.99C160.37 106.99 184.943 109.355 191.033 141.328L210.765 114.938C210.765 114.938 222.244 113.547 217.169 124.073C213.84 130.995 213.028 150.93 204.279 164.419C186.929 191.131 175.306 221.151 170.144 252.582L169.718 255.221L157.792 255.759L161.091 158.248L160.37 106.99Z" fill="black"/>
<path d="M206.207 46.0898H195.489V90.7498H206.207V46.0898Z" fill="#F2F2F2"/>
<path d="M278.709 46.0898H267.99V90.7498H278.709V46.0898Z" fill="#F2F2F2"/>
<path d="M285.388 105.295H258.318V132.365H285.388V105.295Z" fill="#FFD200"/>
<path d="M285.388 144.799H258.318V171.869H285.388V144.799Z" fill="#FFD200"/>
<path d="M285.388 184.312H258.318V211.383H285.388V184.312Z" fill="#FFD200"/>
<path d="M111.762 119.12C104.545 134.73 82.9763 165.18 62.1383 168.692V179.634C62.1383 179.634 99.47 177.695 132.326 144.88C145.998 131.198 145.764 121.748 140.841 115.374C133.036 105.295 117.101 107.559 111.762 119.12Z" fill="#9ED6BE"/>
<path opacity="0.08" d="M111.762 119.12C104.545 134.73 82.9763 165.18 62.1383 168.692V179.634C62.1383 179.634 99.47 177.695 132.326 144.88C145.998 131.198 145.764 121.748 140.841 115.374C133.036 105.295 117.101 107.559 111.762 119.12Z" fill="black"/>
<path d="M245.122 113.08H196.402V124.58H245.122V113.08Z" fill="#A5A5A5"/>
<path opacity="0.44" d="M245.122 152.584H196.402V164.084H245.122V152.584Z" fill="#A5A5A5"/>
<path opacity="0.13" d="M245.122 192.088H196.402V203.588H245.122V192.088Z" fill="#A5A5A5"/>
<path d="M264.408 118.825L269.817 125.768L278.952 113.08" stroke="white" stroke-width="3.045" stroke-miterlimit="10"/>
<path d="M264.408 157.741L269.817 164.684L278.952 151.996" stroke="white" stroke-width="3.045" stroke-miterlimit="10"/>
<path d="M264.408 196.655L269.817 203.598L278.952 190.91" stroke="white" stroke-width="3.045" stroke-miterlimit="10"/>
<path d="M129.047 93.623L132.935 105.275L123.708 111.142L120.389 90.9434L129.047 93.623Z" fill="#F4A28C"/>
<path d="M123.241 78.987C124.104 78.1391 125.166 77.5203 126.329 77.187C127.492 76.8537 128.72 76.8165 129.901 77.0788C131.082 77.341 132.179 77.8944 133.091 78.6886C134.004 79.4828 134.704 80.4925 135.127 81.626C137.157 86.9852 139.075 94.9327 132.752 96.2928C123.069 98.3228 119.993 85.9195 119.993 85.9195C120.371 83.3395 121.5 80.9281 123.241 78.987Z" fill="#F4A28C"/>
<path d="M123.211 86.8225C123.211 86.8225 121.11 85.0665 120.166 87.5634C119.222 90.0603 122.917 91.258 124.023 89.9994C125.129 88.7408 123.211 86.8225 123.211 86.8225Z" fill="#F4A28C"/>
<path d="M112.939 116.855C114.333 113.768 116.375 111.017 118.927 108.789C121.479 106.561 124.48 104.909 127.728 103.944C140.263 100.179 163.334 104.299 170.358 116.023C179.99 132.07 165.892 183.013 165.892 183.013L123.83 186.322C123.83 186.322 100.617 144.534 112.939 116.855Z" fill="#9ED6BE"/>
<path d="M165.902 183.055L160.36 255.455H151.6L143.785 199.203L124.419 186.323L165.902 183.055Z" fill="#24285B"/>
<path d="M124.419 186.322L112.34 255.454H121.729L142.009 198.025L124.419 186.322Z" fill="#24285B"/>
<path opacity="0.08" d="M131.371 102.85C131.371 102.85 111.65 166.297 168.551 170.499L165.902 183.055L123.83 186.323C123.83 186.323 107.387 157.66 109.62 130.295C109.62 130.295 109.975 114.106 121.364 106.95C124.37 104.887 127.782 103.489 131.371 102.85Z" fill="black"/>
<path d="M114.543 255.312L108.879 259.474C108.667 259.63 108.51 259.849 108.431 260.099C108.351 260.35 108.352 260.619 108.434 260.869C108.516 261.119 108.675 261.336 108.888 261.49C109.101 261.644 109.357 261.727 109.62 261.727H119.1C119.429 261.725 119.744 261.592 119.976 261.358C120.208 261.124 120.338 260.808 120.338 260.479V255.312H114.543Z" fill="#9ED6BE"/>
<path d="M159.264 255.312L164.592 259.474C164.801 259.635 164.953 259.858 165.028 260.11C165.103 260.363 165.097 260.632 165.01 260.881C164.924 261.13 164.762 261.345 164.547 261.497C164.332 261.649 164.074 261.729 163.811 261.727H157.071C156.598 261.727 156.13 261.634 155.692 261.453C155.255 261.272 154.858 261.007 154.523 260.672C154.189 260.337 153.923 259.94 153.742 259.503C153.561 259.066 153.468 258.597 153.468 258.124V255.312H159.264Z" fill="#9ED6BE"/>
<path d="M148.545 103.609C146.445 106.979 145.332 110.87 145.332 114.84C145.332 118.811 146.445 122.702 148.545 126.071C153.133 133.826 166.46 148.939 175.595 158.896C176.626 160.033 177.914 160.908 179.351 161.446C180.789 161.985 182.334 162.172 183.858 161.992C185.383 161.812 186.842 161.271 188.115 160.413C189.388 159.555 190.437 158.405 191.175 157.059L210.805 122.468L204.147 118.195L186.161 144.585C186.161 144.585 173.849 104.117 148.545 103.609Z" fill="#9ED6BE"/>
<path opacity="0.2" d="M148.545 103.609C146.445 106.979 145.332 110.87 145.332 114.84C145.332 118.811 146.445 122.702 148.545 126.071C153.133 133.826 166.46 148.939 175.595 158.896C176.626 160.033 177.914 160.908 179.351 161.446C180.789 161.985 182.334 162.172 183.858 161.992C185.383 161.812 186.842 161.271 188.115 160.413C189.388 159.555 190.437 158.405 191.175 157.059L210.805 122.468L204.147 118.195L186.161 144.585C186.161 144.585 173.849 104.117 148.545 103.609Z" fill="white"/>
<path d="M208.481 120.996C208.481 120.996 219.646 116.936 215.078 110.603C210.511 104.269 204.147 118.215 204.147 118.215L208.481 120.996Z" fill="#F4A28C"/>
<path d="M121.12 94.2717L117.74 85.9487C117.391 85.0838 117.223 84.1563 117.248 83.2239C117.272 82.2914 117.488 81.374 117.882 80.5286C119.252 77.5445 121.871 72.9465 125.87 70.3786C132.143 66.2577 138.284 66.2374 137.593 71.7082C136.903 77.1791 139.542 71.424 141.653 75.3419C143.765 79.2598 142.496 80.5286 139.4 80.894C136.304 81.2594 130.265 81.1477 128.093 85.1367C125.921 89.1256 128.56 94.0281 121.12 94.2717Z" fill="#24285B"/>
<path d="M62.1383 168.693C62.1383 168.693 56.3224 166.216 54.1198 171.626C51.9173 177.036 62.1383 179.634 62.1383 179.634V168.693Z" fill="#F4A28C"/>
<path d="M86.3402 231.622L59.6364 231.836L59.8773 261.838L86.581 261.624L86.3402 231.622Z" fill="#24285B"/>
</svg>
