<svg id="Layer_1" data-name="Layer 1" xmlns="http://www.w3.org/2000/svg" viewBox="0 0 400 300" width="406" height="306" class="illustration styles_illustrationTablet__1DWOa"><path d="M168.56,117.76s-6.82-12.72,7.92-22.25-11.17-15.65,0-35.57,21.59-26.65,37.31-7.71,25.19,18,39.6-2.47,38.93-16,43,6,24.51,20.42,31.15-3.53S388.83,54,367.38,84.81s-45.44,6.55-43.91,23.52-2.43,26.28-21.13,35.41-21.56,31-21.56,31Z" fill="#68e1fd" opacity="0.11"></path><ellipse cx="198.98" cy="182.23" rx="149" ry="65.01" fill="#c1c1c1"></ellipse><ellipse cx="198.98" cy="175.56" rx="149" ry="65.01" fill="#e6e6e6"></ellipse><ellipse cx="198.98" cy="169.76" rx="114.73" ry="47.18" opacity="0.05"></ellipse><path d="M177.79,131.32s3.89-6.64,12.83-4.22,9.57,2.81,13-2.93,10.47-8.3,14.42-2.43,10.22-9.45,22.09-2.55,23.12,22.26-1.08,30.53S168,160.55,177.79,131.32Z" fill="#68e1fd"></path><path d="M177.79,131.32s3.89-6.64,12.83-4.22,9.57,2.81,13-2.93,10.47-8.3,14.42-2.43,10.22-9.45,22.09-2.55,23.12,22.26-1.08,30.53S168,160.55,177.79,131.32Z" opacity="0.05"></path><path d="M168.56,135.66s24.79-26.14,34.13-39.32a9.68,9.68,0,0,0,.93-9.41c-1.57-3.71-2.64-8.89,2.23-11.05,6-2.65,10.27,1.66,12.19,7.12a9.2,9.2,0,0,0,7.34,5.86c4.38.69,9.34,2.82,8.62,9-.5,4.24-7.1,3.84-11.95,3a10.53,10.53,0,0,0-9.27,2.86c-9.41,9.22-31.39,32.19-33.61,47.51Z" fill="#68e1fd"></path><path d="M168.56,135.66s24.79-26.14,34.13-39.32a9.68,9.68,0,0,0,.93-9.41c-1.57-3.71-2.64-8.89,2.23-11.05,6-2.65,10.27,1.66,12.19,7.12a9.2,9.2,0,0,0,7.34,5.86c4.38.69,9.34,2.82,8.62,9-.5,4.24-7.1,3.84-11.95,3a10.53,10.53,0,0,0-9.27,2.86c-9.41,9.22-31.39,32.19-33.61,47.51Z" fill="#fff" opacity="0.36"></path><path d="M92.12,119.58l5.37,42.56a10.62,10.62,0,0,0,6,8.26c7.87,3.78,24.07,8.69,46,.57a10.55,10.55,0,0,0,6.79-8.74l4.85-42.65Z" fill="#24285b"></path><ellipse cx="126.63" cy="119.58" rx="34.51" ry="11.35" fill="#ffd200"></ellipse><path d="M214.37,155.37a15.25,15.25,0,0,1,9.72-16.1c11.55-4.86,2.13-16.1,9.12-20.35s12.15-.38,14.88-15.23,11.85-15.15,11.85-15.15,22.17,7.59,45.87,5.77c0,0-9.72,7.64-19.44,9.59s-13.07,4.38-13.07,4.38l-10-.91.91,7.88s-7.33,12.14-.23,14,3.27,15,13.9,13.87,38,34.4-2.13,43.21S209.51,193,214.37,155.37Z" fill="#68e1fd"></path><path d="M218.82,153.06s5.19,3.58,13.5,1,13.46-3.75,17,.93,8.2,1.8,13.06.74,16.52,13.16,22.8,27.57c0,0-5.95,2.14-11.64,3.54S220,184.57,218.82,153.06Z" opacity="0.05"></path><ellipse cx="126.63" cy="119.58" rx="34.51" ry="11.35" opacity="0.28"></ellipse><path d="M152.41,134.6s-14.62-.94-23.11,11.79-18.87,31.13,0,47.17S160,195.91,176,177.05s8-29.24,13.68-47.16c0,0-8.73,1.41-9.91-7.32C179.76,122.57,171.27,133.66,152.41,134.6Z" fill="#68e1fd"></path><path d="M163.32,164.91a50.16,50.16,0,0,0,10.9-9.34c4.7-5.33,13.33-12.14,26-10.62,20.23,2.43,20.84,16.7,29.65,10.63s10.63-1.08,13.67,5.84,9.72.23,14.88,8.74,26.73,18.23,7.9,25.52c-15.74,6.09-78.6,15.15-110,8.21a14.36,14.36,0,0,1-9.67-20.52A46,46,0,0,1,163.32,164.91Z" fill="#68e1fd"></path><path d="M128.33,192.71s6.66-34.47,50.84-41.57c0,0-6,42.5-32.27,49.49C146.9,200.63,139.62,202.7,128.33,192.71Z" opacity="0.05"></path><path d="M101.68,127.42s-7.05-16.79,6.32-21,33.11-3.34,23.08-21.57c0,0,36.74,13.91,21,42.61C152,127.42,129.09,136,101.68,127.42Z" fill="#ffd200"></path><path d="M180.78,151.14s13.52-3.61,18.68,4,13.21,3.5,15.95,9.42-3.19,9,2.28,13.06,28.8,16.87,11,25.75-85.26,8.58-84.8-8.59S146.6,166,180.78,151.14Z" fill="#68e1fd"></path><path d="M180.78,151.14s13.52-3.61,18.68,4,13.21,3.5,15.95,9.42-3.19,9,2.28,13.06,28.8,16.87,11,25.75-85.26,8.58-84.8-8.59S146.6,166,180.78,151.14Z" fill="#fff" opacity="0.68"></path><path d="M181.37,159.35s10.11-2.7,14,3,9.88,2.61,11.93,7-2.39,6.7,1.7,9.77,21.56,12.62,8.22,19.27-63.79,6.41-63.45-6.43S155.8,170.46,181.37,159.35Z" fill="#fff" opacity="0.26"></path></svg>