<svg width="406" height="306" viewBox="0 0 406 306" fill="none" xmlns="http://www.w3.org/2000/svg">
<path opacity="0.11" d="M171.088 120.277C171.088 120.277 164.166 107.366 179.127 97.6929C194.088 88.0199 167.79 81.8081 179.127 61.5893C190.465 41.3705 201.041 34.5396 216.997 53.7637C232.953 72.9878 242.565 72.0336 257.191 51.2566C271.817 30.4796 296.705 35.0166 300.836 57.3466C304.967 79.6766 325.713 78.0729 332.453 53.7637C339.193 29.4544 394.662 55.5602 372.891 86.8323C351.119 118.104 326.769 93.4806 328.322 110.705C329.875 127.93 325.855 137.379 306.875 146.646C287.894 155.913 284.992 178.111 284.992 178.111L171.088 120.277Z" fill="#9ED6BE"/>
<path d="M201.965 251.699C285.49 251.699 353.2 222.156 353.2 185.714C353.2 149.271 285.49 119.729 201.965 119.729C118.44 119.729 50.7297 149.271 50.7297 185.714C50.7297 222.156 118.44 251.699 201.965 251.699Z" fill="#C1C1C1"/>
<path d="M201.965 244.929C285.49 244.929 353.2 215.387 353.2 178.944C353.2 142.502 285.49 112.959 201.965 112.959C118.44 112.959 50.7297 142.502 50.7297 178.944C50.7297 215.387 118.44 244.929 201.965 244.929Z" fill="#E6E6E6"/>
<path opacity="0.05" d="M201.965 220.943C266.279 220.943 318.416 199.503 318.416 173.056C318.416 146.608 266.279 125.168 201.965 125.168C137.651 125.168 85.5137 146.608 85.5137 173.056C85.5137 199.503 137.651 220.943 201.965 220.943Z" fill="black"/>
<path d="M180.457 134.041C180.457 134.041 184.405 127.301 193.479 129.757C202.553 132.214 203.193 132.609 206.674 126.783C210.156 120.957 217.301 118.359 221.311 124.317C225.32 130.275 231.684 114.725 243.732 121.729C255.78 128.732 267.199 144.323 242.636 152.717C218.073 161.111 170.52 163.709 180.457 134.041Z" fill="#9ED6BE"/>
<path opacity="0.05" d="M180.457 134.041C180.457 134.041 184.405 127.301 193.479 129.757C202.553 132.214 203.193 132.609 206.674 126.783C210.156 120.957 217.301 118.359 221.311 124.317C225.32 130.275 231.684 114.725 243.732 121.729C255.78 128.732 267.199 144.323 242.636 152.717C218.073 161.111 170.52 163.709 180.457 134.041Z" fill="black"/>
<path d="M171.088 138.444C171.088 138.444 196.25 111.912 205.73 98.5346C206.691 97.1562 207.283 95.5543 207.448 93.8821C207.613 92.21 207.347 90.5233 206.674 88.9835C205.081 85.2178 203.995 79.9601 208.938 77.7677C215.028 75.0779 219.362 79.4526 221.311 84.9945C221.904 86.5637 222.908 87.9442 224.219 88.9908C225.53 90.0374 227.099 90.7116 228.761 90.9424C233.206 91.6428 238.241 93.8047 237.51 100.077C237.002 104.381 230.303 103.975 225.381 103.122C223.695 102.817 221.96 102.921 220.322 103.426C218.684 103.931 217.192 104.823 215.972 106.025C206.421 115.384 184.111 138.698 181.858 154.248L171.088 138.444Z" fill="#9ED6BE"/>
<path opacity="0.36" d="M171.088 138.444C171.088 138.444 196.25 111.912 205.73 98.5346C206.691 97.1562 207.283 95.5543 207.448 93.8821C207.613 92.21 207.347 90.5233 206.674 88.9835C205.081 85.2178 203.995 79.9601 208.938 77.7677C215.028 75.0779 219.362 79.4526 221.311 84.9945C221.904 86.5637 222.908 87.9442 224.219 88.9908C225.53 90.0374 227.099 90.7116 228.761 90.9424C233.206 91.6428 238.241 93.8047 237.51 100.077C237.002 104.381 230.303 103.975 225.381 103.122C223.695 102.817 221.96 102.921 220.322 103.426C218.684 103.931 217.192 104.823 215.972 106.025C206.421 115.384 184.111 138.698 181.858 154.248L171.088 138.444Z" fill="white"/>
<path d="M93.5017 122.123L98.9523 165.321C99.1813 167.118 99.8593 168.828 100.924 170.293C101.988 171.758 103.405 172.932 105.042 173.705C113.03 177.542 129.473 182.526 151.732 174.284C153.59 173.589 155.218 172.391 156.435 170.825C157.652 169.258 158.41 167.385 158.624 165.413L163.547 122.123H93.5017Z" fill="#24285B"/>
<path d="M128.529 133.644C147.875 133.644 163.557 128.486 163.557 122.124C163.557 115.761 147.875 110.604 128.529 110.604C109.184 110.604 93.5017 115.761 93.5017 122.124C93.5017 128.486 109.184 133.644 128.529 133.644Z" fill="#FFD200"/>
<path d="M217.586 158.45C217.167 155.015 217.911 151.539 219.699 148.577C221.488 145.615 224.217 143.337 227.451 142.108C239.175 137.175 229.613 125.767 236.708 121.453C243.803 117.139 249.04 121.067 251.811 105.994C254.582 90.9217 263.839 90.6172 263.839 90.6172C263.839 90.6172 286.342 98.321 310.397 96.4737C310.397 96.4737 300.531 104.228 290.666 106.208C280.8 108.187 277.399 110.653 277.399 110.653L267.249 109.73L268.173 117.728C268.173 117.728 260.733 130.05 267.94 131.938C275.146 133.826 271.259 147.163 282.048 146.016C292.838 144.869 320.618 180.932 279.886 189.874C239.154 198.816 212.653 196.644 217.586 158.45Z" fill="#9ED6BE"/>
<path opacity="0.05" d="M222.102 156.105C222.102 156.105 227.37 159.739 235.805 157.12C244.239 154.502 249.467 153.314 253.06 158.064C256.653 162.814 261.383 159.891 266.316 158.815C271.249 157.739 283.083 172.173 289.458 186.799C289.458 186.799 283.418 188.971 277.643 190.392C271.868 191.813 223.3 188.088 222.102 156.105Z" fill="black"/>
<path opacity="0.28" d="M128.529 133.644C147.875 133.644 163.557 128.486 163.557 122.124C163.557 115.761 147.875 110.604 128.529 110.604C109.184 110.604 93.5017 115.761 93.5017 122.124C93.5017 128.486 109.184 133.644 128.529 133.644Z" fill="black"/>
<path d="M154.696 137.369C154.696 137.369 139.857 136.415 131.239 149.336C122.622 162.256 112.086 180.932 131.239 197.213C150.392 213.494 162.4 199.598 178.64 180.455C194.88 161.313 186.76 150.777 192.525 132.588C192.525 132.588 183.664 134.019 182.466 125.158C182.456 125.158 173.839 136.415 154.696 137.369Z" fill="#9ED6BE"/>
<path d="M165.77 168.133C169.893 165.52 173.619 162.327 176.833 158.653C181.604 153.243 190.363 146.331 203.223 147.874C223.757 150.34 224.376 164.824 233.318 158.663C242.26 152.502 244.107 157.567 247.193 164.591C250.279 171.615 257.059 164.824 262.296 173.462C267.534 182.099 289.427 191.965 270.315 199.365C254.339 205.546 190.536 214.742 158.665 207.698C156.497 207.213 154.468 206.24 152.734 204.851C151 203.463 149.606 201.696 148.659 199.687C147.712 197.677 147.237 195.477 147.27 193.256C147.303 191.035 147.843 188.85 148.85 186.87C152.662 179.189 158.516 172.706 165.77 168.133Z" fill="#9ED6BE"/>
<path opacity="0.05" d="M130.255 196.35C130.255 196.35 137.015 161.363 181.857 154.156C181.857 154.156 175.767 197.294 149.103 204.389C149.103 204.389 141.714 206.49 130.255 196.35Z" fill="black"/>
<path d="M103.205 130.082C103.205 130.082 96.0494 113.04 109.62 108.767C123.19 104.493 143.227 105.376 133.046 86.873C133.046 86.873 170.337 100.992 154.361 130.122C154.28 130.082 131.026 138.79 103.205 130.082Z" fill="#FFD200"/>
<path d="M183.492 154.158C183.492 154.158 197.214 150.493 202.452 158.218C207.689 165.942 215.86 161.77 218.641 167.779C221.422 173.788 215.403 176.914 220.955 181.035C226.507 185.156 250.187 198.158 232.12 207.171C214.053 216.184 145.581 215.88 146.048 198.452C146.515 181.025 148.799 169.24 183.492 154.158Z" fill="#9ED6BE"/>
<path opacity="0.68" d="M183.492 154.158C183.492 154.158 197.214 150.493 202.452 158.218C207.689 165.942 215.86 161.77 218.641 167.779C221.422 173.788 215.403 176.914 220.955 181.035C226.507 185.156 250.187 198.158 232.12 207.171C214.053 216.184 145.581 215.88 146.048 198.452C146.515 181.025 148.799 169.24 183.492 154.158Z" fill="white"/>
<path opacity="0.26" d="M184.09 162.49C184.09 162.49 194.352 159.75 198.3 165.535C202.249 171.321 208.329 168.185 210.409 172.64C212.49 177.096 207.984 179.441 212.135 182.557C216.286 185.673 234.018 195.366 220.478 202.116C206.938 208.866 155.731 208.622 156.076 195.59C156.422 182.557 158.137 173.767 184.09 162.49Z" fill="white"/>
</svg>
