<svg id="Layer_1" data-name="Layer 1" xmlns="http://www.w3.org/2000/svg" viewBox="0 0 400 300" width="406" height="306" class="illustration styles_illustrationTablet__1DWOa"><polygon points="258.76 173.53 258.76 195.77 258.76 253.13 334.77 253.13 334.77 195.77 334.77 173.53 258.76 173.53" fill="#68e1fd"></polygon><polygon points="258.76 173.53 258.76 195.77 258.76 253.13 334.77 253.13 334.77 195.77 334.77 173.53 258.76 173.53" opacity="0.13"></polygon><rect x="109.4" y="138.43" width="26.29" height="92.83" fill="#68e1fd" opacity="0.19"></rect><rect x="241.59" y="103.33" width="28.28" height="100.08" fill="#68e1fd" opacity="0.19"></rect><rect x="276.64" y="146.55" width="30.14" height="100.08" fill="#68e1fd" opacity="0.19"></rect><path d="M92.87,78.67c-.58,29.88-16.54,37.25-16.54,37.25V252.66H109.4V115.92S93.45,108.55,92.87,78.67Z" fill="#68e1fd" opacity="0.36"></path><polygon points="148.04 80.36 123.24 114.93 123.24 252.66 160.52 252.66 160.52 116.09 182.29 80.36 148.04 80.36" fill="#ffd200"></polygon><polygon points="182.29 80.36 204.9 80.36 204.9 252.66 160.52 252.66 160.52 116.09 182.29 80.36" fill="#ffd200"></polygon><polygon points="182.29 80.36 204.9 80.36 204.9 252.66 160.52 252.66 160.52 116.09 182.29 80.36" opacity="0.18"></polygon><circle cx="324.56" cy="91.61" r="17.78" fill="#ffd200"></circle><circle cx="324.56" cy="91.61" r="27.79" fill="#ffd200" opacity="0.15"></circle><path d="M149.19,128.39h0a3.9,3.9,0,0,1,3.9,3.9v16.29a0,0,0,0,1,0,0h-7.8a0,0,0,0,1,0,0V132.29A3.9,3.9,0,0,1,149.19,128.39Z" fill="#fff"></path><path d="M133.38,128.34h0a3.9,3.9,0,0,1,3.9,3.9v16.29a0,0,0,0,1,0,0h-7.8a0,0,0,0,1,0,0V132.24a3.9,3.9,0,0,1,3.9-3.9Z" fill="#fff"></path><path d="M149.19,162.25h0a3.9,3.9,0,0,1,3.9,3.9v16.29a0,0,0,0,1,0,0h-7.8a0,0,0,0,1,0,0V166.14A3.9,3.9,0,0,1,149.19,162.25Z" fill="#fff" opacity="0.52"></path><path d="M133.38,162.19h0a3.9,3.9,0,0,1,3.9,3.9v16.29a0,0,0,0,1,0,0h-7.8a0,0,0,0,1,0,0V166.09a3.9,3.9,0,0,1,3.9-3.9Z" fill="#fff" opacity="0.52"></path><rect x="91.71" y="193.05" width="48.92" height="59.61" fill="#68e1fd"></rect><rect x="96.64" y="172.31" width="39.06" height="20.73" fill="#68e1fd"></rect><rect x="91.71" y="193.05" width="48.92" height="5.44" fill="#fff" opacity="0.44"></rect><rect x="112.35" y="164.05" width="15.09" height="8.27" fill="#24285b"></rect><rect x="225.05" y="52.73" width="15.09" height="8.27" fill="#24285b"></rect><rect x="249.85" y="122.04" width="15.09" height="8.27" fill="#24285b"></rect><rect x="194.15" y="61.12" width="60.05" height="69.19" fill="#68e1fd"></rect><rect x="194.15" y="61.12" width="60.05" height="69.19" fill="#fff" opacity="0.44"></rect><rect x="194.15" y="130.38" width="84.76" height="122.75" fill="#68e1fd"></rect><rect x="202.57" y="202.03" width="64.11" height="6.89" fill="#fff" opacity="0.34"></rect><rect x="202.57" y="215.96" width="64.11" height="6.89" fill="#fff" opacity="0.18"></rect><rect x="204.74" y="158.53" width="11.02" height="11.02" fill="#24285b"></rect><rect x="220.41" y="158.53" width="11.02" height="11.02" fill="#24285b"></rect><rect x="236.07" y="158.53" width="11.02" height="11.02" fill="#24285b"></rect><rect x="204.74" y="181.07" width="11.02" height="11.02" fill="#24285b"></rect><rect x="220.41" y="181.07" width="11.02" height="11.02" fill="#24285b"></rect><rect x="236.07" y="181.07" width="11.02" height="11.02" fill="#24285b"></rect><rect x="232.45" y="181" width="21.76" height="72.13" opacity="0.13"></rect><polygon points="123.24 114.93 160.52 116.09 182.29 80.36 147.81 78.67 123.24 114.93" fill="#fff" opacity="0.44"></polygon><rect x="244.92" y="173.53" width="76.01" height="22.24" fill="#68e1fd"></rect><rect x="244.92" y="173.53" width="76.01" height="22.24" fill="#fff" opacity="0.44"></rect><rect x="244.92" y="195.77" width="76.01" height="57.36" fill="#68e1fd"></rect><rect x="202.57" y="73.15" width="42.35" height="20.31" fill="#fff"></rect><rect x="202.57" y="103.33" width="11.02" height="11.02" fill="#24285b"></rect><rect x="218.23" y="103.33" width="11.02" height="11.02" fill="#24285b"></rect><rect x="233.9" y="103.33" width="11.02" height="11.02" fill="#24285b"></rect><rect x="167.61" y="143.14" width="21.1" height="8.7" fill="#fff" opacity="0.28"></rect><rect x="100.16" y="238.01" width="12.18" height="14.65" fill="#fff"></rect><rect x="206.19" y="238.01" width="12.18" height="14.65" fill="#fff"></rect><rect x="299.85" y="238.01" width="12.18" height="14.65" fill="#fff"></rect><rect x="100.16" y="205.88" width="32.78" height="5.51" fill="#fff" opacity="0.57"></rect><rect x="102.06" y="179.95" width="28.57" height="5.51" fill="#fff"></rect><rect x="100.16" y="218.5" width="32.78" height="5.51" fill="#fff" opacity="0.57"></rect><rect x="140.63" y="205.88" width="19.88" height="46.78" fill="#fff" opacity="0.33"></rect><rect x="175.01" y="175.78" width="19.15" height="76.88" opacity="0.18"></rect><rect x="255.73" y="201.38" width="8.41" height="24.95" fill="#fff"></rect><rect x="270.91" y="201.38" width="8.41" height="24.95" fill="#fff"></rect><rect x="286.55" y="201.38" width="8.41" height="24.95" fill="#fff"></rect><rect x="301.73" y="201.38" width="8.41" height="24.95" fill="#fff"></rect><rect x="202.57" y="143.14" width="64.11" height="6.89" fill="#fff"></rect><polygon points="287.57 173.53 268.71 143.14 249.85 173.53 287.57 173.53" fill="#68e1fd"></polygon><polygon points="287.57 173.53 268.71 143.14 249.85 173.53 287.57 173.53" fill="#24285b"></polygon><rect x="50.81" y="252.87" width="312.34" height="8.03" rx="3.78" fill="#24285b"></rect></svg>