<svg width="62" height="59" viewBox="0 0 62 59" fill="none" xmlns="http://www.w3.org/2000/svg">
<path d="M53.8081 9.3125C54.5528 9.3125 54.8507 9.70212 54.7018 10.3886L46.3606 47.7553C46.2117 48.349 45.8765 48.6458 45.2807 48.6458H40.3468C39.751 48.6458 39.4159 48.349 39.2669 47.7553L30.963 10.4072C30.8141 9.72068 31.112 9.33105 31.8567 9.33105H36.5486C37.1444 9.33105 37.4795 9.62791 37.6285 10.2216L42.8045 36.5675L48.0363 10.2031C48.1852 9.60936 48.5204 9.3125 49.1162 9.3125H53.8081Z" fill="white"/>
<path d="M27.705 21.3166C27.705 21.8175 27.4071 22.1144 26.9044 22.1144H21.9518C21.4119 22.1144 21.1512 21.8175 21.1512 21.3166V17.3647C21.1512 16.0845 20.4624 15.3795 19.159 15.3795H16.5897C15.2491 15.3795 14.5975 16.0659 14.5975 17.3647V39.9071C14.5975 41.243 15.2864 41.8738 16.5897 41.8738H19.1777C20.4624 41.8738 21.1699 41.2244 21.1699 39.9071V35.9552C21.1699 35.4543 21.4119 35.1574 21.9705 35.1574H26.923C27.4257 35.1574 27.7236 35.4543 27.7236 35.9552V41.2986C27.7236 45.937 25.1915 48.4232 20.5741 48.4232H15.0071C10.3524 48.4232 7.82031 45.9556 7.82031 41.2986V15.9917C7.82031 11.3534 10.3524 8.86719 15.0071 8.86719H20.5554C25.1729 8.86719 27.705 11.3348 27.705 15.9917V21.3166Z" fill="url(#paint0_linear_5745_145)"/>
<path d="M31.485 34.0287C31.7084 34.1214 31.7829 34.2699 31.6898 34.4739L31.0195 35.9026C30.9264 36.1067 30.7589 36.1623 30.5168 36.0881L28.8039 35.4387C28.6364 35.3645 28.5246 35.2903 28.4129 35.1604L27.3703 33.7689C27.2958 33.6947 27.2958 33.6205 27.3331 33.5277L27.6682 32.8227C27.6868 32.7856 27.724 32.7299 27.7799 32.7114C27.8171 32.6928 27.873 32.7114 27.8916 32.7114C28.2826 32.8041 29.5859 33.3051 29.5859 33.3051C29.6418 33.3236 29.7349 33.3607 29.8652 33.4164L31.485 34.0287Z" fill="url(#paint1_linear_5745_145)"/>
<path d="M31.4838 29.4603C31.7073 29.3861 31.7817 29.2192 31.6886 29.0336L31.0742 27.6792C30.9811 27.4751 30.8136 27.4195 30.5901 27.5122L28.8772 28.1431C28.7097 28.2173 28.5979 28.2915 28.4862 28.4028L27.425 29.7387C27.3505 29.8129 27.3505 29.8685 27.3877 29.9613L27.6856 30.6292C27.7043 30.6663 27.7415 30.7034 27.7973 30.722C27.8346 30.7405 27.8904 30.722 27.9091 30.722C28.3001 30.6478 29.6034 30.1468 29.6034 30.1468C29.6592 30.1283 29.7523 30.0912 29.8826 30.0541L31.4838 29.4603Z" fill="url(#paint2_linear_5745_145)"/>
<path d="M23.6076 10.1283C23.7938 9.9428 24.8178 10.3881 25.488 11.0375C26.0838 11.6312 26.2886 12.2805 26.3631 12.5032C26.4376 12.7629 26.419 12.7815 26.5679 14.1173C26.661 14.9708 26.6983 15.0636 26.6424 15.0821C26.4376 15.1563 25.8232 13.6535 24.2778 11.3714C23.7938 10.6478 23.4772 10.2582 23.6076 10.1283Z" fill="white"/>
<path d="M13.7045 28.6486C14.0582 28.6671 13.9093 36.1442 13.9093 36.1442C13.9093 36.1442 13.4066 36.5152 13.239 36.4967C12.5874 36.3854 13.3507 28.6115 13.7045 28.6486Z" fill="#DAE6FD"/>
<path opacity="0.6" d="M24.9689 35.9164C25.0433 35.8051 25.155 35.8978 26.2908 35.8607C26.3839 35.8607 26.5514 35.8422 26.7004 35.9535C26.8307 36.0463 26.868 36.1761 26.9052 36.3617C26.9797 36.7327 26.9797 36.9925 26.9797 37.3265C26.9983 37.9016 27.0355 38.0871 26.9424 38.1243C26.8307 38.1614 26.6073 37.9016 26.4397 37.6975C25.3599 36.4173 24.8385 36.139 24.9689 35.9164Z" fill="white"/>
<defs>
<linearGradient id="paint0_linear_5745_145" x1="31.8044" y1="20.5621" x2="3.77614" y2="36.801" gradientUnits="userSpaceOnUse">
<stop stop-color="#DAE6FD"/>
<stop offset="0.1616" stop-color="#D5E1F9"/>
<stop offset="0.3573" stop-color="#C6D4EE"/>
<stop offset="0.5709" stop-color="#AEBEDA"/>
<stop offset="0.7954" stop-color="#8CA0C0"/>
<stop offset="1" stop-color="#667EA3"/>
</linearGradient>
<linearGradient id="paint1_linear_5745_145" x1="31.7215" y1="34.425" x2="27.3268" y2="34.425" gradientUnits="userSpaceOnUse">
<stop offset="0.000339888" stop-color="#DAE6FD"/>
<stop offset="1" stop-color="#4E6C99"/>
</linearGradient>
<linearGradient id="paint2_linear_5745_145" x1="31.7261" y1="29.1074" x2="27.3501" y2="29.1074" gradientUnits="userSpaceOnUse">
<stop offset="0.000339888" stop-color="#DAE6FD"/>
<stop offset="1" stop-color="#4E6C99"/>
</linearGradient>
</defs>
</svg>
