<svg width="1278" height="813" viewBox="0 0 1278 813" fill="none" xmlns="http://www.w3.org/2000/svg">
<g clip-path="url(#clip0_4033_3633)">
<path d="M1175.3 52.5838H482.972C482.253 52.5679 481.568 52.2706 481.064 51.7558C480.561 51.2409 480.279 50.5493 480.279 49.829C480.279 49.1088 480.561 48.4172 481.064 47.9023C481.568 47.3874 482.253 47.0902 482.972 47.0742H1175.3C1176.02 47.0902 1176.71 47.3874 1177.21 47.9023C1177.71 48.4172 1178 49.1088 1178 49.829C1178 50.5493 1177.71 51.2409 1177.21 51.7558C1176.71 52.2706 1176.02 52.5679 1175.3 52.5838Z" fill="#E6E6E6"/>
<path d="M530.1 33.0085C539.011 33.0085 546.235 25.6193 546.235 16.5043C546.235 7.3892 539.011 0 530.1 0C521.189 0 513.965 7.3892 513.965 16.5043C513.965 25.6193 521.189 33.0085 530.1 33.0085Z" fill="#3F3D56"/>
<path d="M585.84 33.0085C594.751 33.0085 601.975 25.6193 601.975 16.5043C601.975 7.3892 594.751 0 585.84 0C576.929 0 569.705 7.3892 569.705 16.5043C569.705 25.6193 576.929 33.0085 585.84 33.0085Z" fill="#3F3D56"/>
<path d="M641.58 33.0085C650.492 33.0085 657.715 25.6193 657.715 16.5043C657.715 7.3892 650.492 0 641.58 0C632.669 0 625.445 7.3892 625.445 16.5043C625.445 25.6193 632.669 33.0085 641.58 33.0085Z" fill="#3F3D56"/>
<path d="M1141.74 4.08203H1102.15C1101.37 4.09981 1100.62 4.42349 1100.07 4.9838C1099.53 5.54412 1099.22 6.29656 1099.22 7.08013C1099.22 7.86369 1099.53 8.61613 1100.07 9.17645C1100.62 9.73676 1101.37 10.0604 1102.15 10.0782H1141.74C1142.53 10.0676 1143.28 9.74711 1143.83 9.18601C1144.39 8.62491 1144.7 7.86837 1144.7 7.08013C1144.7 6.29188 1144.39 5.53534 1143.83 4.97424C1143.28 4.41314 1142.53 4.09261 1141.74 4.08203Z" fill="#3F3D56"/>
<path d="M1141.74 15.3398H1102.15C1101.37 15.3573 1100.62 15.6807 1100.08 16.2411C1099.53 16.8014 1099.22 17.554 1099.22 18.3378C1099.22 19.1216 1099.53 19.8742 1100.08 20.4346C1100.62 20.9949 1101.37 21.3184 1102.15 21.3358H1141.74C1142.53 21.3251 1143.28 21.0045 1143.83 20.4435C1144.39 19.8824 1144.7 19.126 1144.7 18.3378C1144.7 17.5497 1144.39 16.7932 1143.83 16.2322C1143.28 15.6711 1142.53 15.3505 1141.74 15.3398Z" fill="#3F3D56"/>
<path d="M1141.74 26.6016H1102.15C1101.37 26.6193 1100.62 26.943 1100.07 27.5033C1099.53 28.0636 1099.22 28.8161 1099.22 29.5996C1099.22 30.3832 1099.53 31.1356 1100.07 31.696C1100.62 32.2563 1101.37 32.58 1102.15 32.5977H1141.74C1142.53 32.5871 1143.28 32.2666 1143.83 31.7055C1144.39 31.1444 1144.7 30.3879 1144.7 29.5996C1144.7 28.8114 1144.39 28.0549 1143.83 27.4938C1143.28 26.9327 1142.53 26.6121 1141.74 26.6016Z" fill="#3F3D56"/>
<path d="M604.898 335.676H884.22C884.561 335.676 884.888 335.811 885.129 336.053C885.37 336.294 885.505 336.621 885.505 336.962V499.472C885.505 499.813 885.37 500.14 885.129 500.381C884.888 500.623 884.561 500.758 884.22 500.758H604.898V335.676Z" fill="#E6E6E6"/>
<path d="M883.892 501.633L604.531 336.919L605.267 334.426L884.628 499.14C884.959 499.238 885.237 499.463 885.401 499.765C885.566 500.068 885.604 500.424 885.506 500.755C885.458 500.918 885.378 501.071 885.27 501.204C885.163 501.337 885.031 501.447 884.881 501.528C884.731 501.61 884.567 501.661 884.397 501.679C884.227 501.697 884.056 501.681 883.892 501.633Z" fill="white"/>
<path d="M605.267 502.003L604.531 499.51L883.892 334.795C884.056 334.747 884.227 334.731 884.397 334.749C884.567 334.767 884.731 334.819 884.881 334.9C885.031 334.982 885.163 335.092 885.271 335.225C885.378 335.358 885.458 335.51 885.506 335.674C885.604 336.004 885.566 336.36 885.401 336.663C885.237 336.966 884.959 337.191 884.628 337.288L605.267 502.003Z" fill="white"/>
<path d="M852.497 173.105H637.594C634.235 173.105 631.512 175.83 631.512 179.191V179.191C631.512 182.552 634.235 185.277 637.594 185.277H852.497C855.856 185.277 858.579 182.552 858.579 179.191C858.579 175.83 855.856 173.105 852.497 173.105Z" fill="#E6E6E6"/>
<path d="M881.387 211.098H608.705C605.346 211.098 602.623 213.822 602.623 217.183C602.623 220.544 605.346 223.269 608.705 223.269H881.387C884.746 223.269 887.469 220.544 887.469 217.183C887.469 213.822 884.746 211.098 881.387 211.098Z" fill="#E6E6E6"/>
<path d="M881.387 249.086H608.705C605.346 249.086 602.623 251.811 602.623 255.172C602.623 258.532 605.346 261.257 608.705 261.257H881.387C884.746 261.257 887.469 258.532 887.469 255.172C887.469 251.811 884.746 249.086 881.387 249.086Z" fill="#6C63FF"/>
<path d="M1139.96 377.335C1139.95 400.258 1132.83 422.612 1119.57 441.308C1106.31 460.003 1087.58 474.117 1065.96 481.698C1065.02 482.036 1064.08 482.343 1063.13 482.64C1040.92 489.741 1017.05 489.635 994.91 482.337C972.772 475.038 953.509 460.921 939.875 442.005C926.241 423.089 918.936 400.343 919.004 377.021C919.073 353.7 926.511 330.997 940.255 312.161C953.999 293.325 973.345 279.321 995.525 272.153C1017.7 264.984 1041.58 265.018 1063.74 272.249C1085.9 279.481 1105.21 293.54 1118.9 312.415C1132.59 331.29 1139.96 354.013 1139.96 377.335V377.335Z" fill="#E6E6E6"/>
<path d="M881.338 263.699C881.22 265.056 881.401 266.421 881.868 267.7C882.335 268.979 883.076 270.14 884.04 271.101C885.003 272.062 886.166 272.8 887.446 273.263C888.725 273.726 890.091 273.902 891.446 273.78L905.05 303.944L914.237 289.409L899.909 262.993C899.553 260.729 898.379 258.674 896.61 257.218C894.84 255.762 892.599 255.006 890.31 255.093C888.021 255.18 885.843 256.104 884.189 257.69C882.536 259.276 881.521 261.415 881.338 263.699Z" fill="#FFB6B6"/>
<path d="M1015.41 377.296C1015.21 376.405 1014.96 375.526 1014.65 374.666C1012.7 369.122 1008.73 364.519 1003.53 361.78C1003.41 361.709 1003.28 361.637 1003.16 361.576L941.006 330.022L935.492 319.266L913.214 275.84L907.752 277.467L894.844 281.305L894.547 281.387L915.945 353.439L920.855 357.205L976.469 399.761L978.279 401.153C982.749 404.568 988.296 406.264 993.91 405.933C999.525 405.603 1004.83 403.267 1008.87 399.352C1009.71 398.553 1010.48 397.691 1011.17 396.773C1013.27 394.038 1014.73 390.874 1015.47 387.508C1016.2 384.141 1016.18 380.654 1015.41 377.296Z" fill="#6C63FF"/>
<path d="M1049.96 456.428L1049.63 444.555L1048.69 410.126C1052.1 388.091 1054.51 385.645 1038.09 370.579C1037.46 370.444 1036.87 370.18 1036.35 369.803C1035.83 369.426 1035.39 368.944 1035.07 368.389C1033.58 365.339 1037.17 360.16 1034.07 352.188L1009.61 353.59L1003.53 361.777L979.087 394.733C978.129 396.362 977.255 398.04 976.468 399.758C966.004 422.5 980.192 434.587 981.296 436.664L988.068 458.004L991.801 478.698L993.008 481.574L996.414 482.823C1018.14 489.613 1041.43 489.548 1063.13 482.639C1059.48 473.55 1055.07 464.782 1049.96 456.428Z" fill="#6C63FF"/>
<path d="M1097.33 540.126C1097.88 538.882 1098.16 537.532 1098.13 536.171C1098.11 534.81 1097.79 533.47 1097.19 532.247C1096.59 531.024 1095.74 529.947 1094.68 529.091C1093.62 528.236 1092.39 527.623 1091.06 527.295L1088.05 494.34L1074.62 505.077L1079.55 534.726C1079.14 536.983 1079.58 539.308 1080.78 541.263C1081.98 543.217 1083.85 544.664 1086.04 545.33C1088.23 545.995 1090.59 545.833 1092.67 544.874C1094.75 543.915 1096.41 542.225 1097.33 540.126L1097.33 540.126Z" fill="#FFB6B6"/>
<path d="M1050.55 378.534C1048.8 375.878 1046.52 373.608 1043.86 371.864C1041.19 370.12 1038.2 368.938 1035.07 368.392C1033.71 368.146 1032.33 368.023 1030.96 368.023C1026.36 368.024 1021.87 369.38 1018.04 371.923C1016.82 372.725 1015.69 373.644 1014.65 374.666C1012.44 376.808 1010.67 379.366 1009.45 382.192C1008.23 385.019 1007.57 388.058 1007.52 391.138C1007.48 394.217 1008.03 397.276 1009.17 400.139C1010.3 403.003 1011.99 405.615 1014.13 407.826L1049.63 444.558L1062.57 457.945L1065.96 481.7L1071.17 518.248L1076.85 518.493L1090.31 519.087L1090.62 519.097L1092.86 467.883L1093.9 444.006L1050.55 378.534Z" fill="#6C63FF"/>
<path d="M1002.04 296.011C993.391 313.064 999.039 332.816 1015.08 343.203C1032.44 354.435 1054.96 351.975 1062.25 330.148C1070.36 305.842 1063.7 295.414 1049.2 282.957C1032.22 268.358 1011.38 277.586 1002.04 296.011Z" fill="#2F2E41"/>
<path d="M1044.6 333.999C1040.2 339.771 1033.69 343.558 1026.5 344.528C1019.31 345.499 1012.03 343.574 1006.25 339.175C1000.48 334.777 996.688 328.266 995.711 321.072C994.733 313.879 996.65 306.591 1001.04 300.81L1001.28 300.498C1005.76 294.882 1012.27 291.254 1019.4 290.398C1026.54 289.542 1033.72 291.526 1039.41 295.921C1045.09 300.317 1048.82 306.772 1049.79 313.895C1050.76 321.017 1048.89 328.236 1044.59 333.994L1044.6 333.999Z" fill="#FFB6B6"/>
<path d="M993.658 293.248C998.107 297.484 1003.53 300.559 1009.45 302.2C1010.63 300.827 1012.04 299.661 1013.61 298.75C1012.86 300.313 1012.34 301.979 1012.08 303.694C1014.72 309.175 1025.5 313.114 1035.81 317.144L1049.45 293.046L1031.39 282.804C1016.88 272.764 999.788 277.049 993.658 293.248Z" fill="#2F2E41"/>
<path d="M1059.75 282.988C1061.06 282.502 1062.48 282.354 1063.87 282.557C1065.26 282.76 1066.58 283.308 1067.7 284.15C1069.9 285.823 1071.68 287.987 1072.89 290.469C1075.1 294.485 1076.69 298.814 1077.6 303.307C1078.38 307.194 1078.25 311.893 1074.76 313.922C1071.85 315.614 1067.7 314.549 1065.02 312.29C1062.54 309.92 1060.67 306.995 1059.54 303.756C1058.24 300.656 1057 297.442 1054.68 294.868L1057.09 295.993C1056.33 293.681 1055.98 291.254 1056.04 288.82C1056.1 287.609 1056.47 286.434 1057.12 285.411C1057.77 284.388 1058.67 283.552 1059.75 282.988Z" fill="#2F2E41"/>
<path d="M1028.5 286.145L1047.88 297.132C1053.12 300.103 1056.97 305.035 1058.58 310.843C1060.18 316.651 1059.42 322.86 1056.45 328.103C1052.12 335.739 1045.11 341.487 1036.77 344.224C1028.44 346.961 1019.38 346.49 1011.37 342.903L1029.08 327.262L1005.06 339.509L999.932 336.601C1025.7 331.913 1030.67 311.692 1028.5 286.145Z" fill="#2F2E41"/>
<path d="M1065.11 305.455C1068.37 309.255 1073.48 310.731 1078.09 312.708C1086.22 316.277 1093.35 321.776 1098.88 328.729C1104.41 335.681 1108.15 343.877 1109.8 352.607C1111.07 359.717 1110.9 367.077 1112.92 374.009C1114.91 380.94 1119.87 387.741 1126.97 388.944C1131.78 389.766 1136.6 387.908 1141.13 386.074C1143.61 385.073 1146.1 384.069 1148.59 383.06C1145.99 376.546 1143.4 370.031 1140.82 363.516C1144.97 369.664 1149.81 375.325 1155.23 380.393C1164.15 376.796 1173.07 373.199 1182 369.602C1160.03 369.686 1163.78 348.343 1158.86 326.929C1156.16 315.162 1133.15 307.194 1128.64 295.999C1126.2 289.926 1122.08 284.68 1116.75 280.88C1111.43 277.081 1105.13 274.887 1098.59 274.559C1092.06 274.23 1085.57 275.781 1079.89 279.028C1074.22 282.275 1069.59 287.081 1066.55 292.878C1062.04 294.677 1061.91 301.704 1065.11 305.455Z" fill="#2F2E41"/>
<path d="M426.825 511.613C425.746 510.245 424.976 508.659 424.569 506.964C424.163 505.269 424.129 503.507 424.47 501.797C424.811 500.088 425.519 498.473 426.546 497.065C427.572 495.656 428.892 494.488 430.414 493.64L424.139 433.985L440.203 428.191L447.138 499.099C448.374 501.769 448.588 504.799 447.74 507.616C446.892 510.433 445.041 512.841 442.537 514.384C440.033 515.926 437.051 516.496 434.155 515.986C431.259 515.475 428.651 513.919 426.825 511.613Z" fill="#FFB6B6"/>
<path d="M418.235 292.902C418.235 292.902 444.313 305.634 444.398 320.601C444.483 335.568 446.643 349.105 444.602 354.896C442.561 360.687 449.788 402.782 446.405 406.95C443.022 411.119 449.992 413.252 446.329 420.387C442.667 427.521 441.045 428.864 442.388 430.486C443.73 432.109 445.701 463.035 445.701 463.035L424.213 465.723L401.354 365.905L418.235 292.902Z" fill="#3F3D56"/>
<path d="M294.219 517.673C295.501 516.492 296.511 515.047 297.18 513.438C297.848 511.828 298.16 510.092 298.092 508.351C298.024 506.609 297.579 504.903 296.788 503.35C295.996 501.797 294.877 500.435 293.508 499.358L309.105 441.439L294.155 433.184L276.133 502.11C274.492 504.551 273.802 507.51 274.196 510.426C274.589 513.341 276.038 516.011 278.268 517.929C280.497 519.848 283.352 520.881 286.292 520.834C289.232 520.786 292.053 519.662 294.219 517.673H294.219Z" fill="#FFB6B6"/>
<path d="M337.168 303.055C337.168 303.055 309.41 311.513 306.968 326.279C304.526 341.046 300.26 354.073 301.362 360.113C302.465 366.154 288.695 406.582 291.379 411.232C294.063 415.882 286.844 416.889 289.337 424.512C291.829 432.135 293.219 433.717 291.637 435.107C290.056 436.498 283.236 466.726 283.236 466.726L304.032 472.771L342.335 377.808L337.168 303.055Z" fill="#3F3D56"/>
<path d="M443.768 776.8L462.282 776.799L471.091 705.344L443.766 705.345L443.768 776.8Z" fill="#FFB6B6"/>
<path d="M468.444 778.469V765.91L463.577 766.208L443.763 767.382L439.178 767.664L435.672 809.726L435.484 811.981H448.631L449.053 809.741L450.963 799.562L455.892 809.741L456.972 811.981H491.826C493.9 811.967 495.885 811.136 497.35 809.667C498.815 808.198 499.642 806.21 499.651 804.135C501.122 797.26 472.138 782.4 468.444 778.469Z" fill="#2F2E41"/>
<path d="M226.859 756.633L242.963 765.775L285.866 707.975L262.099 694.484L226.859 756.633Z" fill="#FFB6B6"/>
<path d="M247.507 770.263L253.689 759.349L249.338 757.203L231.512 748.45L227.381 746.414L207.082 776.151L202.309 783.136L207.708 786.205L213.733 789.634L221.903 779.988L220.995 793.753L249.463 809.929H249.479L251.31 810.962C253.118 811.985 255.258 812.247 257.259 811.692C259.26 811.137 260.959 809.81 261.984 808.003C266.647 802.741 248.775 775.525 247.507 770.263Z" fill="#2F2E41"/>
<path d="M351.886 426.042C310.851 427.517 296.43 594.92 308.961 597.957L250.482 707.003L333.718 744.336L388.446 554.195L397.568 624.167L385.406 735.209L439.208 748.227L476.421 745.568C466.752 613.207 442.608 473.608 422.6 419.609L351.886 426.042Z" fill="#2F2E41"/>
<path d="M333.049 437.78L332.779 438.797C359.007 453.398 376.918 450.274 405.589 441.436L426.52 437.034C431.088 431.074 427.365 425.243 422.303 419.566L434.851 316.3C434.83 312.98 434.127 309.7 432.786 306.663C431.445 303.626 429.495 300.898 427.056 298.646C424.617 296.395 421.741 294.67 418.608 293.577C415.475 292.485 412.15 292.048 408.841 292.295L389.993 278.324L363.16 279.25L345.212 299.088L334.489 302.921L326.157 305.893C324.473 307.411 322.634 309.161 320.873 311.09L334.052 389.564L339.657 413.029C332.143 421.602 328.003 429.97 333.049 437.78Z" fill="#3F3D56"/>
<path d="M180.823 799.017C171.183 797.869 161.92 794.58 153.712 789.392C145.504 784.203 138.558 777.245 133.381 769.027C126.65 758.103 123.176 745.131 119.817 732.585C118.839 728.934 117.828 725.159 116.758 721.52C115.547 717.543 115.555 713.294 116.779 709.322C118.004 705.349 120.389 701.834 123.627 699.23C126.758 696.605 130.603 694.977 134.667 694.557C138.731 694.138 142.827 694.945 146.427 696.876L147.213 697.293L148.591 728.269C150.632 724.119 155.11 714.744 158.659 705.384L158.956 704.6L159.636 705.091C166.77 710.219 173.23 716.225 178.863 722.968C188.811 735.069 196.006 749.192 199.948 764.355C203.89 779.519 204.484 795.36 201.69 810.776L201.518 811.695L180.823 799.017Z" fill="#F2F2F2"/>
<path d="M96 811.468C95.9994 811.67 96.0386 811.869 96.1153 812.055C96.1919 812.241 96.3046 812.41 96.4468 812.552C96.589 812.695 96.7579 812.807 96.9438 812.884C97.1298 812.961 97.329 813 97.5301 812.999H1180.47C1180.88 812.999 1181.27 812.838 1181.55 812.551C1181.84 812.264 1182 811.874 1182 811.468C1182 811.062 1181.84 810.673 1181.55 810.386C1181.27 810.099 1180.88 809.938 1180.47 809.938H97.53C97.3289 809.937 97.1297 809.976 96.9438 810.053C96.7579 810.13 96.589 810.242 96.4468 810.385C96.3046 810.527 96.1919 810.696 96.1153 810.882C96.0386 811.068 95.9994 811.267 96 811.468Z" fill="#CCCCCC"/>
<path d="M414.738 260.708L414.765 260.701C416.168 260.329 417.366 259.415 418.096 258.159C418.826 256.904 419.027 255.41 418.656 254.006L410.86 224.456C409.468 219.16 407.027 214.199 403.681 209.866C397.137 201.415 387.586 195.817 377.018 194.238C371.564 193.43 366.003 193.734 360.67 195.134C338.851 200.86 332.757 208.08 331.525 245.031C330.294 281.982 339.333 274.626 339.333 274.626C339.52 275.339 339.849 276.006 340.299 276.589C341.18 277.725 342.466 278.476 343.888 278.685C344.617 278.792 345.361 278.751 346.074 278.565C373.321 275.759 400.915 273.203 414.743 260.707L414.738 260.708Z" fill="#2F2E41"/>
<path d="M350.676 229.512C349.245 235.292 349.558 241.367 351.575 246.968C353.593 252.57 357.224 257.449 362.01 260.987C366.797 264.525 372.524 266.565 378.468 266.848C384.412 267.132 390.307 265.647 395.408 262.58C398.789 260.562 401.736 257.892 404.079 254.726C406.421 251.56 408.113 247.96 409.055 244.135C410.48 238.359 410.164 232.291 408.147 226.694C406.13 221.098 402.502 216.225 397.72 212.688C392.939 209.152 387.218 207.112 381.279 206.824C375.341 206.537 369.45 208.015 364.349 211.073C360.964 213.088 358.012 215.756 355.665 218.921C353.318 222.087 351.622 225.687 350.677 229.513L350.676 229.512Z" fill="#FFB6B6"/>
<path d="M420.862 224.388C419.761 220.2 417.83 216.276 415.183 212.849C411.424 203.471 405.526 195.891 394.1 200.493C389.814 199.86 385.445 200.095 381.252 201.185L375.333 202.717C375.266 202.734 375.2 202.751 375.134 202.769C366.869 204.957 359.811 210.341 355.514 217.736C351.216 225.131 350.03 233.931 352.217 242.201L352.373 242.793L364.891 239.541L366.011 226.496L370.014 238.212L376.48 236.535L377.043 229.954L379.063 235.861C391.323 240.627 405.533 235.899 421.013 224.982L420.862 224.388Z" fill="#2F2E41"/>
<path d="M392.141 265.679C392.589 266.583 392.774 267.594 392.676 268.598C392.629 269.111 392.511 269.615 392.324 270.095C392.164 270.504 391.956 270.893 391.705 271.253C390.959 272.318 389.859 273.082 388.601 273.408C388.523 273.428 388.444 273.447 388.365 273.464C388.286 273.481 388.206 273.496 388.126 273.509C388.045 273.524 387.964 273.536 387.883 273.545C387.802 273.555 387.72 273.563 387.637 273.57L382.986 273.935L373.426 262.483L376.583 274.452L355.447 276.147L342.047 225.354L375.917 216.582L375.337 217.775C373.421 221.769 372.644 226.214 373.091 230.621C373.565 235.08 374.8 239.424 376.74 243.465C378.671 247.563 380.991 251.466 383.668 255.12C386.02 258.362 388.557 261.466 391.267 264.416C391.616 264.794 391.91 265.22 392.141 265.679Z" fill="#2F2E41"/>
</g>
<defs>
<clipPath id="clip0_4033_3633">
<rect width="1086" height="813" fill="white" transform="translate(96)"/>
</clipPath>
</defs>
</svg>
