<svg width="218" height="192" viewBox="0 0 218 192" fill="none" xmlns="http://www.w3.org/2000/svg">
<path d="M211.44 8.58203C214.805 8.58203 216.145 10.3698 215.475 13.5067L177.605 183.737C176.934 186.421 175.363 187.77 172.673 187.77H150.264C147.569 187.77 146.002 186.426 145.332 183.737L107.683 13.5067C107.013 10.3745 108.358 8.58203 111.719 8.58203H133.009C135.699 8.58203 137.266 9.92169 137.936 12.6151L161.468 132.665L185.222 12.6151C185.897 9.92169 187.464 8.58203 190.154 8.58203H211.444H211.44Z" fill="white"/>
<path d="M92.8495 63.2553C92.8495 65.5054 91.4949 66.8592 89.2437 66.8592H66.7121C64.2343 66.8592 63.1063 65.5101 63.1063 63.2553V45.236C63.1063 39.3821 59.9536 36.231 54.0918 36.231H42.3777C36.2941 36.231 33.3679 39.3821 33.3679 45.236V147.922C33.3679 154.003 36.5206 156.927 42.3777 156.927H54.0918C59.9536 156.927 63.1063 154.003 63.1063 147.922V129.903C63.1063 127.653 64.2343 126.299 66.7121 126.299H89.2437C91.4949 126.299 92.8495 127.648 92.8495 129.903V154.225C92.8495 175.39 81.3572 186.65 60.402 186.65H35.1708C13.9891 186.65 2.50146 175.39 2.50146 154.225V38.9339C2.50146 17.7683 13.9938 6.50391 35.1708 6.50391H60.402C81.3572 6.50391 92.8495 17.7636 92.8495 38.9339V63.2553Z" fill="url(#paint0_linear_7144_13739)"/>
<path d="M74.2305 12.227C75.0989 11.3779 79.7147 13.3874 82.7495 16.3922C85.4633 19.0762 86.4119 22.0621 86.7281 23.0858C87.0774 24.232 86.9688 24.3547 87.7004 30.4586C88.1582 34.3124 88.262 34.7653 88.0307 34.8455C87.0915 35.1851 84.3258 28.3217 77.3077 17.963C75.0517 14.6327 73.6264 12.8166 74.2352 12.2223L74.2305 12.227Z" fill="white"/>
<path d="M29.2664 96.5822C30.8711 96.6813 30.1585 130.72 30.1585 130.725C30.1585 130.725 27.8553 132.423 27.1473 132.314C24.1928 131.861 27.6287 96.4832 29.2664 96.5822Z" fill="#DAE6FD"/>
<path opacity="0.6" d="M80.4368 129.778C80.7294 129.302 81.2864 129.661 86.4638 129.491C86.9027 129.477 87.6673 129.448 88.2997 129.887C88.8897 130.297 89.0973 130.92 89.2767 131.783C89.6307 133.472 89.5835 134.623 89.6071 136.17C89.6495 138.826 89.8525 139.623 89.4608 139.769C88.9416 139.958 87.9835 138.793 87.1576 137.826C82.2114 132.014 79.8421 130.736 80.4321 129.778H80.4368Z" fill="white"/>
<defs>
<linearGradient id="paint0_linear_7144_13739" x1="111.468" y1="59.7882" x2="-16.0596" y2="133.453" gradientUnits="userSpaceOnUse">
<stop stop-color="#DAE6FD"/>
<stop offset="0.16" stop-color="#D4E1F9"/>
<stop offset="0.36" stop-color="#C6D4ED"/>
<stop offset="0.57" stop-color="#ADBEDA"/>
<stop offset="0.8" stop-color="#8B9FC0"/>
<stop offset="1" stop-color="#667EA3"/>
</linearGradient>
</defs>
</svg>
