<svg width="574" height="134" viewBox="0 0 574 134" fill="none" xmlns="http://www.w3.org/2000/svg">
<path d="M103.039 89.5934L124.608 89.6524C125.604 89.6566 126.057 90.2044 126.053 91.1104L126.028 100.2C126.024 101.198 125.57 101.653 124.574 101.649L92.1342 101.561C91.2266 101.557 90.6845 101.101 90.6887 100.103L90.882 30.309C90.8862 29.3988 91.4283 28.8552 92.3359 28.8594L101.761 28.8847C102.757 28.8889 103.211 29.4367 103.207 30.3427L103.039 89.5934Z" fill="white"/>
<path d="M169.607 39.6162C169.603 40.5264 169.242 41.1585 168.154 41.1585L145.496 41.0953L145.446 59.2695L162.754 59.3159C163.662 59.3201 164.204 59.8637 164.199 60.8666L164.174 69.8631C164.17 70.8618 163.624 71.4054 162.72 71.4054L145.412 71.359L145.362 89.7145L168.019 89.7777C169.107 89.7819 169.469 90.237 169.465 91.2357L169.439 100.325C169.435 101.235 169.074 101.779 167.985 101.775L134.638 101.682C133.823 101.678 133.281 101.134 133.281 100.224L133.474 30.4301C133.478 29.5199 134.025 28.9763 134.84 28.9805L168.187 29.0732C169.275 29.0774 169.637 29.6252 169.633 30.5312L169.607 39.6162Z" fill="white"/>
<path d="M209.85 101.889C209.035 101.884 208.581 101.429 208.405 100.612L205.905 87.334L189.773 87.2877L187.29 100.549C187.109 101.366 186.651 101.817 185.836 101.817L176.142 101.792C175.146 101.788 174.692 101.244 174.969 100.245L190.206 30.4051C190.391 29.4949 190.933 29.1325 191.748 29.1368L204.346 29.1705C205.161 29.1747 205.703 29.5371 205.884 30.4473L220.734 100.372C220.914 101.37 220.549 101.914 219.46 101.914L209.85 101.889ZM197.959 45.0566L192.071 76.7573L203.669 76.791L197.959 45.0566Z" fill="white"/>
<path d="M266.238 64.6047C266.221 70.6937 263.943 74.6842 259.59 76.5805L265.775 100.405C266.044 101.497 265.498 102.04 264.502 102.036L255.077 102.011C254.174 102.007 253.72 101.552 253.543 100.734L247.534 77.6339L241.282 77.6171L241.219 100.519C241.214 101.429 240.672 101.973 239.765 101.969L230.34 101.944C229.432 101.939 228.89 101.396 228.894 100.486L229.087 30.6918C229.092 29.7816 229.634 29.238 230.541 29.2422L253.287 29.3054C261.805 29.3307 266.322 33.8859 266.301 42.4273L266.238 64.6047ZM250.283 65.6498C252.64 65.6582 253.913 64.3856 253.917 62.0259L253.964 44.943C253.972 42.579 252.707 41.3022 250.35 41.298L241.378 41.2727L241.311 65.6287L250.283 65.6498Z" fill="white"/>
<path d="M315.633 29.094C316.994 29.0982 317.532 29.8272 317.259 31.0997L301.753 100.122C301.476 101.214 300.841 101.757 299.753 101.753L290.689 101.728C289.601 101.724 288.971 101.18 288.702 100.084L273.671 30.9775C273.402 29.705 273.948 28.9802 275.31 28.9844L283.92 29.0097C285.008 29.0139 285.638 29.5617 285.907 30.6531L295.286 79.3903L305.027 30.6994C305.3 29.608 305.939 29.0645 307.027 29.0687L315.633 29.094Z" fill="white"/>
<path d="M335.483 29.1503C336.391 29.1545 336.933 29.7023 336.929 30.6083L336.735 100.402C336.731 101.312 336.189 101.856 335.281 101.852L325.856 101.826C324.86 101.822 324.406 101.279 324.411 100.368L324.604 30.5746C324.608 29.6644 325.062 29.1208 326.058 29.125L335.483 29.1503Z" fill="white"/>
<path d="M382.273 52.1804C382.269 53.0905 381.727 53.6341 380.819 53.6299L371.755 53.6046C370.759 53.6004 370.305 53.0568 370.31 52.1466L370.331 44.8778C370.339 42.5138 369.07 41.237 366.717 41.2328L362.006 41.2202C359.561 41.2117 358.376 42.4843 358.372 44.8441L358.258 86.2829C358.25 88.7354 359.515 89.9195 361.872 89.9279L366.582 89.9405C368.94 89.949 370.213 88.7691 370.217 86.3166L370.238 79.0478C370.242 78.1376 370.696 77.594 371.692 77.5982L380.756 77.6235C381.664 77.6277 382.206 78.1755 382.201 79.0815L382.176 88.8955C382.151 97.437 377.52 101.967 369.091 101.946L358.943 101.916C350.426 101.891 345.816 97.3358 345.841 88.7944L345.971 42.2652C345.997 33.7238 350.631 29.1897 359.149 29.2149L369.297 29.2444C377.726 29.2697 382.332 33.8249 382.311 42.3663L382.273 52.1804Z" fill="white"/>
<path d="M421.667 29.3896C422.663 29.3938 423.117 29.9416 423.113 30.8476L423.088 39.9368C423.083 40.847 422.63 41.3906 421.634 41.3864L411.12 41.3569L410.956 100.608C410.952 101.606 410.498 102.061 409.502 102.057L400.077 102.032C399.169 102.028 398.627 101.573 398.632 100.574L398.795 41.3232L388.282 41.2937C387.374 41.2895 386.832 40.7459 386.836 39.8357L386.862 30.7465C386.866 29.8363 387.408 29.2927 388.316 29.2969L421.667 29.3896Z" fill="white"/>
<path d="M441.245 29.4433C442.152 29.4475 442.694 29.9953 442.69 30.9013L442.497 100.695C442.493 101.605 441.951 102.149 441.043 102.145L431.618 102.119C430.622 102.115 430.168 101.572 430.172 100.661L430.365 30.8676C430.37 29.9574 430.823 29.4138 431.819 29.418L441.245 29.4433Z" fill="white"/>
<path d="M451.72 42.5621C451.745 34.0206 456.288 29.4865 464.805 29.5118L474.953 29.5413C483.471 29.5666 487.988 34.1218 487.967 42.6632L487.837 89.1924C487.812 97.7338 483.269 102.264 474.752 102.243L464.604 102.213C456.086 102.188 451.569 97.6327 451.59 89.0913L451.72 42.5621ZM472.52 90.5113C474.878 90.5198 476.151 89.3399 476.155 86.8874L476.273 44.905C476.281 42.541 475.012 41.2642 472.659 41.26L467.402 41.2474C465.045 41.2389 463.772 42.5115 463.767 44.8713L463.65 86.8537C463.641 89.3104 464.91 90.4945 467.264 90.4987L472.52 90.5113Z" fill="white"/>
<path d="M534.316 29.7066C535.223 29.7108 535.766 30.2586 535.761 31.1646L535.568 100.958C535.564 101.869 535.022 102.412 534.114 102.408L525.143 102.383C524.328 102.378 523.785 102.016 523.517 101.194L509.759 62.3512H509.305L509.2 100.883C509.196 101.793 508.742 102.336 507.746 102.332L498.321 102.307C497.418 102.303 496.871 101.759 496.876 100.849L497.069 31.0551C497.073 30.1449 497.619 29.6013 498.523 29.6055L507.494 29.6308C508.309 29.635 508.851 29.9974 509.12 30.8191L522.79 69.481H523.332L523.437 31.1309C523.441 30.2207 523.895 29.6771 524.891 29.6813L534.316 29.7066Z" fill="white"/>
<path d="M76.452 52.0202C76.452 52.9346 75.9058 53.4824 74.9939 53.4824H65.8839C64.8838 53.4824 64.4258 52.9346 64.4258 52.0202V44.7092C64.4258 42.3326 63.1526 41.0558 60.7826 41.0558H56.0469C53.5887 41.0558 52.4037 42.3326 52.4037 44.7092V86.3714C52.4037 88.8365 53.6769 90.0248 56.0469 90.0248H60.7826C63.1526 90.0248 64.4258 88.8365 64.4258 86.3714V79.0604C64.4258 78.146 64.8838 77.5982 65.8839 77.5982H74.9939C75.9058 77.5982 76.452 78.146 76.452 79.0604V88.9292C76.452 97.517 71.8046 102.085 63.3333 102.085H53.1307C44.5669 102.085 39.9194 97.517 39.9194 88.9292V42.1556C39.9194 33.5678 44.5669 29 53.1307 29H63.3333C71.8046 29 76.452 33.5678 76.452 42.1556V52.0202Z" fill="url(#paint0_linear_5487_36263)"/>
<path d="M83.3812 75.5178C83.7972 75.6779 83.9275 75.9687 83.7552 76.3437L82.5366 78.99C82.3643 79.3692 82.045 79.4872 81.629 79.3271L78.4858 78.1219C78.1665 77.9997 77.969 77.8565 77.7799 77.6121L75.8722 75.0332C75.7503 74.8857 75.7293 74.7719 75.8091 74.5992L76.4142 73.2887C76.452 73.217 76.5193 73.1285 76.6285 73.0948C76.7126 73.0653 76.7924 73.0822 76.8344 73.0906C77.553 73.2465 79.9355 74.1946 79.9355 74.1946C80.0364 74.2368 80.2129 74.3042 80.4398 74.3843L83.3812 75.5178Z" fill="url(#paint1_linear_5487_36263)"/>
<path d="M83.3812 67.0764C83.7972 66.9205 83.9359 66.6466 83.7762 66.2884L82.6416 63.7769C82.4778 63.4188 82.1668 63.3092 81.7508 63.4609L78.5993 64.6239C78.2757 64.7419 78.0782 64.881 77.8807 65.1127L75.9184 67.5778C75.7965 67.7211 75.7671 67.8264 75.8427 67.9908L76.4016 69.2339C76.4394 69.3013 76.5024 69.3856 76.6075 69.4193C76.6915 69.4446 76.7714 69.4319 76.8092 69.4235C77.5235 69.2718 79.9145 68.3532 79.9145 68.3532C80.0154 68.3152 80.1918 68.2478 80.4188 68.1678L83.3812 67.0764Z" fill="url(#paint2_linear_5487_36263)"/>
<path d="M68.922 31.318C69.2708 30.9724 71.1407 31.7899 72.3677 33.0077C73.4645 34.0949 73.851 35.3085 73.9771 35.7256C74.12 36.1892 74.0738 36.2397 74.3679 38.7175C74.5528 40.2808 74.5948 40.462 74.5024 40.4999C74.1242 40.639 73.0022 37.8536 70.1658 33.6482C69.254 32.2956 68.6783 31.5624 68.922 31.318Z" fill="white"/>
<path d="M50.7397 65.543C51.391 65.581 51.1011 79.3939 51.1011 79.3939C51.1011 79.3939 50.1682 80.085 49.8825 80.0386C48.6891 79.8575 50.08 65.5051 50.7397 65.543Z" fill="#DAE6FD"/>
<path opacity="0.6" d="M71.4348 79.0106C71.5524 78.8167 71.7793 78.96 73.872 78.8926C74.0484 78.8884 74.3594 78.8757 74.6157 79.0527C74.8552 79.2171 74.9393 79.4741 75.0107 79.8196C75.1536 80.5023 75.1326 80.9742 75.1452 81.6021C75.162 82.6808 75.246 83.0053 75.0864 83.0601C74.8762 83.1359 74.4897 82.664 74.1535 82.2721C72.1533 79.9208 71.1952 79.4025 71.4348 79.0106Z" fill="white"/>
<defs>
<linearGradient id="paint0_linear_5487_36263" x1="83.9825" y1="50.6147" x2="32.3275" y2="80.3543" gradientUnits="userSpaceOnUse">
<stop stop-color="#DAE6FD"/>
<stop offset="0.1616" stop-color="#D5E1F9"/>
<stop offset="0.3573" stop-color="#C6D4EE"/>
<stop offset="0.5709" stop-color="#AEBEDA"/>
<stop offset="0.7954" stop-color="#8CA0C0"/>
<stop offset="1" stop-color="#667EA3"/>
</linearGradient>
<linearGradient id="paint1_linear_5487_36263" x1="83.829" y1="76.2399" x2="75.7575" y2="76.2399" gradientUnits="userSpaceOnUse">
<stop offset="0.000339888" stop-color="#DAE6FD"/>
<stop offset="1" stop-color="#4E6C99"/>
</linearGradient>
<linearGradient id="paint2_linear_5487_36263" x1="83.8403" y1="66.4143" x2="75.7997" y2="66.4143" gradientUnits="userSpaceOnUse">
<stop offset="0.000339888" stop-color="#DAE6FD"/>
<stop offset="1" stop-color="#4E6C99"/>
</linearGradient>
</defs>
</svg>
