<svg width="406" height="306" viewBox="0 0 406 306" fill="none" xmlns="http://www.w3.org/2000/svg">
<path opacity="0.3" d="M25.9131 117.627C14.7481 158.369 16.3518 211.007 73.9023 250.125H318.213C318.213 250.125 369.318 234.027 371.49 175.127C373.662 116.226 354.235 36.143 285.915 41.4413C217.596 46.7396 185.167 66.2377 139.877 53.3066L137.025 52.5149C88.5994 39.8477 39.1182 69.3132 25.9131 117.627Z" fill="#E6E6E6"/>
<path d="M261.038 136.557C261.038 136.557 242.301 153.091 248.929 188.322C255.557 223.552 251.598 250.084 251.598 250.084H272.02L275.065 197.66L261.038 136.557Z" fill="#FFD200"/>
<path opacity="0.46" d="M261.038 136.557C261.038 136.557 242.301 153.091 248.929 188.322C255.557 223.552 251.598 250.084 251.598 250.084H272.02L275.065 197.66L261.038 136.557Z" fill="white"/>
<path d="M160.685 152.279L145.845 176.436C142.468 181.94 141.08 188.435 141.911 194.838C142.742 201.242 145.743 207.167 150.413 211.626L163.75 224.344C163.75 224.344 166.399 237.468 171.434 237.996C176.468 238.524 173.291 220.447 173.291 220.447L160.685 152.279Z" fill="#F4A28C"/>
<path d="M108.534 134.73C108.534 134.73 119.78 135.745 125.352 142.668C130.925 149.59 120.582 207.729 130.427 228.943L123.008 230.8C123.008 230.8 94.1108 166.246 108.534 134.73Z" fill="#F2BF8C"/>
<path d="M143.531 217.088H101.348V249.619H143.531V217.088Z" fill="#FFD200"/>
<path d="M181.533 132.305C181.533 132.305 152.433 143.328 139.918 181.684L161.486 187.663L181.533 132.305Z" fill="#9ED6BE"/>
<path opacity="0.46" d="M181.533 132.305C181.533 132.305 152.433 143.328 139.918 181.684L161.486 187.663L181.533 132.305Z" fill="white"/>
<path d="M266.427 223.238L272.01 250.126H289.843H318.213L315.462 223.238H266.427Z" fill="#24285B"/>
<path d="M337.234 250.125H58.7888V262.873H337.234V250.125Z" fill="#E6E6E6"/>
<path d="M181.614 101.925C181.614 101.925 181.279 108.888 182.629 113.455C182.76 113.898 182.978 114.311 183.269 114.669C183.56 115.028 183.919 115.326 184.326 115.545C184.732 115.765 185.178 115.902 185.637 115.95C186.097 115.997 186.561 115.953 187.004 115.82C189.298 115.1 192.19 113.476 192.82 109.73L194.667 103.559C194.905 102.282 194.74 100.963 194.195 99.7842C193.649 98.6055 192.75 97.626 191.622 96.9818C187.602 94.3529 181.604 97.672 181.614 101.925Z" fill="#F4A28C"/>
<path d="M194.322 104.727L198.778 127.128L186.252 128.701L188.039 111.771L194.322 104.727Z" fill="#F4A28C"/>
<path d="M183.35 102.149C185.506 102.145 187.654 101.897 189.754 101.408C189.168 102.379 188.879 103.499 188.922 104.632C188.966 105.765 189.34 106.86 189.998 107.783C190.619 108.689 191.536 109.35 192.592 109.654C193.647 109.958 194.776 109.885 195.783 109.447L195.327 100.505C195.305 99.2228 194.938 97.9702 194.262 96.8802C193.587 95.7901 192.629 94.9032 191.49 94.3135C190.506 93.7995 189.489 93.3519 188.445 92.9737C185.826 92.0297 182.122 93.8973 179.736 92.253C179.498 92.0877 179.22 91.9873 178.931 91.9616C178.641 91.936 178.35 91.986 178.086 92.1068C177.822 92.2276 177.594 92.415 177.424 92.6506C177.254 92.8862 177.149 93.162 177.118 93.4507C176.823 96.1912 177.473 100.454 181.178 101.804C181.878 102.039 182.612 102.155 183.35 102.149Z" fill="#FFD200"/>
<path d="M189.247 107.599C189.247 107.599 189.247 104.92 191.216 105.052C193.185 105.184 193.337 109.051 190.617 109.518L189.247 107.599Z" fill="#F4A28C"/>
<path d="M181.624 106.311L179.787 109.071C179.682 109.228 179.619 109.409 179.603 109.598C179.587 109.786 179.619 109.975 179.696 110.147C179.773 110.319 179.893 110.47 180.043 110.583C180.194 110.697 180.371 110.77 180.558 110.797L183.238 111.193L181.624 106.311Z" fill="#F4A28C"/>
<path opacity="0.31" d="M187.491 115.446C189.046 114.994 190.434 114.094 191.48 112.857C191.48 112.857 191.48 117.039 187.034 121.343L187.491 115.446Z" fill="#CE8172"/>
<path d="M108.229 105.985C108.229 105.985 109.041 112.907 108.016 117.556C107.917 118.006 107.729 118.432 107.464 118.81C107.199 119.188 106.862 119.509 106.473 119.757C106.083 120.004 105.649 120.171 105.194 120.25C104.74 120.329 104.274 120.317 103.824 120.215C101.49 119.657 98.4854 118.185 97.6023 114.582L95.3287 108.563C95.0004 107.308 95.0703 105.983 95.5285 104.77C95.9868 103.557 96.8108 102.517 97.8865 101.793C101.723 98.8391 107.945 101.742 108.229 105.985Z" fill="#F2BF8C"/>
<path d="M95.7449 109.648L92.842 132.313L105.448 133.014L102.495 116.246L95.7449 109.648Z" fill="#F2BF8C"/>
<path d="M108.524 110.369L110.554 112.998C110.667 113.147 110.741 113.323 110.769 113.508C110.797 113.694 110.778 113.883 110.713 114.059C110.648 114.235 110.54 114.392 110.399 114.515C110.257 114.638 110.087 114.724 109.904 114.764L107.255 115.353L108.524 110.369Z" fill="#F2BF8C"/>
<path opacity="0.31" d="M103.297 119.89C101.718 119.542 100.275 118.742 99.1453 117.586C99.1453 117.586 99.4498 121.747 104.17 125.706L103.297 119.89Z" fill="#CE8172"/>
<path d="M270.386 102.352C270.386 102.352 270.051 109.325 271.401 113.893C271.53 114.336 271.746 114.749 272.036 115.108C272.326 115.467 272.684 115.764 273.09 115.983C273.497 116.202 273.942 116.339 274.401 116.384C274.861 116.429 275.324 116.383 275.765 116.247C278.059 115.537 280.952 113.913 281.581 110.157L283.429 103.996C283.667 102.72 283.502 101.4 282.956 100.222C282.411 99.0429 281.512 98.0635 280.384 97.4192C276.385 94.7802 270.376 98.0993 270.386 102.352Z" fill="#9B6448"/>
<path d="M283.104 105.152L287.56 127.564L275.035 129.137L276.821 112.196L283.104 105.152Z" fill="#9B6448"/>
<path d="M270.396 106.756L268.559 109.517C268.456 109.673 268.395 109.854 268.38 110.04C268.366 110.227 268.398 110.415 268.475 110.585C268.552 110.756 268.671 110.905 268.82 111.018C268.969 111.131 269.145 111.205 269.33 111.232L272.01 111.638L270.396 106.756Z" fill="#9B6448"/>
<path d="M276.273 115.891C277.822 115.433 279.205 114.533 280.252 113.303C280.252 113.303 280.252 117.485 275.806 121.778L276.273 115.891Z" fill="#774B37"/>
<path d="M186.253 128.702L198.778 127.128C198.778 127.128 230.05 123.809 238.779 153.518C247.508 183.227 229.319 223.239 229.319 223.239H169.647C169.647 223.239 127.18 147.692 186.253 128.702Z" fill="#9ED6BE"/>
<path d="M274.425 128.702L286.951 127.128C286.951 127.128 318.213 123.809 326.952 153.518C335.691 183.227 317.492 223.239 317.492 223.239H266.427C266.427 223.239 228.243 142.658 274.425 128.702Z" fill="#FFD200"/>
<path d="M270.548 101.164H279.216L278.019 106.452L280.8 106.757L283.987 109.629L284.433 100.261C284.433 100.261 284.555 96.7388 282.556 95.4091C280.556 94.0795 269.279 91.2679 270.548 101.164Z" fill="#24285B"/>
<path opacity="0.08" d="M290.29 142.678C290.29 142.678 276.72 159.161 297.578 175.158C318.436 191.154 290.473 223.269 290.473 223.269H315.462L337.234 189.012L326.891 158.958L292.32 142.718L290.29 142.678Z" fill="black"/>
<path d="M169.647 223.238L166.724 250.126H232.486L227.187 222.873L169.647 223.238Z" fill="#24285B"/>
<path d="M277.998 107.132C277.998 107.132 277.948 104.453 279.978 104.574C282.008 104.696 282.099 108.584 279.369 109.05L277.998 107.132Z" fill="#9B6448"/>
<path d="M290.29 142.676C292.848 132.526 304.926 128.06 313.838 133.613C321.43 138.342 331.154 146.564 340.319 160.652C359.239 189.762 351.484 213.534 318.243 226.627L310.966 217.655C310.966 217.655 335.955 197.832 321.116 177.055C309.504 160.743 286.524 157.485 290.29 142.676Z" fill="#FFD200"/>
<path d="M94.7808 113.861C94.7808 113.861 100.871 116.205 103.621 108.268L111.193 107.436C111.193 107.436 108.93 98.8997 102.992 97.0524C97.0544 95.2051 84.3872 100.859 94.7808 113.861Z" fill="#24285B"/>
<path opacity="0.08" d="M205.334 138.992C205.334 138.992 190.059 149.721 199.6 172.487C209.141 195.254 198.778 223.237 198.778 223.237L227.198 222.872L229.319 178.922L205.334 138.992Z" fill="black"/>
<path opacity="0.46" d="M290.29 142.676C292.848 132.526 304.926 128.06 313.838 133.613C321.43 138.342 331.154 146.564 340.319 160.652C359.239 189.762 351.484 213.534 318.243 226.627L310.966 217.655C310.966 217.655 335.955 197.832 321.116 177.055C309.504 160.743 286.524 157.485 290.29 142.676Z" fill="white"/>
<path d="M208.075 149.955C205.101 137.938 219.311 129.351 228.822 137.278C233.74 141.361 237.298 146.845 239.022 153C245.437 175.016 232.486 250.095 232.486 250.095H218.164C218.164 250.095 221.615 209.312 218.428 187.723C216.195 172.772 210.805 160.978 208.075 149.955Z" fill="#F4A28C"/>
<path d="M101.947 112.401C101.947 112.401 101.804 109.721 99.7948 109.985C97.7851 110.249 97.9577 114.136 100.708 114.41L101.947 112.401Z" fill="#F2BF8C"/>
<path d="M87.5437 106.077C90.6381 106.077 93.1465 103.568 93.1465 100.474C93.1465 97.3795 90.6381 94.8711 87.5437 94.8711C84.4494 94.8711 81.9409 97.3795 81.9409 100.474C81.9409 103.568 84.4494 106.077 87.5437 106.077Z" fill="#24285B"/>
<path d="M92.8421 132.314L105.448 133.015C105.448 133.015 137.37 149.072 131.361 169.2C125.353 189.327 122.815 212.662 122.815 212.662H81.941C81.941 212.662 43.7161 147.073 92.8421 132.314Z" fill="#9ED6BE"/>
<path d="M87.5031 134.171C87.5031 134.171 86.4881 126.051 96.1813 127.066C105.875 128.081 110.29 128.244 108.534 134.79C108.534 134.73 94.3949 141.723 87.5031 134.171Z" fill="#9ED6BE"/>
<path opacity="0.08" d="M73.9021 169.24C73.9021 169.24 78.155 200.705 95.1258 212.703H122.815L125.281 195.945L111.203 196.361L73.9021 169.24Z" fill="black"/>
<path d="M312.295 219.34C312.295 219.34 302.47 226.079 306.388 230.698C310.306 235.316 318.213 226.638 318.213 226.638L312.295 219.34Z" fill="#9B6448"/>
<path d="M105.063 159.73C100.485 147.063 82.8444 145.388 76.5819 157.304C75.6315 159.093 75.0614 161.059 74.9071 163.079C74.2575 171.666 86.5086 189.774 96.2221 202.664C99.2243 206.636 103.639 209.3 108.552 210.105C113.465 210.91 118.5 209.794 122.612 206.988L151.58 187.176C151.58 187.176 162.187 186.668 164.136 181.948C166.085 177.229 149.814 178.66 149.814 178.66L123.911 191.855C122.73 192.449 121.426 192.759 120.104 192.761C118.781 192.762 117.477 192.455 116.294 191.864C115.111 191.273 114.083 190.413 113.291 189.354C112.499 188.296 111.965 187.066 111.731 185.765C110.2 176.924 107.97 168.218 105.063 159.73Z" fill="#F2BF8C"/>
<path d="M223.818 133.014C223.818 133.014 251.05 145.062 242.585 191.569H213.394C213.394 191.569 210.166 170.356 205.274 153.385C200.381 136.414 211.698 127.269 223.818 133.014Z" fill="#9ED6BE"/>
<path opacity="0.46" d="M223.818 133.014C223.818 133.014 251.05 145.062 242.585 191.569H213.394C213.394 191.569 210.166 170.356 205.274 153.385C200.381 136.414 211.698 127.269 223.818 133.014Z" fill="white"/>
<path d="M81.9308 212.662L73.9021 250.126H132.112L122.805 212.662H81.9308Z" fill="#24285B"/>
</svg>
