<svg id="Layer_1" data-name="Layer 1" xmlns="http://www.w3.org/2000/svg" viewBox="0 0 400 300" width="406" height="306" class="illustration styles_illustrationTablet__1DWOa"><path d="M25.53,115.15c-11,40.14-9.42,92,47.28,130.54h240.7S363.86,229.83,366,171.8,349,34.87,281.69,40.09,182.43,64.52,137.81,51.78L135,51C87.29,38.52,38.54,67.55,25.53,115.15Z" fill="#e6e6e6" opacity="0.3"></path><path d="M257.18,133.8s-18.46,16.29-11.93,51,2.63,60.85,2.63,60.85H268L271,194Z" fill="#ffd200"></path><path d="M257.18,133.8s-18.46,16.29-11.93,51,2.63,60.85,2.63,60.85H268L271,194Z" fill="#fff" opacity="0.46"></path><path d="M158.31,149.29l-14.62,23.8a27.82,27.82,0,0,0,4.5,34.67l13.14,12.53s2.61,12.93,7.57,13.45,1.83-17.29,1.83-17.29Z" fill="#f4a28c"></path><path d="M106.93,132s11.08,1,16.57,7.82-4.7,64.1,5,85l-7.31,1.83S92.72,163.05,106.93,132Z" fill="#f2bf8c"></path><rect x="99.85" y="213.14" width="41.56" height="32.05" fill="#ffd200"></rect><path d="M178.85,129.61s-28.67,10.86-41,48.65l21.25,5.89Z" fill="#68e1fd"></path><path d="M178.85,129.61s-28.67,10.86-41,48.65l21.25,5.89Z" fill="#fff" opacity="0.46"></path><polygon points="262.49 219.2 267.99 245.69 285.56 245.69 313.51 245.69 310.8 219.2 262.49 219.2" fill="#24285b"></polygon><rect x="57.92" y="245.69" width="274.33" height="12.56" fill="#e6e6e6"></rect><path d="M178.93,99.68s-.33,6.86,1,11.36a3.46,3.46,0,0,0,4.31,2.33c2.26-.71,5.11-2.31,5.73-6l1.82-6.08a6.16,6.16,0,0,0-3-6.48C184.83,92.22,178.92,95.49,178.93,99.68Z" fill="#f4a28c"></path><polygon points="191.45 102.44 195.84 124.51 183.5 126.06 185.26 109.38 191.45 102.44" fill="#f4a28c"></polygon><path d="M180.64,99.9a28.1,28.1,0,0,0,6.31-.73,5.72,5.72,0,0,0,.24,6.28,4.66,4.66,0,0,0,5.7,1.64l-.45-8.81a7,7,0,0,0-3.78-6.1,24.54,24.54,0,0,0-3-1.32c-2.58-.93-6.23.91-8.58-.71a1.65,1.65,0,0,0-2.58,1.18c-.29,2.7.35,6.9,4,8.23A6.57,6.57,0,0,0,180.64,99.9Z" fill="#ffd200"></path><path d="M186.45,105.27s0-2.64,1.94-2.51,2.09,3.94-.59,4.4Z" fill="#f4a28c"></path><path d="M178.94,104l-1.81,2.72a1.1,1.1,0,0,0,.76,1.7l2.64.39Z" fill="#f4a28c"></path><path d="M184.72,113a8.11,8.11,0,0,0,3.93-2.55s0,4.12-4.38,8.36Z" fill="#ce8172" opacity="0.31"></path><path d="M106.63,103.68s.8,6.82-.21,11.4a3.45,3.45,0,0,1-4.13,2.62c-2.3-.55-5.26-2-6.13-5.55l-2.24-5.93a6.16,6.16,0,0,1,2.52-6.67C100.22,96.64,106.35,99.5,106.63,103.68Z" fill="#f2bf8c"></path><polygon points="94.33 107.29 91.47 129.62 103.89 130.31 100.98 113.79 94.33 107.29" fill="#f2bf8c"></polygon><path d="M106.92,108l2,2.59a1.1,1.1,0,0,1-.64,1.74l-2.61.58Z" fill="#f2bf8c"></path><path d="M101.77,117.38a8.18,8.18,0,0,1-4.09-2.27s.3,4.1,4.95,8Z" fill="#ce8172" opacity="0.31"></path><path d="M266.39,100.1s-.33,6.87,1,11.37a3.43,3.43,0,0,0,4.3,2.32c2.26-.7,5.11-2.3,5.73-6l1.82-6.07a6.16,6.16,0,0,0-3-6.48C272.3,92.64,266.38,95.91,266.39,100.1Z" fill="#9b6448"></path><polygon points="278.92 102.86 283.31 124.94 270.97 126.49 272.73 109.8 278.92 102.86" fill="#9b6448"></polygon><path d="M266.4,104.44l-1.81,2.72a1.1,1.1,0,0,0,.76,1.69l2.64.4Z" fill="#9b6448"></path><path d="M272.19,113.44a8.2,8.2,0,0,0,3.92-2.55s0,4.12-4.38,8.35Z" fill="#774b37"></path><path d="M183.5,126.06l12.34-1.55s30.81-3.27,39.41,26-9.32,68.69-9.32,68.69H167.14S125.3,144.77,183.5,126.06Z" fill="#68e1fd"></path><path d="M270.37,126.06l12.34-1.55s30.8-3.27,39.41,26-9.32,68.69-9.32,68.69H262.49S224.87,139.81,270.37,126.06Z" fill="#ffd200"></path><path d="M266.55,98.93h8.54l-1.18,5.21,2.74.3,3.14,2.83.44-9.23s.12-3.47-1.85-4.78S265.3,89.18,266.55,98.93Z" fill="#24285b"></path><path d="M286,139.83s-13.37,16.24,7.18,32-7,47.4-7,47.4H310.8l21.45-33.75-10.19-29.61-34.06-16Z" opacity="0.08"></path><polygon points="167.14 219.2 164.26 245.69 229.05 245.69 223.83 218.84 167.14 219.2" fill="#24285b"></polygon><path d="M273.89,104.81s-.05-2.64,1.95-2.52,2.09,3.95-.6,4.41Z" fill="#9b6448"></path><path d="M286,139.83c2.52-10,14.42-14.4,23.2-8.93,7.48,4.66,17.06,12.76,26.09,26.64,18.64,28.68,11,52.1-21.75,65l-7.17-8.84s24.62-19.53,10-40C304.93,157.63,282.29,154.42,286,139.83Z" fill="#ffd200"></path><path d="M93.38,111.44s6,2.31,8.71-5.51l7.46-.82s-2.23-8.41-8.08-10.23S83.14,98.63,93.38,111.44Z" fill="#24285b"></path><path d="M202.3,136.2s-15.05,10.57-5.65,33-.81,50-.81,50l28-.36,2.09-43.3Z" opacity="0.08"></path><path d="M286,139.83c2.52-10,14.42-14.4,23.2-8.93,7.48,4.66,17.06,12.76,26.09,26.64,18.64,28.68,11,52.1-21.75,65l-7.17-8.84s24.62-19.53,10-40C304.93,157.63,282.29,154.42,286,139.83Z" fill="#fff" opacity="0.46"></path><path d="M205,147c-2.93-11.84,11.07-20.3,20.44-12.49A31,31,0,0,1,235.49,150c6.32,21.69-6.44,95.66-6.44,95.66H214.94s3.4-40.18.26-61.45C213,169.48,207.69,157.86,205,147Z" fill="#f4a28c"></path><path d="M100.44,110s-.14-2.64-2.12-2.38-1.81,4.09.9,4.36Z" fill="#f2bf8c"></path><circle cx="86.25" cy="98.25" r="5.52" fill="#24285b"></circle><path d="M91.47,129.62l12.42.69s31.45,15.82,25.53,35.65S121,208.78,121,208.78H80.73S43.07,144.16,91.47,129.62Z" fill="#68e1fd"></path><path d="M86.21,131.45s-1-8,8.55-7,13.9,1.16,12.17,7.61C106.93,132,93,138.89,86.21,131.45Z" fill="#68e1fd"></path><path d="M72.81,166s4.19,31,20.91,42.82H121l2.43-16.51-13.87.41Z" opacity="0.08"></path><path d="M307.68,215.36S298,222,301.86,226.55s11.65-4,11.65-4Z" fill="#9b6448"></path><path d="M103.51,156.63C99,144.15,81.62,142.5,75.45,154.24a14.48,14.48,0,0,0-1.65,5.69c-.64,8.46,11.43,26.3,21,39a19.1,19.1,0,0,0,26,4.26l28.54-19.52s10.45-.5,12.37-5.15-14.11-3.24-14.11-3.24l-25.52,13a8.37,8.37,0,0,1-12-6A167.23,167.23,0,0,0,103.51,156.63Z" fill="#f2bf8c"></path><path d="M220.51,130.31S247.34,142.18,239,188H210.24s-3.18-20.9-8-37.62S208.57,124.65,220.51,130.31Z" fill="#68e1fd"></path><path d="M220.51,130.31S247.34,142.18,239,188H210.24s-3.18-20.9-8-37.62S208.57,124.65,220.51,130.31Z" fill="#fff" opacity="0.46"></path><polygon points="80.72 208.78 72.81 245.69 130.16 245.69 120.99 208.78 80.72 208.78" fill="#24285b"></polygon></svg>