<svg width="495" height="365" viewBox="0 0 495 365" fill="none" xmlns="http://www.w3.org/2000/svg">
<path d="M195.427 263.23L175.837 159.594C175.837 159.594 158.772 123.539 179.624 104.374C200.476 85.2081 195.427 141.191 208.693 140.695C221.959 140.198 226.389 119.265 232.713 131.009C239.037 142.753 212.492 159.606 212.492 159.606L243.234 263.23H195.427Z" fill="#F4A28C"/>
<path d="M99.976 294.492L82.9139 159.594C82.9139 159.594 65.8859 123.539 86.7378 104.374C107.59 85.2081 102.528 141.191 115.807 140.695C129.085 140.198 133.503 119.265 139.814 131.009C146.125 142.753 119.593 159.606 119.593 159.606L158.498 294.492H99.976Z" fill="#F2BF8C"/>
<path d="M183.49 294.483L173.941 187.196L227.649 182.438L259.691 294.483H183.49Z" fill="#FFD200"/>
<path d="M287.262 263.232L269.937 142.707C269.937 142.707 257.401 133.336 255.631 122.318C255.436 121.077 255.616 119.807 256.148 118.664C256.68 117.521 257.542 116.555 258.627 115.884C259.712 115.213 260.974 114.867 262.257 114.887C263.541 114.907 264.79 115.294 265.853 115.998C270.803 119.267 276.99 121.422 280.047 114.267C285.529 101.494 275.382 84.1812 291.395 82.123C307.408 80.0648 323.446 116.325 295.639 139.401L327.233 263.232H287.262Z" fill="#A87961"/>
<path d="M277.979 294.486L270.406 210.709L320.97 208.227L343.816 294.486H277.979Z" fill="#9ED6BE"/>
<path d="M274.131 210.526L270.406 186.384L306.665 182.438L313.348 208.601L274.131 210.526Z" fill="#9ED6BE"/>
<path opacity="0.46" d="M274.131 210.526L270.406 186.384L306.665 182.438L313.348 208.601L274.131 210.526Z" fill="white"/>
<path d="M124.796 161.466L80.0586 168.227L82.5142 183.781L127.251 177.021L124.796 161.466Z" fill="#9ED6BE"/>
<path d="M96.2422 183.387C102.263 183.387 107.145 178.612 107.145 172.721C107.145 166.83 102.263 162.055 96.2422 162.055C90.221 162.055 85.3398 166.83 85.3398 172.721C85.3398 178.612 90.221 183.387 96.2422 183.387Z" fill="#CAE8DB"/>
</svg>
