<svg id="Layer_1" data-name="Layer 1" xmlns="http://www.w3.org/2000/svg" viewBox="0 0 400 300" width="406" height="306" class="illustration styles_illustrationTablet__1DWOa"><path d="M106.26,54.4C75.45,65.92,52.59,95.14,48.09,130.48c-3.8,29.78,5.27,62.69,58.68,72.07C210.69,220.8,308,226,332.87,176.77s17.2-133.54-35.53-139C255.41,33.44,166.43,31.9,106.26,54.4Z" fill="#e6e6e6" opacity="0.3"></path><path d="M286.61,80.21a14.72,14.72,0,0,0,3.28-.37,18.63,18.63,0,1,1,0-28.75,14.75,14.75,0,1,0-3.28,29.12Z" fill="#ffd200"></path><path d="M108,109.93a9.8,9.8,0,0,0-9.8-9.8,10.31,10.31,0,0,0-1.58.14,13.18,13.18,0,0,0-11.63-7l-.48,0a15.89,15.89,0,0,0,.48-3.8,15.68,15.68,0,1,0-31.35,0,15.89,15.89,0,0,0,.48,3.8l-.48,0a13.21,13.21,0,1,0,0,26.41H99.49v-.09A9.8,9.8,0,0,0,108,109.93Z" fill="#e6e6e6"></path><path d="M359.55,130.78a6.63,6.63,0,0,0-6.63-6.63,7.47,7.47,0,0,0-1.07.09,8.91,8.91,0,0,0-7.87-4.7h-.32A10.83,10.83,0,0,0,344,117a10.61,10.61,0,0,0-21.21,0,10.34,10.34,0,0,0,.33,2.57h-.33a8.94,8.94,0,1,0,0,17.87h31v-.06A6.63,6.63,0,0,0,359.55,130.78Z" fill="#e6e6e6"></path><path d="M154.59,61.17a6.05,6.05,0,0,0-6.05-6.05,6.25,6.25,0,0,0-1,.09,8.14,8.14,0,0,0-7.18-4.29h-.3a9.5,9.5,0,0,0,.3-2.34,9.67,9.67,0,1,0-19.34,0,9.5,9.5,0,0,0,.3,2.34h-.3a8.15,8.15,0,1,0,0,16.29h28.28v0A6.05,6.05,0,0,0,154.59,61.17Z" fill="#e6e6e6" opacity="0.49"></path><path d="M107.19,142.76h0a3.78,3.78,0,0,1,3.78,3.78v92.08a0,0,0,0,1,0,0h-7.56a0,0,0,0,1,0,0V146.54a3.78,3.78,0,0,1,3.78-3.78Z" fill="#24285b"></path><rect x="109.09" y="200.41" width="207.98" height="38.29" fill="#24285b"></rect><path d="M118.44,187.83H308.75a7.48,7.48,0,0,1,7.48,7.48v5.1a0,0,0,0,1,0,0H111a0,0,0,0,1,0,0v-5.1a7.48,7.48,0,0,1,7.48-7.48Z" fill="#68e1fd"></path><path d="M118.44,187.83H308.75a7.48,7.48,0,0,1,7.48,7.48v5.1a0,0,0,0,1,0,0H111a0,0,0,0,1,0,0v-5.1a7.48,7.48,0,0,1,7.48-7.48Z" opacity="0.08"></path><path d="M133.58,157a31.75,31.75,0,0,1,7.81,3.08,2.55,2.55,0,0,1,.73,3.53,5.59,5.59,0,0,1-5.4,2.79h-4.66a4.53,4.53,0,0,1-3.95-3.45C127.09,159.62,130.63,156.13,133.58,157Z" fill="#f4a28c"></path><polygon points="132.9 166.42 147.55 174.14 151.23 165.76 139.09 163.51 132.9 166.42" fill="#f4a28c"></polygon><path d="M133.38,158.27a20.2,20.2,0,0,1-1.84,4.29,4.21,4.21,0,0,1,4.38,1.49,3.43,3.43,0,0,1,0,4.36l-2.14-.76a17.64,17.64,0,0,0-3.21-1c-.53-.07-1.06,0-1.59-.09a4.08,4.08,0,0,1-2.87-1.91,4.68,4.68,0,0,1-.53-3.45.52.52,0,0,1-.77-.22,1.53,1.53,0,0,1,0-.9,5.83,5.83,0,0,1,1.65-3.61,3.79,3.79,0,0,0-1.11.13,4.09,4.09,0,0,1,3.19-2.87,4.74,4.74,0,0,1,4.12,1.37A3.12,3.12,0,0,1,133.38,158.27Z" fill="#24285b"></path><path d="M136,163.49s-1.85-.59-2.18.84,2.35,2.3,3.23.5Z" fill="#f4a28c"></path><path d="M136.64,157.93l2.29-.71a.81.81,0,0,1,1,.89l-.28,1.95Z" fill="#f4a28c"></path><path d="M141.77,163.89a6,6,0,0,1-2.62,2.23s2.91.85,6.81-1.33Z" fill="#ce8172" opacity="0.31"></path><path d="M145.68,168.55l2.64-8.76s8.93-16.57,25.39-12.34,36.47,10.14,36.47,10.14L208.26,182S146.12,210.15,145.68,168.55Z" fill="#68e1fd"></path><path d="M148.86,169.57s4.5,10.55,11.44,13.68S202,181,208.72,176.18l.74-9.39Z" opacity="0.08"></path><path d="M317.6,205s-33.49,2.18-65.92,3.46c-30.22,1.18-59.53,1.58-60-1.32,0,0,.56-13.19.74-15.93.28-4.45.8-11.61,1.47-18.62,1-10.3,2.36-20.28,3.94-20.85s11.31,2.45,22.79,5c2,.45,4,.88,6,1.27,9,1.73,18.59,2.77,26,1.29,19-3.77,50.66-6.84,56.1-.32S317.6,205,317.6,205Z" fill="#ffd200"></path><path d="M251.68,208.45c-30.22,1.18-59.53,1.58-60-1.32,0,0,.56-13.19.74-15.93.28-4.45.8-11.61,1.47-18.62,1.39-.68,2.73-1.47,4-2.24l14-8.44c1.88-1.12,5.46-4,8.67-5.14a5.37,5.37,0,0,1,4.11-.23,4.9,4.9,0,0,1,1.92,1.5c3.42,4.82-8.64,14.15-11,15.85-5.92,4.32-12.32,9.21-13.91,16.36-.57,2.57-.25,5.68,1.91,7.18a8.58,8.58,0,0,0,3.25,1.14C221.81,201.56,237.17,204.09,251.68,208.45Z" opacity="0.08"></path><path d="M155.43,157c-7.14,4.63-10.12,13-1.91,18.44s30,6.59,41.09,3.51,31.7-17.84,31.7-17.84l-4.88-6.57s-26.21,12.61-33.38,11.89S162.57,152.38,155.43,157Z" fill="#68e1fd"></path><path d="M155.43,157c-7.14,4.63-10.12,13-1.91,18.44s30,6.59,41.09,3.51,31.7-17.84,31.7-17.84l-4.88-6.57s-26.21,12.61-33.38,11.89S162.57,152.38,155.43,157Z" fill="#fff" opacity="0.2"></path><path d="M221.43,154.56a5.21,5.21,0,0,1,5.73-.42c3,1.78,5.07,3,4.69,4.22s-5.54,2.77-5.54,2.77Z" fill="#f4a28c"></path><path d="M151.29,185.42c-.42,4.69-6.78,3.85-10.54,3.85a50.83,50.83,0,0,1-17-3c-5.16-1.85-15.85-5.23-11.21-12.84a14.5,14.5,0,0,1,5.48-5.52,14.79,14.79,0,0,1,7.29-1.63,31.66,31.66,0,0,1,21.8,8.84,15.4,15.4,0,0,1,4.09,8.19c0,.26.08.51.11.77A6.71,6.71,0,0,1,151.29,185.42Z" fill="#e6e6e6"></path><path d="M151.29,185.42c-.42,4.69-6.78,3.85-10.54,3.85a50.83,50.83,0,0,1-17-3c-5.16-1.85-15.85-5.23-11.21-12.84a14.5,14.5,0,0,1,5.48-5.52c0,.23,0,.43.08.62,1,5.6,4.72,8.22,10,9.73,5.05,1.45,10.29,2.15,15.32,3.67A32.46,32.46,0,0,1,151.29,185.42Z" opacity="0.08"></path><path d="M48.45,222.34s10.64-13.24,37.46-9.23,25.94,9.29,58.11,4.54,45.11,12.9,71.48,5.32,35.09-9.11,54.07-.47,33.82-5.2,53.14-3.19,27.54,12.2,27.54,12.2-7.47,38.42-80.83,32.77S58.57,280.16,48.45,222.34Z" fill="#e6e6e6"></path><path d="M146.78,132.43a2.61,2.61,0,0,1-1.19-.46,2,2,0,0,1-.5-1.38.75.75,0,0,1,0-.23l7.93-9.35-.25,0-.22,0-3.08.15c-.05,0-.43.07-1.16.23a8.82,8.82,0,0,1-1.51.22c-.24,0-.51-.2-.8-.62a1.75,1.75,0,0,1-.4-.87,1.07,1.07,0,0,1,.35-.8,1.35,1.35,0,0,1,.82-.41q.51-.14,1.56-.33a26.61,26.61,0,0,1,2.73-.22h4.32l.35,0,.36,0a1.21,1.21,0,0,1,1,.76,2.16,2.16,0,0,1,.35,1.1.79.79,0,0,1-.1.49c-.2.15-.49.4-.87.73s-1,1-1.77,1.83l-5,5.92c.07.06.12.1.17.1l6.57-.05c.61.09.94.56,1,1.4s-.74,1.22-2.23,1.46a24.28,24.28,0,0,1-3.35.17h-2.33l-1.41.09Z" fill="#e6e6e6"></path><path d="M186.55,115.49a3.92,3.92,0,0,1-1.85-.38,2.89,2.89,0,0,1-1.09-1.87,1,1,0,0,1,0-.35l9.14-15.66-.37,0H192l-4.45,1c-.07,0-.61.22-1.63.62a12.93,12.93,0,0,1-2.13.72c-.36.06-.81-.17-1.34-.7a2.76,2.76,0,0,1-.81-1.16,1.67,1.67,0,0,1,.31-1.26,2,2,0,0,1,1.09-.8c.48-.22,1.21-.52,2.19-.89,1.83-.54,3.14-.88,3.92-1l6.3-1.11.5,0,.54-.06a1.81,1.81,0,0,1,1.73.83,3.28,3.28,0,0,1,.79,1.52,1.11,1.11,0,0,1,0,.73c-.25.28-.61.72-1.08,1.3s-1.22,1.7-2.12,3.12q-2.1,3.64-5.73,9.89a.45.45,0,0,0,.27.11l9.56-1.76c.92,0,1.52.57,1.8,1.79q.28,1.59-2.87,2.7a34.67,34.67,0,0,1-4.84,1.1l-1.67.3-1.72.3-2,.5Z" fill="#e6e6e6"></path><path d="M221.15,85.34A3.92,3.92,0,0,1,219.3,85a2.91,2.91,0,0,1-1.09-1.87,1.4,1.4,0,0,1,0-.35l9.15-15.66-.38,0h-.32l-4.46,1c-.06,0-.6.22-1.62.62a12.94,12.94,0,0,1-2.14.72c-.36.06-.8-.17-1.33-.7a2.58,2.58,0,0,1-.81-1.16,1.62,1.62,0,0,1,.3-1.26,2,2,0,0,1,1.1-.8c.48-.22,1.21-.52,2.18-.89,1.83-.54,3.14-.88,3.92-1l6.3-1.11.51-.05.53-.06a1.81,1.81,0,0,1,1.73.83,3.31,3.31,0,0,1,.8,1.52,1.26,1.26,0,0,1,0,.73c-.26.29-.62.72-1.08,1.3a35.69,35.69,0,0,0-2.12,3.12q-2.1,3.65-5.73,9.89a.37.37,0,0,0,.27.11l9.55-1.76c.92,0,1.52.57,1.8,1.79q.28,1.59-2.87,2.7a35.86,35.86,0,0,1-4.84,1.11L227,84l-1.72.3-2,.5Z" fill="#e6e6e6"></path><path d="M137.64,157.62s-3.13-1.07-3.4-.43-1.68,3.44-.21,4.25S138.4,159.67,137.64,157.62Z" fill="#24285b"></path><polygon points="134.14 160.81 133.74 163.89 134.42 163.37 135.57 160.06 134.14 160.81" fill="#24285b"></polygon></svg>