<svg width="406" height="306" viewBox="0 0 406 306" fill="none" xmlns="http://www.w3.org/2000/svg">
<path opacity="0.3" d="M107.854 55.9661C76.5817 67.6589 53.3788 97.3172 48.8113 133.187C44.9543 163.414 54.1604 196.818 108.372 206.338C213.85 224.862 312.62 230.14 337.863 180.172C363.106 130.203 355.321 44.6286 301.8 39.0867C259.241 34.6917 168.926 33.1286 107.854 55.9661Z" fill="#E6E6E6"/>
<path d="M290.909 82.1627C292.029 82.1628 293.146 82.0368 294.238 81.7872C291.472 84.068 288.114 85.5151 284.556 85.9599C280.998 86.4048 277.387 85.8289 274.144 84.2994C270.901 82.77 268.16 80.3501 266.24 77.3219C264.32 74.2937 263.301 70.7821 263.301 67.1966C263.301 63.611 264.32 60.0994 266.24 57.0712C268.16 54.043 270.901 51.6231 274.144 50.0937C277.387 48.5643 280.998 47.9884 284.556 48.4332C288.114 48.878 291.472 50.3252 294.238 52.6059C292.181 52.1298 290.047 52.0942 287.975 52.5013C285.903 52.9085 283.941 53.7493 282.217 54.9685C280.493 56.1877 279.047 57.7577 277.973 59.5755C276.899 61.3933 276.221 63.4177 275.985 65.5158C275.749 67.614 275.959 69.7384 276.602 71.7495C277.244 73.7607 278.305 75.6132 279.715 77.1853C281.124 78.7574 282.85 80.0136 284.78 80.8715C286.709 81.7293 288.798 82.1694 290.909 82.1627Z" fill="#FFD200"/>
<path d="M109.62 112.328C109.62 109.69 108.572 107.16 106.706 105.295C104.841 103.429 102.311 102.381 99.6729 102.381C99.1355 102.387 98.5993 102.435 98.0692 102.523C96.9312 100.38 95.2314 98.5858 93.152 97.3342C91.0725 96.0826 88.6918 95.4203 86.2648 95.4182H85.7776C86.0949 94.1569 86.2585 92.8618 86.2648 91.5612C86.3184 89.4381 85.9465 87.3256 85.1711 85.3484C84.3956 83.3712 83.2323 81.5692 81.7496 80.0486C80.2669 78.528 78.4948 77.3195 76.5378 76.4944C74.5808 75.6692 72.4785 75.2441 70.3546 75.2441C68.2308 75.2441 66.1284 75.6692 64.1714 76.4944C62.2144 77.3195 60.4424 78.528 58.9597 80.0486C57.477 81.5692 56.3136 83.3712 55.5382 85.3484C54.7627 87.3256 54.3909 89.4381 54.4445 91.5612C54.4508 92.8618 54.6144 94.1569 54.9317 95.4182H54.4445C52.6534 95.3689 50.8705 95.6792 49.2013 96.3305C47.532 96.9819 46.0103 97.9613 44.726 99.2108C43.4416 100.46 42.4208 101.954 41.7237 103.605C41.0266 105.256 40.6675 107.029 40.6675 108.821C40.6675 110.613 41.0266 112.387 41.7237 114.037C42.4208 115.688 43.4416 117.182 44.726 118.432C46.0103 119.681 47.532 120.661 49.2013 121.312C50.8705 121.963 52.6534 122.274 54.4445 122.224H100.982V122.133C103.363 121.817 105.549 120.65 107.137 118.848C108.725 117.046 109.606 114.73 109.62 112.328Z" fill="#E6E6E6"/>
<path d="M364.943 133.492C364.943 131.707 364.234 129.995 362.972 128.733C361.71 127.471 359.999 126.762 358.214 126.762C357.85 126.767 357.487 126.797 357.128 126.854C356.354 125.409 355.201 124.203 353.794 123.362C352.387 122.522 350.779 122.08 349.14 122.083H348.815C349.032 121.24 349.147 120.375 349.16 119.505C349.074 116.707 347.902 114.053 345.893 112.105C343.884 110.156 341.195 109.066 338.396 109.066C335.597 109.066 332.908 110.156 330.899 112.105C328.89 114.053 327.718 116.707 327.632 119.505C327.634 120.385 327.746 121.261 327.967 122.114H327.632C326.415 122.073 325.203 122.277 324.067 122.715C322.932 123.152 321.895 123.814 321.02 124.66C320.145 125.506 319.45 126.519 318.974 127.64C318.499 128.761 318.254 129.965 318.254 131.183C318.254 132.4 318.499 133.604 318.974 134.725C319.45 135.846 320.145 136.859 321.02 137.705C321.895 138.551 322.932 139.213 324.067 139.65C325.203 140.088 326.415 140.292 327.632 140.252H359.097V140.191C360.719 139.976 362.208 139.177 363.284 137.944C364.36 136.711 364.95 135.128 364.943 133.492Z" fill="#E6E6E6"/>
<path opacity="0.49" d="M156.909 62.838C156.909 61.2094 156.262 59.6475 155.11 58.4959C153.959 57.3443 152.397 56.6973 150.768 56.6973C150.428 56.7005 150.089 56.731 149.753 56.7886C149.046 55.4714 147.995 54.3707 146.711 53.6039C145.428 52.837 143.961 52.4328 142.466 52.4343H142.161C142.361 51.6583 142.463 50.8605 142.466 50.0592C142.466 47.4561 141.431 44.9596 139.591 43.1189C137.75 41.2782 135.254 40.2441 132.65 40.2441C130.047 40.2441 127.551 41.2782 125.71 43.1189C123.869 44.9596 122.835 47.4561 122.835 50.0592C122.838 50.8605 122.94 51.6583 123.14 52.4343H122.835C121.725 52.3954 120.619 52.5804 119.582 52.9784C118.545 53.3763 117.599 53.979 116.8 54.7506C116.001 55.5221 115.365 56.4466 114.931 57.469C114.497 58.4914 114.273 59.5907 114.273 60.7015C114.273 61.8122 114.497 62.9115 114.931 63.9339C115.365 64.9563 116.001 65.8809 116.8 66.6524C117.599 67.4239 118.545 68.0266 119.582 68.4245C120.619 68.8225 121.725 69.0075 122.835 68.9686H151.54C153.029 68.78 154.398 68.0521 155.388 66.9224C156.377 65.7927 156.918 64.3397 156.909 62.838Z" fill="#E6E6E6"/>
<path d="M108.798 145.652C109.815 145.652 110.791 146.057 111.511 146.776C112.23 147.496 112.635 148.471 112.635 149.489V242.95H104.961V149.489C104.961 148.471 105.365 147.496 106.085 146.776C106.804 146.057 107.78 145.652 108.798 145.652Z" fill="#24285B"/>
<path d="M321.826 204.166H110.726V243.03H321.826V204.166Z" fill="#24285B"/>
<path d="M120.217 191.396H313.381C315.395 191.396 317.326 192.196 318.75 193.62C320.174 195.044 320.973 196.975 320.973 198.989V204.165H112.665V198.989C112.665 196.975 113.465 195.044 114.889 193.62C116.313 192.196 118.244 191.396 120.257 191.396H120.217Z" fill="#9ED6BE"/>
<path opacity="0.08" d="M120.217 191.396H313.381C315.395 191.396 317.326 192.196 318.75 193.62C320.174 195.044 320.973 196.975 320.973 198.989V204.165H112.665V198.989C112.665 196.975 113.465 195.044 114.889 193.62C116.313 192.196 118.244 191.396 120.257 191.396H120.217Z" fill="black"/>
<path d="M135.584 160.106C138.353 160.792 141.018 161.844 143.511 163.232C144.084 163.609 144.484 164.198 144.623 164.87C144.762 165.542 144.628 166.242 144.252 166.815C143.709 167.765 142.902 168.539 141.93 169.041C140.957 169.543 139.86 169.754 138.771 169.647H134.041C133.092 169.551 132.196 169.163 131.478 168.535C130.76 167.908 130.254 167.073 130.032 166.145C128.996 162.765 132.589 159.223 135.584 160.106Z" fill="#F4A28C"/>
<path d="M134.894 169.667L149.763 177.502L153.499 168.997L141.176 166.713L134.894 169.667Z" fill="#F4A28C"/>
<path d="M135.381 161.394C134.929 162.913 134.302 164.374 133.513 165.748C134.321 165.539 135.172 165.57 135.962 165.839C136.752 166.108 137.446 166.602 137.959 167.261C138.472 167.884 138.752 168.666 138.752 169.473C138.752 170.281 138.472 171.063 137.959 171.686L135.787 170.915C134.736 170.473 133.645 170.134 132.529 169.9C131.991 169.829 131.453 169.9 130.915 169.808C130.317 169.717 129.747 169.497 129.243 169.162C128.74 168.827 128.316 168.386 128.002 167.87C127.378 166.816 127.185 165.561 127.464 164.368C127.4 164.412 127.327 164.441 127.25 164.454C127.174 164.466 127.095 164.461 127.021 164.44C126.946 164.419 126.877 164.381 126.818 164.33C126.76 164.279 126.713 164.216 126.682 164.145C126.591 163.847 126.591 163.529 126.682 163.231C126.795 161.852 127.387 160.555 128.357 159.567C127.977 159.555 127.597 159.6 127.23 159.699C127.447 158.961 127.865 158.298 128.437 157.784C129.008 157.269 129.712 156.924 130.468 156.786C131.226 156.668 132 156.732 132.728 156.974C133.455 157.216 134.114 157.628 134.65 158.177C135.056 158.594 135.339 159.115 135.468 159.683C135.596 160.25 135.566 160.842 135.381 161.394Z" fill="#24285B"/>
<path d="M138.04 166.693C138.04 166.693 136.162 166.094 135.827 167.545C135.492 168.997 138.212 169.88 139.106 168.053L138.04 166.693Z" fill="#F4A28C"/>
<path d="M138.69 161.048L141.014 160.327C141.144 160.295 141.28 160.295 141.41 160.326C141.54 160.358 141.66 160.422 141.76 160.511C141.86 160.6 141.937 160.712 141.984 160.837C142.031 160.963 142.046 161.098 142.029 161.231L141.745 163.21L138.69 161.048Z" fill="#F4A28C"/>
<path opacity="0.31" d="M143.897 167.098C143.25 168.096 142.326 168.882 141.237 169.361C141.237 169.361 144.191 170.224 148.149 168.011L143.897 167.098Z" fill="#CE8172"/>
<path d="M147.865 171.829L150.545 162.938C150.545 162.938 159.609 146.119 176.316 150.412C193.023 154.706 213.333 160.705 213.333 160.705L211.384 185.481C211.384 185.481 148.312 214.053 147.865 171.829Z" fill="#9ED6BE"/>
<path opacity="0.08" d="M151.093 172.863C151.093 172.863 155.66 183.571 162.704 186.748C169.748 189.925 205.03 184.464 211.851 179.572L212.602 170.041L151.093 172.863Z" fill="black"/>
<path d="M322.364 208.825C322.364 208.825 288.372 211.038 255.455 212.337C224.782 213.535 195.032 213.941 194.555 210.997C194.555 210.997 195.124 197.61 195.306 194.828C195.59 190.312 196.118 183.044 196.798 175.929C197.813 165.475 199.194 155.345 200.797 154.766C202.401 154.188 212.277 157.253 223.929 159.841C225.959 160.298 227.989 160.735 230.019 161.13C239.154 162.886 248.888 163.942 256.409 162.44C275.694 158.613 307.829 155.497 313.351 162.115C318.872 168.733 322.364 208.825 322.364 208.825Z" fill="#FFD200"/>
<path opacity="0.08" d="M255.455 212.326C224.782 213.524 195.032 213.93 194.555 210.987C194.555 210.987 195.124 197.599 195.306 194.818C195.59 190.301 196.118 183.034 196.798 175.918C198.209 175.228 199.569 174.426 200.858 173.645L215.068 165.078C216.977 163.941 220.61 161.018 223.868 159.861C224.514 159.55 225.215 159.369 225.931 159.329C226.647 159.289 227.364 159.39 228.04 159.628C228.807 159.963 229.478 160.487 229.989 161.15C233.46 166.042 221.219 175.512 218.824 177.238C212.815 181.623 206.319 186.586 204.705 193.843C204.127 196.452 204.451 199.609 206.644 201.131C207.654 201.736 208.776 202.129 209.943 202.288C225.137 205.333 240.728 207.901 255.455 212.326Z" fill="black"/>
<path d="M157.761 160.104C150.514 164.804 147.49 173.299 155.823 178.821C164.156 184.343 186.273 185.51 197.529 182.384C208.785 179.257 229.705 164.276 229.705 164.276L224.751 157.607C224.751 157.607 198.148 170.407 190.871 169.676C183.593 168.945 165.009 155.415 157.761 160.104Z" fill="#9ED6BE"/>
<path opacity="0.2" d="M157.761 160.104C150.514 164.804 147.49 173.299 155.823 178.821C164.156 184.343 186.273 185.51 197.529 182.384C208.785 179.257 229.705 164.276 229.705 164.276L224.751 157.607C224.751 157.607 198.148 170.407 190.871 169.676C183.593 168.945 165.009 155.415 157.761 160.104Z" fill="white"/>
<path d="M224.751 157.629C225.572 156.995 226.561 156.617 227.595 156.541C228.629 156.466 229.663 156.696 230.567 157.202C233.612 159.009 235.713 160.247 235.328 161.486C234.942 162.724 229.705 164.297 229.705 164.297L224.751 157.629Z" fill="#F4A28C"/>
<path d="M153.559 188.952C153.133 193.712 146.678 192.86 142.861 192.86C136.978 192.836 131.142 191.806 125.606 189.815C120.369 187.937 109.519 184.506 114.228 176.782C115.537 174.443 117.461 172.506 119.79 171.179C122.075 170.004 124.622 169.434 127.19 169.525C135.444 169.563 143.367 172.776 149.317 178.498C151.511 180.784 152.959 183.683 153.468 186.81C153.468 187.074 153.549 187.328 153.58 187.592C153.618 188.045 153.612 188.501 153.559 188.952Z" fill="#E6E6E6"/>
<path opacity="0.08" d="M153.559 188.95C153.133 193.711 146.678 192.858 142.861 192.858C136.978 192.834 131.142 191.805 125.606 189.813C120.369 187.935 109.519 184.505 114.228 176.781C115.537 174.441 117.461 172.504 119.79 171.178C119.79 171.411 119.79 171.614 119.872 171.807C120.887 177.491 124.662 180.15 130.022 181.683C135.147 183.155 140.466 183.865 145.571 185.408C148.38 186.229 151.066 187.42 153.559 188.95Z" fill="black"/>
<path d="M49.1768 226.425C49.1768 226.425 59.9764 212.987 87.1987 217.057C114.421 221.127 113.528 226.486 146.18 221.665C178.833 216.844 191.967 234.758 218.733 227.065C245.498 219.371 254.349 217.818 273.614 226.588C292.878 235.357 307.941 221.31 327.551 223.35C347.16 225.39 355.504 235.733 355.504 235.733C355.504 235.733 347.922 274.729 273.461 268.994C199.001 263.26 59.4486 285.113 49.1768 226.425Z" fill="#E6E6E6"/>
<path d="M148.982 135.166C148.547 135.112 148.132 134.952 147.774 134.699C147.433 134.313 147.252 133.813 147.266 133.298C147.254 133.221 147.254 133.142 147.266 133.065L155.315 123.575H155.062H154.838L151.712 123.727C151.661 123.727 151.276 123.798 150.535 123.96C150.031 124.079 149.518 124.153 149.002 124.184C148.758 124.184 148.484 123.981 148.19 123.554C147.975 123.303 147.835 122.998 147.784 122.671C147.783 122.518 147.814 122.367 147.875 122.227C147.936 122.087 148.026 121.962 148.139 121.859C148.36 121.628 148.654 121.48 148.972 121.443C149.317 121.348 149.844 121.237 150.555 121.108C151.474 120.986 152.399 120.912 153.326 120.885H157.711H158.066H158.431C158.655 120.908 158.868 120.992 159.047 121.128C159.226 121.264 159.364 121.447 159.446 121.656C159.664 121.989 159.787 122.375 159.802 122.773C159.823 122.945 159.787 123.12 159.7 123.27C159.497 123.422 159.203 123.676 158.817 124.011C158.431 124.346 157.802 125.026 157.02 125.868L151.945 131.877C152.017 131.938 152.067 131.979 152.118 131.979L158.787 131.928C159.406 132.019 159.741 132.496 159.802 133.349C159.862 134.202 159.05 134.587 157.538 134.831C156.41 134.967 155.274 135.024 154.138 135.003H151.773L150.342 135.095L148.982 135.166Z" fill="#E6E6E6"/>
<path d="M189.348 117.972C188.7 117.998 188.056 117.866 187.47 117.586C186.87 117.12 186.473 116.44 186.364 115.688C186.343 115.57 186.343 115.45 186.364 115.333L195.641 99.4378H195.266H194.88L190.363 100.453C190.292 100.453 189.744 100.676 188.709 101.082C188.011 101.388 187.287 101.633 186.547 101.813C186.181 101.874 185.725 101.64 185.187 101.102C184.815 100.788 184.532 100.382 184.365 99.925C184.329 99.7016 184.339 99.4734 184.393 99.2537C184.447 99.0341 184.544 98.8275 184.679 98.6461C184.943 98.2552 185.334 97.9681 185.786 97.8341C186.273 97.6108 187.014 97.3063 188.008 96.9307C189.866 96.3826 191.196 96.0375 191.987 95.9157L198.382 94.7891H198.889L199.437 94.7282C199.78 94.6899 200.126 94.7486 200.436 94.8976C200.747 95.0465 201.009 95.2797 201.193 95.5706C201.592 96.0048 201.869 96.5372 201.995 97.1134C202.079 97.3533 202.079 97.6145 201.995 97.8544C201.741 98.1386 201.376 98.5852 200.899 99.1739C200.422 99.7626 199.661 100.899 198.747 102.341C197.326 104.804 195.387 108.15 192.931 112.379C193.008 112.446 193.104 112.485 193.205 112.491L202.909 110.704C203.842 110.704 204.451 111.283 204.736 112.521C204.925 113.597 203.954 114.511 201.823 115.262C200.214 115.751 198.572 116.124 196.91 116.378L195.215 116.683L193.469 116.987L191.439 117.495L189.348 117.972Z" fill="#E6E6E6"/>
<path d="M224.467 87.3705C223.822 87.4096 223.178 87.2911 222.589 87.0254C221.99 86.5585 221.594 85.8787 221.483 85.1273C221.468 85.0094 221.468 84.89 221.483 84.7721L230.77 68.8772H230.385H230.06L225.533 69.8922C225.472 69.8922 224.924 70.1155 223.889 70.5215C223.187 70.8279 222.46 71.0724 221.716 71.2523C221.351 71.3132 220.904 71.0797 220.367 70.5418C219.988 70.2336 219.703 69.8258 219.544 69.3644C219.504 69.1417 219.511 68.9132 219.563 68.6932C219.616 68.4731 219.713 68.2663 219.849 68.0855C220.115 67.6927 220.51 67.4054 220.965 67.2735C221.453 67.0502 222.194 66.7457 223.178 66.3701C225.036 65.822 226.365 65.4769 227.157 65.3551L233.551 64.2285L234.069 64.1777L234.607 64.1168C234.949 64.0786 235.295 64.1373 235.606 64.2862C235.916 64.4352 236.179 64.6684 236.363 64.9593C236.765 65.3931 237.045 65.9253 237.175 66.5021C237.248 66.7437 237.248 67.0015 237.175 67.243C236.911 67.5374 236.546 67.9738 236.079 68.5625C235.306 69.5795 234.588 70.6366 233.927 71.7293C232.506 74.1992 230.567 77.5453 228.111 81.7677C228.147 81.8039 228.189 81.8325 228.237 81.8517C228.284 81.8708 228.334 81.8803 228.385 81.8793L238.078 80.0929C239.012 80.0929 239.621 80.6715 239.905 81.9098C240.095 82.9857 239.124 83.8992 236.992 84.6503C235.383 85.1389 233.741 85.5154 232.08 85.7769L230.405 86.0104L228.659 86.3149L226.629 86.8224L224.467 87.3705Z" fill="#E6E6E6"/>
<path d="M139.705 160.733C139.705 160.733 136.528 159.647 136.254 160.297C135.979 160.947 134.548 163.789 136.04 164.611C137.532 165.433 140.476 162.814 139.705 160.733Z" fill="#24285B"/>
<path d="M136.152 163.972L135.746 167.098L136.436 166.571L137.604 163.211L136.152 163.972Z" fill="#24285B"/>
</svg>
