<svg id="Layer_1" data-name="Layer 1" xmlns="http://www.w3.org/2000/svg" viewBox="0 0 400 300" width="406" height="306" class="illustration styles_illustrationTablet__1DWOa"><path d="M104.48,70.2C72,83.16,47.93,116,43.18,155.76c-4,33.48,5.56,70.49,61.84,81,109.51,20.51,212.07,26.36,238.26-29S361.4,57.64,305.83,51.51C261.65,46.63,167.88,44.9,104.48,70.2Z" fill="#e6e6e6" opacity="0.3"></path><path d="M122.92,200.84s10.73,28.51,12.32,42H72s2.7-34.73,11.16-43.54Z" fill="#24285b"></path><rect x="88.38" y="177.87" width="240.2" height="8.27" rx="4.14" fill="#c1c1c1"></rect><rect x="237.9" y="222.45" width="104.3" height="21.79" fill="#e6e6e6"></rect><path d="M323.06,211.35s-9.11-2.49-11.09-11c0,0,14.12-2.85,14.52,11.72Z" fill="#68e1fd" opacity="0.58"></path><path d="M324.18,210.45s-6.37-10.07-.76-19.48c0,0,10.74,6.82,6,19.5Z" fill="#68e1fd" opacity="0.73"></path><path d="M325.82,210.46s3.37-10.64,13.54-12.65c0,0,1.9,6.9-6.59,12.67Z" fill="#68e1fd"></path><polygon points="319.21 210.22 321.06 222.86 332.7 222.91 334.41 210.28 319.21 210.22" fill="#24285b"></polygon><rect x="255.67" y="216.56" width="47.71" height="6.34" fill="#ffd200"></rect><rect x="259.96" y="210.22" width="47.71" height="6.34" fill="#c1c1c1" opacity="0.55"></rect><rect x="97.64" y="53.29" width="225.82" height="124.58" fill="#e6e6e6"></rect><rect x="139.41" y="77.09" width="102.56" height="3.65" fill="#c1c1c1"></rect><rect x="247.32" y="77.09" width="44.84" height="3.65" fill="#c1c1c1"></rect><rect x="143.25" y="90.43" width="35.79" height="3.65" fill="#c1c1c1"></rect><rect x="184.38" y="90.43" width="93.53" height="3.65" fill="#c1c1c1"></rect><rect x="152.3" y="103.78" width="66.22" height="3.65" fill="#c1c1c1"></rect><rect x="222.64" y="103.78" width="69.52" height="3.65" fill="#c1c1c1"></rect><rect x="139.41" y="117.12" width="59.78" height="3.65" fill="#c1c1c1"></rect><rect x="203.72" y="117.12" width="67.46" height="3.65" fill="#c1c1c1"></rect><rect x="169.58" y="130.46" width="80.21" height="3.65" fill="#c1c1c1"></rect><rect x="141.6" y="130.46" width="23.86" height="3.65" fill="#c1c1c1"></rect><rect x="255.96" y="130.46" width="26.34" height="3.65" fill="#c1c1c1"></rect><polygon points="147.08 143.8 147.08 147.45 230.04 147.45 230.04 143.91 233.75 143.91 233.75 147.45 292.15 147.45 292.15 143.8 147.08 143.8" fill="#c1c1c1"></polygon><path d="M96.35,132.89c8-9.84,23.86-8,29.06,3.54A32.72,32.72,0,0,1,128,148.6c1.08,25.05,14,38.72,25.89,34.4s17.63-25.26,17.63-25.26,9.71-6.92,11.87,0-6.84,7-6.84,7-11.53,67.76-61.86,24.41C82.9,161.7,88.17,143,96.35,132.89Z" fill="#f4a28c"></path><path d="M96.35,132.89c8-9.84,23.86-8,29.06,3.54A32.72,32.72,0,0,1,128,148.6c1.08,25.05,14,38.72,25.89,34.4s17.63-25.26,17.63-25.26,9.71-6.92,11.87,0-6.84,7-6.84,7-11.53,67.76-61.86,24.41C82.9,161.7,88.17,143,96.35,132.89Z" opacity="0.08"></path><path d="M110.24,99.7s2.28,5.42,2.54,9.43a3,3,0,0,1-2.78,3.13,6.5,6.5,0,0,1-6.35-3.11l-3.25-4.34a5.28,5.28,0,0,1,.48-6.08C103.3,95.44,109,96.33,110.24,99.7Z" fill="#f4a28c"></path><polygon points="100.92 104.65 98.66 123.78 109.43 125.05 106.73 110.51 100.92 104.65" fill="#f4a28c"></polygon><path d="M111.5,103.19l2.26,1.65a1,1,0,0,1-.11,1.59l-2,1.09Z" fill="#f4a28c"></path><path d="M107,111.74a6.69,6.69,0,0,1-2.92-1.16s-1.22,6.77,4,7.15Z" fill="#ce8172" opacity="0.31"></path><path d="M105.13,105.73s-.74-2.14-2.3-1.45-.52,3.79,1.77,3.37Z" fill="#f4a28c"></path><path d="M109,99.82a17,17,0,0,1-5.23,2.12s1.36,6.5-2.81,10c0,0-8.24-7.16-4.09-12.94,3.47-4.84,5.88-8.85,11.15-6.94A4.4,4.4,0,0,1,109,99.82Z" fill="#24285b"></path><circle cx="92.7" cy="97.68" r="5.85" fill="#24285b"></circle><path d="M105.15,105.08s-1.23-2.32-3-1.15-.59,4,2.29,4.11Z" fill="#f4a28c"></path><path d="M98.66,123.78l4.78.19a33.73,33.73,0,0,1,15.8,4.64c10,5.87,25.07,17.31,23,31.69-3.09,21.24-19.3,40.54-19.3,40.54L83.15,199.3S49.69,122,98.66,123.78Z" fill="#68e1fd"></path><path d="M94.12,131.69s21.42,15.35,8.55,42.44S106,200.18,106,200.18l-22.85-.88-3.71-9.83Z" opacity="0.08"></path><path d="M108.35,206.56,87.88,232.27s20.6,14.49,20.91,15.1,19.4-26.83,19.4-26.83Z" fill="#ffd200"></path><path d="M79.44,129.72A65,65,0,0,0,67,153.21c-4.36,14.67-11.1,37-8.72,46.09,1.7,6.48,11,11.58,16.12,15,6.2,4.07,13.91,10,21.21,11.5a22.13,22.13,0,0,0,7,.67,7.47,7.47,0,0,0,5.81-3.52,3.4,3.4,0,0,0,.46-1.94c-.19-1.75-2.06-2.73-3.68-3.4-1.4-.57-3.25-.78-4.65-1.35a7.81,7.81,0,0,1,2.05-2,2.34,2.34,0,0,0,1-1.85c-.1-.9-1.55,0-2.46.05-3.75.42-7.13,1.59-10.32-.67-2.1-1.47-4.14-3-6.09-4.71-2.59-2.21-9.62-7.64-7.8-11.83,2.5-5.78,28.34-40,26.66-51.71S91.85,120.5,79.44,129.72Z" fill="#f4a28c"></path><rect x="191.48" y="113.38" width="1.39" height="57.45" transform="translate(129.65 -88.58) rotate(38.35)" fill="#24285b"></rect><path d="M262.17,173.38H292a0,0,0,0,1,0,0v2.22a2.27,2.27,0,0,1-2.27,2.27H264.44a2.27,2.27,0,0,1-2.27-2.27v-2.22A0,0,0,0,1,262.17,173.38Z" fill="#ffd200"></path><path d="M265.88,167.59h22.4a1.77,1.77,0,0,1,1.77,1.77v4a0,0,0,0,1,0,0H264.11a0,0,0,0,1,0,0v-4A1.77,1.77,0,0,1,265.88,167.59Z" fill="#fff"></path><polygon points="110.6 213.5 107.79 216.91 117.74 224.13 120.44 220.6 110.6 213.5" fill="#fff"></polygon></svg>