<svg id="Layer_1" data-name="Layer 1" xmlns="http://www.w3.org/2000/svg" viewBox="0 0 400 300" width="406" height="306" class="illustration styles_illustrationTablet__1DWOa"><title>#118_team work_twocolour</title><rect x="209.53" y="40.41" width="26.18" height="4.14" fill="#e6e6e6"></rect><rect x="215.91" y="36.25" width="19.8" height="4.14" fill="#c9c9c9"></rect><ellipse cx="199.6" cy="261.91" rx="136.64" ry="19.65" fill="#e6e6e6" opacity="0.45"></ellipse><polygon points="264.09 77.19 264.09 95.56 275.96 95.56 278.55 102.87 281.62 95.56 293.49 95.56 293.49 77.19 264.09 77.19" fill="#e6e6e6"></polygon><path d="M277.31,90.48h0a.93.93,0,0,1-.69-.35l-3.1-4a.9.9,0,0,1,.16-1.28.91.91,0,0,1,1.29.16l2.44,3.14,6-6.5a.9.9,0,0,1,1.29,0,.91.91,0,0,1,.05,1.3L278,90.18A.91.91,0,0,1,277.31,90.48Z" opacity="0.12"></path><polygon points="105.59 81.46 105.59 99.83 117.46 99.83 120.06 107.14 123.13 99.83 135 99.83 135 81.46 105.59 81.46" fill="#e6e6e6"></polygon><path d="M118.81,94.75h0a.93.93,0,0,1-.69-.35l-3.1-4a.92.92,0,0,1,1.45-1.13l2.44,3.14,6-6.5a.91.91,0,0,1,1.3,0,.93.93,0,0,1,0,1.3l-6.76,7.29A.89.89,0,0,1,118.81,94.75Z" opacity="0.12"></path><rect x="140.15" y="44.57" width="119.7" height="214.67" fill="#c9c9c9"></rect><rect x="150.05" y="69.04" width="99.08" height="151.08" fill="#fff"></rect><circle cx="200.36" cy="239.47" r="11.71" fill="#fff" opacity="0.56"></circle><rect x="189.87" y="52.96" width="33.56" height="4.89" opacity="0.12"></rect><circle cx="177.72" cy="55.94" r="5.47" fill="#fff"></circle><path d="M273.33,122.13a24.52,24.52,0,0,0,0,6.52,2,2,0,0,0,2.34,1.53,4.36,4.36,0,0,0,3.55-3.12l1.32-3.38a3.54,3.54,0,0,0-1.38-3.83C277.05,118.17,273.52,119.75,273.33,122.13Z" fill="#f4a28c"></path><path d="M140,190.64l.52,10.86,10.5-2.18,4.47-18.94a17.76,17.76,0,0,1,15.35-13.58c8-.87,17.92-1.69,24.25-1.25,11.93.83,37.13-2,45.6,5.24s9.36,26.76,19.18,33.92V191.12L257,154.55l-10.83-3.69-38.34,5.69-4.09.7-4.24,2.3-9-4.5-51.83-2.17Z" opacity="0.08"></path><polygon points="280.33 124.3 281.79 137.07 274.69 137.37 276.48 127.95 280.33 124.3" fill="#f4a28c"></polygon><path d="M127.71,137.51l67.36,15.26-1.23,5.73s-33.68-.85-58.85,4S127.71,137.51,127.71,137.51Z" fill="#68e1fd"></path><path d="M127.71,137.51l67.36,15.26-1.23,5.73s-33.68-.85-58.85,4S127.71,137.51,127.71,137.51Z" opacity="0.08"></path><path d="M273.13,124.6,272,126.06a.64.64,0,0,0,.35,1l1.49.35Z" fill="#f4a28c"></path><path d="M271.84,137.51,204.75,154l1.8,3.64s32.83,0,58,4.8S271.84,137.51,271.84,137.51Z" fill="#f4a28c"></path><path d="M276,130a4.64,4.64,0,0,0,2.35-1.27,7.33,7.33,0,0,1-2.88,4.55Z" fill="#ce8172" opacity="0.31"></path><path d="M241.38,159.36l1.72-14.77,23.71-6.1L269.52,163A69.41,69.41,0,0,1,241.38,159.36Z" fill="#68e1fd"></path><path d="M241.38,159.36l1.72-14.77,23.71-6.1L269.52,163A69.41,69.41,0,0,1,241.38,159.36Z" opacity="0.08"></path><path d="M266.81,138.49s30.44-6.81,41.34-.7-10.5,63.71-10.5,63.71l-33.6-1.06S234.64,144.34,266.81,138.49Z" fill="#68e1fd"></path><path d="M273.61,255.59s-1.57,2.82-4.31,2.61-3.88,2.32-1.56,3.4,9.11-1,9.11-1l.58-5Z" fill="#68e1fd"></path><path d="M298.23,255s1.12,3,3.86,3.24,3.48,2.89,1,3.6-8.84-2.4-8.84-2.4l.18-5Z" fill="#68e1fd"></path><path d="M264.05,200.44l8.59,55.15h5.62s-5.2-41.48,3.89-46.48S293,255.59,293,255.59l6-.48-.07-56.86Z" fill="#24285b"></path><path d="M126.21,122.13a24.07,24.07,0,0,1,0,6.52,2,2,0,0,1-2.34,1.53,4.33,4.33,0,0,1-3.54-3.12L119,123.68a3.53,3.53,0,0,1,1.39-3.83C122.5,118.17,126,119.75,126.21,122.13Z" fill="#f4a28c"></path><polygon points="119.21 124.3 117.76 137.07 124.86 137.37 123.06 127.95 119.21 124.3" fill="#f4a28c"></polygon><path d="M126.41,124.6l1.16,1.46a.63.63,0,0,1-.35,1l-1.49.35Z" fill="#f4a28c"></path><path d="M123.54,130a4.64,4.64,0,0,1-2.35-1.27,7.32,7.32,0,0,0,2.89,4.55Z" fill="#ce8172" opacity="0.31"></path><path d="M132.73,138.49s-30.44-6.81-41.34-.7,10.5,63.71,10.5,63.71l33.61-1.06S164.9,144.34,132.73,138.49Z" fill="#68e1fd"></path><path d="M125.94,255.59s1.56,2.82,4.3,2.61,3.89,2.32,1.56,3.4-9.1-1-9.1-1l-.58-5Z" fill="#68e1fd"></path><path d="M101.31,255s-1.11,3-3.85,3.24-3.49,2.89-1,3.6,8.85-2.4,8.85-2.4l-.19-5Z" fill="#68e1fd"></path><path d="M106.3,143.13s9.62,6.23,4.72,20.46-5.69,24.43,5.86,20.86,10.7-19.5,10.7-19.5l11.78,1.82,1.14,22.61-5,11.06-29.2-1.84-11.89-3L90,180.66l8.08-25.27Z" opacity="0.08"></path><path d="M135.5,200.44l-8.6,55.15h-5.62s5.21-41.48-3.88-46.48-10.88,46.48-10.88,46.48l-6-.48.06-56.86Z" fill="#24285b"></path><path d="M100.37,136s-18.93-3.19-18.93,26.6,4.55,56.31,48.25,29.74l-3.32-5.07s-23.54,10.36-28.55,1.26S117.48,141,100.37,136Z" fill="#68e1fd"></path><path d="M100.37,136s-18.93-3.19-18.93,26.6,4.55,56.31,48.25,29.74l-3.32-5.07s-23.54,10.36-28.55,1.26S117.48,141,100.37,136Z" fill="#fff" opacity="0.46"></path><rect x="131.72" y="164.12" width="16.53" height="24.74" transform="translate(232.68 381.81) rotate(-165.88)" fill="#ffd200"></rect><path d="M297.14,144.59s-7.31,5.8-2.87,18.42.23,34-12.48,36.31l17.13-1.07,8.68-28.68Z" opacity="0.08"></path><path d="M125.46,122.3a7.21,7.21,0,0,1-.89.23,6.58,6.58,0,0,0-1.23.41l-.32.14a1.27,1.27,0,0,0-.76,1.17,3.45,3.45,0,0,1-3.41,3.8s-3.09-4.61-.62-8.15a8.17,8.17,0,0,1,6.21-3.31A2.94,2.94,0,0,1,125.46,122.3Z" fill="#24285b"></path><path d="M122.2,126.42a1,1,0,0,0,.14-1c-.22-.52-.65-1.22-1.37-1.12s-.87,1.28-.36,2a1,1,0,0,0,1.59,0Z" fill="#f4a28c"></path><path d="M271.39,118.11a6.19,6.19,0,0,1,1,2.54,1.75,1.75,0,0,0,2.31,1.67c3-.52,2,5.13,5.93,4.49a2.77,2.77,0,0,0,2.58-2.06,4.14,4.14,0,0,1,2.19-2.78c.83-.4,1.47-1.21,1.08-2.82-.87-3.64-3.69.89-4.68-3s-2.64-3.28-3.44-2.58-1.62,1.75-2.88.47S269.63,115.3,271.39,118.11Z" fill="#24285b"></path><path d="M277.35,126.42a1,1,0,0,1-.14-1c.22-.52.65-1.22,1.36-1.12s.87,1.28.37,2a1,1,0,0,1-1.59,0Z" fill="#f4a28c"></path><path d="M194.89,153.61l2.6.78a4.11,4.11,0,0,1,2.88,3.09c.28,1.36.3,2.85-.77,3.3-2.1.87-5.48-3.58-5.48-3.58Z" fill="#f4a28c"></path><path d="M206.17,153.61l-2.44.73a4.4,4.4,0,0,0-3.1,3.5c-.21,1.25-.14,2.53.83,2.94,2.1.87,5.48-3.58,5.48-3.58Z" fill="#f4a28c"></path><circle cx="199.5" cy="114.74" r="28.39" fill="#24285b"></circle><polyline points="189.11 115.05 195.96 126.21 209.9 106.32" fill="none" stroke="#fff" stroke-linecap="round" stroke-linejoin="round" stroke-width="5"></polyline><path d="M305.21,136.47c6.43.56,14.58,6.14,20.14,27.28l-19.5,7-8.3-24.33A7.53,7.53,0,0,1,305.21,136.47Z" fill="#68e1fd"></path><path d="M305.21,136.47c6.43.56,14.58,6.14,20.14,27.28l-19.5,7-8.3-24.33A7.53,7.53,0,0,1,305.21,136.47Z" fill="#fff" opacity="0.46"></path><path d="M115.23,136.48s.44-5,6.31-3.2,6.17,4.23,6.17,4.23Z" fill="#68e1fd"></path><path d="M115.23,136.48s.44-5,6.31-3.2,6.17,4.23,6.17,4.23Z" fill="#fff" opacity="0.46"></path><path d="M324.3,163.75l4.52,16.09a15.36,15.36,0,0,1-10,18.74L305.14,202a4.33,4.33,0,0,0-3.14,3c-.42,1.45-1.14,3-2.33,2.91-4.93-.44-.23-7.45-.23-7.45l13.36-8.34A7.77,7.77,0,0,0,315.6,182l-6.37-12.38Z" fill="#f4a28c"></path><rect x="177.72" y="174.79" width="45.07" height="20.76" fill="#ffd200"></rect><rect x="186.02" y="203.36" width="28.69" height="6.09" fill="#c9c9c9" opacity="0.34"></rect><path d="M127,188.27s3.21-4.87,6.23-2.41-4.36,5.26-4.36,5.26Z" fill="#f4a28c"></path><rect x="194.26" y="178.26" width="24.03" height="5.16" fill="#fff" opacity="0.46"></rect><path d="M233.49,35.3s-7.32-2-8.91-8.81c0,0,11.34-2.29,11.66,9.41Z" fill="#68e1fd" opacity="0.58"></path><path d="M234.39,34.57s-5.11-8.08-.61-15.64c0,0,8.62,5.48,4.79,15.66Z" fill="#68e1fd" opacity="0.73"></path><path d="M235.71,34.58s2.7-8.54,10.86-10.16c0,0,1.53,5.55-5.28,10.18Z" fill="#68e1fd"></path><polygon points="230.4 34.38 231.88 44.53 241.22 44.57 242.6 34.44 230.4 34.38" fill="#24285b"></polygon></svg>