<svg id="Layer_1" data-name="Layer 1" xmlns="http://www.w3.org/2000/svg" viewBox="0 0 400 300" width="406" height="306" class="illustration styles_illustrationTablet__1DWOa"><path d="M101.61,47A92.38,92.38,0,0,0,40.3,121.38c-4,29.13,5.57,61.32,61.85,70.49,109.54,17.85,212.12,22.94,238.3-25.21S358.58,36,303,30.7C258.81,26.46,165,25,101.61,47Z" fill="#e6e6e6" opacity="0.3"></path><path d="M266.69,83s-10.84,14.74.16,19.22,11.93-11.84,11.93-11.84l-5-11Z" fill="#ffd200"></path><path d="M148.46,86.43s25.35,17.51,31.47,48.91,29.62,38,29.62,38l-1,6.39s-44.94-3.32-53.36-49.79Z" fill="#f4a28c"></path><path d="M279.25,100.37s-28.38,12-40.75,41.51-36.71,31.25-36.71,31.25l-.3,6.45s44.68,5.87,62.35-37.92Z" fill="#f4a28c"></path><ellipse cx="208.28" cy="252.34" rx="160.55" ry="15.3" fill="#e6e6e6" opacity="0.45"></ellipse><path d="M270.49,93.54l13.89.44s41.69,10.74,18.33,59c-3.7,7.64-3.4,16.63-3.6,25.11l-.06,2.2H262.42l-1.91-7.9a64.94,64.94,0,0,0-11.74-24.07C241.69,139,236.69,120.53,270.49,93.54Z" fill="#68e1fd"></path><path d="M137.1,57.49s0,6-1.43,9.82a3,3,0,0,1-3.85,1.8,6.63,6.63,0,0,1-4.68-5.46l-1.27-5.36a5.35,5.35,0,0,1,2.9-5.48C132.35,50.72,137.32,53.86,137.1,57.49Z" fill="#f4a28c"></path><polygon points="126.09 59.26 121.18 78.2 131.81 80.17 131.12 65.59 126.09 59.26" fill="#f4a28c"></polygon><path d="M135.61,57.6a24.25,24.25,0,0,1-5.44-1,5,5,0,0,1-.53,5.44,4.06,4.06,0,0,1-5,1.14l.84-7.63A6.06,6.06,0,0,1,129,50.5a21.66,21.66,0,0,1,2.67-1c2.28-.67,5.36,1.1,7.47-.19a1.44,1.44,0,0,1,2.19,1.16c.12,2.36-.65,6-3.92,6.94A5.45,5.45,0,0,1,135.61,57.6Z" fill="#ffd200"></path><path d="M130.3,62s.17-2.29-1.56-2.28-2,3.32.29,3.86Z" fill="#f4a28c"></path><path d="M136.88,61.25l1.43,2.45a1,1,0,0,1-.74,1.44l-2.31.21Z" fill="#f4a28c"></path><path d="M131.41,68.78a7.12,7.12,0,0,1-3.28-2.41s-.19,3.57,3.38,7.47Z" fill="#ce8172" opacity="0.31"></path><path d="M263.9,73s.21,5.55,1.59,9.08a2.78,2.78,0,0,0,3.62,1.57,6.14,6.14,0,0,0,4.2-5.19l1.05-5a5,5,0,0,0-2.84-5C268.14,66.63,263.61,69.66,263.9,73Z" fill="#f4a28c"></path><polygon points="274.17 74.39 279.22 91.85 269.4 93.95 269.67 80.4 274.17 74.39" fill="#f4a28c"></polygon><path d="M270.34,77s-.22-2.13,1.39-2.16,1.95,3-.18,3.59Z" fill="#f4a28c"></path><path d="M264.21,76.52l-1.27,2.31a.9.9,0,0,0,.73,1.32l2.15.13Z" fill="#f4a28c"></path><path d="M269.48,83.36a6.61,6.61,0,0,0,3-2.32s.27,3.32-3,7Z" fill="#ce8172" opacity="0.31"></path><path d="M262.62,64.9a5.33,5.33,0,0,0,1.28,8.69A15,15,0,0,0,268,74.94c6,1.15,3,27.42,15.6,23.72s8.53-9.15,2.82-14-8.09-14-10.27-18.56C274.55,62.73,266.44,61.53,262.62,64.9Z" fill="#ffd200"></path><path d="M148.46,86.43s27.13,16.23,34.28,50.27l-26.24,7Z" fill="#68e1fd"></path><path d="M148.46,86.43s27.13,16.23,34.28,50.27l-26.24,7Z" fill="#fff" opacity="0.46"></path><path d="M95.18,93.69A29.78,29.78,0,0,1,126.84,79l4.72.87s33.31,4.87,31.27,35.55S143.45,168,143.45,168l-45-5.11S81.5,119,95.18,93.69Z" fill="#68e1fd"></path><path d="M158.74,243.5,143.45,168l-45-5.11,7.15,83.24H114l6.1-54a12.26,12.26,0,0,1,3.67-7.44h0a3.28,3.28,0,0,1,5.35,1.23l22,60.24Z" fill="#24285b"></path><path d="M118.22,93.76s3,23.45-2.63,44.9,0,26.2,0,26.2l-17.1-2s-3.75-9.51-4.43-14.33S93.79,91,118.22,93.76Z" opacity="0.08"></path><path d="M104.07,83.31c-11.48,6.31-26.68,19.8-28.56,47.28l29.61,4.77s12.39-21.31,13.19-43.4A9.59,9.59,0,0,0,104.07,83.31Z" fill="#68e1fd"></path><path d="M104.07,83.31c-11.48,6.31-26.68,19.8-28.56,47.28l29.61,4.77s12.39-21.31,13.19-43.4A9.59,9.59,0,0,0,104.07,83.31Z" fill="#fff" opacity="0.46"></path><path d="M78.31,131s-6.81,40,1.28,64.9h6.47s.56-39.24,14.59-61.3Z" fill="#f4a28c"></path><path d="M79.59,195.94s.75,13.61,8.55,9.87-2.08-9.87-2.08-9.87Z" fill="#f4a28c"></path><rect x="78.09" y="193.15" width="10.04" height="4.28" transform="translate(-27.49 14.14) rotate(-8.35)" fill="#24285b"></rect><path d="M201.6,167.47s3.49-1.62,6.21,4.17-7.23,2.21-7.23,2.21Z" fill="#f4a28c"></path><path d="M106.93,246.05s-2.15,3.46-5.59,3-5,2.68-2.18,4.19,11.53-.72,11.53-.72l1-6.25Z" fill="#68e1fd"></path><path d="M157.47,245s2.15,3.45,5.59,3,5,2.67,2.18,4.19-11.53-.72-11.53-.72l-1.05-6.25Z" fill="#68e1fd"></path><path d="M198.27,142.26s-3.39,14.5,3.16,14.61,4.85-14.61,4.85-14.61Z" fill="#f4a28c"></path><path d="M205.18,154.17l1.29,9.28s2.39,3.85-2.57,4.68-6.74-1.24-3.58-4.55l.83-9.41Z" fill="#f4a28c"></path><path d="M206.47,146.37s3.49,0,3.08,3.2-4.41,0-4.41,0Z" fill="#f4a28c"></path><path d="M206.47,163.45S217,163.24,218,173.61s-3.32,21.86-3.32,21.86l-23.25-1.11s-11-27.93,8.91-30.78Z" fill="#68e1fd"></path><polygon points="196.88 206.66 198.74 248.99 206.47 248.99 208.88 206.66 196.88 206.66" fill="#f4a28c"></polygon><path d="M196.24,142.26l-.85,4.87h10.77l-.37,5.33s5.9-7.38,3.79-11.8S198.62,133.31,196.24,142.26Z" fill="#ffd200"></path><circle cx="210.29" cy="137.58" r="3.82" fill="#ffd200"></circle><polygon points="191.41 194.36 180.49 225.55 222.01 226.45 214.66 195.47 191.41 194.36" fill="#24285b"></polygon><polygon points="294.29 192.34 296.03 249.83 292.33 250.97 279.82 196.76 294.29 192.34" fill="#f4a28c"></polygon><path d="M295.93,249s2.29,2.63,5.05,2.36,3.35,3.62-1.11,3.43a25,25,0,0,1-4.13-.5,7.23,7.23,0,0,0-3.74.31,1.21,1.21,0,0,1-1.29-.44c-1.33-1.42,1.6-5,1.6-5Z" fill="#68e1fd"></path><polygon points="265.42 192.43 252.16 248.4 255.56 250.25 278.7 199.66 265.42 192.43" fill="#f4a28c"></polygon><path d="M252.43,247.59s-2.78,2.12-5.42,1.31-4,2.87.4,3.58a24.68,24.68,0,0,0,4.15.33,7.25,7.25,0,0,1,3.6,1.06,1.19,1.19,0,0,0,1.35-.18c1.59-1.12-.57-5.2-.57-5.2Z" fill="#68e1fd"></path><path d="M283.23,112.6s-4.86,19.13,3,32.15-6.46,31.58-6.46,31.58l19.38-.67s1.18-17.83,5.68-33.11S283.23,112.6,283.23,112.6Z" opacity="0.08"></path><polygon points="261.63 176.97 299.2 175.66 305.96 238.14 279.22 238.14 278.78 191.48 261.63 176.97" fill="#24285b"></polygon><polygon points="261.63 176.97 243.61 236.16 269.14 238.14 283.8 184.65 261.63 176.97" fill="#24285b"></polygon><path d="M195.79,164.87S185,168,184.24,177.42s13.16,31.92,13.16,31.92l4.2-1.74S187.17,181.42,195.79,164.87Z" fill="#68e1fd"></path><path d="M195.79,164.87S185,168,184.24,177.42s13.16,31.92,13.16,31.92l4.2-1.74S187.17,181.42,195.79,164.87Z" fill="#fff" opacity="0.46"></path><path d="M211.94,164.87s10.79,3.11,11.55,12.55-13.16,31.92-13.16,31.92l-4.2-1.74S220.56,181.42,211.94,164.87Z" fill="#68e1fd"></path><path d="M211.94,164.87s10.79,3.11,11.55,12.55-13.16,31.92-13.16,31.92l-4.2-1.74S220.56,181.42,211.94,164.87Z" fill="#fff" opacity="0.46"></path><path d="M198.2,209s3.7,5.74,6.23,4.57-2.83-6-2.83-6Z" fill="#f4a28c"></path><path d="M206.13,207.6s-4.79,5.63-1.28,6.14,4.72-4.72,4.72-4.72l-3-1.24Z" fill="#f4a28c"></path><path d="M284.63,107.92A10.8,10.8,0,0,1,301.79,105c5.78,5.51,13,15.35,16.79,31.9,6.81,30.13-32.3,62.47-32.3,62.47s-4.78,8.86-9.9,6.81S281.23,195,281.23,195s18.2-16.55,15.52-40.31C294.57,135.39,278.1,121.14,284.63,107.92Z" fill="#f4a28c"></path><path d="M199.58,248a16.13,16.13,0,0,0-4.72,2.08,1.86,1.86,0,0,0,1.15,3.32h14.31a1.5,1.5,0,0,0,1.28-2.3,7.72,7.72,0,0,0-3.35-2.52,9.46,9.46,0,0,0-4-.85h-2.77A6.76,6.76,0,0,0,199.58,248Z" fill="#68e1fd"></path></svg>