<svg width="406" height="306" viewBox="0 0 406 306" fill="none" xmlns="http://www.w3.org/2000/svg">
<path opacity="0.3" d="M103.134 48.455C86.817 54.0909 72.3724 64.122 61.3922 77.443C50.4119 90.764 43.3223 106.858 40.9045 123.951C36.8445 153.518 46.5581 186.19 103.682 195.498C214.865 213.616 318.984 218.782 345.557 169.91C372.129 121.038 363.959 37.29 307.545 31.9105C262.692 27.6069 167.475 26.125 103.134 48.455Z" fill="#E6E6E6"/>
<path d="M270.69 84.9946C270.69 84.9946 259.688 99.9557 270.853 104.503C282.018 109.05 282.962 92.4853 282.962 92.4853L277.887 81.3203L270.69 84.9946Z" fill="#FFD200"/>
<path d="M150.687 88.4766C150.687 88.4766 176.417 106.249 182.629 138.12C188.841 169.991 212.693 176.69 212.693 176.69L211.678 183.176C211.678 183.176 166.064 179.806 157.518 132.639L150.687 88.4766Z" fill="#F4A28C"/>
<path d="M283.439 102.625C283.439 102.625 254.633 114.805 242.078 144.758C229.522 174.71 204.817 176.476 204.817 176.476L204.512 183.023C204.512 183.023 249.863 188.981 267.798 144.534L283.439 102.625Z" fill="#F4A28C"/>
<path opacity="0.45" d="M211.404 272.405C301.404 272.405 374.363 265.452 374.363 256.875C374.363 248.299 301.404 241.346 211.404 241.346C121.405 241.346 48.446 248.299 48.446 256.875C48.446 265.452 121.405 272.405 211.404 272.405Z" fill="#E6E6E6"/>
<path d="M274.547 95.6934L288.646 96.14C288.646 96.14 330.961 107.041 307.251 156.025C303.495 163.78 303.8 172.904 303.597 181.512L303.536 183.745H266.356L264.418 175.726C262.186 166.843 258.128 158.522 252.501 151.295C245.315 141.835 240.24 123.088 274.547 95.6934Z" fill="#9ED6BE"/>
<path d="M139.156 59.1027C139.156 59.1027 139.156 65.1927 137.705 69.07C137.569 69.4469 137.36 69.7933 137.09 70.0893C136.819 70.3853 136.493 70.625 136.13 70.7948C135.767 70.9645 135.374 71.0609 134.974 71.0784C134.574 71.096 134.174 71.0343 133.797 70.897C132.556 70.528 131.448 69.809 130.605 68.826C129.763 67.843 129.222 66.6379 129.047 65.3551L127.758 59.9147C127.61 58.7967 127.814 57.6604 128.342 56.6637C128.869 55.667 129.694 54.8592 130.701 54.3525C134.335 52.2311 139.38 55.4182 139.156 59.1027Z" fill="#F4A28C"/>
<path d="M127.981 60.8984L122.998 80.1225L133.787 82.1221L133.087 67.3234L127.981 60.8984Z" fill="#F4A28C"/>
<path d="M137.644 59.2132C135.771 59.0866 133.918 58.746 132.122 58.1982C132.578 59.0715 132.77 60.0586 132.675 61.039C132.579 62.0195 132.2 62.951 131.585 63.7198C131.001 64.4671 130.177 64.9903 129.253 65.2011C128.328 65.4119 127.359 65.2974 126.51 64.8769L127.362 57.1325C127.446 56.0369 127.821 54.9836 128.449 54.0822C129.078 53.1808 129.936 52.4641 130.935 52.0067C131.815 51.6092 132.72 51.2702 133.645 50.9917C135.959 50.3117 139.085 52.1082 141.227 50.7989C141.444 50.6664 141.691 50.5926 141.945 50.5847C142.198 50.5768 142.45 50.6352 142.674 50.754C142.898 50.8728 143.088 51.048 143.224 51.2623C143.36 51.4767 143.438 51.7227 143.45 51.9763C143.572 54.3717 142.79 58.0663 139.471 59.0204C138.877 59.186 138.26 59.2512 137.644 59.2132Z" fill="#FFD200"/>
<path d="M132.254 63.6795C132.254 63.6795 132.427 61.3551 130.671 61.3653C128.915 61.3754 128.641 64.7351 130.965 65.2832L132.254 63.6795Z" fill="#F4A28C"/>
<path d="M138.933 62.918L140.385 65.4047C140.457 65.5478 140.494 65.7059 140.494 65.8662C140.494 66.0266 140.455 66.1845 140.382 66.3271C140.308 66.4697 140.202 66.5929 140.072 66.6866C139.942 66.7803 139.792 66.8419 139.633 66.8663L137.289 67.0795L138.933 62.918Z" fill="#F4A28C"/>
<path opacity="0.31" d="M133.381 70.5614C132.057 70.0873 130.9 69.2372 130.052 68.1152C130.052 68.1152 129.859 71.7388 133.483 75.6973L133.381 70.5614Z" fill="#CE8172"/>
<path d="M267.858 74.8442C267.858 74.8442 268.072 80.4775 269.472 84.0604C269.608 84.4072 269.811 84.7237 270.069 84.9917C270.327 85.2597 270.636 85.474 270.978 85.6221C271.319 85.7702 271.687 85.8493 272.059 85.8548C272.431 85.8603 272.801 85.792 273.147 85.654C274.29 85.2808 275.3 84.5848 276.057 83.6501C276.813 82.7154 277.283 81.5819 277.41 80.3861L278.475 75.3111C278.576 74.2714 278.352 73.2261 277.837 72.3178C277.321 71.4095 276.537 70.6826 275.593 70.2361C272.162 68.3787 267.564 71.4541 267.858 74.8442Z" fill="#F4A28C"/>
<path d="M278.282 76.2559L283.408 93.9778L273.441 96.1093L273.715 82.356L278.282 76.2559Z" fill="#F4A28C"/>
<path d="M274.395 78.9055C274.395 78.9055 274.172 76.7436 275.806 76.7131C277.44 76.6827 277.785 79.7581 275.623 80.357L274.395 78.9055Z" fill="#F4A28C"/>
<path d="M268.173 78.418L266.884 80.7626C266.813 80.8969 266.776 81.0469 266.777 81.1989C266.779 81.351 266.818 81.5003 266.891 81.6334C266.965 81.7664 267.071 81.879 267.199 81.9609C267.327 82.0428 267.473 82.0915 267.625 82.1024L269.807 82.2344L268.173 78.418Z" fill="#F4A28C"/>
<path opacity="0.31" d="M273.522 85.3607C274.745 84.89 275.804 84.0714 276.567 83.0059C276.567 83.0059 276.841 86.3757 273.522 90.1109V85.3607Z" fill="#CE8172"/>
<path d="M266.559 66.624C265.916 67.2212 265.429 67.9659 265.138 68.7937C264.847 69.6215 264.761 70.5077 264.889 71.3758C265.017 72.2439 265.354 73.0679 265.872 73.7767C266.389 74.4855 267.071 75.0578 267.859 75.4443C269.172 76.0993 270.574 76.5609 272.02 76.8146C278.11 77.9818 275.065 104.646 287.854 100.89C300.643 97.1349 296.512 91.6031 290.716 86.6804C284.921 81.7576 282.505 72.4704 280.292 67.842C278.668 64.4214 270.437 63.2034 266.559 66.624Z" fill="#FFD200"/>
<path d="M150.687 88.4766C150.687 88.4766 178.224 104.95 185.481 139.501L158.848 146.606L150.687 88.4766Z" fill="#9ED6BE"/>
<path opacity="0.46" d="M150.687 88.4766C150.687 88.4766 178.224 104.95 185.481 139.501L158.848 146.606L150.687 88.4766Z" fill="white"/>
<path d="M96.6078 95.8448C99.7142 90.2946 104.492 85.8657 110.262 83.1886C116.032 80.5116 122.499 79.7227 128.743 80.9345L133.533 81.8175C133.533 81.8175 167.343 86.7606 165.273 117.901C163.202 149.041 145.602 171.269 145.602 171.269L99.9268 166.083C99.9268 166.083 82.7226 121.534 96.6078 95.8448Z" fill="#9ED6BE"/>
<path d="M161.121 247.903L145.602 171.271L99.9268 166.084L107.184 250.573H115.71L121.902 195.763C122.228 192.889 123.545 190.219 125.627 188.211C126.025 187.828 126.513 187.55 127.046 187.403C127.579 187.255 128.14 187.243 128.679 187.367C129.218 187.491 129.718 187.747 130.133 188.112C130.548 188.478 130.865 188.941 131.057 189.459L153.387 250.603L161.121 247.903Z" fill="#24285B"/>
<path opacity="0.08" d="M119.993 95.9168C119.993 95.9168 123.038 119.719 117.324 141.49C111.609 163.262 117.324 168.083 117.324 168.083L99.9673 166.053C99.9673 166.053 96.161 156.401 95.4708 151.508C94.7806 146.616 95.1968 93.1154 119.993 95.9168Z" fill="black"/>
<path d="M105.631 85.3088C93.9788 91.7135 78.5508 105.406 76.6426 133.298L106.697 138.14C106.697 138.14 119.273 116.51 120.085 94.0886C120.132 92.3718 119.724 90.673 118.903 89.1646C118.082 87.6563 116.876 86.3922 115.408 85.5005C113.94 84.6089 112.262 84.1215 110.545 84.0878C108.828 84.0541 107.133 84.4754 105.631 85.3088Z" fill="#9ED6BE"/>
<path opacity="0.46" d="M105.631 85.3088C93.9788 91.7135 78.5508 105.406 76.6426 133.298L106.697 138.14C106.697 138.14 119.273 116.51 120.085 94.0886C120.132 92.3718 119.724 90.673 118.903 89.1646C118.082 87.6563 116.876 86.3922 115.408 85.5005C113.94 84.6089 112.262 84.1215 110.545 84.0878C108.828 84.0541 107.133 84.4754 105.631 85.3088Z" fill="white"/>
<path d="M79.4847 133.715C79.4847 133.715 72.5725 174.315 80.7839 199.588H87.3509C87.3509 199.588 87.9193 159.76 102.16 137.369L79.4847 133.715Z" fill="#F4A28C"/>
<path d="M80.7839 199.629C80.7839 199.629 81.5452 213.443 89.4622 209.647C97.3792 205.851 87.351 199.629 87.351 199.629H80.7839Z" fill="#F4A28C"/>
<path d="M89.0713 196.081L78.9888 197.561L79.6196 201.859L89.7022 200.379L89.0713 196.081Z" fill="#24285B"/>
<path d="M204.624 170.731C204.624 170.731 208.166 169.087 210.927 174.964C213.688 180.841 203.589 177.207 203.589 177.207L204.624 170.731Z" fill="#F4A28C"/>
<path d="M108.534 250.49C108.534 250.49 106.352 254.002 102.86 253.535C99.3686 253.068 97.7852 256.255 100.647 257.788C103.51 259.321 112.35 257.057 112.35 257.057L113.365 250.714L108.534 250.49Z" fill="#9ED6BE"/>
<path d="M159.832 249.426C159.832 249.426 162.014 252.928 165.506 252.471C168.998 252.014 170.581 255.181 167.719 256.724C164.856 258.266 156.016 255.993 156.016 255.993L154.95 249.649L159.832 249.426Z" fill="#9ED6BE"/>
<path d="M201.244 145.145C201.244 145.145 197.803 159.862 204.452 159.974C211.1 160.085 209.374 145.145 209.374 145.145H201.244Z" fill="#F4A28C"/>
<path d="M208.258 157.232L209.567 166.652C209.567 166.652 211.993 170.559 206.958 171.402C201.924 172.244 200.117 170.143 203.325 166.784L204.167 157.232H208.258Z" fill="#F4A28C"/>
<path d="M209.567 149.316C209.567 149.316 213.109 149.316 212.693 152.564C212.277 155.812 208.217 152.564 208.217 152.564L209.567 149.316Z" fill="#F4A28C"/>
<path d="M209.567 166.653C209.567 166.653 220.255 166.44 221.27 176.965C222.285 187.491 217.9 199.153 217.9 199.153L194.301 198.026C194.301 198.026 183.136 169.677 203.345 166.785L209.567 166.653Z" fill="#9ED6BE"/>
<path d="M199.833 210.51L201.721 253.475H209.567L212.013 210.51H199.833Z" fill="#F4A28C"/>
<path d="M199.184 145.144L198.321 150.087H209.252L208.877 155.497C208.877 155.497 214.865 148.006 212.724 143.52C210.582 139.034 201.599 136.06 199.184 145.144Z" fill="#FFD200"/>
<path d="M213.444 144.27C215.586 144.27 217.322 142.534 217.322 140.393C217.322 138.252 215.586 136.516 213.444 136.516C211.303 136.516 209.567 138.252 209.567 140.393C209.567 142.534 211.303 144.27 213.444 144.27Z" fill="#FFD200"/>
<path d="M194.281 198.025L183.197 229.683L225.34 230.597L217.88 199.152L194.281 198.025Z" fill="#24285B"/>
<path d="M298.704 195.975L300.47 254.327L296.715 255.484L284.017 200.461L298.704 195.975Z" fill="#F4A28C"/>
<path d="M300.369 253.484C300.369 253.484 302.693 256.154 305.495 255.88C308.296 255.606 308.895 259.554 304.368 259.361C302.959 259.309 301.557 259.139 300.176 258.854C298.905 258.623 297.596 258.731 296.38 259.168C296.142 259.234 295.89 259.227 295.657 259.147C295.423 259.067 295.219 258.919 295.071 258.722C293.721 257.28 296.695 253.647 296.695 253.647L300.369 253.484Z" fill="#9ED6BE"/>
<path d="M269.401 196.066L255.942 252.876L259.393 254.754L282.88 203.405L269.401 196.066Z" fill="#F4A28C"/>
<path d="M256.216 252.055C256.216 252.055 253.395 254.206 250.715 253.384C248.036 252.562 246.655 256.297 251.121 257.018C252.513 257.248 253.922 257.36 255.333 257.353C256.625 257.385 257.885 257.756 258.987 258.429C259.207 258.542 259.456 258.586 259.701 258.553C259.946 258.52 260.175 258.413 260.358 258.246C261.972 257.109 259.779 252.968 259.779 252.968L256.216 252.055Z" fill="#9ED6BE"/>
<path opacity="0.08" d="M287.478 115.039C287.478 115.039 282.546 134.456 290.523 147.671C298.501 160.887 283.967 179.725 283.967 179.725L303.637 179.045C303.637 179.045 304.835 160.948 309.402 145.438C313.97 129.929 287.478 115.039 287.478 115.039Z" fill="black"/>
<path d="M265.554 180.375L303.688 179.045L310.549 242.462H283.408L282.962 195.102L265.554 180.375Z" fill="#24285B"/>
<path d="M265.554 180.375L247.264 240.453L273.177 242.463L288.057 188.17L265.554 180.375Z" fill="#24285B"/>
<path d="M198.727 168.094C198.727 168.094 187.775 171.271 187.004 180.832C186.232 190.393 200.361 213.231 200.361 213.231L204.624 211.465C204.624 211.465 189.978 184.892 198.727 168.094Z" fill="#9ED6BE"/>
<path opacity="0.46" d="M198.727 168.094C198.727 168.094 187.775 171.271 187.004 180.832C186.232 190.393 200.361 213.231 200.361 213.231L204.624 211.465C204.624 211.465 189.978 184.892 198.727 168.094Z" fill="white"/>
<path d="M215.119 168.094C215.119 168.094 226.071 171.25 226.842 180.832C227.614 190.414 213.485 213.231 213.485 213.231L209.222 211.465C209.222 211.465 223.868 184.892 215.119 168.094Z" fill="#9ED6BE"/>
<path opacity="0.46" d="M215.119 168.094C215.119 168.094 226.071 171.25 226.842 180.832C227.614 190.414 213.485 213.231 213.485 213.231L209.222 211.465C209.222 211.465 223.868 184.892 215.119 168.094Z" fill="white"/>
<path d="M201.173 212.885C201.173 212.885 204.929 218.711 207.497 217.524C210.064 216.336 204.624 211.434 204.624 211.434L201.173 212.885Z" fill="#F4A28C"/>
<path d="M209.222 211.465C209.222 211.465 204.36 217.179 207.923 217.697C211.485 218.215 212.714 212.906 212.714 212.906L209.669 211.648L209.222 211.465Z" fill="#F4A28C"/>
<path d="M288.899 110.289C289.671 108.752 290.793 107.418 292.176 106.395C293.558 105.372 295.162 104.688 296.858 104.399C298.554 104.111 300.293 104.225 301.937 104.734C303.58 105.242 305.08 106.13 306.317 107.326C312.184 112.918 319.512 122.906 323.359 139.704C330.271 170.286 290.574 203.111 290.574 203.111C290.574 203.111 285.722 212.104 280.526 210.023C275.329 207.943 285.448 198.676 285.448 198.676C285.448 198.676 303.921 181.877 301.201 157.761C298.989 138.171 282.271 123.708 288.899 110.289Z" fill="#F4A28C"/>
<path d="M202.574 252.47C200.874 252.912 199.256 253.625 197.783 254.581C197.475 254.824 197.251 255.156 197.141 255.533C197.031 255.909 197.04 256.31 197.169 256.681C197.297 257.051 197.537 257.373 197.857 257.6C198.176 257.828 198.558 257.95 198.95 257.951H213.475C213.748 257.953 214.017 257.881 214.253 257.744C214.489 257.606 214.684 257.407 214.817 257.169C214.949 256.93 215.016 256.66 215.008 256.387C215.001 256.113 214.92 255.847 214.774 255.616C213.898 254.466 212.721 253.581 211.374 253.058C210.1 252.478 208.714 252.184 207.314 252.196H204.502C203.85 252.195 203.2 252.287 202.574 252.47Z" fill="#9ED6BE"/>
</svg>
