<svg width="406" height="306" viewBox="0 0 406 306" fill="none" xmlns="http://www.w3.org/2000/svg">
<path opacity="0.3" d="M103.682 68.674C79.4439 87.6647 65.1121 122.52 67.3553 158.918C68.5225 177.523 73.8208 195.59 88.112 205.283C126.398 231.257 293.254 231.064 316 185.673C339.426 138.922 331.377 73.8302 278.11 46.4252C231.948 22.7554 166.297 19.6292 103.682 68.674Z" fill="#E6E6E6"/>
<path d="M266.843 143.864L292.218 142.575C292.218 142.575 296.38 138.789 299.902 138.789C303.424 138.789 304.713 147.132 294.776 148.411C294.776 148.411 280.018 160.591 257.221 156.115C234.424 151.639 238.911 139.408 266.843 143.864Z" fill="#F4A28C"/>
<path opacity="0.45" d="M209.151 294.683C278.129 294.683 334.047 286.881 334.047 277.256C334.047 267.631 278.129 259.828 209.151 259.828C140.173 259.828 84.2551 267.631 84.2551 277.256C84.2551 286.881 140.173 294.683 209.151 294.683Z" fill="#E6E6E6"/>
<path d="M163.709 185.824L179.655 273.835L185.654 274.353L187.146 187.864L163.709 185.824Z" fill="#F4A28C"/>
<path d="M190.891 193.388L262.063 247.558L266.844 243.894L209.557 179.076L190.891 193.388Z" fill="#F4A28C"/>
<path d="M132.945 61.8335L122.46 43.8477L116.979 47.116L128.844 75.3939L138.04 69.8114L132.945 61.8335Z" fill="#F4A28C"/>
<path d="M209.496 160.632C207.907 158.856 206.986 156.582 206.89 154.201C206.794 151.819 207.528 149.479 208.968 147.579L214.155 140.748C231.593 169.635 272.264 164.347 272.264 164.347L275.065 137.358C260.855 140.992 234.221 128.223 230.831 112.998C227.441 97.7734 202.777 93.419 202.777 93.419L194.464 88.6079C176.295 82.6702 167.374 92.0792 163.09 104.706C163.09 104.706 151.326 134.587 153.468 150.188C155.61 165.789 158.98 243.832 158.98 243.832L254.4 210.855L209.496 160.632Z" fill="#24285B"/>
<path d="M179.533 272.517C179.533 272.517 176.904 277.267 172.621 277.744C168.338 278.221 168.703 284.331 175.422 282.596C177.507 282.067 179.545 281.364 181.512 280.495C183.343 279.746 185.339 279.493 187.298 279.764C187.676 279.787 188.053 279.695 188.377 279.499C188.702 279.303 188.959 279.013 189.115 278.668C190.688 276.079 185.055 271.613 185.055 271.613L179.533 272.517Z" fill="#9ED6BE"/>
<path d="M261.779 247.446C261.779 247.446 265.483 251.415 264.621 255.627C263.758 259.84 269.696 261.393 270.102 254.47C270.248 252.316 270.211 250.153 269.99 248.005C269.846 246.031 270.22 244.054 271.076 242.27C271.207 241.922 271.232 241.544 271.147 241.182C271.062 240.821 270.871 240.493 270.599 240.24C268.569 237.946 263.666 240.341 263.666 240.341L261.779 247.446Z" fill="#9ED6BE"/>
<path d="M189.46 88.7513C189.46 88.7513 147.429 83.7981 136.964 58.4941L111.802 79.1291C111.802 79.1291 143.937 114.766 176.519 110.462L189.46 88.7513Z" fill="#24285B"/>
<path d="M202.32 73.3735C200.742 75.1255 199.407 77.0817 198.351 79.1895C198.142 79.7081 198.145 80.2882 198.36 80.8047C198.574 81.3211 198.983 81.7326 199.498 81.9503C200.313 82.3468 201.225 82.5003 202.125 82.3923C203.025 82.2843 203.875 81.9194 204.573 81.3413L207.811 79.159C208.415 78.6511 208.847 77.9684 209.047 77.205C209.247 76.4415 209.205 75.6349 208.928 74.896C208.075 72.1149 203.954 71.3638 202.32 73.3735Z" fill="#F4A28C"/>
<path d="M206.573 79.5742L202.726 93.4493L194.586 89.2269L201.051 81.1272L206.573 79.5742Z" fill="#F4A28C"/>
<path d="M196.017 87.4414C196.017 87.4414 185.248 85.5941 179.279 86.5076C173.311 87.4211 155.061 101.337 175.037 115.689C195.012 130.041 216.997 130.457 230.78 113.03C230.78 113.03 229.765 103.895 219.615 98.6977C209.465 93.5009 196.017 87.4414 196.017 87.4414Z" fill="#9ED6BE"/>
<path opacity="0.08" d="M200.584 89.5215C200.584 89.5215 194.393 95.6115 201.224 101.509C208.055 107.406 211.374 100.961 213.404 109.527C215.434 118.094 228.822 107.497 228.822 107.497C228.822 107.497 225.706 102.057 221.808 99.9354L200.584 89.5215Z" fill="black"/>
<path d="M203.731 78.9862C203.731 78.9862 204.746 77.6971 205.639 78.5396C206.532 79.382 205.091 81.2395 203.609 80.4173L203.731 78.9862Z" fill="#F4A28C"/>
<path d="M202.32 73.373C203.634 74.7146 204.41 76.4913 204.502 78.3668C204.573 81.4118 198.311 91.5618 202.898 94.0384C207.486 96.515 210.826 93.5715 213.921 99.1134C217.017 104.655 224.366 99.692 225.391 94.8707C226.416 90.0495 224.701 86.8319 218.743 85.1166C212.785 83.4012 214.033 74.9666 214.033 74.9666L202.32 73.373Z" fill="#FFD200"/>
<path d="M200.188 76.2148L198.26 76.8035C198.152 76.8349 198.053 76.8928 197.973 76.9718C197.892 77.0508 197.833 77.1485 197.799 77.2562C197.766 77.3639 197.76 77.4782 197.782 77.5887C197.804 77.6993 197.853 77.8027 197.925 77.8896L199.031 79.1076L200.188 76.2148Z" fill="#F4A28C"/>
<path opacity="0.31" d="M200.209 82.2246C201.257 82.5528 202.371 82.6087 203.447 82.387C203.447 82.387 202.036 84.7723 198.291 84.5896L200.209 82.2246Z" fill="#CE8172"/>
<path d="M195.479 64.6944L213.536 62.5527L225.675 76.2857L209.151 80.6197L202.32 73.3726L195.479 64.6944Z" fill="#24285B"/>
<path d="M222.884 76.2148C222.884 76.2148 221.707 84.7611 230.781 84.5987C239.855 84.4363 242.961 91.1658 242.961 91.1658" stroke="#24285B" stroke-width="1.015" stroke-miterlimit="10"/>
<path d="M242.717 92.8921C244.18 92.8921 245.366 91.706 245.366 90.2429C245.366 88.7798 244.18 87.5938 242.717 87.5938C241.254 87.5938 240.068 88.7798 240.068 90.2429C240.068 91.706 241.254 92.8921 242.717 92.8921Z" fill="#9ED6BE"/>
<path d="M126.502 23.0955L96.583 44.1777L100.681 49.994L130.601 28.9117L126.502 23.0955Z" fill="#FFD200"/>
<path d="M110.828 32.1035L120.318 38.3255L115.355 41.8374L106.453 35.1891L110.828 32.1035Z" fill="#24285B"/>
<path d="M158.31 230.18L242.92 197.984L254.4 210.814L158.929 243.852L158.31 230.18Z" fill="#9ED6BE"/>
<path opacity="0.08" d="M235.338 217.412C235.338 217.412 192.637 176.385 195.479 154.583C198.321 132.781 211.404 126.356 218.976 131.634C226.548 136.912 229.623 153.588 273.187 155.344L272.264 164.347C272.264 164.347 232.212 169.575 214.155 140.749L208.968 147.58C207.554 149.489 206.835 151.825 206.931 154.199C207.027 156.573 207.932 158.843 209.496 160.632L254.4 210.855L235.338 217.412Z" fill="black"/>
<path d="M122.46 43.846C122.46 43.846 121.272 36.741 116.979 34.508C112.685 32.275 107.925 39.583 116.979 47.1143L122.46 43.846Z" fill="#F4A28C"/>
<path d="M351.626 40.5576C353.841 40.5576 355.636 38.7626 355.636 36.5483C355.636 34.3341 353.841 32.5391 351.626 32.5391C349.412 32.5391 347.617 34.3341 347.617 36.5483C347.617 38.7626 349.412 40.5576 351.626 40.5576Z" fill="#C9C9C9"/>
<path d="M281.906 93.5302C284.12 93.5302 285.915 91.7352 285.915 89.521C285.915 87.3067 284.12 85.5117 281.906 85.5117C279.692 85.5117 277.897 87.3067 277.897 89.521C277.897 91.7352 279.692 93.5302 281.906 93.5302Z" fill="#C9C9C9"/>
<path d="M122.46 189.925C124.674 189.925 126.469 188.13 126.469 185.915C126.469 183.701 124.674 181.906 122.46 181.906C120.245 181.906 118.45 183.701 118.45 185.915C118.45 188.13 120.245 189.925 122.46 189.925Z" fill="#C9C9C9"/>
<path d="M43.9292 160.542C46.1434 160.542 47.9384 158.747 47.9384 156.533C47.9384 154.318 46.1434 152.523 43.9292 152.523C41.7149 152.523 39.9199 154.318 39.9199 156.533C39.9199 158.747 41.7149 160.542 43.9292 160.542Z" fill="#C9C9C9"/>
<path d="M328.444 245.415C330.658 245.415 332.453 243.62 332.453 241.406C332.453 239.191 330.658 237.396 328.444 237.396C326.23 237.396 324.435 239.191 324.435 241.406C324.435 243.62 326.23 245.415 328.444 245.415Z" fill="#C9C9C9"/>
<path opacity="0.36" d="M54.0588 35.5654C56.2731 35.5654 58.0681 33.7704 58.0681 31.5561C58.0681 29.3419 56.2731 27.5469 54.0588 27.5469C51.8446 27.5469 50.0496 29.3419 50.0496 31.5561C50.0496 33.7704 51.8446 35.5654 54.0588 35.5654Z" fill="#C9C9C9"/>
<path opacity="0.36" d="M206.573 18.5029C208.787 18.5029 210.582 16.7079 210.582 14.4936C210.582 12.2794 208.787 10.4844 206.573 10.4844C204.358 10.4844 202.563 12.2794 202.563 14.4936C202.563 16.7079 204.358 18.5029 206.573 18.5029Z" fill="#C9C9C9"/>
<path opacity="0.36" d="M111.802 115.485C114.016 115.485 115.811 113.69 115.811 111.476C115.811 109.262 114.016 107.467 111.802 107.467C109.588 107.467 107.793 109.262 107.793 111.476C107.793 113.69 109.588 115.485 111.802 115.485Z" fill="#C9C9C9"/>
<path opacity="0.36" d="M77.1501 251.313C79.3644 251.313 81.1594 249.518 81.1594 247.304C81.1594 245.09 79.3644 243.295 77.1501 243.295C74.9359 243.295 73.1409 245.09 73.1409 247.304C73.1409 249.518 74.9359 251.313 77.1501 251.313Z" fill="#C9C9C9"/>
<path opacity="0.36" d="M367.714 142.778C369.928 142.778 371.723 140.983 371.723 138.769C371.723 136.555 369.928 134.76 367.714 134.76C365.5 134.76 363.705 136.555 363.705 138.769C363.705 140.983 365.5 142.778 367.714 142.778Z" fill="#C9C9C9"/>
</svg>
