<svg id="Layer_1" data-name="Layer 1" xmlns="http://www.w3.org/2000/svg" viewBox="0 0 400 300" width="406" height="306" class="illustration styles_illustrationTablet__1DWOa"><title>#97_graduation_twocolour</title><path d="M102.15,66.92c-23.88,18.71-38,53.05-35.79,88.91,1.15,18.33,6.37,36.13,20.45,45.68,37.72,25.59,202.11,25.4,224.52-19.32C334.41,136.13,326.48,72,274,45,228.52,21.68,163.84,18.6,102.15,66.92Z" fill="#e6e6e6" opacity="0.3"></path><path d="M262.9,141l25-1.27S292,136,295.47,136s4.74,8.22-5.05,9.48c0,0-14.54,12-37,7.59S235.38,136.61,262.9,141Z" fill="#f4a28c"></path><ellipse cx="206.06" cy="272.42" rx="123.05" ry="17.17" fill="#e6e6e6" opacity="0.45"></ellipse><polygon points="161.29 182.34 177 269.05 182.91 269.56 184.38 184.35 161.29 182.34" fill="#f4a28c"></polygon><polygon points="188.07 189.79 258.19 243.16 262.9 239.55 206.46 175.69 188.07 189.79" fill="#f4a28c"></polygon><polygon points="130.98 60.18 120.65 42.46 115.25 45.68 126.94 73.54 136 68.04 130.98 60.18" fill="#f4a28c"></polygon><path d="M206.4,157.52a10.12,10.12,0,0,1-.52-12.86h0l5.11-6.73c17.18,28.46,57.25,23.25,57.25,23.25L271,134.59c-14,3.58-40.24-9-43.58-24s-27.64-19.29-27.64-19.29l-8.19-4.74c-17.9-5.85-26.69,3.42-30.91,15.86h0s-11.59,29.44-9.48,44.81,5.43,92.26,5.43,92.26L250.64,207Z" fill="#24285b"></path><path d="M176.88,267.75s-2.59,4.68-6.81,5.15-3.86,6.49,2.76,4.78a37.92,37.92,0,0,0,6-2.07,11.06,11.06,0,0,1,5.7-.72,1.84,1.84,0,0,0,1.79-1.08c1.55-2.55-4-6.95-4-6.95Z" fill="#68e1fd"></path><path d="M257.91,243.05s3.65,3.91,2.8,8.06,5,5.68,5.4-1.14a37.48,37.48,0,0,0-.11-6.37,11.18,11.18,0,0,1,1.07-5.65,1.84,1.84,0,0,0-.47-2c-2-2.26-6.83.1-6.83.1Z" fill="#68e1fd"></path><path d="M186.66,86.7s-41.41-4.88-51.72-29.81L110.15,77.22s31.66,35.11,63.76,30.87Z" fill="#24285b"></path><path d="M199.33,71.55a25.9,25.9,0,0,0-3.91,5.73A2.1,2.1,0,0,0,196.55,80a4.65,4.65,0,0,0,5-.6l3.19-2.15a3.76,3.76,0,0,0,1.1-4.2C205,70.31,200.94,69.57,199.33,71.55Z" fill="#f4a28c"></path><polygon points="203.52 77.66 199.73 91.33 191.71 87.17 198.08 79.19 203.52 77.66" fill="#f4a28c"></polygon><path d="M193.12,85.41s-10.61-1.82-16.49-.92-23.86,14.61-4.18,28.75,41.34,14.55,54.92-2.62c0,0-1-9-11-14.12S193.12,85.41,193.12,85.41Z" fill="#68e1fd"></path><path d="M197.62,87.46s-6.1,6,.63,11.81,10-.54,12,7.9,15.19-2,15.19-2-3.07-5.36-6.91-7.45Z" opacity="0.08"></path><path d="M200.72,77.08s1-1.27,1.88-.44-.54,2.66-2,1.85Z" fill="#f4a28c"></path><path d="M199.33,71.55a7.56,7.56,0,0,1,2.15,4.92c.07,3-6.1,13-1.58,15.44s7.81-.46,10.86,5,10.29.57,11.3-4.18-.68-7.92-6.55-9.61-4.64-10-4.64-10Z" fill="#ffd200"></path><path d="M197.23,74.35l-1.9.58A.67.67,0,0,0,195,76l1.09,1.2Z" fill="#f4a28c"></path><path d="M197.25,80.27a6.37,6.37,0,0,0,3.19.16s-1.39,2.35-5.08,2.17Z" fill="#ce8172" opacity="0.31"></path><polygon points="192.59 63 210.38 60.89 222.34 74.42 206.06 78.69 199.33 71.55 192.59 63" fill="#24285b"></polygon><path d="M219.59,74.35s-1.16,8.42,7.78,8.26,12,6.47,12,6.47" fill="none" stroke="#24285b" stroke-miterlimit="10"></path><circle cx="239.13" cy="88.17" r="2.61" fill="#68e1fd"></circle><rect x="93.88" y="31.76" width="36.06" height="7.01" transform="translate(0.12 70.9) rotate(-35.17)" fill="#ffd200"></rect><polygon points="109.19 30.89 118.54 37.02 113.65 40.48 104.88 33.93 109.19 30.89" fill="#24285b"></polygon><polygon points="155.97 226.04 239.33 194.32 250.64 206.96 156.58 239.51 155.97 226.04" fill="#68e1fd"></polygon><path d="M231.86,213.46s-42.07-40.42-39.27-61.9,15.69-27.81,23.15-22.61,10.49,21.63,53.41,23.36l-.91,8.87s-39.46,5.15-57.25-23.25l-5.11,6.73a10.26,10.26,0,0,0,.52,12.86L250.64,207Z" opacity="0.08"></path><path d="M120.65,42.46s-1.17-7-5.4-9.2-8.92,5,0,12.42Z" fill="#f4a28c"></path><circle cx="346.43" cy="35.27" r="3.95" fill="#c9c9c9"></circle><circle cx="277.74" cy="87.46" r="3.95" fill="#c9c9c9"></circle><circle cx="120.65" cy="182.43" r="3.95" fill="#c9c9c9"></circle><circle cx="43.28" cy="153.48" r="3.95" fill="#c9c9c9"></circle><circle cx="323.59" cy="237.1" r="3.95" fill="#c9c9c9"></circle><circle cx="53.26" cy="30.35" r="3.95" fill="#c9c9c9" opacity="0.36"></circle><circle cx="203.52" cy="13.54" r="3.95" fill="#c9c9c9" opacity="0.36"></circle><circle cx="110.15" cy="109.09" r="3.95" fill="#c9c9c9" opacity="0.36"></circle><circle cx="76.01" cy="242.91" r="3.95" fill="#c9c9c9" opacity="0.36"></circle><circle cx="362.28" cy="135.98" r="3.95" fill="#c9c9c9" opacity="0.36"></circle></svg>