<svg width="406" height="306" viewBox="0 0 406 306" fill="none" xmlns="http://www.w3.org/2000/svg">
<path opacity="0.3" d="M103.682 68.6701C79.4441 87.6608 65.1123 122.516 67.3554 158.914C68.5227 177.519 73.8209 195.586 88.1121 205.279C126.398 231.253 293.254 231.06 316 185.669C339.426 138.918 331.377 73.8263 278.11 46.4213C231.948 22.7515 166.298 19.6253 103.682 68.6701Z" fill="#E6E6E6"/>
<path d="M266.844 143.864L292.219 142.575C292.219 142.575 296.38 138.789 299.902 138.789C303.424 138.789 304.713 147.132 294.776 148.411C294.776 148.411 280.018 160.591 257.221 156.115C234.424 151.639 238.911 139.408 266.844 143.864Z" fill="#F4A28C"/>
<path opacity="0.45" d="M209.151 294.683C278.129 294.683 334.047 286.881 334.047 277.256C334.047 267.631 278.129 259.828 209.151 259.828C140.173 259.828 84.2551 267.631 84.2551 277.256C84.2551 286.881 140.173 294.683 209.151 294.683Z" fill="#E6E6E6"/>
<path d="M163.709 185.828L179.655 273.839L185.654 274.356L187.146 187.868L163.709 185.828Z" fill="#F4A28C"/>
<path d="M190.891 193.39L262.063 247.56L266.844 243.896L209.557 179.078L190.891 193.39Z" fill="#F4A28C"/>
<path d="M132.945 61.8296L122.46 43.8438L116.979 47.1121L128.844 75.39L138.04 69.8075L132.945 61.8296Z" fill="#F4A28C"/>
<path d="M209.496 160.636C207.907 158.86 206.986 156.586 206.89 154.205C206.793 151.823 207.528 149.482 208.968 147.583L214.155 140.752C231.593 169.639 272.264 164.351 272.264 164.351L275.065 137.362C260.855 140.996 234.221 128.227 230.831 113.002C227.441 97.7773 202.777 93.4229 202.777 93.4229L194.464 88.6118C176.295 82.6741 167.373 92.0831 163.09 104.71C163.09 104.71 151.326 134.591 153.468 150.192C155.61 165.792 158.979 243.836 158.979 243.836L254.4 210.858L209.496 160.636Z" fill="#24285B"/>
<path d="M179.533 272.513C179.533 272.513 176.904 277.263 172.621 277.74C168.338 278.217 168.703 284.327 175.422 282.592C177.508 282.063 179.545 281.36 181.512 280.491C183.343 279.742 185.339 279.49 187.298 279.76C187.676 279.783 188.053 279.691 188.377 279.495C188.702 279.299 188.959 279.009 189.115 278.664C190.688 276.075 185.055 271.609 185.055 271.609L179.533 272.513Z" fill="#9ED6BE"/>
<path d="M261.779 247.443C261.779 247.443 265.483 251.411 264.621 255.623C263.758 259.836 269.696 261.389 270.102 254.466C270.248 252.312 270.211 250.149 269.99 248.001C269.846 246.027 270.22 244.05 271.076 242.266C271.207 241.919 271.232 241.54 271.147 241.178C271.062 240.817 270.871 240.489 270.599 240.236C268.569 237.942 263.667 240.338 263.667 240.338L261.779 247.443Z" fill="#9ED6BE"/>
<path d="M189.46 88.7493C189.46 88.7493 147.429 83.7961 136.964 58.4922L111.802 79.1271C111.802 79.1271 143.937 114.764 176.519 110.46L189.46 88.7493Z" fill="#24285B"/>
<path d="M202.32 73.3696C200.742 75.1216 199.407 77.0778 198.351 79.1856C198.142 79.7042 198.145 80.2843 198.36 80.8008C198.574 81.3172 198.983 81.7287 199.498 81.9464C200.313 82.3429 201.225 82.4964 202.125 82.3884C203.025 82.2804 203.875 81.9155 204.573 81.3374L207.811 79.1551C208.415 78.6472 208.847 77.9645 209.047 77.2011C209.247 76.4376 209.205 75.6309 208.928 74.8921C208.075 72.111 203.954 71.3599 202.32 73.3696Z" fill="#F4A28C"/>
<path d="M206.573 79.5781L202.726 93.4532L194.586 89.2308L201.051 81.1311L206.573 79.5781Z" fill="#F4A28C"/>
<path d="M196.017 87.4375C196.017 87.4375 185.248 85.5902 179.279 86.5037C173.311 87.4172 155.061 101.333 175.037 115.685C195.012 130.037 216.997 130.453 230.78 113.026C230.78 113.026 229.765 103.891 219.615 98.6938C209.465 93.497 196.017 87.4375 196.017 87.4375Z" fill="#9ED6BE"/>
<path opacity="0.08" d="M200.584 89.5234C200.584 89.5234 194.393 95.6134 201.224 101.511C208.055 107.408 211.374 100.962 213.404 109.529C215.434 118.096 228.822 107.499 228.822 107.499C228.822 107.499 225.706 102.059 221.808 99.9373L200.584 89.5234Z" fill="black"/>
<path d="M203.731 78.9901C203.731 78.9901 204.746 77.701 205.639 78.5435C206.532 79.3859 205.091 81.2434 203.609 80.4212L203.731 78.9901Z" fill="#F4A28C"/>
<path d="M202.32 73.375C203.634 74.7165 204.41 76.4933 204.502 78.3688C204.573 81.4138 198.311 91.5638 202.898 94.0404C207.486 96.517 210.826 93.5735 213.921 99.1154C217.017 104.657 224.366 99.694 225.391 94.8727C226.416 90.0515 224.701 86.8339 218.743 85.1185C212.785 83.4032 214.033 74.9685 214.033 74.9685L202.32 73.375Z" fill="#FFD200"/>
<path d="M200.188 76.2188L198.26 76.8075C198.152 76.8389 198.053 76.8967 197.973 76.9757C197.892 77.0547 197.833 77.1525 197.8 77.2601C197.766 77.3678 197.76 77.4821 197.782 77.5927C197.804 77.7032 197.853 77.8066 197.925 77.8935L199.031 79.1115L200.188 76.2188Z" fill="#F4A28C"/>
<path opacity="0.31" d="M200.209 82.2266C201.257 82.5548 202.371 82.6107 203.447 82.389C203.447 82.389 202.036 84.7742 198.29 84.5915L200.209 82.2266Z" fill="#CE8172"/>
<path d="M195.479 64.6963L213.536 62.5547L225.675 76.2876L209.151 80.6217L202.32 73.3746L195.479 64.6963Z" fill="#24285B"/>
<path d="M222.884 76.2188C222.884 76.2188 221.706 84.7651 230.781 84.6027C239.855 84.4403 242.961 91.1697 242.961 91.1697" stroke="#24285B" stroke-width="1.015" stroke-miterlimit="10"/>
<path d="M242.717 92.8921C244.18 92.8921 245.366 91.706 245.366 90.2429C245.366 88.7798 244.18 87.5938 242.717 87.5938C241.254 87.5938 240.068 88.7798 240.068 90.2429C240.068 91.706 241.254 92.8921 242.717 92.8921Z" fill="#9ED6BE"/>
<path d="M126.502 23.0974L96.5831 44.1797L100.681 49.9959L130.601 28.9137L126.502 23.0974Z" fill="#FFD200"/>
<path d="M110.828 32.1016L120.318 38.3235L115.355 41.8354L106.453 35.1872L110.828 32.1016Z" fill="#24285B"/>
<path d="M158.31 230.18L242.92 197.984L254.4 210.814L158.929 243.852L158.31 230.18Z" fill="#9ED6BE"/>
<path opacity="0.08" d="M235.338 217.414C235.338 217.414 192.637 176.387 195.479 154.585C198.321 132.783 211.404 126.358 218.976 131.636C226.548 136.914 229.623 153.59 273.187 155.346L272.264 164.349C272.264 164.349 232.212 169.577 214.155 140.751L208.968 147.582C207.554 149.491 206.835 151.827 206.931 154.201C207.027 156.575 207.932 158.845 209.496 160.634L254.4 210.857L235.338 217.414Z" fill="black"/>
<path d="M122.46 43.8479C122.46 43.8479 121.272 36.7429 116.979 34.5099C112.685 32.2769 107.925 39.5849 116.979 47.1162L122.46 43.8479Z" fill="#F4A28C"/>
<path d="M351.626 40.5576C353.841 40.5576 355.636 38.7626 355.636 36.5483C355.636 34.3341 353.841 32.5391 351.626 32.5391C349.412 32.5391 347.617 34.3341 347.617 36.5483C347.617 38.7626 349.412 40.5576 351.626 40.5576Z" fill="#C9C9C9"/>
<path d="M281.906 93.5341C284.12 93.5341 285.915 91.7391 285.915 89.5249C285.915 87.3106 284.12 85.5156 281.906 85.5156C279.692 85.5156 277.897 87.3106 277.897 89.5249C277.897 91.7391 279.692 93.5341 281.906 93.5341Z" fill="#C9C9C9"/>
<path d="M122.46 189.925C124.674 189.925 126.469 188.13 126.469 185.915C126.469 183.701 124.674 181.906 122.46 181.906C120.245 181.906 118.45 183.701 118.45 185.915C118.45 188.13 120.245 189.925 122.46 189.925Z" fill="#C9C9C9"/>
<path d="M43.9292 160.542C46.1434 160.542 47.9384 158.747 47.9384 156.533C47.9384 154.318 46.1434 152.523 43.9292 152.523C41.7149 152.523 39.9199 154.318 39.9199 156.533C39.9199 158.747 41.7149 160.542 43.9292 160.542Z" fill="#C9C9C9"/>
<path d="M328.444 245.417C330.658 245.417 332.453 243.622 332.453 241.408C332.453 239.193 330.658 237.398 328.444 237.398C326.23 237.398 324.435 239.193 324.435 241.408C324.435 243.622 326.23 245.417 328.444 245.417Z" fill="#C9C9C9"/>
<path opacity="0.36" d="M54.0589 35.5654C56.2732 35.5654 58.0682 33.7704 58.0682 31.5561C58.0682 29.3419 56.2732 27.5469 54.0589 27.5469C51.8447 27.5469 50.0497 29.3419 50.0497 31.5561C50.0497 33.7704 51.8447 35.5654 54.0589 35.5654Z" fill="#C9C9C9"/>
<path opacity="0.36" d="M206.573 18.5029C208.787 18.5029 210.582 16.7079 210.582 14.4936C210.582 12.2794 208.787 10.4844 206.573 10.4844C204.359 10.4844 202.564 12.2794 202.564 14.4936C202.564 16.7079 204.359 18.5029 206.573 18.5029Z" fill="#C9C9C9"/>
<path opacity="0.36" d="M111.802 115.487C114.016 115.487 115.811 113.692 115.811 111.478C115.811 109.264 114.016 107.469 111.802 107.469C109.588 107.469 107.793 109.264 107.793 111.478C107.793 113.692 109.588 115.487 111.802 115.487Z" fill="#C9C9C9"/>
<path opacity="0.36" d="M77.1501 251.315C79.3644 251.315 81.1594 249.52 81.1594 247.306C81.1594 245.092 79.3644 243.297 77.1501 243.297C74.9359 243.297 73.1409 245.092 73.1409 247.306C73.1409 249.52 74.9359 251.315 77.1501 251.315Z" fill="#C9C9C9"/>
<path opacity="0.36" d="M367.714 142.776C369.928 142.776 371.723 140.981 371.723 138.767C371.723 136.553 369.928 134.758 367.714 134.758C365.5 134.758 363.705 136.553 363.705 138.767C363.705 140.981 365.5 142.776 367.714 142.776Z" fill="#C9C9C9"/>
</svg>
