<svg id="Layer_1" data-name="Layer 1" xmlns="http://www.w3.org/2000/svg" viewBox="0 0 400 300" width="406" height="306" class="illustration styles_illustrationTablet__1DWOa"><title>_</title><path d="M250,48.09l-1-3a1.32,1.32,0,0,0-2.53.77l-10.23,2.74L236,45.58l-19.4-1.3-.41,2.15a8.31,8.31,0,0,0-2.47-1.49c-1.64-.61-3.68-.79-5.05.51a4.6,4.6,0,0,0-1.25,5.15A11.34,11.34,0,0,0,211,54.4a8.33,8.33,0,0,0,3.49,1.18l-.61,3.22,22.92,1.53-.21-4,11.09-7a1.32,1.32,0,0,0,2.3-1.24Zm-37.26,4.63a8.06,8.06,0,0,1-2.7-2.38,2.22,2.22,0,0,1-.65-1.38,2.85,2.85,0,0,1,.65-1.55,1.42,1.42,0,0,1,1.11-.64,3.86,3.86,0,0,1,1.66.29,5.84,5.84,0,0,1,2.89,2.16l-.76,4.08A6.14,6.14,0,0,1,212.73,52.72Z" fill="#ffd200"></path><path d="M118.76,111.51s-32.34,40.41-48.34,43.82-10.21,9.91-5.11,10.4,43.11-11.08,62.41-30.83Z" fill="#f4a28c"></path><path d="M118.76,111.51s-32.34,40.41-48.34,43.82-10.21,9.91-5.11,10.4,43.11-11.08,62.41-30.83Z" opacity="0.08"></path><ellipse cx="200" cy="244.39" rx="140.05" ry="11.38" fill="#e6e6e6" opacity="0.45"></ellipse><path d="M136.45,168.22l-8.86,28.32a29.06,29.06,0,0,1-15.26,17.56l-13,6.19.52,3.84,19.45-4.2a34.23,34.23,0,0,0,21.09-17.88l13.74-28.29Z" fill="#f4a28c"></path><polygon points="165.79 176.21 169.96 236.86 166.09 238.2 150.69 181.46 165.79 176.21" fill="#f4a28c"></polygon><path d="M170.75,237.9s.84,3.59,3.54,4.71,1.34,5-2.73,2.65a25.83,25.83,0,0,1-3.61-2.52,7.63,7.63,0,0,0-3.64-1.56,1.26,1.26,0,0,1-1-1.05c-.54-2,4-3.86,4-3.86Z" fill="#68e1fd"></path><path d="M99.84,224.13s-2.75,2.1-2.66,4.83-3.79,3.08-3.31-1.31a24.35,24.35,0,0,1,.76-4.05,7.19,7.19,0,0,0-.07-3.71,1.19,1.19,0,0,1,.52-1.25c1.49-1.22,4.82,1.9,4.82,1.9Z" fill="#68e1fd"></path><polygon points="142.59 88.3 144.03 94.13 139.3 96.63 138.47 86.65 142.59 88.3" fill="#f4a28c"></polygon><path d="M137.36,81a3.56,3.56,0,0,1,5.94-.52c1.75,2.2,3.8,5.64,1,7.2-4.22,2.39-7.48-3-7.48-3A6.44,6.44,0,0,1,137.36,81Z" fill="#f4a28c"></path><path d="M164,101.84a35.16,35.16,0,0,0-40.42-.73c-5.33,3.63-9.43,9-7.55,16.9,4.4,18.4,18.5,30.53,18.94,46.72l33.39-2.24V141.65a14.26,14.26,0,0,1,4.54-10.51c2.92-2.68,5.81-7,3.83-13.06C175,112.75,170.41,106.55,164,101.84Z" fill="#68e1fd"></path><path d="M140,84.75s-1-.94-1.52.24,1.2,1.91,1.79,1.34S140,84.75,140,84.75Z" fill="#f4a28c"></path><path d="M147.47,110.51s-7.21,13.79,1.16,27.23-7.49,26.58-7.49,26.58l27.22-1.83V150.61Z" opacity="0.08"></path><path d="M133.57,102.26c.65-2.49,3.62-7-.57-15.19-.89-1.73-1.58-5.78.08-8.58,4-6.71,10.38-4.42,9.63-.66s-1.29,5.55-1.29,5.55,12.12,8.69,10.35,15.1C150.2,104.17,130.88,112.64,133.57,102.26Z" fill="#24285b"></path><polygon points="133.5 156.21 168.36 156.21 173.9 204.43 122.21 202.1 133.5 156.21" fill="#24285b"></polygon><path d="M148.86,120.32a9.8,9.8,0,0,1,1.43-13.86,51.11,51.11,0,0,1,6.39-4.24c13.29-7.61,35.38-24.43,44.67-47.63,0,0,2.19-8.48,8.66-8.18s4.24,8.34-2.21,8.26c0,0-5.26,50.34-43.94,69.07a12.45,12.45,0,0,1-15-3.42Z" fill="#f4a28c"></path><polygon points="285.16 84.76 267.16 64.87 249.16 84.76 262.84 84.76 262.84 220.2 272.06 220.2 272.06 84.76 285.16 84.76" fill="#e6e6e6"></polygon><polygon points="242.07 202.51 294.55 202.51 289.25 244.39 247.37 244.39 242.07 202.51" fill="#c9c9c9"></polygon><path d="M263.14,106.31a11.94,11.94,0,0,1-13,2.82c-8-2.93-16-13.44-16-13.44s12.9-2.87,20.91.07A11.94,11.94,0,0,1,263.14,106.31Z" fill="#e6e6e6"></path><path d="M263.14,106.31a11.94,11.94,0,0,1-13,2.82c-8-2.93-16-13.44-16-13.44S251.58,97.8,263.14,106.31Z" opacity="0.05"></path><path d="M263.14,133.78a11.94,11.94,0,0,1-13,2.82c-8-2.93-16-13.44-16-13.44s12.9-2.87,20.91.07A11.94,11.94,0,0,1,263.14,133.78Z" fill="#e6e6e6"></path><path d="M263.14,133.78a11.94,11.94,0,0,1-13,2.82c-8-2.93-16-13.44-16-13.44S251.58,125.27,263.14,133.78Z" opacity="0.05"></path><path d="M263.14,161.26a11.94,11.94,0,0,1-13,2.82c-8-2.93-16-13.44-16-13.44s12.9-2.87,20.91.07A11.94,11.94,0,0,1,263.14,161.26Z" fill="#e6e6e6"></path><path d="M263.14,161.26a11.94,11.94,0,0,1-13,2.82c-8-2.93-16-13.44-16-13.44S251.58,152.75,263.14,161.26Z" opacity="0.05"></path><path d="M263.14,188.74a11.94,11.94,0,0,1-13,2.82c-8-2.93-16-13.44-16-13.44s12.9-2.87,20.91.07A11.94,11.94,0,0,1,263.14,188.74Z" fill="#e6e6e6"></path><path d="M263.14,188.74a11.94,11.94,0,0,1-13,2.82c-8-2.93-16-13.44-16-13.44S251.58,180.23,263.14,188.74Z" opacity="0.05"></path><path d="M272.25,120.05a11.94,11.94,0,0,0,13,2.82c8-2.93,16-13.44,16-13.44s-12.9-2.87-20.91.07A11.94,11.94,0,0,0,272.25,120.05Z" fill="#e6e6e6"></path><path d="M272.25,120.05a11.94,11.94,0,0,0,13,2.82c8-2.93,16-13.44,16-13.44S283.81,111.54,272.25,120.05Z" opacity="0.05"></path><path d="M272.25,147.52a11.94,11.94,0,0,0,13,2.82c8-2.93,16-13.44,16-13.44s-12.9-2.87-20.91.07A11.94,11.94,0,0,0,272.25,147.52Z" fill="#e6e6e6"></path><path d="M272.25,147.52a11.94,11.94,0,0,0,13,2.82c8-2.93,16-13.44,16-13.44S283.81,139,272.25,147.52Z" opacity="0.05"></path><path d="M272.25,175a11.94,11.94,0,0,0,13,2.82c8-2.93,16-13.44,16-13.44s-12.9-2.87-20.91.07A11.94,11.94,0,0,0,272.25,175Z" fill="#e6e6e6"></path><path d="M272.25,175a11.94,11.94,0,0,0,13,2.82c8-2.93,16-13.44,16-13.44S283.81,166.49,272.25,175Z" opacity="0.05"></path><path d="M257.19,49a17.88,17.88,0,0,0-3.45-1.71.51.51,0,0,0-.62.35.52.52,0,0,0,.35.61,17.3,17.3,0,0,1,3.22,1.61.5.5,0,0,0,.5-.86Z" fill="#e6e6e6"></path><path d="M262.56,53a8.4,8.4,0,0,0-2.69-2.41.5.5,0,0,0-.68.18.49.49,0,0,0,.18.68c.24.14.48.29.7.45l.15.11.07,0,0,0,.32.27a5.29,5.29,0,0,1,.58.58,4.12,4.12,0,0,1,.28.31l.05.07,0,0,0,.05.08.1a.5.5,0,0,0,.68.18A.5.5,0,0,0,262.56,53Z" fill="#e6e6e6"></path><path d="M266,57.61a11.35,11.35,0,0,0-2-2.78.5.5,0,0,0-.71,0,.49.49,0,0,0,0,.7,7.7,7.7,0,0,1,.54.6l.13.16.06.08s.06.08,0,0l.05.06.06.08.12.17a10.38,10.38,0,0,1,.84,1.4.5.5,0,0,0,.86-.51Z" fill="#e6e6e6"></path><path d="M257.55,45.75a13.53,13.53,0,0,0-3.58-.52.51.51,0,0,0-.5.5.5.5,0,0,0,.5.5,12.07,12.07,0,0,1,3.32.49.5.5,0,0,0,.61-.35A.51.51,0,0,0,257.55,45.75Z" fill="#e6e6e6"></path><path d="M265.67,49.87a14.38,14.38,0,0,0-3.39-2.17.5.5,0,1,0-.51.87,13.13,13.13,0,0,1,3.19,2,.52.52,0,0,0,.71,0A.51.51,0,0,0,265.67,49.87Z" fill="#e6e6e6"></path><path d="M271,55.84a7.19,7.19,0,0,0-2.44-3,.49.49,0,0,0-.68.18.5.5,0,0,0,.18.68l.09.07,0,0,.16.13.33.29a7.45,7.45,0,0,1,.6.65l0,0,0,0,.14.19c.08.12.16.24.23.36a6.21,6.21,0,0,1,.42.81.51.51,0,0,0,.69.18A.5.5,0,0,0,271,55.84Z" fill="#e6e6e6"></path><path d="M273.87,62.73l-.75-1.8a.56.56,0,0,0-.23-.3.55.55,0,0,0-.38-.05.53.53,0,0,0-.3.23.49.49,0,0,0,0,.39l.75,1.79a.53.53,0,0,0,.23.3.51.51,0,0,0,.38.05.5.5,0,0,0,.35-.61Z" fill="#e6e6e6"></path><path d="M268,62.53a4,4,0,0,0-.68-1.56.5.5,0,0,0-.3-.23.51.51,0,0,0-.38,0,.5.5,0,0,0-.23.3.49.49,0,0,0,.05.39,3.29,3.29,0,0,1,.37.66,3,3,0,0,1,.2.66.51.51,0,0,0,.23.29.49.49,0,0,0,.39,0A.51.51,0,0,0,268,62.53Z" fill="#e6e6e6"></path><path d="M256.53,53a10.89,10.89,0,0,0-3.83-3,.5.5,0,1,0-.51.87,10.08,10.08,0,0,1,3.63,2.84.5.5,0,0,0,.71,0A.52.52,0,0,0,256.53,53Z" fill="#e6e6e6"></path><path d="M261.09,58.62a9.78,9.78,0,0,0-1.91-3,.48.48,0,0,0-.7,0,.5.5,0,0,0,0,.7l.27.31.12.15.06.08s.07.08,0,0,0,0,0,.05l.08.09a.91.91,0,0,0,.11.16l.23.35a7.69,7.69,0,0,1,.39.69c.06.12.12.23.17.35l.09.2h0s0,.07,0,.11a.5.5,0,0,0,1-.27Z" fill="#e6e6e6"></path><path d="M262.64,65.64l-.39-2.55a.5.5,0,0,0-.61-.35.5.5,0,0,0-.35.61c.13.85.25,1.7.38,2.55a.5.5,0,0,0,.62.35A.51.51,0,0,0,262.64,65.64Z" fill="#e6e6e6"></path></svg>