<svg width="406" height="306" viewBox="0 0 406 306" fill="none" xmlns="http://www.w3.org/2000/svg">
<path d="M253.75 49.5608L252.735 46.5158C252.631 46.1753 252.397 45.8899 252.083 45.7224C251.769 45.5548 251.401 45.519 251.06 45.6226C250.72 45.7262 250.434 45.9609 250.267 46.275C250.099 46.5891 250.063 46.9568 250.167 47.2974L239.784 50.0785L239.54 47.0132L219.849 45.6937L219.433 47.8759C218.692 47.2295 217.843 46.7177 216.926 46.3636C215.261 45.7444 213.191 45.5617 211.8 46.8812C211.075 47.5153 210.564 48.358 210.337 49.2938C210.11 50.2296 210.178 51.2127 210.531 52.1085C211.426 53.6592 212.67 54.9799 214.165 55.9655C215.242 56.6241 216.452 57.0333 217.707 57.1632L217.088 60.4315L240.352 61.9844L240.139 57.9244L251.395 50.8194C251.587 51.0783 251.866 51.2594 252.18 51.3295C252.495 51.3996 252.824 51.354 253.108 51.2011C253.391 51.0482 253.61 50.7982 253.724 50.4969C253.839 50.1957 253.841 49.8633 253.73 49.5608H253.75ZM215.931 54.2603C214.847 53.6719 213.91 52.8461 213.191 51.8446C212.812 51.4702 212.578 50.974 212.531 50.4439C212.588 49.865 212.818 49.3168 213.191 48.8706C213.314 48.6816 213.481 48.5243 213.677 48.4115C213.872 48.2987 214.092 48.2334 214.317 48.221C214.894 48.1938 215.469 48.2943 216.002 48.5154C217.187 48.9182 218.214 49.6857 218.936 50.7078L218.164 54.849C217.386 54.7948 216.625 54.5951 215.921 54.2603H215.931Z" fill="#FFD200"/>
<path d="M120.541 113.934C120.541 113.934 87.7162 154.95 71.4762 158.411C55.2362 161.872 61.113 168.47 66.2895 168.967C71.466 169.464 110.046 157.721 129.636 137.674L120.541 113.934Z" fill="#F4A28C"/>
<path opacity="0.08" d="M120.541 113.934C120.541 113.934 87.7162 154.95 71.4762 158.411C55.2362 161.872 61.113 168.47 66.2895 168.967C71.466 169.464 110.046 157.721 129.636 137.674L120.541 113.934Z" fill="black"/>
<path opacity="0.45" d="M203 260.357C281.508 260.357 345.151 255.186 345.151 248.807C345.151 242.427 281.508 237.256 203 237.256C124.492 237.256 60.8494 242.427 60.8494 248.807C60.8494 255.186 124.492 260.357 203 260.357Z" fill="#E6E6E6"/>
<path d="M138.497 171.494L129.504 200.239C128.289 204.116 126.286 207.701 123.621 210.768C120.956 213.835 117.685 216.319 114.015 218.062L100.82 224.345L101.348 228.243L121.09 223.98C125.724 222.61 130.021 220.288 133.707 217.163C137.393 214.038 140.386 210.179 142.496 205.832L156.442 177.117L138.497 171.494Z" fill="#F4A28C"/>
<path d="M168.277 179.604L172.509 241.163L168.581 242.523L152.95 184.932L168.277 179.604Z" fill="#F4A28C"/>
<path d="M173.311 242.219C173.311 242.219 174.164 245.863 176.904 247C179.645 248.136 178.264 252.075 174.133 249.689C172.841 248.943 171.616 248.087 170.469 247.132C169.399 246.288 168.124 245.742 166.775 245.548C166.516 245.497 166.28 245.367 166.098 245.176C165.917 244.985 165.798 244.743 165.76 244.482C165.212 242.452 169.82 240.564 169.82 240.564L173.311 242.219Z" fill="#9ED6BE"/>
<path d="M101.338 228.242C101.338 228.242 98.5464 230.374 98.6377 233.145C98.7291 235.916 94.7909 236.271 95.2781 231.815C95.4186 230.426 95.6767 229.05 96.0495 227.704C96.3557 226.465 96.3312 225.166 95.9784 223.939C95.927 223.699 95.95 223.449 96.0443 223.222C96.1386 222.995 96.2997 222.803 96.5062 222.67C98.0186 221.432 101.399 224.599 101.399 224.599L101.338 228.242Z" fill="#9ED6BE"/>
<path d="M144.729 90.374L146.191 96.2914L141.39 98.8289L140.547 88.6992L144.729 90.374Z" fill="#F4A28C"/>
<path d="M139.42 82.9648C139.704 82.4349 140.115 81.9839 140.616 81.6528C141.117 81.3217 141.693 81.1209 142.292 81.0685C142.891 81.0161 143.493 81.1138 144.044 81.3527C144.595 81.5917 145.078 81.9643 145.449 82.437C147.226 84.67 149.306 88.1616 146.464 89.745C142.181 92.1708 138.872 86.7 138.872 86.7C138.684 85.4281 138.874 84.1289 139.42 82.9648Z" fill="#F4A28C"/>
<path d="M166.46 104.118C160.529 99.7886 153.406 97.3943 146.064 97.2617C138.722 97.1291 131.518 99.2647 125.434 103.377C120.024 107.062 115.862 112.512 117.77 120.531C122.236 139.207 136.548 151.519 136.995 167.951L170.885 165.678V144.525C170.875 142.525 171.279 140.545 172.072 138.709C172.865 136.873 174.03 135.221 175.494 133.858C178.457 131.137 181.391 126.753 179.381 120.602C177.625 115.192 172.966 108.899 166.46 104.118Z" fill="#9ED6BE"/>
<path d="M142.1 86.7703C142.1 86.7703 141.085 85.8162 140.557 87.0139C140.029 88.2116 141.775 88.9525 142.374 88.374C142.973 87.7954 142.1 86.7703 142.1 86.7703Z" fill="#F4A28C"/>
<path opacity="0.08" d="M149.682 112.918C149.682 112.918 142.364 126.915 150.859 140.556C159.355 154.198 143.257 167.535 143.257 167.535L170.885 165.678V153.619L149.682 112.918Z" fill="black"/>
<path d="M135.574 104.545C136.233 102.017 139.248 97.4396 134.995 89.1267C134.092 87.3708 133.391 83.26 135.076 80.418C139.136 73.6074 145.612 75.9317 144.851 79.7481C144.089 83.5645 143.541 85.3814 143.541 85.3814C143.541 85.3814 155.843 94.2017 154.047 100.708C152.453 106.483 132.843 115.08 135.574 104.545Z" fill="#24285B"/>
<path d="M135.503 159.303H170.885L176.509 208.246L124.043 205.881L135.503 159.303Z" fill="#24285B"/>
<path d="M151.093 122.874C150.258 121.858 149.632 120.686 149.253 119.427C148.874 118.168 148.748 116.846 148.883 115.537C149.018 114.229 149.411 112.96 150.039 111.805C150.668 110.65 151.519 109.63 152.544 108.806C154.595 107.211 156.763 105.773 159.03 104.503C172.519 96.7785 194.941 79.7062 204.37 56.1582C204.37 56.1582 206.593 47.551 213.16 47.8555C219.727 48.16 217.464 56.3206 210.917 56.2394C210.917 56.2394 205.578 107.335 166.318 126.345C163.758 127.556 160.866 127.872 158.105 127.243C155.344 126.614 152.875 125.075 151.093 122.874Z" fill="#F4A28C"/>
<path d="M289.437 86.7821L271.167 66.5938L252.897 86.7821H266.783V224.254H276.141V86.7821H289.437Z" fill="#E6E6E6"/>
<path d="M245.701 206.297H298.968L293.589 248.805H251.081L245.701 206.297Z" fill="#C9C9C9"/>
<path d="M267.087 108.655C265.42 110.387 263.275 111.584 260.925 112.094C258.575 112.603 256.127 112.403 253.892 111.517C245.772 108.543 237.652 97.8755 237.652 97.8755C237.652 97.8755 250.746 94.9624 258.876 97.9465C261.152 98.7164 263.148 100.145 264.61 102.052C266.072 103.959 266.934 106.257 267.087 108.655Z" fill="#E6E6E6"/>
<path opacity="0.05" d="M267.087 108.654C265.42 110.386 263.275 111.584 260.925 112.093C258.575 112.603 256.127 112.402 253.892 111.517C245.772 108.543 237.652 97.875 237.652 97.875C237.652 97.875 255.354 100.017 267.087 108.654Z" fill="black"/>
<path d="M267.087 136.538C265.42 138.27 263.275 139.467 260.925 139.976C258.575 140.486 256.127 140.285 253.892 139.4C245.772 136.426 237.652 125.758 237.652 125.758C237.652 125.758 250.746 122.845 258.876 125.829C261.152 126.599 263.148 128.028 264.61 129.935C266.072 131.842 266.934 134.14 267.087 136.538Z" fill="#E6E6E6"/>
<path opacity="0.05" d="M267.087 136.537C265.42 138.269 263.275 139.466 260.925 139.976C258.575 140.486 256.127 140.285 253.892 139.399C245.772 136.425 237.652 125.758 237.652 125.758C237.652 125.758 255.354 127.899 267.087 136.537Z" fill="black"/>
<path d="M267.087 164.428C265.42 166.16 263.275 167.357 260.925 167.867C258.575 168.377 256.127 168.176 253.892 167.29C245.772 164.317 237.652 153.649 237.652 153.649C237.652 153.649 250.746 150.736 258.876 153.72C261.152 154.49 263.148 155.919 264.61 157.825C266.072 159.732 266.934 162.03 267.087 164.428Z" fill="#E6E6E6"/>
<path opacity="0.05" d="M267.087 164.43C265.42 166.162 263.275 167.359 260.925 167.869C258.575 168.378 256.127 168.178 253.892 167.292C245.772 164.318 237.652 153.65 237.652 153.65C237.652 153.65 255.354 155.792 267.087 164.43Z" fill="black"/>
<path d="M267.087 192.321C265.42 194.053 263.275 195.25 260.925 195.76C258.575 196.269 256.127 196.069 253.892 195.183C245.772 192.209 237.652 181.541 237.652 181.541C237.652 181.541 250.746 178.628 258.876 181.613C261.152 182.382 263.148 183.811 264.61 185.718C266.072 187.625 266.934 189.923 267.087 192.321Z" fill="#E6E6E6"/>
<path opacity="0.05" d="M267.087 192.32C265.42 194.052 263.275 195.25 260.925 195.759C258.575 196.269 256.127 196.068 253.892 195.183C245.772 192.209 237.652 181.541 237.652 181.541C237.652 181.541 255.354 183.683 267.087 192.32Z" fill="black"/>
<path d="M276.334 122.6C278.001 124.332 280.146 125.529 282.496 126.039C284.845 126.549 287.293 126.348 289.529 125.462C297.649 122.488 305.769 111.821 305.769 111.821C305.769 111.821 292.675 108.908 284.545 111.892C282.269 112.662 280.273 114.091 278.811 115.997C277.349 117.904 276.487 120.202 276.334 122.6Z" fill="#E6E6E6"/>
<path opacity="0.05" d="M276.334 122.602C278.001 124.334 280.146 125.531 282.496 126.04C284.845 126.55 287.293 126.349 289.529 125.464C297.649 122.49 305.769 111.822 305.769 111.822C305.769 111.822 288.067 113.964 276.334 122.602Z" fill="black"/>
<path d="M276.334 150.483C278.001 152.215 280.146 153.412 282.496 153.922C284.845 154.431 287.293 154.231 289.529 153.345C297.649 150.371 305.769 139.704 305.769 139.704C305.769 139.704 292.675 136.791 284.545 139.775C282.269 140.544 280.273 141.974 278.811 143.88C277.349 145.787 276.487 148.085 276.334 150.483Z" fill="#E6E6E6"/>
<path opacity="0.05" d="M276.334 150.482C278.001 152.215 280.146 153.412 282.496 153.921C284.845 154.431 287.293 154.23 289.529 153.345C297.649 150.371 305.769 139.703 305.769 139.703C305.769 139.703 288.067 141.835 276.334 150.482Z" fill="black"/>
<path d="M276.334 178.375C278.001 180.108 280.146 181.305 282.496 181.814C284.845 182.324 287.293 182.123 289.529 181.238C297.649 178.264 305.769 167.596 305.769 167.596C305.769 167.596 292.675 164.683 284.545 167.667C282.269 168.437 280.273 169.866 278.811 171.773C277.349 173.679 276.487 175.978 276.334 178.375Z" fill="#E6E6E6"/>
<path opacity="0.05" d="M276.334 178.375C278.001 180.107 280.146 181.304 282.496 181.814C284.845 182.324 287.293 182.123 289.529 181.237C297.649 178.263 305.769 167.596 305.769 167.596C305.769 167.596 288.067 169.737 276.334 178.375Z" fill="black"/>
<path d="M261.048 50.4853C259.946 49.7824 258.772 49.2005 257.546 48.7496C257.416 48.7151 257.277 48.7329 257.159 48.7993C257.042 48.8657 256.955 48.9753 256.917 49.1049C256.888 49.2338 256.908 49.369 256.974 49.4836C257.04 49.5983 257.146 49.6841 257.272 49.724C258.415 50.1536 259.511 50.7013 260.54 51.3582C260.655 51.4099 260.784 51.4174 260.904 51.3791C261.024 51.3408 261.125 51.2594 261.188 51.1508C261.251 51.0422 261.272 50.914 261.246 50.7911C261.22 50.6681 261.149 50.5592 261.048 50.4853Z" fill="#E6E6E6"/>
<path d="M266.498 54.5448C265.776 53.5411 264.845 52.7065 263.768 52.0987C263.652 52.0321 263.515 52.0139 263.385 52.0481C263.256 52.0824 263.146 52.1662 263.078 52.2814C263.043 52.3384 263.021 52.4018 263.012 52.4677C263.002 52.5336 263.006 52.6008 263.023 52.6651C263.04 52.7295 263.07 52.7898 263.111 52.8424C263.152 52.8951 263.202 52.939 263.261 52.9716C263.504 53.1137 263.748 53.2659 263.971 53.4283L264.123 53.54H264.194L264.519 53.814C264.73 53.9947 264.927 54.1916 265.108 54.4027C265.208 54.5028 265.303 54.6078 265.392 54.7174L265.443 54.7884V54.8392L265.524 54.9407C265.592 55.0559 265.702 55.1397 265.831 55.1739C265.961 55.2081 266.098 55.19 266.214 55.1234C266.321 55.0748 266.408 54.9905 266.46 54.885C266.512 54.7795 266.525 54.6593 266.498 54.5448Z" fill="#E6E6E6"/>
<path d="M269.99 59.2238C269.46 58.1859 268.776 57.2345 267.96 56.4021C267.913 56.3545 267.857 56.3167 267.795 56.291C267.733 56.2652 267.667 56.252 267.6 56.252C267.533 56.252 267.466 56.2652 267.405 56.291C267.343 56.3167 267.287 56.3545 267.239 56.4021C267.192 56.4484 267.155 56.5036 267.129 56.5646C267.103 56.6256 267.09 56.6912 267.09 56.7573C267.09 56.8235 267.103 56.889 267.129 56.95C267.155 57.011 267.192 57.0663 267.239 57.1126C267.433 57.3058 267.616 57.5091 267.787 57.7216L267.919 57.884L267.98 57.9652C267.98 57.9652 268.041 58.0464 267.98 57.9652L268.031 58.0261L268.092 58.1073L268.214 58.2798C268.535 58.7304 268.82 59.2055 269.066 59.7008C269.136 59.8141 269.248 59.8954 269.377 59.9272C269.506 59.959 269.643 59.9388 269.757 59.8709C269.872 59.8031 269.955 59.6929 269.989 59.5643C270.023 59.4357 270.005 59.2988 269.939 59.1832L269.99 59.2238Z" fill="#E6E6E6"/>
<path d="M261.413 47.186C260.231 46.8482 259.009 46.6707 257.779 46.6582C257.646 46.6608 257.518 46.7151 257.423 46.8097C257.329 46.9043 257.275 47.0319 257.272 47.1657C257.272 47.3003 257.325 47.4294 257.421 47.5246C257.516 47.6197 257.645 47.6732 257.779 47.6732C258.92 47.6813 260.055 47.8487 261.149 48.1706C261.278 48.2048 261.416 48.1867 261.532 48.1202C261.648 48.0537 261.733 47.9441 261.768 47.8153C261.803 47.6848 261.785 47.546 261.719 47.4284C261.652 47.3108 261.543 47.2239 261.413 47.186Z" fill="#E6E6E6"/>
<path d="M269.655 51.3685C268.617 50.4767 267.459 49.7352 266.214 49.166C266.156 49.132 266.092 49.1097 266.026 49.1005C265.959 49.0913 265.891 49.0953 265.826 49.1123C265.761 49.1292 265.7 49.1589 265.647 49.1994C265.593 49.24 265.548 49.2907 265.514 49.3487C265.48 49.4067 265.458 49.4708 265.448 49.5373C265.439 49.6039 265.443 49.6717 265.46 49.7367C265.477 49.8017 265.507 49.8628 265.547 49.9164C265.588 49.97 265.639 50.015 265.697 50.049C266.868 50.5666 267.958 51.2503 268.934 52.079C269.032 52.1704 269.161 52.2212 269.295 52.2212C269.429 52.2212 269.557 52.1704 269.655 52.079C269.746 51.983 269.796 51.8559 269.796 51.7238C269.796 51.5917 269.746 51.4646 269.655 51.3685Z" fill="#E6E6E6"/>
<path d="M275.065 57.4268C274.533 56.2047 273.677 55.1516 272.588 54.3818C272.531 54.3474 272.468 54.3249 272.402 54.3155C272.336 54.3061 272.269 54.3101 272.205 54.3271C272.14 54.3441 272.08 54.3739 272.027 54.4147C271.975 54.4555 271.931 54.5064 271.898 54.5645C271.832 54.6804 271.813 54.8179 271.848 54.9471C271.882 55.0764 271.966 55.1869 272.081 55.2547L272.172 55.3257L272.335 55.4577L272.67 55.752C272.886 55.9597 273.089 56.18 273.279 56.4118L273.421 56.6046C273.502 56.7264 273.583 56.8482 273.654 56.97C273.816 57.2333 273.959 57.5081 274.081 57.7922C274.15 57.9081 274.263 57.9921 274.393 58.0263C274.524 58.0604 274.663 58.042 274.781 57.9749C274.882 57.9275 274.965 57.8481 275.016 57.749C275.067 57.6499 275.085 57.5367 275.065 57.4268Z" fill="#E6E6E6"/>
<path d="M277.978 64.4209L277.217 62.5939C277.177 62.4684 277.094 62.3608 276.983 62.2894C276.865 62.2268 276.728 62.2088 276.598 62.2387C276.471 62.2764 276.362 62.3595 276.293 62.4721C276.266 62.5346 276.252 62.602 276.252 62.6701C276.252 62.7382 276.266 62.8055 276.293 62.868L277.054 64.6848C277.092 64.8116 277.175 64.92 277.288 64.9893C277.405 65.0558 277.543 65.074 277.673 65.0401C277.802 65.0045 277.912 64.9194 277.978 64.8035C278.045 64.6876 278.063 64.5501 278.029 64.4209H277.978Z" fill="#E6E6E6"/>
<path d="M272.02 64.2174C271.906 63.6462 271.671 63.1062 271.33 62.634C271.263 62.5193 271.153 62.4355 271.025 62.4005C270.901 62.3509 270.763 62.3509 270.64 62.4005C270.525 62.4676 270.441 62.5769 270.406 62.705C270.387 62.771 270.381 62.8402 270.39 62.9083C270.399 62.9764 270.422 63.042 270.457 63.1009C270.607 63.309 270.733 63.5338 270.832 63.7708C270.926 63.9855 270.994 64.2103 271.035 64.4407C271.074 64.5646 271.157 64.6696 271.269 64.735C271.331 64.7621 271.399 64.7761 271.467 64.7761C271.535 64.7761 271.602 64.7621 271.665 64.735C271.772 64.6996 271.866 64.6297 271.93 64.5362C271.994 64.4427 272.026 64.3307 272.02 64.2174Z" fill="#E6E6E6"/>
<path d="M260.378 54.545C259.328 53.2498 257.999 52.2088 256.491 51.5C256.373 51.4313 256.234 51.412 256.103 51.4463C255.971 51.4805 255.859 51.5656 255.79 51.6827C255.722 51.7998 255.702 51.9393 255.737 52.0707C255.771 52.202 255.856 52.3144 255.973 52.383C257.407 53.0464 258.668 54.0331 259.657 55.2656C259.705 55.3132 259.761 55.3509 259.823 55.3767C259.884 55.4025 259.951 55.4157 260.018 55.4157C260.085 55.4157 260.151 55.4025 260.213 55.3767C260.275 55.3509 260.331 55.3132 260.378 55.2656C260.469 55.1679 260.52 55.0391 260.52 54.9053C260.52 54.7715 260.469 54.6427 260.378 54.545Z" fill="#E6E6E6"/>
<path d="M265.006 60.2496C264.552 59.1246 263.895 58.0926 263.068 57.2046C263.022 57.156 262.967 57.1173 262.906 57.0909C262.845 57.0644 262.779 57.0508 262.712 57.0508C262.646 57.0508 262.58 57.0644 262.519 57.0909C262.458 57.1173 262.403 57.156 262.357 57.2046C262.264 57.2994 262.212 57.427 262.212 57.5598C262.212 57.6927 262.264 57.8202 262.357 57.9151L262.631 58.2297L262.753 58.382L262.814 58.4632C262.814 58.4632 262.885 58.5444 262.814 58.4632C262.743 58.382 262.814 58.4632 262.814 58.5139L262.895 58.6053C262.927 58.6632 262.964 58.7177 263.007 58.7677L263.24 59.1229C263.384 59.3494 263.516 59.5832 263.636 59.8233C263.697 59.9451 263.758 60.0567 263.809 60.1785L263.9 60.3815C263.9 60.3815 263.9 60.4526 263.9 60.4932C263.936 60.6278 264.025 60.7424 264.146 60.8119C264.266 60.8814 264.41 60.9 264.545 60.8636C264.679 60.8273 264.794 60.739 264.863 60.6181C264.933 60.4972 264.951 60.3537 264.915 60.2191L265.006 60.2496Z" fill="#E6E6E6"/>
<path d="M266.58 67.3745L266.184 64.7863C266.148 64.6574 266.063 64.5479 265.947 64.4814C265.831 64.4149 265.694 64.3968 265.565 64.431C265.436 64.4666 265.326 64.5516 265.26 64.6676C265.193 64.7835 265.175 64.921 265.209 65.0501C265.341 65.9129 265.463 66.7757 265.595 67.6384C265.613 67.7033 265.643 67.7641 265.684 67.8171C265.725 67.8702 265.777 67.9146 265.835 67.9476C265.894 67.9807 265.958 68.0018 266.025 68.0097C266.092 68.0176 266.16 68.0121 266.224 67.9937C266.352 67.9558 266.46 67.8704 266.526 67.7551C266.592 67.6398 266.611 67.5036 266.58 67.3745Z" fill="#E6E6E6"/>
</svg>
