<svg width="70" height="70" viewBox="0 0 70 70" fill="none" xmlns="http://www.w3.org/2000/svg">
<path d="M8.74935 14.5832H2.91602V61.2498C2.91602 64.4582 5.54102 67.0832 8.74935 67.0832H55.416V61.2498H8.74935V14.5832ZM40.8327 43.7498H46.666V14.5832H34.9994V20.4165H40.8327V43.7498ZM61.2494 2.9165H20.416C17.2077 2.9165 14.5827 5.5415 14.5827 8.74984V49.5832C14.5827 52.7915 17.2077 55.4165 20.416 55.4165H61.2494C64.4577 55.4165 67.0827 52.7915 67.0827 49.5832V8.74984C67.0827 5.5415 64.4577 2.9165 61.2494 2.9165ZM61.2494 49.5832H20.416V8.74984H61.2494V49.5832Z" fill="white"/>
</svg>
