<svg id="Layer_1" data-name="Layer 1" xmlns="http://www.w3.org/2000/svg" viewBox="0 0 400 300" width="406" height="306" class="illustration styles_illustrationTablet__1DWOa"><title>_</title><rect x="68.35" y="59.99" width="287.25" height="191.39" fill="#ccc"></rect><rect x="58.4" y="68.89" width="287.25" height="171.12" fill="#e6e6e6"></rect><rect x="58.4" y="48.62" width="287.25" height="20.28" fill="#68e1fd"></rect><path d="M273.57,119s4.6,22.12,2.6,37.42a11.34,11.34,0,0,1-12.79,9.75c-7.7-1.12-17.77-4.86-21.67-16.41l-9-18.79s-5.24-12,6.32-22.57S271.45,105.4,273.57,119Z" fill="#f4a28c"></path><polygon points="234.31 134.39 231.38 208.33 272.24 207.04 257.97 153.75 234.31 134.39" fill="#f4a28c"></polygon><path d="M275.75,133.09,283,141a3.61,3.61,0,0,1-1.58,5.9l-8.38,2.63Z" fill="#f4a28c"></path><path d="M261.59,165.28a26.74,26.74,0,0,1-14-6.27s2.17,13.37,18.51,24.89Z" fill="#ce8172" opacity="0.31"></path><path d="M272.24,109.2s0,25.07-23.25,25.66c.38,0-.83,13.85-.92,14.54-1.21,9.64,1.29,19.48,1.09,29.31a9.29,9.29,0,0,1-1,4.89c-1.1,1.74-3.17,2.59-5.13,3.23a68.08,68.08,0,0,1-34.77,2,12.52,12.52,0,0,1-6-2.52c-3.08-2.79-3-7.61-2.34-11.71a76.79,76.79,0,0,1,4.51-16.38c1.89-4.72,4.76-9,6.6-13.68a137.72,137.72,0,0,0,8.34-32.84,43,43,0,0,1,2.11-10c1.8-4.59,5.22-8.26,8.89-11.44,3.86-3.33,8.29-3.58,13.35-3.67C268.31,86.2,274.24,97,272.24,109.2Z" fill="#ffd200"></path><path d="M252,141s-1.19-8.62-7.6-7.18-4.76,13.89,4.19,14Z" fill="#f4a28c"></path><path d="M219.44,193.32h62.34a0,0,0,0,1,0,0v11.09a10.38,10.38,0,0,1-10.38,10.38H229.83a10.38,10.38,0,0,1-10.38-10.38V193.32a0,0,0,0,1,0,0Z" transform="translate(501.23 408.11) rotate(-180)" fill="#68e1fd"></path><path d="M139.14,114.66S134.5,137,136.52,152.5a11.47,11.47,0,0,0,12.93,9.85c7.78-1.13,18-4.91,21.92-16.59l9.12-19s5.3-12.11-6.39-22.82S141.29,100.9,139.14,114.66Z" fill="#f4a28c"></path><polygon points="178.84 130.21 181.81 204.97 140.49 203.66 154.92 149.78 178.84 130.21" fill="#f4a28c"></polygon><path d="M144.65,116.27a91.21,91.21,0,0,0,21.1.87s-8.26,9-2.46,20.75,17.87,8.35,17.87,8.35l3.08-29.17a23.29,23.29,0,0,0-9.26-22,83.57,83.57,0,0,0-9.17-5.9c-8-4.36-20.93-.23-27.78-6.78a5.51,5.51,0,0,0-9.1,2.56c-2.36,8.7-2.43,22.83,9,29.1A21.22,21.22,0,0,0,144.65,116.27Z" fill="#ffd200"></path><path d="M160.94,136.93s1.2-8.71,7.68-7.26,4.82,14.05-4.23,14.17Z" fill="#f4a28c"></path><path d="M136.94,128.9l-7.35,8a3.66,3.66,0,0,0,1.6,6l8.47,2.66Z" fill="#f4a28c"></path><path d="M151.26,161.44a27.13,27.13,0,0,0,14.21-6.33s-2.2,13.52-18.72,25.16Z" fill="#ce8172" opacity="0.31"></path><path d="M127.18,193.32h62.34a0,0,0,0,1,0,0v11.09a10.38,10.38,0,0,1-10.38,10.38H137.56a10.38,10.38,0,0,1-10.38-10.38V193.32a0,0,0,0,1,0,0Z" transform="translate(316.69 408.11) rotate(-180)" fill="#68e1fd"></path><rect x="72.66" y="114.94" width="8.87" height="2.79" fill="#fff" opacity="0.46"></rect><rect x="88.57" y="114.94" width="29.29" height="2.79" fill="#fff" opacity="0.46"></rect><rect x="72.66" y="129.86" width="27.18" height="2.79" fill="#fff" opacity="0.46"></rect><rect x="109.41" y="129.86" width="8.45" height="2.79" fill="#fff" opacity="0.46"></rect><rect x="72.66" y="144.79" width="10.84" height="2.79" fill="#fff" opacity="0.46"></rect><rect x="90.26" y="144.79" width="27.6" height="2.79" fill="#fff" opacity="0.46"></rect><rect x="72.66" y="159.72" width="31.68" height="2.79" fill="#fff" opacity="0.46"></rect><rect x="291.78" y="144.56" width="8.87" height="2.79" fill="#fff" opacity="0.46"></rect><rect x="307.69" y="144.56" width="29.29" height="2.79" fill="#fff" opacity="0.46"></rect><rect x="291.78" y="159.49" width="27.18" height="2.79" fill="#fff" opacity="0.46"></rect><rect x="328.53" y="159.49" width="8.45" height="2.79" fill="#fff" opacity="0.46"></rect><rect x="291.78" y="174.41" width="10.84" height="2.79" fill="#fff" opacity="0.46"></rect><rect x="309.38" y="174.41" width="27.6" height="2.79" fill="#fff" opacity="0.46"></rect><rect x="291.78" y="189.34" width="31.68" height="2.79" fill="#fff" opacity="0.46"></rect><g opacity="0.46"><path d="M99.9,189.87l5.08-6.51-.17,3.36a1.24,1.24,0,1,0,2.48.12l.38-7.33a1.18,1.18,0,0,0-.48-1,1.24,1.24,0,0,0-1.13-.2l-7,2.17a1.24,1.24,0,0,0-.81,1.56,1.27,1.27,0,0,0,.42.61,1.23,1.23,0,0,0,1.13.2l3.24-1-5.12,6.55a13.26,13.26,0,1,0,2,1.53ZM84.12,208a10.8,10.8,0,1,1,15.16-1.86A10.81,10.81,0,0,1,84.12,208Z" fill="#fff"></path></g><path d="M328.91,106.26a13.28,13.28,0,1,0-14.52,13.22v2.75H310.1a1.25,1.25,0,0,0,0,2.49h4.29v5.41a1.24,1.24,0,0,0,2.48,0v-5.41h4.28a1.25,1.25,0,0,0,0-2.49h-4.28v-2.75A13.3,13.3,0,0,0,328.91,106.26Zm-24.08,0a10.8,10.8,0,1,1,10.8,10.8A10.81,10.81,0,0,1,304.83,106.26Z" fill="#fff" opacity="0.46"></path><circle cx="71.27" cy="58.54" r="3.08" fill="#fff" opacity="0.46"></circle><circle cx="80.44" cy="58.54" r="3.08" fill="#24285b"></circle><circle cx="89.09" cy="58.54" r="3.08" fill="#ffd200"></circle></svg>