<svg width="406" height="306" viewBox="0 0 406 306" fill="none" xmlns="http://www.w3.org/2000/svg">
<path d="M360.934 61.6406H69.3752V255.901H360.934V61.6406Z" fill="#CCCCCC"/>
<path d="M350.835 70.6738H59.276V244.361H350.835V70.6738Z" fill="#E6E6E6"/>
<path d="M350.835 50.0996H59.276V70.6838H350.835V50.0996Z" fill="#9ED6BE"/>
<path d="M277.674 121.536C277.674 121.536 282.343 143.987 280.313 159.517C280.114 161.021 279.62 162.471 278.859 163.783C278.099 165.096 277.086 166.245 275.879 167.164C274.673 168.084 273.297 168.756 271.83 169.142C270.362 169.528 268.834 169.62 267.331 169.413C259.515 168.276 249.294 164.48 245.336 152.757L236.201 133.685C236.201 133.685 230.882 121.505 242.615 110.777C254.349 100.048 275.522 107.732 277.674 121.536Z" fill="#F4A28C"/>
<path d="M237.825 137.156L234.851 212.205L276.324 210.896L261.84 156.807L237.825 137.156Z" fill="#F4A28C"/>
<path d="M279.886 135.836L287.245 143.865C287.666 144.319 287.964 144.872 288.113 145.473C288.261 146.074 288.255 146.703 288.095 147.301C287.935 147.899 287.626 148.447 287.197 148.893C286.768 149.339 286.233 149.67 285.641 149.853L277.136 152.523L279.886 135.836Z" fill="#F4A28C"/>
<path opacity="0.31" d="M265.514 168.509C260.257 167.821 255.317 165.608 251.304 162.145C251.304 162.145 253.506 175.715 270.091 187.408L265.514 168.509Z" fill="#CE8172"/>
<path d="M276.324 111.588C276.324 111.588 276.324 137.035 252.725 137.633C253.111 137.633 251.882 151.691 251.791 152.391C250.563 162.176 253.1 172.164 252.897 182.141C253.018 183.857 252.667 185.574 251.882 187.104C250.766 188.871 248.665 189.733 246.675 190.383C235.287 194.108 223.125 194.808 211.384 192.413C209.164 192.112 207.063 191.23 205.294 189.855C202.168 187.023 202.249 182.131 202.919 177.969C203.825 172.275 205.36 166.699 207.496 161.344C209.415 156.553 212.328 152.209 214.195 147.459C218.378 136.738 221.222 125.543 222.661 114.126C222.968 110.67 223.687 107.262 224.802 103.976C226.629 99.3171 230.1 95.5921 233.826 92.3644C237.743 88.9844 242.24 88.7307 247.376 88.6393C272.335 88.2435 278.354 99.2055 276.324 111.588Z" fill="#FFD200"/>
<path d="M255.78 143.864C255.78 143.864 254.572 135.115 248.066 136.577C241.56 138.038 243.235 150.675 252.319 150.787L255.78 143.864Z" fill="#F4A28C"/>
<path d="M286.017 218.762H222.742V207.505C222.742 204.711 223.852 202.031 225.828 200.056C227.803 198.08 230.483 196.97 233.277 196.97H275.471C278.265 196.97 280.945 198.08 282.921 200.056C284.897 202.031 286.007 204.711 286.007 207.505V218.762H286.017Z" fill="#9ED6BE"/>
<path d="M141.227 117.129C141.227 117.129 136.517 139.804 138.568 155.537C138.77 157.056 139.27 158.521 140.04 159.847C140.81 161.172 141.834 162.333 143.053 163.262C144.272 164.191 145.663 164.87 147.146 165.26C148.628 165.65 150.173 165.743 151.692 165.535C159.588 164.388 169.962 160.551 173.941 148.696L183.197 129.411C183.197 129.411 188.577 117.119 176.711 106.249C164.846 95.3779 143.409 103.163 141.227 117.129Z" fill="#F4A28C"/>
<path d="M181.523 132.914L184.537 208.795L142.597 207.466L157.244 152.778L181.523 132.914Z" fill="#F4A28C"/>
<path d="M146.82 118.764C153.9 119.887 161.087 120.183 168.236 119.647C168.236 119.647 159.852 128.782 165.739 140.709C171.626 152.635 183.877 149.184 183.877 149.184L187.004 119.576C187.597 115.353 187.037 111.047 185.382 107.116C183.728 103.185 181.04 99.7743 177.605 97.2464C174.636 95.0497 171.527 93.0493 168.297 91.2579C160.177 86.8325 147.053 91.0244 140.1 84.3762C139.398 83.7127 138.535 83.2425 137.597 83.0116C136.659 82.7807 135.676 82.7969 134.746 83.0586C133.816 83.3203 132.969 83.8186 132.289 84.5049C131.608 85.1912 131.118 86.042 130.864 86.9746C128.469 95.8051 128.397 110.147 139.999 116.511C142.13 117.639 144.436 118.4 146.82 118.764Z" fill="#FFD200"/>
<path d="M163.354 139.733C163.354 139.733 164.572 130.893 171.149 132.365C177.727 133.836 176.042 146.625 166.856 146.747L163.354 139.733Z" fill="#F4A28C"/>
<path d="M138.994 131.584L131.534 139.704C131.103 140.164 130.797 140.727 130.643 141.338C130.49 141.95 130.494 142.59 130.657 143.199C130.819 143.809 131.134 144.366 131.572 144.82C132.009 145.274 132.555 145.609 133.158 145.794L141.755 148.494L138.994 131.584Z" fill="#F4A28C"/>
<path opacity="0.31" d="M153.529 164.612C158.861 163.925 163.875 161.691 167.952 158.188C167.952 158.187 165.719 171.91 148.951 183.725L153.529 164.612Z" fill="#CE8172"/>
<path d="M192.353 218.762H129.078V207.505C129.078 204.711 130.188 202.031 132.163 200.056C134.139 198.08 136.819 196.97 139.613 196.97H181.817C184.611 196.97 187.291 198.08 189.267 200.056C191.243 202.031 192.353 204.711 192.353 207.505V218.762Z" fill="#9ED6BE"/>
<path opacity="0.46" d="M82.7529 117.414H73.7499V120.246H82.7529V117.414Z" fill="white"/>
<path opacity="0.46" d="M119.628 117.414H89.8986V120.246H119.628V117.414Z" fill="white"/>
<path opacity="0.46" d="M101.338 132.559H73.7499V135.39H101.338V132.559Z" fill="white"/>
<path opacity="0.46" d="M119.628 132.559H111.051V135.39H119.628V132.559Z" fill="white"/>
<path opacity="0.46" d="M84.7525 147.711H73.7499V150.543H84.7525V147.711Z" fill="white"/>
<path opacity="0.46" d="M119.628 147.711H91.6139V150.543H119.628V147.711Z" fill="white"/>
<path opacity="0.46" d="M105.905 162.865H73.7499V165.697H105.905V162.865Z" fill="white"/>
<path opacity="0.46" d="M305.16 147.479H296.157V150.31H305.16V147.479Z" fill="white"/>
<path opacity="0.46" d="M342.035 147.479H312.305V150.31H342.035V147.479Z" fill="white"/>
<path opacity="0.46" d="M323.744 162.633H296.157V165.465H323.744V162.633Z" fill="white"/>
<path opacity="0.46" d="M342.035 162.633H333.458V165.465H342.035V162.633Z" fill="white"/>
<path opacity="0.46" d="M307.159 177.775H296.157V180.607H307.159V177.775Z" fill="white"/>
<path opacity="0.46" d="M342.035 177.775H314.021V180.607H342.035V177.775Z" fill="white"/>
<path opacity="0.46" d="M328.312 192.93H296.157V195.762H328.312V192.93Z" fill="white"/>
<g opacity="0.46">
<path opacity="0.46" d="M101.398 193.468L106.555 186.86L106.382 190.27C106.374 190.436 106.399 190.601 106.455 190.757C106.511 190.912 106.596 191.056 106.708 191.178C106.819 191.301 106.953 191.4 107.103 191.471C107.252 191.541 107.415 191.582 107.58 191.59C107.745 191.598 107.91 191.573 108.066 191.517C108.222 191.462 108.365 191.376 108.488 191.264C108.61 191.153 108.71 191.019 108.78 190.869C108.851 190.72 108.891 190.557 108.899 190.392L109.285 182.952C109.293 182.756 109.253 182.561 109.168 182.384C109.083 182.207 108.956 182.054 108.798 181.937C108.637 181.813 108.449 181.73 108.249 181.695C108.05 181.66 107.844 181.673 107.651 181.734L100.546 183.937C100.388 183.986 100.241 184.067 100.114 184.173C99.9869 184.28 99.8822 184.41 99.8058 184.558C99.7294 184.705 99.6828 184.866 99.6687 185.031C99.6547 185.196 99.6734 185.362 99.7237 185.52C99.8012 185.764 99.9496 185.98 100.15 186.139C100.31 186.264 100.499 186.347 100.698 186.383C100.898 186.418 101.104 186.404 101.297 186.342L104.586 185.327L99.3888 191.976C96.4545 190.144 92.9279 189.513 89.5407 190.213C86.1534 190.912 83.1655 192.889 81.1969 195.733C79.2283 198.577 78.4301 202.07 78.968 205.486C79.5058 208.903 81.3384 211.982 84.0856 214.083C86.8327 216.185 90.2834 217.148 93.7218 216.773C97.1602 216.398 100.322 214.714 102.552 212.07C104.782 209.426 105.908 206.025 105.697 202.572C105.486 199.12 103.954 195.881 101.419 193.529L101.398 193.468ZM85.3818 211.87C83.6735 210.535 82.3994 208.723 81.7206 206.664C81.0419 204.605 80.9889 202.391 81.5685 200.302C82.1481 198.212 83.3342 196.342 84.9768 194.927C86.6194 193.512 88.6447 192.616 90.7966 192.352C92.9486 192.088 95.1305 192.468 97.0664 193.444C99.0024 194.42 100.605 195.948 101.673 197.835C102.74 199.722 103.224 201.883 103.063 204.045C102.902 206.207 102.104 208.273 100.769 209.982C98.9775 212.27 96.3509 213.754 93.466 214.108C90.5811 214.462 87.6736 213.657 85.3818 211.87Z" fill="white"/>
</g>
<path opacity="0.46" d="M333.844 108.604C333.844 105.992 333.085 103.436 331.66 101.247C330.234 99.0575 328.203 97.3298 325.814 96.2737C323.424 95.2176 320.78 94.8785 318.201 95.2978C315.623 95.7171 313.222 96.8766 311.29 98.6353C309.358 100.394 307.979 102.676 307.321 105.204C306.662 107.732 306.752 110.397 307.58 112.875C308.408 115.352 309.938 117.536 311.985 119.16C314.031 120.784 316.505 121.779 319.106 122.023V124.814H314.752C314.436 124.842 314.142 124.988 313.928 125.221C313.715 125.455 313.596 125.761 313.596 126.077C313.596 126.394 313.715 126.7 313.928 126.934C314.142 127.167 314.436 127.313 314.752 127.341H319.106V132.832C319.106 133.166 319.238 133.486 319.474 133.722C319.711 133.958 320.031 134.091 320.364 134.091C320.698 134.091 321.018 133.958 321.254 133.722C321.49 133.486 321.623 133.166 321.623 132.832V127.341H325.967C326.283 127.313 326.576 127.167 326.79 126.934C327.004 126.7 327.123 126.394 327.123 126.077C327.123 125.761 327.004 125.455 326.79 125.221C326.576 124.988 326.283 124.842 325.967 124.814H321.623V122.023C324.963 121.705 328.065 120.154 330.325 117.674C332.584 115.193 333.839 111.96 333.844 108.604ZM309.402 108.604C309.402 106.436 310.045 104.317 311.25 102.514C312.454 100.711 314.166 99.3064 316.169 98.4767C318.173 97.647 320.377 97.4299 322.503 97.8529C324.629 98.2759 326.583 99.3199 328.116 100.853C329.649 102.386 330.693 104.339 331.116 106.466C331.539 108.592 331.322 110.796 330.492 112.799C329.662 114.802 328.257 116.514 326.455 117.719C324.652 118.923 322.533 119.566 320.364 119.566C317.458 119.564 314.671 118.408 312.616 116.353C310.561 114.297 309.405 111.511 309.402 108.604Z" fill="white"/>
<path opacity="0.46" d="M72.3391 63.2934C74.0656 63.2934 75.4653 61.8938 75.4653 60.1672C75.4653 58.4407 74.0656 57.041 72.3391 57.041C70.6125 57.041 69.2129 58.4407 69.2129 60.1672C69.2129 61.8938 70.6125 63.2934 72.3391 63.2934Z" fill="white"/>
<path d="M81.6466 63.2934C83.3731 63.2934 84.7728 61.8938 84.7728 60.1672C84.7728 58.4407 83.3731 57.041 81.6466 57.041C79.92 57.041 78.5204 58.4407 78.5204 60.1672C78.5204 61.8938 79.92 63.2934 81.6466 63.2934Z" fill="#24285B"/>
<path d="M90.4264 63.2934C92.1529 63.2934 93.5526 61.8938 93.5526 60.1672C93.5526 58.4407 92.1529 57.041 90.4264 57.041C88.6998 57.041 87.3002 58.4407 87.3002 60.1672C87.3002 61.8938 88.6998 63.2934 90.4264 63.2934Z" fill="#FFD200"/>
</svg>
