<svg width="406" height="306" viewBox="0 0 406 306" fill="none" xmlns="http://www.w3.org/2000/svg">
<path opacity="0.3" d="M196.545 251.404C287.435 251.404 361.117 246.005 361.117 239.345C361.117 232.686 287.435 227.287 196.545 227.287C105.654 227.287 31.9725 232.686 31.9725 239.345C31.9725 246.005 105.654 251.404 196.545 251.404Z" fill="#E6E6E6"/>
<path d="M302.988 229.268C302.988 229.268 306.154 231.805 309.25 230.283C312.346 228.76 314.883 231.135 312.691 233.51C310.499 235.885 301.587 236.657 301.587 236.657L298.146 231.277L302.988 229.268Z" fill="#9ED6BE"/>
<path d="M221.564 211.443C221.564 211.443 217.504 211.961 216.489 215.27C215.474 218.579 211.962 218.731 211.78 215.513C211.597 212.296 217.21 205.363 217.21 205.363L223.483 206.612L221.564 211.443Z" fill="#9ED6BE"/>
<path d="M241.265 151.924C241.265 151.924 235.104 163.505 241.265 168.164C247.427 172.823 289.123 208.094 297.091 231.754L305.586 228.303C305.586 228.303 298.41 194.615 278.475 168.225L241.265 151.924Z" fill="#24285B"/>
<path d="M241.266 168.225C241.266 168.225 273.035 212.307 221.27 203.192V212.327C221.27 212.327 273.492 226.385 272.02 194.057C270.548 161.729 241.266 168.225 241.266 168.225Z" fill="#24285B"/>
<path d="M285.915 73.4344C286.261 76.4023 286.206 79.403 285.753 82.3563C285.676 82.7026 285.532 83.0303 285.327 83.3203C285.123 83.6103 284.863 83.8568 284.563 84.0457C284.263 84.2345 283.928 84.3618 283.578 84.4203C283.229 84.4788 282.871 84.4672 282.525 84.3863C281.394 84.1993 280.34 83.6914 279.489 82.9232C278.638 82.1549 278.026 81.1584 277.724 80.0522L275.979 75.4137C275.725 74.4483 275.777 73.4279 276.128 72.4934C276.479 71.559 277.111 70.7564 277.937 70.1966C280.901 67.9433 285.692 70.1661 285.915 73.4344Z" fill="#F4A28C"/>
<path d="M278.232 76.043L271.401 92.2627L280.536 96.1095L281.845 82.6608L278.232 76.043Z" fill="#F4A28C"/>
<path d="M286.139 76.875L287.702 78.905C287.791 79.0192 287.85 79.1542 287.872 79.2974C287.895 79.4405 287.881 79.5871 287.831 79.7233C287.781 79.8594 287.698 79.9806 287.588 80.0754C287.478 80.1702 287.346 80.2355 287.204 80.2651L285.174 80.7219L286.139 76.875Z" fill="#F4A28C"/>
<path opacity="0.31" d="M281.744 83.797C280.859 83.398 280.08 82.7965 279.47 82.041C279.47 82.041 276.689 87.6743 281.196 89.3389L281.744 83.797Z" fill="#CE8172"/>
<path d="M279.896 77.444C279.896 77.444 279.785 75.414 278.242 75.5866C276.699 75.7591 276.821 78.7737 278.942 78.9868L279.896 77.444Z" fill="#F4A28C"/>
<path d="M280.079 76.8749C280.079 76.8749 279.592 74.5302 277.734 75.0986C275.877 75.667 276.212 78.4583 278.749 79.2906L280.079 76.8749Z" fill="#F4A28C"/>
<path d="M269.645 91.6441L273.796 93.0245C278.632 94.646 282.993 97.435 286.494 101.144C293.751 108.828 304.135 122.693 298.674 134.802C290.554 152.666 271.462 165.506 271.462 165.506L232.719 157.386C232.719 157.386 227.096 77.6878 269.645 91.6441Z" fill="#9ED6BE"/>
<path d="M279.896 77.4441C279.896 77.4441 281.155 89.7865 275.065 94.6179C268.975 99.4493 263.484 91.4815 255.536 97.9775C247.589 104.474 241.651 106.169 235.896 97.9775C230.141 89.7865 238.779 78.6418 251.74 79.2914C263.261 79.8598 272.873 80.2049 272.609 74.0641C272.396 69.2936 275.978 65.0814 280.729 65.3351C282.282 65.4241 283.804 65.8064 285.215 66.4618C294.969 70.7857 279.896 77.4441 279.896 77.4441Z" fill="#24285B"/>
<path d="M131.544 218.975C131.544 218.975 166.856 220.355 186.212 213.768C205.568 207.181 191.287 176.061 211.445 166.591C231.603 157.121 280.536 162.693 280.536 162.693" stroke="#C1C1C1" stroke-width="4.06" stroke-miterlimit="10"/>
<path d="M114.817 171.097C134.341 171.097 150.169 155.27 150.169 135.745C150.169 116.22 134.341 100.393 114.817 100.393C95.2922 100.393 79.4644 116.22 79.4644 135.745C79.4644 155.27 95.2922 171.097 114.817 171.097Z" fill="#FFD200"/>
<path opacity="0.14" d="M114.817 194.209C147.106 194.209 173.281 168.034 173.281 135.745C173.281 103.456 147.106 77.2812 114.817 77.2812C82.528 77.2812 56.3528 103.456 56.3528 135.745C56.3528 168.034 82.528 194.209 114.817 194.209Z" fill="#FFD200"/>
<path opacity="0.58" d="M55.9163 231.378C55.9163 231.378 50.6485 229.937 49.5015 225.065C49.5015 225.065 57.6215 223.411 57.8956 231.835L55.9163 231.378Z" fill="#9ED6BE"/>
<path opacity="0.73" d="M56.566 230.85C56.566 230.85 52.8815 225.034 56.1194 219.594C57.8987 220.792 59.2124 222.565 59.8407 224.616C60.4689 226.667 60.3735 228.871 59.5704 230.86L56.566 230.85Z" fill="#9ED6BE"/>
<path d="M57.5099 230.851C57.5099 230.851 59.4587 224.761 65.3355 223.543C65.3355 223.543 66.4317 227.532 61.5293 230.871L57.5099 230.851Z" fill="#9ED6BE"/>
<path d="M53.6935 230.719L54.7593 238.027L61.4786 238.047L62.4733 230.749L53.6935 230.719Z" fill="#24285B"/>
<path d="M147.54 200.359H81.8293V237.498H147.54V200.359Z" fill="#E6E6E6"/>
<path opacity="0.09" d="M265.291 102.148C265.291 102.148 271.502 121.098 261.302 135.359C251.101 149.62 259.515 156.349 279.216 158.704L280.231 165.018H246.747L232.435 159.973V150.077L245.112 128.873L265.291 102.148Z" fill="black"/>
<path d="M136.183 165.453H93.4612V200.359H136.183V165.453Z" fill="#24285B"/>
<path d="M351.667 142.779H309.494C307.453 142.779 305.799 144.433 305.799 146.474V148.169C305.799 150.209 307.453 151.864 309.494 151.864H351.667C353.708 151.864 355.362 150.209 355.362 148.169V146.474C355.362 144.433 353.708 142.779 351.667 142.779Z" fill="#E6E6E6"/>
<path d="M351.667 172.133H309.494C307.453 172.133 305.799 173.787 305.799 175.827V177.522C305.799 179.563 307.453 181.217 309.494 181.217H351.667C353.708 181.217 355.362 179.563 355.362 177.522V175.827C355.362 173.787 353.708 172.133 351.667 172.133Z" fill="#E6E6E6"/>
<path d="M103.408 164.591L96.1104 132.78L109.508 146.006L114.817 129.553L121.719 146.168L131.544 132.273L127.646 164.591" stroke="white" stroke-width="1.015" stroke-miterlimit="10"/>
<path d="M297.639 137.938H317.624V186.099H297.639C292.456 186.091 287.489 184.027 283.828 180.36C280.166 176.693 278.11 171.722 278.11 166.54V157.497C278.11 152.314 280.166 147.344 283.828 143.677C287.489 140.01 292.456 137.946 297.639 137.938Z" fill="#9E9E9E"/>
<path d="M248.036 95.1454C241.803 99.2054 231.4 107.782 228.03 120.52L252.908 132.7C252.908 132.7 273.766 105.529 261.708 95.5818C259.771 94.0654 257.401 93.2055 254.943 93.127C252.484 93.0485 250.065 93.7555 248.036 95.1454Z" fill="#9ED6BE"/>
<path opacity="0.54" d="M248.036 95.1454C241.803 99.2054 231.4 107.782 228.03 120.52L252.908 132.7C252.908 132.7 273.766 105.529 261.708 95.5818C259.771 94.0654 257.401 93.2055 254.943 93.127C252.484 93.0485 250.065 93.7555 248.036 95.1454Z" fill="white"/>
<path d="M230.222 121.656C230.222 121.656 210.937 158.592 225.442 166.54C239.946 174.487 275.907 170.397 275.907 170.397C275.907 170.397 283.165 172.761 285.042 166.712C286.92 160.663 273.137 162.185 273.137 162.185C273.137 162.185 236.597 162.348 240.21 152.999C243.823 143.651 252.908 132.76 252.908 132.76L230.222 121.656Z" fill="#F4A28C"/>
<path d="M306.418 186.099C306.418 186.099 314.325 191.174 318.598 187.966C322.872 184.759 311.991 179.826 306.418 186.099Z" fill="#F4A28C"/>
</svg>
