<svg id="Layer_1" data-name="Layer 1" xmlns="http://www.w3.org/2000/svg" viewBox="0 0 400 300" width="406" height="306" class="illustration styles_illustrationTablet__1DWOa"><title>_</title><path d="M283.27,71.08c30.25,9.78,53.72,37.28,59.82,71.68,5.13,29-3.39,64.62-53.11,81.16-50.75,16.89-192.66,25-219-22S50.12,94.65,104.22,73.27C142.15,58.29,224.17,52,283.27,71.08Z" fill="#e6e6e6" opacity="0.3"></path><ellipse cx="200" cy="257.99" rx="136.59" ry="9.46" fill="#e6e6e6" opacity="0.45"></ellipse><rect x="242.75" y="239.8" width="72.98" height="17.92" fill="#c9c9c9"></rect><rect x="255.33" y="221.88" width="65.76" height="17.92" fill="#e6e6e6"></rect><polygon points="312.05 222.02 316.9 194.6 282.5 194.6 279.51 217.97 263.74 218.19 263.74 222.02 312.05 222.02" fill="#24285b"></polygon><circle cx="298.35" cy="207.75" r="3.44" fill="#fff"></circle><path d="M200.47,130.66a24.07,24.07,0,0,1,0,6.34,1.93,1.93,0,0,1-2.28,1.48,4.25,4.25,0,0,1-3.45-3l-1.28-3.28a3.41,3.41,0,0,1,1.34-3.72C196.85,126.8,200.28,128.34,200.47,130.66Z" fill="#f4a28c"></path><polygon points="193.66 132.76 192.24 145.18 199.15 145.47 197.41 136.32 193.66 132.76" fill="#f4a28c"></polygon><path d="M200.66,133.06l1.12,1.42a.61.61,0,0,1-.33,1l-1.45.34Z" fill="#f4a28c"></path><path d="M197.87,138.3a4.53,4.53,0,0,1-2.29-1.23,7.18,7.18,0,0,0,2.81,4.43Z" fill="#ce8172" opacity="0.31"></path><path d="M199.73,130.82a6.34,6.34,0,0,1-.86.22,6.5,6.5,0,0,0-1.2.4l-.31.14a1.21,1.21,0,0,0-.73,1.13,3.36,3.36,0,0,1-3.33,3.7s-3-4.48-.6-7.93a8,8,0,0,1,6-3.21A2.86,2.86,0,0,1,199.73,130.82Z" fill="#24285b"></path><path d="M196.56,134.83a1,1,0,0,0,.14-1c-.22-.51-.64-1.19-1.33-1.08s-.85,1.24-.36,2a1,1,0,0,0,1.55,0Z" fill="#f4a28c"></path><path d="M222.18,253.92s1.48,2.59,4,2.36,3.62,2.1,1.49,3.13-8.45-.83-8.45-.83l-.6-4.62Z" fill="#68e1fd"></path><path d="M175.72,253.92s1.48,2.59,4,2.36,3.62,2.1,1.49,3.13-8.44-.83-8.44-.83l-.61-4.62Z" fill="#68e1fd"></path><path d="M200.86,144.14l6.9.29s23.11,2.91,31.07-6.13,5.57-24.88,5.57-24.88h6s12.89,39.2-24.59,50a20.06,20.06,0,0,0-13.72,14L209,188.46H171.15l-.76-18a18,18,0,0,0-7.92-14.25c-9-6-21.9-19.33-12.36-42.82h6.76S151,147.61,200.86,144.14Z" fill="#68e1fd"></path><path d="M198.39,149.27s40.47,13.86,44.36-17.79c0,0-3.49,16.85-33.81,13.07l-8.08-.41Z" opacity="0.08"></path><path d="M171.15,188.46H209l15.56,66.12h-7l-20.61-49.21a1.23,1.23,0,0,0-2.36.44l-.23,8.75a62.8,62.8,0,0,1-10.77,31.61l-5.72,8.41h-7.4l5.21-10c6.19-12.12,5-25.63,1-38.62Z" fill="#24285b"></path><path d="M152.68,113.5s-8.24,23.08,11.38,37.44c10.42,7.63,14.84,13,16.7,16.41a79.87,79.87,0,0,0,9.39,13.84l6.25,7.27H171.15l-.71-16.7a17.41,17.41,0,0,0-8-15.52s-24.67-13.45-12.36-42.82Z" opacity="0.08"></path><path d="M188.58,144.2s7.7-7.55,15.64,0C204.22,144.2,198.16,156,188.58,144.2Z" fill="#68e1fd"></path><path d="M204.22,144.2s-6.06,11.83-15.64,0c0,0,7.7-7.55,15.64,0" fill="#fff" opacity="0.46"></path><polygon points="151.14 113.45 149.94 109.25 155.72 109.25 155.72 113.45 151.14 113.45" fill="#f4a28c"></polygon><polygon points="244.71 113.45 243.51 109.25 249.29 109.25 249.29 113.45 244.71 113.45" fill="#f4a28c"></polygon><ellipse cx="152.99" cy="95.05" rx="12.01" ry="17.56" transform="translate(-20.98 48.4) rotate(-16.84)" fill="#c9c9c9"></ellipse><path d="M237.41,114.52c-22.78,6.89-62.33-1.29-69.23-24.07S189.67,38.93,212.44,32a43.09,43.09,0,1,1,25,82.48Z" fill="#ffd200"></path><rect x="143.74" y="78.31" width="38.83" height="27.34" transform="translate(203.92 -90.82) rotate(73.16)" fill="#24285b"></rect><path d="M178.19,96.22a.36.36,0,0,1,0-.11.5.5,0,0,1,.47-.54l44.11-3L212.42,58.44C201.78,65,176,81.08,174.72,82.08a.49.49,0,0,1-.24.15.5.5,0,0,1-.63-.34c-.16-.52-.16-.52,19.38-12.71,9.6-6,19.21-12,19.21-12a.51.51,0,0,1,.45,0,.52.52,0,0,1,.3.33L223.9,92.9a.49.49,0,0,1-.45.65l-44.74,3A.5.5,0,0,1,178.19,96.22Z" fill="#24285b"></path><path d="M100.27,245.89s-8.62-2.35-10.5-10.38c0,0,13.36-2.7,13.74,11.09Z" fill="#68e1fd" opacity="0.58"></path><path d="M101.33,245s-6-9.53-.73-18.43c0,0,10.16,6.45,5.65,18.45Z" fill="#68e1fd" opacity="0.73"></path><path d="M102.88,245s3.18-10,12.8-12c0,0,1.8,6.53-6.23,12Z" fill="#68e1fd"></path><polygon points="96.63 244.82 98.37 256.77 109.38 256.82 111 244.88 96.63 244.82" fill="#24285b"></polygon></svg>