<svg width="406" height="306" viewBox="0 0 406 306" fill="none" xmlns="http://www.w3.org/2000/svg">
<path opacity="0.3" d="M287.519 72.8954C318.223 82.8221 342.045 110.735 348.236 145.651C353.443 175.086 344.795 211.24 294.33 228.028C242.818 245.171 98.7798 253.403 72.0447 205.698C45.3096 157.993 50.8718 96.8189 105.783 75.1182C144.282 59.9135 227.532 53.5292 287.519 72.8954Z" fill="#E6E6E6"/>
<path opacity="0.45" d="M203 272.212C279.568 272.212 341.639 267.913 341.639 262.61C341.639 257.307 279.568 253.008 203 253.008C126.432 253.008 64.3612 257.307 64.3612 262.61C64.3612 267.913 126.432 272.212 203 272.212Z" fill="#E6E6E6"/>
<path d="M320.466 244.146H246.391V262.335H320.466V244.146Z" fill="#C9C9C9"/>
<path d="M325.906 225.959H259.16V244.148H325.906V225.959Z" fill="#E6E6E6"/>
<path d="M316.731 226.101L321.653 198.27H286.737L283.703 221.99L267.696 222.213V226.101H316.731Z" fill="#24285B"/>
<path d="M302.825 215.108C304.754 215.108 306.317 213.545 306.317 211.617C306.317 209.688 304.754 208.125 302.825 208.125C300.897 208.125 299.334 209.688 299.334 211.617C299.334 213.545 300.897 215.108 302.825 215.108Z" fill="white"/>
<path d="M203.477 133.37C203.761 135.505 203.761 137.669 203.477 139.805C203.367 140.31 203.063 140.751 202.629 141.032C202.196 141.314 201.669 141.412 201.163 141.307C200.35 141.186 199.588 140.835 198.968 140.295C198.347 139.756 197.894 139.05 197.661 138.262L196.362 134.933C196.168 134.24 196.195 133.504 196.439 132.828C196.683 132.151 197.131 131.567 197.722 131.157C199.803 129.452 203.284 131.015 203.477 133.37Z" fill="#F4A28C"/>
<path d="M196.565 135.502L195.124 148.108L202.137 148.403L200.371 139.115L196.565 135.502Z" fill="#F4A28C"/>
<path d="M203.67 135.807L204.807 137.248C204.878 137.329 204.927 137.427 204.949 137.533C204.971 137.639 204.964 137.749 204.93 137.851C204.896 137.954 204.836 138.046 204.756 138.118C204.675 138.19 204.577 138.24 204.472 138.263L203 138.608L203.67 135.807Z" fill="#F4A28C"/>
<path opacity="0.31" d="M200.838 141.125C199.958 140.945 199.15 140.511 198.514 139.877C198.863 141.682 199.882 143.288 201.366 144.373L200.838 141.125Z" fill="#CE8172"/>
<path d="M202.726 133.532C202.441 133.627 202.149 133.702 201.853 133.756C201.435 133.851 201.027 133.987 200.635 134.162L200.32 134.304C200.097 134.4 199.908 134.561 199.776 134.765C199.644 134.969 199.576 135.208 199.579 135.451C199.628 135.924 199.576 136.402 199.428 136.855C199.281 137.307 199.04 137.724 198.721 138.077C198.403 138.431 198.014 138.714 197.58 138.909C197.146 139.103 196.675 139.204 196.199 139.206C196.199 139.206 193.154 134.659 195.59 131.157C196.304 130.2 197.219 129.412 198.272 128.848C199.324 128.285 200.488 127.961 201.68 127.899C202.369 127.885 203.04 128.115 203.574 128.55C204.108 128.984 204.47 129.595 204.596 130.272C204.722 130.949 204.603 131.648 204.26 132.246C203.917 132.843 203.374 133.299 202.726 133.532Z" fill="#24285B"/>
<path d="M199.508 137.602C199.62 137.46 199.692 137.292 199.717 137.113C199.742 136.935 199.719 136.753 199.651 136.587C199.427 136.069 199.001 135.379 198.301 135.491C197.6 135.602 197.438 136.749 197.935 137.521C198.03 137.637 198.15 137.731 198.286 137.796C198.422 137.861 198.571 137.894 198.722 137.894C198.872 137.894 199.021 137.861 199.157 137.796C199.293 137.731 199.413 137.637 199.508 137.521V137.602Z" fill="#F4A28C"/>
<path d="M225.513 258.479C225.513 258.479 227.015 261.107 229.573 260.874C232.13 260.64 233.247 263.005 231.085 264.051C228.923 265.096 222.508 263.208 222.508 263.208L221.899 258.519L225.513 258.479Z" fill="#9ED6BE"/>
<path d="M178.356 258.479C178.356 258.479 179.858 261.107 182.416 260.874C184.974 260.64 186.09 263.005 183.928 264.051C181.766 265.096 175.362 263.208 175.362 263.208L174.742 258.519L178.356 258.479Z" fill="#9ED6BE"/>
<path d="M203.873 147.053L210.876 147.347C210.876 147.347 234.333 150.301 242.412 141.125C250.492 131.95 248.066 115.872 248.066 115.872H254.156C254.156 115.872 267.239 155.66 229.197 166.622C225.854 167.602 222.819 169.423 220.38 171.91C217.942 174.398 216.183 177.47 215.271 180.832L212.135 192.038H173.717L172.946 173.768C172.839 170.894 172.055 168.087 170.658 165.574C169.261 163.06 167.291 160.912 164.907 159.304C155.772 153.214 142.679 139.684 152.362 115.842H159.223C159.223 115.842 153.265 150.575 203.873 147.053Z" fill="#9ED6BE"/>
<path opacity="0.08" d="M201.366 152.26C201.366 152.26 242.443 166.328 246.391 134.203C246.391 134.203 242.849 151.306 212.074 147.469L203.873 147.053L201.366 152.26Z" fill="black"/>
<path d="M173.717 192.037H212.135L227.928 259.149H220.823L199.904 209.201C199.793 208.94 199.595 208.725 199.345 208.591C199.095 208.457 198.807 208.413 198.528 208.465C198.249 208.517 197.996 208.662 197.811 208.877C197.625 209.092 197.519 209.364 197.509 209.647L197.275 218.529C196.594 230.014 192.817 241.101 186.344 250.613L180.538 259.149H173.027L178.315 248.999C184.598 236.697 183.39 222.984 179.33 209.8L173.717 192.037Z" fill="#24285B"/>
<path opacity="0.08" d="M154.97 115.952C154.97 115.952 146.607 139.378 166.521 153.954C177.097 161.698 181.584 167.149 183.471 170.61C186.148 175.613 189.342 180.322 193.002 184.658L199.346 192.037H173.717L172.997 175.086C173.15 171.978 172.48 168.884 171.054 166.118C169.628 163.352 167.497 161.012 164.877 159.333C164.877 159.333 139.837 145.682 152.331 115.871L154.97 115.952Z" fill="black"/>
<path d="M191.409 147.113C191.409 147.113 199.224 139.45 207.283 147.113C207.283 147.113 201.132 159.09 191.409 147.113Z" fill="#9ED6BE"/>
<path opacity="0.46" d="M207.283 147.113C207.283 147.113 201.132 159.12 191.409 147.113C191.409 147.113 199.224 139.45 207.283 147.113Z" fill="white"/>
<path d="M153.407 115.902L152.189 111.639H158.056V115.902H153.407Z" fill="#F4A28C"/>
<path d="M248.381 115.902L247.163 111.639H253.029V115.902H248.381Z" fill="#F4A28C"/>
<path d="M160.444 114.288C166.887 112.337 169.799 103.119 166.948 93.6973C164.096 84.2758 156.56 78.2193 150.117 80.1697C143.673 82.1201 140.761 91.3388 143.613 100.76C146.464 110.182 154 116.238 160.444 114.288Z" fill="#C9C9C9"/>
<path d="M240.971 116.988C217.849 123.981 177.706 115.679 170.703 92.5569C163.699 69.4352 192.515 40.2641 215.627 33.2302C221.124 31.564 226.895 30.9969 232.611 31.5612C238.327 32.1255 243.876 33.8101 248.941 36.5189C254.006 39.2277 258.488 42.9076 262.131 47.3485C265.774 51.7894 268.507 56.9043 270.173 62.4013C271.839 67.8982 272.406 73.6695 271.842 79.3857C271.277 85.1018 269.593 90.6508 266.884 95.7159C264.175 100.781 260.495 105.263 256.054 108.906C251.614 112.549 246.499 115.281 241.002 116.947L240.971 116.988Z" fill="#FFD200"/>
<path d="M184.586 108.957L173.169 71.2344L146.609 79.2736L158.026 116.996L184.586 108.957Z" fill="#24285B"/>
<path d="M180.863 98.4131C180.857 98.3761 180.857 98.3384 180.863 98.3014C180.857 98.2339 180.865 98.166 180.886 98.1017C180.908 98.0374 180.941 97.9779 180.986 97.9268C181.03 97.8757 181.084 97.8341 181.145 97.8043C181.206 97.7745 181.272 97.7572 181.34 97.7533L226.112 94.7083L215.606 60.0664C204.807 66.7248 178.64 83.046 177.341 84.061C177.276 84.1346 177.192 84.1875 177.097 84.2132C177.033 84.2334 176.965 84.2405 176.897 84.234C176.83 84.2275 176.764 84.2076 176.705 84.1755C176.645 84.1433 176.593 84.0995 176.55 84.0468C176.508 83.994 176.476 83.9332 176.458 83.8681C176.295 83.3403 176.295 83.3403 196.128 70.9675C205.872 64.8775 215.627 58.7875 215.627 58.7875C215.698 58.7525 215.776 58.7344 215.855 58.7344C215.934 58.7344 216.012 58.7525 216.083 58.7875C216.156 58.8172 216.221 58.8627 216.273 58.9206C216.326 58.9786 216.365 59.0475 216.388 59.1224L227.258 95.0433C227.284 95.1171 227.292 95.196 227.281 95.2734C227.271 95.3508 227.242 95.4247 227.197 95.4889C227.153 95.5532 227.094 95.6061 227.025 95.6433C226.956 95.6805 226.88 95.7009 226.802 95.703L181.391 98.748C181.278 98.7591 181.165 98.7322 181.069 98.6715C180.973 98.6108 180.901 98.5198 180.863 98.4131Z" fill="#24285B"/>
<path opacity="0.58" d="M101.774 250.329C101.774 250.329 93.0248 247.944 91.1166 239.793C91.1166 239.793 104.677 237.053 105.063 251.05L101.774 250.329Z" fill="#9ED6BE"/>
<path opacity="0.73" d="M102.85 249.425C102.85 249.425 96.76 239.752 102.109 230.719C102.109 230.719 112.421 237.265 107.844 249.445L102.85 249.425Z" fill="#9ED6BE"/>
<path d="M104.423 249.424C104.423 249.424 107.651 239.274 117.415 237.244C117.415 237.244 119.242 243.872 111.092 249.424H104.423Z" fill="#9ED6BE"/>
<path d="M98.0795 249.242L99.8456 261.371L111.021 261.422L112.665 249.303L98.0795 249.242Z" fill="#24285B"/>
</svg>
