<svg id="Layer_1" data-name="Layer 1" xmlns="http://www.w3.org/2000/svg" viewBox="0 0 400 300" width="406" height="306" class="illustration styles_illustrationTablet__1DWOa"><title>_</title><path d="M167.27,242.08c-7.9,4.4-17.7,4.94-26.9,4.79-8.46-.14-17-.71-25-3.55s-15.34-8.21-19-15.85c-3.92-8.25-6.87-48.74-7.63-60.8-.49-7.79-.64-15.86,2.27-23.11C94.35,135.31,101.4,129,109.37,125s16.86-5.67,25.69-6.7c10.92-1.29,22.18-1.54,32.72,1.6S188.12,130,192.66,140c2.47,5.46,3.29,11.53,3.48,17.52.51,15.46-2.93,30.72-7.46,45.41-3.82,12.34-7.17,28.46-18,36.85A26.72,26.72,0,0,1,167.27,242.08Z" fill="#24285b"></path><path d="M219.4,108.48s12.53,26.09,1.07,58S234,214.56,185.6,218.84,219.4,108.48,219.4,108.48Z" fill="#68e1fd"></path><path d="M219.4,108.48s12.53,26.09,1.07,58S234,214.56,185.6,218.84,219.4,108.48,219.4,108.48Z" fill="#fff" opacity="0.46"></path><path d="M194.88,57.47s-1.08,8-3.59,13a4.08,4.08,0,0,1-5.5,1.78c-2.48-1.3-5.45-3.78-5.39-8.16l-.82-7.46a7.29,7.29,0,0,1,4.84-6.9C189.61,47.53,195.79,52.6,194.88,57.47Z" fill="#f4a28c"></path><polygon points="180.35 58.73 164.31 79.98 176.66 87.98 183.2 69.78 180.35 58.73" fill="#f4a28c"></polygon><path d="M193.94,62.51l1.52,3.55a1.3,1.3,0,0,1-1.24,1.81l-3.16-.11Z" fill="#f4a28c"></path><path d="M183,70.29s-3.65-4-4.1-6.43c0,0-3.92,9.88.9,15.31Z" fill="#ce8172" opacity="0.31"></path><path d="M184.56,61.06s.62-3.06-1.72-3.34-3.28,4.14-.25,5.25Z" fill="#f4a28c"></path><path d="M177.46,53.76l.41,3.36s-1.08,7.71,2,13.25,9.85,7.57,12.49,2.95c3-5.3-1.29-5.56-6.18-7.93s-1.27-8.74-1.27-8.74a6.2,6.2,0,0,0,5.78-.45l3.57-.24a5.64,5.64,0,0,0,5.15-6.83,7.56,7.56,0,0,0-3.1-4.92C191.52,41.1,176,43.67,177.46,53.76Z" fill="#24285b"></path><path d="M181.51,56.31s-2.71-3.7-5.3-1.39.5,6.3,4,5.72A6.46,6.46,0,0,1,181.51,56.31Z" fill="#f4a28c"></path><path d="M186.83,78.16l-14.49-2.5s-48.22.07-56.66,16.58-6.66,78,21.22,128.43L194,222.32s-3.17-37.06,7.47-57.24S245.2,102,186.83,78.16Z" fill="#68e1fd"></path><path d="M141.8,98.16s15.83,13.88,12.65,29.2c-.51,2.48-1,5.47-1.58,8.75A87.4,87.4,0,0,0,173.4,207.7l10,11.4-46.47,1.57-4-7.79-21.69-36Z" opacity="0.08"></path><path d="M114.88,93.76c-10.58,14.89-20,47.77-11.82,94.09a31.06,31.06,0,0,0,28.66,25.54l43.63,2.76V201.92l-33.16-4.8a12.71,12.71,0,0,1-10.34-16.29c5.84-19.23,14.89-54.07,12.55-78.91C143,86.84,123.65,81.41,114.88,93.76Z" fill="#68e1fd"></path><path d="M114.88,93.76c-10.58,14.89-20,47.77-11.82,94.09a31.06,31.06,0,0,0,28.66,25.54l43.63,2.76V201.92l-33.16-4.8a12.71,12.71,0,0,1-10.34-16.29c5.84-19.23,14.89-54.07,12.55-78.91C143,86.84,123.65,81.41,114.88,93.76Z" fill="#fff" opacity="0.46"></path><path d="M176.3,204.56s19-.48,16.33,9.44-16.33,2.15-16.33,2.15Z" fill="#f4a28c"></path><polygon points="259.68 221.17 270.54 159.8 193.54 159.8 186.86 212.12 151.56 212.61 151.56 221.17 259.68 221.17" fill="#ffd200"></polygon><circle cx="229.02" cy="189.23" r="7.71" fill="#fff"></circle><rect x="66.71" y="219.72" width="266.59" height="37.31" transform="translate(400 476.76) rotate(-180)" fill="#e6e6e6"></rect><rect x="66.71" y="219.72" width="74.78" height="37.31" opacity="0.09"></rect><path d="M294.59,211.16s-7.9-2.16-9.62-9.51c0,0,12.24-2.47,12.59,10.16Z" fill="#68e1fd" opacity="0.58"></path><path d="M295.56,210.38s-5.52-8.73-.66-16.88c0,0,9.3,5.91,5.17,16.9Z" fill="#68e1fd" opacity="0.73"></path><path d="M297,210.38s2.92-9.21,11.73-10.95c0,0,1.65,6-5.71,11Z" fill="#68e1fd"></path><polygon points="291.25 210.18 292.85 221.13 302.94 221.17 304.42 210.23 291.25 210.18" fill="#24285b"></polygon><polygon points="238.45 105.03 238.45 136.35 256.92 136.35 256.92 150.5 267.58 136.35 297.84 136.35 297.84 105.03 238.45 105.03" fill="#e6e6e6"></polygon><polygon points="270.54 67.87 225.3 67.87 225.3 96.86 231.64 96.86 231.64 109.46 238.81 96.86 270.54 96.86 270.54 67.87" fill="#e6e6e6"></polygon><polygon points="308.87 64.75 279.64 64.75 279.64 89.77 299.56 89.77 304.5 96.06 304.5 89.77 308.87 89.77 308.87 64.75" fill="#e6e6e6"></polygon></svg>