<svg width="406" height="306" viewBox="0 0 406 306" fill="none" xmlns="http://www.w3.org/2000/svg">
<path d="M169.779 246.461C161.76 250.927 151.813 251.475 142.475 251.323C133.889 251.181 125.22 250.602 117.1 247.72C108.98 244.837 101.53 239.387 97.8155 231.632C93.8367 223.258 90.8424 182.161 90.071 169.92C89.5737 162.013 89.4214 153.822 92.3751 146.463C95.7652 138.09 102.921 131.685 111.01 127.625C119.1 123.565 128.123 121.87 137.086 120.825C148.17 119.515 159.599 119.261 170.297 122.449C180.995 125.636 190.942 132.7 195.55 142.85C198.057 148.392 198.889 154.553 199.082 160.633C199.6 176.325 196.108 191.814 191.51 206.724C187.633 219.249 184.233 235.611 173.24 244.127C172.148 244.993 170.991 245.773 169.779 246.461Z" fill="#24285B"/>
<path d="M222.691 110.857C222.691 110.857 235.409 137.339 223.777 169.727C212.145 202.116 237.51 218.529 188.384 222.873C139.258 227.217 222.691 110.857 222.691 110.857Z" fill="#9ED6BE"/>
<path opacity="0.46" d="M222.691 110.857C222.691 110.857 235.409 137.339 223.777 169.727C212.145 202.116 237.51 218.529 188.384 222.873C139.258 227.217 222.691 110.857 222.691 110.857Z" fill="white"/>
<path d="M197.803 59.0823C197.803 59.0823 196.707 67.2023 194.159 72.2773C193.912 72.7632 193.572 73.1955 193.157 73.5495C192.742 73.9034 192.262 74.172 191.743 74.3399C191.225 74.5077 190.678 74.5715 190.135 74.5276C189.591 74.4837 189.062 74.3329 188.577 74.084C186.06 72.7645 183.045 70.2473 183.106 65.8016L182.274 58.2297C182.267 56.6973 182.735 55.2005 183.615 53.946C184.495 52.6915 185.743 51.7411 187.186 51.2262C192.454 48.9932 198.727 54.1392 197.803 59.0823Z" fill="#F4A28C"/>
<path d="M183.055 60.3613L166.775 81.9301L179.31 90.0501L185.948 71.5771L183.055 60.3613Z" fill="#F4A28C"/>
<path d="M196.849 64.1973L198.392 67.8005C198.479 68.0047 198.513 68.2276 198.492 68.4486C198.47 68.6696 198.393 68.8815 198.267 69.0647C198.142 69.2479 197.972 69.3964 197.774 69.4966C197.575 69.5968 197.355 69.6453 197.133 69.6377L193.926 69.526L196.849 64.1973Z" fill="#F4A28C"/>
<path opacity="0.31" d="M185.745 72.0948C185.745 72.0948 182.04 68.0348 181.583 65.5684C181.583 65.5684 177.605 75.5966 182.497 81.108L185.745 72.0948Z" fill="#CE8172"/>
<path d="M187.328 62.7253C187.328 62.7253 187.958 59.6194 185.583 59.3352C183.207 59.051 182.253 63.5373 185.329 64.6639L187.328 62.7253Z" fill="#F4A28C"/>
<path d="M180.122 55.3168L180.538 58.7272C180.538 58.7272 179.442 66.5529 182.568 72.176C185.694 77.7991 192.566 79.8595 195.245 75.1702C198.29 69.7907 193.936 69.5268 188.973 67.1213C184.009 64.7157 187.684 58.2502 187.684 58.2502C188.625 58.6579 189.651 58.8294 190.674 58.7498C191.696 58.6702 192.684 58.3419 193.55 57.7934L197.174 57.5498C197.997 57.4971 198.798 57.2673 199.524 56.8762C200.25 56.485 200.882 55.9417 201.379 55.2835C201.875 54.6252 202.223 53.8675 202.4 53.0622C202.576 52.2568 202.577 51.4229 202.401 50.6174C202.232 49.6185 201.867 48.663 201.327 47.8059C200.787 46.9487 200.083 46.2071 199.255 45.6236C194.393 42.4669 178.64 45.0755 180.122 55.3168Z" fill="#24285B"/>
<path d="M184.233 57.9038C184.233 57.9038 181.482 54.1483 178.853 56.493C176.224 58.8376 179.361 62.8875 182.913 62.2988C182.809 60.7227 183.278 59.1621 184.233 57.9038Z" fill="#F4A28C"/>
<path d="M189.632 80.0824L174.925 77.5449C174.925 77.5449 125.982 77.616 117.415 94.3736C108.849 111.131 110.655 173.544 138.953 224.73L196.91 226.405C196.91 226.405 193.692 188.789 204.492 168.306C215.292 147.824 248.878 104.28 189.632 80.0824Z" fill="#9ED6BE"/>
<path opacity="0.08" d="M143.927 100.383C143.927 100.383 159.994 114.471 156.767 130.021C156.249 132.538 155.752 135.573 155.163 138.902C153.07 151.801 153.853 165.003 157.455 177.565C161.057 190.126 167.39 201.736 176.001 211.566L186.151 223.137L138.984 224.73L134.924 216.824L112.909 180.284L143.927 100.383Z" fill="black"/>
<path d="M116.603 95.9174C105.865 111.031 96.3032 144.404 104.606 191.419C105.848 198.375 109.391 204.711 114.667 209.412C119.942 214.113 126.643 216.906 133.696 217.342L177.98 220.143V205.7L144.323 200.828C142.482 200.562 140.72 199.901 139.158 198.89C137.596 197.88 136.272 196.544 135.275 194.973C134.278 193.402 133.632 191.635 133.383 189.792C133.133 187.948 133.285 186.073 133.828 184.293C139.755 164.775 148.941 129.412 146.566 104.2C145.145 88.8935 125.505 83.3821 116.603 95.9174Z" fill="#9ED6BE"/>
<path opacity="0.46" d="M116.603 95.9174C105.865 111.031 96.3032 144.404 104.606 191.419C105.848 198.375 109.391 204.711 114.667 209.412C119.942 214.113 126.643 216.906 133.696 217.342L177.98 220.143V205.7L144.323 200.828C142.482 200.562 140.72 199.901 139.158 198.89C137.596 197.88 136.272 196.544 135.275 194.973C134.278 193.402 133.632 191.635 133.383 189.792C133.133 187.948 133.285 186.073 133.828 184.293C139.755 164.775 148.941 129.412 146.566 104.2C145.145 88.8935 125.505 83.3821 116.603 95.9174Z" fill="white"/>
<path d="M178.944 208.379C178.944 208.379 198.229 207.892 195.519 217.96C192.809 228.029 178.944 220.143 178.944 220.143V208.379Z" fill="#F4A28C"/>
<path d="M263.575 225.238L274.598 162.947H196.443L189.663 216.052L153.833 216.549V225.238H263.575Z" fill="#FFD200"/>
<path d="M232.455 200.643C236.777 200.643 240.281 197.14 240.281 192.818C240.281 188.496 236.777 184.992 232.455 184.992C228.133 184.992 224.63 188.496 224.63 192.818C224.63 197.14 228.133 200.643 232.455 200.643Z" fill="white"/>
<path d="M67.7005 261.646L338.289 261.646V223.777L67.7005 223.777V261.646Z" fill="#E6E6E6"/>
<path opacity="0.09" d="M143.612 223.766H67.7107V261.635H143.612V223.766Z" fill="black"/>
<path opacity="0.58" d="M299.009 215.077C299.009 215.077 290.99 212.885 289.245 205.425C289.245 205.425 301.668 202.918 302.023 215.737L299.009 215.077Z" fill="#9ED6BE"/>
<path opacity="0.73" d="M299.993 214.286C299.993 214.286 294.391 205.425 299.323 197.152C299.323 197.152 308.763 203.151 304.571 214.306L299.993 214.286Z" fill="#9ED6BE"/>
<path d="M301.455 214.286C301.455 214.286 304.419 204.938 313.361 203.172C313.361 203.172 315.036 209.262 307.565 214.337L301.455 214.286Z" fill="#9ED6BE"/>
<path d="M295.619 214.082L297.243 225.196L307.484 225.237L308.986 214.133L295.619 214.082Z" fill="#24285B"/>
<path d="M242.027 107.355V139.145H260.774V153.508L271.594 139.145H302.308V107.355H242.027Z" fill="#E6E6E6"/>
<path d="M274.598 69.6387H228.679V99.0635H235.115V111.853L242.392 99.0635H274.598V69.6387Z" fill="#E6E6E6"/>
<path d="M313.503 66.4707H283.835V91.866H304.053L309.067 98.2504V91.866H313.503V66.4707Z" fill="#E6E6E6"/>
</svg>
