<svg id="Layer_1" data-name="Layer 1" xmlns="http://www.w3.org/2000/svg" viewBox="0 0 400 300" width="406" height="306" class="illustration styles_illustrationTablet__1DWOa"><ellipse cx="200" cy="261.64" rx="112.1" ry="13.43" fill="#e6e6e6" opacity="0.45"></ellipse><path d="M311.56,85.83c28.68,17.47,45.67,49.51,43,83-1.38,17.11-7.74,33.62-24.55,42.63-44.83,24-240.54,24.45-269.51-18s-18.19-102.84,44.8-128C159.88,43.62,237.51,40.74,311.56,85.83Z" fill="#e6e6e6" opacity="0.3"></path><path d="M294.17,171.39h-1v-4.84a3.35,3.35,0,0,0-3.34-3.34H275a3.35,3.35,0,0,0-3.34,3.34v4.84h-1v-4.84a4.35,4.35,0,0,1,4.34-4.34h14.84a4.35,4.35,0,0,1,4.34,4.34Z" fill="#ffd200"></path><path d="M278,154.65a5.91,5.91,0,0,1-.56,1.22c-.9,1.45-1.57,2.41-1.53,4.2,0,1.56-.1,6.37,1.37,7.07a26,26,0,0,0,4.47,1.64c10.73,2.84,7.47-13.8,5.14-19.07a4.69,4.69,0,0,0-1-1.55,5.5,5.5,0,0,0-2.61-1.1C278.42,145.83,279.23,151.13,278,154.65Z" fill="#f4a28c"></path><path d="M87.78,99.59h0a1.31,1.31,0,0,1,1.31,1.31v15.33a0,0,0,0,1,0,0H86.46a0,0,0,0,1,0,0V100.9A1.31,1.31,0,0,1,87.78,99.59Z" fill="#24285b"></path><path d="M100.67,95.88S92.92,91,91.38,91.23a14.69,14.69,0,0,0-5.94,3c-2.77,2.18-3.24,4.76-2.63,8.16a4.64,4.64,0,0,0,1,2.46,1.68,1.68,0,0,0,2.39.16,6.45,6.45,0,0,0,.37-.54,3.55,3.55,0,0,1,.78-.72,2.37,2.37,0,0,1,.81-.44.73.73,0,0,1,.81.31,2.39,2.39,0,0,1,.14.6,1.25,1.25,0,0,0,1.1.84,8.7,8.7,0,0,0,2.34-.4c3.4-.7,6.77-1.68,10.24-.77Z" fill="#f4a28c"></path><path d="M98,151.24a.3.3,0,0,1-.13,0,.42.42,0,0,1-.28-.53l10.55-34.58a.45.45,0,0,1,.82,0l10.54,34.58a.42.42,0,0,1-.28.53.43.43,0,0,1-.54-.28L108.53,117.7,98.39,150.94A.44.44,0,0,1,98,151.24Z" fill="#24285b"></path><path d="M96.43,150.81h24.2a0,0,0,0,1,0,0v.65a10.69,10.69,0,0,1-10.69,10.69h-2.82a10.69,10.69,0,0,1-10.69-10.69v-.65a0,0,0,0,1,0,0Z" fill="#ffd200"></path><path d="M77.58,151.24a.43.43,0,0,1-.41-.3L67,117.7,56.89,150.94a.43.43,0,0,1-.53.28.42.42,0,0,1-.29-.53l10.55-34.58a.45.45,0,0,1,.82,0L78,150.69a.42.42,0,0,1-.29.53A.25.25,0,0,1,77.58,151.24Z" fill="#24285b"></path><path d="M54.93,150.81h24.2a0,0,0,0,1,0,0v.65a10.69,10.69,0,0,1-10.69,10.69H65.62a10.69,10.69,0,0,1-10.69-10.69v-.65a0,0,0,0,1,0,0Z" fill="#ffd200"></path><path d="M108.53,116.66H67a.43.43,0,1,1,0-.85h41.5a.43.43,0,0,1,0,.85Z" fill="#24285b"></path><path d="M183,73.39s-54.78,28.55-83.5,20.38v11.37s20.27,11.73,45.05,7.08,38.45-14,38.45-14Z" fill="#68e1fd"></path><path d="M183,73.39s-54.78,28.55-83.5,20.38v11.37s20.27,11.73,45.05,7.08,38.45-14,38.45-14Z" fill="#fff" opacity="0.46"></path><path d="M184.37,48.58a33.66,33.66,0,0,0,.58,8.89,2.72,2.72,0,0,0,3.33,1.89,6,6,0,0,0,4.58-4.56l1.52-4.71A4.82,4.82,0,0,0,192.17,45C189.11,42.85,184.44,45.3,184.37,48.58Z" fill="#f4a28c"></path><polygon points="193.45 51.45 198.5 68.29 189.03 70.41 189.16 57.3 193.45 51.45" fill="#f4a28c"></polygon><path d="M184.31,52l-1.46,2.09a.86.86,0,0,0,.56,1.34l2.06.35Z" fill="#f4a28c"></path><path d="M189.17,59.05s1.22-.26,3.35-2.36c0,0,.46,3.48-3.42,6.21Z" fill="#ce8172" opacity="0.31"></path><path d="M191.48,51.84c-.12.73-.64,1.35-.81,2.1a2.28,2.28,0,0,0,0,1.13,1.63,1.63,0,0,0,1.61,1.09c1.8-.08,2.63-3.26,3.23-4.62,0,0,1.91-5.72.2-8.5-1.35-2.2-4-1.57-5.77-3.15-1-1-1.79-2.41-3.17-2.73s-2.71.69-3.55,1.81a7.8,7.8,0,0,0-1.59,4A5.7,5.7,0,0,0,182.83,47c1.29,1.53,4,1.87,5.89,1.87a2.84,2.84,0,0,1,2.76,2.34A1.78,1.78,0,0,1,191.48,51.84Z" fill="#24285b"></path><path d="M189.65,51.68s0-2.06,1.56-1.93,1.56,3.12-.54,3.43Z" fill="#f4a28c"></path><path d="M240.16,111.09C234,156.53,230,169.5,230,169.5l-46.85.45s-.31-4.69-1-11.21c-1.36-12.15-4.15-30.68-9-37-7.44-9.67-22.08-38.2,14.09-50.92L195.39,69s17.67-2.18,31,5.8C235.7,80.42,242.88,91.08,240.16,111.09Z" fill="#68e1fd"></path><path d="M240.16,111.09C234,156.53,230,169.5,230,169.5l-46.85.45s-.31-4.69-1-11.21a56.76,56.76,0,0,1,9.77-7.44c3.07-1.93,6.28-3.75,8.78-6.37,3.62-3.79,5.46-8.89,7-13.9,4.36-14.69,7.07-18.53,6.8-33.86l5.37-21.08a14.49,14.49,0,0,1,6.52-1.28C235.7,80.42,242.88,91.08,240.16,111.09Z" opacity="0.08"></path><path d="M184.18,72s-3.38,46.37,11.21,67c0,0-.82-48.86,11.73-69.94C207.12,69,195.39,65.79,184.18,72Z" fill="#fff"></path><path d="M184.18,72,175,98.13l7.34,12.64L179.57,123l15.82,16S182.29,127.21,184.18,72Z" fill="#fff" opacity="0.27"></path><path d="M189.13,70.19c.06-1.33.93-1.08,2.21-1.45s2.6-1.8,3.71-.56c2.14,2.37-1.65,6.86-1.65,6.86h-3.5A20.1,20.1,0,0,1,189.13,70.19Z" fill="#24285b"></path><path d="M189.9,75h3.5s.33,27.16,2.64,43.21L195.39,139s-7.55-10.09-8.75-23C186.64,115.94,187,90.51,189.9,75Z" fill="#24285b"></path><path d="M184.18,72l4.29,3,3.43-5,3.58,4.45L207.12,69S193,63.32,184.18,72Z" fill="#68e1fd"></path><path d="M184.18,72l4.29,3,3.43-5,3.58,4.45L207.12,69S193,63.32,184.18,72Z" fill="#fff" opacity="0.55"></path><path d="M207.12,69l1.94,34.55L200,109l5.35,11.25-10,18.73S194.79,89.83,207.12,69Z" fill="#fff" opacity="0.27"></path><rect x="152.11" y="148.18" width="95.78" height="109.41" fill="#24285b"></rect><rect x="141.96" y="251.18" width="116.07" height="11.72" fill="#24285b"></rect><rect x="141.96" y="251.18" width="116.07" height="11.72" fill="#fff" opacity="0.08"></rect><rect x="141.96" y="147.68" width="116.07" height="11.72" fill="#24285b"></rect><rect x="141.96" y="147.68" width="116.07" height="11.72" fill="#fff" opacity="0.08"></rect><rect x="163.89" y="172.71" width="72.21" height="69.72" fill="#fff" opacity="0.08"></rect><path d="M222.06,72.62s56.48,23,62.35,32.86S290,153.53,290,153.53L276,152.69c-.29-1.52-8.73-34.64-12.67-39.38-3.35-4-47.48-7.42-48.83-16.14S218.67,72.23,222.06,72.62Z" fill="#68e1fd"></path><rect x="152.11" y="128" width="37.54" height="19.68" fill="#e6e6e6"></rect><rect x="148.88" y="121.24" width="35.67" height="6.76" fill="#e6e6e6"></rect><rect x="163.84" y="137.01" width="25.8" height="0.95" fill="#c1c1c1"></rect><rect x="152.3" y="144.05" width="25.8" height="0.95" fill="#c1c1c1"></rect><rect x="157.56" y="132.98" width="25.8" height="0.95" fill="#c1c1c1"></rect><rect x="158.74" y="123.67" width="25.8" height="0.95" fill="#c1c1c1"></rect><rect x="152.3" y="128" width="20.7" height="0.75" fill="#c1c1c1"></rect><rect x="257.11" y="170.35" width="50.6" height="36.22" fill="#ffd200"></rect><polygon points="299.86 183.78 264.96 183.78 257.11 170.35 307.71 170.35 299.86 183.78" fill="#fff" opacity="0.46"></polygon></svg>