<svg width="406" height="306" viewBox="0 0 406 306" fill="none" xmlns="http://www.w3.org/2000/svg">
<path d="M182.892 101.562C182.892 101.562 210.551 97.5023 254.166 39.1094L269.462 160.473C269.462 160.473 222.457 130.673 190.414 142.528C190.414 142.528 173.057 123.953 182.892 101.562Z" fill="#9ED6BE"/>
<path d="M279.205 161.023C298.251 159.092 310.796 128.98 307.225 93.7665C303.654 58.5528 285.32 31.5719 266.274 33.5032C247.229 35.4344 234.684 65.5464 238.254 100.76C241.825 135.974 260.159 162.955 279.205 161.023Z" fill="#CBE9DC"/>
<path d="M157.032 145.895C157.032 145.895 153.764 161.8 169.638 164.409C185.513 167.017 203.905 207.404 203.905 207.404L223.514 195.437C223.514 195.437 189.806 150.026 199.956 140.211L157.032 145.895Z" fill="#9ED6BE"/>
<path opacity="0.46" d="M157.032 145.895C157.032 145.895 153.764 161.8 169.638 164.409C185.513 167.017 203.905 207.404 203.905 207.404L223.514 195.437C223.514 195.437 189.806 150.026 199.956 140.211L157.032 145.895Z" fill="white"/>
<path d="M244.221 128.821L275.168 118.418L271.484 82.1719L237.624 84.3643C237.624 84.3643 234.903 104.36 244.221 128.821Z" fill="#9ED6BE"/>
<path opacity="0.18" d="M244.221 128.821L275.168 118.418L271.484 82.1719L237.624 84.3643C237.624 84.3643 234.903 104.36 244.221 128.821Z" fill="black"/>
<path d="M275.169 118.43C280.584 117.881 284.151 109.321 283.136 99.3096C282.121 89.2988 276.908 81.6285 271.493 82.1776C266.078 82.7267 262.51 91.2873 263.526 101.298C264.541 111.309 269.754 118.979 275.169 118.43Z" fill="#9ED6BE"/>
<path d="M186.171 100.734C186.171 100.734 140.496 111.575 137.939 121.197C135.381 130.819 143.399 152.662 154.747 152.266C166.095 151.87 189.582 141.578 189.582 141.578C189.582 141.578 177.889 119.228 186.171 100.734Z" fill="#CBE9DC"/>
<path d="M98.4961 248.357L169.658 191.07L191.744 208.66L162.5 248.357H98.4961Z" fill="#F2BF8C"/>
<path d="M203.316 159.048C206.244 158.802 209.173 159.501 211.674 161.043C214.175 162.585 216.116 164.888 217.211 167.615C221.271 177.369 221.119 183.733 210.421 187.255C199.723 190.777 197.145 162.175 197.145 162.175L203.316 159.048Z" fill="#F2BF8C"/>
<path d="M193.277 141.1L201.986 159.868L211.182 154.671C212.279 154.065 213.114 153.074 213.524 151.89C213.934 150.706 213.892 149.411 213.405 148.256L209.893 139.801C209.893 139.801 199.956 138.198 193.277 141.1Z" fill="#24285B"/>
<path d="M167.891 195.328C167.891 195.328 171.21 163.934 182.527 160.178C193.844 156.423 207.648 164.238 201.03 172.643C194.413 181.047 185.988 171.861 185.988 171.861L199.041 197.947L191.743 208.665L167.891 195.328Z" fill="#F2BF8C"/>
<path d="M199.71 146.329C200.429 145.801 201.299 145.516 202.192 145.516C203.084 145.516 203.954 145.801 204.673 146.329C206.399 147.578 208.297 149.719 207.465 152.734C206.033 157.92 196.969 164.782 193.255 161.991C190.128 159.636 194.665 150.044 199.71 146.329Z" fill="#F4A28C"/>
<path d="M94 249H171L189.583 220.103L154.86 195.57L94 249Z" fill="#FFD200"/>
<path opacity="0.06" d="M177.525 211.578L134.5 246.5H172.5L189.583 220.104L177.525 211.578Z" fill="black"/>
</svg>
