<svg width="406" height="306" viewBox="0 0 406 306" fill="none" xmlns="http://www.w3.org/2000/svg">
<path opacity="0.3" d="M107.083 64.2477C74.095 77.4021 49.735 110.745 44.863 151.081C40.803 185.073 50.5166 222.638 107.631 233.296C218.793 254.124 322.892 260.051 349.465 203.861C376.037 147.671 367.866 51.4993 311.463 45.2773C266.61 40.3343 171.444 38.5682 107.083 64.2477Z" fill="#E6E6E6"/>
<path d="M302.561 152.066C302.561 151.447 302.47 131.248 305.058 130.903C307.646 130.558 307.91 138.769 307.91 138.769C307.91 138.769 317.766 134.446 319.837 138.333C321.907 142.22 321.044 150.168 317.807 152.066C314.569 153.964 313.138 154.096 313.138 154.096L311.798 160.744L302.561 152.066Z" fill="#F4A28C"/>
<path d="M241.489 102.332C241.489 102.332 268.478 109.214 268.681 131.574C268.884 153.935 256.704 193.073 274.07 196.27C291.437 199.468 301.831 151.143 301.831 151.143L314.203 156.137C314.203 156.137 301.008 238.687 255.506 225.066C210.003 211.445 241.489 102.332 241.489 102.332Z" fill="#9ED6BE"/>
<path opacity="0.44" d="M241.489 102.332C241.489 102.332 268.478 109.214 268.681 131.574C268.884 153.935 256.704 193.073 274.07 196.27C291.437 199.468 301.831 151.143 301.831 151.143L314.203 156.137C314.203 156.137 301.008 238.687 255.506 225.066C210.003 211.445 241.489 102.332 241.489 102.332Z" fill="white"/>
<path d="M207.73 57.5898L198.321 90.7905L216.987 94.6678L216.337 68.9578L207.73 57.5898Z" fill="#F4A28C"/>
<path opacity="0.31" d="M216.723 74.5821C214.439 73.7095 212.462 72.1847 211.039 70.1973C211.039 70.1973 210.562 76.5004 216.702 83.5039L216.723 74.5821Z" fill="#CE8172"/>
<path d="M198.321 90.7906L209.384 93.1149C209.384 93.1149 260.033 98.5756 262.093 127.168C264.154 155.761 235.541 228.81 235.541 228.81H158.797C158.797 228.81 97.2979 83.2288 198.321 90.7906Z" fill="#9ED6BE"/>
<path d="M235.541 228.779C235.287 229.947 232.953 259.229 232.953 259.229L143.338 253.485L145.054 219.543L235.541 228.779Z" fill="#9ED6BE"/>
<path opacity="0.09" d="M235.541 228.779C235.287 229.947 232.953 259.229 232.953 259.229L143.338 253.485L145.054 219.543L235.541 228.779Z" fill="black"/>
<path opacity="0.09" d="M191.693 117.281C191.693 117.281 197.925 135.135 181.685 146.787C165.445 158.44 173.372 202.318 191.125 209.403C208.877 216.487 180.031 231.641 167.719 225.44C155.407 219.238 153.701 215.066 153.701 215.066C153.701 215.066 142.252 182.059 141.085 160.997C139.918 139.936 191.693 117.281 191.693 117.281Z" fill="black"/>
<path d="M211.952 156.38C208.045 108.999 199.245 97.5095 179.554 92.8913C159.863 88.273 143.257 108.522 136.254 128.731C129.25 148.94 122.358 221.603 122.358 221.603L204.573 234.382C204.573 234.382 215.85 203.75 211.952 156.38ZM200.452 170.813L139.116 169.798C139.116 169.798 138.598 145.184 150.778 127.817C162.958 110.451 189.48 106.837 189.48 106.837C189.48 106.837 203.914 134.354 200.452 170.813Z" fill="#24285B"/>
<path d="M191.693 117.283C191.693 101.561 175.768 90.822 160.827 95.7245C147.835 99.9875 131.98 107.904 122.348 122.338C103.845 150.108 61.5496 231.257 168.906 234.384L172.053 222.437C172.053 222.437 107.59 204.614 136.061 166.906C158.188 137.573 191.744 139.552 191.693 117.283Z" fill="#9ED6BE"/>
<path opacity="0.44" d="M191.693 117.283C191.693 101.561 175.768 90.822 160.827 95.7245C147.835 99.9875 131.98 107.904 122.348 122.338C103.845 150.108 61.5496 231.257 168.906 234.384L172.053 222.437C172.053 222.437 107.59 204.614 136.061 166.906C158.188 137.573 191.744 139.552 191.693 117.283Z" fill="white"/>
<path d="M227.066 58.6057C227.066 58.6057 226.122 69.0906 223.168 75.6475C222.581 76.9102 221.519 77.8902 220.213 78.3747C218.908 78.8593 217.464 78.8094 216.195 78.2358C212.906 76.693 208.917 73.6683 208.735 67.9843L207.243 58.3824C207.243 58.3824 206.522 52.2924 213.12 49.156C219.717 46.0197 227.959 52.201 227.066 58.6057Z" fill="#F4A28C"/>
<path d="M226.132 65.1406L228.314 69.6472C228.437 69.9029 228.494 70.1854 228.478 70.4687C228.463 70.7521 228.377 71.0269 228.227 71.2679C228.077 71.5088 227.869 71.708 227.621 71.847C227.374 71.986 227.096 72.0602 226.812 72.0629H222.752L226.132 65.1406Z" fill="#F4A28C"/>
<path d="M171.616 224.05C171.616 224.05 183.076 222.202 186.841 230.14C190.607 238.077 168.855 234.342 168.855 234.342L171.616 224.05Z" fill="#F4A28C"/>
<path d="M204.604 68.6225L211.029 67.0594L214.926 65.1411C214.926 65.1411 217.738 64.9584 216.723 58.1376C216.723 58.1376 230.517 62.8878 232.334 54.717C234.313 45.7952 224.021 41.8265 216.723 42.5979C209.425 43.3693 207.172 50.0886 207.172 50.0886C207.172 50.0886 195.712 48.2616 204.604 68.6225Z" fill="#24285B"/>
<path d="M214.47 65.4757C214.47 65.4757 215.099 61.4766 212.044 61.2432C208.989 61.0097 208.045 66.8054 212.044 68.064L214.47 65.4757Z" fill="#F4A28C"/>
<path d="M226.995 66.9281L227.269 67.4863C224.633 67.0287 221.966 66.7742 219.291 66.7251C219.291 66.7251 219.291 66.654 219.22 66.6337C217.799 65.5375 216.428 64.3804 215.099 63.1827C214.934 63.0365 214.72 62.9587 214.5 62.9652C214.28 62.9717 214.071 63.062 213.916 63.2175C213.76 63.3731 213.67 63.5823 213.663 63.8022C213.657 64.0221 213.735 64.2362 213.881 64.4007C215.139 65.5477 216.449 66.6337 217.789 67.6792C217.291 68.2983 216.642 69.1814 216.053 70.0543C215.201 69.6589 214.389 69.1831 213.627 68.6333C212.444 67.9141 211.362 67.0402 210.409 66.0349C210.329 65.9542 210.234 65.8901 210.13 65.8462C210.025 65.8023 209.913 65.7795 209.799 65.779C209.685 65.7785 209.573 65.8004 209.468 65.8435C209.363 65.8865 209.267 65.9498 209.186 66.0298C209.106 66.1098 209.042 66.2048 208.998 66.3096C208.954 66.4143 208.931 66.5267 208.931 66.6403C208.93 66.7538 208.952 66.8664 208.995 66.9715C209.038 67.0766 209.101 67.1722 209.181 67.2529C210.273 68.3932 211.512 69.383 212.866 70.1964C213.602 70.6929 214.375 71.1307 215.18 71.5057C214.723 72.2771 214.449 72.876 214.561 73.0181C214.926 73.4545 220.955 78.154 222.752 77.6465C224.548 77.139 225.188 72.7948 225.634 72.7237C226.081 72.6527 228.882 72.7948 229.025 71.0388C229.167 69.2829 226.995 66.9281 226.995 66.9281Z" fill="#FFD200"/>
<path d="M169.048 181.744H172.824V175.948H169.048V181.744Z" fill="white"/>
<path opacity="0.09" d="M169.048 181.744H172.824V175.948H169.048V181.744Z" fill="black"/>
<path d="M177.564 200.725H164.369V186.393C164.369 185.576 164.53 184.767 164.843 184.012C165.155 183.257 165.614 182.571 166.192 181.993C166.769 181.415 167.455 180.957 168.21 180.644C168.965 180.332 169.774 180.171 170.591 180.171H171.363C172.18 180.171 172.989 180.332 173.744 180.644C174.498 180.957 175.184 181.415 175.762 181.993C176.34 182.571 176.798 183.257 177.111 184.012C177.424 184.767 177.584 185.576 177.584 186.393V200.725H177.564Z" fill="#FFD200"/>
<path opacity="0.09" d="M164.318 195.812H177.564V188.728H164.318V195.812Z" fill="black"/>
<path d="M168.145 175.432V176.162H174.976V176.985H175.585V175.432H168.145Z" fill="#FFD200"/>
<path d="M143.785 188.262L190.952 191.632C190.952 191.632 188.536 209.465 180.071 212.947C171.606 216.428 146.119 211.779 144.303 204.654C142.486 197.529 143.785 188.262 143.785 188.262Z" fill="#24285B"/>
<path opacity="0.2" d="M143.785 188.262L190.952 191.632C190.952 191.632 188.536 209.465 180.071 212.947C171.606 216.428 146.119 211.779 144.303 204.654C142.486 197.529 143.785 188.262 143.785 188.262Z" fill="white"/>
</svg>
