<svg width="406" height="306" viewBox="0 0 406 306" fill="none" xmlns="http://www.w3.org/2000/svg">
<path opacity="0.36" d="M246.32 82.6034V76.7266H179.33V82.6034C179.33 84.7139 178.491 86.7379 176.999 88.2303C175.507 89.7226 173.483 90.561 171.372 90.561C169.464 90.561 167.633 91.3192 166.284 92.6688C164.934 94.0184 164.176 95.8488 164.176 97.7574V178.105C164.176 182.546 165.94 186.806 169.081 189.947C172.222 193.088 176.482 194.852 180.923 194.852H245.711C250.153 194.852 254.414 193.088 257.557 189.948C260.699 186.807 262.466 182.547 262.468 178.105V97.7574C262.468 96.8115 262.282 95.8749 261.92 95.0011C261.557 94.1273 261.026 93.3336 260.357 92.6652C259.688 91.9968 258.893 91.4669 258.019 91.1059C257.145 90.7448 256.208 90.5597 255.262 90.561H254.247C252.141 90.5556 250.123 89.7146 248.637 88.2225C247.15 86.7305 246.317 84.7095 246.32 82.6034Z" fill="#9ED6BE"/>
<path d="M210.715 65.7278C219.982 65.7278 227.493 58.216 227.493 48.9498C227.493 39.6836 219.982 32.1719 210.715 32.1719C201.449 32.1719 193.938 39.6836 193.938 48.9498C193.938 58.216 201.449 65.7278 210.715 65.7278Z" fill="#FFD200"/>
<path d="M211.418 36.7387V39.7175H209.843V36.7387H211.418ZM211.226 53.2282V55.9444H209.651V53.2282H211.226ZM212.337 49.9161C212.337 49.5324 212.267 49.2059 212.125 48.9367C211.991 48.6674 211.768 48.4284 211.459 48.2197C211.156 48.011 210.745 47.8091 210.227 47.6139C209.352 47.2773 208.581 46.9205 207.914 46.5435C207.255 46.1598 206.74 45.6852 206.369 45.1197C205.999 44.5475 205.814 43.8239 205.814 42.9487C205.814 42.114 206.013 41.3903 206.41 40.7778C206.807 40.1652 207.356 39.6939 208.056 39.3641C208.763 39.0275 209.584 38.8592 210.52 38.8592C211.233 38.8592 211.879 38.9669 212.458 39.1823C213.037 39.391 213.535 39.7007 213.953 40.1113C214.37 40.5152 214.69 41.01 214.912 41.5957C215.134 42.1813 215.245 42.8511 215.245 43.6051H212.347C212.347 43.2012 212.304 42.8444 212.216 42.5347C212.129 42.2251 212.001 41.9659 211.832 41.7572C211.671 41.5485 211.476 41.3937 211.247 41.2927C211.018 41.185 210.765 41.1312 210.489 41.1312C210.079 41.1312 209.742 41.212 209.48 41.3735C209.217 41.5351 209.025 41.7539 208.904 42.0299C208.79 42.2991 208.732 42.6088 208.732 42.9588C208.732 43.3022 208.793 43.6017 208.914 43.8575C209.042 44.1133 209.261 44.349 209.57 44.5644C209.88 44.7731 210.304 44.9885 210.843 45.2106C211.718 45.5472 212.485 45.9107 213.145 46.3012C213.805 46.6916 214.32 47.1696 214.69 47.735C215.06 48.3005 215.245 49.0208 215.245 49.8959C215.245 50.7643 215.043 51.5048 214.639 52.1174C214.236 52.7233 213.67 53.1878 212.943 53.5109C212.216 53.8273 211.375 53.9855 210.419 53.9855C209.799 53.9855 209.183 53.9047 208.571 53.7431C207.958 53.5749 207.403 53.3056 206.905 52.9353C206.406 52.5651 206.009 52.0737 205.713 51.4611C205.417 50.8418 205.269 50.0811 205.269 49.179H208.177C208.177 49.6704 208.241 50.0811 208.369 50.4109C208.497 50.734 208.665 50.9932 208.874 51.1884C209.089 51.3769 209.331 51.5116 209.601 51.5923C209.87 51.6731 210.143 51.7135 210.419 51.7135C210.849 51.7135 211.203 51.6361 211.479 51.4813C211.762 51.3264 211.974 51.1144 212.115 50.8451C212.263 50.5691 212.337 50.2595 212.337 49.9161Z" fill="white"/>
<path d="M256.034 55.2188H169.789V76.7266H256.034V55.2188Z" fill="#9ED6BE"/>
<path opacity="0.09" d="M195.142 55.2157C194.325 53.2298 193.914 51.1004 193.934 48.9531L227.196 52.0895C226.999 53.1612 226.689 54.209 226.272 55.2157H195.142Z" fill="black"/>
<path d="M252.014 174.078V168.221H242.787C237.437 167.051 231.897 167.051 226.547 168.221H217.199V174.961C217.199 179.163 225.025 182.573 234.688 182.573C244.35 182.573 252.186 179.163 252.186 174.961C252.172 174.66 252.114 174.362 252.014 174.078Z" fill="#FFD200"/>
<path opacity="0.09" d="M252.014 174.078V168.221H242.787C237.437 167.051 231.897 167.051 226.547 168.221H217.199V174.961C217.199 179.163 225.025 182.573 234.688 182.573C244.35 182.573 252.186 179.163 252.186 174.961C252.172 174.66 252.114 174.362 252.014 174.078Z" fill="black"/>
<path d="M234.639 175.819C244.303 175.819 252.138 172.411 252.138 168.206C252.138 164.002 244.303 160.594 234.639 160.594C224.975 160.594 217.141 164.002 217.141 168.206C217.141 172.411 224.975 175.819 234.639 175.819Z" fill="#FFD200"/>
<path d="M211.903 174.083V168.227H202.676C197.307 167.049 191.745 167.049 186.375 168.227H177.027V174.966C177.027 179.169 184.863 182.579 194.526 182.579C204.189 182.579 212.025 179.169 212.025 174.966C212.021 174.668 211.98 174.371 211.903 174.083Z" fill="#FFD200"/>
<path opacity="0.09" d="M211.903 174.083V168.227H202.676C197.307 167.049 191.745 167.049 186.375 168.227H177.027V174.966C177.027 179.169 184.863 182.579 194.526 182.579C204.189 182.579 212.025 179.169 212.025 174.966C212.021 174.668 211.98 174.371 211.903 174.083Z" fill="black"/>
<path d="M194.526 175.819C204.19 175.819 212.025 172.411 212.025 168.206C212.025 164.002 204.19 160.594 194.526 160.594C184.862 160.594 177.027 164.002 177.027 168.206C177.027 172.411 184.862 175.819 194.526 175.819Z" fill="#FFD200"/>
<path d="M248.796 164.859V158.982H239.54C234.168 157.818 228.61 157.818 223.239 158.982H213.891V165.722C213.891 169.924 221.726 173.334 231.389 173.334C241.052 173.334 248.888 169.924 248.888 165.722C248.893 165.432 248.862 165.142 248.796 164.859Z" fill="#FFD200"/>
<path opacity="0.09" d="M248.796 164.859V158.982H239.54C234.168 157.818 228.61 157.818 223.239 158.982H213.891V165.722C213.891 169.924 221.726 173.334 231.389 173.334C241.052 173.334 248.888 169.924 248.888 165.722C248.893 165.432 248.862 165.142 248.796 164.859Z" fill="black"/>
<path d="M231.42 166.592C241.085 166.592 248.919 163.184 248.919 158.98C248.919 154.775 241.085 151.367 231.42 151.367C221.756 151.367 213.922 154.775 213.922 158.98C213.922 163.184 221.756 166.592 231.42 166.592Z" fill="#FFD200"/>
<path d="M250.26 155.336V149.469H241.033C235.667 148.292 230.109 148.292 224.743 149.469H215.395V156.198C215.395 160.4 223.22 163.811 232.883 163.811C242.546 163.811 250.382 160.4 250.382 156.198C250.382 155.906 250.341 155.616 250.26 155.336Z" fill="#FFD200"/>
<path opacity="0.09" d="M250.26 155.336V149.469H241.033C235.667 148.292 230.109 148.292 224.743 149.469H215.395V156.198C215.395 160.4 223.22 163.811 232.883 163.811C242.546 163.811 250.382 160.4 250.382 156.198C250.382 155.906 250.341 155.616 250.26 155.336Z" fill="black"/>
<path d="M232.881 157.077C242.546 157.077 250.38 153.668 250.38 149.464C250.38 145.26 242.546 141.852 232.881 141.852C223.217 141.852 215.383 145.26 215.383 149.464C215.383 153.668 223.217 157.077 232.881 157.077Z" fill="#FFD200"/>
<path d="M250.26 147.723V141.836H241.033C235.667 140.659 230.109 140.659 224.743 141.836H215.395V148.566C215.395 152.768 223.22 156.178 232.883 156.178C242.546 156.178 250.382 152.768 250.382 148.566C250.38 148.28 250.339 147.997 250.26 147.723Z" fill="#FFD200"/>
<path opacity="0.09" d="M250.26 147.723V141.836H241.033C235.667 140.659 230.109 140.659 224.743 141.836H215.395V148.566C215.395 152.768 223.22 156.178 232.883 156.178C242.546 156.178 250.382 152.768 250.382 148.566C250.38 148.28 250.339 147.997 250.26 147.723Z" fill="black"/>
<path d="M232.881 149.467C242.546 149.467 250.38 146.059 250.38 141.855C250.38 137.65 242.546 134.242 232.881 134.242C223.217 134.242 215.383 137.65 215.383 141.855C215.383 146.059 223.217 149.467 232.881 149.467Z" fill="#FFD200"/>
<path d="M241.419 90.2259L238.161 85.3438L230.488 90.4187C225.373 92.429 220.749 95.5129 216.927 99.4624L209.152 104.649L212.888 110.252C215.222 113.754 223.626 112.282 231.665 106.882C239.704 101.482 244.332 94.3367 241.998 90.8349C241.833 90.6073 241.638 90.4026 241.419 90.2259Z" fill="#FFD200"/>
<path opacity="0.09" d="M241.419 90.2259L238.161 85.3438L230.488 90.4187C225.373 92.429 220.749 95.5129 216.927 99.4624L209.152 104.649L212.888 110.252C215.222 113.754 223.626 112.282 231.665 106.882C239.704 101.482 244.332 94.3367 241.998 90.8349C241.833 90.6073 241.638 90.4026 241.419 90.2259Z" fill="black"/>
<path d="M227.928 101.297C235.967 95.9337 240.593 88.7505 238.259 85.2532C235.926 81.7558 227.517 83.2687 219.478 88.6322C211.439 93.9958 206.813 101.179 209.147 104.676C211.48 108.174 219.889 106.661 227.928 101.297Z" fill="#FFD200"/>
<path opacity="0.09" d="M220.722 153.703C220.722 153.703 236.048 156.636 235.764 168.207C235.48 179.778 237.946 182.417 237.946 182.417C233.156 182.863 228.325 182.349 223.736 180.905C216.438 178.53 220.722 153.703 220.722 153.703Z" fill="black"/>
<path d="M216.621 184.086C225.164 184.086 232.09 177.16 232.09 168.617C232.09 160.074 225.164 153.148 216.621 153.148C208.078 153.148 201.152 160.074 201.152 168.617C201.152 177.16 208.078 184.086 216.621 184.086Z" fill="#FFD200"/>
<g opacity="0.09">
<path opacity="0.09" d="M216.621 184.086C225.164 184.086 232.09 177.16 232.09 168.617C232.09 160.074 225.164 153.148 216.621 153.148C208.078 153.148 201.152 160.074 201.152 168.617C201.152 177.16 208.078 184.086 216.621 184.086Z" fill="black"/>
</g>
<path d="M212.297 184.086C220.84 184.086 227.765 177.16 227.765 168.617C227.765 160.074 220.84 153.148 212.297 153.148C203.754 153.148 196.828 160.074 196.828 168.617C196.828 177.16 203.754 184.086 212.297 184.086Z" fill="#FFD200"/>
<path d="M190.617 145.609C199.16 145.609 206.086 138.684 206.086 130.14C206.086 121.597 199.16 114.672 190.617 114.672C182.074 114.672 175.148 121.597 175.148 130.14C175.148 138.684 182.074 145.609 190.617 145.609Z" fill="#FFD200"/>
<g opacity="0.09">
<path opacity="0.09" d="M190.617 145.609C199.16 145.609 206.086 138.684 206.086 130.14C206.086 121.597 199.16 114.672 190.617 114.672C182.074 114.672 175.148 121.597 175.148 130.14C175.148 138.684 182.074 145.609 190.617 145.609Z" fill="black"/>
</g>
<path d="M190.617 141.289C199.16 141.289 206.086 134.363 206.086 125.82C206.086 117.277 199.16 110.352 190.617 110.352C182.074 110.352 175.148 117.277 175.148 125.82C175.148 134.363 182.074 141.289 190.617 141.289Z" fill="#FFD200"/>
<path opacity="0.09" d="M208.349 170.562C208.349 170.562 227.989 173.455 213.312 193.715C198.635 213.974 196.148 185.798 208.349 170.562Z" fill="black"/>
<path d="M169.503 198.672C169.503 198.672 188.545 161.574 206.419 168.78C210.631 170.485 209.017 177.966 206.916 184.005C206.639 184.798 206.573 185.649 206.726 186.475C206.879 187.3 207.244 188.072 207.787 188.713C208.329 189.353 209.03 189.842 209.819 190.129C210.608 190.416 211.458 190.492 212.286 190.349C226.059 187.974 251.992 183.955 258.113 186.37C266.548 189.699 261.249 199.311 235.489 207.279C215.473 213.471 210.52 219.002 195.701 228.889C173.015 243.911 159.465 215.237 169.503 198.672Z" fill="#F2BF8C"/>
<path d="M167.09 196.672L187.918 235.394L175.5 250H121L167.09 196.672Z" fill="#9ED6BE"/>
<path opacity="0.09" d="M152.5 250L183.267 226.141L187.916 235.397L175 250H152.5Z" fill="black"/>
</svg>
