<svg id="Layer_1" data-name="Layer 1" xmlns="http://www.w3.org/2000/svg" viewBox="0 0 400 300" width="406" height="306" class="illustration styles_illustrationTablet__1DWOa"><path d="M131,103.21s-22.38,33.16-21.17,58.72,0,37.73,0,37.73l34.54,2.84,6.84-19.21Z" fill="#f4a28c"></path><path d="M126.47,172.48s8.82,17.27,2,28.71l15.88,1.31,6.84-19.21S145.13,163.14,126.47,172.48Z" opacity="0.09"></path><polygon points="253.28 151.42 240.47 69.35 146.89 83.96 136.36 77.28 128.44 86.84 143.78 185.09 255.81 167.6 263.73 158.05 253.28 151.42" fill="#ffd200"></polygon><polygon points="253.28 151.42 240.47 69.35 146.89 83.96 136.36 77.28 128.44 86.84 143.78 185.09 255.81 167.6 263.73 158.05 253.28 151.42" opacity="0.09"></polygon><rect x="143.35" y="67.94" width="113.39" height="99.44" transform="translate(-15.75 32.26) rotate(-8.87)" fill="#ffd200"></rect><circle cx="159.95" cy="86.37" r="5.84" opacity="0.09"></circle><rect x="154.9" y="65.12" width="6.37" height="22.47" rx="2.67" transform="translate(-9.88 25.29) rotate(-8.87)" fill="#24285b"></rect><circle cx="181.81" cy="82.95" r="5.84" opacity="0.09"></circle><rect x="176.77" y="61.7" width="6.37" height="22.47" rx="2.67" transform="translate(-9.1 28.62) rotate(-8.87)" fill="#24285b"></rect><circle cx="202.91" cy="79.66" r="5.84" opacity="0.09"></circle><rect x="197.86" y="58.41" width="6.37" height="22.47" rx="2.67" transform="translate(-8.34 31.84) rotate(-8.87)" fill="#24285b"></rect><circle cx="224" cy="76.37" r="5.84" opacity="0.09"></circle><rect x="218.96" y="55.12" width="6.37" height="22.47" rx="2.67" transform="translate(-7.58 35.05) rotate(-8.87)" fill="#24285b"></rect><circle cx="153.68" cy="108.24" r="2.52" fill="#fff" opacity="0.46"></circle><circle cx="156.49" cy="126.25" r="2.52" fill="#fff" opacity="0.46"></circle><circle cx="159.3" cy="144.26" r="2.52" fill="#fff" opacity="0.46"></circle><line x1="165.14" y1="106.45" x2="235.91" y2="95.4" fill="none" stroke="#fff" stroke-linecap="round" stroke-linejoin="bevel" stroke-width="2"></line><line x1="167.95" y1="124.46" x2="238.73" y2="113.41" fill="none" stroke="#fff" stroke-linecap="round" stroke-linejoin="bevel" stroke-width="2"></line><line x1="170.76" y1="142.47" x2="241.54" y2="131.43" fill="none" stroke="#fff" stroke-linecap="round" stroke-linejoin="bevel" stroke-width="2"></line><path d="M128.44,141.08l21.83-17.24c7.92-6.25,17.88,5.16,10.42,12-.42.38-.88.77-1.39,1.15a48.86,48.86,0,0,0-16.2,21.73s3.65,18.26-9.74,23.74S102.83,166.69,128.44,141.08Z" fill="#f4a28c"></path><polygon points="104.56 196.01 151.16 202.5 147.97 245.51 95.09 240.64 104.56 196.01" fill="#68e1fd"></polygon><path d="M216,129.35c-6.25.22-9.16-7.66-4.46-11.79,9-7.88,24.37-16.91,43.25-9.77,30.43,11.49,44.43,61.77,44.43,61.77l-27.73,13.21S247,155.88,224.37,149.4c-8-2.31-6.32-14.37,2-13.83l.92.09c11.26,1.52,17.77,10.52,25.08,7.17s9.74-17.74-4.26-21.25C237.28,118.86,229.25,128.9,216,129.35Z" fill="#f4a28c"></path><polygon points="200.05 124.46 188.39 128.77 201.05 137.75 281.19 155.11 284.29 139 248.04 127.22 200.05 124.46" opacity="0.09"></polygon><rect x="203.03" y="125.46" width="72.42" height="12.43" transform="translate(33.35 -47.72) rotate(12.24)" fill="#24285b"></rect><polygon points="205.17 117.92 188.39 120.64 202.53 130.07 205.17 117.92" fill="#fff"></polygon><rect x="274.43" y="134.94" width="17.11" height="12.43" transform="translate(36.35 -56.78) rotate(12.24)" fill="#68e1fd"></rect><polygon points="261.57 179.98 303.82 168.29 323.65 245.51 267.66 245.51 261.57 179.98" fill="#68e1fd"></polygon><path d="M133.26,117.66a41.91,41.91,0,0,0-4.82,23.42l7.54-6Z" opacity="0.09"></path></svg>