<svg width="406" height="306" viewBox="0 0 406 306" fill="none" xmlns="http://www.w3.org/2000/svg">
<path d="M132.965 105.508C132.965 105.508 110.249 139.165 111.478 165.109C112.706 191.052 111.478 203.405 111.478 203.405L146.536 206.287L153.478 186.789L132.965 105.508Z" fill="#F4A28C"/>
<path opacity="0.09" d="M128.367 175.816C128.367 175.816 137.319 193.345 130.397 204.957L146.515 206.287L153.458 186.789C153.458 186.789 147.307 166.336 128.367 175.816Z" fill="black"/>
<path d="M257.079 154.442L244.077 71.1406L149.093 85.9698L138.405 79.1896L130.367 88.893L145.937 188.617L259.647 170.864L267.686 161.171L257.079 154.442Z" fill="#FFD200"/>
<path opacity="0.09" d="M257.079 154.442L244.077 71.1406L149.093 85.9698L138.405 79.1896L130.367 88.893L145.937 188.617L259.647 170.864L267.686 161.171L257.079 154.442Z" fill="black"/>
<path d="M252.121 61.4471L138.407 79.1934L153.97 178.918L267.684 161.172L252.121 61.4471Z" fill="#FFD200"/>
<path opacity="0.09" d="M162.349 94.3435C165.623 94.3435 168.277 91.6896 168.277 88.4159C168.277 85.1422 165.623 82.4883 162.349 82.4883C159.076 82.4883 156.422 85.1422 156.422 88.4159C156.422 91.6896 159.076 94.3435 162.349 94.3435Z" fill="black"/>
<path d="M159.217 66.9033L158.184 67.0645C156.706 67.2953 155.694 68.6812 155.925 70.1601L158.606 87.3391C158.836 88.8179 160.222 89.8296 161.701 89.5988L162.734 89.4376C164.213 89.2069 165.225 87.8209 164.994 86.3421L162.313 69.1631C162.082 67.6843 160.696 66.6726 159.217 66.9033Z" fill="#24285B"/>
<path opacity="0.09" d="M184.537 90.8728C187.811 90.8728 190.465 88.2189 190.465 84.9452C190.465 81.6715 187.811 79.0176 184.537 79.0176C181.263 79.0176 178.61 81.6715 178.61 84.9452C178.61 88.2189 181.263 90.8728 184.537 90.8728Z" fill="black"/>
<path d="M181.406 63.4307L180.373 63.5919C178.894 63.8227 177.883 65.2086 178.114 66.6874L180.794 83.8664C181.025 85.3452 182.411 86.357 183.89 86.1262L184.923 85.965C186.402 85.7342 187.414 84.3483 187.183 82.8695L184.502 65.6905C184.271 64.2116 182.885 63.1999 181.406 63.4307Z" fill="#24285B"/>
<path opacity="0.09" d="M205.954 87.5329C209.227 87.5329 211.881 84.8791 211.881 81.6053C211.881 78.3316 209.227 75.6777 205.954 75.6777C202.68 75.6777 200.026 78.3316 200.026 81.6053C200.026 84.8791 202.68 87.5329 205.954 87.5329Z" fill="black"/>
<path d="M202.813 60.0987L201.78 60.2599C200.301 60.4906 199.29 61.8766 199.52 63.3554L202.201 80.5344C202.432 82.0132 203.818 83.0249 205.297 82.7942L206.33 82.633C207.809 82.4022 208.82 81.0163 208.59 79.5374L205.909 62.3584C205.678 60.8796 204.292 59.8679 202.813 60.0987Z" fill="#24285B"/>
<path opacity="0.09" d="M227.36 84.1931C230.634 84.1931 233.288 81.5392 233.288 78.2655C233.288 74.9918 230.634 72.3379 227.36 72.3379C224.086 72.3379 221.432 74.9918 221.432 78.2655C221.432 81.5392 224.086 84.1931 227.36 84.1931Z" fill="black"/>
<path d="M224.23 56.7549L223.197 56.9161C221.718 57.1469 220.706 58.5328 220.937 60.0116L223.618 77.1906C223.849 78.6695 225.235 79.6812 226.714 79.4504L227.747 79.2892C229.226 79.0584 230.237 77.6725 230.006 76.1937L227.326 59.0147C227.095 57.5359 225.709 56.5241 224.23 56.7549Z" fill="#24285B"/>
<path opacity="0.46" d="M155.985 113.172C157.398 113.172 158.543 112.027 158.543 110.614C158.543 109.202 157.398 108.057 155.985 108.057C154.573 108.057 153.427 109.202 153.427 110.614C153.427 112.027 154.573 113.172 155.985 113.172Z" fill="white"/>
<path opacity="0.46" d="M158.837 131.452C160.25 131.452 161.395 130.306 161.395 128.894C161.395 127.481 160.25 126.336 158.837 126.336C157.425 126.336 156.28 127.481 156.28 128.894C156.28 130.306 157.425 131.452 158.837 131.452Z" fill="white"/>
<path opacity="0.46" d="M161.69 149.731C163.102 149.731 164.247 148.586 164.247 147.173C164.247 145.76 163.102 144.615 161.69 144.615C160.277 144.615 159.132 145.76 159.132 147.173C159.132 148.586 160.277 149.731 161.69 149.731Z" fill="white"/>
<path d="M167.617 108.796L239.449 97.5801" stroke="white" stroke-width="2.03" stroke-linecap="round" stroke-linejoin="bevel"/>
<path d="M170.469 127.077L242.311 115.861" stroke="white" stroke-width="2.03" stroke-linecap="round" stroke-linejoin="bevel"/>
<path d="M173.321 145.358L245.163 134.152" stroke="white" stroke-width="2.03" stroke-linecap="round" stroke-linejoin="bevel"/>
<path d="M130.367 143.946L152.524 126.447C160.563 120.104 170.672 131.685 163.1 138.627C162.674 139.013 162.207 139.409 161.689 139.795C154.238 145.449 148.538 153.095 145.246 161.851C145.246 161.851 148.951 180.385 135.36 185.947C121.77 191.509 104.372 169.94 130.367 143.946Z" fill="#F4A28C"/>
<path d="M106.128 199.699L153.427 206.287L150.19 249.942L96.5164 244.999L106.128 199.699Z" fill="#9ED6BE"/>
<path d="M219.24 132.041C212.896 132.264 209.943 124.266 214.713 120.074C223.848 112.076 239.449 102.91 258.612 110.157C289.498 121.82 303.708 172.854 303.708 172.854L275.562 186.262C275.562 186.262 250.705 158.969 227.735 152.391C219.615 150.047 221.321 137.806 229.765 138.354L230.699 138.445C242.128 139.988 248.736 149.123 256.155 145.723C263.575 142.323 266.042 127.717 251.832 124.154C240.839 121.393 232.689 131.584 219.24 132.041Z" fill="#F4A28C"/>
<path opacity="0.09" d="M203.051 127.076L191.216 131.451L204.066 140.566L285.408 158.186L288.554 141.834L251.761 129.878L203.051 127.076Z" fill="black"/>
<path d="M280.079 136.035L208.244 120.451L205.569 132.781L277.404 148.365L280.079 136.035Z" fill="#24285B"/>
<path d="M208.248 120.439L191.216 123.2L205.568 132.772L208.248 120.439Z" fill="white"/>
<path d="M297.044 139.705L280.073 136.023L277.398 148.353L294.37 152.035L297.044 139.705Z" fill="#9ED6BE"/>
<path d="M265.494 183.43L308.377 171.564L328.505 249.943H271.675L265.494 183.43Z" fill="#9ED6BE"/>
<path opacity="0.09" d="M135.259 120.176C131.354 127.456 129.654 135.716 130.367 143.947L138.02 137.857L135.259 120.176Z" fill="black"/>
</svg>
