<svg id="Layer_1" data-name="Layer 1" xmlns="http://www.w3.org/2000/svg" viewBox="0 0 400 300" width="406" height="306" class="illustration styles_illustrationTablet__1DWOa"><title>62_office-work_two-color</title><path d="M233.91,214.63s1.59,4.35-1.22,7.12-1.13,6.39,2.23,4.89,7.44-10.83,7.44-10.83l-3.83-4.19Z" fill="#68e1fd"></path><path d="M233.91,214.63s1.59,4.35-1.22,7.12-1.13,6.39,2.23,4.89,7.44-10.83,7.44-10.83l-3.83-4.19Z" opacity="0.08"></path><polygon points="215.44 193.83 233 215.34 238.03 211.7 221.09 176.5 215.44 183.73 215.44 193.83" fill="#24285b"></polygon><polyline points="215.44 183.73 215.44 193.83 233 215.34" opacity="0.08"></polyline><path d="M236.89,211.2s1.59,4.34-1.22,7.12-1.13,6.38,2.22,4.89,7.45-10.83,7.45-10.83l-3.83-4.2Z" fill="#68e1fd"></path><path d="M280.43,154.8s2.4,14.7-7.26,17.2c-6.29,1.63-24.41,2.19-36.32,2.39a7,7,0,0,0-6.19,10.06l11.57,23.88-5.41,4.34-20.9-25.59a16.72,16.72,0,0,1,6.28-25.92l14.62-6.36Z" fill="#24285b"></path><path d="M193.92,128.9s-12-2.53-10,4.22l13.87.18Z" fill="#f4a28c"></path><path d="M193.92,128.9s-12-2.53-10,4.22l13.87.18Z" opacity="0.08"></path><path d="M219.56,74.35a12.7,12.7,0,0,0-16.24,16.3l.17.42C209,105.29,238,122.64,238,122.64l-39.14,6.65,1.85,9s41.35,7.94,56.49-4.43C271.11,122.55,251.7,86,219.56,74.35Z" fill="#68e1fd"></path><path d="M219.56,74.35a12.7,12.7,0,0,0-16.24,16.3l.17.42C209,105.29,238,122.64,238,122.64l-39.14,6.65,1.85,9s41.35,7.94,56.49-4.43C271.11,122.55,251.7,86,219.56,74.35Z" opacity="0.08"></path><rect x="122.26" y="131.59" width="30.25" height="5.72" fill="#c9c9c9" opacity="0.28"></rect><rect x="122.26" y="125.87" width="19.75" height="5.72" fill="#c9c9c9" opacity="0.28"></rect><ellipse cx="197.96" cy="264.5" rx="134.99" ry="20.67" fill="#e6e6e6" opacity="0.45"></ellipse><path d="M178.24,63.87s2,7.15,4.84,11.32a3.73,3.73,0,0,0,5.2.93c2.08-1.47,4.46-4.07,3.87-8L192,61.25a6.64,6.64,0,0,0-5.22-5.64C181.79,54.24,176.83,59.58,178.24,63.87Z" fill="#f4a28c"></path><polygon points="184.95 59.25 206.97 69.49 200.46 81.22 187.39 69.37 184.95 59.25" fill="#f4a28c"></polygon><path d="M177.8,63.88c.49.61,1.54-.13,2.27-.36a29.09,29.09,0,0,0,6.23-2.87A6.18,6.18,0,0,0,188.65,67c3.41,2.53,5.32-3,5.32-3l-2.34-6.08-.21-1.72a17.35,17.35,0,0,1,.65-6.4,2.91,2.91,0,0,0-.86-2.66c-2.29-2.72-4.55-1.73-7,1.8s-4.14-3.12-7.47-1.05.33,4.67-2.13,6.07-7.13,2.19-4.84,5.62a4.22,4.22,0,0,0,3.56,2,5.6,5.6,0,0,1,4.38,2.14Z" fill="#24285b"></path><path d="M187.83,67.08s-.94-2.69,1.15-3.23,3.47,3.34.87,4.72Z" fill="#f4a28c"></path><path d="M201.94,73.57,203.5,72a30.13,30.13,0,0,1,22.91-8.87c10,.54,23.07,3.81,33.35,15.33,19.33,21.66,26.67,46.66,20.67,76.33H236.82s-3.73-18.33-21.39-21.67S184.11,97.34,201.94,73.57Z" fill="#68e1fd"></path><path d="M117.11,126.33s-9.24-2.49-11.29-11.08c0,0,14.3-3,14.77,11.82Z" fill="#68e1fd" opacity="0.58"></path><path d="M118.24,125.4s-6.5-10.17-.86-19.73c0,0,10.92,6.86,6.13,19.73Z" fill="#68e1fd" opacity="0.73"></path><path d="M119.9,125.4s3.37-10.78,13.67-12.87c0,0,2,7-6.62,12.87Z" fill="#68e1fd"></path><polygon points="113.2 125.19 115.13 137.99 126.92 137.99 128.61 125.19 113.2 125.19" fill="#24285b"></polygon><path d="M201.94,73.57S216.4,69.08,232,84.3c44.08,43-4.61,54.59-4.61,54.59s8.22,7.66,9.42,15.91h43.61s8.85-32.22-9.79-61.73c0,0-15.33-29.59-44.23-29.93A30.81,30.81,0,0,0,201.94,73.57Z" opacity="0.08"></path><path d="M179.72,68.31l-.95,3.39a1.19,1.19,0,0,0,1.35,1.49l2.84-.48Z" fill="#f4a28c"></path><path d="M226.06,72.4a12.7,12.7,0,0,0-16.24,16.3c.06.14.11.28.17.43,5.53,14.21,34.52,31.56,34.52,31.56l-39.14,6.65,1.85,9s41.35,7.93,56.49-4.44C277.61,120.6,258.2,84,226.06,72.4Z" fill="#68e1fd"></path><path d="M226.06,72.4a12.7,12.7,0,0,0-16.24,16.3c.06.14.11.28.17.43,5.53,14.21,34.52,31.56,34.52,31.56l-39.14,6.65,1.85,9s41.35,7.93,56.49-4.44C277.61,120.6,258.2,84,226.06,72.4Z" fill="#fff" opacity="0.46"></path><path d="M206.45,128.73s-12.34-3.9-13.45.49,14.06,6.38,14.06,6.38Z" fill="#f4a28c"></path><rect x="105.82" y="137.31" width="115.27" height="11" fill="#e6e6e6"></rect><polygon points="202.21 137.31 201.67 133.34 158.4 132.8 139.09 94.55 134.09 96.05 153.09 137.31 202.21 137.31" fill="#ffd200"></polygon><rect x="261.38" y="187.97" width="6.33" height="78.06" fill="#ffd200"></rect><rect x="261.38" y="187.97" width="6.33" height="78.06" opacity="0.08"></rect><path d="M261.38,252.8h6.33l14.2,8.8a2.39,2.39,0,0,1-1.26,4.42H251.09a2.39,2.39,0,0,1-1.44-4.29Z" fill="#ffd200"></path><rect x="241.14" y="169.97" width="47.91" height="18" fill="#ffd200"></rect><rect x="105.82" y="148.3" width="109.62" height="115.98" fill="#c9c9c9"></rect><path d="M191.76,66.8l10.18,6.77,5-4.08-13.25-6.16-2.09-5.43a17.75,17.75,0,0,1,.44-8.12s-4.31,2.19-2.81,8.27A64.76,64.76,0,0,0,191.76,66.8Z" opacity="0.08"></path><path d="M212.94,75.21s14.95-.28,27.2,15.09,23.62,24.13,18.5,33.25-28.26,15.28-28.26,15.28,31.65,1.66,36.77-11.56c0,0,4.38-8.37-4.38-23.92,0,0-13-23.6-36.71-30.95C226.06,72.4,218.24,69.25,212.94,75.21Z" opacity="0.08"></path><circle cx="306.84" cy="51.32" r="26.42" fill="#e6e6e6"></circle><circle cx="306.84" cy="51.32" r="17.77" fill="#f2f2f2"></circle><polyline points="306.84 39.02 306.84 51.32 311.76 55.48" fill="none" stroke="#a5a5a5" stroke-linecap="round" stroke-linejoin="round" stroke-width="2"></polyline><path d="M139.5,137.31s-22.5,56.77,0,87,45.45,40,45.45,40H105.82v-127Z" opacity="0.08"></path><rect x="118.78" y="59.82" width="29.96" height="17.55" fill="#e6e6e6"></rect><polygon points="131.44 77.37 133.83 84.48 136.05 77.37 131.44 77.37" fill="#e6e6e6"></polygon><circle cx="127.13" cy="67.9" r="2.03" fill="#c9c9c9"></circle><circle cx="133.75" cy="67.9" r="2.03" fill="#c9c9c9"></circle><circle cx="140.39" cy="67.9" r="2.03" fill="#c9c9c9"></circle></svg>