<svg width="206" height="155" viewBox="0 0 206 155" fill="none" xmlns="http://www.w3.org/2000/svg">
<path opacity="0.45" d="M105.691 141.293C148.775 141.293 183.701 136.524 183.701 130.64C183.701 124.757 148.775 119.988 105.691 119.988C62.6077 119.988 27.6816 124.757 27.6816 130.64C27.6816 136.524 62.6077 141.293 105.691 141.293Z" fill="#E6E6E6"/>
<path opacity="0.58" d="M147.242 121.088C147.242 121.088 141.037 119.422 139.664 113.654C139.664 113.654 149.263 111.674 149.577 121.587L147.242 121.088Z" fill="#68E1FD"/>
<path opacity="0.73" d="M148.003 120.471C148.003 120.471 143.643 113.639 147.427 107.222C147.427 107.222 154.749 111.849 151.54 120.471H148.003Z" fill="#68E1FD"/>
<path d="M149.098 120.471C149.098 120.471 151.355 113.227 158.27 111.829C158.27 111.829 159.586 116.518 153.823 120.471H149.098Z" fill="#68E1FD"/>
<path d="M144.621 120.327L145.917 128.919H153.829L154.96 120.327H144.621Z" fill="#24285B"/>
<path d="M132.166 23.6804H73.4883V128.919H132.166V23.6804Z" fill="#C9C9C9"/>
<path d="M126.916 35.6802H78.3457V109.741H126.916V35.6802Z" fill="white"/>
<path opacity="0.08" d="M132.163 44.5491H108.744V65.099H132.163V44.5491Z" fill="black"/>
<path opacity="0.08" d="M132.164 74.6724H105.146V95.2223H132.164V74.6724Z" fill="black"/>
<path opacity="0.56" d="M103.007 124.97C106.178 124.97 108.749 122.399 108.749 119.227C108.749 116.055 106.178 113.484 103.007 113.484C99.8349 113.484 97.2637 116.055 97.2637 119.227C97.2637 122.399 99.8349 124.97 103.007 124.97Z" fill="white"/>
<path opacity="0.08" d="M95.5022 63.9729L105.147 65.4125L104.849 66.0551C103.887 68.2229 103.335 70.55 103.219 72.9188C103.147 74.0705 102.494 75.6437 100.325 77.4946C96.623 80.6514 94.2426 90.8158 89.3275 94.785C87.8726 95.9978 86.6922 97.506 85.8643 99.2096C85.0365 100.913 84.5801 102.773 84.5254 104.667L83.5691 128.913H74.0371L76.1399 91.839L78.6643 79.0422L84.8339 72.708L90.4894 65.4125L93.0601 63.9729H95.5022Z" fill="black"/>
<path opacity="0.12" d="M114.316 27.7935H97.8633V30.1945H114.316V27.7935Z" fill="black"/>
<path d="M91.9052 31.9325C93.3846 31.9325 94.5838 30.7332 94.5838 29.2538C94.5838 27.7745 93.3846 26.5752 91.9052 26.5752C90.4258 26.5752 89.2266 27.7745 89.2266 29.2538C89.2266 30.7332 90.4258 31.9325 91.9052 31.9325Z" fill="white"/>
<path d="M78.6406 77.7673L87.8745 66.2559L89.8693 68.0039L81.9979 81.1657L78.6406 77.7673Z" fill="#68E1FD"/>
<path d="M63.3463 58.8058L65.0481 63.9214L61.0019 66.4921L59.5469 57.6284L63.3463 58.8058Z" fill="#F4A28C"/>
<path d="M58.1578 52.6879C58.3679 52.2006 58.6966 51.7735 59.1139 51.4455C59.5312 51.1176 60.0239 50.8993 60.5472 50.8104C61.0704 50.7214 61.6076 50.7648 62.1098 50.9365C62.612 51.1082 63.0633 51.4027 63.4226 51.7933C65.1449 53.6288 67.222 56.5542 64.8724 58.148C61.2735 60.585 57.9779 56.0298 57.9779 56.0298C57.7072 54.9224 57.7698 53.7598 58.1578 52.6879Z" fill="#F4A28C"/>
<path d="M60.7857 55.8245C60.7857 55.8245 59.8654 55.0533 59.4438 56.1484C59.0222 57.2435 60.6571 57.768 61.1404 57.2178C61.6237 56.6677 60.7857 55.8245 60.7857 55.8245Z" fill="#F4A28C"/>
<path d="M56.2759 69.0012C56.8877 67.6478 57.784 66.4421 58.9036 65.4662C60.0233 64.4903 61.34 63.7671 62.7643 63.3457C68.2604 61.6954 78.3888 63.5 81.4736 68.6465C85.6998 75.685 79.5148 98.0549 79.5148 98.0549L61.0368 99.4894C61.0368 99.4894 50.8981 81.1451 56.2759 69.0012Z" fill="#68E1FD"/>
<path d="M79.5148 98.0447L77.0829 129.808H73.2424L69.8079 105.129L61.3145 99.4791L79.5148 98.0447Z" fill="#24285B"/>
<path d="M61.3163 99.4792L56.0156 129.808H60.1338L69.0335 104.61L61.3163 99.4792Z" fill="#24285B"/>
<path opacity="0.08" d="M64.3642 62.8523C64.3642 62.8523 55.7216 90.6875 80.6777 92.5333L79.5157 98.0653L61.0377 99.4998C61.0377 99.4998 54.5288 89.2736 54.8013 74.9139C54.8013 74.9139 54.9607 67.8137 59.9426 64.6775C61.2695 63.7608 62.7771 63.1385 64.3642 62.8523Z" fill="black"/>
<path d="M56.9826 129.741L54.4993 131.572C54.4086 131.641 54.3417 131.737 54.3079 131.846C54.2741 131.955 54.275 132.072 54.3106 132.18C54.3462 132.289 54.4147 132.384 54.5065 132.451C54.5984 132.519 54.709 132.557 54.8232 132.559H58.9825C59.1276 132.558 59.2662 132.499 59.3682 132.396C59.4703 132.293 59.5275 132.154 59.5275 132.009V129.741H56.9826Z" fill="#68E1FD"/>
<path d="M76.6078 129.741L78.9471 131.572C79.0388 131.642 79.1062 131.739 79.1396 131.849C79.173 131.96 79.1708 132.078 79.1332 132.187C79.0957 132.297 79.0247 132.391 78.9304 132.458C78.8361 132.524 78.7232 132.56 78.6078 132.559H75.6464C75.4358 132.562 75.2267 132.523 75.0313 132.445C74.8358 132.367 74.658 132.25 74.5081 132.102C74.3583 131.954 74.2395 131.778 74.1586 131.584C74.0777 131.389 74.0364 131.181 74.0371 130.97V129.736L76.6078 129.741Z" fill="#68E1FD"/>
<path d="M71.8948 63.1917C70.9743 64.6696 70.4863 66.3759 70.4863 68.1171C70.4863 69.8582 70.9743 71.5645 71.8948 73.0425C73.9102 76.446 79.7765 83.0681 83.7816 87.4382C84.2341 87.9337 84.7979 88.3145 85.4265 88.5491C86.0552 88.7837 86.7306 88.8655 87.397 88.7877C88.0635 88.7098 88.7019 88.4746 89.2595 88.1014C89.8172 87.7282 90.2781 87.2277 90.6042 86.6413L99.2262 71.4692L96.3059 69.5978L88.4139 81.1658C88.4139 81.1658 83.0001 63.4127 71.8948 63.1917Z" fill="#68E1FD"/>
<path opacity="0.2" d="M71.8948 63.1917C70.9743 64.6696 70.4863 66.3759 70.4863 68.1171C70.4863 69.8582 70.9743 71.5645 71.8948 73.0425C73.9102 76.446 79.7765 83.0681 83.7816 87.4382C84.2341 87.9337 84.7979 88.3145 85.4265 88.5491C86.0552 88.7837 86.7306 88.8655 87.397 88.7877C88.0635 88.7098 88.7019 88.4746 89.2595 88.1014C89.8172 87.7282 90.2781 87.2277 90.6042 86.6413L99.2262 71.4692L96.3059 69.5978L88.4139 81.1658C88.4139 81.1658 83.0001 63.4127 71.8948 63.1917Z" fill="white"/>
<path d="M98.1992 70.8164C98.1992 70.8164 103.089 69.022 101.094 66.256C99.0989 63.49 96.2969 69.5979 96.2969 69.5979L98.1992 70.8164Z" fill="#F4A28C"/>
<path d="M102.642 62.7839L98.2363 60.8103L95.3589 67.2338L99.7648 69.2074L102.642 62.7839Z" fill="#FFD200"/>
<path d="M59.8144 59.2532L57.0689 56.4203C56.7859 56.1255 56.566 55.776 56.4228 55.3932C56.2796 55.0104 56.216 54.6024 56.236 54.1941C56.3029 52.7546 56.6113 50.4564 57.7784 48.7289C59.6499 46.0246 62.1434 45.0014 62.7604 47.3407C63.3773 49.68 63.511 46.9037 65.0174 48.1428C66.5238 49.3819 66.2154 50.1171 65.0174 50.7752C63.8195 51.4332 61.3362 52.3895 61.1152 54.3741C60.8941 56.3586 62.7964 57.9268 59.8144 59.2532Z" fill="#24285B"/>
<path d="M88.3438 66.6674C88.3438 66.6674 88.9556 62.4463 93.0481 62.8525C97.1406 63.2587 95.6445 64.3023 93.9941 64.3949C93.6583 64.4654 93.3477 64.6248 93.0945 64.8563C92.8412 65.0878 92.6548 65.383 92.5545 65.7111C92.3129 66.4514 91.6496 67.4077 89.8862 68.0144L88.3438 66.6674Z" fill="#F4A28C"/>
<path d="M157.859 41.511H108.744V62.0609H157.859V41.511Z" fill="#FFD200"/>
<path d="M154.262 71.8442H105.146V92.3942H154.262V71.8442Z" fill="#FFD200"/>
<path d="M130.614 45.9683H114.316V56.4103H130.614V45.9683Z" fill="white"/>
<path d="M114.316 45.9683L122.46 53.5929L130.609 45.9683H114.316Z" fill="#24285B"/>
<path d="M151.609 47.0784H136.611V50.1632H151.609V47.0784Z" fill="white"/>
<path opacity="0.46" d="M151.609 52.05H136.611V55.1349H151.609V52.05Z" fill="white"/>
<path d="M147.166 77.4946H130.914V80.5794H147.166V77.4946Z" fill="white"/>
<path opacity="0.46" d="M147.166 82.4666H130.914V85.5514H147.166V82.4666Z" fill="white"/>
<path d="M118.729 89.5616C122.929 89.5616 126.333 86.1571 126.333 81.9576C126.333 77.758 122.929 74.3535 118.729 74.3535C114.529 74.3535 111.125 77.758 111.125 81.9576C111.125 86.1571 114.529 89.5616 118.729 89.5616Z" fill="#24285B"/>
<path d="M118.914 82.9653C120.527 82.9653 121.835 81.6579 121.835 80.045C121.835 78.4322 120.527 77.1248 118.914 77.1248C117.302 77.1248 115.994 78.4322 115.994 80.045C115.994 81.6579 117.302 82.9653 118.914 82.9653Z" fill="white"/>
<path opacity="0.24" d="M113.623 87.6025C113.623 87.6025 114.255 83.1399 118.718 82.9085C123.448 82.6669 123.813 87.6025 123.813 87.6025C122.416 88.8638 120.6 89.562 118.718 89.562C116.836 89.562 115.02 88.8638 113.623 87.6025Z" fill="white"/>
<path d="M50.7706 61.8237L46.5496 60.0962V56.0859H29.9688V66.4149H46.5496V62.9393L50.7706 61.8237Z" fill="#E6E6E6"/>
<path opacity="0.12" d="M34.5487 62.5132C35.2444 62.5132 35.8083 61.9492 35.8083 61.2535C35.8083 60.5579 35.2444 59.9939 34.5487 59.9939C33.853 59.9939 33.2891 60.5579 33.2891 61.2535C33.2891 61.9492 33.853 62.5132 34.5487 62.5132Z" fill="black"/>
<path opacity="0.12" d="M38.2303 62.5132C38.926 62.5132 39.49 61.9492 39.49 61.2535C39.49 60.5579 38.926 59.9939 38.2303 59.9939C37.5347 59.9939 36.9707 60.5579 36.9707 61.2535C36.9707 61.9492 37.5347 62.5132 38.2303 62.5132Z" fill="black"/>
<path opacity="0.12" d="M41.8241 62.5132C42.5198 62.5132 43.0837 61.9492 43.0837 61.2535C43.0837 60.5579 42.5198 59.9939 41.8241 59.9939C41.1284 59.9939 40.5645 60.5579 40.5645 61.2535C40.5645 61.9492 41.1284 62.5132 41.8241 62.5132Z" fill="black"/>
</svg>
