<svg id="Layer_1" data-name="Layer 1" xmlns="http://www.w3.org/2000/svg" viewBox="0 0 400 300" width="406" height="306" class="illustration styles_illustrationTablet__1DWOa"><title>#123_process building_twocolour</title><path d="M88.34,94.44C64.91,110.57,51,140.17,53.23,171.07c1.12,15.8,7.42,29.46,20.06,39.37,47.57,37.31,245.37,37.88,269-1.35s-17.69-111.31-94-96.55C200.27,121.84,148.85,52.8,88.34,94.44Z" fill="#e6e6e6" opacity="0.3"></path><ellipse cx="202.33" cy="249.82" rx="170" ry="9.46" fill="#e6e6e6" opacity="0.45"></ellipse><circle cx="226.35" cy="69.59" r="17.06" fill="#ffd200"></circle><circle cx="226.35" cy="69.59" r="32.52" fill="#ffd200" opacity="0.15"></circle><path d="M124.18,125.51a22.82,22.82,0,0,1,0,6A1.83,1.83,0,0,1,122,133a4,4,0,0,1-3.29-2.89L117.46,127a3.26,3.26,0,0,1,1.29-3.55C120.73,121.83,124,123.3,124.18,125.51Z" fill="#f4a28c"></path><polygon points="117.69 127.52 116.33 139.37 122.92 139.64 121.26 130.91 117.69 127.52" fill="#f4a28c"></polygon><path d="M124.36,127.8l1.07,1.36a.58.58,0,0,1-.32.93l-1.38.32Z" fill="#f4a28c"></path><path d="M121.7,132.81a4.37,4.37,0,0,1-2.18-1.18,6.81,6.81,0,0,0,2.68,4.22Z" fill="#ce8172" opacity="0.31"></path><path d="M123.48,125.66a6.26,6.26,0,0,1-.83.22,5.87,5.87,0,0,0-1.14.38l-.3.13a1.17,1.17,0,0,0-.7,1.08,3.21,3.21,0,0,1-3.17,3.53s-2.85-4.27-.57-7.56a7.59,7.59,0,0,1,5.76-3.07A2.73,2.73,0,0,1,123.48,125.66Z" fill="#24285b"></path><path d="M120.45,129.49a.89.89,0,0,0,.13-.9c-.2-.49-.6-1.14-1.26-1s-.81,1.19-.34,1.9a.9.9,0,0,0,1.47,0Z" fill="#f4a28c"></path><rect x="229.69" y="169.62" width="100.03" height="78.94" fill="#ffd200"></rect><path d="M144.89,243.08s1.41,2.47,3.83,2.25,3.46,2,1.42,3-8-.79-8-.79l-.57-4.4Z" fill="#68e1fd"></path><path d="M100.57,243.08s1.42,2.47,3.84,2.25,3.45,2,1.42,3-8.06-.79-8.06-.79l-.57-4.4Z" fill="#68e1fd"></path><rect x="229.69" y="169.62" width="100.03" height="78.94" opacity="0.08"></rect><rect x="177.57" y="169.62" width="73.69" height="78.94" fill="#ffd200"></rect><rect x="214.42" y="206.01" width="23.86" height="42.55" fill="#24285b"></rect><rect x="266.63" y="192.32" width="50.76" height="27.38" fill="#fff"></rect><rect x="266.63" y="192.32" width="50.76" height="27.38" opacity="0.08"></rect><rect x="191.36" y="206.95" width="11" height="24.78" fill="#fff"></rect><path d="M124.55,138.37l6.58.28s22.05,2.77,29.64-5.85,5.31-23.73,5.31-23.73h5.69s12.29,37.39-23.46,47.64a19.12,19.12,0,0,0-13.08,13.34l-2.93,10.59H96.22l-.73-17.14a17.19,17.19,0,0,0-7.56-13.59c-8.62-5.76-20.89-18.44-11.78-40.84H82.6S77,141.68,124.55,138.37Z" fill="#68e1fd"></path><path d="M122.2,143.27s38.6,13.22,42.31-17c0,0-3.33,16.06-32.25,12.47l-7.71-.4Z" opacity="0.08"></path><path d="M96.22,180.64H132.3l14.84,63.08h-6.69L120.8,196.77a1.18,1.18,0,0,0-2.26.42l-.22,8.35a59.93,59.93,0,0,1-10.27,30.15l-5.46,8h-7l5-9.52c5.9-11.56,4.81-24.46.93-36.84Z" fill="#24285b"></path><rect x="125.29" y="41.57" width="18.28" height="31.63" fill="#ffd200"></rect><circle cx="232.18" cy="228.06" r="2.52" fill="#68e1fd"></circle><polygon points="45.22 105.09 79.82 59.16 118.91 105.09 45.22 105.09" fill="#24285b"></polygon><polygon points="157.41 59.16 79.82 59.16 118.91 105.09 122.82 105.09 196.5 105.09 157.41 59.16" fill="#24285b"></polygon><polygon points="157.41 59.16 79.82 59.16 118.91 105.09 122.82 105.09 196.5 105.09 157.41 59.16" opacity="0.19"></polygon><path d="M78.6,109.15s-7.86,22,10.85,35.71c9.94,7.27,14.16,12.42,15.93,15.65a76.48,76.48,0,0,0,9,13.2l6,6.93H96.22l-.68-15.92a16.62,16.62,0,0,0-7.61-14.81S64.4,137.09,76.15,109.07Z" opacity="0.08"></path><path d="M112.84,138.43s7.35-7.2,14.92,0C127.76,138.43,122,149.72,112.84,138.43Z" fill="#68e1fd"></path><path d="M127.76,138.43s-5.78,11.29-14.92,0c0,0,7.35-7.2,14.92,0" fill="#fff" opacity="0.46"></path><circle cx="79.82" cy="87.96" r="7.94" fill="#fff"></circle><rect x="173.81" y="166.7" width="158.59" height="9.06" fill="#ffd200"></rect><rect x="173.81" y="166.7" width="158.59" height="9.06" fill="#fff" opacity="0.46"></rect><rect x="251.26" y="166.7" width="81.14" height="9.06" opacity="0.08"></rect><path d="M318.49,127.38a6.76,6.76,0,0,0-6.76-6.76,6.59,6.59,0,0,0-1.09.09,9.1,9.1,0,0,0-8-4.8l-.33,0a10.82,10.82,0,1,0-21,0l-.33,0a9.12,9.12,0,1,0,0,18.23h31.63v-.06A6.77,6.77,0,0,0,318.49,127.38Z" fill="#e6e6e6"></path><path d="M72.86,186.47a5.13,5.13,0,0,0-5.12-5.13,5.44,5.44,0,0,0-.82.07,6.92,6.92,0,0,0-6.09-3.63h-.25a8.2,8.2,0,1,0-15.89,0h-.25a6.91,6.91,0,1,0,0,13.81h24v-.05A5.11,5.11,0,0,0,72.86,186.47Z" fill="#e6e6e6"></path><path d="M85.18,248.76s5.55-8-2.74-10.2,2-13-5.72-14.38-6.43,10-6.43,10-5.33-4.59-9-.73,1.47,8.09,1.47,8.09-7.42,2.56-2.79,7.25Z" fill="#e6e6e6"></path><path d="M74,249.82s3.53-6,8.73-5.29,4.65,5.29,4.65,5.29Z" fill="#c9c9c9"></path><rect x="264.25" y="217.25" width="55.75" height="5" fill="#ffd200"></rect><rect x="264.25" y="217.25" width="55.75" height="5" fill="#fff" opacity="0.46"></rect><rect x="264.25" y="217.25" width="55.75" height="5" opacity="0.08"></rect><polygon points="77.13 109.1 75.98 105.09 81.5 105.09 81.5 109.1 77.13 109.1" fill="#f4a28c"></polygon><polygon points="166.38 109.1 165.23 105.09 170.75 105.09 170.75 109.1 166.38 109.1" fill="#f4a28c"></polygon></svg>