<svg width="406" height="306" viewBox="0 0 406 306" fill="none" xmlns="http://www.w3.org/2000/svg">
<path opacity="0.3" d="M89.6651 96.6061C65.8836 112.978 51.765 143.022 54.0284 174.386C55.1652 190.423 61.5597 204.287 74.3893 214.346C122.673 252.216 323.44 252.794 347.424 212.976C371.409 173.157 329.469 99.9962 252.014 114.978C203.274 124.417 151.083 54.3415 89.6651 96.6061Z" fill="#E6E6E6"/>
<path opacity="0.45" d="M205.365 263.919C300.662 263.919 377.915 259.62 377.915 254.317C377.915 249.014 300.662 244.715 205.365 244.715C110.068 244.715 32.8149 249.014 32.8149 254.317C32.8149 259.62 110.068 263.919 205.365 263.919Z" fill="#E6E6E6"/>
<path d="M229.745 88.7002C239.309 88.7002 247.061 80.9476 247.061 71.3843C247.061 61.8209 239.309 54.0684 229.745 54.0684C220.182 54.0684 212.429 61.8209 212.429 71.3843C212.429 80.9476 220.182 88.7002 229.745 88.7002Z" fill="#FFD200"/>
<path opacity="0.15" d="M229.745 104.393C247.975 104.393 262.753 89.6145 262.753 71.3848C262.753 53.155 247.975 38.377 229.745 38.377C211.516 38.377 196.737 53.155 196.737 71.3848C196.737 89.6145 211.516 104.393 229.745 104.393Z" fill="#FFD200"/>
<path d="M126.043 128.142C126.311 130.163 126.311 132.211 126.043 134.232C126.001 134.479 125.911 134.715 125.776 134.926C125.641 135.137 125.465 135.319 125.259 135.46C125.052 135.601 124.819 135.699 124.573 135.748C124.328 135.797 124.075 135.796 123.83 135.744C123.048 135.633 122.316 135.296 121.723 134.775C121.13 134.254 120.702 133.572 120.491 132.811L119.222 129.654C119.039 128.992 119.067 128.289 119.302 127.644C119.536 126.998 119.966 126.442 120.531 126.051C122.541 124.407 125.86 125.899 126.043 128.142Z" fill="#F4A28C"/>
<path d="M119.455 130.184L118.075 142.211L124.764 142.485L123.079 133.624L119.455 130.184Z" fill="#F4A28C"/>
<path d="M126.225 130.467L127.311 131.847C127.374 131.925 127.416 132.017 127.434 132.115C127.451 132.214 127.443 132.315 127.411 132.409C127.378 132.504 127.322 132.588 127.248 132.655C127.174 132.722 127.084 132.769 126.987 132.791L125.586 133.116L126.225 130.467Z" fill="#F4A28C"/>
<path opacity="0.31" d="M123.526 135.551C122.688 135.374 121.919 134.958 121.313 134.354C121.644 136.074 122.616 137.606 124.033 138.637L123.526 135.551Z" fill="#CE8172"/>
<path d="M125.332 128.295C125.057 128.389 124.775 128.463 124.49 128.518C124.092 128.607 123.704 128.736 123.333 128.904L123.028 129.036C122.816 129.129 122.635 129.283 122.509 129.478C122.382 129.673 122.316 129.9 122.318 130.132C122.363 130.583 122.313 131.039 122.173 131.469C122.032 131.9 121.803 132.297 121.5 132.634C121.197 132.971 120.827 133.242 120.414 133.428C120.001 133.614 119.553 133.712 119.1 133.715C119.1 133.715 116.207 129.381 118.522 126.042C119.203 125.12 120.081 124.362 121.093 123.823C122.104 123.284 123.223 122.978 124.368 122.926C125.018 122.925 125.648 123.154 126.147 123.571C126.646 123.988 126.982 124.567 127.097 125.207C127.212 125.847 127.098 126.507 126.775 127.072C126.453 127.636 125.942 128.069 125.332 128.295Z" fill="#24285B"/>
<path d="M122.257 132.183C122.359 132.056 122.425 131.905 122.448 131.744C122.471 131.583 122.451 131.419 122.389 131.269C122.186 130.772 121.78 130.112 121.11 130.254C120.44 130.396 120.288 131.462 120.765 132.183C120.849 132.302 120.961 132.399 121.091 132.466C121.22 132.534 121.365 132.569 121.511 132.569C121.657 132.569 121.801 132.534 121.931 132.466C122.061 132.399 122.172 132.302 122.257 132.183Z" fill="#F4A28C"/>
<path d="M334.666 172.914H233.135V253.038H334.666V172.914Z" fill="#FFD200"/>
<path d="M147.063 247.477C147.063 247.477 148.494 249.984 150.951 249.76C153.407 249.537 154.463 251.79 152.392 252.805C150.321 253.82 144.272 252.003 144.272 252.003L143.694 247.537L147.063 247.477Z" fill="#9ED6BE"/>
<path d="M102.079 247.477C102.079 247.477 103.52 249.984 105.976 249.76C108.432 249.537 109.478 251.79 107.417 252.805C105.357 253.82 99.2366 252.003 99.2366 252.003L98.658 247.537L102.079 247.477Z" fill="#9ED6BE"/>
<path opacity="0.08" d="M334.666 172.914H233.135V253.038H334.666V172.914Z" fill="black"/>
<path d="M255.029 172.914H180.234V253.038H255.029V172.914Z" fill="#FFD200"/>
<path d="M241.854 209.85H217.636V253.038H241.854V209.85Z" fill="#24285B"/>
<path d="M322.151 195.955H270.629V223.746H322.151V195.955Z" fill="white"/>
<path opacity="0.08" d="M322.151 195.955H270.629V223.746H322.151V195.955Z" fill="black"/>
<path d="M205.395 210.805H194.23V235.956H205.395V210.805Z" fill="white"/>
<path d="M126.418 141.195L133.097 141.479C133.097 141.479 155.478 144.29 163.182 135.541C170.885 126.792 168.571 111.455 168.571 111.455H174.347C174.347 111.455 186.821 149.406 150.535 159.81C147.348 160.742 144.455 162.477 142.13 164.848C139.806 167.218 138.128 170.146 137.258 173.35L134.285 184.099H97.6633L96.9223 166.702C96.8174 163.961 96.0679 161.284 94.7347 158.887C93.4015 156.491 91.5221 154.442 89.249 152.908C80.4997 147.061 68.0456 134.191 77.2923 111.455H83.839C83.839 111.455 78.155 144.554 126.418 141.195Z" fill="#9ED6BE"/>
<path opacity="0.08" d="M124.033 146.169C124.033 146.169 163.212 159.587 166.978 128.914C166.978 128.914 163.598 145.215 134.244 141.571L126.418 141.165L124.033 146.169Z" fill="black"/>
<path d="M97.6633 184.1H134.285L149.347 248.126H142.557L122.612 200.472C122.504 200.224 122.315 200.02 122.076 199.893C121.837 199.766 121.562 199.724 121.296 199.774C121.03 199.823 120.788 199.961 120.611 200.165C120.433 200.369 120.33 200.628 120.318 200.898L120.095 209.373C119.444 220.327 115.842 230.902 109.671 239.975L104.129 248.095H97.0239L102.099 238.433C108.087 226.699 106.981 213.606 103.043 201.04L97.6633 184.1Z" fill="#24285B"/>
<path d="M145.724 42.9434H127.169V75.0478H145.724V42.9434Z" fill="#FFD200"/>
<path d="M235.663 234.789C237.075 234.789 238.221 233.644 238.221 232.232C238.221 230.819 237.075 229.674 235.663 229.674C234.25 229.674 233.105 230.819 233.105 232.232C233.105 233.644 234.25 234.789 235.663 234.789Z" fill="#9ED6BE"/>
<path d="M45.8983 107.416L81.0173 60.7969L120.694 107.416H45.8983Z" fill="#24285B"/>
<path d="M159.771 60.7969H81.0173L120.694 107.416H124.662H199.448L159.771 60.7969Z" fill="#24285B"/>
<path opacity="0.19" d="M159.771 60.7969H81.0173L120.694 107.416H124.662H199.448L159.771 60.7969Z" fill="black"/>
<path opacity="0.08" d="M79.779 111.536C79.779 111.536 71.8011 133.866 90.7917 147.782C100.881 155.161 105.164 160.388 106.961 163.667C109.53 168.439 112.591 172.93 116.096 177.065L122.186 184.099H97.6633L96.9731 167.94C97.1214 164.976 96.4854 162.026 95.1292 159.387C93.7731 156.747 91.7448 154.513 89.2489 152.908C89.2489 152.908 65.366 139.895 77.2922 111.455L79.779 111.536Z" fill="black"/>
<path d="M114.533 141.256C114.533 141.256 121.993 133.948 129.676 141.256C129.676 141.256 123.83 152.715 114.533 141.256Z" fill="#9ED6BE"/>
<path opacity="0.46" d="M129.676 141.256C129.676 141.256 123.81 152.715 114.533 141.256C114.533 141.256 121.993 133.948 129.676 141.256Z" fill="white"/>
<path d="M81.0173 98.0889C85.4682 98.0889 89.0764 94.4807 89.0764 90.0298C89.0764 85.5789 85.4682 81.9707 81.0173 81.9707C76.5664 81.9707 72.9582 85.5789 72.9582 90.0298C72.9582 94.4807 76.5664 98.0889 81.0173 98.0889Z" fill="white"/>
<path d="M337.386 169.951H176.417V179.147H337.386V169.951Z" fill="#FFD200"/>
<path opacity="0.46" d="M337.386 169.951H176.417V179.147H337.386V169.951Z" fill="white"/>
<path opacity="0.08" d="M337.386 169.951H255.029V179.147H337.386V169.951Z" fill="black"/>
<path d="M323.267 130.041C323.267 128.221 322.544 126.476 321.258 125.189C319.971 123.903 318.226 123.18 316.406 123.18C316.035 123.179 315.665 123.21 315.3 123.271C314.512 121.802 313.341 120.573 311.911 119.715C310.482 118.858 308.847 118.403 307.18 118.399H306.845C307.247 116.781 307.276 115.092 306.929 113.46C306.581 111.829 305.867 110.298 304.84 108.984C303.812 107.67 302.499 106.607 301 105.876C299.501 105.146 297.855 104.766 296.187 104.766C294.519 104.766 292.873 105.146 291.374 105.876C289.875 106.607 288.562 107.67 287.535 108.984C286.508 110.298 285.793 111.829 285.446 113.46C285.098 115.092 285.127 116.781 285.53 118.399H285.195C283.954 118.358 282.718 118.567 281.559 119.013C280.401 119.46 279.344 120.135 278.452 120.998C277.56 121.861 276.85 122.895 276.366 124.038C275.881 125.181 275.631 126.409 275.631 127.651C275.631 128.892 275.881 130.121 276.366 131.264C276.85 132.407 277.56 133.441 278.452 134.304C279.344 135.167 280.401 135.842 281.559 136.288C282.718 136.735 283.954 136.944 285.195 136.903H317.299V136.842C318.949 136.623 320.463 135.813 321.56 134.562C322.658 133.312 323.265 131.705 323.267 130.041Z" fill="#E6E6E6"/>
<path d="M73.9529 190.017C73.9529 188.638 73.4057 187.315 72.4314 186.339C71.4571 185.363 70.1353 184.813 68.7561 184.81C68.4773 184.813 68.199 184.837 67.9238 184.881C67.3215 183.767 66.429 182.836 65.3408 182.187C64.2526 181.539 63.0093 181.197 61.7424 181.197H61.4887C61.8025 179.968 61.8314 178.684 61.5729 177.442C61.3145 176.2 60.7757 175.034 59.9977 174.032C59.2196 173.03 58.2229 172.22 57.0837 171.662C55.9445 171.104 54.6929 170.814 53.4245 170.814C52.1561 170.814 50.9045 171.104 49.7653 171.662C48.6261 172.22 47.6294 173.03 46.8513 174.032C46.0733 175.034 45.5345 176.2 45.2761 177.442C45.0177 178.684 45.0465 179.968 45.3603 181.197H45.1066C44.1638 181.161 43.2234 181.316 42.3418 181.652C41.4601 181.988 40.6554 182.498 39.9757 183.153C39.2959 183.807 38.7552 184.592 38.3859 185.46C38.0165 186.328 37.8262 187.262 37.8262 188.205C37.8262 189.149 38.0165 190.083 38.3859 190.951C38.7552 191.819 39.2959 192.604 39.9757 193.258C40.6554 193.913 41.4601 194.423 42.3418 194.759C43.2234 195.095 44.1638 195.25 45.1066 195.214H69.4666V195.163C70.7105 194.994 71.8508 194.379 72.6758 193.433C73.5008 192.486 73.9546 191.273 73.9529 190.017Z" fill="#E6E6E6"/>
<path d="M86.4577 253.242C86.4577 253.242 92.0909 245.122 83.6766 242.889C75.2622 240.656 85.7066 229.694 77.8708 228.294C70.035 226.893 71.3443 238.444 71.3443 238.444C71.3443 238.444 65.9344 233.785 62.2093 237.703C58.4843 241.621 63.7014 245.914 63.7014 245.914C63.7014 245.914 56.1701 248.512 60.8695 253.273L86.4577 253.242Z" fill="#E6E6E6"/>
<path d="M75.11 254.317C75.11 254.317 78.6929 248.227 83.9709 248.948C89.2489 249.669 88.6907 254.317 88.6907 254.317H75.11Z" fill="#C9C9C9"/>
<path d="M324.8 221.258H268.214V226.333H324.8V221.258Z" fill="#FFD200"/>
<path opacity="0.46" d="M324.8 221.258H268.214V226.333H324.8V221.258Z" fill="white"/>
<path opacity="0.08" d="M324.8 221.258H268.214V226.333H324.8V221.258Z" fill="black"/>
<path d="M78.2869 111.486L77.1197 107.416H82.7225V111.486H78.2869Z" fill="#F4A28C"/>
<path d="M168.876 111.486L167.708 107.416H173.311V111.486H168.876Z" fill="#F4A28C"/>
</svg>
