<svg width="406" height="306" viewBox="0 0 406 306" fill="none" xmlns="http://www.w3.org/2000/svg">
<path opacity="0.3" d="M308.469 65.6498C342.116 75.0284 368.09 101.814 374.637 135.472C380.158 163.821 370.424 198.798 314.904 215.342C258.236 232.242 100.038 241.184 70.9587 195.316C41.8789 149.448 48.4866 90.3346 108.93 69.0298C151.296 54.089 242.737 47.3291 308.469 65.6498Z" fill="#E6E6E6"/>
<path d="M328.586 40.3145H143.409V243.66H328.586V40.3145Z" fill="#E6E6E6"/>
<g opacity="0.1">
<path opacity="0.1" d="M283.875 182.193V176.58H278.283V165.283H283.875V154.016H278.242V142.75H272.649V137.107H278.242V131.483H272.599V125.86H244.442V120.247H238.799V109.001H233.186V120.166H227.553V103.348H221.909V148.424H205.03V154.016H221.909V159.66H227.533C227.533 161.527 227.533 163.405 227.533 165.273H233.125V170.926H227.563V182.173H238.84V176.57H266.945V182.203H255.78V187.826H261.403V193.439H272.68V199.052H278.303V187.816H295.162V182.193H283.875ZM261.373 131.534H266.945V137.107H261.373V131.534ZM250.066 170.906H244.493V165.334H250.066V170.906ZM250.066 148.414V159.64H244.432V154.016H238.809V159.619H227.563V154.016H233.166V148.393H227.583V137.127H238.799V131.504H255.699V142.75H266.945V148.393H250.096L250.066 148.414ZM261.312 165.293H255.78V159.7H261.373L261.312 165.293ZM272.548 170.906H261.363V165.313H272.578L272.548 170.906ZM272.548 154.006H266.945V148.414H272.538L272.548 154.006Z" fill="black"/>
<path opacity="0.1" d="M278.252 142.78C278.257 142.78 278.262 142.775 278.262 142.77C278.262 142.764 278.257 142.76 278.252 142.76C278.246 142.76 278.242 142.764 278.242 142.77C278.242 142.775 278.246 142.78 278.252 142.78Z" fill="black"/>
<path opacity="0.1" d="M216.256 80.834H176.884V120.206H216.256V80.834ZM210.633 114.573H182.527V86.4672H210.633V114.573Z" fill="black"/>
<path opacity="0.1" d="M295.111 80.8535H255.78V120.215H295.142L295.111 80.8535ZM289.498 114.582H261.393V86.4766H289.498V114.582Z" fill="black"/>
<path opacity="0.1" d="M176.894 199.061H216.266V159.689H176.894V199.061ZM182.538 165.333H210.633V193.438H182.538V165.333Z" fill="black"/>
<path opacity="0.1" d="M233.217 97.7338H238.84V103.357H244.463V108.939H250.066V97.7033H244.493V92.1005H250.055V80.9355H221.95V92.1005H227.563V103.347H233.217V97.7338ZM233.217 86.4673H238.789V92.0396H233.217V86.4673Z" fill="black"/>
<path opacity="0.1" d="M193.763 131.514V148.363H182.477V142.851H176.904V154.016H199.407V142.75H216.266V137.127H205.03V131.514H193.763Z" fill="black"/>
<path opacity="0.1" d="M221.96 199.07H238.789V193.447H233.176V187.824H227.553V182.201H221.96V199.07Z" fill="black"/>
<path opacity="0.1" d="M176.904 125.91V137.075H182.507V131.462H193.753V125.869L176.904 125.91Z" fill="black"/>
<path opacity="0.1" d="M295.111 142.749V125.9H283.946V131.523H289.559V142.749H295.111Z" fill="black"/>
<path opacity="0.1" d="M205.02 131.512C205.025 131.512 205.03 131.508 205.03 131.502C205.03 131.497 205.025 131.492 205.02 131.492C205.014 131.492 205.01 131.497 205.01 131.502C205.01 131.508 205.014 131.512 205.02 131.512Z" fill="black"/>
<path opacity="0.1" d="M216.256 125.91H205.03V131.503H216.256V125.91Z" fill="black"/>
<path opacity="0.1" d="M289.488 148.443H283.885V154.016H289.488V148.443Z" fill="black"/>
<path opacity="0.1" d="M295.111 159.689H289.539V165.272H295.111V159.689Z" fill="black"/>
<path opacity="0.1" d="M250.055 114.645H244.463V120.237H250.055V114.645Z" fill="black"/>
<path opacity="0.1" d="M221.96 165.312V170.925H227.553V165.312H221.96Z" fill="black"/>
<path opacity="0.1" d="M227.553 170.946C227.558 170.946 227.563 170.941 227.563 170.936C227.563 170.93 227.558 170.926 227.553 170.926C227.547 170.926 227.543 170.93 227.543 170.936C227.543 170.941 227.547 170.946 227.553 170.946Z" fill="black"/>
<path opacity="0.1" d="M289.488 170.967H283.885V176.559H289.488V170.967Z" fill="black"/>
<path opacity="0.1" d="M278.252 137.145C278.257 137.145 278.262 137.141 278.262 137.135C278.262 137.129 278.257 137.125 278.252 137.125C278.246 137.125 278.242 137.129 278.242 137.135C278.242 137.141 278.246 137.145 278.252 137.145Z" fill="black"/>
<path opacity="0.1" d="M283.845 142.77V137.146H278.252V142.77H283.845Z" fill="black"/>
<path opacity="0.1" d="M244.483 193.448H250.055V187.865H244.483V193.448Z" fill="black"/>
<path opacity="0.1" d="M255.78 199.061H261.373V193.469H255.78V199.061Z" fill="black"/>
<path opacity="0.1" d="M289.539 199.081H295.111V193.498H289.539V199.081Z" fill="black"/>
<path opacity="0.1" d="M244.493 142.85V148.452H250.086V142.85H244.493Z" fill="black"/>
<path opacity="0.1" d="M205.03 92.0996H188.151V108.949H205.03V92.0996Z" fill="black"/>
<path opacity="0.1" d="M283.845 92.0996H267.006V108.938H283.845V92.0996Z" fill="black"/>
<path opacity="0.1" d="M188.151 187.794H205.03V170.955H188.151V187.794Z" fill="black"/>
</g>
<path opacity="0.2" d="M200.138 60.9902H143.714V207.597H200.138V60.9902Z" fill="black"/>
<path d="M95.1866 168.581C95.1866 168.581 103.621 128.854 124.875 128.854C146.129 128.854 157.416 191.296 105.732 198.097L95.1866 168.581Z" fill="#F4A28C"/>
<path opacity="0.1" d="M95.1866 168.581C95.1866 168.581 103.621 128.854 124.875 128.854C146.129 128.854 157.416 191.296 105.732 198.097L95.1866 168.581Z" fill="black"/>
<path d="M195.083 56.5957H113.771V201.101H195.083V56.5957Z" fill="#9ED6BE"/>
<path opacity="0.46" d="M195.083 56.5957H113.771V201.101H195.083V56.5957Z" fill="white"/>
<path d="M188.475 68.3496H120.379V176.457H188.475V68.3496Z" fill="white"/>
<path d="M180.284 144.941H127.372V161.283H180.284V144.941Z" fill="#FFD200"/>
<path opacity="0.1" d="M138.345 140.932C138.345 140.932 147.388 146.362 143.917 154.421C140.446 162.48 129.859 167.372 129.707 177.949C129.555 188.525 129.707 201.111 129.707 201.111H113.771V176.446L138.345 140.932Z" fill="black"/>
<path d="M111.823 153.823C111.823 153.823 128.225 137.055 135.31 138.547C141.146 139.775 141.156 151.407 128.428 161.09C125.841 163.034 123.702 165.511 122.156 168.353C120.61 171.195 119.692 174.336 119.466 177.564C119.11 182.984 117.324 189.419 111.823 194.291C100.272 204.522 91.6951 195.631 92.8116 181.796C93.9281 167.962 94.6792 163.892 111.823 153.823Z" fill="#F4A28C"/>
<path d="M113.264 260.418L118.207 192.078L86.8942 182.588L63.6405 260.418H113.264Z" fill="#9ED6BE"/>
<path opacity="0.1" d="M113.264 260.418L118.207 192.078L103.256 187.551L93.9789 260.418H113.264Z" fill="black"/>
<path opacity="0.1" d="M136.599 64.7755C137.966 64.7755 139.075 63.6667 139.075 62.2989C139.075 60.9311 137.966 59.8223 136.599 59.8223C135.231 59.8223 134.122 60.9311 134.122 62.2989C134.122 63.6667 135.231 64.7755 136.599 64.7755Z" fill="black"/>
<path opacity="0.1" d="M169.038 61.4375H144.972C144.389 61.4375 143.917 61.9101 143.917 62.4931V62.6352C143.917 63.2182 144.389 63.6908 144.972 63.6908H169.038C169.621 63.6908 170.094 63.2182 170.094 62.6352V62.4931C170.094 61.9101 169.621 61.4375 169.038 61.4375Z" fill="black"/>
<path opacity="0.1" d="M152.504 196.157C156.871 196.157 160.411 192.617 160.411 188.251C160.411 183.884 156.871 180.344 152.504 180.344C148.137 180.344 144.597 183.884 144.597 188.251C144.597 192.617 148.137 196.157 152.504 196.157Z" fill="black"/>
<path d="M175.362 113.801V113.811H175.372L175.362 113.801Z" fill="#24285B"/>
<path d="M158.117 99.0215V99.0315H158.127L158.117 99.0215Z" fill="#24285B"/>
<path d="M175.362 126.112V123.656H172.915V118.723H175.362V113.81H172.895V108.877H170.449V106.411H172.895V103.944H170.429V101.478H158.117V99.0318H155.65V94.1293H153.194V99.0318H150.738V91.6426H148.271V111.384H140.902V113.841H148.281V116.307H150.738C150.738 117.129 150.738 117.951 150.738 118.763H153.184V121.24H150.738V126.153H155.671V123.666H167.962V126.132H163.06V128.639H165.516V131.096H170.449V133.552H172.905V128.619H180.284V126.163L175.362 126.112ZM165.526 103.965H167.962V106.401H165.526V103.965ZM160.573 121.22H158.137V118.784H160.573V121.22ZM160.573 111.384V116.297H158.107V113.851H155.65V116.307H150.717V113.851H153.164V111.384H150.728V106.451H155.63V103.995H163.019V108.898H167.952V111.384H160.573ZM165.486 118.763H163.039V116.317H165.486V118.763ZM170.398 121.22H165.496V118.774H170.398V121.22ZM170.398 113.83H167.983V111.384H170.429L170.398 113.83Z" fill="#24285B"/>
<path d="M160.583 111.344H160.593V111.334L160.583 111.344Z" fill="#24285B"/>
<path d="M150.728 91.6328V91.6428H150.738L150.728 91.6328Z" fill="#24285B"/>
<path d="M150.738 126.123V126.113H150.728L150.738 126.123Z" fill="#24285B"/>
<path d="M150.738 118.723H150.728V118.733H150.738V118.723Z" fill="#24285B"/>
<path d="M145.795 81.7969H128.54V99.0519H145.795V81.7969ZM143.328 96.5448H131.047V84.2532H143.328V96.5448Z" fill="#24285B"/>
<path d="M180.274 81.7969H163.019V99.0519H180.274V81.7969ZM177.818 96.5448H165.526V84.2633H177.818V96.5448Z" fill="#24285B"/>
<path d="M128.58 133.491H145.835V116.236H128.58V133.491ZM131.047 118.743H143.338V131.035H131.047V118.743Z" fill="#24285B"/>
<path d="M150.728 91.6328L150.738 91.6428V91.6328H150.728Z" fill="#24285B"/>
<path d="M153.204 89.1861H155.671V91.6424H158.127V94.1291H160.573V89.1658H158.137V86.6993H160.573V81.7969H148.281V86.7095H150.738V91.6322H153.204V89.1861ZM153.204 84.2532H155.64V86.6892H153.204V84.2532Z" fill="#24285B"/>
<path d="M136.01 103.955V111.324H131.067V108.888H128.631V113.79H138.476V108.868H145.845V106.411H140.882V103.955H136.01Z" fill="#24285B"/>
<path d="M135.949 103.955H135.959V103.945L135.949 103.955Z" fill="#24285B"/>
<path d="M148.292 133.502H155.65V131.036H153.194V128.579H150.727V126.123H148.292V133.502Z" fill="#24285B"/>
<path d="M150.738 126.123L150.728 126.113V126.123H150.738Z" fill="#24285B"/>
<path d="M135.949 103.955L135.959 103.945H135.949V103.955Z" fill="#24285B"/>
<path d="M128.58 101.498V106.4H131.037V103.944H135.949V101.498H128.58Z" fill="#24285B"/>
<path d="M180.274 108.867V101.498H175.382V103.954H177.838V108.867H180.274Z" fill="#24285B"/>
<path d="M145.795 101.498H140.882V103.944H145.795V101.498Z" fill="#24285B"/>
<path d="M175.362 113.801L175.372 113.811V113.801H175.362Z" fill="#24285B"/>
<path d="M177.818 111.385H175.372V113.831H177.818V111.385Z" fill="#24285B"/>
<path d="M180.274 116.277H177.838V118.713H180.274V116.277Z" fill="#24285B"/>
<path d="M158.117 99.0215L158.127 99.0315V99.0215H158.117Z" fill="#24285B"/>
<path d="M160.573 96.5762H158.127V99.0223H160.573V96.5762Z" fill="#24285B"/>
<path d="M148.281 118.734V121.191H150.728V118.734H148.281Z" fill="#24285B"/>
<path d="M177.818 121.211H175.372V123.657H177.818V121.211Z" fill="#24285B"/>
<path d="M175.351 108.878V106.422H172.905V108.878H175.351Z" fill="#24285B"/>
<path d="M158.137 131.036H160.573V128.641H158.137V131.036Z" fill="#24285B"/>
<path d="M163.06 133.491H165.506V131.045H163.06V133.491Z" fill="#24285B"/>
<path d="M177.838 133.502H180.274V131.066H177.838V133.502Z" fill="#24285B"/>
<path d="M160.583 111.344L160.593 111.334H160.583V111.344Z" fill="#24285B"/>
<path d="M158.137 108.889V111.386H160.583V108.939L158.137 108.889Z" fill="#24285B"/>
<path d="M140.862 86.7207H133.503V94.1302H140.862V86.7207Z" fill="#24285B"/>
<path d="M175.351 86.7207H167.983V94.1302H175.351V86.7207Z" fill="#24285B"/>
<path d="M133.503 128.568H140.862V121.199H133.503V128.568Z" fill="#24285B"/>
<path opacity="0.1" d="M243.052 26.8359H228.943V48.9832H243.052V26.8359Z" fill="black"/>
<path opacity="0.46" d="M283.916 217.533H188.475V223.237H283.916V217.533Z" fill="white"/>
</svg>
