<svg width="406" height="306" viewBox="0 0 406 306" fill="none" xmlns="http://www.w3.org/2000/svg">
<path d="M169.353 108.594C169.353 108.594 130.529 113.121 116.674 123.727C102.819 134.334 105.509 150.584 150.646 142.048C195.783 133.512 169.353 108.594 169.353 108.594Z" fill="#9ED6BE"/>
<path opacity="0.08" d="M169.353 108.594C169.353 108.594 130.529 113.121 116.674 123.727C102.819 134.334 105.509 150.584 150.646 142.048C195.783 133.512 169.353 108.594 169.353 108.594Z" fill="black"/>
<path d="M153.986 81.9508C155.341 81.7854 156.657 81.3834 157.873 80.7633C159.903 79.7483 164.268 78.7333 164.176 82.9963C164.115 85.7063 159.903 82.4989 159.619 86.1428C159.335 89.7866 159.852 94.3947 152.331 93.2478C145.47 92.1516 147.378 82.7933 153.986 81.9508Z" fill="#F4A28C"/>
<path d="M274.872 104.707C303.596 104.707 326.881 84.8162 326.881 60.2801C326.881 35.744 303.596 15.8535 274.872 15.8535C246.149 15.8535 222.864 35.744 222.864 60.2801C222.864 84.8162 246.149 104.707 274.872 104.707Z" fill="#24285B"/>
<path opacity="0.45" d="M198.26 283.802C259.02 283.802 308.276 276.809 308.276 268.181C308.276 259.554 259.02 252.561 198.26 252.561C137.5 252.561 88.2441 259.554 88.2441 268.181C88.2441 276.809 137.5 283.802 198.26 283.802Z" fill="#E6E6E6"/>
<path opacity="0.58" d="M243.874 250.561C243.874 250.561 233.582 247.801 231.308 238.26C231.308 238.26 247.224 234.971 247.741 251.455L243.874 250.561Z" fill="#9ED6BE"/>
<path opacity="0.73" d="M245.133 249.537C245.133 249.537 237.906 238.22 244.178 227.572C244.178 227.572 256.358 235.215 250.999 249.537H245.133Z" fill="#9ED6BE"/>
<path d="M246.98 249.536C246.98 249.536 250.725 237.529 262.205 235.215C262.205 235.215 264.387 242.99 254.836 249.536H246.98Z" fill="#9ED6BE"/>
<path d="M239.53 249.303L241.672 263.543H254.795L256.663 249.303H239.53Z" fill="#24285B"/>
<path d="M175.027 259.829C175.027 259.829 173.575 264.113 169.738 264.498C165.902 264.884 164.948 268.67 168.429 269.573C171.911 270.477 180.741 265.889 180.741 265.889L180.365 259.799L175.027 259.829Z" fill="#9ED6BE"/>
<path d="M215.383 255.047C215.383 255.047 216.51 259.432 213.505 261.858C210.501 264.284 211.79 267.948 215.2 266.831C218.611 265.715 223.493 257.006 223.493 257.006L220.164 252.561L215.383 255.047Z" fill="#9ED6BE"/>
<path d="M182.375 79.2099C182.375 79.2099 186.07 85.6958 186.993 90.72C187.081 91.2067 187.072 91.7058 186.966 92.1888C186.86 92.6718 186.66 93.1292 186.377 93.5347C186.095 93.9402 185.734 94.2859 185.317 94.5518C184.901 94.8178 184.435 94.9988 183.948 95.0845C181.421 95.5108 177.858 95.3586 175.463 92.1207L170.723 87.1269C169.879 86.0255 169.396 84.6897 169.342 83.303C169.287 81.9163 169.663 80.5468 170.418 79.3825C172.986 74.8454 180.325 75.1398 182.375 79.2099Z" fill="#F4A28C"/>
<path d="M172.459 88.2227L172.56 112.694L186.039 111.669L180.69 94.7187L172.459 88.2227Z" fill="#F4A28C"/>
<path d="M184.497 83.4219L187.542 85.1677C187.722 85.2646 187.873 85.4063 187.983 85.5791C188.092 85.7519 188.155 85.9499 188.165 86.1541C188.175 86.3582 188.132 86.5615 188.041 86.7444C187.95 86.9272 187.812 87.0833 187.643 87.1977L185.278 88.8826L184.497 83.4219Z" fill="#F4A28C"/>
<path opacity="0.31" d="M180.843 95.1958C179.191 95.032 177.616 94.4214 176.285 93.4297C176.285 93.4297 175.818 98.7686 182.375 100.047L180.843 95.1958Z" fill="#CE8172"/>
<path d="M276.77 32.5501C282.19 32.8648 286.443 34.5801 289.529 37.6251C290.985 39.0364 292.111 40.7514 292.829 42.6479C293.547 44.5443 293.837 46.5757 293.68 48.5973C293.655 51.2074 292.956 53.7668 291.65 56.0271C290.371 57.9759 289.722 59.1736 287.753 60.5134C286.274 61.5953 284.689 62.5238 283.023 63.2843C281.906 63.8629 281.155 64.1877 280.861 64.3907C277.816 66.0248 276.1 67.5879 275.938 70.4096C275.836 72.2163 275.227 72.6934 273.492 72.5919L270.599 72.4193C268.863 72.3178 268.315 71.7799 268.417 69.9732C268.782 63.8223 271.462 61.0107 276.06 58.3007C275.989 58.3007 278.993 56.6665 279.105 56.5955C280.042 56.0498 280.929 55.4214 281.754 54.7177C282.552 53.9419 283.235 53.0568 283.784 52.0889C284.262 50.9233 284.557 49.6907 284.657 48.4349C284.911 44.0298 281.825 40.8731 276.05 40.5382C270.477 40.2134 267.392 42.2738 265.098 46.7094C264.194 48.4755 263.606 48.7394 261.9 48.0492L258.5 46.618C256.866 46.0192 256.47 44.9027 257.16 43.4208C260.774 35.6256 267.31 32.002 276.77 32.5501ZM272.172 76.4489C275.644 76.6519 276.73 77.88 276.527 81.3412V82.0009C276.324 85.5331 275.106 86.5583 271.634 86.3553H271.056C267.584 86.1523 266.498 85.0053 266.701 81.463V80.8134C266.904 77.3421 268.122 76.256 271.594 76.459L272.172 76.4489Z" fill="#FFD200"/>
<path d="M180.731 107.66H194.24C194.24 107.66 237.51 111.385 238.2 132.781C238.89 154.178 210.907 196.919 210.907 196.919H164.278C164.278 196.919 110.635 107.66 180.731 107.66Z" fill="#9ED6BE"/>
<path opacity="0.08" d="M207.963 127.523C207.963 127.523 198.199 141.449 202.279 152.289C206.36 163.13 208.176 180.496 176.732 163.678L172.164 149.102L159.883 144.88L154.94 164.987L163.405 167.86C165.351 168.49 166.973 169.858 167.921 171.67C168.87 173.482 169.071 175.594 168.48 177.553C167.353 181.004 164.572 184.414 158.056 185.074L164.318 196.878H210.947L217.129 186.82L234.12 149.498L207.963 127.523Z" fill="black"/>
<path d="M172.479 93.1146C172.479 93.1146 169.353 87.39 165.618 84.8627C161.882 82.3353 164.937 74.2052 171.505 72.7537C176.417 71.6575 179.229 70.0437 179.269 67.2727C179.288 66.9788 179.385 66.6952 179.551 66.4521C179.718 66.2089 179.946 66.0152 180.214 65.8915C180.481 65.7677 180.777 65.7185 181.07 65.749C181.363 65.7796 181.642 65.8887 181.878 66.0649C184.131 67.7599 186.435 70.5309 185.319 74.3676C184.881 75.7592 184.09 77.0136 183.022 78.008C181.955 79.0025 180.648 79.7031 179.229 80.0414L174.803 81.2188C174.803 81.2188 180.731 89.2069 172.479 93.1146Z" fill="#24285B"/>
<path d="M177.828 88.3234C177.828 88.3234 176.58 85.7351 174.712 86.8415C172.844 87.9478 174.621 91.6932 177.452 90.8203L177.828 88.3234Z" fill="#F4A28C"/>
<path d="M233.511 72.6621L207.842 92.5967L240.23 85.7049L233.511 72.6621Z" fill="#24285B"/>
<path d="M208.187 133.988C204.614 120.935 220.275 111.222 230.517 120.134C235.399 124.397 239.56 129.878 240.819 136.688C244.442 156.257 256.044 173.289 238.281 184.88C220.519 196.472 178.478 170.752 178.478 170.752L184.263 160.246C184.263 160.246 205.304 168.58 218.357 167.849C227.36 167.351 213.231 152.421 208.187 133.988Z" fill="#9ED6BE"/>
<path d="M181.301 145.742L168.615 142.713L163.728 163.178L176.414 166.208L181.301 145.742Z" fill="#FFD200"/>
<path opacity="0.3" d="M208.187 133.988C204.614 120.935 220.275 111.222 230.517 120.134C235.399 124.397 239.56 129.878 240.819 136.688C244.442 156.257 256.044 173.289 238.281 184.88C220.519 196.472 178.478 170.752 178.478 170.752L184.263 160.246C184.263 160.246 205.304 168.58 218.357 167.849C227.36 167.351 213.231 152.421 208.187 133.988Z" fill="white"/>
<path d="M183.492 161.566C183.015 159.569 182.069 157.714 180.731 156.156C178.457 153.436 177.686 152.228 174.55 152.289C171.413 152.35 171.099 163.87 179.757 168.347L183.492 161.566Z" fill="#F4A28C"/>
<path d="M210.907 196.92C210.907 196.92 201.569 235.693 220.265 251.994L213.678 258.155C213.678 258.155 189.44 244.087 186.06 205.436L210.907 196.92Z" fill="#24285B"/>
<path d="M148.434 86.334L152.331 93.2258L123.83 138.14C119.425 145.072 108.453 142.2 108.351 133.988C108.351 130.202 109.498 125.645 112.878 120.265C125.119 100.717 148.434 86.334 148.434 86.334Z" fill="#9ED6BE"/>
<path d="M145.53 73.1207L145.261 75.1328L155.834 76.5474L156.103 74.5353L145.53 73.1207Z" fill="#C9C9C9"/>
<path d="M153.721 60.2904L152.159 61.5879L158.978 69.792L160.539 68.4945L153.721 60.2904Z" fill="#C9C9C9"/>
<path d="M167.082 56.9873L166.097 67.6094L168.118 67.7969L169.103 57.1748L167.082 56.9873Z" fill="#C9C9C9"/>
<path d="M164.278 196.92C164.278 196.92 154.696 233.115 173.585 259.799L181.218 259.434C181.218 259.434 170.155 223.33 186.588 210.125L210.948 196.93L164.278 196.92Z" fill="#24285B"/>
</svg>
