<svg width="406" height="306" viewBox="0 0 406 306" fill="none" xmlns="http://www.w3.org/2000/svg">
<path opacity="0.3" d="M114.989 84.3055C85.0672 95.369 62.8793 123.434 58.5046 157.385C54.8202 185.978 63.5796 217.585 115.487 226.598C216.388 244.117 310.884 249.111 335.011 201.832C359.137 154.554 351.718 73.5871 300.501 68.3497C259.84 64.178 173.403 62.6657 114.989 84.3055Z" fill="#E6E6E6"/>
<path d="M143.734 122.743C144.1 122.743 144.455 122.743 144.82 122.682C149.438 122.581 153.904 124.205 158.208 125.89C161.133 126.89 163.896 128.312 166.409 130.112C172.956 135.278 171.85 146.748 176.478 153.843C180.538 160.156 186.74 163.465 194.159 160.643C216.987 151.975 237.074 132.041 237.074 132.041L243.468 137.603C243.468 137.603 192.576 210.683 151.814 171.95C144.288 164.912 138.398 156.309 134.559 146.748C131.777 139.643 131.686 128.305 139.634 123.91C140.904 123.24 142.301 122.843 143.734 122.743Z" fill="#9ED6BE"/>
<path opacity="0.46" d="M143.734 122.743C144.1 122.743 144.455 122.743 144.82 122.682C149.438 122.581 153.904 124.205 158.208 125.89C161.133 126.89 163.896 128.312 166.409 130.112C172.956 135.278 171.85 146.748 176.478 153.843C180.538 160.156 186.74 163.465 194.159 160.643C216.987 151.975 237.074 132.041 237.074 132.041L243.468 137.603C243.468 137.603 192.576 210.683 151.814 171.95C144.288 164.912 138.398 156.309 134.559 146.748C131.777 139.643 131.686 128.305 139.634 123.91C140.904 123.24 142.301 122.843 143.734 122.743Z" fill="white"/>
<path d="M152.727 83.4327C152.727 83.4327 168.419 106.453 148.363 104.87C128.306 103.286 137.664 82.0625 137.664 82.0625L152.727 83.4327Z" fill="#FFD200"/>
<path d="M152.727 83.4327C152.727 83.4327 168.419 106.453 148.363 104.87C128.306 103.286 137.664 82.0625 137.664 82.0625L152.727 83.4327Z" fill="#24285B"/>
<path d="M150.991 82.1834C150.991 82.1834 152.605 89.9177 151.905 95.2667C151.836 95.7851 151.666 96.2849 151.403 96.7372C151.141 97.1895 150.792 97.5855 150.376 97.9024C149.96 98.2193 149.485 98.4509 148.98 98.5839C148.474 98.7168 147.947 98.7485 147.429 98.6771C144.739 98.2813 141.217 96.9719 139.847 92.9322L136.69 86.3652C136.198 84.9816 136.146 83.4795 136.542 82.0654C136.938 80.6512 137.763 79.3947 138.903 78.4685C142.953 74.7637 150.22 77.423 150.991 82.1834Z" fill="#F4A28C"/>
<path d="M137.269 87.5527L136.233 113.415L150.535 112.968L145.541 94.3228L137.269 87.5527Z" fill="#F4A28C"/>
<path d="M143.46 89.8774C143.46 89.8774 143.044 86.8324 140.801 87.3704C138.558 87.9083 139.136 92.2322 142.262 92.2728L143.46 89.8774Z" fill="#F4A28C"/>
<path d="M151.753 87.1055L154.28 89.8663C154.418 90.0223 154.516 90.2102 154.563 90.4132C154.611 90.6161 154.607 90.8277 154.553 91.029C154.499 91.2302 154.395 91.4148 154.252 91.5662C154.109 91.7176 153.93 91.831 153.732 91.8963L150.799 92.8199L151.753 87.1055Z" fill="#F4A28C"/>
<path opacity="0.31" d="M146.81 98.3627C144.989 98.1252 143.277 97.3595 141.887 96.1602C141.887 96.1602 142.648 100.839 148.363 104.859L146.81 98.3627Z" fill="#CE8172"/>
<path d="M184.121 179.39L175.494 201.781L169.738 216.722H124.541C124.541 216.722 109.184 188.038 109.052 159.8C108.97 141.53 115.263 123.403 136.233 113.384L150.525 112.928C150.525 112.928 213.576 147.235 184.121 179.39Z" fill="#9ED6BE"/>
<path opacity="0.08" d="M175.494 201.811L169.738 216.752H124.541C124.541 216.752 109.184 188.068 109.052 159.83L146.16 134.344C146.16 134.344 164.085 149.214 147.074 168.732C130.062 188.25 158.563 185.165 165.719 171.127L175.494 201.811Z" fill="black"/>
<path d="M237.642 132.7C237.642 132.7 242.808 123.687 245.66 123.048C248.513 122.408 244.128 127.707 244.727 127.707C245.488 127.707 251.172 124.398 251.832 124.925C256.389 128.346 243.417 137.582 243.417 137.582L237.642 132.7Z" fill="#F4A28C"/>
<path d="M114.37 240.178L123.079 213.828L169.738 216.751L172.002 240.178H114.37Z" fill="#24285B"/>
<path d="M152.077 72.6423C153.163 73.4701 154.05 74.5308 154.671 75.7463C155.293 76.9618 155.635 78.3013 155.671 79.6661C155.671 82.0615 154.656 84.5686 150.504 85.0253C142.232 85.9388 139.441 85.9388 139.441 85.9388C139.441 85.9388 148.626 108.543 132.417 106.949C116.207 105.356 122.368 91.6533 129.443 79.321C135.827 68.2068 144.232 66.3696 152.077 72.6423Z" fill="#24285B"/>
<path d="M163.506 152.959L155.671 195.883L186.445 201.72L194.809 157.405L163.506 152.959Z" fill="#E6E6E6"/>
<path d="M151.438 174.426C151.438 174.426 157.873 165.859 161.801 166.427C165.729 166.996 169.383 167.25 169.2 171.756C169.018 176.263 167.962 180.363 165.841 179.947C163.719 179.531 157.284 178.821 153.955 182.992L151.438 174.426Z" fill="#F4A28C"/>
<path d="M146.799 142.514C154.513 130.852 142.902 115.972 129.616 120.347C122.663 122.63 115.314 126.213 106.463 137.348C65.8126 188.524 79.17 228.667 157.812 182.434L152.829 169.594C152.829 169.594 100.343 196.664 105.124 178.648C108.504 166.042 135.614 159.404 146.799 142.514Z" fill="#9ED6BE"/>
<path opacity="0.46" d="M146.799 142.514C154.513 130.852 142.902 115.972 129.616 120.347C122.663 122.63 115.314 126.213 106.463 137.348C65.8126 188.524 79.17 228.667 157.812 182.434L152.829 169.594C152.829 169.594 100.343 196.664 105.124 178.648C108.504 166.042 135.614 159.404 146.799 142.514Z" fill="white"/>
<path d="M184.365 154.068L173.254 151.914L172.393 156.358L183.503 158.512L184.365 154.068Z" fill="#24285B"/>
<path d="M245.64 118.501C249.648 118.501 252.897 115.252 252.897 111.244C252.897 107.236 249.648 103.986 245.64 103.986C241.632 103.986 238.383 107.236 238.383 111.244C238.383 115.252 241.632 118.501 245.64 118.501Z" fill="#FFD200"/>
<path d="M216.895 105.316C218.969 105.316 220.651 103.634 220.651 101.56C220.651 99.4861 218.969 97.8047 216.895 97.8047C214.821 97.8047 213.14 99.4861 213.14 101.56C213.14 103.634 214.821 105.316 216.895 105.316Z" fill="#FFD200"/>
<path d="M230.151 78.9251C232.225 78.9251 233.907 77.2437 233.907 75.1696C233.907 73.0955 232.225 71.4141 230.151 71.4141C228.077 71.4141 226.396 73.0955 226.396 75.1696C226.396 77.2437 228.077 78.9251 230.151 78.9251Z" fill="#FFD200"/>
<path d="M250.543 97.2669C252.617 97.2669 254.298 95.5855 254.298 93.5114C254.298 91.4373 252.617 89.7559 250.543 89.7559C248.469 89.7559 246.787 91.4373 246.787 93.5114C246.787 95.5855 248.469 97.2669 250.543 97.2669Z" fill="#FFD200"/>
<path d="M276.628 103.732C279.061 103.732 281.033 101.76 281.033 99.327C281.033 96.8941 279.061 94.9219 276.628 94.9219C274.195 94.9219 272.223 96.8941 272.223 99.327C272.223 101.76 274.195 103.732 276.628 103.732Z" fill="#FFD200"/>
<path d="M245.021 86.1729C247.022 86.1729 248.645 84.5506 248.645 82.5493C248.645 80.5481 247.022 78.9258 245.021 78.9258C243.02 78.9258 241.397 80.5481 241.397 82.5493C241.397 84.5506 243.02 86.1729 245.021 86.1729Z" fill="#FFD200"/>
<path d="M218.097 101.077L217.74 102.027L245.447 112.436L245.804 111.486L218.097 101.077Z" fill="#FFD200"/>
<path d="M244.731 82.1147L216.609 101.119L217.177 101.96L245.299 82.9557L244.731 82.1147Z" fill="#FFD200"/>
<path d="M276.477 99.9846L248.488 109.48L248.814 110.442L276.804 100.946L276.477 99.9846Z" fill="#FFD200"/>
<path d="M230.412 73.7859L229.931 74.6797L245.42 83.0162L245.901 82.1224L230.412 73.7859Z" fill="#FFD200"/>
<path d="M250.62 93.0113L250.46 94.0137L277.414 98.3068L277.574 97.3045L250.62 93.0113Z" fill="#FFD200"/>
<path d="M292.3 207.627H192.972V213.839H292.3V207.627Z" fill="#E6E6E6"/>
<path opacity="0.08" d="M292.3 207.627H192.972V213.839H292.3V207.627Z" fill="black"/>
<path d="M285.976 213.828H197.62V240.178H285.976V213.828Z" fill="#E6E6E6"/>
<path d="M242.22 188.524L235.876 207.596H254.146L247.782 188.524V181.805H247.477C247.799 181.802 248.106 181.673 248.332 181.444C248.558 181.216 248.685 180.908 248.685 180.587C248.685 180.427 248.654 180.269 248.592 180.122C248.531 179.975 248.441 179.841 248.328 179.729C248.215 179.617 248.08 179.528 247.932 179.468C247.785 179.408 247.627 179.378 247.467 179.379H242.524C242.204 179.379 241.897 179.506 241.67 179.733C241.444 179.959 241.316 180.266 241.316 180.587C241.316 180.908 241.443 181.216 241.669 181.444C241.896 181.673 242.203 181.802 242.524 181.805H242.22V188.524Z" fill="#E6E6E6"/>
<path opacity="0.08" d="M242.9 191.742H247.092L251.882 206.135H238.119L242.9 191.742Z" fill="black"/>
<path d="M221.483 188.524L215.18 207.626H233.45L227.045 188.524V181.805H226.741C227.062 181.802 227.369 181.673 227.596 181.444C227.822 181.216 227.949 180.908 227.949 180.587C227.949 180.266 227.821 179.959 227.595 179.733C227.368 179.506 227.061 179.379 226.741 179.379H221.798C221.638 179.378 221.48 179.408 221.332 179.468C221.185 179.528 221.05 179.617 220.937 179.729C220.824 179.841 220.734 179.975 220.673 180.122C220.611 180.269 220.58 180.427 220.58 180.587C220.58 180.908 220.707 181.216 220.933 181.444C221.159 181.673 221.466 181.802 221.788 181.805H221.483V188.524Z" fill="#E6E6E6"/>
<path opacity="0.08" d="M222.173 191.742H226.355L231.146 206.135H217.383L222.173 191.742Z" fill="black"/>
<path d="M272.832 178.984V159.496C273.085 159.515 273.34 159.481 273.58 159.397C273.82 159.313 274.04 159.181 274.226 159.008C274.412 158.835 274.561 158.625 274.662 158.392C274.764 158.159 274.816 157.908 274.816 157.654C274.816 157.4 274.764 157.148 274.662 156.915C274.561 156.683 274.412 156.473 274.226 156.3C274.04 156.127 273.82 155.995 273.58 155.911C273.34 155.827 273.085 155.793 272.832 155.812H265.727C265.262 155.846 264.827 156.055 264.51 156.397C264.193 156.739 264.017 157.188 264.017 157.654C264.017 158.12 264.193 158.569 264.51 158.911C264.827 159.253 265.262 159.462 265.727 159.496H265.778V178.984C262.954 179.828 260.528 181.659 258.943 184.144C257.359 186.629 256.721 189.601 257.147 192.517C257.574 195.433 259.035 198.098 261.264 200.026C263.494 201.953 266.343 203.014 269.29 203.014C272.237 203.014 275.085 201.953 277.315 200.026C279.544 198.098 281.006 195.433 281.432 192.517C281.858 189.601 281.221 186.629 279.636 184.144C278.051 181.659 275.625 179.828 272.802 178.984H272.832Z" fill="#E6E6E6"/>
<path opacity="0.08" d="M259.728 187.256C259.385 188.28 259.21 189.353 259.211 190.433C259.437 192.958 260.6 195.306 262.471 197.017C264.342 198.727 266.785 199.676 269.32 199.676C271.855 199.676 274.298 198.727 276.169 197.017C278.04 195.306 279.203 192.958 279.429 190.433C279.43 189.353 279.255 188.28 278.912 187.256H259.728Z" fill="black"/>
<path d="M212.521 201.445H197.62V207.627H212.521V201.445Z" fill="#E6E6E6"/>
<path d="M282.099 195.711H256.541C256.11 195.711 255.76 196.059 255.76 196.487C255.76 196.916 256.11 197.264 256.541 197.264H282.099C282.531 197.264 282.881 196.916 282.881 196.487C282.881 196.059 282.531 195.711 282.099 195.711Z" fill="#CCCCCC"/>
<path d="M259.201 197.264H257.374V207.617H259.201V197.264Z" fill="#CCCCCC"/>
<path d="M281.256 197.264H279.429V207.617H281.256V197.264Z" fill="#CCCCCC"/>
</svg>
