<svg id="Layer_1" data-name="Layer 1" xmlns="http://www.w3.org/2000/svg" viewBox="0 0 400 300" width="406" height="306" class="illustration styles_illustrationTablet__1DWOa"><title>_</title><path d="M113.29,82.32c-29.48,10.9-51.34,38.55-55.65,72-3.63,28.17,5,59.31,56.14,68.19,99.41,17.26,192.51,22.18,216.28-24.4s16.46-126.35-34-131.51C256,62.49,170.84,61,113.29,82.32Z" fill="#e6e6e6" opacity="0.3"></path><path d="M141.61,120.19c.36,0,.71,0,1.07-.06,4.55-.1,8.95,1.5,13.19,3.16a31.24,31.24,0,0,1,8.08,4.16c6.45,5.09,5.36,16.39,9.92,23.38,4,6.22,10.11,9.48,17.42,6.7,22.49-8.54,42.28-28.18,42.28-28.18l6.3,5.48s-50.14,72-90.3,33.84a69.41,69.41,0,0,1-17-24.83c-2.74-7-2.83-18.17,5-22.5A10.18,10.18,0,0,1,141.61,120.19Z" fill="#68e1fd"></path><path d="M141.61,120.19c.36,0,.71,0,1.07-.06,4.55-.1,8.95,1.5,13.19,3.16a31.24,31.24,0,0,1,8.08,4.16c6.45,5.09,5.36,16.39,9.92,23.38,4,6.22,10.11,9.48,17.42,6.7,22.49-8.54,42.28-28.18,42.28-28.18l6.3,5.48s-50.14,72-90.3,33.84a69.41,69.41,0,0,1-17-24.83c-2.74-7-2.83-18.17,5-22.5A10.18,10.18,0,0,1,141.61,120.19Z" fill="#fff" opacity="0.46"></path><path d="M150.47,81.46s15.46,22.68-4.3,21.12-10.54-22.47-10.54-22.47Z" fill="#ffd200"></path><path d="M150.47,81.46s15.46,22.68-4.3,21.12-10.54-22.47-10.54-22.47Z" fill="#24285b"></path><path d="M148.76,80.23s1.59,7.62.9,12.89a3.91,3.91,0,0,1-4.41,3.36c-2.65-.39-6.12-1.68-7.47-5.66l-3.11-6.47a7,7,0,0,1,2.18-7.78C140.84,72.92,148,75.54,148.76,80.23Z" fill="#f4a28c"></path><polygon points="135.24 85.52 134.22 111 148.31 110.56 143.39 92.19 135.24 85.52" fill="#f4a28c"></polygon><path d="M141.34,87.81s-.41-3-2.62-2.47-1.64,4.79,1.44,4.83Z" fill="#f4a28c"></path><path d="M149.51,85.08,152,87.8a1.24,1.24,0,0,1-.54,2l-2.89.91Z" fill="#f4a28c"></path><path d="M144.64,96.17A9.26,9.26,0,0,1,139.79,94s.75,4.61,6.38,8.57Z" fill="#ce8172" opacity="0.31"></path><path d="M181.4,176l-8.5,22.06-5.67,14.72H122.7s-15.13-28.26-15.26-56.08c-.08-18,6.12-35.86,26.78-45.73l14.08-.45S210.42,144.32,181.4,176Z" fill="#68e1fd"></path><path d="M172.9,198.09l-5.67,14.72H122.7s-15.13-28.26-15.26-56.08L144,131.62s17.66,14.65.9,33.88,11.32,16.19,18.37,2.36Z" opacity="0.08"></path><path d="M234.13,130s5.09-8.88,7.9-9.51-1.51,4.59-.92,4.59c.75,0,6.35-3.26,7-2.74,4.49,3.37-8.29,12.47-8.29,12.47Z" fill="#f4a28c"></path><polygon points="112.68 235.89 121.26 209.93 167.23 212.81 169.46 235.89 112.68 235.89" fill="#24285b"></polygon><path d="M149.83,70.83a9,9,0,0,1,3.54,6.92c0,2.36-1,4.83-5.09,5.28-8.15.9-10.9.9-10.9.9s9.05,22.27-6.92,20.7-9.9-15.07-2.93-27.22C133.82,66.46,142.1,64.65,149.83,70.83Z" fill="#24285b"></path><polygon points="161.09 149.96 153.37 192.25 183.69 198 191.93 154.34 161.09 149.96" fill="#e6e6e6"></polygon><path d="M149.2,171.11s6.34-8.44,10.21-7.88,7.47.81,7.29,5.25-1.22,8.48-3.31,8.07-8.43-1.11-11.71,3Z" fill="#f4a28c"></path><path d="M144.63,139.67c7.6-11.49-3.84-26.15-16.93-21.84-6.85,2.25-14.09,5.78-22.81,16.75C64.84,185,78,224.55,155.48,179l-4.91-12.65s-51.71,26.67-47,8.92C106.9,162.85,133.61,156.31,144.63,139.67Z" fill="#68e1fd"></path><path d="M144.63,139.67c7.6-11.49-3.84-26.15-16.93-21.84-6.85,2.25-14.09,5.78-22.81,16.75C64.84,185,78,224.55,155.48,179l-4.91-12.65s-51.71,26.67-47,8.92C106.9,162.85,133.61,156.31,144.63,139.67Z" fill="#fff" opacity="0.46"></path><rect x="170.16" y="149.96" width="11.15" height="4.46" transform="translate(32.18 -30.67) rotate(10.97)" fill="#24285b"></rect><circle cx="242.01" cy="108.86" r="7.15" fill="#ffd200"></circle><circle cx="213.69" cy="99.32" r="3.7" fill="#ffd200"></circle><circle cx="226.75" cy="73.32" r="3.7" fill="#ffd200"></circle><circle cx="246.84" cy="91.39" r="3.7" fill="#ffd200"></circle><circle cx="272.54" cy="97.12" r="4.34" fill="#ffd200"></circle><circle cx="241.4" cy="80.59" r="3.57" fill="#ffd200"></circle><rect x="227.86" y="89.87" width="1" height="29.16" transform="translate(50.26 281.48) rotate(-69.41)" fill="#ffd200"></rect><rect x="210.83" y="89.45" width="33.44" height="1" transform="translate(-11.36 142.82) rotate(-34.05)" fill="#ffd200"></rect><rect x="244.2" y="102.44" width="29.12" height="1" transform="translate(-19.35 88.57) rotate(-18.74)" fill="#ffd200"></rect><rect x="233.88" y="67.82" width="1" height="17.33" transform="translate(55.97 246.64) rotate(-61.71)" fill="#ffd200"></rect><rect x="259.61" y="80.06" width="1" height="26.89" transform="translate(126.86 335.67) rotate(-80.95)" fill="#ffd200"></rect><rect x="190.12" y="203.82" width="97.86" height="6.12" fill="#e6e6e6"></rect><rect x="190.12" y="203.82" width="97.86" height="6.12" opacity="0.08"></rect><rect x="194.7" y="209.93" width="87.05" height="25.96" fill="#e6e6e6"></rect><path d="M238.64,185l-6.25,18.79h18L244.12,185v-6.62h-.3a1.2,1.2,0,0,0,1.19-1.2h0a1.19,1.19,0,0,0-1.2-1.19h-4.87a1.19,1.19,0,0,0-1.19,1.19h0a1.2,1.2,0,0,0,1.19,1.2h-.3Z" fill="#e6e6e6"></path><polygon points="239.31 188.17 243.44 188.17 248.16 202.35 234.6 202.35 239.31 188.17" opacity="0.08"></polygon><path d="M218.21,185,212,203.82h18L223.69,185v-6.62h-.3a1.2,1.2,0,0,0,1.19-1.2h0a1.19,1.19,0,0,0-1.19-1.19h-4.87a1.19,1.19,0,0,0-1.2,1.19h0a1.2,1.2,0,0,0,1.19,1.2h-.3Z" fill="#e6e6e6"></path><polygon points="218.89 188.17 223.01 188.17 227.73 202.35 214.17 202.35 218.89 188.17" opacity="0.08"></polygon><path d="M268.8,175.6V156.4h0a1.82,1.82,0,1,0,0-3.63h-7a1.82,1.82,0,0,0,0,3.63h.05v19.2a12.09,12.09,0,1,0,6.92,0Z" fill="#e6e6e6"></path><path d="M255.89,183.75a9.83,9.83,0,0,0-.51,3.13,10,10,0,0,0,19.92,0,9.83,9.83,0,0,0-.51-3.13Z" opacity="0.08"></path><rect x="194.7" y="197.73" width="14.68" height="6.09" fill="#e6e6e6"></rect><rect x="251.98" y="192.08" width="26.72" height="1.53" rx="0.77" fill="#ccc"></rect><rect x="253.57" y="193.61" width="1.8" height="10.2" fill="#ccc"></rect><rect x="275.3" y="193.61" width="1.8" height="10.2" fill="#ccc"></rect></svg>