<svg width="406" height="306" viewBox="0 0 406 306" fill="none" xmlns="http://www.w3.org/2000/svg">
<path d="M179.087 91.9586C179.087 91.9586 147.723 68.7557 116.37 71.9124C85.0164 75.069 53.3383 115.496 53.3383 115.496L63.4883 123.19C63.4883 123.19 116.096 79.5452 144.587 111.812C173.078 144.079 179.087 91.9586 179.087 91.9586Z" fill="#9ED6BE"/>
<path opacity="0.2" d="M179.087 91.9586C179.087 91.9586 147.723 68.7557 116.37 71.9124C85.0164 75.069 53.3383 115.496 53.3383 115.496L63.4883 123.19C63.4883 123.19 116.096 79.5452 144.587 111.812C173.078 144.079 179.087 91.9586 179.087 91.9586Z" fill="white"/>
<path d="M155.397 88.7207H47.705V158.299H155.397V88.7207Z" fill="#FFD200"/>
<path opacity="0.45" d="M329.692 237.296C327.708 236.895 325.838 236.058 324.218 234.845C322.597 233.632 321.267 232.073 320.324 230.282V230.181L272.264 138.658L245.813 157.385L264.519 216.194C265.012 217.74 265.124 219.383 264.845 220.982C264.565 222.58 263.903 224.088 262.915 225.375C261.927 226.662 260.642 227.692 259.169 228.375C257.697 229.058 256.082 229.374 254.46 229.298C240.25 228.648 225.137 228.283 209.435 228.283C128.316 228.283 62.5545 237.732 62.5545 249.395C62.5545 261.057 128.316 270.517 209.435 270.517C290.554 270.517 356.265 261.067 356.265 249.425C356.265 244.898 346.43 240.727 329.692 237.296Z" fill="#E6E6E6"/>
<path d="M176.854 242.502C176.854 242.502 178.356 247.577 182.812 248.176C187.267 248.775 188.201 253.251 184.111 254.164C180.02 255.078 169.901 249.343 169.901 249.343L170.54 242.898L176.854 242.502Z" fill="#9ED6BE"/>
<path d="M90.1015 241.639C90.1015 241.639 84.9453 242.756 84.0115 247.151C83.0777 251.546 78.5508 252.134 77.9215 247.983C77.2922 243.832 83.8187 234.199 83.8187 234.199L90.1929 235.346L90.1015 241.639Z" fill="#9ED6BE"/>
<path d="M90.7918 165.859C90.7918 165.859 86.0416 188.027 103.144 197.527C120.247 207.028 174.194 189.925 165.861 243.771H177.899C177.899 243.771 193.459 199.111 153.092 183.236L140.841 169.341L90.7918 165.859Z" fill="#24285B"/>
<path d="M256.871 149.86L252.776 145.947L227.166 172.746L231.261 176.659L256.871 149.86Z" fill="#FFD200"/>
<path opacity="0.08" d="M256.871 149.86L252.776 145.947L227.166 172.746L231.261 176.659L256.871 149.86Z" fill="black"/>
<path d="M254.876 147.94L250.781 144.027L225.172 170.826L229.266 174.739L254.876 147.94Z" fill="#FFD200"/>
<path d="M266.014 152.871C272.598 145.981 274.209 136.836 269.614 132.444C265.018 128.052 255.955 130.077 249.371 136.967C242.787 143.856 241.176 153.002 245.771 157.394C250.367 161.785 259.43 159.76 266.014 152.871Z" fill="#FFD200"/>
<path opacity="0.08" d="M266.014 152.871C272.598 145.981 274.209 136.836 269.614 132.444C265.018 128.052 255.955 130.077 249.371 136.967C242.787 143.856 241.176 153.002 245.771 157.394C250.367 161.785 259.43 159.76 266.014 152.871Z" fill="black"/>
<path d="M264.014 150.969C270.598 144.079 272.21 134.933 267.614 130.542C263.018 126.15 253.955 128.175 247.371 135.064C240.787 141.954 239.176 151.099 243.772 155.491C248.367 159.883 257.43 157.858 264.014 150.969Z" fill="#FFD200"/>
<path opacity="0.57" d="M261.189 148.27C265.538 143.719 266.603 137.678 263.568 134.777C260.532 131.876 254.546 133.214 250.196 137.765C245.847 142.316 244.782 148.357 247.818 151.258C250.853 154.159 256.84 152.821 261.189 148.27Z" fill="white"/>
<path d="M221.524 94.4644C221.524 94.4644 216.946 101.113 212.5 104.381C212.069 104.695 211.58 104.921 211.062 105.046C210.543 105.171 210.005 105.193 209.478 105.11C208.951 105.027 208.446 104.841 207.991 104.563C207.536 104.284 207.14 103.919 206.827 103.488C205.213 101.224 203.69 97.6921 205.71 93.8351L208.329 86.862C209.008 85.5293 210.082 84.4392 211.405 83.7414C212.728 83.0435 214.235 82.7722 215.718 82.9644C221.27 83.2892 224.508 90.5566 221.524 94.4644Z" fill="#F4A28C"/>
<path d="M209.932 88.293L189.277 96.616L191.815 111.313L206.705 99.1636L209.932 88.293Z" fill="#F4A28C"/>
<path d="M219.768 93.4509C217.782 91.9379 215.977 90.2009 214.388 88.2744C214.245 89.5792 213.723 90.8137 212.889 91.8269C212.054 92.8401 210.942 93.5878 209.689 93.9787C208.481 94.3764 207.172 94.3417 205.987 93.8806C204.802 93.4196 203.814 92.5608 203.193 91.4513L209.892 83.5343C210.807 82.3628 212.023 81.461 213.41 80.9249C214.797 80.3887 216.303 80.2382 217.768 80.4893C219.034 80.7074 220.285 81.0057 221.514 81.3825C224.559 82.3975 226.68 86.6808 230.029 86.8229C230.366 86.8394 230.693 86.943 230.978 87.1236C231.263 87.3042 231.496 87.5556 231.654 87.8532C231.813 88.1509 231.891 88.4846 231.882 88.8217C231.873 89.1589 231.777 89.4879 231.603 89.7766C229.958 92.5069 226.365 95.9782 221.97 94.5877C221.179 94.3325 220.434 93.9484 219.768 93.4509Z" fill="#24285B"/>
<path d="M210.511 94.3438C210.511 94.3438 212.439 91.9078 210.511 90.5984C208.582 89.2891 205.751 92.801 207.933 95.1456L210.511 94.3438Z" fill="#F4A28C"/>
<path d="M218.428 98.5039L218.184 102.33C218.164 102.545 218.09 102.75 217.971 102.929C217.851 103.108 217.689 103.254 217.499 103.355C217.309 103.456 217.096 103.507 216.881 103.506C216.666 103.504 216.455 103.449 216.266 103.345L213.515 101.823L218.428 98.5039Z" fill="#F4A28C"/>
<path opacity="0.31" d="M205.03 100.515C205.03 100.515 205.649 95.8966 207.314 94.1406C207.314 94.1406 199.793 96.6781 199.62 104.95L205.03 100.515Z" fill="#CE8172"/>
<path opacity="0.08" d="M68.6749 156.501C68.6749 156.501 68.3501 108.623 125.86 98.5039L92.0707 158.298H68.7257L68.6749 156.501Z" fill="black"/>
<path d="M194.555 116.399L192.85 106.482C192.183 102.438 190.501 98.629 187.96 95.4123C185.42 92.1956 182.105 89.6762 178.325 88.0903C175.035 86.7751 171.596 85.8716 168.084 85.4005C163.577 84.7712 157.264 85.4005 150.2 87.258C119.77 95.246 97.44 121.027 92.8217 152.106L90.7917 165.86L140.841 169.341C140.841 169.341 138.304 155.131 156.066 155.131C173.829 155.131 196.321 155.314 194.555 116.399Z" fill="#9ED6BE"/>
<path opacity="0.08" d="M145.51 101.021C145.51 101.021 121.221 105.295 94.5269 143.763L90.7917 165.86L128.773 168.681L145.51 101.021Z" fill="black"/>
<path d="M173.362 118.713C178.102 102.899 159.72 90.1099 146.617 100.158C135.655 108.552 123.272 123.666 122.785 149.173C121.942 195.203 166.034 186.971 225.706 169.341L223.808 155.933C223.808 155.933 152.352 169.442 162.055 146.219C166.115 136.506 170.845 127.127 173.362 118.713Z" fill="#9ED6BE"/>
<path opacity="0.2" d="M173.362 118.713C178.102 102.899 159.72 90.1099 146.617 100.158C135.655 108.552 123.272 123.666 122.785 149.173C121.942 195.203 166.034 186.971 225.706 169.341L223.808 155.933C223.808 155.933 152.352 169.442 162.055 146.219C166.115 136.506 170.845 127.127 173.362 118.713Z" fill="white"/>
<path d="M148.281 183.348C148.281 183.348 149.753 234.25 90.1929 243.771L87.8888 232.981C87.8888 232.981 135.594 221.156 104.778 189.478L148.281 183.348Z" fill="#24285B"/>
<path opacity="0.08" d="M242.098 251.801C245.674 251.801 248.573 250.728 248.573 249.405C248.573 248.082 245.674 247.01 242.098 247.01C238.521 247.01 235.622 248.082 235.622 249.405C235.622 250.728 238.521 251.801 242.098 251.801Z" fill="black"/>
<path opacity="0.08" d="M266.864 245.599C270.44 245.599 273.34 244.527 273.34 243.204C273.34 241.881 270.44 240.809 266.864 240.809C263.287 240.809 260.388 241.881 260.388 243.204C260.388 244.527 263.287 245.599 266.864 245.599Z" fill="black"/>
<path opacity="0.08" d="M291.802 250.388C295.379 250.388 298.278 249.316 298.278 247.993C298.278 246.67 295.379 245.598 291.802 245.598C288.226 245.598 285.327 246.67 285.327 247.993C285.327 249.316 288.226 250.388 291.802 250.388Z" fill="black"/>
<path opacity="0.08" d="M329.987 252.795C333.563 252.795 336.462 251.722 336.462 250.399C336.462 249.076 333.563 248.004 329.987 248.004C326.41 248.004 323.511 249.076 323.511 250.399C323.511 251.722 326.41 252.795 329.987 252.795Z" fill="black"/>
<path opacity="0.08" d="M217.545 245.061C221.2 245.061 224.163 243.961 224.163 242.605C224.163 241.248 221.2 240.148 217.545 240.148C213.89 240.148 210.927 241.248 210.927 242.605C210.927 243.961 213.89 245.061 217.545 245.061Z" fill="black"/>
<path d="M224.173 158.511C224.173 158.511 240.596 156.775 242.037 163.19C243.478 169.605 240.332 173.005 225.553 168.265L224.173 158.511Z" fill="#F4A28C"/>
<path d="M60.5651 158.298C60.5651 158.298 62.93 167.879 72.4 165.86C81.8699 163.84 75.11 152.086 60.5651 158.298Z" fill="#F4A28C"/>
</svg>
