<svg id="Layer_1" data-name="Layer 1" xmlns="http://www.w3.org/2000/svg" viewBox="0 0 400 300" width="406" height="306" class="illustration styles_illustrationTablet__1DWOa"><title>_</title><path d="M84.88,253.51S41.33,201.8,63.1,137.24,150.21,26.67,233.12,42s138,58.86,94.74,211.2Z" fill="#dddbdb" opacity="0.18"></path><path d="M329.69,99.8a5.46,5.46,0,0,0-1.81.31,9,9,0,0,0,.43-2.76,9.13,9.13,0,0,0-18.25,0q0,.38,0,.72a6.61,6.61,0,1,0-3,12.51h22.59a5.39,5.39,0,0,0,0-10.78Z" fill="#dddbdb" opacity="0.3"></path><path d="M167.76,63.84a3.52,3.52,0,0,0-1.22.22,6.41,6.41,0,0,0,.28-1.87,6.17,6.17,0,0,0-12.33,0,3.91,3.91,0,0,0,0,.49,4.47,4.47,0,1,0-2,8.45h15.26a3.65,3.65,0,0,0,0-7.29Z" fill="#dddbdb" opacity="0.3"></path><circle cx="116.39" cy="68.81" r="20.13" fill="#ffd200" opacity="0.17"></circle><circle cx="116.39" cy="68.81" r="13.18" fill="#ffd200"></circle><polygon points="312.28 193 312.28 166.16 307.81 166.16 307.81 124.16 300.12 116.09 281.16 116.09 275.53 124.16 275.53 173.67 251.93 173.67 251.93 76.25 242.55 76.25 242.55 72.02 227.81 72.02 227.81 63.58 226.22 63.58 226.22 71.84 222.09 71.84 222.09 76.25 219.37 76.25 219.37 185.49 179.2 185.49 179.2 106.28 172.44 106.28 172.44 89.39 138.65 89.39 138.65 106.28 129.83 109.6 129.83 129.37 119.69 129.37 119.69 111.91 112.94 102.34 89.86 102.34 89.86 168.99 76.65 168.99 76.65 252.69 89.86 252.69 323.35 252.69 323.35 193 312.28 193" fill="#e6e6e6"></polygon><ellipse cx="202.61" cy="91.88" rx="22.65" ry="1.96" fill="#68e1fd"></ellipse><polygon points="221.45 91.06 183.76 91.06 182.04 84.69 223.17 84.69 221.45 91.06" fill="#24285b"></polygon><polygon points="220.66 85.42 184.55 85.42 182.9 79.04 222.31 79.04 220.66 85.42" fill="#24285b"></polygon><path d="M220.59,79h-36s.26-1,3.85-2,7.57-2,7.07-3.21-3.41-2.27-3.86-3.16-.05-.94.39-1,10.53,0,10.53,0,10.1-.06,10.54,0,.82.12.38,1-3.35,1.9-3.85,3.16,3.47,2.27,7.06,3.21S220.59,79,220.59,79Z" fill="#68e1fd"></path><rect x="194.73" y="67.99" width="15.76" height="1.66" fill="#68e1fd"></rect><path d="M205.38,68h-5.54s1.9-12.54,2.56-18.88a.21.21,0,0,1,.41,0C203.48,55.45,205.38,68,205.38,68Z" fill="#68e1fd"></path><ellipse cx="202.61" cy="226.66" rx="20.14" ry="4.69" fill="#68e1fd"></ellipse><path d="M221.31,252.69h-8.14c-.06-1.38-7.55-106.24-10.56-106.24s-10.5,104.86-10.56,106.24h-8.14s14.87-95.9,14.87-127.75c0-9.6-2.62-19.5-4.57-25.54-1.15-3.58-2.07-5.8-2.07-5.8L196,93a48.19,48.19,0,0,0,1,6.43c1.48,7,4.22,14.1,5.67,14.1s4.19-7.07,5.67-14.1a48.19,48.19,0,0,0,1-6.43l3.84.63s-.92,2.22-2.07,5.8c-1.95,6-4.57,15.94-4.57,25.54C206.44,153.54,221.31,252.69,221.31,252.69Z" fill="#68e1fd"></path><path d="M196,93a48.19,48.19,0,0,0,1,6.43h-2.73c-1.15-3.58-2.07-5.8-2.07-5.8Z" opacity="0.1"></path><path d="M213.08,93.6s-.92,2.22-2.07,5.8h-2.73a48.19,48.19,0,0,0,1-6.43Z" opacity="0.1"></path><ellipse cx="202.61" cy="84.69" rx="27.89" ry="2.46" fill="#68e1fd"></ellipse><ellipse cx="202.61" cy="84.69" rx="27.89" ry="2.46" fill="#68e1fd"></ellipse><rect x="260.08" y="105.22" width="31.35" height="147.48" fill="#68e1fd"></rect><rect x="260.08" y="105.22" width="31.35" height="147.48" opacity="0.1"></rect><rect x="264.02" y="101.04" width="23.65" height="4.18" fill="#68e1fd"></rect><rect x="147.47" y="154.35" width="21.35" height="98.34" fill="#68e1fd"></rect><polygon points="144.64 151.26 171.64 151.26 168.82 154.35 147.47 154.35 144.64 151.26" fill="#68e1fd"></polygon><polygon points="144.64 151.26 171.64 151.26 168.82 154.35 147.47 154.35 144.64 151.26" opacity="0.1"></polygon><rect x="144.64" y="149.43" width="27" height="1.83" fill="#68e1fd"></rect><rect x="144.64" y="149.43" width="27" height="1.83" fill="#fff" opacity="0.4"></rect><rect x="147.01" y="146.61" width="22.27" height="2.82" fill="#68e1fd"></rect><rect x="147.01" y="146.61" width="22.27" height="2.82" opacity="0.1"></rect><polygon points="147.01 146.61 169.28 146.61 159.45 128.43 156.83 128.43 147.01 146.61" fill="#68e1fd"></polygon><polygon points="147.01 146.61 169.28 146.61 159.45 128.43 156.83 128.43 147.01 146.61" fill="#fff" opacity="0.4"></polygon><rect x="157.15" y="126.61" width="1.98" height="2.29" fill="#68e1fd"></rect><circle cx="158.14" cy="125.73" r="1.57" fill="#68e1fd"></circle><rect x="150.83" y="158.3" width="5.74" height="2.67" fill="#fff" opacity="0.4"></rect><rect x="159.71" y="158.3" width="5.74" height="2.67" fill="#fff" opacity="0.4"></rect><rect x="150.83" y="163.67" width="5.74" height="2.67" fill="#fff" opacity="0.4"></rect><rect x="159.71" y="163.67" width="5.74" height="2.67" fill="#fff" opacity="0.4"></rect><rect x="150.83" y="169.05" width="5.74" height="2.67" fill="#fff" opacity="0.4"></rect><rect x="159.71" y="169.05" width="5.74" height="2.67" fill="#fff" opacity="0.4"></rect><rect x="150.83" y="174.42" width="5.74" height="2.67" fill="#fff" opacity="0.4"></rect><rect x="159.71" y="174.42" width="5.74" height="2.67" fill="#fff" opacity="0.4"></rect><rect x="150.83" y="179.79" width="5.74" height="2.67" fill="#fff" opacity="0.4"></rect><rect x="159.71" y="179.79" width="5.74" height="2.67" fill="#fff" opacity="0.4"></rect><rect x="150.83" y="185.17" width="5.74" height="2.67" fill="#fff" opacity="0.4"></rect><rect x="159.71" y="185.17" width="5.74" height="2.67" fill="#fff" opacity="0.4"></rect><rect x="150.83" y="190.54" width="5.74" height="2.67" fill="#fff" opacity="0.4"></rect><rect x="159.71" y="190.54" width="5.74" height="2.67" fill="#fff" opacity="0.4"></rect><rect x="150.83" y="195.91" width="5.74" height="2.67" fill="#fff" opacity="0.4"></rect><rect x="159.71" y="195.91" width="5.74" height="2.67" fill="#fff" opacity="0.4"></rect><rect x="150.83" y="201.28" width="5.74" height="2.67" fill="#fff" opacity="0.4"></rect><rect x="159.71" y="201.28" width="5.74" height="2.67" fill="#fff" opacity="0.4"></rect><rect x="150.83" y="206.66" width="5.74" height="2.67" fill="#fff" opacity="0.4"></rect><rect x="159.71" y="206.66" width="5.74" height="2.67" fill="#fff" opacity="0.4"></rect><rect x="150.83" y="212.03" width="5.74" height="2.67" fill="#fff" opacity="0.4"></rect><rect x="159.71" y="212.03" width="5.74" height="2.67" fill="#fff" opacity="0.4"></rect><rect x="150.83" y="217.4" width="5.74" height="2.67" fill="#fff" opacity="0.4"></rect><rect x="159.71" y="217.4" width="5.74" height="2.67" fill="#fff" opacity="0.4"></rect><rect x="150.83" y="222.78" width="5.74" height="2.67" fill="#fff" opacity="0.4"></rect><rect x="159.71" y="222.78" width="5.74" height="2.67" fill="#fff" opacity="0.4"></rect><rect x="150.83" y="228.15" width="5.74" height="2.67" fill="#fff" opacity="0.4"></rect><rect x="159.71" y="228.15" width="5.74" height="2.67" fill="#fff" opacity="0.4"></rect><rect x="150.83" y="233.52" width="5.74" height="2.67" fill="#fff" opacity="0.4"></rect><rect x="159.71" y="233.52" width="5.74" height="2.67" fill="#fff" opacity="0.4"></rect><rect x="150.83" y="238.9" width="5.74" height="2.67" fill="#fff" opacity="0.4"></rect><rect x="159.71" y="238.9" width="5.74" height="2.67" fill="#fff" opacity="0.4"></rect><rect x="234.08" y="218.87" width="47.96" height="33.82" fill="#68e1fd"></rect><polygon points="242.9 156.65 274.44 170.73 274.44 218.87 242.9 218.87 242.9 156.65" fill="#68e1fd"></polygon><rect x="247.83" y="174.64" width="1.69" height="6.38" fill="#fff" opacity="0.4"></rect><rect x="252.07" y="174.64" width="1.69" height="6.38" fill="#fff" opacity="0.4"></rect><rect x="256.3" y="174.64" width="1.69" height="6.38" fill="#fff" opacity="0.4"></rect><rect x="260.54" y="174.64" width="1.69" height="6.38" fill="#fff" opacity="0.4"></rect><rect x="264.78" y="174.64" width="1.69" height="6.38" fill="#fff" opacity="0.4"></rect><rect x="269.01" y="174.64" width="1.69" height="6.38" fill="#fff" opacity="0.4"></rect><rect x="247.83" y="183.94" width="1.69" height="6.38" fill="#fff" opacity="0.4"></rect><rect x="252.07" y="183.94" width="1.69" height="6.38" fill="#fff" opacity="0.4"></rect><rect x="256.3" y="183.94" width="1.69" height="6.38" fill="#fff" opacity="0.4"></rect><rect x="260.54" y="183.94" width="1.69" height="6.38" fill="#fff" opacity="0.4"></rect><rect x="264.78" y="183.94" width="1.69" height="6.38" fill="#fff" opacity="0.4"></rect><rect x="269.01" y="183.94" width="1.69" height="6.38" fill="#fff" opacity="0.4"></rect><rect x="247.83" y="193.23" width="1.69" height="6.38" fill="#fff" opacity="0.4"></rect><rect x="252.07" y="193.23" width="1.69" height="6.38" fill="#fff" opacity="0.4"></rect><rect x="256.3" y="193.23" width="1.69" height="6.38" fill="#fff" opacity="0.4"></rect><rect x="260.54" y="193.23" width="1.69" height="6.38" fill="#fff" opacity="0.4"></rect><rect x="264.78" y="193.23" width="1.69" height="6.38" fill="#fff" opacity="0.4"></rect><rect x="269.01" y="193.23" width="1.69" height="6.38" fill="#fff" opacity="0.4"></rect><rect x="247.83" y="202.52" width="1.69" height="6.38" fill="#fff" opacity="0.4"></rect><rect x="252.07" y="202.52" width="1.69" height="6.38" fill="#fff" opacity="0.4"></rect><rect x="256.3" y="202.52" width="1.69" height="6.38" fill="#fff" opacity="0.4"></rect><rect x="260.54" y="202.52" width="1.69" height="6.38" fill="#fff" opacity="0.4"></rect><rect x="264.78" y="202.52" width="1.69" height="6.38" fill="#fff" opacity="0.4"></rect><rect x="269.01" y="202.52" width="1.69" height="6.38" fill="#fff" opacity="0.4"></rect><rect x="247.83" y="211.81" width="1.69" height="6.38" fill="#fff" opacity="0.4"></rect><rect x="252.07" y="211.81" width="1.69" height="6.38" fill="#fff" opacity="0.4"></rect><rect x="256.3" y="211.81" width="1.69" height="6.38" fill="#fff" opacity="0.4"></rect><rect x="260.54" y="211.81" width="1.69" height="6.38" fill="#fff" opacity="0.4"></rect><rect x="264.78" y="211.81" width="1.69" height="6.38" fill="#fff" opacity="0.4"></rect><rect x="269.01" y="211.81" width="1.69" height="6.38" fill="#fff" opacity="0.4"></rect><rect x="240.63" y="224.34" width="1.69" height="7.4" fill="#fff" opacity="0.4"></rect><rect x="244.86" y="224.34" width="1.69" height="7.4" fill="#fff" opacity="0.4"></rect><rect x="249.1" y="224.34" width="1.69" height="7.4" fill="#fff" opacity="0.4"></rect><rect x="253.34" y="224.34" width="1.69" height="7.4" fill="#fff" opacity="0.4"></rect><rect x="257.57" y="224.34" width="1.69" height="7.4" fill="#fff" opacity="0.4"></rect><rect x="261.81" y="224.34" width="1.69" height="7.4" fill="#fff" opacity="0.4"></rect><rect x="266.05" y="224.34" width="1.69" height="7.4" fill="#fff" opacity="0.4"></rect><rect x="270.28" y="224.34" width="1.69" height="7.4" fill="#fff" opacity="0.4"></rect><rect x="274.52" y="224.34" width="1.69" height="7.4" fill="#fff" opacity="0.4"></rect><rect x="240.63" y="236.34" width="1.69" height="7.4" fill="#fff" opacity="0.4"></rect><rect x="244.86" y="236.34" width="1.69" height="7.4" fill="#fff" opacity="0.4"></rect><rect x="249.1" y="236.34" width="1.69" height="7.4" fill="#fff" opacity="0.4"></rect><rect x="253.34" y="236.34" width="1.69" height="7.4" fill="#fff" opacity="0.4"></rect><rect x="257.57" y="236.34" width="1.69" height="7.4" fill="#fff" opacity="0.4"></rect><rect x="261.81" y="236.34" width="1.69" height="7.4" fill="#fff" opacity="0.4"></rect><rect x="266.05" y="236.34" width="1.69" height="7.4" fill="#fff" opacity="0.4"></rect><rect x="270.28" y="236.34" width="1.69" height="7.4" fill="#fff" opacity="0.4"></rect><rect x="274.52" y="236.34" width="1.69" height="7.4" fill="#fff" opacity="0.4"></rect><rect x="99.03" y="192.02" width="43.36" height="60.68" fill="#68e1fd"></rect><rect x="97.69" y="188.75" width="46.04" height="3.26" fill="#68e1fd"></rect><rect x="104.89" y="199.27" width="8.63" height="5.82" fill="#fff" opacity="0.4"></rect><rect x="116.39" y="199.27" width="8.63" height="5.82" fill="#fff" opacity="0.4"></rect><rect x="127.89" y="199.27" width="8.63" height="5.82" fill="#fff" opacity="0.4"></rect><rect x="104.89" y="208.67" width="8.63" height="5.82" fill="#fff" opacity="0.4"></rect><rect x="116.39" y="208.67" width="8.63" height="5.82" fill="#fff" opacity="0.4"></rect><rect x="127.89" y="208.67" width="8.63" height="5.82" fill="#fff" opacity="0.4"></rect><rect x="104.89" y="218.08" width="8.63" height="5.82" fill="#fff" opacity="0.4"></rect><rect x="116.39" y="218.08" width="8.63" height="5.82" fill="#fff" opacity="0.4"></rect><rect x="127.89" y="218.08" width="8.63" height="5.82" fill="#fff" opacity="0.4"></rect><rect x="104.89" y="227.49" width="8.63" height="5.82" fill="#fff" opacity="0.4"></rect><rect x="116.39" y="227.49" width="8.63" height="5.82" fill="#fff" opacity="0.4"></rect><rect x="127.89" y="227.49" width="8.63" height="5.82" fill="#fff" opacity="0.4"></rect><rect x="104.89" y="236.9" width="8.63" height="5.82" fill="#fff" opacity="0.4"></rect><rect x="116.39" y="236.9" width="8.63" height="5.82" fill="#fff" opacity="0.4"></rect><rect x="127.89" y="236.9" width="8.63" height="5.82" fill="#fff" opacity="0.4"></rect><rect x="64.87" y="249.46" width="270.25" height="11.5" rx="5.47" fill="#24285b"></rect></svg>