<svg width="406" height="306" viewBox="0 0 406 306" fill="none" xmlns="http://www.w3.org/2000/svg">
<path opacity="0.18" d="M86.1532 258.063C86.1532 258.063 41.95 205.577 64.0465 140.049C86.1431 74.5206 152.463 27.8205 236.617 43.3804C320.77 58.9404 376.687 103.123 332.778 257.748L86.1532 258.063Z" fill="#DDDBDB"/>
<path opacity="0.3" d="M334.635 102.047C334.01 102.047 333.388 102.153 332.798 102.361C333.089 101.456 333.236 100.511 333.235 99.5599C333.155 97.1566 332.144 94.8783 330.416 93.2063C328.688 91.5343 326.377 90.5996 323.973 90.5996C321.568 90.5996 319.258 91.5343 317.529 93.2063C315.801 94.8783 314.79 97.1566 314.711 99.5599C314.711 99.817 314.711 100.061 314.711 100.291C313.807 99.8342 312.812 99.5882 311.8 99.5711C310.787 99.5539 309.784 99.7661 308.866 100.192C307.947 100.617 307.137 101.245 306.495 102.029C305.854 102.812 305.398 103.73 305.162 104.715C304.926 105.699 304.915 106.724 305.132 107.713C305.348 108.702 305.786 109.63 306.411 110.426C307.037 111.222 307.835 111.866 308.745 112.309C309.655 112.753 310.653 112.985 311.666 112.988H334.595C336.046 112.988 337.437 112.412 338.463 111.386C339.489 110.36 340.066 108.968 340.066 107.518C340.066 106.067 339.489 104.675 338.463 103.649C337.437 102.623 336.046 102.047 334.595 102.047H334.635Z" fill="#DDDBDB"/>
<path opacity="0.3" d="M170.276 65.5485C169.854 65.5491 169.434 65.6247 169.038 65.7718C169.226 65.1567 169.322 64.517 169.322 63.8738C169.257 62.2578 168.569 60.7296 167.403 59.6093C166.237 58.489 164.682 57.8633 163.065 57.8633C161.448 57.8633 159.893 58.489 158.727 59.6093C157.56 60.7296 156.872 62.2578 156.807 63.8738C156.797 64.0394 156.797 64.2055 156.807 64.3711C156.195 64.0581 155.52 63.8884 154.832 63.8748C154.145 63.8612 153.463 64.004 152.839 64.2925C152.215 64.5809 151.664 65.0075 151.229 65.54C150.794 66.0724 150.486 66.6968 150.327 67.366C150.169 68.0351 150.165 68.7315 150.315 69.4025C150.465 70.0735 150.766 70.7016 151.195 71.2393C151.623 71.7769 152.169 72.2101 152.789 72.5061C153.41 72.8021 154.09 72.9532 154.777 72.9479H170.266C171.214 72.8982 172.106 72.4868 172.76 71.7984C173.413 71.11 173.777 70.1972 173.777 69.2482C173.777 68.2992 173.413 67.3864 172.76 66.698C172.106 66.0096 171.214 65.5982 170.266 65.5485H170.276Z" fill="#DDDBDB"/>
<path opacity="0.17" d="M118.136 91.0241C129.42 91.0241 138.568 81.8764 138.568 70.5921C138.568 59.3078 129.42 50.1602 118.136 50.1602C106.852 50.1602 97.7039 59.3078 97.7039 70.5921C97.7039 81.8764 106.852 91.0241 118.136 91.0241Z" fill="#FFD200"/>
<path d="M118.136 83.9702C125.524 83.9702 131.514 77.9808 131.514 70.5925C131.514 63.2042 125.524 57.2148 118.136 57.2148C110.748 57.2148 104.758 63.2042 104.758 70.5925C104.758 77.9808 110.748 83.9702 118.136 83.9702Z" fill="#FFD200"/>
<path d="M316.964 196.645V169.402H312.427V126.772L304.622 118.581H285.377L279.663 126.772V177.025H255.709V78.1433H246.188V73.8498H231.227V65.2832H229.613V73.6671H225.421V78.1433H222.661V189.022H181.888V108.624H175.027V91.4804H140.73V108.624L131.777 111.993V132.06H121.485V114.338L114.634 104.625H91.2079V172.274H77.7997V257.23H91.2079H328.2V196.645H316.964Z" fill="#E6E6E6"/>
<path d="M205.649 95.9983C218.346 95.9983 228.639 95.1076 228.639 94.0089C228.639 92.9102 218.346 92.0195 205.649 92.0195C192.952 92.0195 182.659 92.9102 182.659 94.0089C182.659 95.1076 192.952 95.9983 205.649 95.9983Z" fill="#9ED6BE"/>
<path d="M224.772 93.1765H186.516L184.771 86.7109H226.518L224.772 93.1765Z" fill="#24285B"/>
<path d="M223.97 87.4523H187.318L185.643 80.9766H225.645L223.97 87.4523Z" fill="#24285B"/>
<path d="M223.899 80.9341H187.359C187.359 80.9341 187.623 79.9191 191.267 78.9041C194.91 77.8891 198.95 76.8741 198.443 75.646C197.935 74.4178 194.981 73.3419 194.525 72.4386C194.068 71.5352 194.474 71.4845 194.921 71.4236C195.367 71.3627 205.609 71.4236 205.609 71.4236C205.609 71.4236 215.86 71.3627 216.307 71.4236C216.753 71.4845 217.139 71.5454 216.692 72.4386C216.246 73.3318 213.292 74.3671 212.785 75.646C212.277 76.9249 216.307 77.95 219.95 78.9041C223.594 79.8582 223.899 80.9341 223.899 80.9341Z" fill="#9ED6BE"/>
<path d="M213.647 69.7598H197.651V71.4447H213.647V69.7598Z" fill="#9ED6BE"/>
<path d="M208.461 69.7696H202.838C202.838 69.7696 204.766 57.0415 205.436 50.6064C205.447 50.559 205.473 50.5167 205.511 50.4863C205.549 50.456 205.596 50.4395 205.644 50.4395C205.693 50.4395 205.74 50.456 205.777 50.4863C205.815 50.5167 205.842 50.559 205.852 50.6064C206.532 57.0313 208.461 69.7696 208.461 69.7696Z" fill="#9ED6BE"/>
<path d="M205.649 235.57C216.939 235.57 226.091 233.438 226.091 230.809C226.091 228.18 216.939 226.049 205.649 226.049C194.359 226.049 185.207 228.18 185.207 230.809C185.207 233.438 194.359 235.57 205.649 235.57Z" fill="#9ED6BE"/>
<path d="M224.63 257.23H216.368C216.307 255.829 208.704 149.396 205.649 149.396C202.594 149.396 194.992 255.829 194.931 257.23H186.669C186.669 257.23 201.762 159.891 201.762 127.564C201.762 117.82 199.102 107.771 197.123 101.641C195.956 98.0068 195.022 95.7535 195.022 95.7535L198.94 95.1445C199.131 97.3404 199.47 99.5209 199.955 101.671C201.457 108.776 204.238 115.982 205.71 115.982C207.182 115.982 209.963 108.806 211.465 101.671C211.95 99.5209 212.289 97.3404 212.48 95.1445L216.378 95.784C216.378 95.784 215.444 98.0373 214.277 101.671C212.297 107.761 209.638 117.85 209.638 127.594C209.537 156.593 224.63 257.23 224.63 257.23Z" fill="#9ED6BE"/>
<path opacity="0.1" d="M198.94 95.1445C199.131 97.3404 199.47 99.5209 199.955 101.671H197.184C196.017 98.0373 195.083 95.784 195.083 95.784L198.94 95.1445Z" fill="black"/>
<path opacity="0.1" d="M216.276 95.7547C216.276 95.7547 215.342 98.008 214.175 101.642H211.404C211.889 99.4916 212.228 97.3111 212.419 95.1152L216.276 95.7547Z" fill="black"/>
<path d="M205.649 89.2067C221.283 89.2067 233.958 88.0888 233.958 86.7098C233.958 85.3308 221.283 84.2129 205.649 84.2129C190.015 84.2129 177.341 85.3308 177.341 86.7098C177.341 88.0888 190.015 89.2067 205.649 89.2067Z" fill="#9ED6BE"/>
<path d="M205.649 89.2067C221.283 89.2067 233.958 88.0888 233.958 86.7098C233.958 85.3308 221.283 84.2129 205.649 84.2129C190.015 84.2129 177.341 85.3308 177.341 86.7098C177.341 88.0888 190.015 89.2067 205.649 89.2067Z" fill="#9ED6BE"/>
<path d="M295.801 107.549H263.981V257.241H295.801V107.549Z" fill="#9ED6BE"/>
<path opacity="0.1" d="M295.801 107.549H263.981V257.241H295.801V107.549Z" fill="black"/>
<path d="M291.985 103.305H267.98V107.547H291.985V103.305Z" fill="#9ED6BE"/>
<path d="M171.352 157.416H149.682V257.231H171.352V157.416Z" fill="#9ED6BE"/>
<path d="M146.81 154.279H174.215L171.352 157.416H149.682L146.81 154.279Z" fill="#9ED6BE"/>
<path opacity="0.1" d="M146.81 154.279H174.215L171.352 157.416H149.682L146.81 154.279Z" fill="black"/>
<path d="M174.215 152.422H146.81V154.279H174.215V152.422Z" fill="#9ED6BE"/>
<path opacity="0.4" d="M174.215 152.422H146.81V154.279H174.215V152.422Z" fill="white"/>
<path d="M171.819 149.559H149.215V152.421H171.819V149.559Z" fill="#9ED6BE"/>
<path opacity="0.1" d="M171.819 149.559H149.215V152.421H171.819V149.559Z" fill="black"/>
<path d="M149.215 149.558H171.819L161.842 131.105H159.182L149.215 149.558Z" fill="#9ED6BE"/>
<path opacity="0.4" d="M149.215 149.558H171.819L161.842 131.105H159.182L149.215 149.558Z" fill="white"/>
<path d="M161.517 129.26H159.507V131.584H161.517V129.26Z" fill="#9ED6BE"/>
<path d="M160.512 129.959C161.392 129.959 162.106 129.245 162.106 128.365C162.106 127.485 161.392 126.771 160.512 126.771C159.632 126.771 158.919 127.485 158.919 128.365C158.919 129.245 159.632 129.959 160.512 129.959Z" fill="#9ED6BE"/>
<path opacity="0.4" d="M158.919 161.424H153.092V164.134H158.919V161.424Z" fill="white"/>
<path opacity="0.4" d="M167.932 161.424H162.106V164.134H167.932V161.424Z" fill="white"/>
<path opacity="0.4" d="M158.919 166.875H153.092V169.585H158.919V166.875Z" fill="white"/>
<path opacity="0.4" d="M167.932 166.875H162.106V169.585H167.932V166.875Z" fill="white"/>
<path opacity="0.4" d="M158.919 172.336H153.092V175.046H158.919V172.336Z" fill="white"/>
<path opacity="0.4" d="M167.932 172.336H162.106V175.046H167.932V172.336Z" fill="white"/>
<path opacity="0.4" d="M158.919 177.787H153.092V180.497H158.919V177.787Z" fill="white"/>
<path opacity="0.4" d="M167.932 177.787H162.106V180.497H167.932V177.787Z" fill="white"/>
<path opacity="0.4" d="M158.919 183.236H153.092V185.946H158.919V183.236Z" fill="white"/>
<path opacity="0.4" d="M167.932 183.236H162.106V185.946H167.932V183.236Z" fill="white"/>
<path opacity="0.4" d="M158.919 188.697H153.092V191.407H158.919V188.697Z" fill="white"/>
<path opacity="0.4" d="M167.932 188.697H162.106V191.407H167.932V188.697Z" fill="white"/>
<path opacity="0.4" d="M158.919 194.148H153.092V196.859H158.919V194.148Z" fill="white"/>
<path opacity="0.4" d="M167.932 194.148H162.106V196.859H167.932V194.148Z" fill="white"/>
<path opacity="0.4" d="M158.919 199.6H153.092V202.31H158.919V199.6Z" fill="white"/>
<path opacity="0.4" d="M167.932 199.6H162.106V202.31H167.932V199.6Z" fill="white"/>
<path opacity="0.4" d="M158.919 205.049H153.092V207.759H158.919V205.049Z" fill="white"/>
<path opacity="0.4" d="M167.932 205.049H162.106V207.759H167.932V205.049Z" fill="white"/>
<path opacity="0.4" d="M158.919 210.51H153.092V213.22H158.919V210.51Z" fill="white"/>
<path opacity="0.4" d="M167.932 210.51H162.106V213.22H167.932V210.51Z" fill="white"/>
<path opacity="0.4" d="M158.919 215.961H153.092V218.671H158.919V215.961Z" fill="white"/>
<path opacity="0.4" d="M167.932 215.961H162.106V218.671H167.932V215.961Z" fill="white"/>
<path opacity="0.4" d="M158.919 221.41H153.092V224.12H158.919V221.41Z" fill="white"/>
<path opacity="0.4" d="M167.932 221.41H162.106V224.12H167.932V221.41Z" fill="white"/>
<path opacity="0.4" d="M158.919 226.871H153.092V229.581H158.919V226.871Z" fill="white"/>
<path opacity="0.4" d="M167.932 226.871H162.106V229.581H167.932V226.871Z" fill="white"/>
<path opacity="0.4" d="M158.919 232.322H153.092V235.032H158.919V232.322Z" fill="white"/>
<path opacity="0.4" d="M167.932 232.322H162.106V235.032H167.932V232.322Z" fill="white"/>
<path opacity="0.4" d="M158.919 237.773H153.092V240.483H158.919V237.773Z" fill="white"/>
<path opacity="0.4" d="M167.932 237.773H162.106V240.483H167.932V237.773Z" fill="white"/>
<path opacity="0.4" d="M158.919 243.234H153.092V245.944H158.919V243.234Z" fill="white"/>
<path opacity="0.4" d="M167.932 243.234H162.106V245.944H167.932V243.234Z" fill="white"/>
<path d="M286.271 222.902H237.591V257.23H286.271V222.902Z" fill="#9ED6BE"/>
<path d="M246.543 159.75L278.557 174.041V222.903H246.543V159.75Z" fill="#9ED6BE"/>
<path opacity="0.4" d="M253.263 178.01H251.547V184.485H253.263V178.01Z" fill="white"/>
<path opacity="0.4" d="M257.566 178.01H255.851V184.485H257.566V178.01Z" fill="white"/>
<path opacity="0.4" d="M261.86 178.01H260.145V184.485H261.86V178.01Z" fill="white"/>
<path opacity="0.4" d="M266.163 178.01H264.448V184.485H266.163V178.01Z" fill="white"/>
<path opacity="0.4" d="M270.467 178.01H268.752V184.485H270.467V178.01Z" fill="white"/>
<path opacity="0.4" d="M274.761 178.01H273.045V184.485H274.761V178.01Z" fill="white"/>
<path opacity="0.4" d="M253.263 187.449H251.547V193.925H253.263V187.449Z" fill="white"/>
<path opacity="0.4" d="M257.566 187.449H255.851V193.925H257.566V187.449Z" fill="white"/>
<path opacity="0.4" d="M261.86 187.449H260.145V193.925H261.86V187.449Z" fill="white"/>
<path opacity="0.4" d="M266.163 187.449H264.448V193.925H266.163V187.449Z" fill="white"/>
<path opacity="0.4" d="M270.467 187.449H268.752V193.925H270.467V187.449Z" fill="white"/>
<path opacity="0.4" d="M274.761 187.449H273.045V193.925H274.761V187.449Z" fill="white"/>
<path opacity="0.4" d="M253.263 196.879H251.547V203.355H253.263V196.879Z" fill="white"/>
<path opacity="0.4" d="M257.566 196.879H255.851V203.355H257.566V196.879Z" fill="white"/>
<path opacity="0.4" d="M261.86 196.879H260.145V203.355H261.86V196.879Z" fill="white"/>
<path opacity="0.4" d="M266.163 196.879H264.448V203.355H266.163V196.879Z" fill="white"/>
<path opacity="0.4" d="M270.467 196.879H268.752V203.355H270.467V196.879Z" fill="white"/>
<path opacity="0.4" d="M274.761 196.879H273.045V203.355H274.761V196.879Z" fill="white"/>
<path opacity="0.4" d="M253.263 206.309H251.547V212.784H253.263V206.309Z" fill="white"/>
<path opacity="0.4" d="M257.566 206.309H255.851V212.784H257.566V206.309Z" fill="white"/>
<path opacity="0.4" d="M261.86 206.309H260.145V212.784H261.86V206.309Z" fill="white"/>
<path opacity="0.4" d="M266.163 206.309H264.448V212.784H266.163V206.309Z" fill="white"/>
<path opacity="0.4" d="M270.467 206.309H268.752V212.784H270.467V206.309Z" fill="white"/>
<path opacity="0.4" d="M274.761 206.309H273.045V212.784H274.761V206.309Z" fill="white"/>
<path opacity="0.4" d="M253.263 215.736H251.547V222.212H253.263V215.736Z" fill="white"/>
<path opacity="0.4" d="M257.566 215.736H255.851V222.212H257.566V215.736Z" fill="white"/>
<path opacity="0.4" d="M261.86 215.736H260.145V222.212H261.86V215.736Z" fill="white"/>
<path opacity="0.4" d="M266.163 215.736H264.448V222.212H266.163V215.736Z" fill="white"/>
<path opacity="0.4" d="M270.467 215.736H268.752V222.212H270.467V215.736Z" fill="white"/>
<path opacity="0.4" d="M274.761 215.736H273.045V222.212H274.761V215.736Z" fill="white"/>
<path opacity="0.4" d="M245.955 228.455H244.239V235.966H245.955V228.455Z" fill="white"/>
<path opacity="0.4" d="M250.248 228.455H248.533V235.966H250.248V228.455Z" fill="white"/>
<path opacity="0.4" d="M254.552 228.455H252.836V235.966H254.552V228.455Z" fill="white"/>
<path opacity="0.4" d="M258.855 228.455H257.14V235.966H258.855V228.455Z" fill="white"/>
<path opacity="0.4" d="M263.149 228.455H261.434V235.966H263.149V228.455Z" fill="white"/>
<path opacity="0.4" d="M267.453 228.455H265.737V235.966H267.453V228.455Z" fill="white"/>
<path opacity="0.4" d="M271.756 228.455H270.041V235.966H271.756V228.455Z" fill="white"/>
<path opacity="0.4" d="M276.05 228.455H274.334V235.966H276.05V228.455Z" fill="white"/>
<path opacity="0.4" d="M280.353 228.455H278.638V235.966H280.353V228.455Z" fill="white"/>
<path opacity="0.4" d="M245.955 240.635H244.239V248.146H245.955V240.635Z" fill="white"/>
<path opacity="0.4" d="M250.248 240.635H248.533V248.146H250.248V240.635Z" fill="white"/>
<path opacity="0.4" d="M254.552 240.635H252.836V248.146H254.552V240.635Z" fill="white"/>
<path opacity="0.4" d="M258.855 240.635H257.14V248.146H258.855V240.635Z" fill="white"/>
<path opacity="0.4" d="M263.149 240.635H261.434V248.146H263.149V240.635Z" fill="white"/>
<path opacity="0.4" d="M267.453 240.635H265.737V248.146H267.453V240.635Z" fill="white"/>
<path opacity="0.4" d="M271.756 240.635H270.041V248.146H271.756V240.635Z" fill="white"/>
<path opacity="0.4" d="M276.05 240.635H274.334V248.146H276.05V240.635Z" fill="white"/>
<path opacity="0.4" d="M280.353 240.635H278.638V248.146H280.353V240.635Z" fill="white"/>
<path d="M144.526 195.65H100.515V257.241H144.526V195.65Z" fill="#9ED6BE"/>
<path d="M145.886 192.332H99.1553V195.641H145.886V192.332Z" fill="#9ED6BE"/>
<path opacity="0.4" d="M115.223 203.01H106.463V208.917H115.223V203.01Z" fill="white"/>
<path opacity="0.4" d="M126.895 203.01H118.136V208.917H126.895V203.01Z" fill="white"/>
<path opacity="0.4" d="M138.568 203.01H129.808V208.917H138.568V203.01Z" fill="white"/>
<path opacity="0.4" d="M115.223 212.551H106.463V218.458H115.223V212.551Z" fill="white"/>
<path opacity="0.4" d="M126.895 212.551H118.136V218.458H126.895V212.551Z" fill="white"/>
<path opacity="0.4" d="M138.568 212.551H129.808V218.458H138.568V212.551Z" fill="white"/>
<path opacity="0.4" d="M115.223 222.102H106.463V228.009H115.223V222.102Z" fill="white"/>
<path opacity="0.4" d="M126.895 222.102H118.136V228.009H126.895V222.102Z" fill="white"/>
<path opacity="0.4" d="M138.568 222.102H129.808V228.009H138.568V222.102Z" fill="white"/>
<path opacity="0.4" d="M115.223 231.652H106.463V237.56H115.223V231.652Z" fill="white"/>
<path opacity="0.4" d="M126.895 231.652H118.136V237.56H126.895V231.652Z" fill="white"/>
<path opacity="0.4" d="M138.568 231.652H129.808V237.56H138.568V231.652Z" fill="white"/>
<path opacity="0.4" d="M115.223 241.203H106.463V247.11H115.223V241.203Z" fill="white"/>
<path opacity="0.4" d="M126.895 241.203H118.136V247.11H126.895V241.203Z" fill="white"/>
<path opacity="0.4" d="M138.568 241.203H129.808V247.11H138.568V241.203Z" fill="white"/>
<path d="M334.595 253.951H71.3951C68.3288 253.951 65.8431 256.437 65.8431 259.503V260.072C65.8431 263.138 68.3288 265.624 71.3951 265.624H334.595C337.661 265.624 340.147 263.138 340.147 260.072V259.503C340.147 256.437 337.661 253.951 334.595 253.951Z" fill="#24285B"/>
</svg>
