<svg width="548" height="412" viewBox="0 0 548 412" fill="none" xmlns="http://www.w3.org/2000/svg">
<g clip-path="url(#clip0_4210_3976)">
<path opacity="0.18" d="M116.884 60.3069C153.565 54.9946 191.333 58.6536 227.701 51.3627C265.74 43.7331 300.383 24.5303 337.05 11.7781C373.717 -0.974079 416.063 -6.70647 450.081 11.9814C470.907 23.4326 486.232 42.8251 498.255 63.3425C521.952 103.804 534.796 149.674 535.547 196.529C535.887 219.757 533.183 243.147 526.037 265.263C502.154 339.175 429.866 390.332 353.638 406.107C269.924 423.439 178.902 402.312 111.301 350.124C53.7392 305.607 -3.18378 226.234 16.3385 153.936C29.2854 105.854 61.8905 68.2753 116.884 60.3069Z" fill="#68E1FD"/>
<path d="M404.624 258.241L362.862 289.071C361.974 289.726 360.861 290.002 359.768 289.84C358.676 289.677 357.692 289.089 357.034 288.204L339.713 264.854C339.386 264.419 339.155 263.92 339.034 263.39C338.83 262.594 338.869 261.755 339.145 260.981C339.421 260.206 339.921 259.531 340.582 259.04L382.358 228.21C382.851 227.848 383.418 227.598 384.019 227.479C384.62 227.359 385.24 227.373 385.835 227.519C386.773 227.757 387.602 228.307 388.186 229.077L405.507 252.441C405.831 252.879 406.065 253.377 406.196 253.906C406.327 254.435 406.352 254.985 406.27 255.523C406.188 256.062 406.001 256.579 405.718 257.045C405.436 257.512 405.064 257.918 404.624 258.241Z" fill="#68E1FD"/>
<path d="M385.835 227.519L378.105 262.157L339.034 263.39C338.83 262.594 338.869 261.755 339.145 260.981C339.421 260.206 339.921 259.531 340.582 259.04L382.357 228.21C382.851 227.848 383.418 227.598 384.019 227.479C384.62 227.359 385.24 227.373 385.835 227.519Z" fill="url(#paint0_linear_4210_3976)"/>
<path d="M364.085 262.607L365.362 287.217L404.624 258.243L380.863 249.773L378.105 262.16L364.085 262.607Z" fill="url(#paint1_linear_4210_3976)"/>
<path d="M412.395 61.1445L365.743 127.453L356.776 102.64C325.813 110.844 295.33 120.756 265.469 132.332C231.043 146.006 197.895 162.999 188.371 180.562C166.539 220.906 217.824 238.74 217.824 238.74C208.067 239.518 198.256 239.282 188.548 238.035C162.966 234.688 131.204 222.329 140.401 180.562C147.669 147.564 194.987 119.81 241.477 100.038H241.545C248.337 97.1651 255.13 94.4683 261.733 91.907L261.923 91.8257C286.793 82.3399 312.158 74.197 337.906 67.4325L333.436 45.7227L412.395 61.1445Z" fill="#68E1FD"/>
<path d="M188.371 180.565C166.539 220.908 217.824 238.743 217.824 238.743C208.067 239.521 198.255 239.285 188.547 238.038C184.703 233.574 181.111 228.901 177.788 224.039C148.348 181.324 211.493 147.661 211.493 147.661C216.751 128.513 241.476 112.671 241.476 112.671V100.04H241.544L261.732 91.9094L261.922 91.8281L266.365 128.851L265.468 132.307C231.043 146.008 197.894 163.002 188.371 180.565Z" fill="url(#paint2_linear_4210_3976)"/>
<path d="M331.534 319.877C330.291 321.986 329.522 324.339 329.279 326.774C329.321 329.212 330.113 331.577 331.548 333.55C334.496 337.913 339.016 340.976 344.169 342.101C344.843 342.308 345.568 342.274 346.22 342.007C346.667 341.733 347.014 341.325 347.212 340.841C348.448 338.334 347.946 335.353 347.131 332.71C346.315 330.067 345.201 327.384 345.324 324.579C345.528 319.334 353.04 309.211 344.291 306.745C336.996 304.631 333.858 315.201 331.534 319.877Z" fill="#B2857F"/>
<path d="M326.399 326.719C326.399 326.719 323.818 328.833 324.307 331.164C324.796 333.495 334.075 349.743 347.293 347.887C360.512 346.03 338.802 332.98 338.802 332.98L326.399 326.719Z" fill="#68E1FD"/>
<path d="M330.393 320.715C330.935 320.734 331.451 320.948 331.848 321.316C332.245 321.685 332.495 322.183 332.553 322.72C332.898 324.268 333.633 325.703 334.689 326.889C335.744 328.074 337.085 328.972 338.585 329.496C342.036 330.431 345.188 327.558 346.737 328.372C348.285 329.185 352.633 340.5 351.492 343.726C350.35 346.951 344.998 346.87 340.243 344.661C335.488 342.452 326.82 333.63 326.155 330.147C325.489 326.664 328.505 321.65 330.393 320.715Z" fill="white"/>
<path d="M275.481 338.619C274.199 341.024 273.457 343.678 273.307 346.398C273.494 349.081 274.488 351.646 276.16 353.756C279.649 358.473 284.826 361.667 290.615 362.673C291.372 362.873 292.175 362.801 292.884 362.47C293.362 362.131 293.73 361.66 293.943 361.115C295.193 358.269 294.473 354.976 293.454 352.049C292.435 349.122 291.077 346.235 291.023 343.145C291.023 337.318 298.861 325.677 289.025 323.36C280.806 321.422 277.818 333.32 275.481 338.619Z" fill="#B2857F"/>
<path d="M270.087 346.57C270.087 346.57 267.37 349.05 267.982 351.612C268.593 354.173 279.706 371.804 294.324 369.093C308.942 366.383 284.189 353.034 284.189 353.034L270.087 346.57Z" fill="#68E1FD"/>
<path d="M274.231 339.633C274.839 339.626 275.428 339.84 275.89 340.233C276.352 340.627 276.656 341.174 276.744 341.774C277.199 343.474 278.083 345.028 279.313 346.288C280.543 347.548 282.077 348.472 283.768 348.97C287.654 349.837 291.036 346.517 292.748 347.33C294.46 348.143 299.894 360.543 298.753 364.162C297.612 367.78 291.675 367.97 286.281 365.747C280.888 363.525 270.821 354.12 269.979 350.285C269.137 346.449 272.18 340.771 274.231 339.633Z" fill="white"/>
<path d="M304.784 197.284C305.154 197.349 305.518 197.444 305.871 197.569C314.457 200.821 324.796 215.322 330.638 222.206C338.231 230.925 344.552 240.67 349.413 251.153C359.276 273.12 360.186 300.413 346.329 320.117L335.678 317.895C334.748 317.792 333.871 317.409 333.164 316.797C332.801 316.266 332.55 315.666 332.426 315.035C332.302 314.403 332.308 313.754 332.444 313.125C333.007 305.535 332.656 297.905 331.398 290.398C330.695 285.254 329.115 280.267 326.725 275.654C323.383 269.651 318.112 265.003 312.976 260.449C296.674 246.044 282.056 231.15 273.973 210.782C281.268 207.204 296.918 195.902 304.784 197.284Z" fill="#473F47"/>
<path d="M280.114 208.343C280.465 208.483 280.798 208.665 281.105 208.885C288.7 214.035 295.37 230.568 299.446 238.591C304.784 248.842 308.652 259.791 310.939 271.115C315.381 294.763 309.907 321.514 291.824 337.518L281.975 332.87C281.098 332.554 280.336 331.982 279.788 331.23C279.559 330.626 279.456 329.982 279.484 329.337C279.512 328.692 279.671 328.059 279.951 327.477C282.274 320.226 283.715 312.723 284.244 305.13C284.764 299.964 284.392 294.748 283.143 289.708C281.309 283.108 277.261 277.362 273.335 271.725C260.904 253.945 250.117 236.043 247.02 214.36C254.94 212.571 272.805 205.226 280.114 208.343Z" fill="#473F47"/>
<path d="M324.361 156.726C324.368 156.784 324.368 156.844 324.361 156.902C324.484 159.165 325.231 161.157 324.647 163.461C324.022 166.022 321.631 168.34 319.022 167.96C316.849 167.649 315.368 165.697 313.697 164.274C311.948 162.877 310.008 161.737 307.937 160.886C305.22 159.626 302.421 158.447 299.622 157.363C297.829 156.658 294.405 156.224 293.645 154.395C292.884 152.565 293.128 149.679 292.911 147.741L289.528 116.992L321.006 142.74C322.297 145.556 323.303 148.493 324.008 151.508C324.309 153.23 324.427 154.979 324.361 156.726Z" fill="white"/>
<path d="M300.994 160.115C301.184 161.931 301.605 163.733 301.823 165.536C302.964 175.55 301.728 186.161 305.803 195.661C306.727 197.775 307.923 200.025 307.379 202.274C306.715 204.181 305.377 205.78 303.616 206.773C295.302 212.574 285.208 215.162 275.372 217.615C267.968 219.485 257.548 222.886 250.157 219.607C247.006 218.252 245.647 215.108 244.356 212.018C240.281 202.179 238.134 191.338 236.205 180.849C235.961 179.494 235.702 178.139 235.471 176.716C233.868 167.257 232.614 157.716 231.708 148.094C231.083 141.102 230.798 133.513 234.792 127.767C240.091 120.097 251.312 114.215 260.048 111.505C262.873 110.598 265.816 110.109 268.783 110.055C273.011 110.252 277.173 111.168 281.091 112.765C285.751 114.459 289.895 115.868 292.544 119.988C295.481 124.774 297.731 129.947 299.228 135.356C300.638 140.421 301.337 145.657 301.307 150.913C301.307 153.488 300.953 156.09 300.967 158.651C300.924 159.139 300.933 159.629 300.994 160.115Z" fill="white"/>
<path opacity="0.1" d="M266.216 221.368C263.39 222.547 256.38 220.609 254.111 220.46C252.753 220.379 251.394 219.836 250.036 219.674C243.243 218.739 240.349 200.173 239.167 195.281C235.988 182.203 231.831 168.76 230.174 155.479C229.549 150.343 229.1 145.099 230.255 140.071C231.41 135.043 234.331 130.192 239.018 127.874C247.169 123.89 252.671 150.438 254.451 155.859C256.679 162.635 258.92 169.41 261.135 176.186C262.113 179.222 262.425 182.596 264.096 185.374C266.637 189.589 268.783 188.789 273.036 188.085C281.961 186.54 290.303 182.759 299.093 180.645C299.454 180.51 299.839 180.45 300.225 180.469C300.61 180.487 300.987 180.584 301.334 180.753C301.808 181.142 302.13 181.684 302.244 182.285C302.762 183.996 303.045 185.769 303.087 187.556C303.138 188.068 303.063 188.584 302.869 189.06C302.563 189.547 302.137 189.948 301.633 190.226C295.692 194.146 289.168 197.105 282.301 198.994C276.867 200.512 271.718 203.059 268.05 207.586C264.749 211.651 269.042 215.934 267.248 220.338C267.155 220.57 267.015 220.781 266.837 220.958C266.66 221.135 266.449 221.274 266.216 221.368Z" fill="#020202"/>
<path d="M260.021 200.89L312.107 183.367L350.309 205.104L297.15 226.841L260.021 200.89Z" fill="#68E1FD"/>
<path d="M260.021 200.89L312.107 183.367L350.309 205.104L297.15 226.841L260.021 200.89Z" fill="url(#paint3_linear_4210_3976)"/>
<path d="M262.167 198.085L314.254 180.562L352.456 202.299L299.296 224.036L262.167 198.085Z" fill="#68E1FD"/>
<path d="M301.85 221.044L344.943 202.058L323.913 190.539L281.064 206.72L301.85 221.044Z" fill="url(#paint4_linear_4210_3976)"/>
<path d="M299.296 224.036H350.662L394.883 196.566L352.456 202.299L299.296 224.036Z" fill="#68E1FD"/>
<path d="M281.771 98.1288C281.241 100.04 280.67 101.95 280.059 103.848C278.7 108.184 275.983 112.141 271.256 113.185C270.211 113.385 269.153 113.512 268.09 113.564C267.886 113.564 267.656 113.564 267.384 113.564C267.369 113.571 267.353 113.575 267.336 113.575C267.32 113.575 267.304 113.571 267.289 113.564H267.166C266.636 113.539 266.105 113.594 265.591 113.727C265.447 113.734 265.307 113.776 265.183 113.849C263.824 114.472 263.933 116.668 264.028 117.914C264.363 119.317 264.2 120.792 263.566 122.088C263.566 122.088 263.566 122.17 263.485 122.224C263.108 122.634 262.654 122.964 262.147 123.197C261.641 123.43 261.094 123.56 260.537 123.579C258.194 123.768 255.868 123.06 254.029 121.6C252.977 120.626 252.132 119.451 251.543 118.145C251.359 117.774 251.205 117.388 251.081 116.993C250.927 116.322 250.868 115.634 250.905 114.947C250.929 113.893 251.029 112.842 251.204 111.803C251.705 109.751 252.099 107.675 252.385 105.582C252.403 104.522 252.476 103.464 252.603 102.411C252.777 101.739 252.904 101.055 252.983 100.365C252.983 98.3728 251.964 96.4484 251.951 94.4292C251.933 92.4324 252.119 90.4389 252.508 88.48C253.233 84.5943 254.929 80.9539 257.439 77.8961C262.099 72.4754 270.359 69.765 276.853 72.8548C280.098 74.3993 282.616 77.1392 283.877 80.498C286.05 86.2033 283.333 92.5591 281.771 98.1288Z" fill="#B2857F"/>
<path d="M275.006 195.957C276.147 195.822 277.302 195.7 278.443 195.605C279.123 195.509 279.816 195.551 280.481 195.727C280.807 195.812 281.105 195.982 281.344 196.221C281.583 196.459 281.754 196.756 281.839 197.082C281.832 197.33 281.883 197.576 281.989 197.8C282.162 198.001 282.404 198.131 282.668 198.166C286.743 199.223 290.955 200.876 293.387 204.224C293.676 204.54 293.878 204.927 293.974 205.345C294.069 205.763 294.054 206.198 293.93 206.609C293.373 207.747 291.743 207.584 290.52 207.246C290.696 207.496 290.79 207.794 290.79 208.099C290.79 208.405 290.696 208.703 290.52 208.953C290.337 209.199 290.097 209.397 289.82 209.529C289.543 209.661 289.238 209.724 288.931 209.712C288.527 209.638 288.112 209.638 287.708 209.712C287.431 209.841 287.174 210.01 286.947 210.213C286.375 210.591 285.732 210.847 285.057 210.969C284.382 211.09 283.689 211.073 283.021 210.918C281.662 210.715 280.304 210.254 278.945 210.146C276.84 209.983 274.951 210.674 272.995 209.82C270.838 208.755 268.556 207.963 266.202 207.462C265.454 207.343 264.763 206.986 264.232 206.446C264.004 205.987 263.885 205.481 263.885 204.969C263.885 204.456 264.004 203.951 264.232 203.492C264.584 201.829 265.218 200.239 266.107 198.789C267.262 197.163 269.191 196.879 271.079 196.553C272.465 196.323 273.701 196.147 275.006 195.957Z" fill="#B2857F"/>
<path d="M234.765 127.753C224.78 144.245 214.917 163.353 212.078 182.569C211.33 187.624 210.923 193.587 213.3 198.33C217.186 206.055 230.404 207.559 238.012 208.331C247.122 209.253 256.296 209.375 265.428 208.697C265.627 208.735 265.833 208.723 266.027 208.662C266.221 208.601 266.397 208.494 266.54 208.349C266.682 208.205 266.787 208.027 266.844 207.832C266.901 207.638 266.909 207.432 266.868 207.234L267.248 198.466C267.311 198.056 267.254 197.638 267.085 197.259C266.847 196.983 266.547 196.767 266.21 196.628C265.872 196.489 265.506 196.432 265.142 196.46C259.821 196.035 254.593 194.825 249.628 192.869C244.914 190.999 235.703 186.093 236.368 179.913C236.735 176.444 240.553 172.216 242.441 169.478C246.979 162.906 251.869 156.537 256.869 150.303C256.869 150.303 257.358 114.838 234.765 127.753Z" fill="white"/>
<path d="M280.208 90.1589C280.884 90.003 281.519 89.7062 282.071 89.2881C282.624 88.8701 283.082 88.3402 283.414 87.7332C283.971 89.2916 286.607 88.8173 287.273 87.286C287.938 85.7546 287.273 84.02 286.675 82.4886C287.299 82.3421 287.877 82.0427 288.356 81.6176C288.835 81.1925 289.2 80.655 289.418 80.0537C289.637 79.4525 289.701 78.8064 289.607 78.1739C289.512 77.5414 289.261 76.9424 288.876 76.431C288.428 75.9296 287.803 75.496 287.68 74.8184C287.651 74.3019 287.73 73.7851 287.911 73.3006C287.996 72.505 287.869 71.7012 287.542 70.9706C287.215 70.24 286.7 69.6086 286.05 69.1402C284.714 68.2212 283.223 67.5509 281.648 67.1616C282.071 66.4757 282.229 65.6595 282.091 64.8661C281.953 64.0727 281.53 63.3566 280.901 62.8522C279.613 61.871 278.051 61.3123 276.432 61.2531C274.081 60.9956 271.486 61.104 269.639 62.6082C268.377 61.8272 266.89 61.4884 265.414 61.6455C263.937 61.8026 262.556 62.4466 261.488 63.4756C261.108 64.0004 260.577 64.3975 259.966 64.6139C259.529 64.6454 259.091 64.571 258.689 64.3971C256.976 63.6663 255.081 63.4726 253.255 63.8415C252.342 64.0585 251.544 64.609 251.019 65.3842C250.493 66.1595 250.278 67.1032 250.415 68.0289C249.741 68.1098 249.107 68.3946 248.6 68.8452C248.092 69.2958 247.735 69.8906 247.576 70.5496C247.545 70.9629 247.415 71.3627 247.196 71.715C246.802 72.1758 246.109 72.1487 245.525 72.2029C244.41 72.2997 243.374 72.8123 242.622 73.6382C241.87 74.4641 241.458 75.5427 241.468 76.6584C241.478 77.7741 241.91 78.8448 242.677 79.6568C243.444 80.4688 244.49 80.9623 245.606 81.0386C245.478 81.5831 245.463 82.1482 245.564 82.6985C245.664 83.2488 245.878 83.7725 246.19 84.2368C246.91 85.3887 247.875 85.47 248.826 86.1883C249.383 86.6219 249.166 86.6626 249.138 87.5435C249.111 88.354 249.152 89.1655 249.261 89.9692C249.446 91.5174 249.834 93.0346 250.415 94.482C250.823 95.5254 251.339 96.5283 251.706 97.5853C252.211 99.2043 252.548 100.871 252.711 102.559L255.007 96.0811C255.033 95.9925 255.033 95.8985 255.007 95.81C254.961 95.6898 254.875 95.5892 254.763 95.5254C253.762 94.7472 253.057 93.6512 252.765 92.419C252.474 91.1868 252.613 89.8922 253.16 88.7496C253.312 88.3912 253.555 88.0782 253.865 87.8408C254.174 87.6034 254.539 87.4496 254.926 87.3944C255.85 87.3944 256.556 88.1939 257.004 88.9935C257.481 89.8453 257.842 90.7568 258.078 91.7038C258.699 90.2209 259.557 88.848 260.618 87.6383C261.066 87.1369 261.61 86.2831 262.33 86.5406C263.05 86.7981 263.39 88.0991 263.688 88.5734C264.759 88.1581 265.734 87.5312 266.555 86.7304C266.46 87.6708 266.638 88.6186 267.066 89.4616C267.495 90.3046 268.157 91.0075 268.973 91.487C270.685 92.2866 273.171 91.1482 273.171 89.251C273.171 90.1047 276.88 88.6682 277.152 88.5056C277.438 89.0535 277.882 89.5035 278.427 89.798C278.971 90.0926 279.592 90.2183 280.208 90.1589Z" fill="#473F47"/>
<path d="M262.29 113.631C263.384 113.774 264.489 113.819 265.591 113.766C265.447 113.774 265.307 113.815 265.183 113.888C263.825 114.511 263.933 116.707 264.028 117.954C264.363 119.356 264.2 120.831 263.567 122.128C263.144 122.131 262.722 122.071 262.317 121.951C261.901 121.805 261.518 121.58 261.189 121.287C259.957 120.276 259.056 118.92 258.601 117.394C258.146 115.868 258.158 114.242 258.635 112.723C259.811 113.174 261.039 113.479 262.29 113.631Z" fill="#96625E"/>
<path d="M316.128 138.77C316.128 138.77 341.003 157.078 337.566 175.359C334.374 192.367 331.507 205.891 331.507 205.891L319.864 199.115C319.864 199.115 327.649 173.489 311.401 162.35C295.152 151.21 316.128 138.77 316.128 138.77Z" fill="white"/>
<path d="M317.8 198.86L316.686 204.619C316.49 205.349 316.462 206.114 316.604 206.856C316.68 207.226 316.877 207.561 317.165 207.806C317.453 208.052 317.815 208.194 318.194 208.211C319.009 208.211 319.702 207.316 320.517 207.479C320.808 207.565 321.083 207.698 321.332 207.872C323.071 208.821 325.177 207.872 327.011 207.018C327.303 206.854 327.643 206.792 327.975 206.842C328.369 206.95 328.614 207.343 328.953 207.587C329.293 207.791 329.686 207.887 330.082 207.863C330.477 207.839 330.856 207.695 331.168 207.452C331.783 206.942 332.252 206.277 332.526 205.527C333.258 203.925 333.575 202.165 333.449 200.408C333.323 198.652 332.759 196.955 331.806 195.472C330.764 194.186 329.394 193.204 327.841 192.627C326.287 192.05 324.607 191.9 322.976 192.193C319.444 192.748 318.438 195.513 317.8 198.86Z" fill="#B2857F"/>
<path d="M297.149 226.844H348.516L392.737 199.375L350.309 205.107L297.149 226.844Z" fill="#68E1FD"/>
<path d="M299.296 224.039L297.149 226.844H348.516L350.662 224.039H299.296Z" fill="url(#paint5_linear_4210_3976)"/>
<path d="M394.883 196.566L392.737 199.372L348.516 226.841L350.663 224.036L394.883 196.566Z" fill="#68E1FD"/>
<path d="M394.883 196.566L392.737 199.372L348.516 226.841L350.663 224.036L394.883 196.566Z" fill="url(#paint6_linear_4210_3976)"/>
<path d="M352.972 203.521L388.104 198.629L351.464 221.043L311.482 221.735L352.972 203.521Z" fill="white"/>
<path d="M293.115 200.484L313.004 193.126L303.413 186.133L283.007 193.126L293.115 200.484Z" fill="url(#paint7_linear_4210_3976)"/>
<path d="M250.552 276.334L171.634 312.273C169.954 313.037 168.04 313.104 166.311 312.462C164.582 311.819 163.179 310.518 162.409 308.845L142.221 264.72C141.835 263.901 141.627 263.01 141.61 262.105C141.558 260.729 141.917 259.369 142.643 258.199C143.369 257.028 144.428 256.1 145.686 255.532L224.603 219.593C225.539 219.173 226.555 218.963 227.581 218.977C228.607 218.991 229.617 219.229 230.54 219.674C231.994 220.374 233.156 221.558 233.828 223.022L253.989 267.16C254.367 267.987 254.578 268.881 254.61 269.79C254.642 270.699 254.494 271.605 254.175 272.457C253.856 273.309 253.372 274.09 252.75 274.755C252.128 275.42 251.381 275.957 250.552 276.334Z" fill="#68E1FD"/>
<path d="M250.552 276.334L171.634 312.273C169.954 313.037 168.04 313.104 166.311 312.462C164.582 311.819 163.179 310.518 162.409 308.845L142.221 264.72C141.835 263.901 141.627 263.01 141.61 262.105C141.558 260.729 141.917 259.369 142.643 258.199C143.369 257.028 144.428 256.1 145.686 255.532L224.603 219.593C225.539 219.173 226.555 218.963 227.581 218.977C228.607 218.991 229.617 219.229 230.54 219.674C231.994 220.374 233.156 221.558 233.828 223.022L253.989 267.16C254.367 267.987 254.578 268.881 254.61 269.79C254.642 270.699 254.494 271.605 254.175 272.457C253.856 273.309 253.372 274.09 252.75 274.755C252.128 275.42 251.381 275.957 250.552 276.334Z" fill="url(#paint8_linear_4210_3976)"/>
<path d="M254.206 274.75L175.288 310.689C173.609 311.452 171.694 311.52 169.965 310.877C168.236 310.234 166.833 308.934 166.064 307.26L145.876 263.149C145.494 262.328 145.282 261.439 145.251 260.534C145.201 259.157 145.562 257.797 146.287 256.624C147.012 255.452 148.07 254.52 149.326 253.948L228.244 218.022C229.922 217.262 231.834 217.194 233.562 217.834C235.29 218.473 236.694 219.769 237.469 221.437L257.657 265.575C258.034 266.403 258.245 267.298 258.276 268.208C258.307 269.117 258.158 270.024 257.838 270.876C257.517 271.728 257.031 272.509 256.408 273.173C255.785 273.838 255.037 274.374 254.206 274.75Z" fill="#68E1FD"/>
<path d="M234.154 218.021L209.51 271.93L145.251 260.465C145.201 259.088 145.562 257.728 146.287 256.555C147.012 255.383 148.07 254.452 149.326 253.879L228.244 217.953C229.173 217.53 230.185 217.317 231.207 217.329C232.228 217.34 233.234 217.577 234.154 218.021Z" fill="url(#paint9_linear_4210_3976)"/>
<path d="M186.469 267.809L180.016 308.451L254.206 274.68L218.327 252.645L209.51 271.929L186.469 267.809Z" fill="url(#paint10_linear_4210_3976)"/>
<path d="M423.168 188.909L372.195 178.867C371.659 178.762 371.149 178.552 370.694 178.25C370.239 177.948 369.848 177.559 369.544 177.106C369.24 176.652 369.028 176.144 368.921 175.609C368.815 175.074 368.815 174.524 368.921 173.989L374.559 145.53C374.658 144.997 374.866 144.489 375.171 144.039C375.625 143.351 376.275 142.813 377.037 142.494C377.799 142.175 378.639 142.091 379.45 142.251L430.423 152.292C431.026 152.406 431.596 152.653 432.09 153.017C432.584 153.381 432.989 153.851 433.276 154.393C433.735 155.242 433.888 156.223 433.71 157.171L428.059 185.63C427.955 186.166 427.745 186.677 427.443 187.132C427.141 187.587 426.751 187.979 426.297 188.283C425.842 188.588 425.332 188.8 424.795 188.908C424.258 189.015 423.705 189.016 423.168 188.909Z" fill="#68E1FD"/>
<path d="M433.276 154.37L402.41 171.987L375.239 144.016C375.693 143.327 376.343 142.789 377.105 142.471C377.867 142.152 378.707 142.067 379.518 142.227L430.491 152.269C431.082 152.392 431.639 152.643 432.12 153.007C432.602 153.37 432.997 153.836 433.276 154.37Z" fill="url(#paint11_linear_4210_3976)"/>
<path d="M392.641 161.941L375.266 179.464L423.168 188.909L413.441 165.682L402.409 171.983L392.641 161.941Z" fill="url(#paint12_linear_4210_3976)"/>
</g>
<defs>
<linearGradient id="paint0_linear_4210_3976" x1="346.018" y1="206.317" x2="381.746" y2="291.86" gradientUnits="userSpaceOnUse">
<stop offset="0.01" stop-color="white"/>
<stop offset="1" stop-color="white" stop-opacity="0"/>
</linearGradient>
<linearGradient id="paint1_linear_4210_3976" x1="319.958" y1="231.801" x2="489.374" y2="338.795" gradientUnits="userSpaceOnUse">
<stop offset="0.01"/>
<stop offset="0.08" stop-opacity="0.69"/>
<stop offset="0.21" stop-opacity="0.32"/>
<stop offset="1" stop-opacity="0"/>
</linearGradient>
<linearGradient id="paint2_linear_4210_3976" x1="27808.5" y1="32185.9" x2="-6204.47" y2="16977.3" gradientUnits="userSpaceOnUse">
<stop offset="0.01"/>
<stop offset="0.08" stop-opacity="0.69"/>
<stop offset="0.21" stop-opacity="0.32"/>
<stop offset="1" stop-opacity="0"/>
</linearGradient>
<linearGradient id="paint3_linear_4210_3976" x1="20023.4" y1="5928.89" x2="19496.5" y2="11580.4" gradientUnits="userSpaceOnUse">
<stop offset="0.01"/>
<stop offset="0.08" stop-opacity="0.69"/>
<stop offset="0.21" stop-opacity="0.32"/>
<stop offset="1" stop-opacity="0"/>
</linearGradient>
<linearGradient id="paint4_linear_4210_3976" x1="13245.3" y1="4341.35" x2="15628.5" y2="8364.24" gradientUnits="userSpaceOnUse">
<stop offset="0.01"/>
<stop offset="0.08" stop-opacity="0.69"/>
<stop offset="0.21" stop-opacity="0.32"/>
<stop offset="1" stop-opacity="0"/>
</linearGradient>
<linearGradient id="paint5_linear_4210_3976" x1="10974.6" y1="740.977" x2="11063.9" y2="-285.148" gradientUnits="userSpaceOnUse">
<stop offset="0.01"/>
<stop offset="0.08" stop-opacity="0.69"/>
<stop offset="0.21" stop-opacity="0.32"/>
<stop offset="1" stop-opacity="0"/>
</linearGradient>
<linearGradient id="paint6_linear_4210_3976" x1="12146.2" y1="4517.35" x2="13554.7" y2="7424.65" gradientUnits="userSpaceOnUse">
<stop offset="0.01"/>
<stop offset="0.08" stop-opacity="0.69"/>
<stop offset="0.21" stop-opacity="0.32"/>
<stop offset="1" stop-opacity="0"/>
</linearGradient>
<linearGradient id="paint7_linear_4210_3976" x1="6453.92" y1="2138.34" x2="6641.29" y2="2702.72" gradientUnits="userSpaceOnUse">
<stop offset="0.01"/>
<stop offset="0.08" stop-opacity="0.69"/>
<stop offset="0.21" stop-opacity="0.32"/>
<stop offset="1" stop-opacity="0"/>
</linearGradient>
<linearGradient id="paint8_linear_4210_3976" x1="18870.7" y1="20116.5" x2="7043.05" y2="29604.4" gradientUnits="userSpaceOnUse">
<stop offset="0.01"/>
<stop offset="0.08" stop-opacity="0.69"/>
<stop offset="0.21" stop-opacity="0.32"/>
<stop offset="1" stop-opacity="0"/>
</linearGradient>
<linearGradient id="paint9_linear_4210_3976" x1="33808.4" y1="4559.41" x2="34829.5" y2="10716.2" gradientUnits="userSpaceOnUse">
<stop offset="0.01" stop-color="white"/>
<stop offset="1" stop-color="white" stop-opacity="0"/>
</linearGradient>
<linearGradient id="paint10_linear_4210_3976" x1="25546.8" y1="6890.31" x2="34878.5" y2="18741.4" gradientUnits="userSpaceOnUse">
<stop offset="0.01"/>
<stop offset="0.08" stop-opacity="0.69"/>
<stop offset="0.21" stop-opacity="0.32"/>
<stop offset="1" stop-opacity="0"/>
</linearGradient>
<linearGradient id="paint11_linear_4210_3976" x1="-30617.7" y1="-5595.8" x2="-31531.2" y2="-3767.51" gradientUnits="userSpaceOnUse">
<stop offset="0.01" stop-color="white"/>
<stop offset="1" stop-color="white" stop-opacity="0"/>
</linearGradient>
<linearGradient id="paint12_linear_4210_3976" x1="-26566.5" y1="-4164.07" x2="-26905" y2="463.053" gradientUnits="userSpaceOnUse">
<stop offset="0.01"/>
<stop offset="0.08" stop-opacity="0.69"/>
<stop offset="0.21" stop-opacity="0.32"/>
<stop offset="1" stop-opacity="0"/>
</linearGradient>
<clipPath id="clip0_4210_3976">
<rect width="548" height="412" fill="white"/>
</clipPath>
</defs>
</svg>
