<svg width="406" height="306" viewBox="0 0 406 306" fill="none" xmlns="http://www.w3.org/2000/svg">
<path opacity="0.3" d="M293.934 67.6394C326.414 78.8044 357.432 109.315 358.376 148.758C359.32 188.201 348.541 228.365 289.285 243.935C233.633 258.561 101.5 263.859 66.2796 214.845C33.0789 168.632 43.6451 93.6132 101.662 69.6186C142.354 52.8001 230.405 45.8879 293.934 67.6394Z" fill="#E6E6E6"/>
<path d="M311.219 90.6992H94.7908V227.684H311.219V90.6992Z" fill="#9ED6BE"/>
<path d="M292.432 104.148H113.558V214.235H292.432V104.148Z" fill="#24285B"/>
<path d="M323.247 227.684H84.8135V247.557H323.247V227.684Z" fill="#9ED6BE"/>
<path opacity="0.08" d="M323.247 227.684H84.8135V247.557H323.247V227.684Z" fill="black"/>
<path d="M209.263 214.245L219.981 210.135L203.7 167.586L126.307 197.204L132.823 214.245H209.263Z" fill="#FFD200"/>
<path opacity="0.08" d="M209.263 214.245L219.981 210.135L183.898 199.558L170.023 195.488L162.4 207.78L158.401 214.245H209.263Z" fill="black"/>
<path opacity="0.08" d="M203.711 167.586L126.307 197.204L176.275 211.85L203.711 167.586Z" fill="black"/>
<path d="M229.301 98.5735L148.524 119.539L160.05 163.946L240.827 142.98L229.301 98.5735Z" fill="#FFD200"/>
<path opacity="0.08" d="M240.829 142.972L160.055 163.942L192.464 122.713L240.829 142.972Z" fill="black"/>
<path opacity="0.08" d="M229.299 98.5664L148.525 119.536L196.9 139.796L229.299 98.5664Z" fill="black"/>
<path d="M300.753 66.0517L224.438 32.2812L205.873 74.2351L282.188 108.006L300.753 66.0517Z" fill="#FFD200"/>
<path opacity="0.08" d="M282.2 108.005L205.883 74.2359L256.896 62.0762L282.2 108.005Z" fill="black"/>
<path opacity="0.08" d="M300.765 66.0444L224.447 32.2754L249.761 78.2041L300.765 66.0444Z" fill="black"/>
<path opacity="0.08" d="M223.645 227.684H184.426V237.62H223.645V227.684Z" fill="black"/>
<path opacity="0.08" d="M263.656 133.197V142.799V188.87H311.209V142.799V133.197H263.656Z" fill="black"/>
<path d="M328.972 137.998H268.833V184.069H328.972V137.998Z" fill="#E6E6E6"/>
<path d="M328.972 128.396H268.833V137.998H328.972V128.396Z" fill="#B3B3B3"/>
<path d="M309.94 169.494H313.463C312.358 171.731 310.584 173.569 308.388 174.752C305.439 176.283 302.147 177.035 298.826 176.934C295.589 177.013 292.374 176.383 289.407 175.087C286.887 173.981 284.809 172.067 283.5 169.646C282.206 167.242 281.539 164.551 281.561 161.821C281.547 158.794 282.305 155.815 283.764 153.163C285.123 150.6 287.22 148.504 289.783 147.144C292.482 145.761 295.479 145.064 298.512 145.114C301.074 145.069 303.612 145.625 305.921 146.738C307.996 147.744 309.721 149.349 310.874 151.346C312.009 153.329 312.598 155.578 312.579 157.862C312.598 160.622 311.687 163.307 309.991 165.485C309.056 166.83 307.806 167.925 306.35 168.676C304.894 169.426 303.276 169.808 301.638 169.789C300.929 169.827 300.225 169.661 299.608 169.311C299.136 168.971 298.807 168.469 298.684 167.901C298.098 168.499 297.399 168.974 296.627 169.299C295.854 169.623 295.025 169.789 294.188 169.789C293.337 169.812 292.491 169.654 291.706 169.327C290.92 169 290.213 168.511 289.63 167.89C289.007 167.207 288.526 166.406 288.215 165.535C287.905 164.664 287.772 163.739 287.824 162.815C287.802 160.279 288.564 157.798 290.006 155.71C290.7 154.527 291.69 153.544 292.879 152.859C294.067 152.174 295.414 151.81 296.786 151.803C297.646 151.75 298.505 151.932 299.27 152.328C300.035 152.725 300.678 153.322 301.13 154.056L301.546 152.219H305.911L303.373 164.165C303.26 164.643 303.182 165.128 303.14 165.617C303.125 165.84 303.194 166.061 303.333 166.236C303.388 166.303 303.458 166.357 303.537 166.394C303.616 166.431 303.702 166.45 303.79 166.449C304.554 166.325 305.262 165.971 305.82 165.434C306.982 164.568 307.921 163.437 308.56 162.135C309.232 160.772 309.579 159.271 309.575 157.751C309.602 156.472 309.354 155.203 308.846 154.029C308.338 152.856 307.582 151.805 306.632 150.95C304.676 149.123 301.939 148.21 298.42 148.21C295.768 148.126 293.142 148.757 290.818 150.037C288.762 151.228 287.124 153.025 286.129 155.183C285.086 157.334 284.545 159.694 284.545 162.085C284.522 164.322 285.13 166.521 286.301 168.428C287.458 170.32 289.195 171.787 291.254 172.61C295.786 174.279 300.752 174.355 305.332 172.823C307.143 172.155 308.737 171.003 309.94 169.494ZM292.066 162.694C291.989 163.777 292.29 164.853 292.919 165.739C293.169 166.056 293.489 166.312 293.853 166.488C294.217 166.664 294.616 166.755 295.02 166.754C295.643 166.756 296.255 166.595 296.796 166.287C297.266 166.025 297.686 165.681 298.035 165.272C298.724 164.398 299.238 163.398 299.547 162.328C299.951 161.166 300.167 159.946 300.186 158.715C300.252 157.687 299.942 156.669 299.313 155.853C299.048 155.529 298.713 155.269 298.334 155.094C297.954 154.918 297.539 154.83 297.121 154.838C296.135 154.854 295.193 155.25 294.492 155.944C293.614 156.802 292.986 157.882 292.675 159.07C292.299 160.242 292.094 161.463 292.066 162.694Z" fill="#B3B3B3"/>
<path opacity="0.08" d="M125.708 132.943H94.6895V168.286H125.708V132.943Z" fill="black"/>
<path d="M121.658 127.463H83.9102V162.805H121.658V127.463Z" fill="#E6E6E6"/>
<path d="M110.757 142.058L102.779 133.816L94.801 142.058H98.455V156.461H107.103V142.058H110.757Z" fill="#B3B3B3"/>
</svg>
