<svg width="250" height="189" viewBox="0 0 250 189" fill="none" xmlns="http://www.w3.org/2000/svg">
<g clip-path="url(#clip0_5624_11986)">
<path opacity="0.18" d="M231.005 126.795C229.402 133.116 226.62 139.424 224.183 145.05C214.924 166.294 199.3 180.821 174.836 177.852C163.046 176.417 151.506 172.458 139.635 172.84C128.277 173.191 117.464 177.47 106.676 181.034C86.6288 187.669 64.433 191.916 44.6052 184.612C24.7774 177.307 9.3599 154.835 16.414 134.914C21.9019 119.365 39.0609 108.934 40.8463 92.5454C43.1956 71.2454 17.9864 52.871 23.3051 32.0847C25.5667 23.3329 32.8463 16.8176 40.5582 12.1191C58.2748 1.28742 80.0571 -2.28973 100.411 1.39392C119.769 4.87083 135.876 21.1716 155.384 21.9234C167.964 22.3995 180.067 15.2515 192.596 16.4292C208.095 17.9265 219.459 31.6525 226.708 45.4411C229.041 49.7456 230.993 54.2463 232.54 58.8914C235.552 68.3577 236.163 78.4241 234.319 88.1852C232.44 98.2087 232.665 107.606 232.377 117.886C232.251 120.897 231.791 123.885 231.005 126.795Z" fill="#9ED6BE"/>
<path d="M96.7464 167.384C95.9822 167.623 95.1239 168.011 94.9297 168.769C97.3353 170.298 100.311 170.648 103.155 170.573C105.999 170.498 108.837 169.997 111.688 169.978C115.447 169.978 119.682 170.648 122.701 168.368C121.36 167.519 119.82 167.035 118.234 166.965C118.792 163.456 98.9767 166.689 96.7464 167.384Z" fill="url(#paint0_linear_5624_11986)"/>
<path d="M48.4509 125.598C47.436 125.598 46.0328 126.112 46.2833 127.095L92.5983 130.854C98.0486 131.299 103.505 131.738 108.981 131.738C117.25 131.738 125.482 130.723 133.732 130.247C141.501 129.802 149.281 129.833 157.056 129.871C164.254 129.908 173.106 131.205 180.098 129.319C181.15 129.038 182.209 128.192 182.14 127.108C182.108 126.607 181.845 126.087 182.04 125.623C182.152 125.396 182.331 125.208 182.553 125.084C183.988 124.201 185.817 124.89 187.471 125.254C190.103 125.826 192.853 125.476 195.258 124.264C195.709 124.076 196.093 123.758 196.361 123.349C196.488 123.143 196.534 122.897 196.49 122.658C196.446 122.419 196.315 122.206 196.123 122.059C195.928 121.962 195.713 121.913 195.496 121.915L181.319 120.812C180.796 120.731 180.26 120.778 179.759 120.95C179.202 121.194 179.233 121.846 178.782 122.115C178.049 122.547 176.383 122.315 175.543 122.366C173.394 122.485 171.245 122.604 169.09 122.71C164.801 122.915 160.504 123.088 156.198 123.23C147.427 123.525 138.613 123.7 129.823 123.857C112.439 124.139 95.0478 124.289 77.6695 124.959C67.9279 125.323 58.1926 125.385 48.4509 125.598Z" fill="url(#paint1_linear_5624_11986)"/>
<path d="M84.0657 29.0723C83.2504 28.7891 82.36 28.8114 81.5599 29.135C81.0437 29.3191 80.5719 29.6093 80.1748 29.987C79.7777 30.3647 79.4642 30.8214 79.2544 31.3276C79.2503 31.3934 79.2322 31.4576 79.2013 31.5159C79.1704 31.5741 79.1274 31.6251 79.0752 31.6654C79.023 31.7057 78.9629 31.7345 78.8987 31.7497C78.8345 31.7649 78.7679 31.7662 78.7031 31.7536C77.7915 31.7515 76.9116 32.0887 76.2348 32.6996C75.4455 33.42 75.4455 34.3034 75.339 35.337C75.2097 35.272 75.0671 35.2382 74.9224 35.2382C74.7777 35.2382 74.635 35.272 74.5058 35.337C74.2477 35.4643 74.0127 35.6336 73.8104 35.8382C73.4648 36.1157 73.1882 36.4695 73.0023 36.8719C72.7517 37.5547 73.0336 38.3065 73.0461 39.0332C73.0505 39.0658 73.0478 39.0989 73.038 39.1303C73.0283 39.1617 73.0118 39.1905 72.9897 39.2149C72.964 39.2259 72.9363 39.2316 72.9083 39.2316C72.8803 39.2316 72.8526 39.2259 72.8268 39.2149C72.6326 39.1773 72.4572 39.0771 72.263 39.0583C72.0358 39.0604 71.8165 39.1416 71.6427 39.288C71.4689 39.4343 71.3516 39.6366 71.3108 39.8601C71.2369 40.3089 71.2604 40.7682 71.3797 41.2071C71.4961 41.6462 71.483 42.1096 71.3421 42.5414C71.192 42.8251 70.995 43.0814 70.7595 43.2995C70.0801 43.9327 69.6379 44.7794 69.5065 45.6989C69.4697 46.1432 69.5893 46.5864 69.8448 46.9518C69.9761 47.1322 70.1518 47.2755 70.3549 47.3677C70.5581 47.46 70.7816 47.498 71.0038 47.478C72.0438 47.3402 72.4071 45.8805 73.3969 45.536C74.3868 45.1914 75.4956 44.0262 76.1346 43.1053C76.6483 42.366 77.1495 41.5078 78.014 41.2259C78.2986 41.1654 78.5729 41.0641 78.8284 40.9252C78.9984 40.7925 79.1392 40.6261 79.2419 40.4365C79.5999 39.9087 79.8766 39.33 80.0626 38.72C80.3758 37.5171 80.0626 36.164 80.6452 35.0551C80.8116 34.737 81.0432 34.4577 81.325 34.2353C81.6067 34.0129 81.9323 33.8525 82.2803 33.7646C82.5747 33.6894 82.9068 33.6706 83.1761 33.5892C83.5168 33.4908 83.8387 33.3363 84.1284 33.1319C84.5094 32.9127 84.8373 32.6121 85.0886 32.2514C85.3398 31.8908 85.5083 31.4791 85.5818 31.0457C85.6382 30.1624 84.8426 29.373 84.0657 29.0723Z" fill="#FF681C"/>
<path d="M86.6277 30.5585C86.9407 30.6793 87.2003 30.9078 87.36 31.2029C87.5196 31.4981 87.5687 31.8405 87.4985 32.1685C87.3913 32.4338 87.2315 32.6746 87.0286 32.8765L85.8947 34.1294L85.4248 32.3878C85.3762 32.061 85.2144 31.7617 84.9675 31.5421C84.8064 31.4498 84.6239 31.4012 84.4381 31.4012C84.2524 31.4012 84.0699 31.4498 83.9088 31.5421C83.5767 31.7112 83.2823 31.9743 82.9879 32.1685C82.9064 32.2187 82.7937 32.275 82.706 32.2249C82.6182 32.1748 82.6057 31.9931 82.6496 31.8678C83.1883 30.3768 85.2494 29.9634 86.6277 30.5585Z" fill="#FF681C"/>
<path d="M87.4011 77.6863C87.4355 78.2727 87.6306 78.8384 87.965 79.3213C88.4724 79.9478 89.3181 80.2611 90.0198 80.7184C90.092 80.755 90.1553 80.8072 90.2051 80.871C90.2549 80.9349 90.29 81.009 90.308 81.088C90.3038 81.1643 90.2772 81.2377 90.2315 81.299C90.1858 81.3603 90.1231 81.4068 90.0511 81.4326C89.9025 81.4746 89.7468 81.4852 89.5938 81.4639C88.8782 81.3516 88.1564 81.2825 87.4325 81.2571C87.0691 81.2571 86.6494 81.2947 86.4176 81.0128C86.2683 80.774 86.2167 80.4868 86.2735 80.2109C86.3376 79.1748 86.2533 78.1347 86.0229 77.1224C85.9461 76.8754 85.9184 76.6158 85.9415 76.3581C85.9649 76.239 86.0191 76.1281 86.0987 76.0364C86.1783 75.9447 86.2805 75.8754 86.3952 75.8355C86.5099 75.7956 86.633 75.7864 86.7523 75.8089C86.8717 75.8313 86.983 75.8846 87.0754 75.9635C87.4889 76.3205 87.351 77.2039 87.4011 77.6863Z" fill="#FCBDBA"/>
<path d="M75.8082 81.5653C75.7232 82.1462 75.7968 82.7393 76.0212 83.2818C76.3908 84.0273 77.1614 84.4721 77.7565 85.061C77.821 85.1103 77.8733 85.1738 77.9091 85.2467C77.945 85.3195 77.9635 85.3996 77.9633 85.4808C77.9448 85.5546 77.9044 85.621 77.8473 85.6714C77.7903 85.7217 77.7193 85.7535 77.6438 85.7627C77.4911 85.7784 77.3368 85.7592 77.1927 85.7063C76.512 85.4579 75.8175 85.2487 75.1128 85.0798C74.7557 85.0172 74.336 84.9545 74.1669 84.6413C74.0642 84.3795 74.0642 84.0886 74.1669 83.8269C74.4388 82.8227 74.5654 81.7847 74.5427 80.7446C74.5173 80.4874 74.5429 80.2277 74.6179 79.9804C74.665 79.8684 74.7406 79.7708 74.8371 79.6972C74.9336 79.6235 75.0478 79.5765 75.1681 79.5606C75.2885 79.5448 75.4109 79.5607 75.5232 79.6069C75.6355 79.6531 75.7338 79.7278 75.8082 79.8237C76.1653 80.2435 75.8521 81.0829 75.8082 81.5653Z" fill="#FCBDBA"/>
<path d="M73.5273 53.3747C73.5273 53.3747 79.5039 62.2455 83.4193 64.8955C83.3441 65.7825 83.363 66.675 83.4757 67.558C83.6762 68.9926 84.3716 70.2518 84.5971 71.6614L85.3489 76.4038C85.3802 76.6168 85.4428 76.8736 85.6496 76.9488C85.7738 76.9886 85.9074 76.9886 86.0317 76.9488L87.6856 76.4977C87.5864 73.6482 87.647 70.7954 87.8673 67.9527C88.0029 66.803 88.0323 65.6433 87.955 64.4883C87.6793 61.9824 85.6245 59.7459 84.1962 57.7349C83.3379 56.5196 82.417 54.7028 81.2142 53.7819C80.2118 53.0176 78.796 53.381 77.5368 53.5063C76.5924 53.5964 75.6397 53.5286 74.7176 53.3058C74.5291 53.2175 74.3216 53.1776 74.1138 53.1896C73.906 53.2016 73.7044 53.2652 73.5273 53.3747Z" fill="#473F47"/>
<path d="M71.2539 53.3225C71.2539 53.3225 73.5781 63.7658 76.2657 67.6625C75.8751 68.4646 75.5666 69.3042 75.3448 70.1683C75.1964 70.8757 75.1105 71.5947 75.0879 72.3171L74.5491 81.0376C75.382 81.0813 76.2158 80.9752 77.0112 80.7244L80.0684 73.0376C80.6521 71.8131 80.9966 70.4884 81.0832 69.1347C81.0832 66.516 78.5774 56.9561 78.2829 56.4737C77.6251 55.3899 76.178 55.2208 74.9626 54.8699C74.0501 54.612 73.1879 54.201 72.4129 53.6546C72.0307 53.4165 71.6862 53.1847 71.2539 53.3225Z" fill="#473F47"/>
<path d="M92.7106 45.184C93.9842 45.7717 95.3976 45.9888 96.7889 45.8105C97.1969 45.698 97.6247 45.6766 98.0418 45.7478C97.8602 46.0047 97.6848 46.3743 97.9416 46.5936C98.0203 46.645 98.1109 46.6752 98.2047 46.6813C98.5426 46.7248 98.8859 46.6883 99.2071 46.5748C99.3587 46.4996 99.5266 46.463 99.6957 46.4683C99.8449 46.5053 99.9735 46.5999 100.053 46.7313C100.133 46.8628 100.158 47.0204 100.122 47.1699C100.033 47.4682 99.8365 47.7227 99.5704 47.8841C99.1402 48.169 98.6418 48.3343 98.1266 48.363C97.6113 48.3916 97.0977 48.2825 96.6385 48.047C96.3754 47.9029 96.1311 47.7212 95.8617 47.5771C95.3435 47.341 94.7955 47.1766 94.2329 47.0885C92.586 46.7475 90.9671 46.2826 89.3903 45.6977C89.1514 45.6409 88.9266 45.536 88.7295 45.3895C88.5324 45.2431 88.3672 45.058 88.2438 44.8457C87.9243 44.0564 88.5132 42.7345 89.4529 43.2482C90.543 43.8809 91.5265 44.6954 92.7106 45.184Z" fill="#FCBDBA"/>
<path d="M84.9319 40.6904C86.7923 41.9066 88.8674 42.7571 91.0462 43.1963C91.1402 43.1963 91.253 43.2589 91.278 43.3529C91.2881 43.4169 91.2723 43.4822 91.2342 43.5346C90.7893 44.4302 90.2267 45.2624 89.5615 46.0091C89.4901 46.1039 89.398 46.1811 89.2921 46.2347C89.188 46.2652 89.0789 46.2742 88.9712 46.2613C88.8635 46.2484 88.7596 46.2137 88.6656 46.1595C87.2582 45.5957 85.8799 44.9692 84.5309 44.2801C83.3304 43.7535 82.2608 42.9685 81.3986 41.9809C80.9686 41.4685 80.7139 40.8318 80.6719 40.1642C80.6719 39.4249 81.3485 38.0968 82.2819 38.4602C82.7016 38.623 83.0713 39.143 83.3908 39.4375C83.8783 39.8863 84.393 40.3047 84.9319 40.6904Z" fill="#9ED6BE"/>
<path d="M84.9319 40.6904C86.7923 41.9066 88.8674 42.7571 91.0462 43.1963C91.1402 43.1963 91.253 43.2589 91.278 43.3529C91.2881 43.4169 91.2723 43.4822 91.2342 43.5346C90.7893 44.4302 90.2267 45.2624 89.5615 46.0091C89.4901 46.1039 89.398 46.1811 89.2921 46.2347C89.188 46.2652 89.0789 46.2742 88.9712 46.2613C88.8635 46.2484 88.7596 46.2137 88.6656 46.1595C87.2582 45.5957 85.8799 44.9692 84.5309 44.2801C83.3304 43.7535 82.2608 42.9685 81.3986 41.9809C80.9686 41.4685 80.7139 40.8318 80.6719 40.1642C80.6719 39.4249 81.3485 38.0968 82.2819 38.4602C82.7016 38.623 83.0713 39.143 83.3908 39.4375C83.8783 39.8863 84.393 40.3047 84.9319 40.6904Z" fill="url(#paint2_linear_5624_11986)"/>
<path d="M111.156 36.9521C111.49 37.3742 111.69 37.8873 111.729 38.4246C111.768 38.9618 111.644 39.4983 111.373 39.9642C111.103 40.43 110.698 40.8036 110.213 41.0363C109.727 41.2689 109.182 41.3499 108.65 41.2685C108.65 41.2685 105.686 41.3374 106.357 44.1315L111.995 51.3109L104.816 56.9491C102.022 57.6194 101.953 54.6562 101.953 54.6562C102.029 54.1243 101.945 53.5816 101.71 53.0983C101.475 52.6149 101.101 52.2131 100.635 51.9446C100.17 51.6762 99.6342 51.5535 99.0982 51.5924C98.5622 51.6313 98.0501 51.8299 97.6282 52.1628C97.2062 52.4956 96.8938 52.9473 96.7311 53.4595C96.5685 53.9717 96.5631 54.5209 96.7157 55.0362C96.8684 55.5514 97.172 56.0091 97.5873 56.3501C98.0027 56.6911 98.5107 56.8998 99.0459 56.9491C101.596 57.7886 100.606 60.2694 100.606 60.2694L93.4264 65.9076L78.8359 47.3829L85.9464 41.7446C88.7404 41.0743 88.8094 44.0375 88.8094 44.0375C88.7428 44.4768 88.7865 44.9258 88.9365 45.344C89.0865 45.7623 89.3381 46.1367 89.6686 46.4336C89.9992 46.7305 90.3983 46.9407 90.8302 47.0451C91.2621 47.1495 91.7131 47.145 92.1428 47.0319C92.5725 46.9189 92.9674 46.7008 93.2919 46.3973C93.6164 46.0938 93.8604 45.7144 94.002 45.2933C94.1436 44.8721 94.1782 44.4224 94.1029 43.9845C94.0276 43.5466 93.8447 43.1343 93.5705 42.7846C93.342 42.4973 93.0577 42.2593 92.7347 42.0849C92.4117 41.9104 92.0567 41.8032 91.6911 41.7697C89.1664 40.9365 90.1563 38.4306 90.1563 38.4306L97.4045 32.7109L103.043 39.8966C103.043 39.8966 105.549 40.8864 106.363 38.3366C106.417 37.8027 106.629 37.2971 106.973 36.8849C107.316 36.4728 107.776 36.1729 108.291 36.024C108.807 35.875 109.355 35.8838 109.866 36.0493C110.376 36.2147 110.825 36.5291 111.156 36.9521Z" fill="#9ED6BE"/>
<path d="M111.156 36.9521C111.49 37.3742 111.69 37.8873 111.729 38.4246C111.768 38.9618 111.644 39.4983 111.373 39.9642C111.103 40.43 110.698 40.8036 110.213 41.0363C109.727 41.2689 109.182 41.3499 108.65 41.2685C108.65 41.2685 105.686 41.3374 106.357 44.1315L111.995 51.3109L104.816 56.9491C102.022 57.6194 101.953 54.6562 101.953 54.6562C102.029 54.1243 101.945 53.5816 101.71 53.0983C101.475 52.6149 101.101 52.2131 100.635 51.9446C100.17 51.6762 99.6342 51.5535 99.0982 51.5924C98.5622 51.6313 98.0501 51.8299 97.6282 52.1628C97.2062 52.4956 96.8938 52.9473 96.7311 53.4595C96.5685 53.9717 96.5631 54.5209 96.7157 55.0362C96.8684 55.5514 97.172 56.0091 97.5873 56.3501C98.0027 56.6911 98.5107 56.8998 99.0459 56.9491C101.596 57.7886 100.606 60.2694 100.606 60.2694L93.4264 65.9076L78.8359 47.3829L85.9464 41.7446C88.7404 41.0743 88.8094 44.0375 88.8094 44.0375C88.7428 44.4768 88.7865 44.9258 88.9365 45.344C89.0865 45.7623 89.3381 46.1367 89.6686 46.4336C89.9992 46.7305 90.3983 46.9407 90.8302 47.0451C91.2621 47.1495 91.7131 47.145 92.1428 47.0319C92.5725 46.9189 92.9674 46.7008 93.2919 46.3973C93.6164 46.0938 93.8604 45.7144 94.002 45.2933C94.1436 44.8721 94.1782 44.4224 94.1029 43.9845C94.0276 43.5466 93.8447 43.1343 93.5705 42.7846C93.342 42.4973 93.0577 42.2593 92.7347 42.0849C92.4117 41.9104 92.0567 41.8032 91.6911 41.7697C89.1664 40.9365 90.1563 38.4306 90.1563 38.4306L97.4045 32.7109L103.043 39.8966C103.043 39.8966 105.549 40.8864 106.363 38.3366C106.417 37.8027 106.629 37.2971 106.973 36.8849C107.316 36.4728 107.776 36.1729 108.291 36.024C108.807 35.875 109.355 35.8838 109.866 36.0493C110.376 36.2147 110.825 36.5291 111.156 36.9521Z" fill="url(#paint3_linear_5624_11986)"/>
<path d="M87.4313 53.2936C88.9662 54.5466 90.5637 55.8935 92.4431 56.2192C92.8047 56.3002 93.1788 56.3081 93.5435 56.2425C93.9082 56.1769 94.2561 56.039 94.5668 55.8371C94.674 55.7733 94.7613 55.6809 94.8189 55.5702C94.8764 55.4595 94.902 55.335 94.8926 55.2106C94.8237 54.9036 94.4478 54.7971 94.1408 54.7408C92.7051 54.5444 91.3264 54.0493 90.0938 53.2873C89.6367 52.9638 89.2033 52.6079 88.797 52.2224L85.7461 49.5035C85.7089 49.4581 85.662 49.4217 85.6089 49.3968C85.5558 49.3719 85.4978 49.3591 85.4392 49.3594C85.3139 49.3594 85.2387 49.5035 85.1823 49.6162C84.9931 50.0011 84.8501 50.4069 84.7563 50.8253C84.6623 51.2826 84.7563 51.3453 85.151 51.6084C85.9403 52.143 86.7005 52.7047 87.4313 53.2936Z" fill="url(#paint4_linear_5624_11986)"/>
<path d="M88.8469 51.0032C89.9085 51.9321 91.212 52.5404 92.6057 52.7574C93.0204 52.763 93.4287 52.8592 93.8023 53.0393C93.5454 53.2335 93.2698 53.5655 93.464 53.8224C93.5263 53.8939 93.6062 53.9478 93.6958 53.979C94.008 54.1122 94.3466 54.1722 94.6856 54.1544C94.8534 54.1288 95.0247 54.1417 95.1868 54.192C95.2522 54.2302 95.3095 54.2809 95.3554 54.3413C95.4012 54.4017 95.4347 54.4705 95.4539 54.5438C95.4731 54.6171 95.4776 54.6935 95.4673 54.7686C95.4569 54.8437 95.4318 54.916 95.3935 54.9813C95.2299 55.2467 94.9692 55.4378 94.6668 55.5138C94.1748 55.669 93.6502 55.6892 93.1477 55.5724C92.6452 55.4556 92.1832 55.206 91.8101 54.8498C91.5908 54.6368 91.4092 54.3925 91.1836 54.1857C90.7527 53.8138 90.2719 53.5039 89.7553 53.2648C88.2695 52.4754 86.8455 51.5749 85.4953 50.571C85.2821 50.4501 85.0957 50.2873 84.9471 50.0924C84.7985 49.8975 84.6909 49.6746 84.6307 49.4371C84.543 48.5851 85.4765 47.4762 86.2408 48.2405C87.1304 49.1426 87.8508 50.1763 88.8469 51.0032Z" fill="#FCBDBA"/>
<path d="M71.2548 54.6629C71.3671 54.7974 71.5085 54.9045 71.6683 54.9762C72.2987 55.3358 72.954 55.6498 73.6292 55.9159C75.3836 56.5439 77.3041 56.5284 79.0481 55.872C79.746 55.6208 80.401 55.2637 80.9902 54.8133C81.2138 54.661 81.4018 54.4623 81.5415 54.2307C81.7078 53.8529 81.76 53.4349 81.6919 53.0278C81.5352 50.9166 81.3034 48.7365 81.6919 46.688C81.8167 45.9842 82.0271 45.2984 82.3183 44.6457C82.8256 43.755 83.2452 42.8171 83.5713 41.8453C83.683 41.2481 83.663 40.6337 83.5126 40.0451C83.3622 39.4564 83.085 38.9077 82.7005 38.4373C81.8861 37.3974 80.3951 36.4765 79.0795 36.9463C77.5598 37.519 76.2419 38.5254 75.2893 39.8406C74.2507 41.3135 73.4279 42.9273 72.8461 44.6331C72.5955 45.3035 72.3512 45.9738 72.157 46.6629C71.7422 48.3299 71.4739 50.0299 71.3551 51.7436C71.2862 52.4578 71.2235 53.1719 71.1483 53.8861C71.0892 54.1494 71.127 54.4252 71.2548 54.6629Z" fill="#9ED6BE"/>
<path d="M79.0467 55.8722C79.7446 55.621 80.3996 55.2639 80.9888 54.8134C81.2123 54.6612 81.4004 54.4624 81.5401 54.2308C81.7063 53.8531 81.7586 53.435 81.6904 53.028C81.5338 50.9168 81.302 48.7367 81.6904 46.6881C81.4398 46.4375 81.1579 46.212 80.8823 45.9865C80.2558 45.4727 79.3537 44.4579 78.4453 44.5268C78.6646 45.4853 78.84 46.4626 78.9716 47.4399C79.1031 48.4172 79.053 49.432 79.2096 50.3968C79.4174 52.1039 79.3773 53.832 79.0906 55.5276C79.0639 55.6406 79.0492 55.7561 79.0467 55.8722Z" fill="url(#paint5_linear_5624_11986)"/>
<path d="M86.6737 47.7121C86.7227 47.737 86.7662 47.7715 86.8017 47.8134C86.8372 47.8554 86.8639 47.904 86.8804 47.9564C86.8823 48.0605 86.8442 48.1614 86.7739 48.2383C86.2047 49.0417 85.4909 49.7321 84.669 50.2744C84.5897 50.3374 84.4941 50.3765 84.3934 50.3871C84.2778 50.3747 84.1697 50.324 84.0864 50.243C82.8334 49.2845 81.5805 48.3636 80.3589 47.3613C79.5689 46.8007 78.8713 46.12 78.2915 45.344C77.8655 44.6436 77.5407 43.8864 77.3268 43.095C76.5813 40.7457 78.8366 39.7246 80.3464 41.4474C82.3385 43.7277 84.1553 45.9517 86.6737 47.7121Z" fill="#9ED6BE"/>
<path d="M86.3653 81.0999C86.3326 81.0221 86.3212 80.937 86.3322 80.8534C86.3432 80.7697 86.3762 80.6905 86.4279 80.6238C86.5658 80.4922 86.7913 80.5549 86.9667 80.6238C87.3541 80.8117 87.7591 80.9606 88.1758 81.0686C88.5955 81.179 89.0411 81.1322 89.4287 80.937C89.6417 80.8117 89.8485 80.6238 90.0928 80.6426C90.2158 80.661 90.3334 80.7058 90.4374 80.7742C90.8135 80.9692 91.2169 81.1064 91.6339 81.1814C91.8093 81.1963 91.9788 81.2521 92.1288 81.3442C92.1742 81.3762 92.2073 81.4226 92.2228 81.4758C92.2228 81.6011 92.1038 81.6951 91.9847 81.7389C90.6817 82.2464 89.222 82.0584 87.8312 81.9081C87.6754 81.8861 87.5172 81.8861 87.3614 81.9081C87.1296 81.9519 86.8477 82.0709 86.6535 81.9081C86.4872 81.6691 86.3877 81.3902 86.3653 81.0999Z" fill="#473F47"/>
<path d="M73.9917 84.6755C73.9713 84.5945 73.9715 84.5096 73.9923 84.4286C74.0131 84.3476 74.0538 84.2732 74.1107 84.2119C74.2674 84.0992 74.4804 84.2119 74.6495 84.2809C75.0135 84.5124 75.3971 84.7115 75.7959 84.876C76.2001 85.0262 76.6448 85.0262 77.0489 84.876C77.2744 84.782 77.4999 84.6192 77.7443 84.6693C77.8628 84.704 77.9734 84.7614 78.07 84.8384C78.415 85.091 78.7977 85.2877 79.204 85.421C79.3784 85.4571 79.5417 85.5344 79.6801 85.6466C79.7003 85.6636 79.7169 85.6847 79.7288 85.7084C79.7406 85.7321 79.7475 85.7579 79.749 85.7844C79.749 85.9097 79.6112 85.9849 79.4859 86.0162C78.1264 86.3608 76.7043 86.0162 75.3449 85.6716C75.1922 85.6273 75.0341 85.6041 74.875 85.6027C74.6432 85.6027 74.3488 85.703 74.1734 85.49C74.0465 85.2376 73.9841 84.9578 73.9917 84.6755Z" fill="#473F47"/>
<path d="M85.5962 34.8544C85.4897 35.1989 85.3832 35.5435 85.2955 35.8943C85.196 36.4176 85.0578 36.9327 84.882 37.4354C84.7927 37.6862 84.6502 37.9145 84.4641 38.1049C84.2781 38.2952 84.0531 38.443 83.8045 38.538C83.5509 38.619 83.2759 38.5991 83.0367 38.4824C82.7974 38.3657 82.6124 38.1612 82.5202 37.9115C82.2195 37.9805 82.113 38.3501 82.1193 38.6633C82.1696 38.9698 82.1121 39.2842 81.9564 39.5529C81.6745 39.8849 81.1232 39.7471 80.7536 39.5091C80.194 39.132 79.759 38.5973 79.5036 37.9728C79.2482 37.3482 79.1839 36.6619 79.3189 36.0008C79.6259 34.6038 79.6134 32.9311 80.409 31.722C80.6949 31.314 81.059 30.9669 81.4803 30.7009C81.8495 30.4306 82.28 30.2562 82.7332 30.1934C83.0505 30.1748 83.3688 30.2001 83.6792 30.2686C85.0073 30.4941 86.1349 30.6883 86.1412 32.2107C86.1004 33.1152 85.9165 34.0075 85.5962 34.8544Z" fill="#FCBDBA"/>
<path d="M83.961 32.3978C83.7542 32.3978 83.5162 32.3477 83.3345 32.473C83.1528 32.5983 83.1403 32.8802 83.0275 33.0994C82.8083 33.5067 82.2507 33.563 81.831 33.776C81.5767 33.9121 81.365 34.1157 81.2191 34.3644C81.0732 34.6131 80.9988 34.8973 81.004 35.1856C81.0121 35.0011 80.9664 34.8183 80.8725 34.6594C80.8474 34.6217 80.815 34.5895 80.777 34.5649C80.7391 34.5402 80.6966 34.5236 80.652 34.5159C80.6074 34.5083 80.5617 34.5099 80.5178 34.5205C80.4738 34.5312 80.4325 34.5507 80.3964 34.5779C80.3399 34.6449 80.3069 34.7285 80.3024 34.816C80.2854 34.9949 80.3144 35.1752 80.3868 35.3397C80.4592 35.5042 80.5725 35.6474 80.7159 35.7557C80.5858 36.0243 80.3816 36.2502 80.1274 36.4067C79.8733 36.5632 79.5797 36.6438 79.2812 36.639C79.0927 36.6435 78.9086 36.5814 78.7613 36.4636C78.6686 36.3683 78.5999 36.2523 78.5608 36.1253C78.2037 35.1229 78.7487 34.0517 78.8803 32.9929C78.8928 32.6191 78.9539 32.2485 79.062 31.8904C79.1781 31.6374 79.3371 31.4064 79.5318 31.2075C80.1166 30.5052 80.8907 29.9856 81.7621 29.7102C82.6015 29.4784 84.268 29.5975 84.9258 30.2615C85.075 30.4516 85.1693 30.6789 85.1985 30.9187C85.2276 31.1586 85.1904 31.4019 85.0909 31.6221C84.9915 31.8423 84.8336 32.0311 84.6343 32.1678C84.4351 32.3046 84.2022 32.3841 83.961 32.3978Z" fill="#FF681C"/>
<path d="M83.5898 127.499V115.777C85.131 112.432 88.1693 114.712 88.1693 114.712C88.6437 115.209 89.256 115.553 89.9275 115.699C90.5989 115.845 91.2987 115.786 91.9365 115.531C92.5743 115.275 93.121 114.835 93.5061 114.266C93.8911 113.696 94.0969 113.025 94.0969 112.338C94.0969 111.651 93.8911 110.98 93.5061 110.411C93.121 109.841 92.5743 109.401 91.9365 109.145C91.2987 108.89 90.5989 108.831 89.9275 108.977C89.256 109.123 88.6437 109.467 88.1693 109.964C85.3001 111.843 83.5898 108.899 83.5898 108.899V97.1712H95.3111C95.3111 97.1712 98.2806 95.4609 96.3761 92.5917C95.879 92.1173 95.5354 91.505 95.3895 90.8335C95.2436 90.1621 95.3022 89.4624 95.5577 88.8245C95.8132 88.1867 96.2539 87.64 96.8229 87.2549C97.392 86.8699 98.0633 86.6641 98.7504 86.6641C99.4375 86.6641 100.109 86.8699 100.678 87.2549C101.247 87.64 101.688 88.1867 101.943 88.8245C102.199 89.4624 102.257 90.1621 102.111 90.8335C101.966 91.505 101.622 92.1173 101.125 92.5917C101.125 92.5917 98.8444 95.63 102.19 97.1712H113.911V127.499H83.5898Z" fill="url(#paint6_linear_5624_11986)"/>
<path d="M61.1331 126.876H59.0156L80.6915 69.6421C80.7644 69.4573 80.8913 69.2988 81.0555 69.187C81.2197 69.0753 81.4138 69.0156 81.6124 69.0156C81.7728 69.0154 81.9308 69.0541 82.0729 69.1284C82.215 69.2028 82.3369 69.3105 82.4281 69.4424C82.5194 69.5743 82.5772 69.7264 82.5966 69.8856C82.616 70.0448 82.5964 70.2063 82.5396 70.3563L61.1331 126.876Z" fill="#9ED6BE"/>
<path d="M73.8284 126.873H71.7109L93.6249 69H95.7424L73.8284 126.873Z" fill="#9ED6BE"/>
<path d="M90.2052 78.0379H79.0039L79.5677 76.5469H90.769L90.2052 78.0379Z" fill="#9ED6BE"/>
<path d="M86.7599 87.1316H75.5586L76.1287 85.6406H87.33L86.7599 87.1316Z" fill="#9ED6BE"/>
<path d="M83.3224 96.216H72.1211L72.6849 94.7188H83.8862L83.3224 96.216Z" fill="#9ED6BE"/>
<path d="M79.881 105.303H68.6797L69.2435 103.812H80.4448L79.881 105.303Z" fill="#9ED6BE"/>
<path d="M76.4357 114.397H65.2344L65.8045 112.906H76.9995L76.4357 114.397Z" fill="#9ED6BE"/>
<path d="M79.6265 78.0411L76.7448 85.6402H87.3509L86.7871 87.1312H76.1997L73.3242 94.724H83.9053L83.3415 96.215H72.7416L69.8661 103.814H80.4597L79.8959 105.305H69.3023L66.4205 112.904H77.0079L76.4378 114.395H65.8567L61.1331 126.874H59.0156L80.6915 69.6401C80.7856 69.4437 80.9419 69.2839 81.1361 69.1853C81.3303 69.0867 81.5516 69.055 81.7657 69.0949C81.9798 69.1349 82.1748 69.2444 82.3203 69.4063C82.4659 69.5683 82.554 69.7738 82.5709 69.9909C82.5709 70.1107 82.5497 70.2294 82.5083 70.3418L80.159 76.5501H90.7401L90.1763 78.0411H79.6265Z" fill="url(#paint7_linear_5624_11986)"/>
<path d="M73.8284 126.873H71.7109L93.6249 69H95.7424L73.8284 126.873Z" fill="url(#paint8_linear_5624_11986)"/>
<path d="M178.883 77.3883C178.57 77.653 178.195 77.8341 177.793 77.9145C177.424 77.93 177.056 77.8637 176.715 77.7203L171.503 75.985C171.109 76.2917 170.846 76.7364 170.767 77.2292C170.688 77.7221 170.799 78.2267 171.077 78.6412C171.588 79.2009 172.252 79.5975 172.988 79.7814L176.565 81.0656C177.39 81.4513 178.291 81.6486 179.203 81.6432C180.114 81.6378 181.012 81.4298 181.833 81.0343C182.898 80.6772 184.07 80.2324 184.584 79.2301C185.097 78.2277 184.721 76.8996 184.872 75.7281C185.07 74.984 185.21 74.2259 185.291 73.4603C185.291 72.8025 184.753 71.8127 183.97 71.9505C183.293 72.0695 182.842 73.2473 182.485 73.7422C181.478 75.135 180.263 76.3647 178.883 77.3883Z" fill="white"/>
<path d="M170.852 75.6935C170.797 75.5526 170.714 75.4246 170.607 75.3177C170.555 75.264 170.487 75.227 170.414 75.2114C170.34 75.1958 170.264 75.2023 170.194 75.23C170.125 75.272 170.07 75.3326 170.035 75.4046C169.999 75.4767 169.985 75.5573 169.993 75.6372C169.998 75.6654 169.998 75.6944 169.991 75.7224C169.985 75.7504 169.973 75.7768 169.956 75.8C169.918 75.8376 169.849 75.8 169.793 75.8C169.204 75.6873 168.603 75.5996 168.001 75.5369C167.937 75.524 167.87 75.5289 167.808 75.5509C167.746 75.573 167.691 75.6115 167.649 75.6623C167.607 75.7132 167.58 75.7744 167.57 75.8394C167.561 75.9045 167.569 75.971 167.594 76.0318C167.659 76.2313 167.759 76.4179 167.888 76.5831C168.195 77.0843 168.308 77.7421 168.797 78.0679C169.095 78.2426 169.443 78.3151 169.787 78.2746C170.131 78.2746 170.469 78.1932 170.814 78.212C171.042 78.2607 171.279 78.2343 171.491 78.1368C171.569 78.0778 171.632 77.9997 171.673 77.9098C171.713 77.82 171.73 77.7213 171.722 77.6231C171.686 77.3136 171.577 77.0172 171.403 76.7585C171.209 76.4203 171.027 76.0569 170.852 75.6935Z" fill="#FDB9A9"/>
<path d="M185.387 114.923C183.395 114.472 183.783 117.298 183.257 118.35C182.924 118.891 182.5 119.37 182.004 119.766C181.516 120.173 181.196 120.747 181.108 121.376C181.097 121.493 181.121 121.611 181.177 121.714C181.279 121.838 181.421 121.923 181.578 121.952C182.717 122.285 183.941 122.164 184.992 121.614C185.485 121.382 185.894 121.003 186.164 120.53C186.382 120.02 186.485 119.468 186.465 118.914C186.527 117.736 187.054 115.293 185.387 114.923Z" fill="#FDB9A9"/>
<path d="M183.618 120.75C183.618 120.75 177.942 120.994 180.348 122.774C182.754 124.553 186.343 122.341 186.694 121.934C187.045 121.527 186.757 120.831 186.757 120.831L183.618 120.75Z" fill="#9ED6BE"/>
<path d="M186.444 121.536C185.943 122.162 183.274 122.983 182.09 122.895C180.906 122.807 179.847 122.269 179.966 121.498C180.085 120.728 182.165 118.955 182.56 118.961C182.954 118.967 183.261 119.876 184.051 120.064C184.403 120.122 184.765 120.089 185.102 119.969C185.438 119.848 185.739 119.644 185.974 119.374C186.045 119.28 186.145 119.212 186.258 119.182C186.372 119.151 186.492 119.159 186.6 119.205C186.766 119.577 186.838 119.984 186.81 120.39C186.783 120.796 186.657 121.189 186.444 121.536Z" fill="white"/>
<path d="M192.234 116.043C190.242 115.579 190.631 118.411 190.104 119.457C189.771 120 189.348 120.481 188.851 120.879C188.363 121.284 188.044 121.856 187.955 122.483C187.945 122.602 187.969 122.722 188.024 122.828C188.128 122.95 188.269 123.034 188.425 123.066C189.565 123.396 190.787 123.275 191.84 122.727C192.331 122.491 192.74 122.111 193.011 121.637C193.228 121.129 193.331 120.58 193.312 120.027C193.374 118.837 193.901 116.4 192.234 116.043Z" fill="#FDB9A9"/>
<path d="M190.466 121.844C190.466 121.844 184.79 122.082 187.196 123.874C189.601 125.665 193.191 123.435 193.542 123.028C193.893 122.621 193.605 121.925 193.605 121.925L190.466 121.844Z" fill="#9ED6BE"/>
<path d="M193.292 122.616C192.79 123.242 190.122 124.069 188.938 123.982C187.754 123.894 186.695 123.355 186.814 122.585C186.933 121.814 189.013 120.041 189.407 120.079C189.802 120.116 190.109 120.993 190.898 121.175C191.251 121.235 191.612 121.204 191.949 121.084C192.286 120.964 192.586 120.761 192.822 120.492C192.891 120.397 192.991 120.329 193.105 120.298C193.219 120.267 193.34 120.276 193.448 120.323C193.607 120.69 193.675 121.09 193.648 121.488C193.621 121.887 193.499 122.274 193.292 122.616Z" fill="white"/>
<path d="M187.09 90.2734L189.759 118.364L193.605 117.888C195.127 111.035 194.752 90.5303 194.752 90.5303L187.09 90.2734Z" fill="#473F47"/>
<path d="M189.76 89.5138L187.091 117.598L183.232 117.122C181.033 99.3556 182.85 88.3047 182.85 88.3047L189.76 89.5138Z" fill="#473F47"/>
<path d="M183.2 79.3641C183.149 78.8504 183.012 78.3367 182.962 77.8104C182.836 76.7519 182.855 75.6813 183.018 74.6279C183.199 73.504 183.539 72.4115 184.027 71.3828C184.465 70.4932 185.279 70.1299 186.169 69.6663C186.926 69.2595 187.745 68.9821 188.593 68.8456C189.19 68.7911 189.792 68.8248 190.379 68.9458C192.196 69.2904 194.583 70.1988 195.823 71.6585C196.756 72.7297 196.863 74.2709 196.894 75.6929C196.932 77.6538 196.894 79.6146 196.769 81.5755C196.769 81.8574 196.738 82.1393 196.713 82.4275C196.611 84.6089 196.282 86.7738 195.729 88.8864C195.625 89.5465 195.268 90.14 194.733 90.5403C193.311 91.3672 191.143 90.9099 189.608 90.6969C187.572 90.4087 185.486 90.108 183.682 89.1182C183.307 88.9576 183.005 88.6657 182.83 88.2975C182.74 87.8338 182.799 87.3536 182.999 86.9256C183.626 84.9209 183.137 82.8097 183.137 80.7611C183.137 80.3915 183.181 80.0156 183.181 79.6397C183.2 79.552 183.2 79.458 183.2 79.3641Z" fill="white"/>
<path d="M189.59 82.9848C190.073 83.2853 190.605 83.4974 191.163 83.6113C192.823 84.0937 194.527 84.3505 196.174 84.8643C196.286 84.886 196.39 84.938 196.475 85.0146C196.542 85.1186 196.573 85.242 196.563 85.3654C196.57 85.848 196.498 86.3284 196.35 86.7875C196.301 87.0168 196.17 87.2199 195.98 87.3576C195.739 87.4452 195.475 87.4452 195.235 87.3576L189.026 86.042C188.582 85.9285 188.125 85.8738 187.667 85.8791C187.124 85.9424 186.591 86.075 186.082 86.2738C185.13 86.5787 184.15 86.7886 183.156 86.9003C183.209 85.7152 183.354 84.536 183.589 83.3733C183.68 83.0295 183.81 82.6974 183.977 82.3834C184.177 82.0734 184.413 81.7875 184.679 81.5314C185.681 80.4852 186.376 79.1759 187.391 78.1297C187.924 77.5784 188.588 77.2276 189.058 76.6387C189.246 76.4006 190.874 74.3521 190.718 74.1328C191.031 74.5212 191.808 74.1328 192.09 74.5338C192.265 74.7843 192.09 75.1226 191.927 75.3795C190.727 77.3895 189.889 79.5948 189.452 81.8948C189.327 82.4273 189.139 82.6152 189.59 82.9848Z" fill="url(#paint9_linear_5624_11986)"/>
<path d="M184.527 57.2717C185.103 57.6418 185.556 58.1753 185.827 58.804C186.098 59.4327 186.175 60.1279 186.048 60.8007C185.922 61.4735 185.598 62.0933 185.117 62.5806C184.636 63.068 184.021 63.4008 183.35 63.5364C183.35 63.5364 179.791 64.8771 181.79 67.9718L191.676 74.2679L185.411 84.1536C182.316 86.152 180.975 82.5937 180.975 82.5937C180.841 81.9219 180.508 81.3057 180.02 80.8245C179.533 80.3433 178.912 80.0191 178.238 79.8936C177.565 79.768 176.869 79.8469 176.241 80.12C175.612 80.3932 175.08 80.8481 174.712 81.4262C174.345 82.0044 174.158 82.6794 174.178 83.3643C174.197 84.0492 174.42 84.7127 174.82 85.2694C175.219 85.8262 175.776 86.2507 176.418 86.4884C177.061 86.7261 177.76 86.766 178.426 86.6031C181.871 86.5342 181.721 89.961 181.721 89.961L175.456 99.8467L149.871 83.5584L156.104 73.7604C159.199 71.7682 160.54 75.3203 160.54 75.3203C160.673 75.9946 161.004 76.6137 161.492 77.0977C161.98 77.5818 162.602 77.9085 163.277 78.0359C163.952 78.1632 164.65 78.0854 165.281 77.8123C165.912 77.5392 166.446 77.0835 166.815 76.5038C167.185 75.9242 167.372 75.2472 167.352 74.5602C167.333 73.8732 167.109 73.2078 166.708 72.6496C166.307 72.0914 165.748 71.6662 165.103 71.4287C164.458 71.1912 163.757 71.1524 163.09 71.3172C159.644 71.3861 159.801 67.9593 159.801 67.9593L166.153 57.9734L176.045 64.2757C176.045 64.2757 179.472 64.426 179.403 60.9804C179.294 60.5279 179.276 60.058 179.351 59.5985C179.427 59.139 179.593 58.6993 179.841 58.3054C180.335 57.5578 181.1 57.0317 181.975 56.8387C182.85 56.6457 183.765 56.8011 184.527 57.2717Z" fill="#9ED6BE"/>
<path d="M199.781 77.5272C200.038 77.9743 200.248 78.4466 200.408 78.9367C200.61 79.7958 200.631 80.6876 200.47 81.5554C200.395 82.406 200.089 83.2202 199.587 83.9109C198.528 85.1639 196.636 85.2829 194.995 85.1263C193.132 84.9543 191.292 84.5847 189.507 84.0237C189.341 83.9864 189.185 83.9137 189.05 83.8107C188.905 83.647 188.806 83.4483 188.762 83.2343C188.625 82.7151 188.535 82.1846 188.492 81.6493C190.372 81.1106 192.451 81.5491 194.412 81.2609C194.546 81.2604 194.678 81.2279 194.796 81.1663C194.915 81.1046 195.017 81.0156 195.094 80.9065C195.171 80.7974 195.221 80.6715 195.24 80.5392C195.259 80.4069 195.246 80.272 195.202 80.1458C195.108 79.0432 194.425 78.0785 194.105 77.0135C193.792 75.9885 193.819 74.8899 194.181 73.8811C194.288 73.5256 194.472 73.1976 194.718 72.9197C194.965 72.6418 195.269 72.4205 195.609 72.2711C196.392 72.0142 196.693 72.6282 197.125 73.2045C198.12 74.5751 199.008 76.0203 199.781 77.5272Z" fill="white"/>
<path d="M187.708 80.9487C187.634 80.8886 187.545 80.8496 187.451 80.8359C187.379 80.8434 187.31 80.87 187.252 80.913C187.194 80.9559 187.148 81.0137 187.119 81.0803C187.064 81.2153 187.001 81.3471 186.931 81.4749C186.837 81.5794 186.721 81.6613 186.59 81.7145C186.46 81.7676 186.32 81.7907 186.179 81.7819C185.898 81.7537 185.615 81.7537 185.334 81.7819C185.23 81.8032 185.133 81.8506 185.052 81.9197C184.975 81.9952 184.921 82.0907 184.895 82.1954C184.847 82.4082 184.853 82.6296 184.912 82.8395C184.971 83.0495 185.082 83.2415 185.233 83.3982C185.539 83.7083 185.915 83.9404 186.33 84.0748C186.753 84.2615 187.222 84.3182 187.677 84.2377C187.927 84.165 188.165 84.0575 188.385 83.9182L189.299 83.4107C189.376 83.3746 189.444 83.3235 189.5 83.2604C189.7 83.0098 189.425 82.258 189.243 82.0074C188.786 81.5815 188.269 81.2248 187.708 80.9487Z" fill="#FDB9A9"/>
<path d="M187.097 66.0018C187.097 65.4631 187.141 64.918 187.197 64.3918C187.254 63.8656 187.323 63.4521 187.41 62.9885C187.416 62.8513 187.452 62.717 187.515 62.5948C187.577 62.4726 187.666 62.3654 187.774 62.2806C188.498 61.8482 189.33 61.6309 190.173 61.6541C190.492 61.6317 190.812 61.6758 191.113 61.7836C191.414 61.8915 191.689 62.0607 191.921 62.2806C192.204 62.6404 192.372 63.077 192.403 63.5335C192.433 64.7192 192.315 65.9039 192.052 67.0606C191.92 67.9688 191.872 68.8874 191.908 69.8045C191.464 70.0997 190.954 70.2805 190.424 70.3307C190.177 70.3284 189.932 70.2883 189.697 70.2117C189.566 70.1822 189.451 70.1065 189.371 69.9987C189.343 69.8983 189.343 69.7921 189.371 69.6917C189.377 69.5958 189.377 69.4995 189.371 69.4036C189.408 68.867 189.397 68.3283 189.34 67.7935C189.341 67.7703 189.337 67.7471 189.328 67.7255C189.32 67.7038 189.307 67.6843 189.29 67.6683C189.255 67.6558 189.218 67.6558 189.183 67.6683H189.033C188.766 67.6965 188.498 67.6965 188.231 67.6683C187.91 67.6368 187.612 67.4899 187.392 67.2548C187.137 66.89 187.032 66.4418 187.097 66.0018Z" fill="#FDB9A9"/>
<path d="M188.211 62.5622C188.023 62.5622 187.854 62.6624 187.691 62.5622C187.52 62.4209 187.371 62.2564 187.246 62.0735C186.947 61.6765 186.8 61.1852 186.833 60.689C186.844 60.4645 186.918 60.2477 187.046 60.0625C187.185 59.8942 187.363 59.7629 187.566 59.6804C187.954 59.4891 188.387 59.4047 188.819 59.4361C189.444 59.5174 190.028 59.7961 190.485 60.2317C190.581 60.3321 190.699 60.4092 190.829 60.4572C190.949 60.4824 191.073 60.4824 191.193 60.4572C191.986 60.3905 192.774 60.6329 193.392 61.1338C193.743 61.4408 194.018 61.8355 194.382 62.1048C194.745 62.3742 195.102 62.4745 195.29 62.819C195.368 62.9791 195.4 63.1582 195.381 63.3356C195.362 63.5129 195.294 63.6813 195.183 63.8214C194.95 64.0961 194.629 64.2819 194.275 64.3476C194.314 64.4495 194.332 64.5582 194.329 64.6672C194.325 64.7763 194.3 64.8835 194.254 64.9827C194.209 65.0819 194.144 65.171 194.064 65.2448C193.983 65.3186 193.889 65.3757 193.786 65.4126C193.642 65.4347 193.502 65.4813 193.373 65.5504C193.285 65.6193 193.248 65.7258 193.16 65.7948C192.953 65.9639 192.684 66.0203 192.596 66.3085C192.57 66.4298 192.559 66.554 192.565 66.6781C192.55 66.8619 192.475 67.0357 192.352 67.173C192.27 67.2607 192.126 67.48 192.007 67.505C191.888 67.5301 191.782 67.386 191.744 67.2607C191.597 66.7295 191.635 66.1641 191.851 65.6569C192.006 65.412 192.096 65.1319 192.114 64.8425C192.114 64.5544 191.7 64.3288 191.487 64.498C191.274 64.6671 191.262 65.0743 191.036 64.9929C191.176 64.588 191.166 64.1462 191.007 63.7483C190.848 63.3504 190.552 63.0228 190.172 62.8253C189.75 62.6962 189.31 62.6349 188.869 62.6436C188.663 62.6002 188.453 62.5771 188.242 62.5747L188.211 62.5622Z" fill="#473F47"/>
<path d="M189.031 67.6794C189.653 67.5609 190.262 67.3805 190.848 67.1406C190.901 67.6343 190.782 68.1311 190.512 68.5476C190.241 68.964 189.836 69.2746 189.363 69.4272C189.41 68.8916 189.41 68.3529 189.363 67.8172C189.363 67.7707 189.345 67.726 189.313 67.6919C189.279 67.6795 189.241 67.6795 189.207 67.6919H189.063L189.031 67.6794Z" fill="#DE9F93"/>
<path d="M169.416 72.1804C169.511 72.3165 169.573 72.4732 169.596 72.6376C169.619 72.802 169.602 72.9695 169.548 73.1264C169.439 73.44 169.281 73.7341 169.078 73.9972L168.095 75.4506C167.838 75.8265 167.468 76.2525 167.036 76.2149C165.958 76.1397 165.482 73.3456 165.883 72.5187C166.347 71.485 168.709 71.2971 169.416 72.1804Z" fill="#FDB9A9"/>
<path d="M174.493 97.1712V127.499H144.172V115.771C144.172 115.771 145.882 112.802 148.751 114.706C149.226 115.203 149.838 115.547 150.51 115.693C151.181 115.839 151.881 115.78 152.519 115.524C153.156 115.269 153.703 114.828 154.088 114.259C154.473 113.69 154.679 113.019 154.679 112.332C154.679 111.645 154.473 110.973 154.088 110.404C153.703 109.835 153.156 109.395 152.519 109.139C151.881 108.884 151.181 108.825 150.51 108.971C149.838 109.117 149.226 109.46 148.751 109.957C148.751 109.957 145.713 112.238 144.172 108.892V97.1712H155.893C159.239 95.63 156.958 92.5917 156.958 92.5917C156.461 92.1173 156.117 91.505 155.972 90.8335C155.826 90.1621 155.884 89.4624 156.14 88.8245C156.395 88.1867 156.836 87.64 157.405 87.2549C157.974 86.8699 158.645 86.6641 159.332 86.6641C160.02 86.6641 160.691 86.8699 161.26 87.2549C161.829 87.64 162.27 88.1867 162.525 88.8245C162.781 89.4624 162.839 90.1621 162.693 90.8335C162.548 91.505 162.204 92.1173 161.707 92.5917C159.827 95.4609 162.772 97.1712 162.772 97.1712H174.493Z" fill="#9ED6BE"/>
<path d="M174.493 97.1712V127.499H144.172V115.771C144.172 115.771 145.882 112.802 148.751 114.706C149.226 115.203 149.838 115.547 150.51 115.693C151.181 115.839 151.881 115.78 152.519 115.524C153.156 115.269 153.703 114.828 154.088 114.259C154.473 113.69 154.679 113.019 154.679 112.332C154.679 111.645 154.473 110.973 154.088 110.404C153.703 109.835 153.156 109.395 152.519 109.139C151.881 108.884 151.181 108.825 150.51 108.971C149.838 109.117 149.226 109.46 148.751 109.957C148.751 109.957 145.713 112.238 144.172 108.892V97.1712H155.893C159.239 95.63 156.958 92.5917 156.958 92.5917C156.461 92.1173 156.117 91.505 155.972 90.8335C155.826 90.1621 155.884 89.4624 156.14 88.8245C156.395 88.1867 156.836 87.64 157.405 87.2549C157.974 86.8699 158.645 86.6641 159.332 86.6641C160.02 86.6641 160.691 86.8699 161.26 87.2549C161.829 87.64 162.27 88.1867 162.525 88.8245C162.781 89.4624 162.839 90.1621 162.693 90.8335C162.548 91.505 162.204 92.1173 161.707 92.5917C159.827 95.4609 162.772 97.1712 162.772 97.1712H174.493Z" fill="url(#paint10_linear_5624_11986)"/>
<path d="M124.36 82.0044C124.358 82.6911 124.151 83.3616 123.765 83.9298C123.379 84.4979 122.832 84.9378 122.194 85.193C121.557 85.4481 120.858 85.507 120.186 85.3619C119.515 85.2168 118.902 84.8744 118.427 84.3787C115.558 82.4993 113.848 85.4437 113.848 85.4437V97.1712H144.169V66.8438H113.848V78.565C115.389 81.9104 118.427 79.63 118.427 79.63C118.902 79.1343 119.515 78.7919 120.186 78.6468C120.858 78.5017 121.557 78.5605 122.194 78.8157C122.832 79.0709 123.379 79.5108 123.765 80.0789C124.151 80.6471 124.358 81.3176 124.36 82.0044Z" fill="#9ED6BE"/>
<path d="M126.634 101.751C126.137 102.226 125.793 102.838 125.647 103.51C125.501 104.181 125.56 104.881 125.815 105.519C126.071 106.156 126.512 106.703 127.081 107.088C127.65 107.473 128.321 107.679 129.008 107.679C129.695 107.679 130.367 107.473 130.936 107.088C131.505 106.703 131.945 106.156 132.201 105.519C132.456 104.881 132.515 104.181 132.369 103.51C132.223 102.838 131.88 102.226 131.382 101.751C131.382 101.751 129.102 98.713 132.447 97.1719H125.562C125.562 97.1719 128.538 98.8821 126.634 101.751Z" fill="#9ED6BE"/>
<path d="M113.848 66.8438V78.565C115.389 81.9104 118.427 79.63 118.427 79.63C118.901 79.1329 119.514 78.7893 120.185 78.6434C120.857 78.4975 121.556 78.5561 122.194 78.8116C122.832 79.0671 123.379 79.5078 123.764 80.0768C124.149 80.6459 124.355 81.3172 124.355 82.0043C124.355 82.6914 124.149 83.3628 123.764 83.9318C123.379 84.5009 122.832 84.9416 122.194 85.1971C121.556 85.4525 120.857 85.5111 120.185 85.3653C119.514 85.2194 118.901 84.8758 118.427 84.3787C115.558 82.4992 113.848 85.4437 113.848 85.4437V97.1712H125.563C125.563 97.1712 128.532 98.8815 126.628 101.751C126.131 102.225 125.787 102.837 125.641 103.509C125.495 104.18 125.554 104.88 125.809 105.518C126.065 106.156 126.505 106.702 127.074 107.087C127.644 107.473 128.315 107.678 129.002 107.678C129.689 107.678 130.36 107.473 130.929 107.087C131.499 106.702 131.939 106.156 132.195 105.518C132.45 104.88 132.509 104.18 132.363 103.509C132.217 102.837 131.873 102.225 131.376 101.751C131.376 101.751 129.096 98.7123 132.441 97.1712H144.169V66.8438H113.848Z" fill="url(#paint11_linear_5624_11986)"/>
<path d="M113.848 97.1719V127.499H144.169V115.772C144.169 115.772 145.879 112.802 148.748 114.707C149.223 115.204 149.835 115.548 150.506 115.693C151.178 115.839 151.878 115.781 152.515 115.525C153.153 115.27 153.7 114.829 154.085 114.26C154.47 113.691 154.676 113.02 154.676 112.332C154.676 111.645 154.47 110.974 154.085 110.405C153.7 109.836 153.153 109.395 152.515 109.14C151.878 108.884 151.178 108.826 150.506 108.972C149.835 109.117 149.223 109.461 148.748 109.958C148.748 109.958 145.71 112.239 144.169 108.893V97.1719H132.454C129.108 98.713 131.389 101.751 131.389 101.751C131.886 102.226 132.23 102.838 132.375 103.51C132.521 104.181 132.463 104.881 132.207 105.519C131.952 106.156 131.511 106.703 130.942 107.088C130.373 107.473 129.702 107.679 129.015 107.679C128.327 107.679 127.656 107.473 127.087 107.088C126.518 106.703 126.077 106.156 125.822 105.519C125.566 104.881 125.508 104.181 125.654 103.51C125.799 102.838 126.143 102.226 126.64 101.751C128.52 98.8821 125.575 97.1719 125.575 97.1719H113.848Z" fill="#9ED6BE"/>
<path d="M83.5898 127.499V115.777C85.131 112.432 88.1693 114.712 88.1693 114.712C88.6437 115.209 89.256 115.553 89.9275 115.699C90.5989 115.845 91.2987 115.786 91.9365 115.531C92.5743 115.275 93.121 114.835 93.5061 114.266C93.8911 113.696 94.0969 113.025 94.0969 112.338C94.0969 111.651 93.8911 110.98 93.5061 110.411C93.121 109.841 92.5743 109.401 91.9365 109.145C91.2987 108.89 90.5989 108.831 89.9275 108.977C89.256 109.123 88.6437 109.467 88.1693 109.964C85.3001 111.843 83.5898 108.899 83.5898 108.899V97.1712H95.3111C95.3111 97.1712 98.2806 95.4609 96.3761 92.5917C95.879 92.1173 95.5354 91.505 95.3895 90.8335C95.2436 90.1621 95.3022 89.4624 95.5577 88.8245C95.8132 88.1867 96.2539 87.64 96.8229 87.2549C97.392 86.8699 98.0633 86.6641 98.7504 86.6641C99.4375 86.6641 100.109 86.8699 100.678 87.2549C101.247 87.64 101.688 88.1867 101.943 88.8245C102.199 89.4624 102.257 90.1621 102.111 90.8335C101.966 91.505 101.622 92.1173 101.125 92.5917C101.125 92.5917 98.8444 95.63 102.19 97.1712H113.911V127.499H83.5898Z" fill="#9ED6BE"/>
<path d="M83.5898 127.499V115.777C85.131 112.432 88.1693 114.712 88.1693 114.712C88.6437 115.209 89.256 115.553 89.9275 115.699C90.5989 115.845 91.2987 115.786 91.9365 115.531C92.5743 115.275 93.121 114.835 93.5061 114.266C93.8911 113.696 94.0969 113.025 94.0969 112.338C94.0969 111.651 93.8911 110.98 93.5061 110.411C93.121 109.841 92.5743 109.401 91.9365 109.145C91.2987 108.89 90.5989 108.831 89.9275 108.977C89.256 109.123 88.6437 109.467 88.1693 109.964C85.3001 111.843 83.5898 108.899 83.5898 108.899V97.1712H95.3111C95.3111 97.1712 98.2806 95.4609 96.3761 92.5917C95.879 92.1173 95.5354 91.505 95.3895 90.8335C95.2436 90.1621 95.3022 89.4624 95.5577 88.8245C95.8132 88.1867 96.2539 87.64 96.8229 87.2549C97.392 86.8699 98.0633 86.6641 98.7504 86.6641C99.4375 86.6641 100.109 86.8699 100.678 87.2549C101.247 87.64 101.688 88.1867 101.943 88.8245C102.199 89.4624 102.257 90.1621 102.111 90.8335C101.966 91.505 101.622 92.1173 101.125 92.5917C101.125 92.5917 98.8444 95.63 102.19 97.1712H113.911V127.499H83.5898Z" fill="url(#paint12_linear_5624_11986)"/>
<path d="M124.398 82.0106C124.396 82.6974 124.189 83.3679 123.803 83.936C123.417 84.5042 122.87 84.9441 122.233 85.1992C121.595 85.4544 120.896 85.5132 120.225 85.3681C119.553 85.223 118.941 84.8807 118.465 84.3849C118.465 84.3849 115.427 82.1046 113.886 85.4499V97.1712H102.165C98.8193 95.6301 101.1 92.5917 101.1 92.5917C101.597 92.1174 101.94 91.505 102.086 90.8336C102.232 90.1621 102.174 89.4624 101.918 88.8246C101.663 88.1867 101.222 87.64 100.653 87.255C100.084 86.8699 99.4125 86.6641 98.7254 86.6641C98.0383 86.6641 97.3669 86.8699 96.7979 87.255C96.2288 87.64 95.7881 88.1867 95.5327 88.8246C95.2772 89.4624 95.2186 90.1621 95.3644 90.8336C95.5103 91.505 95.854 92.1174 96.3511 92.5917C98.2305 95.4609 95.2861 97.1712 95.2861 97.1712H83.5898V66.8438H95.1983C98.5437 68.3849 96.2633 71.4233 96.2633 71.4233C95.7662 71.8976 95.4226 72.5099 95.2767 73.1814C95.1309 73.8528 95.1895 74.5526 95.4449 75.1904C95.7004 75.8282 96.1411 76.3749 96.7102 76.76C97.2792 77.1451 97.9506 77.3509 98.6377 77.3509C99.3248 77.3509 99.9961 77.1451 100.565 76.76C101.134 76.3749 101.575 75.8282 101.83 75.1904C102.086 74.5526 102.144 73.8528 101.999 73.1814C101.853 72.5099 101.509 71.8976 101.012 71.4233C99.1326 68.554 102.077 66.8438 102.077 66.8438H113.911V78.5713C113.911 78.5713 115.621 81.5408 118.491 79.6363C118.966 79.1406 119.578 78.7982 120.25 78.6531C120.921 78.508 121.62 78.5668 122.258 78.822C122.895 79.0772 123.442 79.5171 123.828 80.0852C124.214 80.6534 124.421 81.3238 124.423 82.0106H124.398Z" fill="#9ED6BE"/>
<path d="M131.828 140.284C131.839 140.971 131.643 141.647 131.266 142.222C130.889 142.798 130.349 143.247 129.714 143.512C129.079 143.777 128.38 143.846 127.706 143.709C127.032 143.572 126.414 143.237 125.933 142.746C125.933 142.746 122.863 140.509 121.372 143.873L121.541 155.595L109.82 155.764C106.449 154.273 108.686 151.203 108.686 151.203C109.174 150.722 109.507 150.106 109.641 149.434C109.776 148.762 109.707 148.065 109.442 147.433C109.178 146.801 108.73 146.262 108.157 145.887C107.583 145.511 106.911 145.316 106.226 145.326C105.54 145.336 104.874 145.55 104.312 145.942C103.75 146.334 103.318 146.886 103.072 147.525C102.825 148.165 102.776 148.863 102.931 149.531C103.085 150.199 103.435 150.805 103.937 151.272C105.885 154.11 102.941 155.864 102.941 155.864L91.2198 156.033L90.7812 125.706L102.39 125.543C105.76 127.034 103.524 130.104 103.524 130.104C103.036 130.585 102.703 131.201 102.568 131.873C102.433 132.545 102.503 133.242 102.767 133.874C103.032 134.506 103.479 135.044 104.053 135.42C104.626 135.795 105.299 135.991 105.984 135.981C106.669 135.971 107.336 135.756 107.898 135.364C108.46 134.972 108.892 134.421 109.138 133.781C109.384 133.142 109.433 132.443 109.279 131.775C109.125 131.108 108.774 130.501 108.272 130.035C106.324 127.197 109.268 125.443 109.268 125.443L121.102 125.273L121.272 137.001C121.272 137.001 123.026 139.945 125.864 137.997C126.185 137.654 126.573 137.379 127.004 137.19C127.435 137 127.899 136.9 128.369 136.894C129.277 136.888 130.15 137.241 130.798 137.876C131.446 138.511 131.816 139.376 131.828 140.284Z" fill="#9ED6BE"/>
<path d="M95.0311 125.819C94.6114 126.283 94.2856 127.304 94.9497 127.736C95.1872 127.864 95.4506 127.937 95.7203 127.949L99.2661 128.381C99.1596 128.381 101.014 149.274 101.741 153.716C101.828 154.242 102.048 154.9 102.58 154.969C102.74 154.959 102.895 154.912 103.033 154.832C103.171 154.751 103.289 154.639 103.376 154.505C103.888 153.703 104.179 152.781 104.221 151.83C105.102 145.011 105.521 138.139 105.474 131.263C105.474 129.904 105.424 128.482 104.748 127.298C104.332 126.654 103.787 126.103 103.148 125.68C102.508 125.257 101.788 124.972 101.033 124.842C99.0092 124.385 96.5033 124.178 95.0311 125.819Z" fill="url(#paint13_linear_5624_11986)"/>
<path d="M103.562 169.188V169.27C103.712 169.652 104.188 169.777 104.589 169.827C104.968 169.869 105.349 169.886 105.729 169.878C105.912 169.884 106.094 169.859 106.268 169.802C106.428 169.732 106.577 169.642 106.713 169.533L107.809 168.719C108.117 168.506 108.399 168.258 108.649 167.979C108.896 167.693 109.025 167.324 109.012 166.946C108.999 166.759 108.929 166.581 108.811 166.435C108.694 166.289 108.534 166.183 108.354 166.131C108.125 166.103 107.894 166.103 107.665 166.131C107.411 166.164 107.152 166.122 106.921 166.011C106.69 165.9 106.496 165.724 106.362 165.505C106.317 165.3 106.207 165.116 106.049 164.979C105.889 164.901 105.709 164.879 105.535 164.916C105.155 164.935 104.779 165.009 104.42 165.135C104.239 165.2 104.075 165.305 103.939 165.441C103.804 165.578 103.7 165.743 103.637 165.925C103.599 166.093 103.582 166.266 103.587 166.438C103.609 166.795 103.609 167.153 103.587 167.509C103.537 167.955 103.512 168.402 103.512 168.85C103.515 168.964 103.532 169.078 103.562 169.188Z" fill="#262836"/>
<path d="M114.192 169.331C113.454 169.669 112.694 169.958 111.918 170.196C111.609 170.329 111.263 170.349 110.941 170.252C110.814 170.191 110.703 170.103 110.613 169.995C110.523 169.887 110.458 169.761 110.421 169.626C110.353 169.349 110.326 169.064 110.339 168.78C110.387 168.34 110.477 167.906 110.609 167.483C110.678 167.089 110.734 166.694 110.784 166.299C110.866 165.729 110.941 165.165 111.01 164.602L112.983 165.021C113.19 165.065 113.384 165.861 113.509 166.03C113.601 166.154 113.72 166.257 113.856 166.33C113.993 166.402 114.144 166.443 114.299 166.45C114.635 166.401 114.974 166.374 115.314 166.368C115.532 166.42 115.728 166.542 115.87 166.717C116.012 166.891 116.091 167.108 116.097 167.333C116.095 167.556 116.047 167.777 115.955 167.981C115.863 168.185 115.73 168.367 115.564 168.517C115.232 168.818 114.85 169.059 114.436 169.231L114.192 169.331Z" fill="#262836"/>
<path d="M114.224 167.127C113.706 167.421 113.168 167.679 112.614 167.898H112.564C111.649 168.255 110.628 166.82 110.628 166.82C110.628 166.82 109.338 158.851 109.375 155.544C109.419 153.276 108.88 150.043 108.072 144.179C107.872 150.168 106.857 152.8 107.114 154.948C107.508 158.212 107.039 166.319 107.039 166.319C107.039 166.319 106.174 167.898 105.228 167.685H105.172C104.602 167.555 104.043 167.383 103.499 167.171C103.499 167.171 102.396 156.007 102.396 153.063C102.396 150.118 102.522 147.481 102.522 147.481L101.945 138.159L104.401 134.588L104.602 134.507L104.789 134.319L107.515 132.32C107.515 132.32 107.515 132.784 107.465 133.573L109.582 134.707L109.782 134.858L109.989 134.908L113.535 135.534C113.535 135.534 114.462 149.836 114.788 152.762C115.114 155.688 114.224 167.127 114.224 167.127Z" fill="#9ED6BE"/>
<path d="M114.224 167.127C113.706 167.421 113.168 167.679 112.614 167.898H112.564C111.649 168.255 110.628 166.82 110.628 166.82C110.628 166.82 109.338 158.851 109.375 155.544C109.419 153.276 108.88 150.043 108.072 144.179C107.872 150.168 106.857 152.8 107.114 154.948C107.508 158.212 107.039 166.319 107.039 166.319C107.039 166.319 106.174 167.898 105.228 167.685H105.172C104.602 167.555 104.043 167.383 103.499 167.171C103.499 167.171 102.396 156.007 102.396 153.063C102.396 150.118 102.522 147.481 102.522 147.481L101.945 138.159L104.401 134.588L104.602 134.507L104.789 134.319L107.515 132.32C107.515 132.32 107.515 132.784 107.465 133.573L109.582 134.707L109.782 134.858L109.989 134.908L113.535 135.534C113.535 135.534 114.462 149.836 114.788 152.762C115.114 155.688 114.224 167.127 114.224 167.127Z" fill="url(#paint14_linear_5624_11986)"/>
<path d="M130.913 117.269C130.957 117.237 131.009 117.22 131.063 117.219C131.208 117.219 131.214 117.451 131.164 117.588C131.033 117.973 130.843 118.334 130.6 118.66C130.521 118.741 130.475 118.848 130.468 118.96C130.468 119.073 130.569 119.155 130.644 119.236C130.874 119.503 131.038 119.822 131.122 120.165C131.206 120.508 131.207 120.866 131.126 121.209C130.952 121.896 130.595 122.521 130.092 123.02C129.971 123.174 129.821 123.303 129.65 123.398C129.479 123.494 129.291 123.555 129.096 123.577C128.42 123.577 127.574 122.744 127.305 122.168C127.207 121.88 127.185 121.572 127.242 121.273C127.299 120.974 127.433 120.695 127.63 120.464C128.43 119.133 129.561 118.032 130.913 117.269Z" fill="#A67C52"/>
<path d="M111.286 110.693C111.505 110.918 111.844 111.15 111.75 111.445C111.699 111.601 111.53 111.695 111.405 111.808C111.096 112.136 110.929 112.573 110.941 113.023C110.955 113.471 110.891 113.918 110.753 114.345C110.675 114.556 110.527 114.734 110.333 114.848C110.138 114.962 109.911 115.006 109.688 114.972C109.432 114.903 109.175 114.677 108.924 114.784C108.674 114.89 108.674 115.097 108.573 115.272C108.437 115.488 108.242 115.661 108.012 115.772C107.781 115.883 107.524 115.927 107.27 115.899C106.768 115.823 106.283 115.655 105.842 115.404C105.654 115.329 105.492 115.203 105.372 115.041C105.299 114.882 105.282 114.703 105.322 114.533C105.477 114.023 105.73 113.549 106.067 113.136C106.608 112.304 106.933 111.35 107.013 110.361C107.064 109.672 107.013 108.914 107.458 108.381C108.085 107.654 109.507 107.661 110.252 108.193C110.998 108.726 110.597 109.985 111.286 110.693Z" fill="#A67C52"/>
<path d="M110.398 107.574C110.31 107.746 110.178 107.891 110.016 107.994C109.684 108.188 109.389 108.413 109.088 108.62C108.785 108.82 108.572 109.13 108.493 109.485C108.362 110.111 108.712 110.825 108.493 111.458C108.412 111.59 108.205 111.508 108.124 111.383C108.042 111.258 107.992 111.101 107.867 111.026C107.647 110.9 107.384 111.113 107.29 111.345C107.193 111.615 107.204 111.911 107.321 112.173C107.438 112.435 107.651 112.641 107.917 112.749C107.886 112.949 107.629 113.03 107.422 113.005C107.218 112.949 107.007 112.922 106.795 112.924C106.326 113.012 106.169 113.682 105.68 113.751C105.519 113.74 105.361 113.692 105.221 113.611C105.081 113.529 104.962 113.416 104.872 113.281L104.302 112.655C104.21 112.533 104.11 112.418 104.001 112.31C103.87 112.21 103.657 112.203 103.55 112.084C103.444 111.965 103.55 111.684 103.438 111.533C103.384 111.477 103.317 111.436 103.243 111.414C103.079 111.331 102.949 111.195 102.874 111.027C102.798 110.859 102.783 110.671 102.83 110.493C102.845 110.449 102.845 110.4 102.83 110.355C102.83 110.293 102.742 110.268 102.68 110.236C102.507 110.124 102.379 109.954 102.321 109.757C102.262 109.559 102.276 109.347 102.36 109.159C102.455 108.943 102.592 108.747 102.761 108.582C102.821 108.49 102.906 108.417 103.005 108.372C103.105 108.326 103.216 108.31 103.325 108.326L103.419 107.505C103.417 107.366 103.445 107.228 103.503 107.102C103.56 106.975 103.645 106.863 103.751 106.773C103.857 106.683 103.982 106.618 104.116 106.582C104.25 106.546 104.391 106.54 104.528 106.565L104.34 105.889C104.305 105.802 104.305 105.706 104.34 105.619C104.391 105.559 104.462 105.52 104.54 105.507C104.759 105.444 104.984 105.406 105.211 105.394C105.129 105.204 105.066 105.007 105.023 104.805C105.008 104.776 105.003 104.743 105.007 104.711C105.012 104.679 105.025 104.649 105.047 104.625C105.068 104.6 105.097 104.583 105.128 104.575C105.159 104.567 105.192 104.569 105.223 104.579C105.306 104.592 105.391 104.592 105.474 104.579C105.474 104.579 105.348 104.003 105.342 103.953C105.304 103.772 105.338 103.583 105.436 103.427C105.505 103.349 105.591 103.289 105.689 103.253C105.786 103.217 105.891 103.205 105.994 103.22C106.197 103.256 106.392 103.328 106.57 103.433C106.57 103.214 106.839 103.101 107.059 103.082C107.481 103.058 107.902 103.142 108.283 103.325C108.664 103.508 108.993 103.784 109.239 104.128C109.279 104.189 109.325 104.245 109.377 104.297C109.477 104.361 109.587 104.408 109.702 104.435C109.88 104.514 110.038 104.631 110.165 104.779C110.292 104.926 110.384 105.1 110.435 105.287C110.529 105.66 110.567 106.044 110.548 106.427C110.562 106.722 110.535 107.017 110.467 107.304C110.454 107.397 110.431 107.487 110.398 107.574Z" fill="#2F3554"/>
<path d="M107.285 114.675C107.807 114.894 108.313 115.147 108.801 115.433C108.952 115.514 109.082 115.628 109.183 115.765C109.237 115.841 109.27 115.929 109.279 116.022C109.288 116.114 109.272 116.207 109.233 116.292C109.102 116.523 108.788 116.442 108.55 116.354C107.447 115.98 106.282 115.818 105.117 115.878C105.04 115.891 104.96 115.882 104.887 115.852C104.814 115.822 104.75 115.773 104.704 115.709C104.677 115.632 104.667 115.55 104.674 115.469C104.682 115.388 104.707 115.31 104.748 115.239C105.343 114.043 106.314 114.237 107.285 114.675Z" fill="white"/>
<path d="M128.727 123.907C128.501 124.469 128.167 124.982 127.743 125.417C127.336 125.874 126.917 126.313 126.491 126.739C125.461 127.734 124.376 128.669 123.239 129.539C122.467 130.221 121.547 130.714 120.552 130.98C120.148 131.074 119.725 131.048 119.336 130.905C119.02 130.747 118.734 130.535 118.491 130.278C118.202 129.99 114.857 126.137 114.801 126.137C114.611 126.239 114.464 126.406 114.387 126.607C113.904 127.608 113.605 128.688 113.504 129.796C113.463 130.29 113.463 130.786 113.504 131.281C113.635 132.966 114.224 134.701 113.642 136.292C113.525 136.629 113.332 136.933 113.078 137.182C112.833 137.396 112.55 137.564 112.245 137.677C111.705 137.898 111.141 138.058 110.566 138.153C110.237 138.213 109.904 138.249 109.57 138.259C108.317 138.31 107.126 138.071 105.898 138.128C104.859 138.184 103.825 138.454 102.766 138.416C102.617 138.445 102.463 138.441 102.315 138.405C102.167 138.369 102.029 138.301 101.91 138.207C101.791 138.112 101.694 137.993 101.625 137.857C101.557 137.721 101.519 137.572 101.513 137.42C101.107 135.189 100.898 132.927 100.887 130.66C100.887 129.871 100.843 129.075 100.793 128.286C100.749 127.616 100.931 125.912 100.166 125.78C98.2242 125.404 96.2069 125.88 94.2461 125.605C94.3006 124.322 94.8455 123.108 95.7684 122.215C96.2211 121.833 96.7124 121.5 97.2344 121.219C97.8353 120.789 98.3748 120.279 98.8381 119.703C100.17 118.058 101.858 116.737 103.775 115.838C104.08 115.688 104.402 115.575 104.733 115.5H104.815C104.863 115.494 104.911 115.494 104.959 115.5C105.378 115.465 105.8 115.49 106.212 115.575C109.007 116.039 111.772 116.666 114.494 117.454C114.853 117.535 115.193 117.684 115.496 117.893C115.707 118.084 115.889 118.306 116.035 118.551C116.799 119.703 117.545 120.869 118.315 122.021C118.979 123.011 119.631 124.252 120.608 124.978C122.735 124.113 124.744 122.981 126.585 121.608C126.841 121.414 127.173 121.201 127.468 121.332C127.566 121.376 127.653 121.44 127.725 121.52C128.445 122.147 129.078 122.836 128.727 123.907Z" fill="white"/>
</g>
<defs>
<linearGradient id="paint0_linear_5624_11986" x1="107.916" y1="151.027" x2="109.213" y2="175.955" gradientUnits="userSpaceOnUse">
<stop offset="0.01"/>
<stop offset="0.08" stop-opacity="0.69"/>
<stop offset="0.21" stop-opacity="0.32"/>
<stop offset="1" stop-opacity="0"/>
</linearGradient>
<linearGradient id="paint1_linear_5624_11986" x1="29915" y1="1390.75" x2="29922" y2="2956.73" gradientUnits="userSpaceOnUse">
<stop offset="0.01"/>
<stop offset="0.08" stop-opacity="0.69"/>
<stop offset="0.21" stop-opacity="0.32"/>
<stop offset="1" stop-opacity="0"/>
</linearGradient>
<linearGradient id="paint2_linear_5624_11986" x1="-21498.9" y1="9931.36" x2="-21306.4" y2="10006.4" gradientUnits="userSpaceOnUse">
<stop offset="0.01"/>
<stop offset="0.08" stop-opacity="0.69"/>
<stop offset="0.21" stop-opacity="0.32"/>
<stop offset="1" stop-opacity="0"/>
</linearGradient>
<linearGradient id="paint3_linear_5624_11986" x1="118.074" y1="88.4989" x2="63.7543" y2="-21.7871" gradientUnits="userSpaceOnUse">
<stop offset="0.01"/>
<stop offset="0.08" stop-opacity="0.69"/>
<stop offset="0.21" stop-opacity="0.32"/>
<stop offset="1" stop-opacity="0"/>
</linearGradient>
<linearGradient id="paint4_linear_5624_11986" x1="1621.18" y1="668.017" x2="1664.56" y2="980.466" gradientUnits="userSpaceOnUse">
<stop offset="0.01"/>
<stop offset="0.08" stop-opacity="0.69"/>
<stop offset="0.21" stop-opacity="0.32"/>
<stop offset="1" stop-opacity="0"/>
</linearGradient>
<linearGradient id="paint5_linear_5624_11986" x1="-8601.95" y1="-1543.25" x2="-8693.93" y2="-1476.02" gradientUnits="userSpaceOnUse">
<stop offset="0.01"/>
<stop offset="0.08" stop-opacity="0.69"/>
<stop offset="0.21" stop-opacity="0.32"/>
<stop offset="1" stop-opacity="0"/>
</linearGradient>
<linearGradient id="paint6_linear_5624_11986" x1="5232.13" y1="5306.14" x2="5149.09" y2="12602.9" gradientUnits="userSpaceOnUse">
<stop offset="0.01"/>
<stop offset="0.08" stop-opacity="0.69"/>
<stop offset="0.21" stop-opacity="0.32"/>
<stop offset="1" stop-opacity="0"/>
</linearGradient>
<linearGradient id="paint7_linear_5624_11986" x1="5245.33" y1="9205.53" x2="2452.44" y2="10084.8" gradientUnits="userSpaceOnUse">
<stop offset="0.01"/>
<stop offset="0.08" stop-opacity="0.69"/>
<stop offset="0.21" stop-opacity="0.32"/>
<stop offset="1" stop-opacity="0"/>
</linearGradient>
<linearGradient id="paint8_linear_5624_11986" x1="3218.38" y1="8429.39" x2="-639.057" y2="9347.98" gradientUnits="userSpaceOnUse">
<stop offset="0.01"/>
<stop offset="0.08" stop-opacity="0.69"/>
<stop offset="0.21" stop-opacity="0.32"/>
<stop offset="1" stop-opacity="0"/>
</linearGradient>
<linearGradient id="paint9_linear_5624_11986" x1="4036.36" y1="1361.72" x2="4898.25" y2="3403.18" gradientUnits="userSpaceOnUse">
<stop offset="0.01"/>
<stop offset="0.08" stop-opacity="0.69"/>
<stop offset="0.21" stop-opacity="0.32"/>
<stop offset="1" stop-opacity="0"/>
</linearGradient>
<linearGradient id="paint10_linear_5624_11986" x1="5279.98" y1="5590.35" x2="13725.3" y2="9986.76" gradientUnits="userSpaceOnUse">
<stop offset="0.01"/>
<stop offset="0.08" stop-opacity="0.69"/>
<stop offset="0.21" stop-opacity="0.32"/>
<stop offset="1" stop-opacity="0"/>
</linearGradient>
<linearGradient id="paint11_linear_5624_11986" x1="6152.92" y1="10402.5" x2="8549.77" y2="832.697" gradientUnits="userSpaceOnUse">
<stop offset="0.01"/>
<stop offset="0.08" stop-opacity="0.69"/>
<stop offset="0.21" stop-opacity="0.32"/>
<stop offset="1" stop-opacity="0"/>
</linearGradient>
<linearGradient id="paint12_linear_5624_11986" x1="5291.86" y1="3700.11" x2="4920.26" y2="15836.4" gradientUnits="userSpaceOnUse">
<stop offset="0.01"/>
<stop offset="0.08" stop-opacity="0.69"/>
<stop offset="0.21" stop-opacity="0.32"/>
<stop offset="1" stop-opacity="0"/>
</linearGradient>
<linearGradient id="paint13_linear_5624_11986" x1="1673.55" y1="6638.16" x2="3482.76" y2="7342.41" gradientUnits="userSpaceOnUse">
<stop offset="0.01"/>
<stop offset="0.08" stop-opacity="0.69"/>
<stop offset="0.21" stop-opacity="0.32"/>
<stop offset="1" stop-opacity="0"/>
</linearGradient>
<linearGradient id="paint14_linear_5624_11986" x1="2213.83" y1="8523.86" x2="3737.99" y2="9297.12" gradientUnits="userSpaceOnUse">
<stop offset="0.01"/>
<stop offset="0.08" stop-opacity="0.69"/>
<stop offset="0.21" stop-opacity="0.32"/>
<stop offset="1" stop-opacity="0"/>
</linearGradient>
<clipPath id="clip0_5624_11986">
<rect width="250" height="188.424" fill="white"/>
</clipPath>
</defs>
</svg>
