<svg width="165" height="124" viewBox="0 0 165 124" fill="none" xmlns="http://www.w3.org/2000/svg">
<g clip-path="url(#clip0_2626:1524)">
<path opacity="0.2" d="M152.023 83.4444C150.967 87.6043 149.137 91.7559 147.533 95.4581C141.44 109.438 131.158 118.999 115.058 117.045C107.299 116.101 99.7051 113.495 91.8925 113.747C84.4179 113.978 77.3021 116.793 70.2027 119.139C57.0099 123.505 42.403 126.3 29.3545 121.493C16.306 116.686 6.15987 101.898 10.8021 88.7875C14.4136 78.5548 25.7058 71.6905 26.8808 60.9053C28.4268 46.888 11.8369 34.7959 15.3371 21.1167C16.8254 15.3572 21.6161 11.0695 26.6912 7.97745C38.3503 0.849207 52.6851 -1.50488 66.0799 0.919294C78.8192 3.20742 89.4188 13.9348 102.257 14.4296C110.536 14.7429 118.501 10.0388 126.746 10.8139C136.946 11.7992 144.425 20.8322 149.195 29.9064C150.73 32.7391 152.014 35.701 153.033 38.7579C155.015 44.9876 155.417 51.6122 154.204 58.0359C152.967 64.6323 153.115 70.8164 152.926 77.5819C152.842 79.5634 152.54 81.5296 152.023 83.4444Z" fill="#68E1FD"/>
<path d="M63.6683 110.156C63.1653 110.312 62.6005 110.568 62.4727 111.067C64.0558 112.073 66.0141 112.304 67.8858 112.254C69.7576 112.205 71.6252 111.875 73.501 111.863C75.9747 111.863 78.7616 112.304 80.7488 110.803C79.8662 110.244 78.8529 109.926 77.8093 109.879C78.1762 107.571 65.136 109.698 63.6683 110.156Z" fill="url(#paint0_linear_2626:1524)"/>
<path d="M31.8853 82.6529C31.2174 82.6529 30.2939 82.991 30.4588 83.6383L60.9383 86.1119C64.5251 86.4046 68.116 86.6932 71.7193 86.6932C77.1614 86.6932 82.5786 86.0253 88.0083 85.712C93.1205 85.4193 98.241 85.4399 103.357 85.4646C108.094 85.4894 113.92 86.3428 118.521 85.1018C119.213 84.9163 119.91 84.3597 119.865 83.6465C119.844 83.3167 119.671 82.9745 119.799 82.6694C119.873 82.5197 119.991 82.3961 120.137 82.3149C121.081 81.7335 122.285 82.187 123.373 82.4262C125.106 82.8028 126.915 82.5728 128.498 81.7748C128.795 81.6514 129.047 81.4417 129.223 81.1728C129.307 81.0371 129.338 80.875 129.309 80.718C129.28 80.561 129.194 80.4204 129.067 80.3236C128.939 80.2602 128.797 80.2277 128.655 80.2287L119.325 79.5031C118.98 79.4498 118.628 79.4809 118.298 79.5938C117.931 79.7546 117.952 80.1834 117.655 80.3607C117.173 80.6451 116.076 80.4926 115.524 80.5256C114.109 80.6039 112.695 80.6822 111.277 80.7523C108.454 80.887 105.626 81.0011 102.792 81.0945C97.0206 81.2883 91.2199 81.4037 85.4357 81.5068C73.9951 81.6923 62.5503 81.7913 51.1138 82.2324C44.7029 82.4715 38.2962 82.5127 31.8853 82.6529Z" fill="url(#paint1_linear_2626:1524)"/>
<path d="M55.3239 19.1338C54.7873 18.9474 54.2013 18.9621 53.6748 19.175C53.3351 19.2962 53.0246 19.4872 52.7633 19.7357C52.502 19.9842 52.2956 20.2848 52.1576 20.618C52.1549 20.6613 52.1429 20.7035 52.1226 20.7418C52.1023 20.7802 52.074 20.8137 52.0397 20.8403C52.0053 20.8668 51.9657 20.8857 51.9235 20.8957C51.8813 20.9057 51.8374 20.9066 51.7948 20.8983C51.1948 20.8969 50.6158 21.1188 50.1704 21.5208C49.651 21.995 49.651 22.5763 49.5809 23.2565C49.4958 23.2137 49.4019 23.1915 49.3067 23.1915C49.2115 23.1915 49.1176 23.2137 49.0325 23.2565C48.8627 23.3402 48.7081 23.4517 48.5749 23.5863C48.3475 23.769 48.1654 24.0018 48.0431 24.2666C47.8782 24.716 48.0637 25.2107 48.0719 25.6889C48.0748 25.7104 48.073 25.7322 48.0666 25.7528C48.0602 25.7735 48.0494 25.7925 48.0348 25.8085C48.0179 25.8158 47.9997 25.8195 47.9812 25.8195C47.9628 25.8195 47.9446 25.8158 47.9276 25.8085C47.7998 25.7838 47.6844 25.7178 47.5566 25.7054C47.4071 25.7068 47.2627 25.7603 47.1484 25.8566C47.034 25.9529 46.9568 26.0861 46.9299 26.2331C46.8813 26.5284 46.8968 26.8307 46.9753 27.1195C47.0519 27.4085 47.0433 27.7135 46.9506 27.9977C46.8517 28.1844 46.7221 28.353 46.5671 28.4965C46.12 28.9132 45.829 29.4705 45.7426 30.0755C45.7183 30.368 45.7971 30.6596 45.9652 30.9001C46.0516 31.0188 46.1672 31.1131 46.3009 31.1738C46.4346 31.2345 46.5817 31.2595 46.7279 31.2464C47.4123 31.1557 47.6514 30.1951 48.3028 29.9684C48.9542 29.7416 49.6839 28.9748 50.1045 28.3687C50.4425 27.8822 50.7724 27.3174 51.3413 27.1319C51.5285 27.0921 51.7091 27.0254 51.8772 26.934C51.9891 26.8467 52.0818 26.7372 52.1493 26.6124C52.385 26.2651 52.567 25.8843 52.6894 25.4828C52.8956 24.6912 52.6894 23.8007 53.0728 23.071C53.1823 22.8617 53.3348 22.6778 53.5202 22.5315C53.7056 22.3851 53.9198 22.2795 54.1489 22.2217C54.3427 22.1722 54.5612 22.1599 54.7384 22.1063C54.9626 22.0416 55.1744 21.9398 55.3651 21.8053C55.6159 21.6611 55.8316 21.4633 55.997 21.2259C56.1623 20.9886 56.2732 20.7176 56.3216 20.4324C56.3587 19.8511 55.8351 19.3317 55.3239 19.1338Z" fill="#FF681C"/>
<path d="M57.0111 20.1107C57.2171 20.1902 57.3879 20.3405 57.493 20.5348C57.598 20.729 57.6303 20.9543 57.5841 21.1702C57.5136 21.3448 57.4084 21.5033 57.2749 21.6361L56.5287 22.4606L56.2195 21.3145C56.1875 21.0994 56.081 20.9024 55.9185 20.7579C55.8125 20.6972 55.6924 20.6652 55.5702 20.6652C55.4479 20.6652 55.3278 20.6972 55.2218 20.7579C55.0033 20.8692 54.8095 21.0424 54.6157 21.1702C54.5622 21.2032 54.4879 21.2403 54.4302 21.2073C54.3725 21.1743 54.3643 21.0548 54.3931 20.9723C54.7477 19.9911 56.1041 19.719 57.0111 20.1107Z" fill="#FF681C"/>
<path d="M57.5166 51.1262C57.5392 51.5121 57.6675 51.8844 57.8876 52.2022C58.2216 52.6145 58.7781 52.8206 59.2399 53.1216C59.2874 53.1457 59.3291 53.18 59.3618 53.2221C59.3946 53.2641 59.4177 53.3129 59.4295 53.3648C59.4268 53.4151 59.4093 53.4634 59.3792 53.5037C59.3492 53.5441 59.3078 53.5746 59.2605 53.5916C59.1627 53.6192 59.0602 53.6263 58.9595 53.6122C58.4886 53.5383 58.0136 53.4929 57.5372 53.4762C57.2981 53.4762 57.0218 53.5009 56.8693 53.3154C56.7711 53.1582 56.7371 52.9692 56.7745 52.7877C56.8167 52.1058 56.7611 51.4213 56.6096 50.7551C56.559 50.5926 56.5408 50.4217 56.556 50.2522C56.5714 50.1738 56.607 50.1008 56.6594 50.0404C56.7118 49.9801 56.7791 49.9345 56.8546 49.9082C56.93 49.882 57.0111 49.8759 57.0896 49.8907C57.1681 49.9055 57.2414 49.9405 57.3022 49.9924C57.5743 50.2274 57.4836 50.8087 57.5166 51.1262Z" fill="#FCBDBA"/>
<path d="M49.8906 53.6782C49.8347 54.0605 49.8831 54.4508 50.0308 54.8078C50.274 55.2984 50.7811 55.5911 51.1728 55.9787C51.2152 56.0111 51.2496 56.0529 51.2732 56.1008C51.2968 56.1487 51.309 56.2015 51.3088 56.2549C51.2967 56.3035 51.2701 56.3472 51.2325 56.3803C51.195 56.4134 51.1483 56.4344 51.0986 56.4404C50.9981 56.4508 50.8966 56.4381 50.8017 56.4033C50.3537 56.2398 49.8967 56.1022 49.433 55.991C49.198 55.9498 48.9218 55.9086 48.8104 55.7024C48.7429 55.5302 48.7429 55.3387 48.8104 55.1665C48.9894 54.5056 49.0727 53.8226 49.0578 53.1381C49.0411 52.9688 49.0579 52.7979 49.1073 52.6351C49.1383 52.5615 49.188 52.4972 49.2515 52.4488C49.3151 52.4003 49.3902 52.3693 49.4694 52.3589C49.5486 52.3485 49.6292 52.359 49.7031 52.3893C49.777 52.4197 49.8416 52.4689 49.8906 52.532C50.1256 52.8083 49.9195 53.3607 49.8906 53.6782Z" fill="#FCBDBA"/>
<path d="M48.3906 35.1259C48.3906 35.1259 52.3237 40.9637 54.9004 42.7076C54.8509 43.2914 54.8634 43.8787 54.9376 44.4598C55.0695 45.4039 55.5271 46.2326 55.6755 47.1602L56.1703 50.2811C56.1909 50.4213 56.2321 50.5903 56.3681 50.6398C56.4499 50.666 56.5379 50.666 56.6196 50.6398L57.708 50.343C57.6427 48.4677 57.6827 46.5903 57.8276 44.7195C57.9169 43.963 57.9362 43.1998 57.8853 42.4396C57.7039 40.7905 56.3517 39.3187 55.4117 37.9953C54.8469 37.1955 54.2408 35.9999 53.4492 35.3939C52.7896 34.8909 51.8579 35.13 51.0292 35.2125C50.4077 35.2718 49.7807 35.2272 49.1739 35.0805C49.0499 35.0224 48.9133 34.9961 48.7765 35.0041C48.6398 35.012 48.5071 35.0539 48.3906 35.1259Z" fill="#473F47"/>
<path d="M46.8926 35.0887C46.8926 35.0887 48.4221 41.9613 50.1908 44.5257C49.9338 45.0536 49.7307 45.6061 49.5847 46.1748C49.4871 46.6403 49.4305 47.1135 49.4157 47.5889L49.0611 53.3278C49.6092 53.3565 50.158 53.2867 50.6814 53.1216L52.6933 48.063C53.0775 47.2572 53.3042 46.3854 53.3612 45.4945C53.3612 43.7712 51.7121 37.4799 51.5183 37.1624C51.0854 36.4492 50.1331 36.3379 49.3332 36.107C48.7327 35.9373 48.1653 35.6668 47.6553 35.3072C47.4038 35.1505 47.177 34.998 46.8926 35.0887Z" fill="#473F47"/>
<path d="M61.0128 29.7376C61.851 30.1243 62.7811 30.2672 63.6967 30.1498C63.9652 30.0758 64.2467 30.0618 64.5213 30.1086C64.4017 30.2776 64.2863 30.5209 64.4553 30.6652C64.5071 30.699 64.5667 30.7189 64.6284 30.7229C64.8508 30.7515 65.0767 30.7275 65.2881 30.6528C65.3879 30.6033 65.4983 30.5792 65.6097 30.5827C65.7079 30.6071 65.7924 30.6694 65.845 30.7559C65.8975 30.8423 65.9137 30.9461 65.89 31.0445C65.8316 31.2408 65.7023 31.4083 65.5272 31.5145C65.2441 31.702 64.9161 31.8108 64.577 31.8296C64.2379 31.8484 63.8999 31.7767 63.5978 31.6217C63.4246 31.5268 63.2638 31.4073 63.0865 31.3125C62.7455 31.157 62.3849 31.0489 62.0146 30.9909C60.9308 30.7665 59.8655 30.4606 58.8277 30.0756C58.6705 30.0382 58.5226 29.9692 58.3929 29.8728C58.2632 29.7764 58.1544 29.6547 58.0733 29.5149C57.863 28.9955 58.2505 28.1256 58.869 28.4636C59.5863 28.88 60.2336 29.416 61.0128 29.7376Z" fill="#FCBDBA"/>
<path d="M55.8933 26.7774C57.1176 27.5777 58.4833 28.1374 59.9171 28.4265C59.979 28.4265 60.0532 28.4677 60.0697 28.5295C60.0763 28.5716 60.0659 28.6146 60.0408 28.6491C59.748 29.2385 59.3778 29.7862 58.94 30.2776C58.893 30.3399 58.8324 30.3907 58.7628 30.426C58.6943 30.4461 58.6224 30.452 58.5515 30.4435C58.4807 30.435 58.4123 30.4122 58.3505 30.3765C57.4242 30.0055 56.5172 29.5932 55.6295 29.1397C54.8394 28.7932 54.1355 28.2765 53.5681 27.6267C53.2851 27.2894 53.1175 26.8704 53.0898 26.4311C53.0898 25.9446 53.5351 25.0705 54.1494 25.3097C54.4256 25.4169 54.6689 25.759 54.8791 25.9528C55.2 26.2482 55.5387 26.5236 55.8933 26.7774Z" fill="#68E1FD"/>
<path d="M55.8933 26.7774C57.1176 27.5777 58.4833 28.1374 59.9171 28.4265C59.979 28.4265 60.0532 28.4677 60.0697 28.5295C60.0763 28.5716 60.0659 28.6146 60.0408 28.6491C59.748 29.2385 59.3778 29.7862 58.94 30.2776C58.893 30.3399 58.8324 30.3907 58.7628 30.426C58.6943 30.4461 58.6224 30.452 58.5515 30.4435C58.4807 30.435 58.4123 30.4122 58.3505 30.3765C57.4242 30.0055 56.5172 29.5932 55.6295 29.1397C54.8394 28.7932 54.1355 28.2765 53.5681 27.6267C53.2851 27.2894 53.1175 26.8704 53.0898 26.4311C53.0898 25.9446 53.5351 25.0705 54.1494 25.3097C54.4256 25.4169 54.6689 25.759 54.8791 25.9528C55.2 26.2482 55.5387 26.5236 55.8933 26.7774Z" fill="url(#paint2_linear_2626:1524)"/>
<path d="M73.1501 24.3202C73.3704 24.5979 73.5018 24.9356 73.5274 25.2892C73.553 25.6427 73.4715 25.9958 73.2935 26.3024C73.1155 26.6089 72.8493 26.8548 72.5296 27.0079C72.2099 27.161 71.8515 27.2143 71.501 27.1607C71.501 27.1607 69.551 27.2061 69.9921 29.0448L73.7026 33.7695L68.9779 37.48C67.1392 37.9211 67.0938 35.9711 67.0938 35.9711C67.1443 35.621 67.0886 35.2639 66.934 34.9458C66.7795 34.6277 66.5331 34.3632 66.2267 34.1866C65.9203 34.0099 65.568 33.9292 65.2153 33.9548C64.8625 33.9804 64.5256 34.1111 64.2479 34.3301C63.9702 34.5492 63.7646 34.8464 63.6575 35.1835C63.5505 35.5206 63.547 35.882 63.6474 36.2211C63.7478 36.5602 63.9476 36.8614 64.221 37.0858C64.4943 37.3102 64.8287 37.4475 65.1809 37.48C66.8588 38.0324 66.2074 39.665 66.2074 39.665L61.4827 43.3755L51.8809 31.1845L56.5602 27.4741C58.3989 27.0329 58.4443 28.983 58.4443 28.983C58.4005 29.2721 58.4293 29.5675 58.528 29.8428C58.6267 30.118 58.7922 30.3644 59.0098 30.5598C59.2273 30.7552 59.49 30.8935 59.7742 30.9622C60.0584 31.031 60.3552 31.028 60.638 30.9536C60.9208 30.8792 61.1806 30.7356 61.3942 30.5359C61.6078 30.3362 61.7683 30.0865 61.8615 29.8094C61.9547 29.5322 61.9775 29.2362 61.9279 28.9481C61.8784 28.6599 61.758 28.3885 61.5776 28.1584C61.4272 27.9694 61.2401 27.8127 61.0275 27.698C60.8149 27.5832 60.5813 27.5126 60.3407 27.4906C58.6793 26.9422 59.3307 25.2931 59.3307 25.2931L64.1007 21.5291L67.8112 26.2578C67.8112 26.2578 69.4603 26.9092 69.9962 25.2313C70.0316 24.8799 70.1714 24.5472 70.3975 24.2759C70.6237 24.0047 70.9258 23.8073 71.2651 23.7093C71.6044 23.6113 71.9652 23.6171 72.3012 23.726C72.6371 23.8348 72.9328 24.0418 73.1501 24.3202Z" fill="#68E1FD"/>
<path d="M73.1501 24.3202C73.3704 24.5979 73.5018 24.9356 73.5274 25.2892C73.553 25.6427 73.4715 25.9958 73.2935 26.3024C73.1155 26.6089 72.8493 26.8548 72.5296 27.0079C72.2099 27.161 71.8515 27.2143 71.501 27.1607C71.501 27.1607 69.551 27.2061 69.9921 29.0448L73.7026 33.7695L68.9779 37.48C67.1392 37.9211 67.0938 35.9711 67.0938 35.9711C67.1443 35.621 67.0886 35.2639 66.934 34.9458C66.7795 34.6277 66.5331 34.3632 66.2267 34.1866C65.9203 34.0099 65.568 33.9292 65.2153 33.9548C64.8625 33.9804 64.5256 34.1111 64.2479 34.3301C63.9702 34.5492 63.7646 34.8464 63.6575 35.1835C63.5505 35.5206 63.547 35.882 63.6474 36.2211C63.7478 36.5602 63.9476 36.8614 64.221 37.0858C64.4943 37.3102 64.8287 37.4475 65.1809 37.48C66.8588 38.0324 66.2074 39.665 66.2074 39.665L61.4827 43.3755L51.8809 31.1845L56.5602 27.4741C58.3989 27.0329 58.4443 28.983 58.4443 28.983C58.4005 29.2721 58.4293 29.5675 58.528 29.8428C58.6267 30.118 58.7922 30.3644 59.0098 30.5598C59.2273 30.7552 59.49 30.8935 59.7742 30.9622C60.0584 31.031 60.3552 31.028 60.638 30.9536C60.9208 30.8792 61.1806 30.7356 61.3942 30.5359C61.6078 30.3362 61.7683 30.0865 61.8615 29.8094C61.9547 29.5322 61.9775 29.2362 61.9279 28.9481C61.8784 28.6599 61.758 28.3885 61.5776 28.1584C61.4272 27.9694 61.2401 27.8127 61.0275 27.698C60.8149 27.5832 60.5813 27.5126 60.3407 27.4906C58.6793 26.9422 59.3307 25.2931 59.3307 25.2931L64.1007 21.5291L67.8112 26.2578C67.8112 26.2578 69.4603 26.9092 69.9962 25.2313C70.0316 24.8799 70.1714 24.5472 70.3975 24.2759C70.6237 24.0047 70.9258 23.8073 71.2651 23.7093C71.6044 23.6113 71.9652 23.6171 72.3012 23.726C72.6371 23.8348 72.9328 24.0418 73.1501 24.3202Z" fill="url(#paint3_linear_2626:1524)"/>
<path d="M57.5384 35.0722C58.5485 35.8968 59.5998 36.7832 60.8366 36.9976C61.0746 37.0509 61.3208 37.0561 61.5608 37.0129C61.8008 36.9697 62.0298 36.879 62.2342 36.7461C62.3048 36.7041 62.3622 36.6433 62.4001 36.5705C62.438 36.4976 62.4548 36.4157 62.4486 36.3338C62.4033 36.1318 62.1559 36.0617 61.9539 36.0246C61.009 35.8954 60.1018 35.5696 59.2906 35.0681C58.9897 34.8552 58.7045 34.621 58.4372 34.3673L56.4294 32.578C56.4049 32.5482 56.374 32.5242 56.3391 32.5078C56.3041 32.4914 56.266 32.483 56.2274 32.4832C56.1449 32.4832 56.0955 32.578 56.0583 32.6522C55.9339 32.9054 55.8398 33.1725 55.778 33.4479C55.7162 33.7488 55.778 33.7901 56.0377 33.9632C56.5572 34.315 57.0574 34.6847 57.5384 35.0722Z" fill="url(#paint4_linear_2626:1524)"/>
<path d="M58.4698 33.5634C59.1684 34.1746 60.0262 34.5749 60.9434 34.7177C61.2163 34.7214 61.4851 34.7847 61.7309 34.9032C61.5619 35.0311 61.3805 35.2496 61.5083 35.4186C61.5493 35.4656 61.6019 35.5012 61.6608 35.5217C61.8663 35.6094 62.0891 35.6488 62.3122 35.6371C62.4226 35.6203 62.5354 35.6287 62.642 35.6618C62.6851 35.687 62.7228 35.7204 62.753 35.7601C62.7831 35.7998 62.8052 35.8451 62.8178 35.8933C62.8304 35.9416 62.8334 35.9919 62.8266 36.0413C62.8198 36.0907 62.8033 36.1383 62.7781 36.1813C62.6704 36.356 62.4988 36.4817 62.2998 36.5317C61.976 36.6338 61.6308 36.6472 61.3001 36.5703C60.9694 36.4934 60.6654 36.3292 60.4199 36.0947C60.2756 35.9546 60.156 35.7938 60.0076 35.6577C59.724 35.413 59.4076 35.209 59.0676 35.0517C58.0898 34.5321 57.1527 33.9395 56.2641 33.2789C56.1239 33.1993 56.0012 33.0922 55.9034 32.9639C55.8056 32.8357 55.7348 32.689 55.6952 32.5327C55.6375 31.972 56.2518 31.2422 56.7547 31.7452C57.3402 32.3389 57.8143 33.0192 58.4698 33.5634Z" fill="#FCBDBA"/>
<path d="M46.8927 35.9708C46.9666 36.0593 47.0596 36.1298 47.1648 36.177C47.5797 36.4136 48.0109 36.6203 48.4552 36.7954C49.6098 37.2087 50.8737 37.1985 52.0214 36.7665C52.4806 36.6012 52.9117 36.3662 53.2995 36.0698C53.4466 35.9696 53.5703 35.8388 53.6623 35.6864C53.7717 35.4378 53.8061 35.1627 53.7612 34.8948C53.6581 33.5054 53.5056 32.0707 53.7612 30.7226C53.8434 30.2594 53.9818 29.8081 54.1735 29.3786C54.5073 28.7924 54.7835 28.1752 54.998 27.5357C55.0716 27.1427 55.0584 26.7383 54.9594 26.351C54.8604 25.9636 54.678 25.6025 54.425 25.2929C53.889 24.6085 52.9078 24.0025 52.042 24.3117C51.042 24.6885 50.1746 25.3509 49.5478 26.2164C48.8642 27.1857 48.3228 28.2477 47.9399 29.3703C47.775 29.8114 47.6142 30.2526 47.4864 30.7061C47.2134 31.8031 47.0369 32.9219 46.9587 34.0496C46.9133 34.5196 46.8721 34.9896 46.8226 35.4596C46.7837 35.6329 46.8086 35.8144 46.8927 35.9708Z" fill="#68E1FD"/>
<path d="M52.0227 36.7666C52.482 36.6013 52.913 36.3663 53.3008 36.0699C53.4479 35.9696 53.5717 35.8389 53.6636 35.6864C53.773 35.4379 53.8074 35.1627 53.7625 34.8949C53.6595 33.5055 53.5069 32.0708 53.7625 30.7226C53.5976 30.5577 53.4121 30.4093 53.2307 30.2609C52.8184 29.9228 52.2248 29.2549 51.627 29.3003C51.7712 29.9311 51.8867 30.5742 51.9733 31.2174C52.0598 31.8605 52.0269 32.5284 52.1299 33.1633C52.2667 34.2867 52.2403 35.424 52.0516 36.5398C52.0341 36.6142 52.0244 36.6902 52.0227 36.7666Z" fill="url(#paint5_linear_2626:1524)"/>
<path d="M57.039 31.3989C57.0712 31.4153 57.0998 31.438 57.1232 31.4656C57.1465 31.4932 57.1641 31.5252 57.175 31.5597C57.1762 31.6282 57.1511 31.6946 57.1049 31.7452C56.7303 32.2739 56.2605 32.7282 55.7197 33.0851C55.6675 33.1266 55.6046 33.1523 55.5383 33.1593C55.4622 33.1512 55.3911 33.1178 55.3363 33.0645C54.5117 32.4337 53.6872 31.8277 52.8832 31.168C52.3633 30.7991 51.9043 30.3512 51.5227 29.8405C51.2424 29.3795 51.0286 28.8812 50.8878 28.3604C50.3972 26.8144 51.8814 26.1424 52.875 27.2761C54.186 28.7768 55.3816 30.2404 57.039 31.3989Z" fill="#68E1FD"/>
<path d="M56.837 53.3732C56.8154 53.322 56.8079 53.266 56.8152 53.211C56.8224 53.1559 56.8442 53.1038 56.8782 53.0599C56.9689 52.9733 57.1173 53.0146 57.2327 53.0599C57.4877 53.1835 57.7542 53.2816 58.0284 53.3526C58.3046 53.4253 58.5979 53.3945 58.853 53.266C58.9932 53.1836 59.1292 53.0599 59.29 53.0723C59.371 53.0844 59.4483 53.1139 59.5167 53.1588C59.7643 53.2872 60.0298 53.3775 60.3042 53.4268C60.4196 53.4366 60.5312 53.4734 60.6299 53.534C60.6597 53.555 60.6815 53.5856 60.6917 53.6206C60.6917 53.7031 60.6134 53.7649 60.5351 53.7938C59.6775 54.1277 58.7169 54.004 57.8017 53.9051C57.6991 53.8906 57.595 53.8906 57.4925 53.9051C57.3399 53.9339 57.1544 54.0123 57.0266 53.9051C56.9172 53.7478 56.8517 53.5642 56.837 53.3732Z" fill="#473F47"/>
<path d="M48.6936 55.7231C48.6801 55.6697 48.6803 55.6139 48.694 55.5606C48.7076 55.5073 48.7344 55.4583 48.7719 55.418C48.875 55.3438 49.0151 55.418 49.1265 55.4633C49.366 55.6157 49.6185 55.7468 49.8809 55.855C50.1469 55.9539 50.4395 55.9539 50.7055 55.855C50.8539 55.7932 51.0023 55.686 51.1631 55.7189C51.2411 55.7418 51.3139 55.7796 51.3775 55.8303C51.6045 55.9965 51.8563 56.1259 52.1237 56.2137C52.2385 56.2374 52.3459 56.2883 52.437 56.3621C52.4504 56.3733 52.4613 56.3872 52.4691 56.4028C52.4769 56.4184 52.4814 56.4354 52.4824 56.4528C52.4824 56.5353 52.3917 56.5847 52.3092 56.6053C51.4146 56.8321 50.4787 56.6053 49.5841 56.3786C49.4836 56.3494 49.3795 56.3342 49.2749 56.3332C49.1223 56.3332 48.9286 56.3992 48.8131 56.259C48.7296 56.093 48.6886 55.9089 48.6936 55.7231Z" fill="#473F47"/>
<path d="M56.3287 22.9389C56.2586 23.1657 56.1885 23.3924 56.1308 23.6233C56.0654 23.9676 55.9744 24.3066 55.8587 24.6375C55.8 24.8025 55.7061 24.9528 55.5837 25.078C55.4613 25.2033 55.3132 25.3005 55.1496 25.3631C54.9827 25.4164 54.8018 25.4033 54.6443 25.3265C54.4869 25.2497 54.3651 25.1151 54.3044 24.9508C54.1065 24.9962 54.0365 25.2394 54.0406 25.4455C54.0737 25.6472 54.0359 25.8541 53.9334 26.031C53.7479 26.2495 53.3851 26.1588 53.1418 26.0021C52.7736 25.754 52.4873 25.4021 52.3192 24.9911C52.1511 24.5801 52.1088 24.1284 52.1977 23.6934C52.3997 22.774 52.3915 21.6732 52.9151 20.8775C53.1032 20.609 53.3429 20.3806 53.6201 20.2055C53.863 20.0276 54.1464 19.9129 54.4446 19.8716C54.6534 19.8593 54.8629 19.876 55.0671 19.921C55.9412 20.0695 56.6833 20.1973 56.6874 21.1991C56.6606 21.7943 56.5395 22.3816 56.3287 22.9389Z" fill="#FCBDBA"/>
<path d="M55.2535 21.3187C55.1174 21.3187 54.9608 21.2857 54.8412 21.3682C54.7216 21.4506 54.7134 21.6361 54.6392 21.7804C54.4949 22.0484 54.128 22.0855 53.8518 22.2257C53.6844 22.3152 53.5451 22.4492 53.4491 22.6129C53.353 22.7766 53.3041 22.9636 53.3075 23.1533C53.3129 23.0319 53.2828 22.9116 53.221 22.807C53.2045 22.7822 53.1831 22.7611 53.1582 22.7448C53.1332 22.7286 53.1052 22.7176 53.0759 22.7126C53.0465 22.7076 53.0165 22.7086 52.9875 22.7157C52.9586 22.7227 52.9314 22.7355 52.9076 22.7534C52.8705 22.7975 52.8487 22.8525 52.8458 22.9101C52.8346 23.0278 52.8537 23.1465 52.9013 23.2547C52.949 23.363 53.0235 23.4572 53.1179 23.5285C53.0323 23.7053 52.8979 23.8539 52.7307 23.9569C52.5634 24.0599 52.3702 24.1129 52.1738 24.1098C52.0497 24.1128 51.9285 24.0719 51.8316 23.9944C51.7706 23.9316 51.7254 23.8553 51.6997 23.7717C51.4647 23.1121 51.8234 22.4071 51.9099 21.7104C51.9182 21.4643 51.9584 21.2204 52.0295 20.9848C52.1059 20.8183 52.2105 20.6663 52.3387 20.5354C52.7235 20.0732 53.2329 19.7312 53.8064 19.55C54.3588 19.3975 55.4555 19.4758 55.8884 19.9128C55.9866 20.0379 56.0487 20.1875 56.0679 20.3453C56.087 20.5032 56.0625 20.6633 55.9971 20.8082C55.9316 20.9532 55.8277 21.0774 55.6966 21.1674C55.5655 21.2574 55.4122 21.3097 55.2535 21.3187Z" fill="#FF681C"/>
<path d="M55.0098 83.9063V76.1927C56.024 73.9911 58.0235 75.4918 58.0235 75.4918C58.3357 75.8189 58.7386 76.0451 59.1805 76.1411C59.6224 76.2371 60.0829 76.1985 60.5026 76.0304C60.9224 75.8622 61.2821 75.5722 61.5356 75.1977C61.789 74.8233 61.9244 74.3814 61.9244 73.9293C61.9244 73.4771 61.789 73.0353 61.5356 72.6608C61.2821 72.2863 60.9224 71.9963 60.5026 71.8282C60.0829 71.66 59.6224 71.6215 59.1805 71.7175C58.7386 71.8135 58.3357 72.0396 58.0235 72.3667C56.1353 73.6036 55.0098 71.6659 55.0098 71.6659V63.9481H62.7234C62.7234 63.9481 64.6776 62.8226 63.4243 60.9344C63.0972 60.6222 62.871 60.2192 62.775 59.7773C62.679 59.3355 62.7176 58.875 62.8857 58.4552C63.0539 58.0355 63.3439 57.6757 63.7183 57.4223C64.0928 57.1689 64.5346 57.0334 64.9868 57.0334C65.439 57.0334 65.8808 57.1689 66.2553 57.4223C66.6298 57.6757 66.9198 58.0355 67.0879 58.4552C67.2561 58.875 67.2946 59.3355 67.1986 59.7773C67.1026 60.2192 66.8765 60.6222 66.5493 60.9344C66.5493 60.9344 65.0487 62.9339 67.2502 63.9481H74.9639V83.9063H55.0098Z" fill="url(#paint6_linear_2626:1524)"/>
<path d="M40.2294 83.494H38.8359L53.1007 45.8285C53.1486 45.7069 53.2321 45.6026 53.3402 45.5291C53.4483 45.4555 53.576 45.4162 53.7067 45.4163C53.8122 45.4161 53.9162 45.4416 54.0097 45.4905C54.1033 45.5394 54.1835 45.6103 54.2435 45.6971C54.3035 45.7839 54.3416 45.884 54.3544 45.9888C54.3671 46.0935 54.3543 46.1998 54.3169 46.2985L40.2294 83.494Z" fill="#68E1FD"/>
<path d="M48.5869 83.4939H47.1934L61.6147 45.408H63.0082L48.5869 83.4939Z" fill="#68E1FD"/>
<path d="M59.3637 51.3572H51.9922L52.3632 50.376H59.7347L59.3637 51.3572Z" fill="#68E1FD"/>
<path d="M57.0961 57.3394H49.7246L50.0998 56.3582H57.4713L57.0961 57.3394Z" fill="#68E1FD"/>
<path d="M54.8344 63.3213H47.4629L47.8339 62.3359H55.2054L54.8344 63.3213Z" fill="#68E1FD"/>
<path d="M52.5707 69.2993H45.1992L45.5703 68.3181H52.9417L52.5707 69.2993Z" fill="#68E1FD"/>
<path d="M50.3031 75.2815H42.9316L43.3068 74.3003H50.6742L50.3031 75.2815Z" fill="#68E1FD"/>
<path d="M52.3998 51.3572L50.5033 56.3581H57.4831L57.1121 57.3393H50.1446L48.2523 62.3361H55.2156L54.8446 63.3173H47.8689L45.9765 68.3182H52.9481L52.5771 69.2994H45.6055L43.709 74.3003H50.6765L50.3013 75.2815H43.338L40.2294 83.494H38.8359L53.1007 45.8286C53.1626 45.6993 53.2655 45.5941 53.3933 45.5293C53.5211 45.4644 53.6667 45.4435 53.8076 45.4698C53.9485 45.4961 54.0768 45.5681 54.1726 45.6747C54.2684 45.7813 54.3263 45.9166 54.3375 46.0595C54.3375 46.1382 54.3235 46.2164 54.2963 46.2903L52.7502 50.376H59.7136L59.3425 51.3572H52.3998Z" fill="url(#paint7_linear_2626:1524)"/>
<path d="M48.5869 83.4939H47.1934L61.6147 45.408H63.0082L48.5869 83.4939Z" fill="url(#paint8_linear_2626:1524)"/>
<path d="M117.722 50.9284C117.516 51.1026 117.27 51.2218 117.005 51.2747C116.762 51.2849 116.52 51.2413 116.296 51.1469L112.866 50.0049C112.607 50.2068 112.434 50.4994 112.382 50.8238C112.33 51.1481 112.402 51.4802 112.585 51.753C112.922 52.1213 113.359 52.3823 113.843 52.5033L116.197 53.3485C116.74 53.6023 117.333 53.7321 117.933 53.7286C118.533 53.725 119.124 53.5881 119.664 53.3278C120.365 53.0928 121.136 52.8001 121.474 52.1405C121.812 51.4809 121.565 50.6068 121.664 49.8359C121.794 49.3462 121.886 48.8473 121.94 48.3434C121.94 47.9106 121.585 47.2592 121.07 47.3499C120.625 47.4282 120.328 48.2033 120.093 48.529C119.43 49.4456 118.631 50.2548 117.722 50.9284Z" fill="white"/>
<path d="M112.435 49.811C112.4 49.7183 112.345 49.634 112.275 49.5637C112.24 49.5283 112.196 49.504 112.147 49.4938C112.099 49.4835 112.048 49.4877 112.002 49.5059C111.957 49.5336 111.921 49.5735 111.898 49.6209C111.875 49.6683 111.865 49.7214 111.871 49.7739C111.874 49.7925 111.873 49.8116 111.869 49.83C111.865 49.8485 111.857 49.8658 111.846 49.8811C111.821 49.9058 111.776 49.8811 111.739 49.8811C111.351 49.8069 110.955 49.7492 110.559 49.708C110.517 49.6995 110.473 49.7026 110.432 49.7172C110.391 49.7317 110.355 49.757 110.328 49.7905C110.3 49.8239 110.282 49.8642 110.276 49.907C110.27 49.9499 110.275 49.9936 110.292 50.0336C110.335 50.1649 110.4 50.2877 110.485 50.3965C110.687 50.7263 110.762 51.1592 111.083 51.3735C111.28 51.4885 111.508 51.5363 111.734 51.5096C111.961 51.5096 112.184 51.456 112.411 51.4684C112.56 51.5004 112.717 51.4831 112.856 51.4189C112.908 51.38 112.949 51.3287 112.976 51.2695C113.002 51.2104 113.014 51.1455 113.008 51.0808C112.985 50.8772 112.912 50.6821 112.798 50.5119C112.67 50.2893 112.551 50.0501 112.435 49.811Z" fill="#FDB9A9"/>
<path d="M122.001 75.6319C120.69 75.3351 120.946 77.1945 120.6 77.8871C120.38 78.2428 120.101 78.558 119.775 78.8188C119.454 79.0864 119.243 79.4642 119.186 79.8784C119.178 79.9554 119.194 80.0331 119.231 80.101C119.298 80.1826 119.391 80.238 119.495 80.2577C120.244 80.4765 121.05 80.3968 121.742 80.035C122.066 79.8821 122.335 79.6331 122.513 79.3218C122.656 78.9862 122.724 78.6229 122.71 78.2581C122.752 77.483 123.098 75.8752 122.001 75.6319Z" fill="#FDB9A9"/>
<path d="M120.838 79.4661C120.838 79.4661 117.103 79.6269 118.686 80.7977C120.269 81.9686 122.631 80.5132 122.862 80.2453C123.093 79.9773 122.904 79.5197 122.904 79.5197L120.838 79.4661Z" fill="#68E1FD"/>
<path d="M122.697 79.9813C122.367 80.3936 120.611 80.9337 119.831 80.876C119.052 80.8183 118.355 80.4637 118.434 79.9566C118.512 79.4495 119.881 78.2828 120.141 78.2869C120.4 78.291 120.602 78.8888 121.122 79.0125C121.354 79.051 121.592 79.0295 121.814 78.9501C122.035 78.8708 122.233 78.7361 122.387 78.559C122.434 78.497 122.5 78.4524 122.574 78.4322C122.649 78.412 122.728 78.4175 122.8 78.4477C122.908 78.6925 122.956 78.96 122.938 79.2272C122.92 79.4945 122.837 79.7533 122.697 79.9813Z" fill="white"/>
<path d="M126.507 76.3657C125.196 76.0607 125.451 77.9241 125.105 78.6126C124.886 78.9696 124.607 79.2862 124.281 79.5485C123.959 79.8146 123.749 80.191 123.691 80.6039C123.684 80.6823 123.7 80.761 123.736 80.8307C123.804 80.9109 123.897 80.9661 124 80.9873C124.75 81.2045 125.555 81.1248 126.247 80.7647C126.571 80.609 126.839 80.3589 127.018 80.0474C127.161 79.713 127.229 79.3512 127.216 78.9878C127.257 78.2045 127.604 76.6007 126.507 76.3657Z" fill="#FDB9A9"/>
<path d="M125.344 80.1833C125.344 80.1833 121.609 80.34 123.192 81.5191C124.775 82.6982 127.137 81.2305 127.368 80.9625C127.599 80.6946 127.409 80.2369 127.409 80.2369L125.344 80.1833Z" fill="#68E1FD"/>
<path d="M127.205 80.6906C126.875 81.1029 125.118 81.6471 124.339 81.5894C123.56 81.5316 122.863 81.1771 122.942 80.67C123.02 80.1629 124.389 78.9962 124.648 79.0209C124.908 79.0456 125.11 79.6228 125.63 79.7424C125.861 79.7818 126.099 79.7611 126.321 79.6825C126.543 79.6038 126.74 79.4697 126.895 79.293C126.941 79.2304 127.007 79.1854 127.082 79.1651C127.157 79.1449 127.236 79.1507 127.308 79.1817C127.412 79.4232 127.457 79.6862 127.439 79.9487C127.421 80.2112 127.341 80.4656 127.205 80.6906Z" fill="white"/>
<path d="M123.123 59.4087L124.879 77.8951L127.411 77.5818C128.413 73.0715 128.165 59.5777 128.165 59.5777L123.123 59.4087Z" fill="#473F47"/>
<path d="M124.879 58.9099L123.122 77.3922L120.583 77.0789C119.136 65.3868 120.331 58.1143 120.331 58.1143L124.879 58.9099Z" fill="#473F47"/>
<path d="M120.563 52.2271C120.53 51.889 120.439 51.551 120.406 51.2046C120.324 50.5081 120.336 49.8035 120.444 49.1103C120.563 48.3706 120.786 47.6516 121.107 46.9747C121.396 46.3893 121.932 46.1501 122.517 45.8451C123.015 45.5773 123.555 45.3948 124.113 45.305C124.506 45.2691 124.902 45.2913 125.288 45.3709C126.483 45.5977 128.054 46.1955 128.87 47.1561C129.485 47.8611 129.555 48.8753 129.575 49.8111C129.6 51.1016 129.575 52.392 129.493 53.6824C129.493 53.8679 129.472 54.0535 129.456 54.2431C129.389 55.6787 129.172 57.1033 128.809 58.4937C128.74 58.9281 128.505 59.3186 128.153 59.5821C127.217 60.1263 125.791 59.8253 124.781 59.6851C123.441 59.4955 122.068 59.2976 120.881 58.6462C120.634 58.5405 120.435 58.3484 120.32 58.1061C120.261 57.801 120.3 57.4849 120.431 57.2032C120.843 55.884 120.522 54.4946 120.522 53.1465C120.522 52.9032 120.551 52.6558 120.551 52.4085C120.563 52.3508 120.563 52.2889 120.563 52.2271Z" fill="white"/>
<path d="M124.767 54.6143C125.085 54.812 125.435 54.9516 125.802 55.0265C126.895 55.344 128.016 55.513 129.1 55.8511C129.174 55.8654 129.242 55.8996 129.298 55.95C129.343 56.0184 129.363 56.0997 129.356 56.1809C129.361 56.4985 129.314 56.8147 129.216 57.1168C129.184 57.2676 129.097 57.4013 128.972 57.4919C128.814 57.5496 128.64 57.5496 128.482 57.4919L124.396 56.6262C124.104 56.5515 123.803 56.5155 123.502 56.519C123.144 56.5606 122.794 56.6479 122.459 56.7787C121.832 56.9794 121.187 57.1175 120.533 57.191C120.568 56.4111 120.663 55.6351 120.818 54.8699C120.878 54.6437 120.963 54.4251 121.073 54.2185C121.205 54.0144 121.36 53.8263 121.535 53.6578C122.195 52.9693 122.652 52.1076 123.32 51.4191C123.671 51.0563 124.108 50.8255 124.417 50.4379C124.541 50.2813 125.612 48.9331 125.509 48.7888C125.716 49.0444 126.227 48.7888 126.412 49.0527C126.528 49.2176 126.412 49.4402 126.305 49.6092C125.515 50.932 124.964 52.3833 124.677 53.8969C124.594 54.2473 124.47 54.371 124.767 54.6143Z" fill="url(#paint9_linear_2626:1524)"/>
<path d="M121.436 37.6902C121.815 37.9338 122.113 38.2849 122.291 38.6986C122.469 39.1124 122.52 39.5699 122.437 40.0127C122.354 40.4554 122.14 40.8633 121.824 41.184C121.507 41.5047 121.102 41.7237 120.661 41.813C120.661 41.813 118.319 42.6953 119.634 44.7319L126.14 48.8753L122.017 55.381C119.981 56.6961 119.098 54.3544 119.098 54.3544C119.01 53.9123 118.791 53.5068 118.47 53.1902C118.149 52.8735 117.74 52.6601 117.297 52.5775C116.854 52.4949 116.396 52.5468 115.983 52.7265C115.569 52.9063 115.219 53.2057 114.977 53.5861C114.735 53.9666 114.612 54.4108 114.625 54.8615C114.637 55.3123 114.785 55.7489 115.047 56.1153C115.31 56.4817 115.677 56.7611 116.099 56.9175C116.522 57.0739 116.982 57.1002 117.42 56.993C119.688 56.9476 119.589 59.2028 119.589 59.2028L115.466 65.7085L98.6289 54.9893L102.731 48.5413C104.768 47.2303 105.65 49.5679 105.65 49.5679C105.737 50.0117 105.956 50.4191 106.277 50.7376C106.598 51.0561 107.007 51.2712 107.451 51.355C107.896 51.4388 108.355 51.3875 108.77 51.2078C109.185 51.0281 109.537 50.7282 109.78 50.3467C110.023 49.9653 110.146 49.5198 110.133 49.0677C110.121 48.6156 109.973 48.1776 109.709 47.8103C109.445 47.443 109.077 47.1631 108.653 47.0068C108.228 46.8505 107.767 46.825 107.328 46.9335C105.06 46.9788 105.163 44.7237 105.163 44.7237L109.344 38.152L115.854 42.2995C115.854 42.2995 118.109 42.3984 118.064 40.1309C117.992 39.8331 117.98 39.5239 118.03 39.2215C118.079 38.9191 118.189 38.6298 118.352 38.3705C118.677 37.8785 119.18 37.5323 119.756 37.4053C120.332 37.2783 120.934 37.3805 121.436 37.6902Z" fill="#68E1FD"/>
<path d="M131.476 51.0191C131.645 51.3133 131.783 51.6242 131.888 51.9467C132.022 52.512 132.036 53.0989 131.93 53.67C131.88 54.2298 131.679 54.7656 131.348 55.2202C130.652 56.0447 129.406 56.123 128.326 56.02C127.1 55.9068 125.889 55.6636 124.715 55.2944C124.606 55.2698 124.503 55.222 124.414 55.1542C124.319 55.0465 124.253 54.9157 124.224 54.7749C124.134 54.4332 124.075 54.0841 124.047 53.7318C125.284 53.3773 126.652 53.6659 127.943 53.4762C128.031 53.4759 128.117 53.4545 128.195 53.4139C128.273 53.3734 128.341 53.3148 128.391 53.243C128.442 53.1712 128.475 53.0883 128.488 53.0013C128.5 52.9142 128.491 52.8254 128.462 52.7424C128.4 52.0168 127.951 51.3819 127.741 50.681C127.535 50.0065 127.552 49.2835 127.79 48.6196C127.861 48.3857 127.982 48.1698 128.144 47.9869C128.307 47.804 128.506 47.6584 128.73 47.5601C129.246 47.391 129.444 47.7951 129.728 48.1744C130.383 49.0763 130.967 50.0274 131.476 51.0191Z" fill="white"/>
<path d="M123.53 53.27C123.482 53.2304 123.423 53.2048 123.361 53.1958C123.314 53.2007 123.269 53.2182 123.23 53.2465C123.192 53.2748 123.162 53.3128 123.143 53.3566C123.107 53.4455 123.065 53.5322 123.019 53.6163C122.957 53.6851 122.881 53.739 122.795 53.7739C122.709 53.8089 122.617 53.8241 122.524 53.8183C122.339 53.7998 122.153 53.7998 121.968 53.8183C121.899 53.8323 121.835 53.8636 121.782 53.909C121.732 53.9587 121.696 54.0215 121.679 54.0904C121.648 54.2305 121.652 54.3762 121.691 54.5143C121.729 54.6525 121.802 54.7789 121.902 54.882C122.103 55.0861 122.351 55.2388 122.623 55.3273C122.902 55.4501 123.21 55.4874 123.51 55.4345C123.674 55.3867 123.831 55.3159 123.976 55.2242L124.577 54.8903C124.628 54.8665 124.673 54.8328 124.709 54.7913C124.841 54.6264 124.66 54.1317 124.54 53.9668C124.239 53.6865 123.899 53.4517 123.53 53.27Z" fill="#FDB9A9"/>
<path d="M123.126 43.4331C123.126 43.0785 123.155 42.7198 123.192 42.3735C123.229 42.0272 123.274 41.7551 123.332 41.45C123.336 41.3597 123.359 41.2713 123.4 41.1909C123.442 41.1105 123.5 41.04 123.571 40.9841C124.048 40.6996 124.595 40.5566 125.15 40.5719C125.36 40.5571 125.57 40.5861 125.768 40.6571C125.967 40.7281 126.148 40.8394 126.3 40.9841C126.486 41.2209 126.597 41.5082 126.618 41.8087C126.637 42.589 126.559 43.3686 126.387 44.1298C126.3 44.7275 126.268 45.332 126.292 45.9356C126 46.1298 125.664 46.2488 125.315 46.2819C125.152 46.2803 124.991 46.2539 124.837 46.2035C124.751 46.1841 124.675 46.1343 124.622 46.0634C124.604 45.9973 124.604 45.9274 124.622 45.8614C124.626 45.7982 124.626 45.7349 124.622 45.6717C124.646 45.3186 124.64 44.9641 124.602 44.6122C124.602 44.5969 124.6 44.5816 124.594 44.5674C124.588 44.5531 124.58 44.5403 124.569 44.5297C124.546 44.5215 124.521 44.5215 124.499 44.5297H124.4C124.224 44.5483 124.047 44.5483 123.872 44.5297C123.661 44.509 123.465 44.4123 123.32 44.2576C123.152 44.0176 123.083 43.7226 123.126 43.4331Z" fill="#FDB9A9"/>
<path d="M123.861 41.174C123.737 41.174 123.626 41.24 123.519 41.174C123.407 41.0811 123.308 40.9728 123.226 40.8524C123.029 40.5912 122.933 40.2678 122.954 39.9413C122.962 39.7936 123.01 39.6508 123.094 39.529C123.186 39.4182 123.303 39.3318 123.436 39.2775C123.692 39.1516 123.977 39.0961 124.261 39.1168C124.673 39.1703 125.057 39.3537 125.358 39.6403C125.421 39.7064 125.499 39.7572 125.584 39.7888C125.663 39.8053 125.745 39.8053 125.824 39.7888C126.345 39.7448 126.864 39.9044 127.271 40.234C127.502 40.436 127.683 40.6958 127.922 40.873C128.161 41.0503 128.396 41.1163 128.52 41.343C128.572 41.4484 128.592 41.5663 128.58 41.683C128.568 41.7997 128.522 41.9105 128.45 42.0027C128.296 42.1835 128.085 42.3058 127.852 42.349C127.878 42.4161 127.89 42.4876 127.887 42.5593C127.885 42.6311 127.868 42.7017 127.838 42.7669C127.808 42.8322 127.766 42.8908 127.713 42.9394C127.66 42.988 127.598 43.0255 127.53 43.0499C127.435 43.0644 127.343 43.095 127.258 43.1406C127.201 43.1859 127.176 43.256 127.118 43.3013C126.982 43.4127 126.805 43.4498 126.747 43.6394C126.73 43.7193 126.723 43.801 126.726 43.8827C126.716 44.0036 126.667 44.118 126.586 44.2084C126.533 44.2661 126.438 44.4104 126.36 44.4269C126.281 44.4434 126.211 44.3485 126.186 44.2661C126.09 43.9165 126.114 43.5444 126.256 43.2106C126.358 43.0495 126.418 42.8651 126.43 42.6747C126.43 42.485 126.158 42.3366 126.017 42.4479C125.877 42.5593 125.869 42.8272 125.72 42.7736C125.813 42.5072 125.806 42.2165 125.701 41.9546C125.597 41.6927 125.402 41.4771 125.152 41.3472C124.874 41.2622 124.584 41.2219 124.294 41.2276C124.158 41.199 124.02 41.1838 123.882 41.1823L123.861 41.174Z" fill="#473F47"/>
<path d="M124.4 44.5381C124.81 44.4602 125.21 44.3414 125.596 44.1836C125.631 44.5085 125.553 44.8354 125.375 45.1095C125.197 45.3835 124.93 45.588 124.619 45.6884C124.65 45.3359 124.65 44.9813 124.619 44.6288C124.618 44.5982 124.607 44.5688 124.586 44.5464C124.563 44.5382 124.538 44.5382 124.516 44.5464H124.421L124.4 44.5381Z" fill="#DE9F93"/>
<path d="M111.492 47.5025C111.555 47.5921 111.595 47.6952 111.61 47.8034C111.625 47.9115 111.614 48.0218 111.579 48.125C111.507 48.3314 111.403 48.525 111.27 48.6981L110.622 49.6545C110.453 49.9019 110.21 50.1823 109.926 50.1575C109.216 50.1081 108.903 48.2693 109.167 47.7251C109.472 47.0448 111.026 46.9212 111.492 47.5025Z" fill="#FDB9A9"/>
<path d="M114.831 63.9481V83.9063H94.877V76.1885C94.877 76.1885 96.0025 74.2344 97.8907 75.4877C98.2028 75.8148 98.6058 76.0409 99.0477 76.1369C99.4896 76.2329 99.9501 76.1944 100.37 76.0263C100.79 75.8581 101.149 75.5681 101.403 75.1936C101.656 74.8191 101.792 74.3773 101.792 73.9251C101.792 73.473 101.656 73.0312 101.403 72.6567C101.149 72.2822 100.79 71.9922 100.37 71.824C99.9501 71.6559 99.4896 71.6174 99.0477 71.7133C98.6058 71.8093 98.2028 72.0355 97.8907 72.3626C97.8907 72.3626 95.8912 73.8633 94.877 71.6618V63.9481H102.591C104.792 62.9339 103.291 60.9344 103.291 60.9344C102.964 60.6222 102.738 60.2192 102.642 59.7773C102.546 59.3355 102.585 58.875 102.753 58.4552C102.921 58.0355 103.211 57.6757 103.586 57.4223C103.96 57.1689 104.402 57.0334 104.854 57.0334C105.306 57.0334 105.748 57.1689 106.122 57.4223C106.497 57.6757 106.787 58.0355 106.955 58.4552C107.123 58.875 107.162 59.3355 107.066 59.7773C106.97 60.2192 106.744 60.6222 106.417 60.9344C105.18 62.8226 107.117 63.9481 107.117 63.9481H114.831Z" fill="#68E1FD"/>
<path d="M114.831 63.9481V83.9063H94.877V76.1885C94.877 76.1885 96.0025 74.2344 97.8907 75.4877C98.2028 75.8148 98.6058 76.0409 99.0477 76.1369C99.4896 76.2329 99.9501 76.1944 100.37 76.0263C100.79 75.8581 101.149 75.5681 101.403 75.1936C101.656 74.8191 101.792 74.3773 101.792 73.9251C101.792 73.473 101.656 73.0312 101.403 72.6567C101.149 72.2822 100.79 71.9922 100.37 71.824C99.9501 71.6559 99.4896 71.6174 99.0477 71.7133C98.6058 71.8093 98.2028 72.0355 97.8907 72.3626C97.8907 72.3626 95.8912 73.8633 94.877 71.6618V63.9481H102.591C104.792 62.9339 103.291 60.9344 103.291 60.9344C102.964 60.6222 102.738 60.2192 102.642 59.7773C102.546 59.3355 102.585 58.875 102.753 58.4552C102.921 58.0355 103.211 57.6757 103.586 57.4223C103.96 57.1689 104.402 57.0334 104.854 57.0334C105.306 57.0334 105.748 57.1689 106.122 57.4223C106.497 57.6757 106.787 58.0355 106.955 58.4552C107.123 58.875 107.162 59.3355 107.066 59.7773C106.97 60.2192 106.744 60.6222 106.417 60.9344C105.18 62.8226 107.117 63.9481 107.117 63.9481H114.831Z" fill="url(#paint10_linear_2626:1524)"/>
<path d="M81.8418 53.9668C81.8405 54.4188 81.7041 54.86 81.4502 55.2339C81.1963 55.6078 80.8364 55.8973 80.4168 56.0652C79.9972 56.2331 79.537 56.2718 79.0952 56.1764C78.6535 56.0809 78.2503 55.8556 77.9376 55.5293C76.0493 54.2925 74.9238 56.2302 74.9238 56.2302V63.948H94.8779V43.9897H74.9238V51.7034C75.938 53.905 77.9376 52.4043 77.9376 52.4043C78.2503 52.078 78.6535 51.8527 79.0952 51.7572C79.537 51.6618 79.9972 51.7005 80.4168 51.8684C80.8364 52.0363 81.1963 52.3258 81.4502 52.6997C81.7041 53.0736 81.8405 53.5148 81.8418 53.9668Z" fill="#68E1FD"/>
<path d="M83.3378 66.9617C83.0107 67.2739 82.7845 67.6769 82.6885 68.1187C82.5925 68.5606 82.6311 69.0211 82.7992 69.4409C82.9674 69.8606 83.2574 70.2204 83.6319 70.4738C84.0063 70.7272 84.4482 70.8626 84.9003 70.8626C85.3525 70.8626 85.7943 70.7272 86.1688 70.4738C86.5433 70.2204 86.8333 69.8606 87.0014 69.4409C87.1696 69.0211 87.2081 68.5606 87.1121 68.1187C87.0161 67.6769 86.79 67.2739 86.4628 66.9617C86.4628 66.9617 84.9622 64.9622 87.1637 63.948H82.6328C82.6328 63.948 84.5911 65.0735 83.3378 66.9617Z" fill="#68E1FD"/>
<path d="M74.9238 43.9897V51.7034C75.938 53.905 77.9376 52.4043 77.9376 52.4043C78.2497 52.0771 78.6527 51.851 79.0946 51.755C79.5364 51.659 79.9969 51.6976 80.4167 51.8657C80.8364 52.0338 81.1962 52.3238 81.4496 52.6983C81.703 53.0728 81.8385 53.5146 81.8385 53.9668C81.8385 54.419 81.703 54.8608 81.4496 55.2353C81.1962 55.6098 80.8364 55.8998 80.4167 56.0679C79.9969 56.236 79.5364 56.2746 79.0946 56.1786C78.6527 56.0826 78.2497 55.8565 77.9376 55.5293C76.0493 54.2925 74.9238 56.2302 74.9238 56.2302V63.948H82.6334C82.6334 63.948 84.5876 65.0735 83.3342 66.9617C83.0071 67.2739 82.781 67.6769 82.685 68.1187C82.589 68.5606 82.6275 69.0211 82.7957 69.4408C82.9638 69.8606 83.2538 70.2204 83.6283 70.4738C84.0028 70.7272 84.4446 70.8626 84.8968 70.8626C85.3489 70.8626 85.7907 70.7272 86.1652 70.4738C86.5397 70.2204 86.8297 69.8606 86.9979 69.4408C87.166 69.0211 87.2046 68.5606 87.1086 68.1187C87.0126 67.6769 86.7864 67.2739 86.4593 66.9617C86.4593 66.9617 84.9586 64.9622 87.1602 63.948H94.8779V43.9897H74.9238Z" fill="url(#paint11_linear_2626:1524)"/>
<path d="M74.9238 63.948V83.9062H94.8779V76.1884C94.8779 76.1884 96.0035 74.2343 97.8917 75.4876C98.2038 75.8147 98.6068 76.0409 99.0487 76.1369C99.4906 76.2329 99.951 76.1943 100.371 76.0262C100.791 75.858 101.15 75.568 101.404 75.1935C101.657 74.819 101.793 74.3772 101.793 73.9251C101.793 73.4729 101.657 73.0311 101.404 72.6566C101.15 72.2821 100.791 71.9921 100.371 71.824C99.951 71.6558 99.4906 71.6173 99.0487 71.7133C98.6068 71.8093 98.2038 72.0354 97.8917 72.3625C97.8917 72.3625 95.8921 73.8632 94.8779 71.6617V63.948H87.1684C84.9669 64.9622 86.4675 66.9617 86.4675 66.9617C86.7947 67.2739 87.0208 67.6769 87.1168 68.1187C87.2128 68.5606 87.1742 69.0211 87.0061 69.4409C86.838 69.8606 86.548 70.2204 86.1735 70.4738C85.799 70.7272 85.3572 70.8626 84.905 70.8626C84.4528 70.8626 84.011 70.7272 83.6365 70.4738C83.262 70.2204 82.972 69.8606 82.8039 69.4409C82.6358 69.0211 82.5972 68.5606 82.6932 68.1187C82.7892 67.6769 83.0153 67.2739 83.3425 66.9617C84.5793 65.0735 82.6416 63.948 82.6416 63.948H74.9238Z" fill="#68E1FD"/>
<path d="M55.0098 83.9063V76.1927C56.024 73.9911 58.0235 75.4918 58.0235 75.4918C58.3357 75.8189 58.7386 76.0451 59.1805 76.1411C59.6224 76.2371 60.0829 76.1985 60.5026 76.0304C60.9224 75.8622 61.2821 75.5722 61.5356 75.1977C61.789 74.8233 61.9244 74.3814 61.9244 73.9293C61.9244 73.4771 61.789 73.0353 61.5356 72.6608C61.2821 72.2863 60.9224 71.9963 60.5026 71.8282C60.0829 71.66 59.6224 71.6215 59.1805 71.7175C58.7386 71.8135 58.3357 72.0396 58.0235 72.3667C56.1353 73.6036 55.0098 71.6659 55.0098 71.6659V63.9481H62.7234C62.7234 63.9481 64.6776 62.8226 63.4243 60.9344C63.0972 60.6222 62.871 60.2192 62.775 59.7773C62.679 59.3355 62.7176 58.875 62.8857 58.4552C63.0539 58.0355 63.3439 57.6757 63.7183 57.4223C64.0928 57.1689 64.5346 57.0334 64.9868 57.0334C65.439 57.0334 65.8808 57.1689 66.2553 57.4223C66.6298 57.6757 66.9198 58.0355 67.0879 58.4552C67.2561 58.875 67.2946 59.3355 67.1986 59.7773C67.1026 60.2192 66.8765 60.6222 66.5493 60.9344C66.5493 60.9344 65.0487 62.9339 67.2502 63.9481H74.9639V83.9063H55.0098Z" fill="#68E1FD"/>
<path d="M55.0098 83.9063V76.1927C56.024 73.9911 58.0235 75.4918 58.0235 75.4918C58.3357 75.8189 58.7386 76.0451 59.1805 76.1411C59.6224 76.2371 60.0829 76.1985 60.5026 76.0304C60.9224 75.8622 61.2821 75.5722 61.5356 75.1977C61.789 74.8233 61.9244 74.3814 61.9244 73.9293C61.9244 73.4771 61.789 73.0353 61.5356 72.6608C61.2821 72.2863 60.9224 71.9963 60.5026 71.8282C60.0829 71.66 59.6224 71.6215 59.1805 71.7175C58.7386 71.8135 58.3357 72.0396 58.0235 72.3667C56.1353 73.6036 55.0098 71.6659 55.0098 71.6659V63.9481H62.7234C62.7234 63.9481 64.6776 62.8226 63.4243 60.9344C63.0972 60.6222 62.871 60.2192 62.775 59.7773C62.679 59.3355 62.7176 58.875 62.8857 58.4552C63.0539 58.0355 63.3439 57.6757 63.7183 57.4223C64.0928 57.1689 64.5346 57.0334 64.9868 57.0334C65.439 57.0334 65.8808 57.1689 66.2553 57.4223C66.6298 57.6757 66.9198 58.0355 67.0879 58.4552C67.2561 58.875 67.2946 59.3355 67.1986 59.7773C67.1026 60.2192 66.8765 60.6222 66.5493 60.9344C66.5493 60.9344 65.0487 62.9339 67.2502 63.9481H74.9639V83.9063H55.0098Z" fill="url(#paint12_linear_2626:1524)"/>
<path d="M81.8654 53.9709C81.864 54.4229 81.7276 54.8641 81.4737 55.238C81.2198 55.6119 80.86 55.9014 80.4404 56.0693C80.0208 56.2373 79.5606 56.276 79.1188 56.1805C78.6771 56.085 78.2739 55.8597 77.9611 55.5335C77.9611 55.5335 75.9616 54.0328 74.9474 56.2343V63.948H67.2337C65.0322 62.9338 66.5329 60.9342 66.5329 60.9342C66.86 60.6221 67.0861 60.2191 67.1821 59.7772C67.2781 59.3354 67.2396 58.8749 67.0714 58.4551C66.9033 58.0354 66.6133 57.6756 66.2388 57.4222C65.8643 57.1688 65.4225 57.0333 64.9703 57.0333C64.5182 57.0333 64.0764 57.1688 63.7019 57.4222C63.3274 57.6756 63.0374 58.0354 62.8692 58.4551C62.7011 58.8749 62.6625 59.3354 62.7585 59.7772C62.8545 60.2191 63.0807 60.6221 63.4078 60.9342C64.6446 62.8225 62.7069 63.948 62.7069 63.948H55.0098V43.9897H62.6492C64.8508 45.0039 63.3501 47.0035 63.3501 47.0035C63.023 47.3156 62.7968 47.7186 62.7008 48.1605C62.6048 48.6024 62.6434 49.0628 62.8115 49.4826C62.9796 49.9023 63.2697 50.2621 63.6441 50.5155C64.0186 50.7689 64.4604 50.9044 64.9126 50.9044C65.3648 50.9044 65.8066 50.7689 66.1811 50.5155C66.5556 50.2621 66.8456 49.9023 67.0137 49.4826C67.1819 49.0628 67.2204 48.6024 67.1244 48.1605C67.0284 47.7186 66.8023 47.3156 66.4751 47.0035C65.2383 45.1153 67.176 43.9897 67.176 43.9897H74.9639V51.7075C74.9639 51.7075 76.0894 53.6617 77.9776 52.4084C78.2904 52.0822 78.6935 51.8569 79.1353 51.7614C79.5771 51.6659 80.0373 51.7046 80.4569 51.8725C80.8765 52.0404 81.2363 52.3299 81.4902 52.7038C81.7441 53.0777 81.8805 53.519 81.8819 53.9709H81.8654Z" fill="#68E1FD"/>
<path d="M86.7564 92.3207C86.7636 92.7733 86.6349 93.2177 86.387 93.5964C86.139 93.9751 85.7833 94.2708 85.3656 94.4452C84.9479 94.6196 84.4875 94.6648 84.0439 94.575C83.6002 94.4851 83.1937 94.2642 82.8769 93.941C82.8769 93.941 80.8568 92.4692 79.8755 94.6831L79.9869 102.397L72.2732 102.508C70.0551 101.527 71.527 99.5067 71.527 99.5067C71.8481 99.1901 72.0672 98.7846 72.1559 98.3424C72.2446 97.9002 72.199 97.4416 72.0248 97.0256C71.8507 96.6095 71.556 96.2551 71.1788 96.008C70.8015 95.7609 70.3589 95.6323 69.908 95.6389C69.457 95.6454 69.0184 95.7868 68.6484 96.0447C68.2785 96.3027 67.9943 96.6655 67.8323 97.0864C67.6703 97.5073 67.638 97.967 67.7395 98.4065C67.841 98.8459 68.0717 99.2449 68.4019 99.552C69.6841 101.42 67.7464 102.574 67.7464 102.574L60.0327 102.685L59.7441 82.7271L67.3836 82.6199C69.6016 83.6011 68.1298 85.6213 68.1298 85.6213C67.8087 85.9379 67.5896 86.3434 67.5009 86.7856C67.4122 87.2278 67.4578 87.6864 67.632 88.1024C67.8061 88.5184 68.1007 88.8728 68.478 89.12C68.8553 89.3671 69.2979 89.4957 69.7488 89.4891C70.1998 89.4826 70.6384 89.3412 71.0083 89.0832C71.3783 88.8253 71.6625 88.4625 71.8245 88.0416C71.9865 87.6207 72.0188 87.1609 71.9173 86.7215C71.8158 86.2821 71.5851 85.8831 71.2549 85.5759C69.9727 83.7083 71.9104 82.5539 71.9104 82.5539L79.6983 82.4426L79.8096 90.1604C79.8096 90.1604 80.9639 92.0981 82.8316 90.8159C83.0433 90.5901 83.2986 90.4093 83.582 90.2847C83.8654 90.16 84.1711 90.0939 84.4806 90.0903C85.0777 90.0859 85.6523 90.3181 86.0787 90.736C86.5052 91.1539 86.7488 91.7237 86.7564 92.3207Z" fill="#68E1FD"/>
<path d="M62.5396 82.8012C62.2634 83.1063 62.049 83.7783 62.486 84.0628C62.6423 84.1471 62.8157 84.195 62.9931 84.203L65.3266 84.4874C65.2565 84.4874 66.4768 98.2368 66.9551 101.16C67.0128 101.506 67.1571 101.939 67.5075 101.984C67.6126 101.978 67.7147 101.947 67.8056 101.894C67.8966 101.841 67.9738 101.768 68.0311 101.679C68.3679 101.152 68.5599 100.544 68.5877 99.9189C69.1673 95.431 69.4428 90.909 69.4122 86.3839C69.4122 85.4893 69.3792 84.5534 68.934 83.7742C68.6605 83.3503 68.302 82.9878 67.8812 82.7096C67.4604 82.4314 66.9864 82.2436 66.4892 82.1581C65.1575 81.8571 63.5084 81.7211 62.5396 82.8012Z" fill="url(#paint13_linear_2626:1524)"/>
<path d="M68.1541 111.339V111.393C68.253 111.644 68.5664 111.727 68.8302 111.76C69.0793 111.787 69.33 111.798 69.5805 111.793C69.7007 111.797 69.8207 111.78 69.9351 111.743C70.04 111.697 70.1384 111.637 70.2278 111.566L70.9493 111.03C71.152 110.89 71.3375 110.727 71.5017 110.543C71.6642 110.355 71.7496 110.112 71.7409 109.863C71.7322 109.74 71.6861 109.623 71.6087 109.527C71.5313 109.431 71.4263 109.361 71.308 109.327C71.1574 109.309 71.0051 109.309 70.8545 109.327C70.687 109.349 70.5169 109.321 70.3647 109.248C70.2125 109.175 70.0848 109.059 69.9969 108.915C69.9671 108.78 69.8948 108.659 69.7908 108.569C69.6859 108.518 69.5669 108.503 69.4527 108.527C69.2025 108.54 68.9553 108.589 68.7189 108.672C68.5997 108.714 68.4916 108.783 68.4024 108.873C68.3132 108.963 68.2453 109.072 68.2035 109.191C68.1783 109.302 68.1672 109.416 68.1706 109.529C68.185 109.764 68.185 109.999 68.1706 110.234C68.1377 110.527 68.1211 110.822 68.1211 111.116C68.1234 111.192 68.1345 111.266 68.1541 111.339Z" fill="#262836"/>
<path d="M75.151 111.434C74.6652 111.656 74.1653 111.846 73.6544 112.003C73.4511 112.09 73.2234 112.104 73.0113 112.04C72.9281 111.999 72.8546 111.942 72.7955 111.871C72.7365 111.8 72.6934 111.717 72.6691 111.627C72.6246 111.446 72.6066 111.258 72.6155 111.071C72.6471 110.781 72.7064 110.496 72.7928 110.218C72.8381 109.958 72.8753 109.698 72.9082 109.438C72.9618 109.063 73.0113 108.692 73.0567 108.321L74.3553 108.597C74.4914 108.626 74.6192 109.15 74.7016 109.261C74.762 109.343 74.8401 109.41 74.93 109.458C75.0199 109.506 75.1194 109.533 75.2211 109.537C75.4424 109.505 75.6654 109.487 75.889 109.484C76.0331 109.517 76.1619 109.598 76.2552 109.713C76.3485 109.828 76.4009 109.971 76.4043 110.119C76.4032 110.266 76.3715 110.411 76.3111 110.545C76.2508 110.679 76.1632 110.799 76.0539 110.898C75.8352 111.096 75.5842 111.255 75.3118 111.368L75.151 111.434Z" fill="#262836"/>
<path d="M75.1704 109.983C74.8296 110.176 74.4756 110.346 74.1109 110.49H74.0779C73.476 110.725 72.804 109.781 72.804 109.781C72.804 109.781 71.9547 104.537 71.9794 102.36C72.0083 100.867 71.6537 98.7399 71.1219 94.881C70.99 98.8224 70.3221 100.554 70.4911 101.968C70.7508 104.116 70.4416 109.451 70.4416 109.451C70.4416 109.451 69.8727 110.49 69.2502 110.35H69.2131C68.8383 110.264 68.4703 110.151 68.1123 110.012C68.1123 110.012 67.3867 102.665 67.3867 100.727C67.3867 98.7894 67.4691 97.0537 67.4691 97.0537L67.0898 90.9191L68.706 88.5691L68.8379 88.5155L68.9616 88.3918L70.755 87.0767C70.755 87.0767 70.755 87.3817 70.722 87.9012L72.1155 88.6474L72.2474 88.7464L72.3835 88.7794L74.7169 89.1916C74.7169 89.1916 75.3271 98.6039 75.5415 100.529C75.7559 102.455 75.1704 109.983 75.1704 109.983Z" fill="#68E1FD"/>
<path d="M75.1704 109.983C74.8296 110.176 74.4756 110.346 74.1109 110.49H74.0779C73.476 110.725 72.804 109.781 72.804 109.781C72.804 109.781 71.9547 104.537 71.9794 102.36C72.0083 100.867 71.6537 98.7399 71.1219 94.881C70.99 98.8224 70.3221 100.554 70.4911 101.968C70.7508 104.116 70.4416 109.451 70.4416 109.451C70.4416 109.451 69.8727 110.49 69.2502 110.35H69.2131C68.8383 110.264 68.4703 110.151 68.1123 110.012C68.1123 110.012 67.3867 102.665 67.3867 100.727C67.3867 98.7894 67.4691 97.0537 67.4691 97.0537L67.0898 90.9191L68.706 88.5691L68.8379 88.5155L68.9616 88.3918L70.755 87.0767C70.755 87.0767 70.755 87.3817 70.722 87.9012L72.1155 88.6474L72.2474 88.7464L72.3835 88.7794L74.7169 89.1916C74.7169 89.1916 75.3271 98.6039 75.5415 100.529C75.7559 102.455 75.1704 109.983 75.1704 109.983Z" fill="url(#paint14_linear_2626:1524)"/>
<path d="M86.1532 77.1739C86.1821 77.1532 86.2166 77.1417 86.2521 77.1409C86.347 77.1409 86.3511 77.2934 86.3181 77.3841C86.2319 77.637 86.1067 77.8749 85.947 78.0891C85.8953 78.1425 85.8646 78.2128 85.8605 78.287C85.8605 78.3612 85.9264 78.4148 85.9759 78.4684C86.1276 78.6444 86.2354 78.8539 86.2906 79.0796C86.3458 79.3053 86.3467 79.5409 86.2934 79.7671C86.179 80.2186 85.9439 80.6305 85.6131 80.9585C85.5335 81.0599 85.4345 81.1445 85.322 81.2075C85.2095 81.2705 85.0857 81.3106 84.9576 81.3255C84.5123 81.3255 83.9558 80.7771 83.7785 80.3978C83.7139 80.2084 83.6997 80.0054 83.7373 79.8088C83.7749 79.6122 83.863 79.4287 83.9929 79.2765C84.5189 78.4004 85.2633 77.676 86.1532 77.1739Z" fill="#A67C52"/>
<path d="M73.2376 72.845C73.3819 72.9934 73.6046 73.1459 73.5427 73.3397C73.5097 73.4428 73.3984 73.5046 73.316 73.5788C73.1125 73.7946 73.0028 74.0822 73.0109 74.3786C73.0196 74.6735 72.9778 74.9678 72.8872 75.2485C72.8357 75.3875 72.7379 75.5044 72.6102 75.5795C72.4825 75.6546 72.3328 75.6833 72.1863 75.6608C72.0173 75.6155 71.8483 75.467 71.6834 75.5371C71.5184 75.6072 71.5184 75.7433 71.4525 75.8587C71.3624 76.0008 71.2343 76.1147 71.0827 76.1876C70.9312 76.2605 70.7621 76.2894 70.595 76.271C70.2642 76.2213 69.9455 76.1109 69.655 75.9453C69.5315 75.8961 69.4244 75.8133 69.3458 75.7062C69.2978 75.6016 69.2862 75.4841 69.3128 75.3722C69.4147 75.0367 69.5814 74.7243 69.8034 74.4529C70.1589 73.905 70.3728 73.2774 70.4259 72.6265C70.4589 72.173 70.4259 71.6741 70.7186 71.3237C71.1309 70.8454 72.0668 70.8496 72.5574 71.2C73.048 71.5504 72.7841 72.3791 73.2376 72.845Z" fill="#A67C52"/>
<path d="M72.6513 70.7916C72.5938 70.9046 72.5069 71.0001 72.3998 71.0678C72.1813 71.1956 71.9875 71.3441 71.7896 71.4801C71.5901 71.6116 71.4496 71.8157 71.398 72.0491C71.3114 72.4613 71.5423 72.9313 71.398 73.3477C71.3444 73.4343 71.2083 73.3807 71.1547 73.2982C71.1011 73.2158 71.0681 73.1127 70.9857 73.0632C70.8414 72.9808 70.6682 73.121 70.6064 73.2735C70.5425 73.4509 70.5498 73.6461 70.6266 73.8183C70.7035 73.9904 70.844 74.1261 71.0187 74.197C70.9981 74.3289 70.829 74.3825 70.693 74.366C70.5587 74.3291 70.4199 74.3111 70.2807 74.3124C69.9715 74.3702 69.8684 74.8113 69.5468 74.8566C69.4404 74.8496 69.337 74.818 69.2447 74.7643C69.1525 74.7107 69.0739 74.6365 69.015 74.5474L68.6398 74.1352C68.5794 74.055 68.5132 73.9792 68.442 73.9084C68.3554 73.8424 68.2152 73.8383 68.1451 73.76C68.075 73.6817 68.1451 73.4961 68.0709 73.3972C68.0358 73.3604 67.9918 73.3334 67.9431 73.3189C67.8352 73.2643 67.7493 73.1743 67.6997 73.064C67.6502 72.9537 67.6401 72.8297 67.671 72.7128C67.6811 72.6834 67.6811 72.6515 67.671 72.6221C67.671 72.5809 67.6133 72.5644 67.5721 72.5438C67.4582 72.47 67.3745 72.3581 67.336 72.2281C67.2974 72.098 67.3066 71.9585 67.3618 71.8347C67.4245 71.6924 67.5141 71.5637 67.6257 71.4554C67.665 71.3948 67.7208 71.3467 67.7865 71.3168C67.8523 71.2868 67.9252 71.2763 67.9967 71.2863L68.0585 70.7463C68.057 70.6548 68.0759 70.5641 68.1136 70.4808C68.1514 70.3974 68.2072 70.3235 68.2771 70.2644C68.3469 70.2052 68.4289 70.1623 68.5173 70.1387C68.6057 70.1151 68.6983 70.1114 68.7883 70.1278L68.6646 69.6826C68.6419 69.6257 68.6419 69.5622 68.6646 69.5053C68.6985 69.4659 68.7452 69.4397 68.7965 69.4311C68.9403 69.3901 69.0883 69.3652 69.2376 69.3569C69.1841 69.232 69.1427 69.1022 69.114 68.9694C69.1045 68.9502 69.101 68.9287 69.1039 68.9076C69.1068 68.8865 69.1158 68.8667 69.13 68.8508C69.1442 68.8348 69.1628 68.8235 69.1834 68.8182C69.204 68.8129 69.2258 68.8138 69.2459 68.8209C69.3006 68.8292 69.3561 68.8292 69.4108 68.8209C69.4108 68.8209 69.3283 68.4416 69.3242 68.4087C69.2992 68.2896 69.3214 68.1654 69.3861 68.0624C69.4312 68.0111 69.4883 67.9718 69.5524 67.948C69.6164 67.9243 69.6853 67.9168 69.753 67.9263C69.8868 67.95 70.0152 67.9975 70.1323 68.0665C70.1323 67.9222 70.3096 67.848 70.4539 67.8356C70.7317 67.82 71.0089 67.875 71.2598 67.9953C71.5106 68.1157 71.7269 68.2976 71.8886 68.5241C71.9153 68.564 71.9456 68.6012 71.9793 68.6354C72.0452 68.6774 72.1176 68.708 72.1937 68.7261C72.3106 68.7779 72.4146 68.8551 72.4981 68.9521C72.5815 69.0491 72.6423 69.1634 72.676 69.2868C72.7378 69.5319 72.7628 69.7847 72.7502 70.0371C72.7596 70.2311 72.7416 70.4254 72.6966 70.6143C72.6885 70.675 72.6732 70.7345 72.6513 70.7916Z" fill="#2F3554"/>
<path d="M70.6025 75.4669C70.9458 75.6108 71.2791 75.7774 71.6002 75.9658C71.6992 76.019 71.7852 76.0936 71.8517 76.1843C71.8872 76.234 71.909 76.2922 71.9148 76.353C71.9206 76.4138 71.9102 76.4751 71.8846 76.5306C71.7981 76.6832 71.5919 76.6296 71.4353 76.5718C70.7088 76.3253 69.9421 76.219 69.176 76.2585C69.1248 76.267 69.0722 76.261 69.0242 76.2414C68.9761 76.2217 68.9345 76.1891 68.9039 76.1472C68.8861 76.0966 68.8794 76.0428 68.8844 75.9894C68.8894 75.9361 68.9059 75.8844 68.9328 75.838C69.3244 75.0505 69.9634 75.1783 70.6025 75.4669Z" fill="white"/>
<path d="M84.7151 81.5441C84.5661 81.9142 84.3462 82.2518 84.0678 82.5376C83.7998 82.8386 83.5236 83.1272 83.2432 83.4075C82.5659 84.0623 81.8515 84.6776 81.1035 85.2504C80.5954 85.6993 79.9899 86.0239 79.3349 86.1986C79.0692 86.2608 78.7911 86.2436 78.5351 86.1492C78.3269 86.0453 78.1385 85.9058 77.9785 85.7369C77.7888 85.5472 75.5873 83.0117 75.5502 83.0117C75.4253 83.0788 75.3287 83.1885 75.2781 83.321C74.9601 83.9799 74.7632 84.6907 74.6968 85.4194C74.67 85.7446 74.67 86.0714 74.6968 86.3965C74.7834 87.5056 75.1709 88.6476 74.7875 89.6947C74.7109 89.916 74.5839 90.1165 74.4164 90.2802C74.2551 90.4213 74.0692 90.5317 73.8681 90.6059C73.5127 90.7514 73.1421 90.8565 72.7632 90.9192C72.5468 90.959 72.3277 90.9825 72.1077 90.9893C71.2831 91.0223 70.4998 90.8656 69.6918 90.9027C69.0074 90.9398 68.3271 91.1171 67.6304 91.0923C67.5321 91.1115 67.4308 91.1091 67.3336 91.0853C67.2363 91.0615 67.1454 91.017 67.067 90.9547C66.9886 90.8923 66.9247 90.8138 66.8796 90.7244C66.8345 90.635 66.8094 90.5369 66.8058 90.4368C66.5388 88.9689 66.4009 87.4804 66.3936 85.9884C66.3936 85.4689 66.3647 84.9453 66.3317 84.4258C66.3029 83.9847 66.4224 82.8633 65.9194 82.7767C64.6414 82.5294 63.3139 82.8427 62.0234 82.6613C62.0593 81.8169 62.4179 81.0186 63.0253 80.4309C63.3232 80.1794 63.6465 79.9597 63.99 79.7754C64.3854 79.4922 64.7405 79.1566 65.0454 78.7777C65.9221 77.6951 67.0329 76.8254 68.2941 76.2339C68.4951 76.1355 68.7067 76.0608 68.9249 76.0113H68.9785C69.01 76.0077 69.0418 76.0077 69.0733 76.0113C69.3491 75.9882 69.6268 76.0048 69.8979 76.0608C71.7373 76.366 73.5572 76.779 75.3482 77.2976C75.5845 77.3507 75.8084 77.4487 76.0078 77.5862C76.147 77.712 76.2665 77.8579 76.3624 78.0191C76.8653 78.7777 77.356 79.5445 77.863 80.3031C78.3001 80.9545 78.7288 81.7708 79.372 82.249C80.772 81.68 82.0937 80.9346 83.3051 80.031C83.4741 79.9032 83.6926 79.763 83.8864 79.8496C83.9509 79.8784 84.0085 79.9206 84.0554 79.9733C84.5295 80.3856 84.9459 80.8391 84.7151 81.5441Z" fill="white"/>
</g>
<defs>
<linearGradient id="paint0_linear_2626:1524" x1="71.0191" y1="99.3912" x2="71.8725" y2="115.796" gradientUnits="userSpaceOnUse">
<stop offset="0.01"/>
<stop offset="0.08" stop-opacity="0.69"/>
<stop offset="0.21" stop-opacity="0.32"/>
<stop offset="1" stop-opacity="0"/>
</linearGradient>
<linearGradient id="paint1_linear_2626:1524" x1="19686.8" y1="915.241" x2="19691.4" y2="1945.8" gradientUnits="userSpaceOnUse">
<stop offset="0.01"/>
<stop offset="0.08" stop-opacity="0.69"/>
<stop offset="0.21" stop-opacity="0.32"/>
<stop offset="1" stop-opacity="0"/>
</linearGradient>
<linearGradient id="paint2_linear_2626:1524" x1="-14148.2" y1="6535.74" x2="-14021.5" y2="6585.12" gradientUnits="userSpaceOnUse">
<stop offset="0.01"/>
<stop offset="0.08" stop-opacity="0.69"/>
<stop offset="0.21" stop-opacity="0.32"/>
<stop offset="1" stop-opacity="0"/>
</linearGradient>
<linearGradient id="paint3_linear_2626:1524" x1="77.703" y1="58.2426" x2="41.9558" y2="-14.3356" gradientUnits="userSpaceOnUse">
<stop offset="0.01"/>
<stop offset="0.08" stop-opacity="0.69"/>
<stop offset="0.21" stop-opacity="0.32"/>
<stop offset="1" stop-opacity="0"/>
</linearGradient>
<linearGradient id="paint4_linear_2626:1524" x1="1066.88" y1="439.617" x2="1095.44" y2="645.237" gradientUnits="userSpaceOnUse">
<stop offset="0.01"/>
<stop offset="0.08" stop-opacity="0.69"/>
<stop offset="0.21" stop-opacity="0.32"/>
<stop offset="1" stop-opacity="0"/>
</linearGradient>
<linearGradient id="paint5_linear_2626:1524" x1="-5660.88" y1="-1015.6" x2="-5721.42" y2="-971.357" gradientUnits="userSpaceOnUse">
<stop offset="0.01"/>
<stop offset="0.08" stop-opacity="0.69"/>
<stop offset="0.21" stop-opacity="0.32"/>
<stop offset="1" stop-opacity="0"/>
</linearGradient>
<linearGradient id="paint6_linear_2626:1524" x1="3443.22" y1="3491.92" x2="3388.57" y2="8293.83" gradientUnits="userSpaceOnUse">
<stop offset="0.01"/>
<stop offset="0.08" stop-opacity="0.69"/>
<stop offset="0.21" stop-opacity="0.32"/>
<stop offset="1" stop-opacity="0"/>
</linearGradient>
<linearGradient id="paint7_linear_2626:1524" x1="3451.91" y1="6058.08" x2="1613.93" y2="6636.71" gradientUnits="userSpaceOnUse">
<stop offset="0.01"/>
<stop offset="0.08" stop-opacity="0.69"/>
<stop offset="0.21" stop-opacity="0.32"/>
<stop offset="1" stop-opacity="0"/>
</linearGradient>
<linearGradient id="paint8_linear_2626:1524" x1="2117.99" y1="5547.31" x2="-420.557" y2="6151.83" gradientUnits="userSpaceOnUse">
<stop offset="0.01"/>
<stop offset="0.08" stop-opacity="0.69"/>
<stop offset="0.21" stop-opacity="0.32"/>
<stop offset="1" stop-opacity="0"/>
</linearGradient>
<linearGradient id="paint9_linear_2626:1524" x1="2656.29" y1="896.138" x2="3223.5" y2="2239.61" gradientUnits="userSpaceOnUse">
<stop offset="0.01"/>
<stop offset="0.08" stop-opacity="0.69"/>
<stop offset="0.21" stop-opacity="0.32"/>
<stop offset="1" stop-opacity="0"/>
</linearGradient>
<linearGradient id="paint10_linear_2626:1524" x1="3474.71" y1="3678.96" x2="9032.49" y2="6572.2" gradientUnits="userSpaceOnUse">
<stop offset="0.01"/>
<stop offset="0.08" stop-opacity="0.69"/>
<stop offset="0.21" stop-opacity="0.32"/>
<stop offset="1" stop-opacity="0"/>
</linearGradient>
<linearGradient id="paint11_linear_2626:1524" x1="4049.18" y1="6845.78" x2="5626.53" y2="547.991" gradientUnits="userSpaceOnUse">
<stop offset="0.01"/>
<stop offset="0.08" stop-opacity="0.69"/>
<stop offset="0.21" stop-opacity="0.32"/>
<stop offset="1" stop-opacity="0"/>
</linearGradient>
<linearGradient id="paint12_linear_2626:1524" x1="3482.53" y1="2435.01" x2="3237.98" y2="10421.8" gradientUnits="userSpaceOnUse">
<stop offset="0.01"/>
<stop offset="0.08" stop-opacity="0.69"/>
<stop offset="0.21" stop-opacity="0.32"/>
<stop offset="1" stop-opacity="0"/>
</linearGradient>
<linearGradient id="paint13_linear_2626:1524" x1="1101.35" y1="4368.52" x2="2291.97" y2="4831.98" gradientUnits="userSpaceOnUse">
<stop offset="0.01"/>
<stop offset="0.08" stop-opacity="0.69"/>
<stop offset="0.21" stop-opacity="0.32"/>
<stop offset="1" stop-opacity="0"/>
</linearGradient>
<linearGradient id="paint14_linear_2626:1524" x1="1456.91" y1="5609.48" x2="2459.94" y2="6118.35" gradientUnits="userSpaceOnUse">
<stop offset="0.01"/>
<stop offset="0.08" stop-opacity="0.69"/>
<stop offset="0.21" stop-opacity="0.32"/>
<stop offset="1" stop-opacity="0"/>
</linearGradient>
<clipPath id="clip0_2626:1524">
<rect width="164.523" height="124" fill="white"/>
</clipPath>
</defs>
</svg>
