<svg id="Layer_1" data-name="Layer 1" xmlns="http://www.w3.org/2000/svg" viewBox="0 0 400 300" width="406" height="306" class="illustration styles_illustrationTablet__1DWOa"><title>_</title><polygon points="350.88 99.98 306.64 164.46 304.77 149.95 174.99 235.66 171.54 193.55 73.75 251.66 62.16 222.67 197.17 151.68 201.12 189.79 301.09 121.33 299.56 109.49 350.88 99.98" fill="#e6e6e6"></polygon><polygon points="323.54 137.55 322.96 137.93 323.4 137.22 323.54 137.55" fill="#e6e6e6"></polygon><ellipse cx="186.33" cy="264.16" rx="137.21" ry="8.24" fill="#e6e6e6" opacity="0.45"></ellipse><path d="M285.54,144.12a6.71,6.71,0,0,1-3.36,10.3c-4.71,1.59-12.24,2.74-22.45,0-18.58-5-25.06-35.92-25.06-35.92s-3.5-5.2-.88-7.43,4.75,5.91,4.75,5.91,3.84,14.83,17.71,20.25C267.52,141.63,280.15,136.68,285.54,144.12Z" fill="#f4a28c"></path><path d="M285.54,144.12a6.71,6.71,0,0,1-3.36,10.3c-4.71,1.59-12.24,2.74-22.45,0-18.58-5-25.06-35.92-25.06-35.92s-3.5-5.2-.88-7.43,4.75,5.91,4.75,5.91,3.84,14.83,17.71,20.25C267.52,141.63,280.15,136.68,285.54,144.12Z" opacity="0.09"></path><polygon points="290.18 209.92 272.18 257.81 268.64 257.61 274.82 207.55 290.18 209.92" fill="#f4a28c"></polygon><path d="M302.76,204.7l-4.19,19.72,13.79-9.63,2.37,3.1s-14.22,20.5-24.54,17.47-1.92-34.94-1.92-34.94Z" fill="#f4a28c"></path><polygon points="285.28 122.32 288.92 138.65 279.77 140.01 280.8 127.58 285.28 122.32" fill="#f4a28c"></polygon><path d="M280.46,130.29a6,6,0,0,0,2.87-2s.06,3.06-3.11,6.29Z" fill="#ce8172" opacity="0.31"></path><path d="M275.89,122.25a31.87,31.87,0,0,0,1.42,8.36,2.57,2.57,0,0,0,3.33,1.47,5.67,5.67,0,0,0,3.89-4.76l1-4.61a4.59,4.59,0,0,0-2.59-4.63C279.83,116.37,275.64,119.14,275.89,122.25Z" fill="#f4a28c"></path><path d="M281.8,126s-.19-2,1.29-2,1.78,2.8-.18,3.3Z" fill="#f4a28c"></path><path d="M276.16,125.46,275,127.58a.82.82,0,0,0,.66,1.22l2,.13Z" fill="#f4a28c"></path><path d="M279.77,140s-22.26,8.4-16.21,23.73c4.38,11.1,10.23,9.06,11.7,17.91l1.55,8.71,22.65-6.76s-2.66-12.75-1.19-21.21S304.22,132.88,279.77,140Z" fill="#68e1fd"></path><path d="M285.73,144.93s-8.64,12.11-1,24.48c1.29,2.09,2.43,4.29,3.53,6.49l4.8,9.62,6.42-1.92-.89-5.35Z" opacity="0.09"></path><path d="M283.09,124s-3.94,15.78,1.34,17.92,13.87.3,14.1-6.23-6.23-7.21-7.56-16.1-18.33-5.81-17.77-.67S283.09,124,283.09,124Z" fill="#ffd200"></path><path d="M299.46,183.6l-22.65,6.76L272.58,217l30.36-.39S310.73,196.61,299.46,183.6Z" fill="#24285b"></path><path d="M268.9,257.62s-2.09,2.37-4.58,2.1-3.06,3.25,1,3.11a22.78,22.78,0,0,0,3.74-.42,6.51,6.51,0,0,1,3.38.31,1.1,1.1,0,0,0,1.17-.39c1.22-1.28-1.41-4.52-1.41-4.52Z" fill="#68e1fd"></path><path d="M314.41,218s3.15.11,4.54,2.2,4.45.28,1.77-2.74a20.93,20.93,0,0,0-2.71-2.61,6.7,6.7,0,0,1-1.92-2.81,1.06,1.06,0,0,0-1-.65c-1.76-.13-2.69,3.44-2.69,3.44Z" fill="#68e1fd"></path><path d="M116,257.71s1.58,2.55,4.12,2.22,3.7,2,1.6,3.09-8.49-.53-8.49-.53l-.77-4.6Z" fill="#68e1fd"></path><path d="M131.25,150.51s25.16-16.14,34.67-32.86l-3.2-3.52s-21.63,19.14-40.59,22.44Z" fill="#f4a28c"></path><path d="M165.92,117.65c.05,0,2-2.45,2.07-2.62a7.75,7.75,0,0,0,1.42-3.69,4.23,4.23,0,0,0-2.48-3.64,1.72,1.72,0,0,0-2,.14,2.09,2.09,0,0,0-.39.72,15.63,15.63,0,0,0-.53,1.73,6.37,6.37,0,0,0-.44-1.27c-.08-.17-.19-.36-.38-.39a.42.42,0,0,0-.43.25,1.3,1.3,0,0,0-.1.52c-.05,1-.12,2-.15,3a7.87,7.87,0,0,0,.15,1.07c0,.13,0,.56.1.67Z" fill="#f4a28c"></path><path d="M97.14,157.55c9.13,3.11,24,4.71,39.89-7.89l-4.27-18.19s-25.55,3.53-38,14A7.07,7.07,0,0,0,97.14,157.55Z" fill="#68e1fd"></path><path d="M97.14,157.55c9.13,3.11,24,4.71,39.89-7.89l-4.27-18.19s-25.55,3.53-38,14A7.07,7.07,0,0,0,97.14,157.55Z" fill="#fff" opacity="0.46"></path><path d="M112.55,119.77a27.13,27.13,0,0,1,1.48,7.15,2.22,2.22,0,0,1-2.21,2.22,4.89,4.89,0,0,1-4.61-2.6L105,123.15a3.94,3.94,0,0,1,.63-4.52C107.56,116.28,111.79,117.2,112.55,119.77Z" fill="#f4a28c"></path><polygon points="105.38 123.76 106.74 138.1 114.59 136.78 110.45 126.88 105.38 123.76" fill="#f4a28c"></polygon><path d="M111.54,120.22a31.27,31.27,0,0,1-4,.71,3.67,3.67,0,0,1,1,3.9,3,3,0,0,1-3.2,2,12.26,12.26,0,0,1-.47-1.94c-.26-.74-.66-1.56-1.49-1.75a7.82,7.82,0,0,1-1.54-.19,1.22,1.22,0,0,1-.48-1.77c.3-.4.87-.68.85-1.17s-.49-.68-.8-1a2.15,2.15,0,0,1-.34-2.32,5.42,5.42,0,0,1,1.56-1.91.6.6,0,0,0,.26-.37c0-.23-.21-.38-.36-.55a1.29,1.29,0,0,1,0-1.53,3,3,0,0,1,1.32-1,13.87,13.87,0,0,1,4.37-1,3.93,3.93,0,0,1,2,.16,1.54,1.54,0,0,1,1,1.53c-.09.62-.69,1.15-.57,1.77s.92.87,1.57.88a2.63,2.63,0,0,1,1.87.41c.67.65.13,1.92-.76,2.21a1.37,1.37,0,0,0-.49.22c-.26.24-.15.69.06,1a2.42,2.42,0,0,1,.53.93c.11.82-1.19.62-1.66.7Z" fill="#ffd200"></path><path d="M109,124.58s-.45-1.63-1.65-1.18-.56,2.8,1.17,2.59Z" fill="#f4a28c"></path><path d="M113.34,122.43l1.61,1.34a.7.7,0,0,1-.15,1.17l-1.55.73Z" fill="#f4a28c"></path><path d="M111.45,129a5.22,5.22,0,0,1-2.88-.84,8.24,8.24,0,0,0,4.22,4.31Z" fill="#ce8172" opacity="0.31"></path><path d="M86.32,146.34a21.92,21.92,0,0,1,23.31-10.85l3.47.64s24.51,3.59,23,26.17A76.78,76.78,0,0,1,121.85,201l-33.09-3.76S76.25,165,86.32,146.34Z" fill="#68e1fd"></path><path d="M117,258,121.85,201l-33.09-3.76L77.83,258.54H84l20.69-39.77c.24-2.08,6.63,39.77,6.63,39.77Z" fill="#24285b"></path><path d="M103.28,146.38s2.2,17.27-1.94,33.05,0,19.28,0,19.28l-12.58-1.43s-2.76-7-3.26-10.55S85.3,144.34,103.28,146.38Z" opacity="0.08"></path><path d="M87.42,156.27c6.77,6.87,19.36,14.95,39.2,10.78l-2.54-21.93s-17.57-4.51-33.37-.66A7.06,7.06,0,0,0,87.42,156.27Z" fill="#68e1fd"></path><path d="M87.42,156.27c6.77,6.87,19.36,14.95,39.2,10.78l-2.54-21.93s-17.57-4.51-33.37-.66A7.06,7.06,0,0,0,87.42,156.27Z" fill="#fff" opacity="0.46"></path><path d="M126.38,165s29.73-3.18,45.71-13.88l-1.29-4.58s-27.9,7.44-46.34,1.92Z" fill="#f4a28c"></path><path d="M172.09,151.1a33.18,33.18,0,0,0,4.1-2.13,5.6,5.6,0,0,0,2.08-2.47,4.73,4.73,0,0,0-.73-3.79,1.41,1.41,0,0,0-1.52-.64,2.14,2.14,0,0,0-.8.6c-.54.59-1.08,1.18-1.61,1.78a6.86,6.86,0,0,0-.2-1.63c0-.11-.08-.25-.2-.26a.31.31,0,0,0-.2.07c-1.41.94-3.09,2.79-2.64,4.38C170.7,148.2,171.76,149.92,172.09,151.1Z" fill="#f4a28c"></path><path d="M78.78,258.46s-1.59,2.55-4.12,2.22-3.71,2-1.6,3.09,8.49-.53,8.49-.53l.77-4.6Z" fill="#68e1fd"></path><path d="M293.64,142.76a6.72,6.72,0,0,1,3.8,10.15c-2.69,4.18-7.85,9.78-17.54,14-17.63,7.69-42-12.44-42-12.44s-6-1.88-5.33-5.25,7.4,1.65,7.4,1.65,12.26,9.19,26.47,4.77C278,152.06,284.79,140.31,293.64,142.76Z" fill="#f4a28c"></path><path d="M156.21,87.44a9.23,9.23,0,0,0,12.7,3.79c9.54-5.36,25.41-12.24,30.76-23.7,6.94-14.86-23.33-34.37-23.33-34.37l-4.37,5s39.23,24.7-10.08,34.38c-6.28,1.24-8.65,9.26-5.68,14.93Z" fill="#68e1fd"></path><path d="M156.21,87.44a9.23,9.23,0,0,0,12.7,3.79c9.54-5.36,25.41-12.24,30.76-23.7,6.94-14.86-23.33-34.37-23.33-34.37l-4.37,5s39.23,24.7-10.08,34.38c-6.28,1.24-8.65,9.26-5.68,14.93Z" fill="#fff" opacity="0.46"></path><path d="M243.82,93.79s2.13-1.34,1.85-3.47,1.65-3.14,2.59-1.37-.4,7.16-.4,7.16l-3.88.67Z" fill="#68e1fd"></path><path d="M246.92,138.87s2.35.92,3.9-.58,3.5-.55,2.64,1.27-6,3.93-6,3.93l-2.85-2.71Z" fill="#68e1fd"></path><path d="M138.78,69A26.79,26.79,0,0,1,144,74a2.17,2.17,0,0,1-.58,3,4.82,4.82,0,0,1-5.2.45l-3.7-1.53a3.88,3.88,0,0,1-2-4C132.78,68.92,136.73,67.32,138.78,69Z" fill="#f4a28c"></path><polygon points="135.15 76.22 144.23 87.15 149.9 81.72 141.02 75.95 135.15 76.22" fill="#f4a28c"></polygon><path d="M138.21,69.91a17.24,17.24,0,0,1-2.87,2.81,3.6,3.6,0,0,1,3,2.61,3,3,0,0,1-1.46,3.45l-4.14-3.73a4.39,4.39,0,0,1-1.48-4.27,14.83,14.83,0,0,1,.54-2c.57-1.63,2.93-2.69,3.06-4.49a1,1,0,0,1,1.61-.79c1.44.93,3.24,2.91,2.43,5.25A4.08,4.08,0,0,1,138.21,69.91Z" fill="#24285b"></path><path d="M138.53,74.9s-1.27-1.08-2-.05,1.1,2.59,2.39,1.46Z" fill="#f4a28c"></path><path d="M140.9,70.72l2,.19a.69.69,0,0,1,.53,1l-.85,1.45Z" fill="#f4a28c"></path><path d="M143,77.13a5.16,5.16,0,0,1-2.81.91A8.12,8.12,0,0,0,146,79.21Z" fill="#ce8172" opacity="0.31"></path><path d="M144.23,87.15l3.86-3.7a34.22,34.22,0,0,0,2.66-2.85c2.65-3.22,11.33-12.06,24.15-7.86C190.44,77.82,199.32,108,199.32,108l-17.73,20.35S120,116.85,144.23,87.15Z" fill="#68e1fd"></path><path d="M172.79,37.19s-6.87-3.07-7.41-6,5.3,1.55,5.3,1.55,2.74-5.18,5.66.39Z" fill="#f4a28c"></path><path d="M171.2,33.69s-4.7-5-3.19-6,5.15,4.77,5.15,4.77Z" fill="#f4a28c"></path><path d="M181.59,128.33s13.09,10.92,20.92.79,9.18-33.79,41.62-31.6l-.26-5.37S218.4,82.22,198,104.07Z" fill="#24285b"></path><path d="M192.05,132.73s25-17.35,50.3,9.81l4.57-3.67s-15-29.65-53.39-25.27Z" fill="#24285b"></path><path d="M157.14,94s5.88,3,9.6,14,22.92,8.47,22.92,8.47l-8.07,11.92s-19.91-4.22-30.65-11.11,5.92-22.61,5.92-22.61Z" opacity="0.08"></path><path d="M144.32,110.67c14.57,6.17,47.4,14.5,54.49-31.52l-6.54-2.55s-13,30.83-38.48,16.75a24.85,24.85,0,0,0-2.94-1.42c-4.53-1.8-15.82-5.21-15.68,5.44A14.8,14.8,0,0,0,144.32,110.67Z" fill="#68e1fd"></path><path d="M144.32,110.67c14.57,6.17,47.4,14.5,54.49-31.52l-6.54-2.55s-13,30.83-38.48,16.75a24.85,24.85,0,0,0-2.94-1.42c-4.53-1.8-15.82-5.21-15.68,5.44A14.8,14.8,0,0,0,144.32,110.67Z" fill="#fff" opacity="0.46"></path><path d="M193.43,77.05a12.59,12.59,0,0,1,3-6.11c2.37-2.36,4.79-2,6.13-.16S198,75.67,198,75.67l-.12,3.11Z" fill="#f4a28c"></path><rect x="86.46" y="99" width="16.32" height="4.37" transform="translate(-38.24 61.94) rotate(-30.46)" fill="#e6e6e6" opacity="0.5"></rect><rect x="262.34" y="90.23" width="16.32" height="4.37" transform="translate(555.59 113.06) rotate(165.28)" fill="#e6e6e6" opacity="0.5"></rect><rect x="224.16" y="64.51" width="11.67" height="3.12" transform="translate(428.52 199.7) rotate(-162.08)" fill="#e6e6e6" opacity="0.5"></rect><rect x="262.81" y="64.51" width="11.67" height="3.12" transform="translate(94.14 280.74) rotate(-64.71)" fill="#e6e6e6" opacity="0.5"></rect><rect x="207.02" y="147.88" width="11.67" height="3.12" transform="translate(-13.19 278.06) rotate(-64.71)" fill="#e6e6e6" opacity="0.5"></rect><rect x="299.73" y="75.56" width="11.67" height="3.12" transform="translate(597.68 195.38) rotate(-172.13)" fill="#e6e6e6" opacity="0.5"></rect><rect x="113" y="79.99" width="11.67" height="3.12" transform="translate(211.41 192.01) rotate(-164.42)" fill="#e6e6e6" opacity="0.5"></rect><rect x="150.59" y="54.39" width="11.67" height="3.12" transform="translate(320.88 79.53) rotate(168.48)" fill="#e6e6e6" opacity="0.5"></rect><rect x="94" y="57.46" width="11.67" height="3.12" transform="translate(209.45 96.92) rotate(168.48)" fill="#e6e6e6" opacity="0.5"></rect></svg>