<svg width="406" height="306" viewBox="0 0 406 306" fill="none" xmlns="http://www.w3.org/2000/svg">
<path d="M356.143 102.23L311.239 167.678L309.341 152.95L177.615 239.946L174.113 197.204L74.8561 256.186L63.0923 226.761L200.127 154.706L204.137 193.388L305.606 123.901L304.053 111.883L356.143 102.23Z" fill="#E6E6E6"/>
<path d="M328.393 140.362L327.804 140.748L328.251 140.027L328.393 140.362Z" fill="#E6E6E6"/>
<path opacity="0.45" d="M189.125 277.235C266.041 277.235 328.393 273.491 328.393 268.871C328.393 264.252 266.041 260.508 189.125 260.508C112.209 260.508 49.8567 264.252 49.8567 268.871C49.8567 273.491 112.209 277.235 189.125 277.235Z" fill="#E6E6E6"/>
<path d="M289.823 147.032C290.449 147.901 290.862 148.906 291.027 149.965C291.191 151.024 291.104 152.106 290.772 153.125C290.44 154.144 289.872 155.07 289.114 155.827C288.357 156.585 287.431 157.154 286.413 157.487C281.632 159.1 273.989 160.268 263.626 157.487C244.767 152.412 238.19 121.028 238.19 121.028C238.19 121.028 234.638 115.75 237.297 113.486C239.956 111.223 242.118 119.485 242.118 119.485C242.118 119.485 246.016 134.537 260.094 140.039C271.533 144.505 284.352 139.481 289.823 147.032Z" fill="#F4A28C"/>
<path opacity="0.09" d="M289.823 147.032C290.449 147.901 290.862 148.906 291.027 149.965C291.191 151.024 291.104 152.106 290.772 153.125C290.44 154.144 289.872 155.07 289.114 155.827C288.357 156.585 287.431 157.154 286.413 157.487C281.632 159.1 273.989 160.268 263.626 157.487C244.767 152.412 238.19 121.028 238.19 121.028C238.19 121.028 234.638 115.75 237.297 113.486C239.956 111.223 242.118 119.485 242.118 119.485C242.118 119.485 246.016 134.537 260.094 140.039C271.533 144.505 284.352 139.481 289.823 147.032Z" fill="black"/>
<path d="M294.533 213.82L276.263 262.428L272.67 262.225L278.942 211.414L294.533 213.82Z" fill="#F4A28C"/>
<path d="M307.301 208.52L303.049 228.536L317.045 218.761L319.451 221.908C319.451 221.908 305.018 242.715 294.543 239.64C284.068 236.564 292.594 204.176 292.594 204.176L307.301 208.52Z" fill="#F4A28C"/>
<path d="M289.559 124.904L293.254 141.479L283.967 142.86L285.012 130.243L289.559 124.904Z" fill="#F4A28C"/>
<path opacity="0.31" d="M284.667 132.995C285.818 132.623 286.832 131.916 287.58 130.965C287.58 130.965 287.641 134.071 284.423 137.349L284.667 132.995Z" fill="#CE8172"/>
<path d="M280.028 124.834C280.129 127.714 280.613 130.567 281.47 133.319C281.593 133.639 281.779 133.932 282.016 134.18C282.252 134.429 282.536 134.628 282.85 134.767C283.164 134.905 283.502 134.98 283.845 134.988C284.189 134.996 284.53 134.936 284.85 134.811C285.903 134.471 286.835 133.834 287.535 132.977C288.236 132.12 288.674 131.079 288.798 129.98L289.813 125.301C289.915 124.341 289.717 123.374 289.246 122.533C288.775 121.691 288.055 121.016 287.184 120.601C284.028 118.865 279.775 121.677 280.028 124.834Z" fill="#F4A28C"/>
<path d="M286.027 128.639C286.027 128.639 285.834 126.609 287.336 126.609C288.839 126.609 289.143 129.451 287.154 129.959L286.027 128.639Z" fill="#F4A28C"/>
<path d="M280.302 128.092L279.125 130.244C279.056 130.366 279.019 130.504 279.018 130.645C279.017 130.785 279.051 130.924 279.118 131.047C279.185 131.171 279.282 131.276 279.401 131.352C279.519 131.428 279.655 131.473 279.795 131.482L281.825 131.614L280.302 128.092Z" fill="#F4A28C"/>
<path d="M283.967 142.851C283.967 142.851 261.373 151.377 267.513 166.937C271.959 178.203 277.897 176.133 279.389 185.116L280.962 193.956L303.952 187.095C303.952 187.095 301.252 174.154 302.744 165.567C304.236 156.98 308.783 135.624 283.967 142.851Z" fill="#9ED6BE"/>
<path opacity="0.09" d="M290.016 147.854C290.016 147.854 281.246 160.145 289.001 172.701C290.31 174.822 291.467 177.055 292.584 179.288L297.456 189.052L303.972 187.104L303.069 181.673L290.016 147.854Z" fill="black"/>
<path d="M287.336 126.609C287.336 126.609 283.337 142.626 288.696 144.798C294.056 146.97 302.774 145.102 303.008 138.474C303.241 131.846 296.684 131.156 295.334 122.133C293.985 113.11 276.73 116.236 277.298 121.453C277.866 126.67 287.336 126.609 287.336 126.609Z" fill="#FFD200"/>
<path d="M303.952 187.104L280.962 193.965L276.669 221.005L307.484 220.609C307.484 220.609 315.391 200.309 303.952 187.104Z" fill="#24285B"/>
<path d="M272.933 262.234C272.933 262.234 270.812 264.64 268.285 264.366C265.757 264.092 265.179 267.665 269.3 267.523C270.575 267.485 271.844 267.343 273.096 267.096C274.247 266.896 275.431 267.004 276.526 267.411C276.741 267.471 276.969 267.466 277.181 267.395C277.393 267.324 277.578 267.192 277.714 267.015C278.952 265.716 276.283 262.427 276.283 262.427L272.933 262.234Z" fill="#9ED6BE"/>
<path d="M319.126 222.019C319.126 222.019 322.323 222.131 323.734 224.252C325.145 226.374 328.251 224.537 325.531 221.471C324.695 220.507 323.775 219.621 322.78 218.822C321.896 218.055 321.225 217.073 320.831 215.97C320.748 215.771 320.606 215.601 320.425 215.484C320.244 215.366 320.032 215.306 319.816 215.31C318.03 215.178 317.086 218.802 317.086 218.802L319.126 222.019Z" fill="#9ED6BE"/>
<path d="M117.74 262.326C117.74 262.326 119.344 264.914 121.922 264.579C124.5 264.245 125.677 266.609 123.546 267.716C121.414 268.822 114.929 267.178 114.929 267.178L114.147 262.509L117.74 262.326Z" fill="#9ED6BE"/>
<path d="M133.219 153.517C133.219 153.517 158.756 137.135 168.409 120.165L165.161 116.592C165.161 116.592 143.206 136.019 123.962 139.368L133.219 153.517Z" fill="#F4A28C"/>
<path d="M168.409 120.165C168.46 120.165 170.439 117.679 170.51 117.506C171.306 116.403 171.803 115.113 171.951 113.761C171.911 112.973 171.655 112.212 171.211 111.56C170.767 110.908 170.152 110.391 169.434 110.066C169.123 109.875 168.76 109.785 168.396 109.811C168.032 109.836 167.685 109.975 167.404 110.208C167.225 110.423 167.091 110.672 167.008 110.939C166.795 111.514 166.616 112.1 166.47 112.695C166.367 112.251 166.218 111.819 166.024 111.406C165.942 111.233 165.831 111.041 165.638 111.01C165.548 111 165.457 111.02 165.378 111.065C165.3 111.111 165.238 111.181 165.202 111.264C165.132 111.431 165.097 111.611 165.1 111.792C165.049 112.807 164.978 113.822 164.948 114.837C164.974 115.202 165.024 115.565 165.1 115.923C165.1 116.055 165.1 116.491 165.202 116.603L168.409 120.165Z" fill="#F4A28C"/>
<path d="M98.5972 160.663C107.864 163.819 122.957 165.443 139.086 152.654L134.751 134.191C134.751 134.191 108.818 137.774 96.1815 148.401C95.2163 149.229 94.4882 150.298 94.0717 151.499C93.6552 152.7 93.5652 153.99 93.8109 155.237C94.0566 156.484 94.6293 157.644 95.4702 158.597C96.3112 159.55 97.3903 160.263 98.5972 160.663Z" fill="#9ED6BE"/>
<path opacity="0.46" d="M98.5972 160.663C107.864 163.819 122.957 165.443 139.086 152.654L134.751 134.191C134.751 134.191 108.818 137.774 96.1815 148.401C95.2163 149.229 94.4882 150.298 94.0717 151.499C93.6552 152.7 93.5652 153.99 93.8109 155.237C94.0566 156.484 94.6293 157.644 95.4702 158.597C96.3112 159.55 97.3903 160.263 98.5972 160.663Z" fill="white"/>
<path d="M114.238 122.317C115.064 124.657 115.569 127.098 115.74 129.574C115.74 130.17 115.504 130.741 115.084 131.164C114.664 131.586 114.093 131.825 113.497 131.827C112.546 131.883 111.599 131.663 110.77 131.195C109.94 130.728 109.263 130.031 108.818 129.188L106.575 125.747C106.192 125.011 106.048 124.174 106.163 123.351C106.277 122.529 106.645 121.763 107.214 121.16C109.173 118.774 113.467 119.708 114.238 122.317Z" fill="#F4A28C"/>
<path d="M106.961 126.367L108.341 140.922L116.309 139.582L112.107 129.534L106.961 126.367Z" fill="#F4A28C"/>
<path d="M113.213 122.773C111.877 123.101 110.521 123.342 109.153 123.494C109.69 123.983 110.072 124.618 110.252 125.322C110.432 126.025 110.403 126.766 110.168 127.453C109.941 128.112 109.494 128.673 108.903 129.042C108.312 129.412 107.612 129.567 106.92 129.483C106.708 128.84 106.548 128.182 106.443 127.514C106.179 126.762 105.773 125.93 104.931 125.737C104.405 125.725 103.881 125.66 103.368 125.544C103.209 125.467 103.069 125.357 102.957 125.221C102.845 125.085 102.763 124.927 102.717 124.756C102.671 124.586 102.662 124.408 102.69 124.235C102.718 124.061 102.783 123.895 102.88 123.748C103.185 123.342 103.763 123.058 103.743 122.56C103.723 122.063 103.246 121.87 102.931 121.545C102.652 121.228 102.471 120.837 102.409 120.419C102.348 120.001 102.409 119.574 102.586 119.191C102.958 118.431 103.5 117.768 104.169 117.252C104.303 117.166 104.398 117.031 104.433 116.876C104.433 116.643 104.22 116.491 104.068 116.318C103.902 116.093 103.813 115.821 103.813 115.542C103.813 115.262 103.902 114.99 104.068 114.765C104.41 114.308 104.875 113.956 105.408 113.75C106.821 113.173 108.319 112.831 109.843 112.735C110.523 112.613 111.222 112.669 111.873 112.898C112.186 113.014 112.453 113.228 112.636 113.507C112.819 113.787 112.907 114.117 112.888 114.45C112.797 115.08 112.188 115.618 112.31 116.247C112.432 116.876 113.244 117.13 113.903 117.14C114.566 117.036 115.243 117.184 115.801 117.556C116.481 118.216 115.933 119.505 115.03 119.8C114.851 119.84 114.682 119.916 114.533 120.023C114.269 120.266 114.38 120.723 114.593 121.038C114.841 121.308 115.025 121.631 115.131 121.982C115.243 122.814 113.924 122.611 113.447 122.692L113.213 122.773Z" fill="#FFD200"/>
<path d="M110.635 127.199C110.635 127.199 110.178 125.545 108.96 126.002C107.742 126.458 108.392 128.844 110.148 128.63L110.635 127.199Z" fill="#F4A28C"/>
<path d="M115.04 125.016L116.674 126.376C116.766 126.452 116.837 126.551 116.88 126.662C116.924 126.773 116.938 126.893 116.923 127.011C116.908 127.129 116.863 127.242 116.793 127.339C116.723 127.435 116.63 127.512 116.522 127.563L114.949 128.304L115.04 125.016Z" fill="#F4A28C"/>
<path opacity="0.31" d="M113.122 131.685C112.085 131.693 111.068 131.396 110.198 130.832C111.022 132.779 112.552 134.342 114.482 135.207L113.122 131.685Z" fill="#CE8172"/>
<path d="M87.6149 149.285C89.8963 145.191 93.4119 141.923 97.6605 139.945C101.909 137.968 106.674 137.382 111.275 138.272L114.797 138.922C114.797 138.922 139.674 142.566 138.142 165.484C136.993 179.652 131.991 193.235 123.678 204.765L90.0915 200.948C90.0915 200.948 77.3939 168.225 87.6149 149.285Z" fill="#9ED6BE"/>
<path d="M118.755 262.621L123.678 204.766L90.0915 200.949L78.9976 263.169H85.2601L106.26 222.802C106.504 220.691 112.99 263.169 112.99 263.169L118.755 262.621Z" fill="#24285B"/>
<path opacity="0.08" d="M104.829 149.325C104.829 149.325 107.062 166.854 102.86 182.871C98.658 198.887 102.86 202.44 102.86 202.44L90.0914 200.988C90.0914 200.988 87.29 193.883 86.7825 190.28C86.275 186.677 86.5795 147.254 104.829 149.325Z" fill="black"/>
<path d="M88.7314 159.365C95.6029 166.338 108.382 174.539 128.519 170.306L125.941 148.047C125.941 148.047 108.108 143.47 92.0707 147.377C90.8459 147.687 89.7246 148.315 88.8206 149.197C87.9165 150.079 87.2618 151.185 86.9228 152.402C86.5837 153.619 86.5725 154.904 86.8901 156.127C87.2077 157.349 87.8429 158.466 88.7314 159.365Z" fill="#9ED6BE"/>
<path opacity="0.46" d="M88.7314 159.365C95.6029 166.338 108.382 174.539 128.519 170.306L125.941 148.047C125.941 148.047 108.108 143.47 92.0707 147.377C90.8459 147.687 89.7246 148.315 88.8206 149.197C87.9165 150.079 87.2618 151.185 86.9228 152.402C86.5837 153.619 86.5725 154.904 86.8901 156.127C87.2077 157.349 87.8429 158.466 88.7314 159.365Z" fill="white"/>
<path d="M128.276 168.225C128.276 168.225 158.452 164.997 174.671 154.137L173.362 149.488C173.362 149.488 145.044 157.04 126.327 151.437L128.276 168.225Z" fill="#F4A28C"/>
<path d="M174.671 154.116C176.107 153.493 177.498 152.77 178.833 151.954C179.768 151.344 180.502 150.472 180.944 149.447C181.098 148.79 181.112 148.107 180.984 147.445C180.856 146.782 180.59 146.153 180.203 145.6C180.047 145.344 179.814 145.143 179.537 145.026C179.26 144.91 178.953 144.883 178.66 144.951C178.345 145.087 178.067 145.295 177.848 145.559C177.3 146.158 176.752 146.757 176.214 147.366C176.213 146.809 176.145 146.253 176.011 145.712C176.011 145.6 175.93 145.458 175.808 145.448C175.734 145.447 175.662 145.472 175.605 145.519C174.174 146.473 172.469 148.351 172.926 149.965C173.261 151.172 174.336 152.918 174.671 154.116Z" fill="#F4A28C"/>
<path d="M79.9616 263.086C79.9616 263.086 78.3478 265.674 75.7798 265.339C73.2119 265.004 72.0142 267.369 74.1558 268.476C76.2975 269.582 82.7732 267.938 82.7732 267.938L83.5547 263.269L79.9616 263.086Z" fill="#9ED6BE"/>
<path d="M298.045 145.651C299.076 145.941 300.024 146.47 300.813 147.195C301.601 147.921 302.208 148.821 302.583 149.824C302.959 150.828 303.093 151.905 302.975 152.97C302.856 154.035 302.489 155.057 301.902 155.953C299.171 160.196 293.934 165.88 284.099 170.163C266.204 177.968 241.469 157.536 241.469 157.536C241.469 157.536 235.379 155.628 236.059 152.207C236.739 148.787 243.57 153.882 243.57 153.882C243.57 153.882 256.014 163.21 270.437 158.724C282.17 155.09 289.062 143.164 298.045 145.651Z" fill="#F4A28C"/>
<path d="M158.553 89.5024C159.133 90.6153 159.93 91.6006 160.897 92.3996C161.864 93.1987 162.982 93.7953 164.184 94.1541C165.387 94.5129 166.649 94.6265 167.896 94.4883C169.143 94.35 170.349 93.9627 171.444 93.3493C181.127 87.9089 197.235 80.9257 202.665 69.2938C209.709 54.2109 178.985 34.4082 178.985 34.4082L174.55 39.4832C174.55 39.4832 214.368 64.5537 164.318 74.3789C157.944 75.6375 155.539 83.7778 158.553 89.5329V89.5024Z" fill="#9ED6BE"/>
<path opacity="0.46" d="M158.553 89.5024C159.133 90.6153 159.93 91.6006 160.897 92.3996C161.864 93.1987 162.982 93.7953 164.184 94.1541C165.387 94.5129 166.649 94.6265 167.896 94.4883C169.143 94.35 170.349 93.9627 171.444 93.3493C181.127 87.9089 197.235 80.9257 202.665 69.2938C209.709 54.2109 178.985 34.4082 178.985 34.4082L174.55 39.4832C174.55 39.4832 214.368 64.5537 164.318 74.3789C157.944 75.6375 155.539 83.7778 158.553 89.5329V89.5024Z" fill="white"/>
<path d="M247.477 95.9478C247.477 95.9478 249.639 94.5877 249.355 92.4257C249.071 90.2638 251.03 89.2386 251.984 91.0352C252.938 92.8317 251.578 98.3026 251.578 98.3026L247.64 98.9826L247.477 95.9478Z" fill="#9ED6BE"/>
<path d="M250.624 141.704C250.624 141.704 253.009 142.638 254.582 141.115C256.155 139.593 258.135 140.557 257.262 142.404C256.389 144.251 251.172 146.393 251.172 146.393L248.279 143.642L250.624 141.704Z" fill="#9ED6BE"/>
<path d="M140.862 70.785C142.849 72.2295 144.631 73.9368 146.16 75.86C146.483 76.3426 146.603 76.9334 146.492 77.5037C146.382 78.074 146.051 78.5776 145.571 78.905C144.828 79.4799 143.935 79.8286 142.999 79.9096C142.063 79.9906 141.124 79.8004 140.293 79.3618L136.538 77.8088C135.822 77.4242 135.242 76.8276 134.879 76.1007C134.515 75.3738 134.386 74.5523 134.508 73.7488C134.772 70.7038 138.781 69.0798 140.862 70.785Z" fill="#F4A28C"/>
<path d="M137.177 78.1139L146.393 89.2078L152.148 83.6964L143.135 77.8398L137.177 78.1139Z" fill="#F4A28C"/>
<path d="M140.283 71.7091C139.427 72.77 138.449 73.7272 137.37 74.5612C138.082 74.6549 138.75 74.9561 139.292 75.4272C139.833 75.8983 140.224 76.5185 140.415 77.2104C140.602 77.8756 140.557 78.5846 140.288 79.221C140.019 79.8573 139.541 80.3832 138.933 80.7121L134.731 76.9262C134.111 76.4078 133.644 75.7307 133.38 74.9673C133.115 74.2038 133.063 73.3828 133.229 72.5921C133.364 71.9035 133.547 71.2252 133.777 70.5621C134.356 68.9077 136.751 67.8318 136.883 66.0048C136.883 65.8154 136.937 65.6299 137.037 65.4693C137.138 65.3087 137.281 65.1794 137.451 65.096C137.621 65.0126 137.811 64.9784 137.999 64.9973C138.188 65.0162 138.367 65.0874 138.517 65.2029C139.979 66.1469 141.806 68.1566 140.984 70.5317C140.817 70.9603 140.58 71.3582 140.283 71.7091Z" fill="#24285B"/>
<path d="M140.608 76.7741C140.608 76.7741 139.319 75.6779 138.578 76.7233C137.837 77.7688 139.694 79.3522 141.004 78.2052L140.608 76.7741Z" fill="#F4A28C"/>
<path d="M143.013 72.5312L145.043 72.7241C145.155 72.7378 145.262 72.7783 145.355 72.8423C145.448 72.9062 145.524 72.9916 145.577 73.0913C145.63 73.1909 145.658 73.3019 145.659 73.4147C145.659 73.5275 145.633 73.6388 145.581 73.7391L144.719 75.2108L143.013 72.5312Z" fill="#F4A28C"/>
<path opacity="0.31" d="M145.145 79.0371C144.305 79.6163 143.313 79.9374 142.293 79.9608C144.039 81.0855 146.145 81.5096 148.19 81.1483L145.145 79.0371Z" fill="#CE8172"/>
<path d="M146.394 89.2082L150.311 85.4527C151.266 84.5405 152.167 83.5747 153.011 82.5599C155.701 79.2916 164.511 70.319 177.524 74.582C193.297 79.7382 202.31 110.371 202.31 110.371L184.314 131.026C184.314 131.026 121.8 119.354 146.394 89.2082Z" fill="#9ED6BE"/>
<path d="M175.382 38.4974C175.382 38.4974 168.409 35.3814 167.861 32.4074C167.313 29.4335 173.24 33.9807 173.24 33.9807C173.24 33.9807 176.021 28.723 178.985 34.3765L175.382 38.4974Z" fill="#F4A28C"/>
<path d="M173.768 34.9445C173.768 34.9445 168.997 29.8695 170.53 28.8545C172.063 27.8395 175.757 33.6961 175.757 33.6961L173.768 34.9445Z" fill="#F4A28C"/>
<path d="M184.314 131.006C184.314 131.006 197.6 142.09 205.548 131.808C213.495 121.526 214.865 97.5108 247.792 99.7336L247.528 94.2831C247.528 94.2831 221.676 84.2041 200.97 106.382L184.314 131.006Z" fill="#24285B"/>
<path d="M194.931 135.471C194.931 135.471 220.306 117.86 245.985 145.428L250.624 141.703C250.624 141.703 235.399 111.608 196.433 116.054L194.931 135.471Z" fill="#24285B"/>
<path opacity="0.08" d="M159.497 96.1602C159.497 96.1602 165.465 99.2052 169.241 110.37C173.017 121.535 192.505 118.967 192.505 118.967L184.314 131.066C184.314 131.066 164.105 126.783 153.204 119.789C142.303 112.796 159.213 96.8402 159.213 96.8402L159.497 96.1602Z" fill="black"/>
<path d="M146.485 113.079C161.273 119.342 194.596 127.797 201.792 81.0863L195.154 78.498C195.154 78.498 181.959 109.79 156.097 95.4993C155.135 94.954 154.138 94.4725 153.113 94.058C148.515 92.231 137.055 88.7699 137.198 99.5796C137.273 102.487 138.19 105.311 139.839 107.707C141.487 110.103 143.796 111.97 146.485 113.079Z" fill="#9ED6BE"/>
<path opacity="0.46" d="M146.485 113.079C161.273 119.342 194.596 127.797 201.792 81.0863L195.154 78.498C195.154 78.498 181.959 109.79 156.097 95.4993C155.135 94.954 154.138 94.4725 153.113 94.058C148.515 92.231 137.055 88.7699 137.198 99.5796C137.273 102.487 138.19 105.311 139.839 107.707C141.487 110.103 143.796 111.97 146.485 113.079Z" fill="white"/>
<path d="M196.332 78.9566C196.758 76.649 197.811 74.5034 199.377 72.7549C201.782 70.3595 204.238 70.7249 205.598 72.5925C206.959 74.4601 200.97 77.5559 200.97 77.5559L200.848 80.7125L196.332 78.9566Z" fill="#F4A28C"/>
<path opacity="0.5" d="M102.05 97.3507L87.771 105.748L90.0195 109.571L104.298 101.174L102.05 97.3507Z" fill="#E6E6E6"/>
<path opacity="0.5" d="M267.096 98.7969L283.117 94.5879L281.99 90.2979L265.969 94.507L267.096 98.7969Z" fill="#E6E6E6"/>
<path opacity="0.5" d="M227.339 67.4941L238.61 71.1387L239.584 68.1255L228.314 64.4809L227.339 67.4941Z" fill="#E6E6E6"/>
<path opacity="0.5" d="M273.771 61.7785L268.711 72.4883L271.574 73.8411L276.634 63.1313L273.771 61.7785Z" fill="#E6E6E6"/>
<path opacity="0.5" d="M217.15 146.407L212.09 157.117L214.953 158.47L220.014 147.76L217.15 146.407Z" fill="#E6E6E6"/>
<path opacity="0.5" d="M304.052 79.8117L315.786 81.4336L316.22 78.2966L304.486 76.6747L304.052 79.8117Z" fill="#E6E6E6"/>
<path opacity="0.5" d="M114.497 83.4475L125.907 86.6289L126.757 83.5785L115.347 80.3971L114.497 83.4475Z" fill="#E6E6E6"/>
<path opacity="0.5" d="M153.292 60.2699L164.898 57.9043L164.266 54.8013L152.66 57.1669L153.292 60.2699Z" fill="#E6E6E6"/>
<path opacity="0.5" d="M95.8499 63.3968L107.456 61.0312L106.824 57.9282L95.2174 60.2938L95.8499 63.3968Z" fill="#E6E6E6"/>
</svg>
