<svg width="406" height="306" viewBox="0 0 406 306" fill="none" xmlns="http://www.w3.org/2000/svg">
<path opacity="0.45" d="M203 253.719C294.457 253.719 368.597 248.498 368.597 242.057C368.597 235.616 294.457 230.395 203 230.395C111.543 230.395 37.4028 235.616 37.4028 242.057C37.4028 248.498 111.543 253.719 203 253.719Z" fill="#E6E6E6"/>
<path d="M311.889 70.4908L293.68 143.571L266.833 136.882C266.057 135.891 265.622 134.675 265.595 133.416C265.567 132.157 265.948 130.923 266.681 129.899C267.974 129.186 269.106 128.216 270.009 127.048C270.912 125.88 271.565 124.539 271.929 123.108C272.553 120.172 272.013 117.109 270.424 114.562C268.835 112.016 266.32 110.185 263.409 109.455C260.498 108.725 257.416 109.153 254.814 110.649C252.212 112.145 250.291 114.592 249.457 117.475C249.107 118.91 249.054 120.401 249.302 121.857C249.55 123.312 250.093 124.702 250.898 125.94C251.068 127.188 250.828 128.457 250.212 129.556C249.597 130.655 248.64 131.523 247.487 132.03L220.651 125.331L227.421 98.1901C226.86 97.142 225.994 96.2893 224.937 95.7454C223.88 95.2015 222.682 94.9922 221.503 95.1451C220.267 95.9537 218.878 96.4998 217.422 96.7494C215.965 96.9991 214.474 96.9471 213.038 96.5966C210.176 95.7472 207.752 93.8261 206.271 91.2335C204.79 88.641 204.367 85.5771 205.089 82.6801C205.811 79.7831 207.624 77.2766 210.148 75.6827C212.673 74.0889 215.715 73.5307 218.641 74.1245C220.072 74.4881 221.412 75.1415 222.58 76.0441C223.748 76.9467 224.719 78.0794 225.431 79.372C226.4 80.0644 227.556 80.4442 228.746 80.4605C229.936 80.4768 231.103 80.1289 232.09 79.4634L238.86 52.3223L311.889 70.4908Z" fill="#CCCCCC"/>
<path d="M319.654 75.7998C319.654 75.7998 309.118 90.1316 319.806 94.486C330.494 98.8403 331.408 82.9657 331.408 82.9657L326.586 72.3184L319.654 75.7998Z" fill="#FFD200"/>
<path d="M323.348 86.0918L336.848 86.5282C336.848 86.5282 377.367 96.9624 354.661 143.866C351.058 151.295 351.362 160.035 351.159 168.226L351.109 170.357H315.503L313.635 162.694C311.499 154.189 307.617 146.222 302.236 139.298C295.365 130.265 290.493 112.33 323.348 86.0918Z" fill="#9ED6BE"/>
<path d="M316.944 66.1669C317.061 69.1628 317.58 72.1294 318.487 74.9872C318.617 75.3196 318.811 75.6231 319.059 75.8802C319.306 76.1372 319.602 76.3429 319.929 76.4853C320.257 76.6277 320.609 76.7041 320.966 76.71C321.322 76.7159 321.677 76.6513 322.009 76.5199C323.102 76.1534 324.066 75.4799 324.786 74.5799C325.506 73.6799 325.951 72.5915 326.069 71.4449L327.084 66.5729C327.184 65.5762 326.974 64.5728 326.482 63.7005C325.989 62.8281 325.239 62.1296 324.333 61.7009C321.065 59.9348 316.68 62.8884 316.944 66.1669Z" fill="#F4A28C"/>
<path d="M326.921 67.4863L331.834 84.4571L322.293 86.4973L322.547 73.3226L326.921 67.4863Z" fill="#F4A28C"/>
<path opacity="0.31" d="M322.374 76.2045C323.536 75.7498 324.541 74.9669 325.267 73.9512C325.267 73.9512 325.531 77.1687 322.405 80.772L322.374 76.2045Z" fill="#CE8172"/>
<path d="M315.665 58.2608C315.046 58.8344 314.576 59.5508 314.297 60.3475C314.018 61.1442 313.938 61.9971 314.064 62.8318C314.19 63.6665 314.519 64.4577 315.021 65.1364C315.522 65.8151 316.183 66.3608 316.944 66.7259C318.2 67.3555 319.54 67.8 320.923 68.0454C326.718 69.1619 323.856 94.6891 336.077 91.096C348.297 87.5029 344.369 82.2046 338.827 77.4544C333.285 72.7042 330.961 63.8534 328.86 59.3976C327.297 56.1597 319.41 54.9925 315.665 58.2608Z" fill="#FFD200"/>
<path d="M346.48 182.121L348.176 237.997L344.572 239.093L332.413 186.415L346.48 182.121Z" fill="#F4A28C"/>
<path d="M348.074 237.174C348.074 237.174 350.307 239.732 352.976 239.478C355.646 239.224 356.234 242.99 351.9 242.807C350.553 242.755 349.212 242.592 347.891 242.32C346.671 242.096 345.413 242.201 344.247 242.624C344.019 242.686 343.778 242.678 343.555 242.6C343.332 242.522 343.138 242.378 342.999 242.188C341.7 240.808 344.552 237.346 344.552 237.346L348.074 237.174Z" fill="#9ED6BE"/>
<path d="M318.416 182.201L305.535 236.605L308.834 238.402L331.326 189.235L318.416 182.201Z" fill="#F4A28C"/>
<path d="M305.799 235.824C305.799 235.824 303.099 237.854 300.531 237.083C297.964 236.311 296.634 239.874 300.917 240.564C302.259 240.788 303.617 240.897 304.977 240.889C306.213 240.917 307.42 241.267 308.479 241.904C308.689 242.009 308.927 242.049 309.16 242.019C309.393 241.988 309.612 241.888 309.788 241.732C311.341 240.635 309.24 236.657 309.24 236.657L305.799 235.824Z" fill="#9ED6BE"/>
<path opacity="0.08" d="M335.732 104.615C335.732 104.615 331.002 123.21 338.695 135.867C346.389 148.524 332.413 166.561 332.413 166.561L351.251 165.901C351.251 165.901 352.398 148.585 356.773 133.736C361.147 118.886 335.732 104.615 335.732 104.615Z" fill="black"/>
<path d="M314.731 167.179L351.251 165.9L357.828 226.628H331.834L331.408 181.278L314.731 167.179Z" fill="#24285B"/>
<path d="M314.731 167.18L297.222 224.71L322.029 226.628L336.28 174.65L314.731 167.18Z" fill="#24285B"/>
<path d="M340.583 88.7005C342.21 88.4359 343.875 88.5584 345.446 89.058C347.016 89.5576 348.446 90.4202 349.621 91.5759C350.795 92.7316 351.681 94.1479 352.206 95.7098C352.73 97.2718 352.88 98.9354 352.641 100.566C351.626 108.249 347.952 119.567 337.021 131.929C317.127 154.401 269.411 141.937 269.411 141.937C269.411 141.937 259.708 143.196 258.419 137.999C257.13 132.802 269.99 135.482 269.99 135.482C269.99 135.482 293.335 140.425 310.59 124.814C324.566 112.137 326.444 91.0857 340.583 88.7005Z" fill="#F4A28C"/>
<path d="M252.197 164.165C251.207 163.391 250.494 162.317 250.163 161.105C249.831 159.892 249.901 158.605 250.36 157.435C251.445 156.432 252.311 155.215 252.905 153.862C253.498 152.508 253.807 151.047 253.811 149.569C253.686 146.582 252.411 143.758 250.253 141.688C248.095 139.618 245.22 138.463 242.23 138.463C239.24 138.463 236.365 139.618 234.207 141.688C232.049 143.758 230.774 146.582 230.649 149.569C230.655 151.047 230.965 152.507 231.558 153.86C232.152 155.213 233.017 156.43 234.1 157.435C234.567 158.603 234.641 159.892 234.311 161.106C233.982 162.32 233.266 163.393 232.273 164.165H204.604V191.834C205.373 192.83 206.446 193.549 207.66 193.881C208.875 194.212 210.164 194.139 211.333 193.671C212.34 192.59 213.557 191.726 214.91 191.133C216.263 190.54 217.722 190.229 219.199 190.22C222.187 190.345 225.011 191.62 227.08 193.778C229.15 195.936 230.306 198.811 230.306 201.801C230.306 204.791 229.15 207.666 227.08 209.824C225.011 211.982 222.187 213.257 219.199 213.382C217.722 213.376 216.262 213.066 214.908 212.473C213.555 211.879 212.339 211.014 211.333 209.931C210.163 209.472 208.876 209.403 207.664 209.734C206.451 210.065 205.378 210.778 204.604 211.768V239.437H279.866V164.165H252.197Z" fill="#E6E6E6"/>
<path d="M230.243 201.821C230.311 204.812 229.192 207.709 227.13 209.877C225.068 212.046 222.231 213.309 219.24 213.392C217.762 213.385 216.302 213.075 214.949 212.482C213.596 211.888 212.379 211.023 211.374 209.941C210.204 209.481 208.917 209.412 207.704 209.743C206.492 210.074 205.419 210.788 204.644 211.778V239.447H129.331V164.164H157.173C158.103 164.953 158.763 166.014 159.061 167.196C159.36 168.379 159.282 169.625 158.837 170.762C157.754 171.764 156.888 172.979 156.295 174.331C155.701 175.682 155.392 177.141 155.386 178.618C155.511 181.605 156.786 184.429 158.945 186.499C161.103 188.568 163.977 189.724 166.967 189.724C169.958 189.724 172.832 188.568 174.99 186.499C177.149 184.429 178.424 181.605 178.549 178.618C178.543 177.141 178.234 175.682 177.64 174.331C177.047 172.979 176.181 171.764 175.098 170.762C174.647 169.626 174.566 168.378 174.864 167.194C175.163 166.01 175.827 164.95 176.762 164.164H204.604V191.833C205.373 192.83 206.446 193.548 207.66 193.88C208.875 194.211 210.164 194.138 211.333 193.67C212.34 192.589 213.557 191.726 214.91 191.132C216.263 190.539 217.722 190.228 219.199 190.219C222.202 190.294 225.052 191.558 227.123 193.733C229.194 195.909 230.316 198.818 230.243 201.821Z" fill="#CCCCCC"/>
<path d="M112.868 234.707C112.868 234.707 115.913 237.752 119.262 236.311C122.612 234.869 125.017 237.711 122.571 240.107C120.125 242.502 110.838 242.614 110.838 242.614L108.118 236.321L112.868 234.707Z" fill="#9ED6BE"/>
<path d="M61.1335 233.307C61.1335 233.307 59.6212 237.448 62.1485 240.148C64.6759 242.848 63.0823 246.299 60.0475 244.807C57.0126 243.315 53.4297 234.302 53.4297 234.302L57.9363 229.277L61.1335 233.307Z" fill="#9ED6BE"/>
<path d="M52.8917 155.477C52.8917 155.477 49.6437 168.996 55.2871 175.645C60.9305 182.293 69.5783 213.788 55.2871 229.541L60.9001 235.144C60.9001 235.144 85.6458 221.847 78.5915 173.899L96.2525 155.477H52.8917Z" fill="#24285B"/>
<path d="M96.293 155.477L114.441 235.144L105.367 236.545C105.367 236.545 87.2189 181.948 75.2419 170.742L96.293 155.477Z" fill="#24285B"/>
<path d="M100.485 85.4316C100.485 85.4316 119.405 93.5009 116.512 123.048L98.0288 121.464L100.485 85.4316Z" fill="#9ED6BE"/>
<path opacity="0.36" d="M100.485 85.4316C100.485 85.4316 119.405 93.5009 116.512 123.048L98.0288 121.464L100.485 85.4316Z" fill="white"/>
<path d="M80.8246 60.127L75.5872 78.6101L85.9808 80.772L85.6255 66.4504L80.8246 60.127Z" fill="#F4A28C"/>
<path opacity="0.31" d="M85.8386 69.5864C84.566 69.0993 83.4623 68.253 82.6617 67.1504C82.6617 67.1504 82.3978 70.6521 85.8285 74.5599L85.8386 69.5864Z" fill="#CE8172"/>
<path d="M75.5871 78.611L81.7481 79.9203C81.7481 79.9203 109.965 82.9653 111.112 98.8805C112.259 114.796 96.3134 155.497 96.3134 155.497H53.5616C53.5616 155.497 19.285 74.4089 75.5871 78.611Z" fill="#9ED6BE"/>
<path d="M133.229 111.457C133.649 114.427 135.231 117.108 137.627 118.913C140.023 120.717 143.037 121.496 146.008 121.079C147.464 120.833 148.853 120.291 150.091 119.486C151.329 118.681 152.389 117.631 153.204 116.4C154.227 115.79 155.413 115.508 156.601 115.591C157.79 115.675 158.924 116.12 159.852 116.867L164.43 144.465L136.913 148.941C136.121 149.869 135.64 151.022 135.536 152.238C135.432 153.454 135.712 154.672 136.335 155.721C137.567 156.536 138.62 157.595 139.426 158.833C140.233 160.07 140.777 161.461 141.024 162.918C141.392 165.889 140.595 168.888 138.801 171.285C137.007 173.683 134.354 175.293 131.4 175.778C128.445 176.264 125.417 175.587 122.95 173.89C120.483 172.192 118.769 169.606 118.166 166.673C117.933 165.214 118.001 163.722 118.368 162.29C118.734 160.858 119.391 159.517 120.298 158.35C120.552 157.158 120.427 155.917 119.941 154.8C119.455 153.682 118.632 152.745 117.588 152.118L90.1116 156.635L77.9316 82.3773L152.209 70.1973L156.746 97.8154C156.101 98.8144 155.167 99.5932 154.068 100.048C152.969 100.503 151.758 100.613 150.595 100.363C149.428 99.4567 148.087 98.7998 146.655 98.4331C145.224 98.0665 143.732 97.9979 142.272 98.2316C140.81 98.5047 139.415 99.0637 138.168 99.8765C136.922 100.689 135.848 101.74 135.007 102.968C134.167 104.197 133.578 105.579 133.273 107.036C132.968 108.492 132.953 109.995 133.229 111.457Z" fill="#E6E6E6"/>
<path d="M91.5937 60.6353C91.5937 60.6353 91.076 66.4715 89.4216 70.1255C89.2617 70.4786 89.0336 70.7967 88.7504 71.0615C88.4672 71.3262 88.1345 71.5324 87.7714 71.6682C87.4083 71.804 87.0219 71.8668 86.6345 71.8529C86.2471 71.8389 85.8663 71.7486 85.5138 71.5871C84.3459 71.1373 83.3328 70.3596 82.5963 69.3476C81.8598 68.3357 81.4314 67.1325 81.3625 65.8828L80.5302 60.5338C80.4749 59.4444 80.7598 58.3649 81.3454 57.4447C81.931 56.5245 82.7883 55.8092 83.7985 55.3979C87.4728 53.6622 92.091 57.1234 91.5937 60.6353Z" fill="#F4A28C"/>
<path opacity="0.09" d="M62.9299 86.0098C62.9299 86.0098 77.5561 94.5053 74.1558 113.719C70.7556 132.933 65.1223 139.541 77.2008 136.861C89.2793 134.182 94.2224 128.122 94.2224 128.122C94.2224 128.122 102.901 135.227 94.2224 140.576C85.5441 145.925 73.7701 145.935 71.8924 155.446H53.5615C53.5615 155.446 52.0796 151.284 50.1105 146.037C48.1414 140.789 62.9299 86.0098 62.9299 86.0098Z" fill="black"/>
<path d="M90.1219 60.6354C88.3225 60.3928 86.5578 59.9397 84.8642 59.2854C85.2403 60.1604 85.3523 61.1262 85.1863 62.064C85.0204 63.0018 84.5838 63.8706 83.9304 64.5634C83.3097 65.2489 82.4697 65.6968 81.5547 65.8302C80.6396 65.9635 79.7067 65.774 78.9163 65.2942L80.3271 57.8847C80.4963 56.8211 80.9497 55.823 81.6393 54.9958C82.329 54.1686 83.2292 53.5431 84.245 53.1853C85.1246 52.8721 86.0229 52.6145 86.9348 52.4139C89.2591 51.9267 92.5477 52.8605 93.8368 54.9311C94.3857 55.8365 94.5591 56.9205 94.3202 57.9519C94.0813 58.9834 93.4489 59.8808 92.5579 60.4527C91.7827 60.7571 90.9338 60.8208 90.1219 60.6354Z" fill="#FFD200"/>
<path d="M84.5799 64.5131C84.5799 64.5131 84.9352 62.2902 83.23 62.1583C81.5248 62.0263 80.997 65.2033 83.23 65.9544L84.5799 64.5131Z" fill="#F4A28C"/>
<path d="M40.3969 120.003C40.3969 120.003 37.9913 144.688 50.1104 146.068C59.2454 147.083 73.9325 141.937 82.8949 139.39C86.7722 138.283 88.65 137.766 91.6341 135.045C95.2069 131.777 100.16 129.453 96.3031 126.357C89.462 120.846 84.6103 130.275 84.6103 130.275C78.8949 131.932 73.0049 132.913 67.0609 133.198C65.9472 133.226 64.8422 132.995 63.8338 132.521C62.8253 132.048 61.9411 131.346 61.2514 130.471C60.5617 129.596 60.0855 128.572 59.8606 127.481C59.6357 126.39 59.6684 125.261 59.9559 124.185L62.2194 115.679C62.2194 115.679 46.1621 100.627 40.3969 120.003Z" fill="#F4A28C"/>
<path d="M91.0759 64.3301L92.2939 66.8371C92.3621 66.9803 92.3932 67.1383 92.3842 67.2966C92.3752 67.4549 92.3265 67.6084 92.2426 67.7429C92.1586 67.8775 92.0421 67.9887 91.9039 68.0663C91.7656 68.1439 91.61 68.1855 91.4515 68.1871H89.1677L91.0759 64.3301Z" fill="#F4A28C"/>
<path d="M52.9932 84.1011C46.69 88.9427 37.2201 99.6306 37.4028 119.809L63.2954 121.463C63.2954 121.463 70.776 99.3058 62.93 86.0093C62.4432 85.1856 61.7869 84.4747 61.0045 83.9239C60.2221 83.3731 59.3315 82.9949 58.3919 82.8145C57.4522 82.634 56.4849 82.6554 55.5542 82.8773C54.6234 83.0991 53.7504 83.5163 52.9932 84.1011Z" fill="#9ED6BE"/>
<path opacity="0.36" d="M52.9932 84.1011C46.69 88.9427 37.2201 99.6306 37.4028 119.809L63.2954 121.463C63.2954 121.463 70.776 99.3058 62.93 86.0093C62.4432 85.1856 61.7869 84.4747 61.0045 83.9239C60.2221 83.3731 59.3315 82.9949 58.3919 82.8145C57.4522 82.634 56.4849 82.6554 55.5542 82.8773C54.6234 83.0991 53.7504 83.5163 52.9932 84.1011Z" fill="white"/>
<path d="M135.208 112.401C134.337 113.387 133.826 114.639 133.757 115.953C133.668 116.653 133.799 117.362 134.132 117.983C134.367 118.341 134.675 118.646 135.036 118.877C136.447 119.892 138.619 120.003 139.745 118.704C140.336 117.9 140.633 116.919 140.588 115.923C140.588 114.766 140.72 112.462 139.786 111.558C138.537 110.371 136.183 111.325 135.208 112.401Z" fill="#F4A28C"/>
</svg>
