<svg width="406" height="306" viewBox="0 0 406 306" fill="none" xmlns="http://www.w3.org/2000/svg">
<path d="M138.375 106.898C138.375 106.898 109.955 114.44 118.075 153.406C126.195 192.372 101.165 190.839 79.85 187.449L78.5 197.436C78.5 197.436 134.325 214.691 141.755 165.636C149.185 116.582 138.375 106.898 138.375 106.898Z" fill="#9ED6BE"/>
<path opacity="0.46" d="M138.375 106.898C138.375 106.898 109.955 114.44 118.075 153.406C126.195 192.372 101.165 190.839 79.85 187.449L78.5 197.436C78.5 197.436 134.325 214.691 141.755 165.636C149.185 116.582 138.375 106.898 138.375 106.898Z" fill="white"/>
<path opacity="0.45" d="M212.927 276.627C296.115 276.627 363.553 267.138 363.553 255.433C363.553 243.729 296.115 234.24 212.927 234.24C129.738 234.24 62.3008 243.729 62.3008 255.433C62.3008 267.138 129.738 276.627 212.927 276.627Z" fill="#E6E6E6"/>
<path d="M51.2068 129.32V153.203H66.6449L70.0147 162.704L74.0037 153.203H89.4418V129.32H51.2068Z" fill="#E6E6E6"/>
<path d="M140.507 80.0523C140.507 80.0523 139.004 85.4724 139.248 89.2989C139.272 89.6726 139.371 90.0376 139.538 90.3728C139.704 90.708 139.936 91.0066 140.22 91.2513C140.503 91.4959 140.832 91.6818 141.188 91.7979C141.544 91.9141 141.92 91.9582 142.293 91.9278C143.491 91.9179 144.662 91.5621 145.663 90.9031C146.664 90.2441 147.453 89.3099 147.936 88.2129L150.494 83.6961C150.904 82.7365 151.007 81.674 150.791 80.6532C150.575 79.6325 150.05 78.7032 149.286 77.9918C146.566 75.1701 141.247 76.7129 140.507 80.0523Z" fill="#F4A28C"/>
<path d="M149.398 84.8125L153.813 102.687L143.785 104.412L144.577 91.0548L149.398 84.8125Z" fill="#F4A28C"/>
<path d="M139.735 83.5137L137.797 85.3508C137.687 85.4557 137.606 85.5863 137.561 85.7308C137.515 85.8752 137.507 86.0287 137.536 86.1773C137.565 86.3259 137.631 86.4647 137.728 86.581C137.825 86.6973 137.95 86.7873 138.091 86.8429L140.121 87.6346L139.735 83.5137Z" fill="#F4A28C"/>
<path opacity="0.31" d="M144.556 91.4411C144.556 91.4411 147.977 89.8577 148.911 88.457C148.911 88.457 148.718 95.8158 144.171 97.9574L144.556 91.4411Z" fill="#CE8172"/>
<path d="M146.089 85.1474C146.089 85.1474 146.525 83.026 148.119 83.4929C149.712 83.9598 149.073 87.015 146.84 86.9033L146.089 85.1474Z" fill="#F4A28C"/>
<path d="M152.585 82.4381L151.418 84.4681C151.418 84.4681 150.007 89.6648 146.546 92.3444C143.085 95.024 138.223 94.4759 137.796 90.8219C137.319 86.63 140.131 87.6348 143.886 87.4623C147.642 87.2897 147.074 82.2554 147.074 82.2554C146.374 82.257 145.685 82.0877 145.066 81.7622C144.447 81.4367 143.916 80.9649 143.521 80.3877C142.475 78.9812 141.074 77.8778 139.461 77.1905C136.122 75.7796 140.192 71.4152 140.192 71.4152C137.959 70.187 139.674 67.5886 141.826 66.7969C143.978 66.0052 144.597 68.5326 146.241 69.0198C147.886 69.507 147.256 66.8883 150.382 67.5379C153.509 68.1875 151.834 70.522 153.752 72.2373C153.752 72.2373 155.945 70.5625 157.64 74.3688C158.655 76.5409 158.107 77.566 157.142 78.1344C155.274 79.1468 153.703 80.6305 152.585 82.4381Z" fill="#24285B"/>
<path d="M326.932 40.0703H185.958V64.8059H326.932V40.0703Z" fill="#A5A5A5"/>
<path d="M327.48 228.201H186.506V252.937H327.48V228.201Z" fill="#A5A5A5"/>
<path d="M176.752 210.783H126.428V252.936H176.752V210.783Z" fill="#A5A5A5"/>
<path d="M276.08 144.454C322.141 131.32 317.086 64.8066 317.086 64.8066H194.596C194.596 64.8066 191.419 127.737 236.952 143.276C237.502 143.474 237.975 143.84 238.306 144.322C238.636 144.805 238.806 145.379 238.791 145.963C238.776 146.547 238.578 147.112 238.224 147.577C237.87 148.042 237.379 148.384 236.82 148.554C190.759 161.688 195.804 228.201 195.804 228.201H318.294C318.294 228.201 321.461 165.271 275.938 149.732C275.383 149.538 274.904 149.173 274.57 148.689C274.236 148.206 274.065 147.628 274.081 147.041C274.096 146.453 274.299 145.886 274.658 145.421C275.017 144.956 275.515 144.617 276.08 144.454Z" fill="#E6E6E6"/>
<path d="M194.616 210.783H144.292V252.936H194.616V210.783Z" fill="#C9C9C9"/>
<path d="M235.277 91.3789C232.334 90.7408 229.269 90.9661 226.45 92.0276C223.632 93.0892 221.179 94.942 219.388 97.3633C217.597 99.7847 216.543 102.672 216.353 105.677C216.163 108.683 216.845 111.68 218.316 114.308C222.803 122.428 230.872 131.319 245.052 133.512C270.487 137.46 288.595 131.065 299.06 103.488C299.68 101.875 299.872 100.129 299.618 98.4199C299.364 96.7107 298.672 95.0963 297.61 93.7336C296.547 92.3708 295.15 91.306 293.555 90.6426C291.959 89.9793 290.219 89.7399 288.504 89.9478H288.189C277.795 91.4906 276.638 104.97 261.616 100.737C253.841 98.5854 244.321 93.2973 235.277 91.3789Z" fill="#C9C9C9"/>
<path d="M204.604 223.268C204.595 219.353 205.685 215.513 207.748 212.185C209.811 208.857 212.766 206.174 216.276 204.44C225.952 199.861 236.15 196.479 246.645 194.371C277.095 187.824 281.693 209.779 293.64 211.707C305.586 213.636 308.662 223.268 308.662 223.268H204.604Z" fill="#C9C9C9"/>
<path d="M248.421 133.979L251.598 201.303H258.916L256.988 133.979H248.421Z" fill="#C9C9C9"/>
<path d="M262.773 131.209V201.305H264.793L266.813 129.768L262.773 131.209Z" fill="#C9C9C9"/>
<path d="M143.389 244.451C143.389 244.451 141.988 248.328 138.487 248.623C134.985 248.917 134.061 252.348 137.218 253.241C140.375 254.134 148.495 250.084 148.495 250.084L148.271 245.009L143.389 244.451Z" fill="#9ED6BE"/>
<path d="M143.785 104.411L153.813 102.686C153.813 102.686 187.156 102.686 192.992 114.155C198.828 125.625 197.61 168.082 178.315 202.978L138.822 204.125C138.822 204.125 141.014 178.496 133.655 164.54C126.297 150.583 103.418 120.925 143.785 104.411Z" fill="#9ED6BE"/>
<path d="M178.315 202.979L159.03 200.066C156.24 199.645 153.391 199.869 150.701 200.719C148.01 201.569 145.55 203.024 143.509 204.971C141.467 206.919 139.899 209.308 138.922 211.955C137.946 214.602 137.589 217.438 137.878 220.244L140.405 244.777H149.885L149.063 221.807C149.015 220.522 149.253 219.243 149.759 218.06C150.265 216.878 151.027 215.823 151.99 214.971C152.953 214.119 154.093 213.49 155.328 213.132C156.563 212.773 157.862 212.692 159.132 212.896C167.323 214.225 177.513 213.647 178.315 202.979Z" fill="#24285B"/>
<path d="M123.729 244.451C123.729 244.451 122.328 248.328 118.826 248.623C115.324 248.917 114.401 252.348 117.557 253.241C120.714 254.134 128.834 250.084 128.834 250.084L128.601 245.009L123.729 244.451Z" fill="#9ED6BE"/>
<path opacity="0.08" d="M173.169 113.09C169.052 116.027 165.865 120.085 163.988 124.782C162.111 129.478 161.623 134.615 162.583 139.581C165.8 157.181 179.929 189.479 150.87 183.815L152.605 197.274L172.327 195.406L188.293 184.749L192.19 155.182L173.169 113.09Z" fill="black"/>
<path d="M158.655 202.979L139.37 200.066C136.58 199.645 133.731 199.869 131.04 200.719C128.35 201.569 125.89 203.024 123.849 204.971C121.807 206.919 120.238 209.308 119.262 211.955C118.286 214.602 117.929 217.438 118.217 220.244L120.744 244.777H130.214L129.402 221.807C129.355 220.522 129.593 219.243 130.099 218.06C130.605 216.878 131.367 215.823 132.33 214.971C133.293 214.119 134.433 213.49 135.668 213.132C136.902 212.773 138.201 212.692 139.471 212.896C147.662 214.225 157.843 213.647 158.655 202.979Z" fill="#24285B"/>
<path d="M171.078 118.835C172.002 108.685 184.598 104.381 191.327 112.014C194.535 115.648 197.093 120.966 197.6 128.772C199.123 152.33 218.113 221.837 143.805 199.893L145.693 191.154C145.693 191.154 168.439 196.229 180.365 184.81C190.282 175.33 168.734 144.484 171.078 118.835Z" fill="#9ED6BE"/>
<path opacity="0.46" d="M171.078 118.835C172.002 108.685 184.598 104.381 191.327 112.014C194.535 115.648 197.093 120.966 197.6 128.772C199.123 152.33 218.113 221.837 143.805 199.893L145.693 191.154C145.693 191.154 168.439 196.229 180.365 184.81C190.282 175.33 168.734 144.484 171.078 118.835Z" fill="white"/>
<path d="M123.079 201.374L110.868 167.92H146.789L154.25 199.385L163.161 200.907V205.221L123.079 201.374Z" fill="#FFD200"/>
<path d="M133.381 186.779C135.388 186.779 137.015 185.152 137.015 183.145C137.015 181.139 135.388 179.512 133.381 179.512C131.374 179.512 129.748 181.139 129.748 183.145C129.748 185.152 131.374 186.779 133.381 186.779Z" fill="white"/>
<path opacity="0.08" d="M116.156 182.414L146.84 203.658L123.079 201.374L116.156 182.414Z" fill="black"/>
<path d="M140.131 106.026C140.131 106.026 139.116 102.748 143.785 100.342C148.454 97.9364 157.64 94.6072 160.806 103.184C160.806 103.184 150.535 109.822 140.131 106.026Z" fill="#9ED6BE"/>
<path opacity="0.46" d="M140.131 106.026C140.131 106.026 139.116 102.748 143.785 100.342C148.454 97.9364 157.64 94.6072 160.806 103.184C160.806 103.184 150.535 109.822 140.131 106.026Z" fill="white"/>
<path d="M79.8602 187.45C79.8602 187.45 73.2627 182.05 70.7252 185.603C68.1877 189.155 78.5102 195.245 78.5102 195.245L79.8602 187.45Z" fill="#F4A28C"/>
<path d="M82.5727 181.371L69.7974 168.596L62.2901 176.103L75.0654 188.878L82.5727 181.371Z" fill="#FFD200"/>
<path d="M149.327 82.9653C149.327 82.9653 152.057 81.3514 153.072 83.5235C154.087 85.6956 151.042 87.3907 149.012 86.0712C149.487 85.1075 149.599 84.0047 149.327 82.9653Z" fill="#F4A28C"/>
<path d="M61.0828 143.601C62.6748 143.601 63.9654 142.311 63.9654 140.719C63.9654 139.127 62.6748 137.836 61.0828 137.836C59.4908 137.836 58.2002 139.127 58.2002 140.719C58.2002 142.311 59.4908 143.601 61.0828 143.601Z" fill="#A5A5A5"/>
<path d="M70.0047 143.601C71.5967 143.601 72.8873 142.311 72.8873 140.719C72.8873 139.127 71.5967 137.836 70.0047 137.836C68.4127 137.836 67.1221 139.127 67.1221 140.719C67.1221 142.311 68.4127 143.601 70.0047 143.601Z" fill="#A5A5A5"/>
<path d="M78.7032 143.601C80.2952 143.601 81.5858 142.311 81.5858 140.719C81.5858 139.127 80.2952 137.836 78.7032 137.836C77.1111 137.836 75.8206 139.127 75.8206 140.719C75.8206 142.311 77.1111 143.601 78.7032 143.601Z" fill="#A5A5A5"/>
</svg>
