<svg width="406" height="306" viewBox="0 0 406 306" fill="none" xmlns="http://www.w3.org/2000/svg">
<path d="M182.314 49.3477H47.3193V169.107H182.314V49.3477Z" fill="#F2F2F2"/>
<path d="M182.314 150.504H47.3193V169.109H182.314V150.504Z" fill="#E6E6E6"/>
<path d="M58.6264 164.835C61.7263 164.835 64.2393 162.322 64.2393 159.222C64.2393 156.122 61.7263 153.609 58.6264 153.609C55.5264 153.609 53.0134 156.122 53.0134 159.222C53.0134 162.322 55.5264 164.835 58.6264 164.835Z" fill="#9ED6BE"/>
<path d="M72.1564 164.835C75.2564 164.835 77.7694 162.322 77.7694 159.222C77.7694 156.122 75.2564 153.609 72.1564 153.609C69.0565 153.609 66.5435 156.122 66.5435 159.222C66.5435 162.322 69.0565 164.835 72.1564 164.835Z" fill="#FFD200"/>
<path d="M74.7649 160.643C74.5294 160.392 74.2553 160.179 73.9529 160.014C73.8831 159.974 73.825 159.916 73.7841 159.847C73.7431 159.778 73.7209 159.699 73.7194 159.618L73.6281 158.827C72.9124 158.557 72.1284 158.529 71.395 158.745L71.2631 159.517C71.2586 159.6 71.2318 159.681 71.1854 159.751C71.1389 159.821 71.0746 159.876 70.9992 159.913C70.6842 160.056 70.3959 160.251 70.1466 160.491C70.105 160.534 70.0553 160.568 70.0004 160.591C69.9455 160.614 69.8865 160.626 69.8269 160.626C69.7673 160.626 69.7083 160.614 69.6534 160.591C69.5985 160.568 69.5488 160.534 69.5072 160.491L68.7967 159.73C68.7123 159.643 68.6652 159.526 68.6652 159.405C68.6652 159.284 68.7123 159.167 68.7967 159.08C69.8091 158.14 71.1526 157.639 72.5335 157.687C73.9143 157.734 75.2202 158.327 76.1656 159.334C76.2082 159.376 76.2421 159.425 76.2653 159.48C76.2884 159.535 76.3003 159.594 76.3003 159.654C76.3003 159.713 76.2884 159.772 76.2653 159.827C76.2421 159.882 76.2082 159.932 76.1656 159.974L75.4043 160.684C75.36 160.724 75.3082 160.755 75.2518 160.775C75.1954 160.795 75.1356 160.803 75.076 160.799C75.0164 160.795 74.9581 160.779 74.9047 160.753C74.8512 160.726 74.8037 160.689 74.7649 160.643Z" fill="white"/>
<path d="M85.6964 164.835C88.7964 164.835 91.3094 162.322 91.3094 159.222C91.3094 156.122 88.7964 153.609 85.6964 153.609C82.5965 153.609 80.0835 156.122 80.0835 159.222C80.0835 162.322 82.5965 164.835 85.6964 164.835Z" fill="#9ED6BE"/>
<path d="M59.8951 157.223H55.1348V161.222H59.8951V157.223Z" fill="white"/>
<path d="M62.1078 160.825L60.5244 160.297V158.288L62.1078 157.76V160.825Z" fill="white"/>
<path d="M85.6964 155.344H85.6863C84.7893 155.344 84.0623 156.071 84.0623 156.968V159.444C84.0623 160.341 84.7893 161.068 85.6863 161.068H85.6964C86.5933 161.068 87.3204 160.341 87.3204 159.444V156.968C87.3204 156.071 86.5933 155.344 85.6964 155.344Z" fill="white"/>
<path d="M86.0415 160.531H85.3513V162.46H86.0415V160.531Z" fill="white"/>
<path d="M87.1276 162.277H84.2653V163.089H87.1276V162.277Z" fill="white"/>
<path d="M365.512 49.3477H207.172V218.244H365.512V49.3477Z" fill="#F2F2F2"/>
<path d="M365.512 196.412H207.172V218.235H365.512V196.412Z" fill="#E6E6E6"/>
<path d="M220.428 213.221C224.06 213.221 227.005 210.276 227.005 206.644C227.005 203.011 224.06 200.066 220.428 200.066C216.795 200.066 213.85 203.011 213.85 206.644C213.85 210.276 216.795 213.221 220.428 213.221Z" fill="#9ED6BE"/>
<path d="M236.312 213.221C239.945 213.221 242.89 210.276 242.89 206.644C242.89 203.011 239.945 200.066 236.312 200.066C232.68 200.066 229.735 203.011 229.735 206.644C229.735 210.276 232.68 213.221 236.312 213.221Z" fill="#FFD200"/>
<path d="M239.368 208.307C239.092 208.01 238.77 207.759 238.413 207.566C238.331 207.521 238.263 207.455 238.215 207.375C238.166 207.294 238.14 207.203 238.139 207.109L238.038 206.175C237.194 205.862 236.272 205.83 235.409 206.084L235.257 206.987C235.251 207.085 235.22 207.18 235.167 207.262C235.114 207.344 235.039 207.41 234.952 207.454C234.581 207.623 234.238 207.849 233.937 208.124C233.888 208.174 233.83 208.213 233.765 208.24C233.701 208.267 233.632 208.281 233.562 208.281C233.492 208.281 233.423 208.267 233.358 208.24C233.294 208.213 233.235 208.174 233.186 208.124L232.354 207.231C232.304 207.181 232.264 207.122 232.237 207.056C232.21 206.991 232.196 206.921 232.196 206.85C232.196 206.78 232.21 206.71 232.237 206.644C232.264 206.579 232.304 206.52 232.354 206.47C232.939 205.918 233.628 205.487 234.381 205.203C235.133 204.919 235.935 204.787 236.739 204.814C237.543 204.841 238.334 205.028 239.066 205.363C239.797 205.697 240.455 206.174 241.002 206.764C241.053 206.813 241.093 206.871 241.121 206.935C241.149 207 241.163 207.069 241.163 207.14C241.163 207.21 241.149 207.279 241.121 207.344C241.093 207.409 241.053 207.467 241.002 207.515L240.119 208.348C240.067 208.395 240.006 208.431 239.94 208.455C239.874 208.478 239.804 208.488 239.735 208.485C239.665 208.481 239.596 208.463 239.533 208.433C239.47 208.402 239.414 208.359 239.368 208.307Z" fill="white"/>
<path d="M252.187 213.221C255.819 213.221 258.764 210.276 258.764 206.644C258.764 203.011 255.819 200.066 252.187 200.066C248.554 200.066 245.61 203.011 245.61 206.644C245.61 210.276 248.554 213.221 252.187 213.221Z" fill="#9ED6BE"/>
<path d="M221.93 204.299H216.347V208.988H221.93V204.299Z" fill="white"/>
<path d="M224.518 208.521L222.671 207.902V205.547L224.518 204.928V208.521Z" fill="white"/>
<path d="M252.43 202.096H251.943C251.024 202.096 250.279 202.841 250.279 203.76V207.15C250.279 208.07 251.024 208.815 251.943 208.815H252.43C253.35 208.815 254.095 208.07 254.095 207.15V203.76C254.095 202.841 253.35 202.096 252.43 202.096Z" fill="white"/>
<path d="M252.593 208.176H251.781V210.439H252.593V208.176Z" fill="white"/>
<path d="M253.862 210.227H250.502V211.181H253.862V210.227Z" fill="white"/>
<path d="M193.023 195.803H99.9775V264.346H193.023V195.803Z" fill="#F2F2F2"/>
<path d="M193.023 182.973H99.9775V195.802H193.023V182.973Z" fill="#E6E6E6"/>
<path d="M107.773 193.256C109.908 193.256 111.64 191.524 111.64 189.389C111.64 187.253 109.908 185.521 107.773 185.521C105.637 185.521 103.906 187.253 103.906 189.389C103.906 191.524 105.637 193.256 107.773 193.256Z" fill="#9ED6BE"/>
<path d="M117.101 193.256C119.236 193.256 120.968 191.524 120.968 189.389C120.968 187.253 119.236 185.521 117.101 185.521C114.965 185.521 113.233 187.253 113.233 189.389C113.233 191.524 114.965 193.256 117.101 193.256Z" fill="#FFD200"/>
<path d="M118.897 190.373C118.737 190.196 118.549 190.049 118.339 189.936C118.289 189.91 118.248 189.87 118.219 189.822C118.19 189.774 118.176 189.718 118.176 189.662L118.116 189.114C117.62 188.93 117.079 188.913 116.573 189.063L116.481 189.591C116.482 189.65 116.465 189.707 116.432 189.756C116.399 189.805 116.353 189.843 116.299 189.865C116.086 189.966 115.891 190.1 115.72 190.261C115.691 190.29 115.656 190.314 115.618 190.33C115.579 190.346 115.538 190.354 115.497 190.354C115.455 190.354 115.414 190.346 115.376 190.33C115.338 190.314 115.303 190.29 115.274 190.261L114.786 189.733C114.757 189.705 114.734 189.671 114.718 189.633C114.702 189.596 114.694 189.556 114.694 189.515C114.694 189.474 114.702 189.434 114.718 189.397C114.734 189.359 114.757 189.325 114.786 189.297C115.481 188.646 116.406 188.298 117.357 188.328C118.309 188.358 119.21 188.765 119.861 189.459C119.891 189.488 119.914 189.523 119.93 189.562C119.946 189.6 119.954 189.641 119.954 189.682C119.954 189.724 119.946 189.765 119.93 189.803C119.914 189.842 119.891 189.877 119.861 189.906L119.344 190.393C119.313 190.421 119.277 190.443 119.238 190.457C119.199 190.471 119.158 190.478 119.116 190.476C119.075 190.474 119.034 190.464 118.996 190.446C118.959 190.428 118.925 190.404 118.897 190.373Z" fill="white"/>
<path d="M126.428 193.256C128.564 193.256 130.296 191.524 130.296 189.389C130.296 187.253 128.564 185.521 126.428 185.521C124.293 185.521 122.561 187.253 122.561 189.389C122.561 191.524 124.293 193.256 126.428 193.256Z" fill="#9ED6BE"/>
<path d="M108.646 188.008H105.367V190.769H108.646V188.008Z" fill="white"/>
<path d="M110.178 190.494L109.082 190.139V188.748L110.178 188.383V190.494Z" fill="white"/>
<path d="M127.555 187.845C127.555 187.223 127.053 186.719 126.433 186.719C125.814 186.719 125.312 187.223 125.312 187.845V189.54C125.312 190.163 125.814 190.667 126.433 190.667C127.053 190.667 127.555 190.163 127.555 189.54V187.845Z" fill="white"/>
<path d="M126.672 190.291H126.195V191.621H126.672V190.291Z" fill="white"/>
<path d="M127.413 191.498H125.444V192.056H127.413V191.498Z" fill="white"/>
<path d="M240.423 231.865H207.172V264.173H240.423V231.865Z" fill="#F2F2F2"/>
<path d="M365.502 235.418H253.862V240.493H365.502V235.418Z" fill="#F2F2F2"/>
<path d="M365.502 245.486H253.862V250.561H365.502V245.486Z" fill="#F2F2F2"/>
<path d="M345.212 255.555H253.862V260.63H345.212V255.555Z" fill="#F2F2F2"/>
<path opacity="0.58" d="M64.3611 244.593C64.3611 244.593 49.735 240.604 46.5885 227.013C46.5885 227.013 69.2128 222.436 69.8523 245.791L64.3611 244.593Z" fill="#9ED6BE"/>
<path opacity="0.73" d="M66.1577 243.143C66.1577 243.143 55.9468 227.015 64.96 211.932C64.96 211.932 82.215 222.853 74.5213 243.173L66.1577 243.143Z" fill="#9ED6BE"/>
<path d="M68.7865 243.152C68.7865 243.152 74.1762 226.12 90.4669 222.852C90.4669 222.852 93.5119 233.915 79.9211 243.152H68.7865Z" fill="#9ED6BE"/>
<path d="M58.1899 242.766L61.1537 263.015L79.7993 263.096L82.5398 242.867L58.1899 242.766Z" fill="#24285B"/>
<path d="M139.38 81.9496C139.38 81.9496 165.212 86.8318 180.771 81.3203C196.331 75.8089 185.999 55.7322 170.418 45.1559L177.229 39.4922C177.229 39.4922 218.996 66.9987 196.342 97.8851C173.687 128.772 118.187 123.047 139.38 81.9496Z" fill="#9ED6BE"/>
<path opacity="0.46" d="M139.38 81.9496C139.38 81.9496 165.212 86.8318 180.771 81.3203C196.331 75.8089 185.999 55.7322 170.418 45.1559L177.229 39.4922C177.229 39.4922 218.996 66.9987 196.342 97.8851C173.687 128.772 118.187 123.047 139.38 81.9496Z" fill="white"/>
<path d="M82.9052 150.502H150.91C157.081 136.049 177.554 80.5688 128.438 80.721C124.433 80.7725 120.437 81.1117 116.481 81.736C114.827 81.9796 113.112 82.274 111.325 82.6191C111.325 82.6191 64.7367 81.868 69.1012 106.705C72.4101 125.411 79.5861 143.001 82.9052 150.502Z" fill="#9ED6BE"/>
<path opacity="0.08" d="M122.815 95.4499C115.03 99.3475 113.741 91.5624 113.741 91.5624C112.381 89.5933 114.147 85.2593 116.441 81.6966C120.397 81.0723 124.393 80.7331 128.397 80.6816C128.59 85.5435 127.89 92.9124 122.815 95.4499Z" fill="black"/>
<path d="M112.157 82.7628C112.494 83.8521 112.765 84.9604 112.969 86.0819C113.233 87.6145 114.056 89.8475 116.563 89.9592C120.43 90.1216 120.623 84.0316 120.623 84.0316C120.623 84.0316 122.206 78.1141 118.014 77.9416C114.218 77.7487 110.696 77.7386 112.157 82.7628Z" fill="#F4A28C"/>
<path d="M120.389 84.3044C120.389 84.3044 120.389 82.4571 121.932 82.2744C123.475 82.0917 123.373 85.6341 120.389 84.3044Z" fill="#F4A28C"/>
<path d="M113.304 84.2739C113.304 84.2739 113.609 82.4571 112.066 82.0815C110.523 81.706 110.148 85.1468 113.304 84.2739Z" fill="#F4A28C"/>
<path opacity="0.08" d="M87.899 150.503H138.304C138.304 150.503 86.5389 141.886 93.8367 127.97C101.135 114.055 93.8367 98.5859 93.8367 98.5859L70.1974 114.044L73.963 139.419L87.899 150.503Z" fill="black"/>
<path d="M112.158 82.7627C112.158 82.7627 105.936 82.7627 108.037 77.8704C110.138 72.9781 111.203 76.2769 112.005 72.6229C112.807 68.9689 113.873 68.1264 115.974 69.3546C118.075 70.5827 116.674 73.9322 119.405 72.6635C122.135 71.3947 123.972 70.2985 124.855 72.5823C125.738 74.866 125.353 76.084 123.617 77.1498C121.881 78.2155 125.231 81.0068 120.795 82.9556C116.36 84.9044 113.233 80.1846 113.233 80.1846L112.158 82.7627Z" fill="#24285B"/>
<path d="M64.8382 150.503H116.167L115.466 147.559C115.466 147.559 71.1515 141.835 76.2773 127.899C80.5403 116.277 100.8 110.146 92.6594 96.0989C91.7732 94.615 90.6024 93.3209 89.2143 92.291C87.8262 91.2612 86.2482 90.5159 84.571 90.098C82.8939 89.6801 81.1507 89.5979 79.4417 89.8561C77.7327 90.1143 76.0915 90.7078 74.6127 91.6024C62.524 98.7988 43.7364 113.608 48.8317 134.111C50.882 142.352 57.0329 147.448 64.8382 150.503Z" fill="#9ED6BE"/>
<path opacity="0.46" d="M64.8382 150.503H116.167L115.466 147.559C115.466 147.559 71.1515 141.835 76.2773 127.899C80.5403 116.277 100.8 110.146 92.6594 96.0989C91.7732 94.615 90.6024 93.3209 89.2143 92.291C87.8262 91.2612 86.2482 90.5159 84.571 90.098C82.8939 89.6801 81.1507 89.5979 79.4417 89.8561C77.7327 90.1143 76.0915 90.7078 74.6127 91.6024C62.524 98.7988 43.7364 113.608 48.8317 134.111C50.882 142.352 57.0329 147.448 64.8382 150.503Z" fill="white"/>
<path d="M172.144 43.7359C171.423 44.3246 169.749 41.5739 169.576 41.1781C168.764 39.3294 168.102 37.4184 167.597 35.4636C168.539 35.8343 169.314 36.5339 169.779 37.4327C169.921 35.8189 169.19 34.134 169.718 32.6013C169.793 32.2795 169.979 31.994 170.242 31.7939C170.505 31.5938 170.829 31.4917 171.159 31.5051C172.915 31.4544 174.286 33.0276 175.047 34.611C175.717 35.8309 176.317 37.0882 176.843 38.3767C177.249 39.5642 176.63 39.9804 175.747 40.7315C174.58 41.7465 173.342 42.731 172.144 43.7359Z" fill="#F4A28C"/>
<path d="M125.677 150.503C125.769 150.438 125.847 150.355 125.907 150.259C125.966 150.163 126.006 150.056 126.024 149.945C126.042 149.833 126.038 149.72 126.011 149.61C125.985 149.5 125.937 149.397 125.87 149.306C124.195 146.799 115.466 147.56 115.466 147.56L116.167 150.503H125.677Z" fill="#F4A28C"/>
<path d="M92.9334 182.973H47.3193V206.632H92.9334V182.973Z" fill="#F2F2F2"/>
<path d="M175.382 217.961C175.382 217.961 188.323 224.609 192.759 221.564C197.194 218.519 198.463 201.721 198.463 201.721L204.553 203.061C204.553 203.061 206.888 236.464 196.616 239.925C186.344 243.386 168.378 234.526 168.378 234.526L175.382 217.961Z" fill="#F4A28C"/>
<path d="M140.07 217.959C144.333 226.434 153.681 237.802 173.514 239.893L177.757 218.578C177.757 218.578 162.674 209.047 146.718 207.87C145.493 207.791 144.27 208.037 143.171 208.583C142.072 209.13 141.137 209.958 140.462 210.983C139.787 212.007 139.395 213.193 139.326 214.418C139.257 215.643 139.514 216.865 140.07 217.959Z" fill="#9ED6BE"/>
<path opacity="0.46" d="M140.07 217.959C144.333 226.434 153.681 237.802 173.514 239.893L177.757 218.578C177.757 218.578 162.674 209.047 146.718 207.87C145.493 207.791 144.27 208.037 143.171 208.583C142.072 209.13 141.137 209.958 140.462 210.983C139.787 212.007 139.395 213.193 139.326 214.418C139.257 215.643 139.514 216.865 140.07 217.959Z" fill="white"/>
<path d="M198.757 201.721C198.463 201.65 198.158 195.194 198.94 195.793C199.448 196.279 199.801 196.904 199.955 197.59C199.955 197.59 199.955 193.022 202.31 193.53C204.665 194.037 205.466 199.295 204.533 202.989L198.757 201.924" fill="#F4A28C"/>
<path d="M143.511 188.524C143.836 190.909 143.836 193.326 143.511 195.71C143.455 195.99 143.345 196.257 143.186 196.494C143.027 196.731 142.823 196.935 142.585 197.093C142.348 197.252 142.081 197.362 141.801 197.417C141.521 197.472 141.233 197.472 140.953 197.416C140.038 197.285 139.181 196.894 138.482 196.29C137.784 195.685 137.275 194.892 137.015 194.005L135.523 190.311C135.302 189.538 135.327 188.717 135.592 187.959C135.857 187.201 136.351 186.544 137.005 186.078C139.38 184.16 143.277 185.865 143.511 188.524Z" fill="#F4A28C"/>
<path d="M135.817 190.951L134.345 205.039L142.171 205.293L140.101 194.94L135.817 190.951Z" fill="#F4A28C"/>
<path d="M142.455 188.738C141.123 188.854 139.781 188.82 138.456 188.636C138.874 189.204 139.116 189.88 139.154 190.584C139.192 191.287 139.023 191.986 138.669 192.595C138.336 193.189 137.806 193.649 137.171 193.895C136.536 194.142 135.835 194.159 135.188 193.945L134.965 188.403C134.899 187.605 135.054 186.805 135.412 186.089C135.77 185.373 136.317 184.769 136.995 184.343C137.57 183.965 138.17 183.626 138.791 183.328C140.354 182.597 142.75 183.541 144.13 182.384C144.266 182.261 144.433 182.177 144.613 182.141C144.792 182.105 144.979 182.118 145.151 182.18C145.324 182.241 145.477 182.348 145.594 182.49C145.711 182.631 145.787 182.801 145.815 182.983C146.15 184.658 145.998 187.327 143.785 188.372C143.363 188.563 142.915 188.686 142.455 188.738Z" fill="#24285B"/>
<path d="M139.126 192.432C139.126 192.432 139.004 190.778 137.756 190.971C136.507 191.164 136.68 193.569 138.385 193.701L139.126 192.432Z" fill="#F4A28C"/>
<path d="M143.754 191.215L145.044 192.808C145.117 192.9 145.166 193.008 145.186 193.124C145.207 193.239 145.198 193.358 145.16 193.469C145.123 193.58 145.058 193.68 144.972 193.76C144.886 193.839 144.782 193.896 144.668 193.925L143.034 194.321L143.754 191.215Z" fill="#F4A28C"/>
<path opacity="0.31" d="M140.649 197.183C139.664 196.991 138.757 196.514 138.04 195.812C138.448 197.822 139.601 199.602 141.268 200.796L140.649 197.183Z" fill="#CE8172"/>
<path d="M161.273 264.345C163.922 258.691 169.596 244.299 168.165 227.155C166.318 204.977 141.958 205.079 141.958 205.079L138.487 204.967C133.945 204.781 129.46 206.036 125.674 208.551C121.888 211.067 118.994 214.715 117.405 218.974C111.873 234.301 121.039 255.788 125.271 264.385L161.273 264.345Z" fill="#9ED6BE"/>
<path opacity="0.08" d="M125.18 264.346H137.664C136.731 261.666 136.01 256.966 136.863 248.918C138.578 232.962 133.909 216.488 133.909 216.488C116.116 217.138 121.516 254.967 122.521 258.337C123.242 260.409 124.131 262.418 125.18 264.346Z" fill="black"/>
<path d="M122.653 210.54C115.111 216.295 105.682 227.581 107.306 247.455L129.017 247.678C129.017 247.678 135.584 231.093 133.777 215.198C133.628 213.983 133.16 212.828 132.421 211.852C131.682 210.875 130.697 210.112 129.568 209.639C128.438 209.165 127.203 209 125.989 209.158C124.774 209.316 123.623 209.793 122.653 210.54Z" fill="#9ED6BE"/>
<path opacity="0.46" d="M122.653 210.54C115.111 216.295 105.682 227.581 107.306 247.455L129.017 247.678C129.017 247.678 135.584 231.093 133.777 215.198C133.628 213.983 133.16 212.828 132.421 211.852C131.682 210.875 130.697 210.112 129.568 209.639C128.438 209.165 127.203 209 125.989 209.158C124.774 209.316 123.623 209.793 122.653 210.54Z" fill="white"/>
<path d="M121.617 264.346C122.159 258.607 123.548 252.981 125.738 247.649L109.356 247.477C109.323 253.11 109.587 258.741 110.148 264.346H121.617Z" fill="#F4A28C"/>
<path d="M292.939 47.5307C292.939 47.5307 299.638 41.8569 304.916 45.8154C310.194 49.7739 306.601 65.8007 318.111 62.1162C318.111 62.1162 305.637 72.4591 296.908 55.5695L292.939 47.5307Z" fill="#24285B"/>
<path d="M298.288 58.514C298.288 58.514 302.846 57.8745 300.958 51.6627C299.07 45.4509 293.924 45.6742 292.452 47.3084L298.288 58.514Z" fill="#9ED6BE"/>
<path d="M284.667 55.1548C284.982 58.1601 285.699 61.1096 286.798 63.9244C286.952 64.2494 287.168 64.541 287.434 64.7823C287.701 65.0236 288.012 65.21 288.35 65.3307C288.689 65.4514 289.048 65.5041 289.407 65.4857C289.766 65.4673 290.118 65.3783 290.442 65.2236C291.514 64.7849 292.439 64.0496 293.107 63.1039C293.776 62.1583 294.161 61.0416 294.218 59.8847L294.918 54.9112C294.952 53.9025 294.673 52.908 294.119 52.0646C293.564 51.2212 292.762 50.5703 291.823 50.2016C288.402 48.6182 284.2 51.8764 284.667 55.1548Z" fill="#F4A28C"/>
<path d="M296.035 57.6816L299.567 75.1295L289.813 76.3881L291.122 63.5179L296.035 57.6816Z" fill="#F4A28C"/>
<path d="M285.215 58.5332L284.129 60.8779C284.068 61.0108 284.041 61.157 284.051 61.303C284.061 61.449 284.107 61.5901 284.186 61.7135C284.265 61.8368 284.374 61.9383 284.502 62.0086C284.63 62.079 284.774 62.116 284.921 62.1162H287.032L285.215 58.5332Z" fill="#F4A28C"/>
<path opacity="0.31" d="M291.092 63.8836C292.239 63.5208 293.267 62.8544 294.066 61.9551C294.066 61.9551 295.192 65.6801 290.716 67.568L291.092 63.8836Z" fill="#CE8172"/>
<path d="M295.67 57.7632C295.67 57.7632 295.314 55.7332 296.888 55.5708C298.461 55.4084 298.989 58.4027 296.948 59.0827L295.67 57.7632Z" fill="#F4A28C"/>
<path d="M285.743 54.6862C287.489 54.7744 289.239 54.572 290.919 54.0874C290.919 54.0874 292.706 59.9541 297.628 60.9183C297.628 60.9183 301.12 51.4585 295.192 48.6165C290.239 46.2414 286.494 44.049 283.073 47.9466C282.574 48.5084 282.241 49.1976 282.111 49.9376C281.98 50.6776 282.057 51.4393 282.334 52.1378C282.611 52.8364 283.076 53.4445 283.678 53.8945C284.28 54.3444 284.994 54.6185 285.743 54.6862Z" fill="#24285B"/>
<path d="M277.552 128.833C277.552 128.833 277.237 166.388 251.832 168.865C226.426 171.341 211.699 121.626 211.546 121.16C211.171 119.881 209.1 118.703 208.359 117.506C207.322 115.81 206.777 113.86 206.786 111.872C206.778 111.658 206.823 111.445 206.918 111.253C207.025 111.112 207.174 111.008 207.343 110.955C207.512 110.902 207.693 110.904 207.862 110.959C208.201 111.072 208.512 111.255 208.775 111.497C208.43 110.342 208.269 109.139 208.298 107.934C208.369 105.386 210.328 102.544 212.541 105.285C213.535 106.719 214.295 108.302 214.794 109.974C215.454 111.761 216.012 113.598 216.53 115.435C216.658 116.296 216.883 117.141 217.2 117.952C217.2 117.952 231.948 143.865 244.239 145.875C256.531 147.884 246.381 107.416 274.05 87.6544C301.719 67.8923 277.552 128.833 277.552 128.833Z" fill="#F4A28C"/>
<path d="M291.183 57.2459C291.183 57.2459 291.183 54.82 293.112 54.9824C295.04 55.1448 295.355 57.9462 293.112 59.3266L291.183 57.2459Z" fill="#F4A28C"/>
<path d="M299.567 75.1289L289.813 76.3875C289.813 76.3875 237.033 101.763 267.239 137.419C269.792 140.391 271.425 144.041 271.939 147.925L274.679 169.839H314.335C314.335 169.839 371.612 87.9281 299.567 75.1289Z" fill="#9ED6BE"/>
<path opacity="0.08" d="M299.283 95.4199C299.283 95.4199 288.189 112.228 303.394 128.144C318.598 144.059 309.778 157.934 292.452 147.033C275.126 136.132 272.324 150.342 272.324 150.342L273.339 159.263L300.308 158.959L330.19 159.071L340.705 134.142L299.283 95.4199Z" fill="black"/>
<path d="M331.499 196.411L323.105 159.262H273.36L267.199 196.411H331.499Z" fill="#24285B"/>
<path d="M299.283 95.4184C298.664 83.7053 312.265 76.7424 321.765 83.614C334.595 92.9012 352.794 108.695 347.83 149.731C341.801 199.466 279.409 147.914 279.409 147.914L281.987 141.347C281.987 141.347 316.284 162.784 325.49 149.345C328.322 145.204 324.475 138.942 321.522 133.978C316.244 125.006 300.034 109.71 299.283 95.4184Z" fill="#F4A28C"/>
<path d="M281.744 141.379C281.459 139.217 277.684 136.06 276.141 134.781C275.689 134.357 275.153 134.032 274.568 133.827C274.272 133.731 273.956 133.718 273.653 133.79C273.35 133.861 273.073 134.015 272.852 134.233C272.663 134.532 272.54 134.868 272.491 135.218C272.442 135.568 272.468 135.924 272.568 136.263C272.964 138.72 273.451 141.998 274.771 144.15C275.106 144.698 278.993 147.936 279.409 147.002C280.13 145.419 281.368 143.602 281.723 141.927C281.76 141.747 281.767 141.561 281.744 141.379Z" fill="#F4A28C"/>
<path d="M303.394 75.8602C303.394 75.8602 304.744 71.6479 296.958 70.7852C289.173 69.9224 282.962 73.211 285.519 78.7225C285.519 78.7428 291.386 83.4118 303.394 75.8602Z" fill="#9ED6BE"/>
<path opacity="0.46" d="M303.394 75.8602C303.394 75.8602 304.744 71.6479 296.958 70.7852C289.173 69.9224 282.962 73.211 285.519 78.7225C285.519 78.7428 291.386 83.4118 303.394 75.8602Z" fill="white"/>
<path d="M276.406 148.034L280.422 151.283L286.602 143.644L282.585 140.395L276.406 148.034Z" fill="#24285B"/>
</svg>
