<svg id="Layer_1" data-name="Layer 1" xmlns="http://www.w3.org/2000/svg" viewBox="0 0 400 300" width="406" height="306" class="illustration styles_illustrationTablet__1DWOa"><title>_</title><ellipse cx="201.94" cy="237.41" rx="152.36" ry="12.46" fill="#e6e6e6" opacity="0.3"></ellipse><path d="M327.07,230H183.48V123.84h0a9.25,9.25,0,0,1,9.25-9.25H327.07a12.84,12.84,0,0,1,12.84,12.85v89.7A12.84,12.84,0,0,1,327.07,230Z" fill="#68e1fd"></path><path d="M327.07,230H183.48V123.84h0a9.25,9.25,0,0,1,9.25-9.25H327.07a12.84,12.84,0,0,1,12.84,12.85v89.7A12.84,12.84,0,0,1,327.07,230Z" opacity="0.08"></path><circle cx="229.35" cy="117.76" r="27.37" opacity="0.08"></circle><circle cx="229.35" cy="117.76" r="27.37" fill="#ffd200"></circle><g opacity="0.08"><circle cx="230.68" cy="109.52" r="27.37"></circle></g><circle cx="229.35" cy="117.76" r="27.37" opacity="0.08"></circle><circle cx="230.68" cy="109.52" r="27.37" fill="#ffd200"></circle><path d="M231.57,97.27c.77,0,1,.27,1,1V100a7.54,7.54,0,0,1,6.19,4.68c.4.81.23,1.25-.67,1.65l-1.65.74c-.78.37-1.15.21-1.59-.6a4.2,4.2,0,0,0-4.3-2.59c-2.87,0-4.18.84-4.18,2.76a2.55,2.55,0,0,0,2.32,2.25,17.92,17.92,0,0,0,2.43.37,15.63,15.63,0,0,1,4.48.88,6.13,6.13,0,0,1,2,1.07,6.53,6.53,0,0,1,1.79,4.72c0,3.67-2.46,6.16-6.8,6.8v1.75c0,.77-.24,1-1,1h-1.86c-.77,0-1-.27-1-1v-1.72a7.66,7.66,0,0,1-6.73-5.18,1.1,1.1,0,0,1,.77-1.55l1.65-.61c.84-.3,1.21-.1,1.58.74q1.11,2.84,4.55,2.83c3.1,0,4.64-1,4.64-3a2.06,2.06,0,0,0-1.44-2.09,11.7,11.7,0,0,0-3.34-.64,14.91,14.91,0,0,1-4.51-1,6.36,6.36,0,0,1-2-1.11,6.11,6.11,0,0,1-1.82-4.57c0-3.64,2.29-6.06,6.6-6.64V98.32c0-.78.27-1,1-1Z" fill="#fff"></path><circle cx="293.17" cy="131.65" r="27.37" opacity="0.08"></circle><circle cx="293.17" cy="131.65" r="27.37" fill="#ffd200"></circle><g opacity="0.08"><circle cx="289.8" cy="124.01" r="27.37"></circle></g><circle cx="293.17" cy="131.65" r="27.37" opacity="0.08"></circle><circle cx="289.8" cy="124.01" r="27.37" fill="#ffd200"></circle><path d="M283.88,113.26c.65-.42,1-.33,1.41.32l.9,1.39a7.52,7.52,0,0,1,7.74.55c.78.46.88.92.34,1.75l-1,1.52c-.45.73-.85.79-1.66.35a4.24,4.24,0,0,0-5,.17c-2.4,1.56-3,3-2,4.59a2.57,2.57,0,0,0,3.18.63,20.78,20.78,0,0,0,2.24-1,15.25,15.25,0,0,1,4.23-1.7,6,6,0,0,1,2.25-.18,6.46,6.46,0,0,1,4.06,3c2,3.08,1.29,6.51-2,9.41l.95,1.46c.42.65.37,1-.28,1.43l-1.55,1c-.65.42-1,.34-1.44-.31l-.94-1.44a7.68,7.68,0,0,1-8.47-.68,1.09,1.09,0,0,1-.19-1.72l1.05-1.41c.54-.71,1-.75,1.73-.24,1.65,1.18,3.43,1.14,5.35-.1,2.6-1.69,3.37-3.35,2.29-5a2.07,2.07,0,0,0-2.35-1,11.44,11.44,0,0,0-3.14,1.28,15.26,15.26,0,0,1-4.32,1.64,6.5,6.5,0,0,1-2.24.13,6.18,6.18,0,0,1-4-2.85c-2-3-1.38-6.33,1.93-9.16l-.9-1.38c-.42-.65-.34-1,.3-1.45Z" fill="#fff"></path><path d="M183.48,123.84H316.21a13.47,13.47,0,0,1,13.47,13.47v88.46a13.47,13.47,0,0,1-13.47,13.47H183.48a0,0,0,0,1,0,0V123.84A0,0,0,0,1,183.48,123.84Z" fill="#68e1fd"></path><path d="M292.92,169.49h48.17a0,0,0,0,1,0,0v24.1a0,0,0,0,1,0,0H292.92a12.05,12.05,0,0,1-12.05-12.05v0A12.05,12.05,0,0,1,292.92,169.49Z" fill="#24285b"></path><circle cx="295.52" cy="181.54" r="6.13" fill="#ffd200"></circle><path d="M164.17,229.44s-7.73-2.11-9.41-9.31c0,0,12-2.42,12.32,10Z" fill="#68e1fd" opacity="0.58"></path><path d="M165.12,228.67s-5.4-8.54-.65-16.52c0,0,9.11,5.78,5.06,16.54Z" fill="#68e1fd" opacity="0.73"></path><path d="M166.51,228.68s2.86-9,11.48-10.73c0,0,1.62,5.86-5.58,10.75Z" fill="#68e1fd"></path><polygon points="160.9 228.48 162.47 239.2 172.34 239.24 173.8 228.53 160.9 228.48" fill="#24285b"></polygon><path d="M137.65,230.08s3,2.81,6.25,1.48,5.63,1.3,3.23,3.52-11.46,2.33-11.46,2.33L133,231.57Z" fill="#68e1fd"></path><path d="M87.11,228.77s-1.47,3.84,1,6.35.92,5.7-2,4.32-6.47-9.74-6.47-9.74L84,225Z" fill="#68e1fd"></path><path d="M79.06,156.59s-3.17,12.53,2.34,18.7,14,35.38,0,50l5.52,5.19s24.18-12.33,17.28-56.8l17.26-17.08Z" fill="#24285b"></path><path d="M121.46,85.22s17.08,4.35,17.2,18.49-7.57,38.89,3.41,40.91,17.55-28.54,17.55-28.54l7.83,3.16s-8.33,52.2-37.12,43.59S121.46,85.22,121.46,85.22Z" fill="#68e1fd"></path><path d="M121.46,85.22s17.08,4.35,17.2,18.49-7.57,38.89,3.41,40.91,17.55-28.54,17.55-28.54l7.83,3.16s-8.33,52.2-37.12,43.59S121.46,85.22,121.46,85.22Z" fill="#fff" opacity="0.44"></path><polygon points="106.1 62 100.9 80.34 111.21 82.48 110.86 68.28 106.1 62" fill="#f4a28c"></polygon><path d="M111.07,71.38A6.89,6.89,0,0,1,107.92,69s-.26,3.48,3.14,7.36Z" fill="#ce8172" opacity="0.31"></path><path d="M100.9,80.34,107,81.61s28,3,29.13,18.81-14.68,56.17-14.68,56.17H79.06S45.08,76.16,100.9,80.34Z" fill="#68e1fd"></path><path d="M97.24,95s3.42,9.86-5.55,16.3S87.1,142,96.91,145.88,90.78,158.17,84,154.74,76.23,149,76.23,149s-6.31-18.24-7-29.88S97.24,95,97.24,95Z" opacity="0.09"></path><path d="M97.24,95c0-8.69-8.8-14.62-17.06-11.91C73,85.42,64.24,89.79,58.92,97.77,48.7,113.11,25.33,158,84.65,159.68l1.74-6.6S50.78,143.23,66.5,122.4C78.73,106.19,97.27,107.28,97.24,95Z" fill="#68e1fd"></path><path d="M97.24,95c0-8.69-8.8-14.62-17.06-11.91C73,85.42,64.24,89.79,58.92,97.77,48.7,113.11,25.33,158,84.65,159.68l1.74-6.6S50.78,143.23,66.5,122.4C78.73,106.19,97.27,107.28,97.24,95Z" fill="#fff" opacity="0.44"></path><path d="M161.45,116.82s.45-7.56,3.48-9.7,2.52,3.28,2.52,3.28,3-3.54,5.56-1.89-5.56,10.73-5.56,10.73Z" fill="#f4a28c"></path><path d="M116.78,62.53s-.52,5.8-2.15,9.42a2.91,2.91,0,0,1-3.88,1.45,6.44,6.44,0,0,1-4.12-5.66l-.83-5.31a5.22,5.22,0,0,1,3.25-5.09C112.69,55.59,117.27,59,116.78,62.53Z" fill="#f4a28c"></path><path d="M116.27,66.17l1.2,2.49a.93.93,0,0,1-.83,1.33l-2.26,0Z" fill="#f4a28c"></path><path d="M121.46,156.59l17.73,73.88-8.86,1.3s-17.73-50.64-29.43-61Z" fill="#24285b"></path><path d="M86.15,154s6.33-1,8.44,3.37-9.94,2.32-9.94,2.32Z" fill="#f4a28c"></path><path d="M104.37,68.09l3.55-.86,2.16-1.06s1.55-.1,1-3.87c0,0,7.62,2.63,8.62-1.89,1.1-4.93-4.59-7.12-8.62-6.7a6.47,6.47,0,0,0-5.28,4.14S99.46,56.84,104.37,68.09Z" fill="#24285b"></path><path d="M109.82,66.35s.35-2.21-1.34-2.33-2.21,3.07,0,3.76Z" fill="#f4a28c"></path><circle cx="173.08" cy="85.75" r="27.37" opacity="0.08"></circle><circle cx="173.08" cy="85.75" r="27.37" fill="#ffd200"></circle><g opacity="0.08"><circle cx="174.42" cy="77.51" r="27.37"></circle></g><circle cx="173.08" cy="85.75" r="27.37" opacity="0.08"></circle><circle cx="174.42" cy="77.51" r="27.37" fill="#ffd200"></circle><path d="M175.3,65.26c.77,0,1,.27,1,1V68a7.51,7.51,0,0,1,6.19,4.67c.41.81.24,1.25-.67,1.65l-1.65.74c-.78.37-1.15.21-1.58-.6a4.22,4.22,0,0,0-4.31-2.59c-2.86,0-4.18.84-4.18,2.76a2.55,2.55,0,0,0,2.33,2.25,17.73,17.73,0,0,0,2.42.37,15.91,15.91,0,0,1,4.48.88,6.13,6.13,0,0,1,2,1.07,6.49,6.49,0,0,1,1.79,4.72c0,3.67-2.46,6.16-6.8,6.8v1.75c0,.77-.24,1-1,1h-1.85c-.78,0-1-.27-1-1V90.71a7.66,7.66,0,0,1-6.73-5.18,1.1,1.1,0,0,1,.78-1.55l1.65-.61c.84-.3,1.21-.1,1.58.74q1.11,2.83,4.54,2.83c3.1,0,4.65-1,4.65-3a2.05,2.05,0,0,0-1.45-2.09,11.69,11.69,0,0,0-3.33-.64,15.15,15.15,0,0,1-4.51-1,6.51,6.51,0,0,1-2-1.12,6.11,6.11,0,0,1-1.81-4.57c0-3.64,2.29-6.06,6.59-6.63V66.31c0-.78.27-1,1-1Z" fill="#fff"></path></svg>