<svg width="512" height="386" viewBox="0 0 512 386" fill="none" xmlns="http://www.w3.org/2000/svg">
<path opacity="0.3" fill-rule="evenodd" clip-rule="evenodd" d="M451.23 36.0089V40.73C451.23 110.459 451.23 180.189 451.203 249.927C451.203 250.775 451.054 251.624 450.905 252.472C450.762 253.28 450.62 254.089 450.607 254.898C450.589 255.984 450.927 257.133 451.346 258.158C452.667 261.351 454.026 264.525 455.386 267.699C456.09 269.343 456.793 270.986 457.492 272.633C457.59 272.856 457.626 273.239 457.501 273.408C455.17 276.444 456.114 279.403 457.049 282.335C457.461 283.627 457.872 284.913 458 286.199H414.014C408.31 286.199 402.606 286.21 396.903 286.221H396.902H396.901H396.9C381.47 286.251 366.042 286.281 350.609 286.092C345.585 286.03 341.47 287.624 337.479 290.19C334.664 291.998 332.027 292.782 328.366 292.043C325.869 291.537 323.17 292.014 320.479 292.489C319.378 292.684 318.279 292.878 317.196 293.005C316.803 293.049 316.381 293.193 315.967 293.335C315.304 293.561 314.664 293.78 314.203 293.566C310.519 291.834 308.114 293.62 305.598 295.489C305.073 295.879 304.543 296.273 303.995 296.639C302.613 297.562 300.875 297.971 299.149 298.377C298.493 298.531 297.84 298.685 297.207 298.866C295.521 299.345 293.818 299.78 292.115 300.214C288.594 301.113 285.074 302.011 281.699 303.302C279.622 304.096 277.612 305.062 275.601 306.029C271.384 308.056 267.168 310.083 262.343 310.517C262.045 310.544 261.749 310.574 261.455 310.605C259.078 310.851 256.83 311.084 254.682 308.967C252.384 306.696 249.89 305.858 246.531 308.647C244.207 310.583 241.304 311.828 238.405 313.07C237.237 313.57 236.07 314.07 234.943 314.615C234.506 314.829 233.865 314.837 233.384 314.695C228.761 313.359 224.556 313.564 220.842 317.207C219.345 318.677 218.045 318 217.43 315.906C216.352 312.192 211.07 309.404 207.186 310.277L207.001 310.319C205.779 310.595 204.09 310.977 203.463 310.401C200.381 307.586 197.299 308.417 194.1 309.28C193.555 309.427 193.006 309.576 192.453 309.707C191.298 309.98 190.079 309.962 188.855 309.943C187.803 309.928 186.748 309.912 185.728 310.081C183.554 310.437 181.3 310.998 179.376 312.023C177.133 313.214 174.958 314.525 172.782 315.837C170.776 317.046 168.769 318.256 166.71 319.371C164.697 320.458 162.425 321.572 160.216 321.687C156.466 321.883 152.538 321.839 148.939 320.912C143.167 319.425 137.528 317.314 132.005 315.06C130.803 314.57 129.769 312.45 129.547 310.954C129.169 308.382 128.934 305.78 128.698 303.18C128.299 298.783 127.901 294.393 126.821 290.172C124.977 282.966 120.247 277.416 113.442 273.693C113.044 273.476 112.66 273.254 112.288 273.039C109.469 271.41 107.265 270.137 103.866 273.702C100.374 277.363 92.7491 273.408 92.2057 268.224C91.8494 264.785 89.3553 263.583 85.1776 264.233C82.2737 264.687 79.0758 264.954 77.7842 260.83C76.9389 261.173 76.0474 261.452 75.164 261.728C73.2265 262.333 71.3282 262.926 70.0434 264.162C66.8812 267.199 65.1798 265.498 63.3092 263.191C60.7349 260.011 59.3274 259.93 56.9402 263.476V233.421C58.8977 234.501 58.9002 234.975 58.9425 242.874L58.9444 243.229C58.9566 245.886 59.2385 248.543 59.5267 251.259L59.5267 251.259L59.5267 251.259C59.6608 252.523 59.7962 253.799 59.9064 255.094H63.6566L61.2871 247.869C62.3468 246.98 63.2489 246.223 64.0672 245.535C65.175 244.605 66.1291 243.804 67.1128 242.979C65.6341 240.244 64.3514 237.875 62.9172 235.229C63.6166 235.274 64.2367 235.309 65.1624 235.362L65.1766 235.363L65.1798 235.363C63.612 231.007 66.6763 229.502 69.9276 227.987C69.4319 227.472 68.9609 226.979 68.5028 226.5L68.5025 226.5C67.9318 225.903 67.3811 225.327 66.8277 224.754C63.6031 227.373 59.2473 227.587 56.1029 225.288C55.6397 224.95 55.0785 224.433 55.0072 223.943C54.5993 221.088 54.2559 218.222 53.8726 215.025L53.8726 215.025C53.7621 214.103 53.6482 213.153 53.5285 212.167C54.5273 213.171 55.4023 214.054 56.2265 214.886L56.2286 214.888L56.2433 214.903L56.2436 214.903L56.25 214.91C56.8507 215.516 57.4247 216.095 58.0002 216.675L58.6148 216.14L56.9046 213.45C60.0683 212.015 63.1224 210.635 66.1421 209.27L66.1552 209.264L66.1622 209.261L66.1689 209.258L66.2164 209.236L66.2808 209.207C67.4315 208.687 68.5775 208.169 69.7227 207.651L69.5535 207.09C69.2395 207.073 68.9111 207.087 68.5826 207.1H68.5824H68.5823H68.5822C67.8764 207.129 67.1702 207.159 66.605 206.885C65.8295 206.511 64.9104 206.401 63.9855 206.29C61.9147 206.043 59.8144 205.791 59.2295 202.565C59.1131 201.94 57.5177 201.581 55.93 201.223L55.9296 201.223L55.9295 201.223C55.2089 201.06 54.4899 200.898 53.9116 200.712C53.7844 201.131 53.626 201.552 53.4676 201.972C53.1045 202.935 52.7412 203.899 52.7536 204.854C52.772 205.774 53.1661 206.685 53.593 207.673C53.7862 208.119 53.9861 208.582 54.161 209.068L51.7915 209.237C51.5027 207.019 51.2273 204.811 50.9529 202.611C50.2036 196.604 49.4625 190.662 48.4779 184.767C48.1127 182.585 46.5627 180.483 45.182 178.63C42.8313 175.47 42.3208 171.873 41.8041 168.234C41.6728 167.308 41.541 166.38 41.3785 165.455C41.1596 164.204 40.9491 162.947 40.7383 161.688C39.645 155.159 38.5433 148.579 36.2209 142.5C34.5552 138.144 31.0901 134.136 26.6897 130.965C24.5866 129.452 23.8039 125.904 23.0761 122.604C22.8914 121.767 22.7103 120.946 22.512 120.178C21.7908 117.361 21.3597 114.467 20.9176 111.5L20.9175 111.5C20.7207 110.179 20.5217 108.843 20.294 107.493C20.4744 106.696 20.6634 105.865 20.8578 105.01L20.8579 105.009C21.3544 102.826 21.8866 100.485 22.4051 98.149C22.4513 97.9463 22.445 97.7052 22.4389 97.4712C22.4297 97.119 22.4209 96.7827 22.5921 96.6168C24.9883 94.3276 23.67 92.9291 21.5678 91.5573C21.1376 91.2808 20.8093 90.8517 20.4715 90.4104L20.4715 90.4103C20.3196 90.2118 20.1658 90.0109 20 89.8203C22.699 88.4218 26.3779 88.787 29.362 90.7021C29.9916 91.1062 30.618 91.5136 31.2438 91.9206C36.3286 95.2274 41.3657 98.5032 47.6317 99.7167C49.1872 100.016 50.5481 101.151 51.9303 102.303C53.0572 103.243 54.1982 104.194 55.4704 104.714C59.2206 106.246 63.2825 107.288 67.2998 107.805C69.3801 108.074 71.5277 107.789 73.679 107.503C74.6596 107.372 75.6411 107.242 76.6173 107.164C76.7108 107.155 76.8115 107.14 76.914 107.126C77.2411 107.078 77.5875 107.028 77.7842 107.164C79.8076 108.59 82.0814 108.837 84.375 109.085C85.2317 109.178 86.0911 109.271 86.9413 109.426C88.3318 109.68 89.7136 110.027 91.0904 110.372L91.0906 110.372L91.0907 110.373L91.0909 110.373C96.3728 111.698 101.581 113.005 106.93 108.999C109.3 107.226 113.566 110.842 114.359 114.797C114.522 115.613 114.788 116.408 115.053 117.201L115.053 117.202C115.179 117.578 115.304 117.955 115.419 118.334L116.47 118.067C116.292 116.766 116.114 115.466 115.909 113.96L119.98 112.82C121.098 114.743 122.211 116.67 123.53 118.954L123.535 118.963L123.537 118.966L123.542 118.974C124.059 119.869 124.607 120.818 125.2 121.843C125.269 121.182 125.402 120.527 125.527 119.909L125.527 119.909L125.527 119.909L125.527 119.909C125.789 118.62 126.017 117.497 125.565 116.828C125.29 116.418 124.868 116.083 124.454 115.754L124.454 115.753L124.454 115.753L124.454 115.753C123.476 114.976 122.539 114.231 123.659 112.597C125.12 110.459 126.759 108.17 130.438 110.237C129.654 111.315 128.843 112.419 127.908 113.693C128.361 114.546 128.862 115.483 129.414 116.514C129.687 117.023 129.971 117.555 130.268 118.111C130.814 116.965 131.314 115.924 131.922 114.66L131.923 114.657C132.316 113.839 132.754 112.926 133.279 111.831L135.248 119.082C134.574 119.299 134.004 119.485 133.487 119.653L133.487 119.653C132.945 119.83 132.462 119.987 131.979 120.142C132.13 120.434 132.276 120.73 132.423 121.026C132.75 121.689 133.078 122.353 133.466 122.975C133.633 123.24 133.925 123.527 134.196 123.795C134.563 124.156 134.892 124.479 134.82 124.658C133.889 126.867 135.061 128.089 136.261 129.341C136.886 129.993 137.519 130.653 137.867 131.464C131.437 134.249 130.007 139.862 128.39 146.207L128.389 146.208C128.263 146.702 128.136 147.201 128.006 147.702C127.906 147.403 127.774 147.1 127.642 146.797C127.35 146.128 127.057 145.457 127.106 144.807C127.164 144.021 127.237 143.235 127.309 142.449L127.309 142.448C127.545 139.878 127.781 137.301 127.543 134.662C127.285 135.296 127.027 135.934 126.765 136.583L126.756 136.604L126.751 136.617L126.747 136.626C126.507 137.22 126.263 137.825 126.01 138.447L124.407 136.639L123.721 136.933L123.856 137.652L124.019 138.515L124.02 138.523C124.213 139.549 124.417 140.639 124.656 141.904C124.542 142.19 124.424 142.533 124.293 142.911C123.965 143.861 123.56 145.032 122.955 146.09C121.995 147.771 120.908 149.381 119.82 150.992L119.819 150.994C119.362 151.67 118.904 152.347 118.457 153.029C118.104 153.564 117.738 154.093 117.371 154.621L117.371 154.621C116.505 155.869 115.638 157.117 114.956 158.463C112.702 162.908 110.573 167.424 108.507 171.967C107.367 174.479 107.857 175.619 111.081 175.432C116.311 175.136 120.197 172.392 124.152 169.6L124.434 169.402C122.612 169.482 120.979 170.356 119.331 171.237C116.603 172.697 113.833 174.179 110.101 172.118C110.541 171.206 110.968 170.286 111.397 169.366L111.397 169.365C113.738 164.334 116.083 159.293 120.301 155.31C120.549 155.073 120.734 154.761 120.918 154.45C121.136 154.082 121.353 153.716 121.672 153.484C122.152 153.133 122.548 152.663 122.946 152.191C123.913 151.043 124.887 149.885 127.097 150.428C128.104 150.678 130.865 148.477 130.794 147.551C130.5 143.747 132.388 141.253 134.606 138.67C135.598 137.511 136.461 136.248 137.409 134.862L137.409 134.862L137.409 134.862L137.409 134.862L137.409 134.862L137.411 134.859C137.876 134.18 138.361 133.47 138.891 132.729C139.169 133.317 139.398 133.8 139.598 134.225C139.859 134.779 140.073 135.232 140.289 135.686L141.056 135.481C140.834 134.148 140.615 132.815 140.395 131.472L140.395 131.47C140.207 130.328 140.019 129.179 139.826 128.016C142.053 127.446 143.372 127.651 143.737 130.324C144.109 133.076 144.707 135.797 145.331 138.637C145.602 139.869 145.878 141.123 146.142 142.411H142.463C142.816 144.108 143.172 145.823 143.539 147.594C144.127 150.424 144.744 153.399 145.429 156.681L139.826 154.25C140.398 155.185 140.917 156.027 141.398 156.807L141.398 156.808C142.484 158.569 143.372 160.011 144.218 161.474C144.458 161.883 144.521 162.525 144.414 162.997C143.618 166.377 142.791 169.752 141.964 173.126C141.7 174.207 141.435 175.287 141.171 176.367C141.145 176.492 141.082 176.626 140.993 176.715C140.336 177.376 140.73 178.33 141.114 179.257C141.656 180.566 142.176 181.823 139.684 182.131C138.582 182.268 137.385 181.622 136.061 180.907L136.061 180.907C135.414 180.558 134.737 180.193 134.027 179.895C134.474 178.972 134.942 178.007 135.439 176.984L135.462 176.937L135.469 176.924L135.471 176.918L135.485 176.889C136.174 175.471 136.917 173.94 137.733 172.252C133.751 173.722 131.72 176.109 130.919 179.556C130.785 180.138 130.802 180.76 130.818 181.377L130.818 181.378C130.824 181.582 130.829 181.786 130.829 181.988C130.829 184.643 130.829 187.297 130.366 189.969C126.759 186.585 125.814 182.968 127.712 178.363C128.216 177.138 127.992 175.609 127.743 173.913C127.623 173.093 127.497 172.235 127.445 171.352C127.012 172.403 126.589 173.357 126.193 174.249L126.193 174.249L126.193 174.25L126.193 174.25C125.351 176.148 124.632 177.768 124.202 179.458C123.783 181.124 123.596 183.467 124.452 184.732C126.718 188.097 124.681 188.477 122.504 188.884L122.465 188.892C123.077 190.413 123.698 191.951 124.445 193.804L124.914 194.966L125.672 196.846L126.411 190.335L127.578 190.442C127.646 190.962 127.714 191.481 127.793 192.087L127.938 193.201L128.113 194.539C128.341 193.75 128.506 193.187 128.65 192.692L128.651 192.69C128.777 192.258 128.888 191.879 129.012 191.448C129.227 191.822 129.406 192.22 129.579 192.604C129.945 193.416 130.281 194.162 130.856 194.477C132.005 195.1 134.205 195.688 134.802 195.109C139.354 190.682 142.009 185.159 143.051 178.986C145.066 180.06 147.116 181.152 149.167 182.244L149.188 182.255L149.83 181.178L147.843 179.369C148.161 179.146 148.474 178.908 148.789 178.669L148.79 178.669C149.43 178.183 150.078 177.691 150.783 177.303C155.014 174.996 155.281 172.822 152.707 168.529C151.887 167.169 151.597 165.491 151.307 163.81C151.171 163.024 151.035 162.237 150.845 161.483C150.59 160.475 150.329 159.467 150.06 158.428L150.059 158.426C149.832 157.546 149.598 156.645 149.357 155.702C149.934 155.64 150.508 155.58 151.136 155.514L151.139 155.514L151.142 155.514C152.153 155.408 153.305 155.287 154.836 155.123C152.377 152.985 150.587 151.426 148.44 149.555C151.691 146.348 152.368 142.554 150.854 138.34C150.694 137.895 150.747 137.031 151.032 136.835C153.268 135.259 153.8 132.932 154.33 130.608C154.631 129.294 154.931 127.98 155.539 126.805C155.627 126.641 155.701 126.419 155.773 126.206C155.892 125.853 156.004 125.521 156.154 125.504C159.568 125.182 160.058 122.868 160.55 120.542L160.551 120.541L160.551 120.541L160.551 120.541C160.684 119.912 160.817 119.282 161.009 118.69C155.789 116.615 152.146 111.831 152.493 106.567C152.751 102.638 150.489 102.051 147.799 101.587C144.908 105.944 147.113 108.801 149.327 111.669C150.314 112.947 151.302 114.227 151.843 115.644C150.852 114.118 149.307 112.915 147.762 111.713C144.319 109.033 140.877 106.353 143.576 100.1C144.681 99.9253 145.994 99.7206 147.565 99.4756L148.633 99.3091L150.302 99.0486C150.439 98.7852 150.6 98.5254 150.762 98.2656C151.695 96.7604 152.627 95.2582 148.966 93.0627C148.493 92.7796 147.952 92.5048 147.385 92.2164C144.558 90.7805 141.071 89.0093 142.124 84.2173L140.913 83.9768C140.78 84.3081 140.611 84.6411 140.442 84.9745C140.064 85.7168 139.686 86.461 139.71 87.1925C139.764 88.787 140.076 90.5685 140.913 91.869C141.426 92.6713 142.303 93.2431 143.488 94.0164C144.093 94.4109 144.778 94.8577 145.536 95.4143C144.857 95.6521 144.257 95.924 143.73 96.1631C142.755 96.6048 142.027 96.9349 141.501 96.7326C138.321 95.5034 136.976 97.0444 135.595 99.5742C135.187 100.325 134.284 100.813 133.302 101.343L133.302 101.343C132.828 101.599 132.336 101.865 131.872 102.175C132.099 102.267 132.338 102.398 132.572 102.525L132.572 102.525C133.062 102.793 133.533 103.05 133.84 102.923C137.51 101.391 138.882 103.485 139.675 106.478C139.787 106.905 139.898 107.332 140.009 107.759C140.996 111.549 141.985 115.351 143.514 119.073L143.87 112.811L144.752 112.357C145.426 114.436 147.027 115.68 148.622 116.918C150.381 118.284 152.132 119.644 152.618 122.111C152.894 123.5 152.805 125.175 152.226 126.422C151.896 127.135 149.928 127.838 149.295 127.482C148.44 127.001 147.95 125.549 147.665 124.427C146.97 121.71 146.195 121.541 143.336 123.269C139.111 120.876 139.002 117.126 138.892 113.365C138.829 111.218 138.767 109.067 137.938 107.164C135.07 107.609 134.571 107.288 129.28 101.667C129.708 100.94 130.153 100.213 130.6 99.4828C134.021 93.8885 137.562 88.0982 135.096 80.5028L133.092 81.7321L132.335 80.6008C133.078 80.1236 133.822 79.6449 134.592 79.1494L134.601 79.1432L134.607 79.1394C135.686 78.4446 136.817 77.7165 138.071 76.913C138.676 78.6961 139.073 79.8575 139.605 81.4155L139.607 81.4203L139.96 82.4536L141.047 77.8661C141.25 78.3031 141.399 78.6542 141.522 78.9433L141.522 78.9435C141.736 79.4501 141.87 79.7666 142.08 80.0218C142.608 80.6683 143.189 81.2708 143.77 81.8728L143.77 81.8728L143.77 81.8731C143.974 82.0839 144.177 82.2946 144.378 82.5071C144.539 82.1474 144.756 81.7766 144.973 81.4055C145.455 80.5819 145.938 79.7571 145.803 79.0509C145.502 77.4529 144.884 75.9166 144.212 74.2467C143.929 73.5429 143.636 72.8153 143.354 72.0494L146.079 73.8755C149.179 71.9425 148.787 70.2055 146.756 67.5065C145.754 66.1758 145.355 64.3933 144.955 62.6037C144.757 61.7219 144.559 60.8383 144.289 60.0062C144.179 59.6642 144.074 59.2711 143.968 58.8685L143.968 58.8684C143.636 57.6146 143.279 56.2689 142.632 56.0868C141.421 55.7394 139.639 56.7015 138.356 57.5032C138.019 57.7164 137.746 58.032 137.447 58.377C136.972 58.9254 136.433 59.5482 135.47 59.9528C135.613 59.0945 135.752 58.2337 135.902 57.3139C136.033 56.5059 136.171 55.6524 136.326 54.7151L132.745 53.5838C132.712 53.0249 132.676 52.435 132.639 51.8165L132.637 51.7888L132.637 51.7779C132.583 50.8893 132.526 49.9419 132.468 48.9429C131.773 48.5279 131.062 48.0988 130.295 47.6368C129.696 47.2758 129.064 46.8946 128.38 46.4844C128.593 46.2055 128.825 45.9503 129.045 45.7078C129.514 45.1908 129.931 44.7311 130.01 44.2218C130.117 43.5448 129.538 42.6451 129.039 42.0305C128.579 41.4653 128.012 40.9911 127.444 40.5172L127.444 40.517C127.198 40.3113 126.951 40.1057 126.714 39.8927L127.56 38.9752L131.943 39.9461L130.892 36H451.23V36.0089ZM118.011 76.8508C117.752 77.1738 117.442 77.4978 117.147 77.8053C116.54 78.4391 116 79.0031 116.114 79.3449C116.39 80.1792 117.015 80.8942 117.672 81.6454C117.947 81.961 118.229 82.283 118.492 82.6229C118.49 82.6253 118.483 82.6355 118.473 82.6515C118.403 82.7593 118.163 83.1295 117.922 83.1218C113.566 83.0149 107.919 77.8573 107.251 73.5727C107.209 73.297 107.304 72.9335 107.401 72.5604C107.656 71.5837 107.928 70.5416 105.808 70.8381C105.943 70.6589 106.1 70.4259 106.258 70.1917L106.259 70.1912L106.259 70.191L106.259 70.1908C106.611 69.6687 106.968 69.141 107.091 69.1901C107.433 69.3256 107.778 69.459 108.124 69.5926C109.984 70.3111 111.867 71.0387 113.46 72.1653C114.719 73.0612 115.758 74.2742 116.75 75.4327L116.75 75.433L116.75 75.4335C117.169 75.922 117.579 76.4007 117.994 76.8419L118.011 76.8508ZM130.765 65.4244L130.767 65.4222L130.776 65.4311L130.765 65.4244ZM128.938 64.2416C129.533 64.6339 130.137 65.0331 130.765 65.4244C129.421 67.018 128.156 68.523 126.527 70.4639C125.814 69.2205 125.101 67.9749 124.388 66.7292C123.676 65.4852 122.963 64.2411 122.251 62.9993L121.628 63.0973C121.746 63.5842 121.869 64.0701 121.992 64.556L121.992 64.5568C122.238 65.5285 122.483 66.5002 122.697 67.4799C122.873 68.2876 123.01 69.1001 123.148 69.9139L123.148 69.9141L123.148 69.9143C123.199 70.2132 123.25 70.5123 123.302 70.8113C122.94 70.6529 122.573 70.5026 122.207 70.3523L122.207 70.3522L122.207 70.3522C121.358 70.0039 120.509 69.6559 119.713 69.2079C119.328 68.99 119.063 68.5739 118.846 68.2315L118.846 68.2314L118.845 68.2312C118.761 68.0978 118.683 67.9756 118.608 67.8807L116.203 69.1278C116.107 68.9434 115.97 68.7268 115.833 68.5088C115.527 68.0211 115.216 67.5269 115.339 67.373C115.566 67.0883 115.792 66.8012 116.018 66.5135C117.465 64.6761 118.934 62.8118 120.728 61.387C121.503 60.7635 123.561 61.2356 124.772 61.7878C126.212 62.4421 127.546 63.3231 128.938 64.2416ZM146.427 171.192C146.158 172.036 145.887 172.882 145.611 173.742L145.611 173.742C145.285 174.76 144.952 175.798 144.61 176.875C142.792 172.029 143.817 166.498 147.086 162.765C147.772 163.673 147.865 164.84 147.959 166.036C148.12 168.069 148.287 170.182 151.388 171.237C149.73 172.361 148.269 173.357 147.109 174.148L147.098 174.155L146.819 174.345C146.875 174.157 146.974 173.822 147.098 173.407L147.62 171.646L146.427 171.192ZM126.365 81.6651C126.118 82.3102 125.92 82.8273 125.725 83.3445L125.743 83.3623L125.057 83.3267C124.755 81.8023 124.453 80.2757 124.151 78.7491C123.847 77.2159 123.544 75.6827 123.24 74.1517C122.085 75.2063 121.616 76.1458 121.195 76.9891C121.054 77.2712 120.918 77.5426 120.764 77.8039C119.116 80.592 119.695 82.1241 122.786 83.4336C123.175 83.5976 123.398 84.1511 123.627 84.7211C123.735 84.9868 123.843 85.2561 123.971 85.4912L128.113 84.4758C127.901 83.7706 127.705 83.1156 127.5 82.4254C127.308 81.7817 127.107 81.1075 126.874 80.3337C126.68 80.8424 126.514 81.2769 126.365 81.6651Z" fill="#E6E6E6"/>
<path d="M410.573 68H204.008V324.276H410.573V68Z" fill="#E6E6E6"/>
<path opacity="0.08" d="M410.573 68H204.008V141.114H410.573V68Z" fill="black"/>
<path opacity="0.44" d="M227.464 79.0938H387.244C391.153 79.0938 394.306 82.2452 394.306 86.153V123.088C394.306 126.996 391.153 130.147 387.244 130.147H227.464C223.555 130.147 220.402 126.996 220.402 123.088V86.153C220.402 82.2452 223.555 79.0938 227.464 79.0938Z" fill="white"/>
<path opacity="0.08" d="M259.117 160.148H218.258V189.898H259.117V160.148Z" fill="black"/>
<path opacity="0.08" d="M305.148 160.148H264.289V189.898H305.148V160.148Z" fill="black"/>
<path opacity="0.08" d="M351.304 160.148H310.445V189.898H351.304V160.148Z" fill="black"/>
<path opacity="0.08" d="M397.457 160.148H356.598V189.898H397.457V160.148Z" fill="black"/>
<path opacity="0.08" d="M259.117 197.211H218.258V226.961H259.117V197.211Z" fill="black"/>
<path opacity="0.08" d="M305.148 197.211H264.289V226.961H305.148V197.211Z" fill="black"/>
<path opacity="0.08" d="M351.304 197.211H310.445V226.961H351.304V197.211Z" fill="black"/>
<path opacity="0.08" d="M397.457 197.211H356.598V226.961H397.457V197.211Z" fill="black"/>
<path opacity="0.08" d="M259.117 234.266H218.258V264.015H259.117V234.266Z" fill="black"/>
<path opacity="0.08" d="M305.148 234.266H264.289V264.015H305.148V234.266Z" fill="black"/>
<path opacity="0.08" d="M351.304 234.266H310.445V264.015H351.304V234.266Z" fill="black"/>
<path opacity="0.08" d="M305.273 271.328H218.258V301.078H305.273V271.328Z" fill="black"/>
<path opacity="0.08" d="M351.304 271.328H310.445V301.078H351.304V271.328Z" fill="black"/>
<path d="M397.457 234.266H356.598V301.076H397.457V234.266Z" fill="#FFD200"/>
<path opacity="0.2" d="M281.187 185.106C288.012 185.106 293.545 179.575 293.545 172.752C293.545 165.929 288.012 160.398 281.187 160.398C274.361 160.398 268.828 165.929 268.828 172.752C268.828 179.575 274.361 185.106 281.187 185.106Z" fill="#FFD200"/>
<path opacity="0.08" d="M283.458 190.023L254.957 232.253L231.249 227.084L209.18 193.301V246.75C220.908 256.582 237.68 268.179 249.03 264.776C267.946 259.103 295.816 232.001 283.458 190.023Z" fill="black"/>
<path d="M281.187 178.932C284.6 178.932 287.366 176.166 287.366 172.755C287.366 169.344 284.6 166.578 281.187 166.578C277.774 166.578 275.008 169.344 275.008 172.755C275.008 176.166 277.774 178.932 281.187 178.932Z" fill="#FFD200"/>
<path d="M142.846 178.68C142.846 178.68 114.22 200.11 129.479 246.247C144.738 292.384 177.274 269.946 177.274 269.946V232.254L142.846 178.68Z" fill="#9ED6BE"/>
<path opacity="0.46" d="M142.846 178.68C142.846 178.68 114.22 200.11 129.479 246.247C144.738 292.384 177.274 269.946 177.274 269.946V232.254L142.846 178.68Z" fill="white"/>
<path d="M215.234 338.141L221.035 342.679C221.666 343.183 221.792 343.939 221.287 344.57C221.035 344.948 220.657 345.074 220.152 345.074H212.838C210.694 345.074 209.055 343.309 209.055 341.292V338.141H215.234Z" fill="#9ED6BE"/>
<path d="M153.943 338.141L148.142 342.679C147.511 343.183 147.385 343.939 147.889 344.57C148.142 344.948 148.52 345.074 149.024 345.074H156.339C158.482 345.074 160.122 343.309 160.122 341.292V338.141H153.943Z" fill="#9ED6BE"/>
<path d="M177.273 172.749L178.282 156.488C178.282 156.488 179.417 146.025 184.714 147.916C190.01 149.807 195.433 160.144 192.659 163.295C191.145 165.06 189.506 163.925 187.488 164.178C185.723 164.304 185.975 164.051 185.975 165.816V171.993L177.273 172.749Z" fill="#F4A28C"/>
<path d="M172.103 171.995C172.103 171.995 139.44 169.096 135.153 191.156C130.865 213.216 161.257 254.815 161.257 254.815L203.63 253.177C203.63 253.177 269.458 160.65 172.103 171.995Z" fill="#9ED6BE"/>
<path opacity="0.08" d="M200.856 180.82C200.856 180.82 175.508 196.199 187.993 219.394C195.937 234.395 175.508 254.186 175.508 254.186L203.63 253.052C203.63 253.052 213.845 237.799 215.989 231.874C218.132 226.075 200.856 180.82 200.856 180.82Z" fill="black"/>
<path d="M161.257 254.818L151.547 338.143H161.005L182.065 271.206L205.773 338.143H216.493L203.63 253.18L161.257 254.818Z" fill="#24285B"/>
<path d="M177.275 165.947H182.446C182.446 165.947 183.581 156.493 187.112 154.728C190.643 152.963 194.3 149.559 191.147 146.408C187.994 143.256 183.328 139.727 178.032 143.383C172.735 147.164 170.718 156.114 177.275 165.947Z" fill="#24285B"/>
<path d="M198.331 186.114C199.844 179.181 206.654 174.769 213.464 176.282C215.608 176.786 217.499 177.668 219.139 179.055C223.174 182.584 227.21 187.879 229.984 196.073C233.137 205.401 237.803 214.225 243.856 222.041C246.504 225.318 251.17 225.822 254.449 223.175C255.332 222.545 255.962 221.662 256.467 220.78L273.365 187.375L283.328 192.921C283.328 192.921 271.726 242.588 254.449 247.378C239.19 251.79 190.134 222.797 198.331 186.114Z" fill="#9ED6BE"/>
<path opacity="0.46" d="M198.331 186.114C199.844 179.181 206.654 174.769 213.464 176.282C215.608 176.786 217.499 177.668 219.139 179.055C223.174 182.584 227.21 187.879 229.984 196.073C233.137 205.401 237.803 214.225 243.856 222.041C246.504 225.318 251.17 225.822 254.449 223.175C255.332 222.545 255.962 221.662 256.467 220.78L273.365 187.375L283.328 192.921C283.328 192.921 271.726 242.588 254.449 247.378C239.19 251.79 190.134 222.797 198.331 186.114Z" fill="white"/>
<path d="M275.512 188.639C275.512 188.639 277.403 172.377 281.313 170.99C285.348 169.73 281.313 180.823 281.313 180.823C281.313 180.823 292.284 182.084 283.33 192.925L275.512 188.639Z" fill="#F4A28C"/>
</svg>
