<svg width="406" height="306" viewBox="0 0 406 306" fill="none" xmlns="http://www.w3.org/2000/svg">
<path d="M328.799 60.666H74.5416V222.102H328.799V60.666Z" fill="#C9C9C9"/>
<path d="M310.793 75.7891H93.1567V204.765H310.793V75.7891Z" fill="white"/>
<path d="M203.863 115.546C203.981 115.798 204.019 116.079 203.974 116.352C203.929 116.626 203.801 116.879 203.609 117.079C203.583 117.177 203.581 117.281 203.604 117.38C203.627 117.479 203.674 117.571 203.741 117.648C203.964 117.859 204.248 117.994 204.553 118.033C205.01 118.033 205.517 117.597 205.781 118.287C206.664 118.226 207.324 117.343 208.298 117.82C208.532 117.932 209.019 117.546 209.405 117.384C209.374 117.104 209.374 116.821 209.405 116.541C209.628 115.333 209.841 115.283 210.785 116.034C211.171 115.699 211.313 115.404 210.856 115.019C210.399 114.633 210.572 114.389 211.069 114.247C211.438 114.178 211.811 114.134 212.186 114.115L213.597 113.983V113.648C213.343 113.554 213.076 113.499 212.805 113.486C212.284 113.657 211.746 113.773 211.201 113.831C210.597 113.779 210.014 113.588 209.496 113.273C209.222 113.1 209.587 111.618 209.892 111.385C210.44 110.938 210.998 110.502 211.749 109.923C211.374 109.791 211.029 109.558 210.734 109.629C210.269 109.771 209.837 110.006 209.465 110.319C209.161 110.573 208.978 110.949 208.674 111.243C208.369 111.537 207.913 111.7 207.659 112.014C207.111 112.593 207.192 113.029 207.821 113.456C207.935 113.51 208.03 113.597 208.093 113.706C208.157 113.815 208.186 113.941 208.177 114.067C208.168 114.193 208.122 114.313 208.044 114.412C207.966 114.511 207.86 114.585 207.74 114.623C207.531 114.722 207.353 114.876 207.226 115.07C207.098 115.263 207.027 115.488 207.019 115.719C206.969 116.176 206.969 116.846 206.157 116.663C205.142 117.972 205.142 116.663 204.898 116.166L204.746 115.871C204.462 115.415 204.259 114.765 203.853 114.572C203.447 114.379 203 114.988 202.543 115.201C202.419 115.249 202.286 115.271 202.153 115.267C202.019 115.263 201.888 115.233 201.767 115.178C201.645 115.124 201.535 115.046 201.444 114.948C201.353 114.851 201.281 114.737 201.234 114.613C201.037 114.162 200.901 113.688 200.828 113.202C200.819 113.027 200.848 112.852 200.912 112.689C200.977 112.526 201.077 112.379 201.203 112.258C201.782 111.714 202.476 111.308 203.233 111.07C203.802 110.918 204.248 110.299 204.705 109.812C205.334 109.111 205.903 108.35 206.42 107.701L205.263 107.985C205.536 107.735 205.828 107.508 206.136 107.305C206.467 107.201 206.807 107.126 207.151 107.081C207.486 106.878 208.055 106.239 208.481 106.32C209.242 106.472 209.8 105.894 210.511 106.066C210.856 106.148 211.292 105.742 211.851 105.478L211.556 106.107C211.873 105.942 212.217 105.835 212.571 105.792C213.131 105.871 213.684 105.989 214.226 106.148L214.033 106.442C215.221 106.726 216.408 106.949 217.565 107.274C218.218 107.486 218.85 107.758 219.453 108.086C219.961 108.34 219.991 108.716 219.453 108.979C218.473 109.355 217.388 109.355 216.408 108.979C216.083 108.862 215.736 108.82 215.393 108.858L216.317 109.355C216.278 109.582 216.303 109.815 216.387 110.028C216.471 110.242 216.613 110.429 216.796 110.568C216.979 110.707 217.197 110.793 217.425 110.818C217.654 110.842 217.885 110.803 218.093 110.705L217.362 110.228L217.423 110.055L219.311 110.36L218.976 109.659C219.347 109.475 219.731 109.316 220.123 109.182C220.537 109.088 220.958 109.023 221.382 108.99C221.249 108.798 221.15 108.585 221.087 108.36C221.077 108.021 221.098 107.681 221.148 107.345L222.579 107.65V107.934L221.879 108.178C222.407 108.99 222.62 108.929 223.31 108.381C223.943 107.98 224.626 107.663 225.34 107.437C225.596 107.362 225.857 107.308 226.122 107.274C226.69 108.178 227.502 107.274 228.253 107.345C228.578 107.345 228.943 106.868 229.268 107.477C229.565 107.406 229.857 107.314 230.141 107.203L228.619 106.117C229.643 106.25 230.66 106.44 231.664 106.686C232.464 107.102 233.335 107.366 234.231 107.467C233.922 107.288 233.665 107.031 233.486 106.721C233.308 106.41 233.215 106.059 233.216 105.701C233.503 105.267 233.844 104.871 234.231 104.524C234.62 104.324 235.053 104.226 235.49 104.239C235.819 104.271 236.143 104.343 236.454 104.453L235.977 105.143L236.343 107.528L236.678 107.64L235.196 109.081C235.456 109.15 235.728 109.155 235.99 109.097C236.253 109.039 236.498 108.919 236.704 108.748C236.911 108.576 237.073 108.357 237.178 108.109C237.283 107.862 237.327 107.593 237.307 107.325C237.794 107.325 238.413 107.081 238.454 107.954C239.022 107.467 238.89 107.031 238.2 107H236.83C236.779 106.422 236.718 105.843 236.657 105.163L237.672 104.534V105.376L238.525 105.498L237.896 104.95L238.911 105.092L238.992 104.919L238.494 104.574L238.555 104.392C239.185 104.584 239.814 104.787 240.484 104.98C240.734 105.044 240.988 105.088 241.245 105.112C241.245 105.112 241.316 104.909 241.245 104.909C241.022 104.798 240.788 104.706 240.443 104.554L240.22 103.813L243.539 103.529L243.042 103.011C244.559 102.28 246.245 101.968 247.924 102.108C248.515 102.096 249.102 102.008 249.67 101.844C249.72 101.844 249.771 101.773 249.812 101.773C250.348 101.705 250.855 101.487 251.273 101.144C251.903 100.697 252.633 100.129 253.303 101.144C253.435 101.336 253.851 101.326 254.105 101.397C254.997 101.337 255.893 101.337 256.785 101.397C257.11 101.397 257.353 102.027 257.637 102.412L253.912 103.732V103.884C254.166 103.884 254.41 103.935 254.663 103.935C254.917 103.935 255.293 104.006 255.465 103.874C256.308 103.245 257.16 103.63 258.033 103.722C258.368 103.722 258.754 103.519 259.048 103.59C259.454 103.684 259.835 103.864 260.165 104.118C260.521 104.328 260.943 104.4 261.349 104.32C261.756 104.239 262.118 104.012 262.367 103.681C262.457 103.616 262.559 103.57 262.667 103.546C262.776 103.521 262.888 103.519 262.997 103.539C263.829 103.651 264.641 103.793 265.514 103.935C265.412 104.899 265.514 105.711 266.711 105.731L267.046 105.173H271.015L270.599 104.493C271.552 104.288 272.532 104.236 273.502 104.341C274.375 104.574 275.532 104.341 276.435 105.112C277.248 105.496 278.151 105.643 279.044 105.539C279.927 105.539 280.861 105.386 281.5 106.34C281.632 106.554 282.18 106.523 282.515 106.543C283.073 106.574 283.632 106.574 284.19 106.543C284.603 106.497 285.013 106.426 285.418 106.33C285.671 106.31 285.926 106.31 286.179 106.33L286.331 106.594L285.824 106.736L285.885 106.899L287.245 107.315L286.991 106.3C288.439 106.337 289.877 106.548 291.274 106.929C292.574 107.437 294.056 107.558 294.837 108.959C295.274 108.37 295.659 108.431 297.212 109.396C296.715 109.822 295.883 109.832 295.72 110.614L294.096 110.126C293.822 110.035 293.558 109.923 293.284 109.812C293.067 109.752 292.856 109.67 292.655 109.568C292.526 109.463 292.416 109.336 292.33 109.193C292.279 109.355 292.239 109.517 292.188 109.69C292.137 109.862 292.188 109.842 292.188 109.954L290.706 110.471C290.969 110.638 291.18 110.874 291.317 111.154C291.453 111.433 291.509 111.745 291.478 112.055C289.448 111.689 288.118 112.816 286.646 113.76C286.548 113.638 286.426 113.537 286.289 113.463C286.151 113.388 286 113.342 285.845 113.326C285.689 113.31 285.532 113.325 285.382 113.37C285.232 113.414 285.092 113.489 284.971 113.588C284.756 113.687 284.516 113.722 284.281 113.689C283.195 113.598 283.023 114.613 282.332 115.191L283.002 115.323C283.063 115.77 283.104 116.155 283.154 116.582C282.424 116.643 282.14 116.988 282.627 117.597C282.241 117.993 281.196 117.688 281.561 118.754C280.333 118.581 280.749 120.114 279.775 120.368C279.47 118.652 278.516 116.988 279.775 115.496C281.338 114.481 282.82 113.527 283.835 111.974L283.692 111.771C283.53 111.832 283.215 111.892 283.215 111.933C283.215 112.512 282.809 112.562 282.434 112.725C282.058 112.887 281.541 113.74 281.317 112.542C280.813 112.484 280.302 112.529 279.815 112.674C279.407 112.862 279.056 113.157 278.8 113.527C278.678 113.689 278.719 113.983 278.658 114.328L276.77 114.582L277.136 114.014C276.259 114.175 275.366 114.227 274.476 114.166C272.588 113.77 271.563 114.978 270.416 115.973C269.828 116.45 269.249 116.988 268.762 117.373C268.99 117.667 269.248 117.936 269.533 118.175C269.641 118.22 269.757 118.243 269.873 118.243C269.99 118.243 270.106 118.22 270.213 118.175C270.487 118.114 270.843 117.79 270.974 117.871C271.289 118.043 271.736 118.47 271.685 118.693C271.391 119.992 271.594 121.413 270.782 122.591L268.589 125.778C268.399 126.047 268.11 126.231 267.786 126.29C267.461 126.349 267.126 126.278 266.854 126.092C266.488 126.63 265.747 126.823 265.686 127.716C265.686 128.092 264.945 128.417 264.824 128.731C265.142 129.484 265.41 130.257 265.625 131.046C265.9 132.304 264.712 132.223 263.92 132.7C263.981 131.908 264.052 131.188 264.073 130.467C264.073 130.284 263.87 129.919 263.788 129.939C262.773 130.041 263.291 129.462 263.372 129.076C263.405 128.965 263.453 128.86 263.514 128.762C263.391 128.66 263.249 128.584 263.096 128.538C262.943 128.492 262.782 128.477 262.623 128.494C262.464 128.511 262.31 128.559 262.171 128.637C262.031 128.714 261.908 128.819 261.809 128.944C261.758 129.004 261.714 129.068 261.677 129.137L261.434 128.975L261.789 127.716C261.028 127.554 260.774 128.305 260.337 128.62C260.215 128.701 260.144 128.863 260.013 128.944C259.857 129.016 259.694 129.068 259.525 129.097C259.647 129.279 259.759 129.472 259.881 129.645L260.226 130.122H262.256L260.408 131.726L261.697 134.872L261.068 135.43L261.982 135.572C261.586 136.354 261.19 137.146 260.774 137.937C260.537 138.594 260.223 139.221 259.84 139.805C259.343 140.384 258.977 141.145 258.003 141.236C257.363 141.37 256.754 141.621 256.206 141.977C255.922 142.2 255.673 142.463 255.465 142.759L255.354 142.008C254.908 141.948 254.455 142.054 254.082 142.304C253.708 142.554 253.438 142.933 253.324 143.368C253.07 144.626 254.065 145.398 254.745 146.139L255.881 145.844L256.013 146.037C255.785 146.304 255.575 146.585 255.384 146.88C255.251 147.023 255.166 147.204 255.14 147.397C255.212 148.544 255.303 149.62 253.912 150.188C253.527 150.341 253.354 151.021 252.897 151.396V150.584L250.705 147.925C250.591 148.038 250.501 148.172 250.441 148.321C250.421 148.646 250.37 148.969 250.289 149.285C249.731 150.432 250.492 151.406 250.695 152.432C250.786 152.848 251.456 153.122 251.71 153.548C251.946 154.015 252.114 154.515 252.207 155.03C252.38 155.644 252.462 156.28 252.451 156.918C251.954 156.563 251.509 156.139 251.131 155.659C250.898 155.083 250.738 154.479 250.654 153.863C250.591 153.502 250.456 153.157 250.258 152.848C249.931 152.45 249.708 151.978 249.609 151.473C249.51 150.968 249.538 150.447 249.69 149.955C249.964 148.331 249.203 146.91 248.979 145.266C248.441 145.722 248.289 146.524 247.386 146.057C247.954 144.799 247.223 143.804 246.523 142.789C246.313 142.38 246.166 141.942 246.087 141.49C245.457 141.622 244.828 141.713 244.26 141.876C244.047 141.936 243.712 142.079 243.681 142.231C243.468 143.429 242.311 143.885 241.722 144.799C241.347 145.398 240.707 145.814 240.311 146.392C240.149 146.766 240.096 147.178 240.159 147.58C240.277 149.215 239.744 150.831 238.677 152.076C237.958 150.414 237.398 148.688 237.002 146.92C236.566 145.184 236.322 143.388 235.987 141.845L235.358 142.617L234.1 141.602L234.637 141.388C234.008 140.688 233.409 139.998 232.75 139.267C231.735 139.267 230.588 139.318 229.451 139.267C228.314 139.216 228.253 139.064 227.878 138.1C227.386 138.353 226.814 138.401 226.287 138.234C225.761 138.066 225.321 137.697 225.066 137.207C225.015 137.117 224.974 137.021 224.944 136.922C224.889 136.767 224.824 136.614 224.751 136.466C224.224 135.451 224.061 135.451 223.32 136.273L224.721 139.318L225.046 138.557C225.137 138.973 225.188 139.186 225.218 139.348L225.371 140.221C225.827 140.13 226.386 140.556 226.751 139.856C227.02 139.428 227.33 139.027 227.675 138.658C227.675 139.02 227.713 139.38 227.786 139.734C227.874 140.014 228.062 140.253 228.314 140.404C229.573 141.033 229.725 141.906 228.811 142.921C228.66 143.116 228.531 143.327 228.426 143.55C228.304 143.753 228.192 143.977 228.06 144.18C227.548 144.825 226.905 145.355 226.172 145.733C225.371 146.199 224.711 146.9 223.939 147.407C223.2 147.853 222.438 148.26 221.656 148.625C221.219 148.838 221.026 148.625 220.935 148.189C220.702 146.859 220.722 145.459 219.92 144.271C219.622 143.882 219.354 143.472 219.118 143.043C218.935 142.667 218.875 142.241 218.722 141.845C218.57 141.449 218.306 140.769 218.093 140.231C217.88 139.693 217.504 138.912 217.179 138.262C216.997 137.887 216.763 137.521 216.601 137.247L215.413 137.602L215.332 137.359L215.961 136.892L214.703 135.593C214.855 135.491 215.16 135.166 215.464 135.156C216.256 135.156 216.479 134.659 216.642 134.03L217.372 130.822L216.022 131.452C216.022 131.452 215.961 131.452 215.941 131.452C215.413 131.32 214.622 130.903 214.388 131.117C213.637 131.776 213.272 131.015 212.845 130.822C212.419 130.629 212.318 130.102 212.074 129.746L212.186 128.224C211.648 127.909 211.668 127.929 211.039 128.488C210.917 128.599 210.572 128.488 210.217 128.488C210.45 128.811 210.66 129.15 210.846 129.503C210.959 129.736 210.987 130.002 210.927 130.254C210.751 130.654 210.541 131.038 210.298 131.401C209.74 130.142 208.593 129.147 208.582 127.534C208.582 127.178 208.085 126.732 207.699 126.519C207.07 126.153 206.41 125.889 206.197 125.118C206.197 125.037 205.903 125.037 205.811 124.945C205.706 124.786 205.617 124.616 205.548 124.438C204.746 124.641 204.644 125.027 205.223 125.737C205.456 126.021 205.598 126.366 205.852 126.671C205.976 126.883 206.164 127.051 206.39 127.148C207.151 127.31 207.496 128.011 208.085 128.407C208.085 128.407 208.085 128.549 208.146 128.711L207.131 128.285L207.405 129.3L206.776 130.132C207.151 128.741 206.146 128.285 205.263 127.655C204.774 127.224 204.328 126.744 203.934 126.224C203.69 125.94 203.467 125.636 203.244 125.351C202.916 125.536 202.604 125.747 202.31 125.981C202.156 126.155 201.947 126.271 201.718 126.31C201.489 126.349 201.254 126.308 201.051 126.194C200.574 126.011 200.036 125.96 200.107 126.823C200.107 127.107 199.742 127.412 199.508 127.676C199.275 127.94 198.747 128.417 198.443 128.843C198.321 129.005 198.443 129.33 198.443 129.777C198.037 130.934 196.758 131.117 195.398 131.431L194.88 130.751L194.007 130.853C193.134 129.391 194.352 127.808 193.621 126.366C194.88 125.585 196.24 126.204 197.57 126.102C197.661 125.362 198.199 124.59 197.57 123.859C197.037 123.355 196.541 122.812 196.088 122.235L197.671 122.306L197.58 121.555C197.735 121.631 197.903 121.675 198.075 121.684C198.248 121.694 198.42 121.669 198.582 121.611C198.745 121.554 198.894 121.464 199.022 121.349C199.15 121.233 199.253 121.092 199.326 120.936V120.875C199.417 120.703 199.64 120.611 199.782 120.469L201.173 119.089L202.959 118.378C202.985 118.125 202.985 117.87 202.959 117.617C202.665 116.196 202.665 116.206 203.863 115.546Z" fill="#9ED6BE"/>
<path d="M134.325 125.655H135.259C135.098 125.312 134.871 125.005 134.59 124.75C134.31 124.496 133.982 124.3 133.625 124.173C132.552 123.621 131.733 122.676 131.341 121.534C131.229 121.25 130.783 121.098 130.529 120.905L130.336 121.484C130.011 120.743 129.078 120.469 129.788 119.555C129.788 119.494 129.331 118.804 129.159 118.834C128.809 118.863 128.456 118.822 128.122 118.714C127.787 118.606 127.477 118.433 127.21 118.205C126.813 118.003 126.389 117.859 125.951 117.779C124.936 117.576 123.921 117.413 122.906 117.221L123.008 117.687L120.897 118.225L121.059 117.119L119.801 118.134C120.044 118.611 118.034 120.306 116.756 120.651L117.182 121.057V121.301C116.167 120.448 115.416 121.301 114.472 121.301L115.812 120.59C116.309 120.377 116.788 120.122 117.243 119.829C117.646 119.441 118.016 119.02 118.349 118.57H115.933L115.751 117.555C114.431 118.489 114.492 116.926 113.863 116.662C114.218 115.322 115.436 115.515 116.38 115.191L116.228 114.47C114.807 114.602 114.472 115.038 112.929 113.841C113.264 113.729 113.558 113.648 113.863 113.526C114.167 113.404 114.441 113.232 114.715 113.1C115.233 113.729 115.649 113.77 116.38 113.252L113.335 112.024C113.792 111.841 114.076 111.76 114.35 111.628C114.624 111.496 115.04 111.242 115.365 111.1C116.065 110.816 116.766 110.552 117.476 110.319C118.624 110.053 119.823 110.098 120.947 110.45C121.873 110.623 122.809 110.735 123.749 110.785C125.19 110.867 126.613 111.14 127.981 111.597C128.314 111.675 128.655 111.719 128.996 111.729C128.996 110.623 129.829 111.516 130.225 111.202C130.709 110.94 131.261 110.834 131.808 110.897L130.093 111.597L130.204 111.831L132.874 110.684L133.767 111.465L134.396 110.968L134.721 111.516C135.127 110.846 135.685 111.07 136.274 111.212C137.076 111.405 137.888 111.506 138.7 111.658C138.964 111.658 139.207 111.8 139.573 111.902L139.055 112.308V112.511C139.694 112.419 140.339 112.379 140.984 112.389C141.551 112.481 142.109 112.627 142.648 112.826L142.557 112.196C143.186 112.196 143.734 112.196 144.292 112.196C145.307 112.267 146.322 112.714 147.439 112.054C147.642 111.932 148.19 112.349 148.698 112.552L149.631 111.811L148.231 110.796C148.109 110.237 148.373 109.781 149.093 109.72C149.814 109.659 150.423 110.582 150.352 111.171L151.255 111.334L151.154 112.247L151.925 111.334L152.758 113.089L154.108 111.202L155.539 111.455V112.836L155.721 113.059L154.28 113.414L154.727 114.125L153.265 113.211C153.438 113.962 153.062 114.115 152.585 114.054C152.14 113.943 151.684 113.881 151.225 113.871L153.062 114.419L151.702 115.048C151.501 115.125 151.318 115.243 151.164 115.394C150.474 116.266 149.053 116.591 149.134 118.033C149.144 118.156 149.18 118.275 149.24 118.384C149.299 118.492 149.381 118.587 149.479 118.662C150.169 118.814 150.22 119.291 150.179 119.92C151.073 119.423 151.722 119.92 152.473 120.337C153.361 120.731 154.273 121.07 155.204 121.352C155.275 121.91 155.204 122.813 155.995 123.382C156.168 123.483 156.462 123.696 156.503 123.645C156.716 123.442 157.031 123.158 157.021 122.915C156.954 122.43 156.835 121.953 156.665 121.494C157.142 121.078 157.924 120.732 158.015 120.235C158.107 119.738 157.569 119.119 157.264 118.469C158.036 117.921 157.264 117.078 157.355 116.226C158.868 115.81 160.177 116.581 161.497 117.241C161.379 117.506 161.371 117.807 161.474 118.079C161.576 118.35 161.781 118.571 162.045 118.692C162.134 118.735 162.23 118.762 162.329 118.773C163.344 119.027 163.435 117.992 163.851 117.403C164.278 118.033 164.735 118.55 165.11 119.149C165.313 119.504 165.232 120.093 165.496 120.337C166.047 120.754 166.635 121.121 167.252 121.433L166.785 121.737C167.154 121.775 167.516 121.863 167.861 122.001C168.097 122.186 168.254 122.455 168.297 122.752C168.278 122.876 168.23 122.993 168.158 123.095C168.086 123.197 167.991 123.282 167.881 123.341C166.653 123.94 165.506 124.701 163.973 124.356C162.958 124.133 162.329 125.026 161.649 125.665C162.055 125.472 162.461 125.31 162.877 125.158C163.208 125.072 163.552 125.048 163.892 125.087C163.973 125.087 164.115 125.513 164.055 125.564C163.425 126.153 163.659 126.579 164.237 127.036C164.998 127.594 165.252 127.533 165.8 126.762C165.83 126.706 165.874 126.66 165.927 126.628C165.981 126.596 166.042 126.579 166.105 126.579L165.912 127.249L166.267 127.046L166.389 127.269L163.527 128.792L163.324 128.741L163.912 127.482C162.981 127.896 162.075 128.367 161.202 128.893C160.989 129.035 161.091 129.664 161.05 130.06L161.284 130.172C161.019 130.255 160.747 130.312 160.472 130.344C159.781 130.344 159.375 130.547 159.294 131.359C159.294 131.816 158.837 132.243 158.533 132.77L158.218 131.562C158.168 132.031 158.168 132.504 158.218 132.973C158.533 134.415 158.462 134.648 157.203 135.359C156.452 135.785 155.589 137.084 155.721 137.642C155.914 138.414 156.188 139.165 156.351 139.946C156.381 140.367 156.361 140.789 156.29 141.205L155.884 141.266L154.625 137.967L153.925 138.272C153.295 137.257 152.412 137.886 151.621 137.845L151.956 138.617C151.235 138.464 150.657 138.373 150.068 138.221C149.631 138.109 149.307 138.109 149.053 138.556C148.921 138.769 148.626 138.891 148.423 139.073C148.22 139.256 147.946 139.429 147.936 139.622C147.936 141.002 147.886 142.403 147.936 143.783C147.981 144.243 148.157 144.68 148.444 145.042C148.708 145.377 149.225 145.823 149.56 145.772C150.19 145.661 151.052 145.833 151.245 144.757C151.438 143.682 151.803 143.489 153.052 143.682L152.169 147.457C152.576 147.468 152.983 147.447 153.387 147.396C154.402 147.265 154.869 147.752 154.727 148.777C154.544 150.035 154.331 151.396 155.803 152.177C157 151.588 156.99 151.599 157.954 152.593C158.221 152.806 158.511 152.99 158.817 153.141C159.101 151.477 160.502 151.05 161.72 150.299C161.619 150.99 161.192 151.629 161.618 152.329L162.248 150.665L164.004 151.497C164.599 151.7 165.245 151.7 165.841 151.497C166.419 151.375 166.734 152.015 167.171 152.309C167.313 152.441 167.445 152.584 167.566 152.735C167.808 153.036 168.08 153.312 168.378 153.558C168.739 153.869 169.171 154.086 169.637 154.187C171.2 154.278 171.941 154.694 172.317 156.217C172.465 156.824 172.797 157.371 173.267 157.784C173.738 158.196 174.324 158.453 174.945 158.521C175.483 158.643 175.747 158.815 175.646 159.333C176.904 159.333 178.163 159.079 179.066 160.287C179.148 160.388 179.28 160.52 179.391 160.52C179.576 160.529 179.757 160.575 179.925 160.655C180.092 160.734 180.241 160.846 180.365 160.984C180.489 161.122 180.584 161.283 180.645 161.458C180.706 161.632 180.732 161.817 180.721 162.002V162.134C180.561 162.844 180.21 163.497 179.706 164.022C179.31 164.611 178.904 165.037 178.508 165.555C178.468 165.658 178.447 165.768 178.447 165.88C178.389 166.88 178.273 167.876 178.102 168.864C177.872 169.577 177.555 170.258 177.158 170.894C177.087 171.036 176.874 171.117 176.701 171.188C175.93 171.472 175.128 171.706 174.377 172.051C174.08 172.19 173.831 172.416 173.662 172.698C173.494 172.98 173.414 173.306 173.433 173.634C173.262 174.35 172.982 175.035 172.601 175.664C172.477 175.952 172.338 176.233 172.185 176.507L172.053 175.715C171.241 177.319 170.581 179.105 168.307 177.603C168.602 178.121 168.825 178.445 168.987 178.811C169.111 179.035 169.145 179.298 169.083 179.546C169.021 179.795 168.867 180.011 168.652 180.151C168.544 180.218 168.423 180.263 168.297 180.282C167.698 180.455 167.069 180.516 166.44 180.638C166.521 181.795 166.257 181.998 164.907 181.602C165.536 183.094 164.735 183.977 163.527 184.647C163.695 184.822 163.878 184.982 164.075 185.124C164.704 185.469 164.704 185.581 164.136 186.078C163.72 186.444 163.121 186.819 163.05 187.276C162.985 187.88 163.136 188.487 163.476 188.991C163.72 189.367 164.308 189.539 164.846 189.864C164.023 190.063 163.174 190.131 162.329 190.067C161.477 189.832 160.705 189.369 160.096 188.727C159.75 188.168 159.558 187.527 159.538 186.87C159.426 186.23 159.335 185.571 160.167 185.215L159.538 185.134L160.248 183.338H160.37L160.502 184.068H160.614L160.928 182.181C160.157 182.099 160.157 181.643 160.431 181.084C160.431 180.993 160.624 180.871 160.603 180.82C160.055 179.633 161.121 178.79 161.284 177.775C161.446 176.76 161.476 175.806 161.608 174.822C161.781 173.563 162.014 172.305 162.167 171.005C162.299 170.277 162.299 169.531 162.167 168.803C162.074 168.526 161.926 168.271 161.73 168.054C161.534 167.838 161.296 167.664 161.03 167.544C159.396 166.976 159 165.514 158.32 164.205C157.974 163.091 157.412 162.056 156.665 161.16C156.498 160.989 156.404 160.76 156.404 160.52C156.404 160.281 156.498 160.052 156.665 159.881L156.736 159.82C156.918 159.631 157.075 159.42 157.203 159.191C156.615 158.998 156.452 158.592 156.736 158.095C157.097 157.409 157.518 156.757 157.995 156.146C158.17 156.003 158.309 155.82 158.4 155.613C158.492 155.406 158.532 155.181 158.52 154.955C158.507 154.729 158.44 154.51 158.326 154.314C158.212 154.119 158.053 153.954 157.863 153.832C157.561 153.488 157.324 153.092 157.163 152.664C157.051 152.471 156.95 152.279 156.848 152.076H156.604L156.138 153.243L155.681 152.908C155.538 152.776 155.368 152.675 155.183 152.614C154.828 152.532 154.463 152.512 154.493 152.015C154.499 151.995 154.499 151.974 154.493 151.954C153.671 151.731 153.59 150.99 153.316 150.35C153.168 149.999 152.935 149.69 152.637 149.452C152.339 149.215 151.986 149.056 151.611 148.99C150.92 148.79 150.327 148.341 149.946 147.731C149.601 147.315 149.246 147.051 148.687 147.447C148.559 147.51 148.419 147.543 148.276 147.543C148.134 147.543 147.993 147.51 147.865 147.447C146.657 146.757 145.46 146.026 144.292 145.265C144.165 145.169 144.062 145.045 143.991 144.902C143.921 144.76 143.885 144.602 143.886 144.443C143.952 144.052 143.929 143.652 143.82 143.271C143.711 142.89 143.519 142.538 143.257 142.24C142.658 141.398 141.988 140.576 141.481 139.723C140.973 138.87 140.669 138.14 140.222 137.389C140.05 137.125 139.695 136.983 139.41 136.759L139.177 136.932C139.431 137.47 139.695 138.008 139.958 138.546L141.4 141.327C141.491 141.52 141.633 141.702 141.725 141.915C141.816 142.129 141.917 142.433 142.009 142.697L141.674 142.839C141.347 142.094 140.97 141.372 140.547 140.677C140.24 140.317 139.876 140.009 139.471 139.764C139.471 139.266 139.634 138.891 139.471 138.749C138.629 137.977 138.456 136.861 138.03 135.927C137.908 135.694 137.715 135.379 137.502 135.328C136.244 135.013 136.071 133.836 135.533 132.953C135.278 132.572 135.066 132.164 134.904 131.735C134.585 130.659 134.502 129.527 134.66 128.416C134.622 127.488 134.51 126.565 134.325 125.655Z" fill="#9ED6BE"/>
<path d="M208.704 177.989C208.429 177.858 208.204 177.639 208.064 177.368C207.925 177.097 207.879 176.787 207.933 176.486C207.901 175.792 207.607 175.136 207.111 174.649C206.422 173.85 206.059 172.821 206.096 171.767C205.988 170.758 205.617 169.796 205.02 168.975C204.188 167.554 204.756 166.316 205.345 165.098C205.609 164.55 205.852 164.154 205.446 163.616C205.364 163.475 205.326 163.312 205.335 163.149C205.38 162.54 205.298 161.928 205.096 161.352C204.893 160.775 204.573 160.247 204.157 159.8C203.741 159.382 203.459 158.85 203.347 158.272C203.235 157.693 203.298 157.094 203.528 156.552C203.606 156.146 203.53 155.727 203.315 155.374C203.206 155.258 203.071 155.169 202.921 155.114C202.771 155.059 202.61 155.041 202.452 155.06C201.823 155.121 201.437 155.141 201.193 154.43C200.95 153.72 200.178 153.953 199.64 154.065C199.102 154.177 198.625 154.471 198.027 154.644C197.768 154.714 197.502 154.755 197.235 154.765C196.554 154.774 195.874 154.842 195.205 154.968C194.999 155.058 194.772 155.088 194.55 155.056C194.327 155.024 194.118 154.93 193.946 154.786C193.287 154.291 192.657 153.759 192.058 153.192C191.54 152.528 191.062 151.833 190.627 151.111C190.526 150.969 190.343 150.878 190.221 150.736C190.069 150.595 189.957 150.416 189.896 150.218C189.794 149.373 189.867 148.517 190.11 147.701C190.334 147.077 190.312 146.391 190.049 145.783C189.531 144.96 190.049 144.473 190.333 143.895C190.729 143.093 191.206 142.321 191.673 141.56C191.798 141.389 191.976 141.264 192.18 141.205C192.982 140.961 193.53 140.576 193.51 139.601C193.507 139.286 193.593 138.975 193.758 138.706C193.923 138.437 194.161 138.22 194.444 138.079C194.921 137.698 195.344 137.254 195.702 136.759C196.595 137.48 197.59 137.115 198.564 136.709C199.188 136.447 199.843 136.269 200.513 136.181C201.457 136.069 202.405 136.008 203.355 135.998C203.718 136.01 204.078 136.058 204.431 136.14C204.248 136.709 204.066 137.236 203.853 137.866C204.289 138.698 205.355 138.262 206.136 138.607C206.218 138.607 206.421 138.607 206.421 138.607C206.603 139.622 207.588 139.348 208.136 139.754C208.684 140.16 208.887 139.845 208.938 139.297C208.937 139.134 208.98 138.974 209.062 138.834C209.144 138.694 209.262 138.578 209.404 138.498C209.545 138.418 209.706 138.378 209.868 138.381C210.031 138.384 210.19 138.43 210.328 138.515C211.151 138.851 211.991 139.143 212.846 139.388C213.284 139.461 213.733 139.427 214.155 139.287C214.723 139.134 215.17 139.074 215.363 139.794C215.697 140.768 216.084 141.724 216.52 142.656C216.875 143.408 217.535 144.088 217.646 144.849C217.778 146.107 218.59 146.95 218.946 148.036C219.076 148.355 219.273 148.642 219.524 148.878C219.996 149.288 220.447 149.722 220.874 150.178C221.087 150.431 221.067 150.878 221.25 151.193C221.316 151.285 221.405 151.359 221.508 151.407C221.611 151.455 221.725 151.476 221.838 151.467C222.914 151.243 223.98 150.939 225.178 150.644C225.149 151.181 225.043 151.711 224.863 152.218C224.138 153.972 223.04 155.548 221.646 156.836C220.531 157.965 219.569 159.234 218.783 160.612C218.692 160.734 218.661 161.028 218.783 161.079C219.362 161.556 218.996 162.175 219.088 162.713C219.179 163.251 219.504 163.647 219.585 164.134C219.754 164.849 219.791 165.588 219.697 166.316C219.595 166.793 219.067 167.209 218.682 167.575C218.052 168.153 217.423 168.661 216.794 169.229C216.692 169.31 216.723 169.574 216.794 169.737C216.865 169.899 216.997 170.305 217.088 170.589C217.209 170.901 217.204 171.247 217.073 171.554C216.942 171.861 216.696 172.105 216.388 172.234C216.114 172.365 215.86 172.518 215.759 172.579C215.826 173.003 215.795 173.437 215.667 173.847C214.723 175.35 213.779 176.892 211.952 177.471C211.21 177.615 210.456 177.693 209.699 177.704C209.357 177.756 209.022 177.852 208.704 177.989Z" fill="#9ED6BE"/>
<path d="M169.363 111.791L168.49 111.08L170.449 110.065V109.253L168.805 108.624V108.37L170.52 108.614L169.18 107.68C168.378 108.147 168.165 107.964 168.104 106.766H168.663C168.307 106.249 168.003 105.751 167.648 105.305C167.211 104.665 166.584 104.178 165.855 103.914C165.126 103.65 164.333 103.621 163.588 103.833C163.282 103.942 162.957 103.987 162.633 103.965C162.299 103.904 161.69 104.279 161.618 103.467C161.618 103.366 160.989 103.295 160.603 103.214V102.93L162.258 102.838L159.457 102.047C159.651 101.906 159.863 101.79 160.086 101.701C160.898 101.569 161.73 101.498 162.542 101.326C163.019 101.234 163.638 101.234 163.638 100.433H162.502V100.138L165.222 99.438V98.9406C165.293 98.9406 165.354 98.8797 165.394 98.9406C166.176 99.2146 166.815 98.6158 167.566 98.6057C167.783 98.6004 167.999 98.64 168.2 98.7221C168.401 98.8042 168.583 98.927 168.734 99.0827C168.937 99.2654 169.363 98.4128 169.921 98.9C170.023 98.9913 170.287 98.9 170.55 98.9L170.236 98.362L173.068 99.0827L173.139 98.8391C172.903 98.8069 172.672 98.749 172.449 98.6666C172.369 98.6303 172.299 98.5769 172.243 98.5102C172.187 98.4435 172.146 98.3652 172.124 98.2808C172.124 98.1793 172.347 97.9763 172.479 97.956C173.189 97.885 173.91 97.8748 174.631 97.8139C175.138 97.8139 175.646 97.6211 176.143 97.6312C178.173 97.6312 180.132 97.6313 182.121 97.7937C183.028 97.9373 183.919 98.1684 184.781 98.4839L182.629 98.8391V99.2045H183.228C183.573 99.2045 183.928 99.1233 184.243 99.0928L183.817 99.7628C184.741 99.6338 185.656 99.4474 186.557 99.2045C187.048 99.0112 187.575 98.9283 188.101 98.9617C188.627 98.995 189.14 99.1437 189.602 99.3974C187.877 100.209 186.009 100.737 184.913 102.442C185.307 102.402 185.706 102.432 186.09 102.534C186.334 102.635 186.456 103.031 186.679 103.366L185.491 103.437C185.41 103.924 186.669 104.259 185.715 104.899L186.253 105.467L185.024 105.65L185.583 106.279H183.715C183.35 106.776 183.421 107.152 184.131 107.436C184.436 107.521 184.695 107.724 184.851 108C185.007 108.276 185.048 108.602 184.963 108.908L183.299 108.208L182.741 108.888L184.832 109.101C183.407 110.061 181.776 110.673 180.071 110.887C179.777 110.887 179.442 111.242 179.249 111.516C178.964 112.023 178.541 112.437 178.028 112.71C177.515 112.984 176.935 113.105 176.356 113.059C176.184 113.059 175.788 113.496 175.788 113.689C175.842 114.008 175.794 114.336 175.653 114.628C175.511 114.919 175.281 115.158 174.996 115.313C174.915 115.313 174.874 115.516 174.844 115.627C174.702 116.226 174.529 116.825 174.428 117.434C174.326 118.043 173.971 117.891 173.606 117.728C173.118 117.544 172.64 117.334 172.174 117.099C171.853 116.916 171.584 116.654 171.393 116.338C170.713 115.079 170.084 113.821 169.464 112.562C169.381 112.314 169.347 112.052 169.363 111.791Z" fill="#9ED6BE"/>
<path d="M273.086 165.779C273.365 165.991 273.617 166.236 273.837 166.51C274.068 166.843 274.204 167.232 274.233 167.636C274.233 168.56 274.862 168.895 275.41 169.362C275.511 169.439 275.603 169.528 275.684 169.626C275.888 170.087 276.206 170.489 276.608 170.793C277.235 171.38 277.703 172.117 277.968 172.935C278.179 173.502 278.255 174.111 278.192 174.713C278.129 175.315 277.927 175.895 277.602 176.406C277.006 177.344 276.564 178.372 276.293 179.451C275.61 179.908 274.811 180.162 273.989 180.182L273.563 179.938C273.366 180.061 273.146 180.144 272.917 180.182C272.688 180.22 272.453 180.212 272.227 180.16C272 180.107 271.787 180.01 271.598 179.874C271.409 179.739 271.249 179.567 271.127 179.37C271.055 179.252 270.997 179.126 270.954 178.994C270.722 178.58 270.447 178.192 270.132 177.837L269.828 178.05L270.061 176.832L268.944 178.091C268.599 177.512 268.396 176.832 267.929 176.528C267.349 176.194 266.677 176.051 266.011 176.122C265.092 176.206 264.194 176.453 263.362 176.853C262.796 177.272 262.107 177.493 261.403 177.482C260.89 177.511 260.396 177.679 259.972 177.969C259.751 178.136 259.474 178.213 259.199 178.182C258.923 178.152 258.67 178.018 258.49 177.807C258.366 177.622 258.318 177.396 258.358 177.177C258.358 176.812 258.571 176.426 258.5 176.091C258.295 175.402 258.051 174.724 257.769 174.061C257.637 173.696 257.384 173.351 257.769 172.965C257.83 172.904 257.658 172.64 257.637 172.468C257.577 171.889 257.292 171.148 257.556 170.783C257.82 170.418 258.663 170.113 259.231 169.768C260.073 169.291 261.373 169.646 261.748 168.388C261.809 168.205 261.799 168.002 261.87 167.829C261.966 167.672 262.074 167.522 262.195 167.383L262.489 167.616C262.903 167.075 263.354 166.563 263.839 166.083C264.407 165.576 264.753 165.891 264.966 166.774C265.241 166.329 265.554 165.908 265.899 165.515C266.217 165.244 266.557 165 266.915 164.784C267.048 164.671 267.168 164.541 267.27 164.399L269.422 164.926C268.589 166.185 268.589 166.185 269.848 167.119C270.081 167.281 270.315 167.444 270.558 167.596L271.462 168.174C271.604 167.342 271.736 166.672 271.847 166.012C271.959 165.353 272.071 164.632 272.172 163.982H272.446L273.086 165.779Z" fill="#9ED6BE"/>
<path d="M158.167 110.168C158.249 109.224 157.355 109.254 156.909 108.798C156.696 109.295 156.554 109.813 155.894 109.275C155.772 109.153 155.478 109.275 155.265 109.214C154.25 109.102 153.235 108.99 152.22 108.848C152.017 108.848 151.854 108.625 151.59 108.473L152.494 108.189C151.631 108.026 150.91 107.975 151.276 107.021C151.422 106.588 151.733 106.23 152.141 106.025C152.55 105.819 153.023 105.784 153.458 105.925C153.275 106.321 152.94 106.717 152.971 107.082C153.001 107.448 153.397 107.833 153.671 108.168C153.397 106.422 153.539 106.138 154.788 105.956C155.417 105.864 155.711 106.24 155.803 107.316C156.315 107.014 156.906 106.874 157.5 106.912C158.093 106.95 158.662 107.165 159.132 107.529C159.392 107.657 159.675 107.733 159.964 107.752H160.208C160.779 108 161.329 108.295 161.852 108.635C162.229 108.988 162.57 109.38 162.867 109.802L162.126 109.955L162.035 110.137L165.354 111.924L164.095 113.517L162.441 112.076L162.126 112.847C162.755 113.436 163.902 113.862 163.648 115.314L162.715 115.223L163.121 116.238C161.953 115.76 160.796 115.72 160.076 114.685C159.864 114.399 159.569 114.185 159.231 114.073C158.893 113.96 158.529 113.954 158.188 114.055C157.877 114.061 157.567 114.009 157.274 113.903C157.325 113.649 157.355 113.385 157.427 113.132C157.448 112.971 157.507 112.818 157.599 112.685C157.74 112.485 157.924 112.318 158.137 112.198C158.228 112.198 158.431 112.37 158.584 112.472L158.036 113.182L159.223 113.05V112.847L158.827 112.715C159.02 112.086 160.197 112.035 159.791 111.112C159.67 110.792 159.442 110.524 159.147 110.352C158.851 110.18 158.505 110.115 158.167 110.168Z" fill="#9ED6BE"/>
<path d="M152.849 99.8642C152.088 100.311 151.387 99.5496 150.535 98.9304C151.704 98.7174 152.889 98.5952 154.077 98.565C155.148 98.542 156.21 98.3537 157.224 98.0068C158.007 97.8648 158.807 97.834 159.599 97.9154C161.06 97.9154 162.512 98.0068 163.963 98.1184C164.429 98.2084 164.883 98.355 165.313 98.5549C164.998 98.7173 164.735 98.8797 164.46 99.0015C163.202 99.5496 161.923 100.088 160.614 100.615C160.339 100.727 160.053 100.809 159.761 100.859C159.417 100.889 159.094 101.037 158.847 101.277C158.599 101.517 158.442 101.836 158.401 102.178L156.574 102.93L157.366 103.386C156.675 103.488 156.148 104.107 155.508 103.447C155.447 103.386 155.204 103.447 155.041 103.508C153.785 103.757 152.488 103.704 151.255 103.356L152.514 102.98L152.362 102.574L153.509 102.655L153.58 102.463L152.565 101.996C153.143 101.082 153.976 101.864 154.716 101.681L152.94 100.666C153.123 100.504 153.143 100.473 153.153 100.483C154.219 100.9 155.183 100.26 156.3 100.25C155.295 99.4481 154.128 100.372 152.849 99.8642Z" fill="#9ED6BE"/>
<path d="M137.888 108.979L140.172 108.837V108.684C139.715 108.684 139.238 108.593 138.771 108.573C138.304 108.553 137.837 108.573 137.37 108.573V108.339L138.324 107.974L137.025 107.629C137.472 106.614 138.416 106.441 139.441 106.289L139.39 106.857H139.654C140.09 106.441 140.456 106.583 140.852 106.939C141.247 107.294 141.41 106.309 141.806 106.807C142.035 107.119 142.313 107.393 142.628 107.619L142.323 106.309H143.531C143.718 106.975 143.998 107.611 144.363 108.197C144.749 108.654 145.46 108.867 145.947 109.354L145.186 109.415L145.521 110.045C145.077 110.116 144.625 110.116 144.181 110.045C143.223 109.824 142.219 109.931 141.329 110.349C140.811 110.491 140.07 110.775 139.674 109.933C139.674 109.821 139.339 109.811 139.167 109.76L137.847 109.385L137.888 108.979Z" fill="#9ED6BE"/>
<path d="M275.217 161.394L274.588 161.84L276.476 163.809C276.057 163.8 275.646 163.69 275.279 163.489C274.911 163.287 274.598 163 274.365 162.652C274.324 162.552 274.265 162.462 274.19 162.385C274.114 162.308 274.024 162.248 273.925 162.206C273.826 162.165 273.72 162.143 273.612 162.143C273.505 162.143 273.398 162.164 273.299 162.206C273.188 162.25 273.089 162.319 273.008 162.407C272.927 162.494 272.867 162.599 272.832 162.713C272.768 162.886 272.638 163.027 272.471 163.105C272.304 163.183 272.112 163.191 271.939 163.129C271.847 163.098 271.763 163.046 271.695 162.977C271.188 162.388 270.68 162.409 269.807 162.662L270.487 161.718C270.43 161.416 270.286 161.136 270.074 160.913C269.861 160.69 269.589 160.532 269.29 160.46C268.69 160.331 268.102 160.151 267.534 159.922C267.341 159.851 267.239 159.567 267.077 159.353L267.706 159.069L266.123 158.318C266.449 158.159 266.789 158.03 267.138 157.932C267.321 157.871 267.521 157.885 267.694 157.97C267.867 158.056 267.999 158.206 268.061 158.389C268.071 158.429 268.071 158.471 268.061 158.511C268.174 158.893 268.306 159.269 268.457 159.638H268.721C268.828 159.45 268.958 159.276 269.107 159.12C269.604 158.704 270.02 158.308 270.792 158.897C271.381 159.343 272.314 159.323 272.994 159.698C273.777 160.206 274.52 160.773 275.217 161.394Z" fill="#9ED6BE"/>
<path d="M255.171 156.451L255.953 156.715L259.282 153.568L260.297 154.583C259.282 155.507 259.282 156.146 260.185 157.101C259.475 157.385 258.886 158.664 258.926 160.003L255.78 159.374C255.618 158.461 254.765 157.649 255.171 156.451Z" fill="#9ED6BE"/>
<path d="M221.453 167.057C223.107 167.138 223.198 165.626 224.122 164.936C224.393 165.162 224.569 165.481 224.616 165.83C224.663 166.18 224.577 166.534 224.376 166.823C224.305 166.925 224.325 167.077 224.295 167.199C223.858 168.782 223.432 170.345 222.955 171.929C222.915 172.044 222.853 172.149 222.772 172.24C222.691 172.331 222.593 172.404 222.484 172.457C222.375 172.51 222.256 172.541 222.135 172.548C222.013 172.555 221.892 172.537 221.777 172.497C221.662 172.456 221.556 172.394 221.463 172.315C221.222 171.999 221.069 171.625 221.019 171.231C220.969 170.837 221.024 170.437 221.179 170.071C221.342 169.601 221.431 169.108 221.442 168.61C221.493 168.092 221.453 167.605 221.453 167.057Z" fill="#9ED6BE"/>
<path d="M196.808 120.053L196.128 119.85V118.835C196.154 118.711 196.227 118.602 196.331 118.531C196.748 118.713 196.961 118.419 196.91 118.145C196.859 117.871 196.453 117.719 196.199 117.516C196.139 117.516 196.037 117.516 195.905 117.516L196.007 116.998C195.286 116.318 194.992 115.821 195.195 115.547C195.611 114.968 196.524 114.603 196.92 114.867C197.549 115.283 197.549 115.597 197.103 116.45L198.889 118.927C199.05 118.948 199.201 119.015 199.326 119.119C199.397 119.211 199.204 119.505 199.133 119.708L198.859 120.459L195.58 120.987L196.808 120.053Z" fill="#9ED6BE"/>
<path d="M253.385 161.12L252.451 161.039L250.137 157.72L247.731 154.381C249.436 154.574 250.086 155.924 251.141 156.685C251.861 157.261 252.45 157.984 252.867 158.806C252.989 159.019 253.374 159.08 253.598 159.192L253.354 161.141L253.385 161.12Z" fill="#9ED6BE"/>
<path d="M228.375 106.017C227.784 106.112 227.179 106.079 226.602 105.922C226.024 105.764 225.487 105.485 225.026 105.103C225.727 104.519 226.388 103.888 227.005 103.215C227.706 102.517 228.621 102.074 229.603 101.957C230.61 101.76 231.626 101.614 232.648 101.52C233.108 101.42 233.562 101.294 234.008 101.145L234.161 101.449C233.941 101.623 233.694 101.76 233.43 101.855C232.476 101.97 231.533 102.156 230.608 102.413C229.388 102.84 228.302 103.583 227.462 104.565C227.34 104.717 227.462 105.194 227.593 105.387C227.821 105.635 228.084 105.847 228.375 106.017Z" fill="#9ED6BE"/>
<path d="M184.943 114.43L183.766 114.085L184.781 113.537H183.613L183.492 113.385L184.588 112.756L184.486 112.492L185.116 113.304L187.633 112.674L187.775 112.4C188.221 112.724 188.617 113.11 188.952 113.547C189.298 114.177 188.577 114.349 188.262 114.562C187.837 114.876 187.354 115.104 186.841 115.232C186.508 115.318 186.159 115.318 185.826 115.232C185.339 115.121 184.811 114.938 184.365 114.786L184.943 114.43Z" fill="#9ED6BE"/>
<path d="M268.508 132.305L266.478 132.802C267.077 131.787 267.402 131.655 268.914 131.655C269.036 131.442 269.178 131.209 269.29 130.975C269.401 130.742 269.452 130.539 269.462 130.529C269.715 130.557 269.971 130.533 270.213 130.458C270.518 129.828 270.751 129.199 270.985 128.57C271.137 128.174 270.985 127.555 271.756 127.555C271.965 127.869 272.076 128.238 272.076 128.615C272.076 128.993 271.965 129.362 271.756 129.676C271.503 130.159 271.411 130.71 271.492 131.249C271.594 132.122 270.812 132.132 270.477 132.264C269.797 132.447 269.219 132.62 269.026 133.411H268.772L268.508 132.305Z" fill="#9ED6BE"/>
<path d="M134.213 105.235C135.738 105.194 137.258 105.428 138.7 105.925L136.67 107.184C136.061 107.569 135.655 107.925 135.198 108.199L133.777 107.265C133.899 106.757 134.741 106.24 134.213 105.235Z" fill="#9ED6BE"/>
<path d="M149.459 101.58L149.895 101.204L148.129 100.859C148.464 99.966 148.88 99.4484 149.743 99.6006C149.96 99.6623 150.17 99.7438 150.372 99.8442C150.61 99.9458 150.865 100.004 151.123 100.017C151.479 100.372 151.753 100.89 152.321 100.413L153.092 101.042C152.25 102.25 151.113 102.443 149.459 101.58Z" fill="#9ED6BE"/>
<path d="M204.228 99.265L206.898 99.4984L206.624 98.8691L211.12 100.656V100.95H209.526C209.425 100.727 209.394 100.473 209.252 100.381C209.165 100.341 209.07 100.321 208.973 100.321C208.877 100.321 208.782 100.341 208.694 100.381C208.217 100.706 207.791 101.082 207.243 101.518L205.984 101.234L206.532 100.95L205.72 100.889V100.737L206.735 100.371V100.178C206.313 100.313 205.869 100.369 205.426 100.341C205 100.15 204.609 99.8893 204.269 99.5695L204.228 99.265Z" fill="#9ED6BE"/>
<path d="M150.048 103.589L150.677 103.406V103.853C152.504 105.111 154.524 103.853 156.442 104.482C156.392 104.634 156.312 104.775 156.207 104.896C156.102 105.017 155.974 105.116 155.831 105.188C155.687 105.26 155.531 105.302 155.371 105.314C155.212 105.325 155.051 105.304 154.899 105.254L154.757 105.193C154.501 105.167 154.242 105.167 153.986 105.193C152.869 105.193 151.743 105.193 150.626 105.081C150.443 105.081 150.23 104.716 150.139 104.452C150.073 104.169 150.042 103.879 150.048 103.589Z" fill="#9ED6BE"/>
<path d="M138.548 104.28H138.304H138.091C138.02 104.28 138.091 104.148 138.091 104.128C138.893 103.113 139.776 103.712 140.608 104.016C140.973 104.148 141.339 104.28 141.867 104.493L141.42 103.478L141.948 103.123C142.019 103.184 142.1 103.225 142.13 103.285C142.313 103.732 142.435 104.219 143.145 103.854C143.237 103.793 143.592 103.996 143.633 104.128C143.636 104.228 143.614 104.328 143.57 104.418C143.526 104.508 143.46 104.586 143.379 104.646C142.12 104.879 140.862 105.072 139.603 105.275C139.603 105.275 139.481 105.183 139.319 105.041L140.578 104.706V104.524L137.776 104.757V104.625L138.619 104.321L138.548 104.28Z" fill="#9ED6BE"/>
<path d="M284.738 184.465L288.199 181.42C288.35 181.489 288.493 181.574 288.625 181.674C288.737 181.775 288.869 182.07 288.828 182.11C288.453 182.506 288.433 183.216 287.752 183.369C287.598 183.416 287.462 183.512 287.367 183.643C286.392 185.003 286.392 185.003 284.738 184.465Z" fill="#9ED6BE"/>
<path d="M261.637 158.795L262.266 160.135L261.728 160.53L261.099 159.272C261.099 160.642 261.099 160.733 260.632 161.038L260.297 159.505L260.124 159.556C260.388 158.693 260.652 157.82 260.916 156.917C261.728 156.805 262.682 157.709 263.433 156.531C263.169 157.404 263.078 157.465 262.418 157.414C262.042 157.353 261.658 157.353 261.281 157.414C260.54 157.668 261.017 158.044 261.18 158.429L262.51 157.983L262.581 158.165L261.637 158.795Z" fill="#9ED6BE"/>
<path d="M193.317 119.505V118.246C193.613 118.002 193.891 117.738 194.149 117.454C194.586 116.957 195.042 117.302 195.408 117.454C195.773 117.606 195.733 117.962 195.347 118.195C195.286 118.195 195.266 118.358 195.266 118.459C195.266 118.764 195.347 119.271 195.205 119.342C194.656 119.618 194.077 119.829 193.479 119.971C193.378 119.971 193.195 119.758 193.063 119.647L193.317 119.505Z" fill="#9ED6BE"/>
<path d="M147.865 106.006L147.317 106.453L148.109 106.808C148.342 107.66 147.479 107.63 147.094 107.965C147.033 108.026 146.647 107.721 146.414 107.579L145.023 106.788L145.094 106.534L146.302 106.737L145.673 106.077C145.958 105.784 146.346 105.614 146.755 105.6C147.163 105.587 147.561 105.733 147.865 106.006Z" fill="#9ED6BE"/>
<path d="M273.258 121.666H272.578C272.649 122.377 272.731 123.077 272.802 123.696H272.122C272.568 121.808 271.523 119.789 272.599 117.688C272.832 119.149 273.035 120.408 273.258 121.666Z" fill="#9ED6BE"/>
<path d="M253.354 161.12C253.821 161.281 254.3 161.406 254.785 161.495C255.567 161.587 256.369 161.587 257.16 161.627C257.352 161.611 257.543 161.665 257.698 161.78L257.231 162.023L258.449 162.521V162.703C257.838 162.705 257.228 162.664 256.622 162.582C255.674 162.441 254.736 162.244 253.811 161.993C253.65 161.952 253.511 161.849 253.425 161.706C253.34 161.564 253.314 161.393 253.354 161.232C253.348 161.188 253.348 161.143 253.354 161.1V161.12Z" fill="#9ED6BE"/>
<path d="M271.655 126.61L271.289 127.432C270.964 126.417 271.107 126.072 271.807 126.052L272.05 124.326C272.68 124.702 272.822 125.717 273.776 125.341L273.938 126.062L272.609 126.823L271.655 126.61Z" fill="#9ED6BE"/>
<path d="M271.289 102.911C270.867 102.892 270.447 102.848 270.031 102.779C269.899 102.779 269.696 102.464 269.726 102.342C269.757 102.22 269.98 102.048 270.142 101.936C270.234 101.872 270.347 101.847 270.457 101.865C271.391 102.231 272.345 101.865 273.279 101.936C273.451 101.936 273.624 102.17 273.796 102.292C273.644 102.434 273.502 102.677 273.329 102.708C272.649 102.809 272.02 102.85 271.289 102.911Z" fill="#9ED6BE"/>
<path d="M291.153 179.674C291.068 179.893 290.963 180.104 290.838 180.303C290.442 180.831 290.036 181.318 289.61 181.856C289.585 181.879 289.553 181.892 289.519 181.892C289.485 181.892 289.452 181.879 289.427 181.856C289.418 181.837 289.412 181.816 289.412 181.795C289.412 181.774 289.418 181.753 289.427 181.734L288.839 180.587L289.356 179.196C289.904 178.953 290.29 180.496 291.133 179.41L291.153 179.674Z" fill="#9ED6BE"/>
<path d="M145.439 104.037L145.379 103.54L146.333 104.037L146.099 103.489C146.47 103.438 146.845 103.438 147.216 103.489C147.368 103.489 147.53 103.916 147.5 104.119C147.469 104.322 147.287 104.86 147.104 104.89C146.921 104.92 146.475 104.697 146.16 104.596C145.845 104.494 145.713 104.504 145.49 104.443C145.253 104.394 145.021 104.319 144.8 104.22C144.58 104.086 144.37 103.937 144.171 103.773C144.272 103.652 144.424 103.439 144.455 103.459C144.698 103.59 144.929 103.743 145.145 103.916C145.197 103.97 145.241 104.032 145.277 104.098L145.439 104.037Z" fill="#9ED6BE"/>
<path d="M154.422 145.114C154.671 144.695 155.062 144.379 155.524 144.224C155.986 144.069 156.488 144.086 156.939 144.271C157.954 144.769 158.898 145.286 159.984 145.926L158.472 146.098C158.137 145.702 157.944 145.296 157.609 145.134C157.025 144.807 156.385 144.594 155.721 144.505C155.356 144.474 154.919 144.88 154.422 145.114Z" fill="#9ED6BE"/>
<path d="M260.855 146.717C261.982 147.042 262.174 147.539 261.738 148.209C261.302 148.879 261.474 149.153 262.256 149.305C262.491 149.368 262.721 149.446 262.946 149.538L262.682 150.127C262.164 149.63 261.312 149.741 260.794 149.051C260.256 148.189 261.454 147.63 260.855 146.717Z" fill="#9ED6BE"/>
<path d="M151.032 105.803C151.023 105.947 150.985 106.089 150.921 106.219C150.857 106.348 150.767 106.464 150.657 106.558C150.547 106.653 150.42 106.725 150.282 106.769C150.144 106.814 149.999 106.83 149.855 106.818C149.753 106.818 149.56 106.818 149.56 106.899C149.459 107.528 148.982 107.325 148.85 107.072C148.718 106.818 148.566 106.148 148.748 105.925C149.093 105.68 149.515 105.569 149.936 105.61C150.308 105.626 150.677 105.691 151.032 105.803Z" fill="#9ED6BE"/>
<path d="M263.585 153.629L263.697 154.217L263.474 154.359L262.581 153.202L261.9 153.344L261.789 153.162L263.9 151.984L264.042 153.649L263.585 153.629Z" fill="#9ED6BE"/>
<path d="M249.233 98.7379L245.731 99.5499C245.731 99.3164 245.731 99.0119 245.843 98.9206C246.317 98.5367 246.9 98.3124 247.509 98.2796C248.117 98.2468 248.721 98.4072 249.233 98.7379Z" fill="#9ED6BE"/>
<path d="M135.208 103.783C135.74 103.457 136.297 103.172 136.873 102.931C137.445 102.785 138.029 102.69 138.619 102.646L138.75 102.931C138.482 103.202 138.194 103.453 137.888 103.682C137.735 103.583 137.589 103.475 137.451 103.357C136.893 104.037 135.482 104.281 135.208 103.783Z" fill="#9ED6BE"/>
<path d="M159.863 146.778L161.121 146.889L160.492 146.169C161.679 145.844 163.009 146.301 162.938 147.042C161.893 146.96 160.837 147.468 159.863 146.778Z" fill="#9ED6BE"/>
<path d="M156.229 115.263C155.782 115.263 155.386 115.425 155.214 115.263C154.767 114.877 154.483 115.191 154.087 115.313C153.67 115.374 153.246 115.374 152.829 115.313C153.681 113.973 153.915 113.892 154.97 114.491L155.183 114.613L156.229 115.263Z" fill="#9ED6BE"/>
<path d="M250.401 99.002L250.177 99.8139C248.472 100.078 248.005 100.017 247.132 99.2862L250.401 99.002Z" fill="#9ED6BE"/>
<path d="M212.429 99.3985C211.614 99.4917 210.793 99.529 209.973 99.5102C209.36 99.4163 208.766 99.2207 208.217 98.9316H212.429V99.3985Z" fill="#9ED6BE"/>
<path d="M146.769 102.443L143.998 101.895L144.637 101.621L143.724 101.378V101.104C144.1 101.104 144.475 101.185 144.84 101.246C145.209 101.316 145.567 101.432 145.906 101.591C146.26 101.774 146.6 101.984 146.921 102.22L146.769 102.443Z" fill="#9ED6BE"/>
<path d="M253.192 100.332L250.147 100.575L250.025 100.443C250.522 100.149 251.04 99.6718 251.537 99.6211C252.148 99.6709 252.745 99.8254 253.303 100.078L253.192 100.332Z" fill="#9ED6BE"/>
<path d="M240.169 151.873C240.496 152.342 240.774 152.841 241.002 153.365C241.073 153.538 240.748 153.994 240.504 154.086C240.058 154.258 239.875 153.934 239.916 153.497C239.956 153.061 239.916 152.482 239.916 151.985L240.169 151.873Z" fill="#9ED6BE"/>
<path d="M274.436 183.267L273.624 181.501C274.1 181.461 274.579 181.461 275.055 181.501C275.197 181.501 275.41 182.019 275.339 182.171C275.086 182.574 274.783 182.942 274.436 183.267Z" fill="#9ED6BE"/>
<path d="M266.174 132.914C267.067 133.645 267.016 134.508 266.052 135.035L266.103 133.777L265.737 133.564L266.174 132.914Z" fill="#9ED6BE"/>
<path d="M227.076 98.3117L229.167 97.6113L229.268 97.7636C229.075 98.0275 228.923 98.4741 228.7 98.5248C228.143 98.5806 227.582 98.5806 227.025 98.5248L227.076 98.3117Z" fill="#9ED6BE"/>
<path d="M202.868 127.838L203.416 127.625C203.477 127.777 203.609 127.96 203.558 128.051C203.376 128.457 203.802 129.208 202.868 129.249V127.838Z" fill="#9ED6BE"/>
<path d="M206.248 130.923L204.888 130.091V129.918H206.38L206.248 130.923Z" fill="#9ED6BE"/>
<path d="M155.833 105.844L157.863 106.24L157.772 106.554C157.163 106.311 156.31 107.255 155.833 105.844Z" fill="#9ED6BE"/>
<path d="M147.084 101.469C147.754 101.601 148.21 101.682 148.657 101.783C148.695 101.816 148.726 101.856 148.747 101.902C148.768 101.947 148.779 101.997 148.779 102.047C148.756 102.105 148.722 102.157 148.678 102.201C148.635 102.244 148.582 102.279 148.525 102.301C147.916 102.494 147.479 102.25 147.084 101.469Z" fill="#9ED6BE"/>
<path d="M261.87 142.85L261.21 144.88C260.642 143.946 260.784 143.418 261.87 142.85Z" fill="#9ED6BE"/>
<path d="M275.633 160.846C275.969 160.906 276.313 160.906 276.648 160.846C276.933 160.734 277.115 160.389 277.531 160.217C277.406 160.476 277.253 160.721 277.075 160.948C276.919 161.129 276.699 161.241 276.461 161.26C276.224 161.279 275.988 161.203 275.806 161.049C275.741 160.988 275.683 160.92 275.633 160.846Z" fill="#9ED6BE"/>
<path d="M148.058 104.665L149.408 104.219L149.52 105.061C149.243 105.081 148.964 105.081 148.687 105.061C148.474 105.011 148.263 104.946 148.058 104.868V104.665Z" fill="#9ED6BE"/>
<path d="M264.458 162.572L262.367 163.993C262.472 163.536 262.746 163.136 263.134 162.872C263.522 162.608 263.995 162.501 264.458 162.572Z" fill="#9ED6BE"/>
<path opacity="0.12" d="M326.394 151.873C326.394 151.873 319.289 153.345 319.847 166.134C320.405 178.923 295.487 181.948 300.227 190.098C304.967 198.248 316.578 207.018 308.255 222.101H328.799L326.394 151.873Z" fill="black"/>
<path d="M147.439 111.061L148.586 111.751V111.923L146.749 111.761L147.439 111.061Z" fill="#9ED6BE"/>
<path d="M147.967 103.113L149.631 103.255C149.002 104.006 148.495 103.54 147.946 103.326L147.967 103.113Z" fill="#9ED6BE"/>
<path d="M139.735 102.433L141.42 102.148C141.136 102.94 140.557 103.062 139.735 102.433Z" fill="#9ED6BE"/>
<path d="M268.163 132.568C268.62 133.644 267.361 133.198 267.361 133.766C266.945 132.913 267.808 132.995 268.163 132.568Z" fill="#9ED6BE"/>
<path d="M266.387 159.771H264.783C264.864 159.609 264.915 159.304 264.996 159.304C265.534 159.264 266.113 159.152 266.387 159.771Z" fill="#9ED6BE"/>
<path opacity="0.12" d="M196.524 98.8696C196.524 98.8696 219.504 108.005 203.568 134.983C191.591 155.233 173.697 136.81 171.403 154.136C169.109 171.462 173.89 177.623 160.025 188.646C146.16 199.669 145.064 222.05 145.064 222.05H112.919L160.299 151.822L169.119 131.705L157.325 116.216L159.619 97.946L176.539 90.7598L196.524 98.8696Z" fill="black"/>
<path d="M229.288 98.4437L230.547 98.332L230.598 98.7177L229.339 98.8801L229.288 98.4437Z" fill="#9ED6BE"/>
<path d="M172.397 133.155L165.637 130.273L157.246 149.956L164.006 152.838L172.397 133.155Z" fill="#FFD200"/>
<path opacity="0.08" d="M172.397 133.155L165.637 130.273L157.246 149.956L164.006 152.838L172.397 133.155Z" fill="black"/>
<path d="M168.24 148.192L157.839 143.758L147.055 169.051L157.456 173.486L168.24 148.192Z" fill="#24285B"/>
<path d="M185.978 90.1409C181.591 88.2683 176.747 87.739 172.059 88.6197C167.371 89.5005 163.049 91.7518 159.64 95.089C156.232 98.4261 153.889 102.699 152.909 107.368C151.93 112.036 152.356 116.89 154.135 121.316C155.915 125.742 158.966 129.541 162.905 132.233C166.843 134.924 171.492 136.387 176.262 136.437C181.032 136.486 185.709 135.12 189.702 132.511C193.696 129.901 196.826 126.167 198.696 121.778C201.204 115.896 201.273 109.259 198.888 103.327C196.503 97.3937 191.859 92.6509 185.978 90.1409ZM169.84 127.99C166.739 126.671 164.099 124.462 162.255 121.642C160.41 118.823 159.443 115.519 159.476 112.15C159.509 108.78 160.541 105.496 162.442 102.714C164.342 99.9307 167.025 97.7741 170.151 96.5166C173.277 95.259 176.706 94.957 180.004 95.6488C183.301 96.3405 186.32 97.995 188.677 100.403C191.035 102.811 192.625 105.863 193.246 109.175C193.868 112.487 193.493 115.909 192.17 119.007C190.397 123.158 187.05 126.435 182.863 128.119C178.677 129.803 173.993 129.757 169.84 127.99Z" fill="#FFD200"/>
<path d="M99.5918 207.81L126.997 173.158L144.384 183.836L115.365 257.017H64.5743L83.7578 229.227C88.8193 221.899 94.0973 214.76 99.5918 207.81Z" fill="#9ED6BE"/>
<path d="M129.291 174.527C129.291 174.527 135.919 135.673 150.606 134.942C165.293 134.211 156.33 158.034 163.547 157.272C170.764 156.511 171.565 173.512 144.363 183.764L129.291 174.527Z" fill="#F4A28C"/>
<path d="M176.519 129.544C185.981 129.544 193.652 121.873 193.652 112.411C193.652 102.948 185.981 95.2773 176.519 95.2773C167.056 95.2773 159.385 102.948 159.385 112.411C159.385 121.873 167.056 129.544 176.519 129.544Z" fill="white"/>
<path d="M167.881 97.6113C171.181 98.4184 174.434 99.4078 177.625 100.575C183.563 102.696 186.364 105.65 180.67 109.71C174.976 113.77 171.748 104.716 170.601 108.614C169.454 112.512 173.768 112.674 169.302 117.191C164.836 121.707 164.166 113.983 160.411 117.718C160.37 117.739 154.442 107.528 167.881 97.6113Z" fill="#9ED6BE"/>
<path d="M192.119 112.746C190.603 112.539 189.104 112.223 187.633 111.802C186.344 111.436 184.517 111.274 183.745 112.878C182.497 115.486 188.557 114.522 186.384 116.938C184.212 119.353 185.471 121.353 188.14 119.983C190.81 118.612 192.2 118.968 192.2 118.968C193.198 117.094 193.708 115 193.682 112.878L192.119 112.746Z" fill="#9ED6BE"/>
<path opacity="0.12" d="M144.841 60.1875H74.5416V101.244H144.841V60.1875Z" fill="black"/>
<path d="M133.767 43.9082H51.968V90.7302H133.767V43.9082Z" fill="#24285B"/>
<path d="M84.377 61.2234C84.3745 59.7085 84.0221 58.2147 83.3473 56.8585C82.6725 55.5022 81.6936 54.3202 80.4868 53.4045C79.28 52.4888 77.8781 51.8643 76.3902 51.5796C74.9024 51.2949 73.3689 51.3577 71.9093 51.7631C70.4497 52.1685 69.1035 52.9057 67.9757 53.917C66.8478 54.9282 65.9688 56.1864 65.4072 57.5933C64.8456 59.0002 64.6165 60.5178 64.7379 62.0278C64.8593 63.5377 65.3278 64.9993 66.107 66.2984L74.501 80.0618L82.8545 66.3694C83.8362 64.8315 84.3639 63.0478 84.377 61.2234ZM74.5416 66.4405C73.5892 66.4404 72.6582 66.1578 71.8666 65.6282C71.075 65.0987 70.4584 64.3461 70.0948 63.4658C69.7313 62.5855 69.6372 61.6171 69.8245 60.6833C70.0118 59.7495 70.472 58.8922 71.1469 58.2202C71.8218 57.5482 72.6809 57.0916 73.6155 56.9082C74.5501 56.7249 75.5181 56.8231 76.3969 57.1903C77.2756 57.5576 78.0256 58.1774 78.5518 58.9712C79.078 59.7651 79.3568 60.6973 79.3527 61.6497C79.3474 62.9221 78.8381 64.1406 77.9364 65.0385C77.0348 65.9364 75.8141 66.4405 74.5416 66.4405Z" fill="#FFD200"/>
<path d="M122.886 56.8184H93.1567V63.558H122.886V56.8184Z" fill="white"/>
<path opacity="0.19" d="M122.886 69.0488H93.1567V75.7884H122.886V69.0488Z" fill="white"/>
<path d="M340.959 180.912C340.959 180.912 342.146 149.518 330.433 147.559C325.967 146.808 324.597 158.724 324.211 168.468C324.169 169.601 323.86 170.707 323.309 171.697C322.758 172.687 321.981 173.533 321.041 174.165C320.101 174.798 319.024 175.199 317.899 175.336C316.775 175.473 315.633 175.342 314.569 174.954C310.346 173.381 306.205 173.604 305.576 180.029C304.236 193.671 321.41 196.817 321.41 196.817C321.41 196.817 340.218 204.622 340.959 180.912Z" fill="#F4A28C"/>
<path d="M319.36 224.487L319.542 201.233L342.441 190.068L357.666 256.957L317.36 256.368L317.959 250.4C318.825 241.793 319.292 233.155 319.36 224.487Z" fill="#9ED6BE"/>
</svg>
