<svg id="Layer_1" data-name="Layer 1" xmlns="http://www.w3.org/2000/svg" viewBox="0 0 400 300" width="406" height="306" class="illustration styles_illustrationTablet__1DWOa"><title>#130_worldmap_twocolour</title><rect x="73.44" y="59.03" width="250.5" height="159.05" fill="#c9c9c9"></rect><rect x="91.78" y="73.93" width="214.42" height="127.07" fill="#fff"></rect><path d="M200.85,113.1a1.35,1.35,0,0,1-.25,1.51.61.61,0,0,0,.13.56,1.43,1.43,0,0,0,.8.38c.45,0,.95-.43,1.21.25.87-.06,1.52-.93,2.48-.46.23.11.71-.27,1.09-.43a3.84,3.84,0,0,1,0-.83c.22-1.19.43-1.24,1.36-.5.38-.33.52-.62.07-1s-.28-.62.21-.76a8.25,8.25,0,0,1,1.1-.13l1.39-.13v-.33a2.58,2.58,0,0,0-.78-.16,7.67,7.67,0,0,1-1.58.34,3.88,3.88,0,0,1-1.68-.55c-.27-.17.09-1.63.39-1.86.54-.44,1.09-.87,1.83-1.44-.37-.13-.71-.36-1-.29a3.55,3.55,0,0,0-1.25.68c-.3.25-.48.62-.78.91s-.75.45-1,.76c-.54.57-.46,1,.16,1.42a.62.62,0,0,1-.08,1.15,1.24,1.24,0,0,0-.71,1.08c-.05.45-.05,1.11-.85.93-1,1.29-1,0-1.24-.49l-.15-.29c-.28-.45-.48-1.09-.88-1.28s-.84.41-1.29.62a1,1,0,0,1-1.29-.58,5.54,5.54,0,0,1-.4-1.39,1.2,1.2,0,0,1,.37-.93,5.18,5.18,0,0,1,2-1.17c.56-.15,1-.76,1.45-1.24.62-.69,1.18-1.44,1.69-2.08l-1.14.28a6.86,6.86,0,0,1,.86-.67,5.87,5.87,0,0,1,1-.22c.33-.2.89-.83,1.31-.75.75.15,1.3-.42,2-.25.34.08.77-.32,1.32-.58l-.29.62a2.92,2.92,0,0,1,1-.31,11.55,11.55,0,0,1,1.63.35l-.19.29c1.17.28,2.34.5,3.48.82a11,11,0,0,1,1.86.8c.5.25.53.62,0,.88a4.19,4.19,0,0,1-3,0,2.23,2.23,0,0,0-1-.12l.91.49a1.24,1.24,0,0,0,1.75,1.33l-.72-.47.06-.17,1.86.3-.33-.69a9.28,9.28,0,0,1,1.13-.47,8.64,8.64,0,0,1,1.24-.19,2.07,2.07,0,0,1-.29-.62,5.6,5.6,0,0,1,.06-1l1.41.3v.28l-.69.24c.52.8.73.74,1.41.2a8.6,8.6,0,0,1,2-.93,5,5,0,0,1,.77-.16c.56.89,1.36,0,2.1.07.32,0,.68-.47,1,.13a6.59,6.59,0,0,0,.86-.27l-1.5-1.07a27.52,27.52,0,0,1,3,.56,7.24,7.24,0,0,0,2.53.77,2,2,0,0,1-1-1.74,6,6,0,0,1,1-1.16,2.54,2.54,0,0,1,1.24-.28,4,4,0,0,1,.95.21l-.47.68.36,2.35.33.11-1.46,1.42A1.66,1.66,0,0,0,233.8,105c.48,0,1.09-.24,1.13.62.56-.48.43-.91-.25-.94h-1.35c-.05-.57-.11-1.14-.17-1.81l1-.62v.83l.84.12-.62-.54,1,.14.08-.17-.49-.34.06-.18c.62.19,1.24.39,1.9.58a4.91,4.91,0,0,0,.75.13s.07-.2,0-.2c-.22-.11-.45-.2-.79-.35l-.22-.73,3.27-.28-.49-.51a9.3,9.3,0,0,1,4.81-.89,6.69,6.69,0,0,0,1.72-.26c.05,0,.1-.07.14-.07a2.83,2.83,0,0,0,1.44-.62c.62-.44,1.34-1,2,0,.13.19.54.18.79.25a19.39,19.39,0,0,1,2.64,0c.32,0,.56.62.84,1l-3.67,1.3v.15c.25,0,.49.05.74.05s.62.07.79-.06c.83-.62,1.67-.24,2.53-.15.33,0,.71-.2,1-.13a2.86,2.86,0,0,1,1.1.52,1.66,1.66,0,0,0,2.17-.43.81.81,0,0,1,.62-.14c.82.11,1.62.25,2.48.39-.1.95,0,1.75,1.18,1.77l.33-.55h3.91l-.41-.67a9,9,0,0,1,2.86-.15c.86.23,2,0,2.89.76a4.73,4.73,0,0,0,2.57.42c.87,0,1.79-.15,2.42.79.13.21.67.18,1,.2a15.14,15.14,0,0,0,1.65,0,10.21,10.21,0,0,0,1.21-.21,4.69,4.69,0,0,1,.75,0l.15.26-.5.14.06.16,1.34.41-.25-1a17.75,17.75,0,0,1,4.22.62c1.28.5,2.74.62,3.51,2,.43-.58.81-.52,2.34.43-.49.42-1.31.43-1.47,1.2l-1.6-.48c-.27-.09-.53-.2-.8-.31a3.32,3.32,0,0,1-.62-.24,1.42,1.42,0,0,1-.32-.37c-.05.16-.09.32-.14.49s0,.15,0,.26l-1.46.51a1.65,1.65,0,0,1,.76,1.56c-2-.36-3.31.75-4.76,1.68a1.17,1.17,0,0,0-1.65-.17h0a1.22,1.22,0,0,1-.68.1c-1.07-.09-1.24.91-1.92,1.48l.66.13c.06.44.1.82.15,1.24-.72.06-1,.4-.52,1-.38.39-1.41.09-1.05,1.14-1.21-.17-.8,1.34-1.76,1.59-.3-1.69-1.24-3.33,0-4.8,1.54-1,3-1.94,4-3.47l-.14-.2c-.16.06-.47.12-.47.16,0,.57-.4.62-.77.78s-.88,1-1.1-.18a3.7,3.7,0,0,0-1.48.13,2.48,2.48,0,0,0-1,.84c-.12.16-.08.45-.14.79l-1.86.25.36-.56a10.52,10.52,0,0,1-2.62.15c-1.86-.39-2.87.8-4,1.78-.58.47-1.15,1-1.63,1.38a5.17,5.17,0,0,0,.76.79.87.87,0,0,0,.67,0c.27-.06.62-.38.75-.3.31.17.75.59.7.81-.29,1.28-.09,2.68-.89,3.84l-2.16,3.14a1.24,1.24,0,0,1-1.71.31c-.36.53-1.09.72-1.15,1.6,0,.37-.73.69-.85,1a18.06,18.06,0,0,1,.79,2.28c.27,1.24-.9,1.16-1.68,1.63.06-.78.13-1.49.15-2.2,0-.18-.2-.54-.28-.52-1,.1-.49-.47-.41-.85a1.23,1.23,0,0,1,.14-.31,1.18,1.18,0,0,0-1.68.18,1.07,1.07,0,0,0-.13.19l-.24-.16.35-1.24c-.75-.16-1,.58-1.43.89-.12.08-.19.24-.32.32a1.92,1.92,0,0,1-.48.15c.12.18.23.37.35.54l.34.47h2l-1.82,1.58,1.27,3.1-.62.55.9.14c-.39.77-.78,1.55-1.19,2.33A8.78,8.78,0,0,1,256,137c-.49.57-.85,1.32-1.81,1.41a5.19,5.19,0,0,0-1.77.73,3.64,3.64,0,0,0-.73.77l-.11-.74a1.82,1.82,0,0,0-2,1.34c-.25,1.24.73,2,1.4,2.73l1.12-.29.13.19a7.78,7.78,0,0,0-.62.83.93.93,0,0,0-.24.51c.07,1.13.16,2.19-1.21,2.75-.38.15-.55.82-1,1.19v-.8L247,145a1.16,1.16,0,0,0-.26.39,5.08,5.08,0,0,1-.15.95c-.55,1.13.2,2.09.4,3.1.09.41.75.68,1,1.1a5.35,5.35,0,0,1,.49,1.46,6.46,6.46,0,0,1,.24,1.86,6.37,6.37,0,0,1-1.3-1.24,7.35,7.35,0,0,1-.47-1.77,2.73,2.73,0,0,0-.39-1A3.06,3.06,0,0,1,246,147c.27-1.6-.48-3-.7-4.62-.53.45-.68,1.24-1.57.78.56-1.24-.16-2.22-.85-3.22a4.5,4.5,0,0,1-.43-1.28c-.62.13-1.24.22-1.8.38-.21.06-.54.2-.57.35-.21,1.18-1.35,1.63-1.93,2.53-.37.59-1,1-1.39,1.57a2.12,2.12,0,0,0-.15,1.17,6.13,6.13,0,0,1-1.46,4.43,28.43,28.43,0,0,1-1.65-5.08c-.43-1.71-.67-3.48-1-5l-.62.76-1.24-1,.53-.21c-.62-.69-1.21-1.37-1.86-2.09-1,0-2.13.05-3.25,0s-1.18-.2-1.55-1.15a2.06,2.06,0,0,1-2.77-.88,1.39,1.39,0,0,1-.12-.28,4.32,4.32,0,0,0-.19-.45c-.52-1-.68-1-1.41-.19l1.38,3,.32-.75c.09.41.14.62.17.78l.15.86c.45-.09,1,.33,1.36-.36a7.9,7.9,0,0,1,.91-1.18,5.29,5.29,0,0,0,.11,1.06,1.18,1.18,0,0,0,.52.66c1.24.62,1.39,1.48.49,2.48a3.33,3.33,0,0,0-.38.62c-.12.2-.23.42-.36.62a5.72,5.72,0,0,1-1.86,1.53c-.79.46-1.44,1.15-2.2,1.65a24.26,24.26,0,0,1-2.25,1.2c-.43.21-.62,0-.71-.43-.23-1.31-.21-2.69-1-3.86a9.67,9.67,0,0,1-.79-1.21c-.18-.37-.24-.79-.39-1.18s-.41-1.06-.62-1.59-.58-1.3-.9-1.94c-.18-.37-.41-.73-.57-1l-1.17.35-.08-.24.62-.46-1.24-1.28c.15-.1.45-.42.75-.43.78,0,1-.49,1.16-1.11l.72-3.16-1.33.62s-.06,0-.08,0c-.52-.13-1.3-.54-1.53-.33-.74.65-1.1-.1-1.52-.29s-.52-.71-.76-1.06l.11-1.5c-.53-.31-.51-.29-1.13.26-.12.11-.46,0-.81,0a8.27,8.27,0,0,1,.62,1,1.11,1.11,0,0,1,.08.74,7.32,7.32,0,0,1-.62,1.13c-.55-1.24-1.68-2.22-1.69-3.81,0-.35-.49-.79-.87-1-.62-.36-1.27-.62-1.48-1.38,0-.08-.29-.08-.38-.17a2.62,2.62,0,0,1-.26-.5c-.79.2-.89.58-.32,1.28.23.28.37.62.62.92a1.13,1.13,0,0,0,.53.47c.75.16,1.09.85,1.67,1.24,0,0,0,.14.06.3l-1-.42.27,1-.62.82c.37-1.37-.62-1.82-1.49-2.44a9.69,9.69,0,0,1-1.31-1.41c-.24-.28-.46-.58-.68-.86a7.06,7.06,0,0,0-.92.62,1,1,0,0,1-1.24.21c-.47-.18-1-.23-.93.62,0,.28-.36.58-.59.84s-.75.73-1.05,1.15c-.12.16,0,.48,0,.92-.4,1.14-1.66,1.32-3,1.63l-.51-.67-.86.1c-.86-1.44.34-3-.38-4.42,1.24-.77,2.58-.16,3.89-.26.09-.73.62-1.49,0-2.21a14.82,14.82,0,0,1-1.46-1.6l1.56.07-.09-.74a1.28,1.28,0,0,0,1.72-.61l0-.06c.09-.17.31-.26.45-.4l1.37-1.36,1.76-.7a3.78,3.78,0,0,0,0-.75C199.67,113.74,199.67,113.75,200.85,113.1Z" fill="#68e1fd"></path><path d="M132.34,123.06h.92a2.82,2.82,0,0,0-1.61-1.46,4.61,4.61,0,0,1-2.25-2.6c-.11-.28-.55-.43-.8-.62l-.19.57c-.32-.73-1.24-1-.54-1.9,0-.06-.45-.74-.62-.71a2.63,2.63,0,0,1-1.92-.62,4.54,4.54,0,0,0-1.24-.42c-1-.2-2-.36-3-.55l.1.46-2.08.53.16-1.09-1.24,1c.24.47-1.74,2.14-3,2.48l.42.4,0,.24c-1-.84-1.74,0-2.67,0l1.32-.7a9.53,9.53,0,0,0,1.41-.75,9.87,9.87,0,0,0,1.09-1.24h-2.38l-.18-1c-1.3.92-1.24-.62-1.86-.88.35-1.32,1.55-1.13,2.48-1.45l-.15-.71c-1.4.13-1.73.56-3.25-.62.33-.11.62-.19.92-.31s.57-.29.84-.42c.51.62.92.66,1.64.15l-3-1.21c.45-.18.73-.26,1-.39s.68-.38,1-.52c.69-.28,1.38-.54,2.08-.77a6.52,6.52,0,0,1,3.42.13,21.22,21.22,0,0,0,2.76.33,16,16,0,0,1,4.17.8,5.05,5.05,0,0,0,1,.13c0-1.09.82-.21,1.21-.52a2.64,2.64,0,0,1,1.56-.3l-1.69.69.11.23,2.63-1.13.88.77.62-.49.32.54c.4-.66.95-.44,1.53-.3.79.19,1.59.29,2.39.44.26,0,.5.14.86.24l-.51.4,0,.2a12,12,0,0,1,1.9-.12,8.82,8.82,0,0,1,1.64.43l-.09-.62c.62,0,1.16,0,1.71,0,1,.07,2,.51,3.1-.14.2-.12.74.29,1.24.49l.92-.73-1.38-1c-.12-.55.14-1,.85-1.06s1.31.85,1.24,1.43l.89.16-.1.9.76-.9.82,1.73,1.33-1.86,1.41.25v1.36l.18.22L152,111l.44.7L151,110.8c.17.74-.2.89-.67.83a6.09,6.09,0,0,0-1.34-.18l1.81.54-1.34.62a1.55,1.55,0,0,0-.53.34c-.68.86-2.08,1.18-2,2.6a.87.87,0,0,0,.34.62c.68.15.73.62.69,1.24.88-.49,1.52,0,2.26.41a23,23,0,0,0,2.69,1c.07.55,0,1.44.78,2,.17.1.46.31.5.26.21-.2.52-.48.51-.72a6.68,6.68,0,0,0-.35-1.4c.47-.41,1.24-.75,1.33-1.24s-.44-1.1-.74-1.74c.76-.54,0-1.37.09-2.21,1.49-.41,2.78.35,4.08,1a1.09,1.09,0,0,0,.54,1.43.9.9,0,0,0,.28.08c1,.25,1.09-.77,1.5-1.35.42.62.87,1.13,1.24,1.72.2.35.12.93.38,1.17a11.4,11.4,0,0,0,1.73,1.08l-.46.3a3.92,3.92,0,0,1,1.06.26,1.15,1.15,0,0,1,.43.74.8.8,0,0,1-.41.58c-1.21.59-2.34,1.34-3.85,1-1-.22-1.62.66-2.29,1.29.4-.19.8-.35,1.21-.5a2.76,2.76,0,0,1,1-.07c.08,0,.22.42.16.47-.62.58-.39,1,.18,1.45.75.55,1,.49,1.54-.27a.34.34,0,0,1,.3-.18l-.19.66.35-.2.12.22-2.82,1.5-.2-.05.58-1.24a24.13,24.13,0,0,0-2.67,1.39c-.21.14-.11.76-.15,1.15l.23.11a4.38,4.38,0,0,1-.8.17c-.68,0-1.08.2-1.16,1,0,.45-.45.87-.75,1.39l-.31-1.19a6.46,6.46,0,0,0,0,1.39c.31,1.42.24,1.65-1,2.35-.74.42-1.59,1.7-1.46,2.25.19.76.46,1.5.62,2.27a5.14,5.14,0,0,1-.06,1.24l-.4.06-1.24-3.25-.69.3c-.62-1-1.49-.38-2.27-.42l.33.76c-.71-.15-1.28-.24-1.86-.39-.43-.11-.75-.11-1,.33-.13.21-.42.33-.62.51s-.47.35-.48.54c0,1.36-.05,2.74,0,4.1a2.37,2.37,0,0,0,.5,1.24c.26.33.77.77,1.1.72.62-.11,1.47.06,1.66-1s.55-1.25,1.78-1.06l-.87,3.72a8,8,0,0,0,1.2-.06c1-.13,1.46.35,1.32,1.36-.18,1.24-.39,2.58,1.06,3.35,1.18-.58,1.17-.57,2.12.41a4.7,4.7,0,0,0,.85.54c.28-1.64,1.66-2.06,2.86-2.8-.1.68-.52,1.31-.1,2l.62-1.64,1.73.82a2.81,2.81,0,0,0,1.81,0c.57-.12.88.51,1.31.8a3.88,3.88,0,0,1,.39.42,5.57,5.57,0,0,0,.8.81,2.8,2.8,0,0,0,1.24.62c1.54.09,2.27.5,2.64,2a3,3,0,0,0,2.59,2.27c.53.12.79.29.69.8,1.24,0,2.48-.25,3.37.94.08.1.21.23.32.23a1.38,1.38,0,0,1,1.31,1.46V159a3.94,3.94,0,0,1-1,1.86c-.39.58-.79,1-1.18,1.51a.87.87,0,0,0-.06.32,26.19,26.19,0,0,1-.34,2.94,9,9,0,0,1-.93,2c-.07.14-.28.22-.45.29-.76.28-1.55.51-2.29.85a1.62,1.62,0,0,0-.93,1.56,7,7,0,0,1-.82,2,8.89,8.89,0,0,1-.41.83l-.13-.78c-.8,1.58-1.45,3.34-3.69,1.86.29.51.51.83.67,1.19a1,1,0,0,1-.33,1.32.93.93,0,0,1-.35.13c-.59.17-1.21.23-1.83.35.08,1.14-.18,1.34-1.51.95.62,1.47-.17,2.34-1.36,3a4,4,0,0,0,.54.47c.62.34.62.45.06.94-.41.36-1,.73-1.07,1.18a2.54,2.54,0,0,0,.42,1.69c.24.37.82.54,1.35.86a8,8,0,0,1-2.48.2,4.79,4.79,0,0,1-2.2-1.32,3.69,3.69,0,0,1-.55-1.83c-.11-.63-.2-1.28.62-1.63l-.62-.08.7-1.77H158l.13.72h.11l.31-1.86c-.76-.08-.76-.53-.49-1.08,0-.09.19-.21.17-.26-.54-1.17.51-2,.67-3s.19-1.94.32-2.91c.17-1.24.4-2.48.55-3.76a6.08,6.08,0,0,0,0-2.17,2.08,2.08,0,0,0-1.12-1.24c-1.61-.56-2-2-2.67-3.29a8.74,8.74,0,0,0-1.63-3,.9.9,0,0,1,0-1.26l.07-.06a3,3,0,0,0,.46-.62c-.58-.19-.74-.59-.46-1.08a12.85,12.85,0,0,1,1.24-1.92,1.41,1.41,0,0,0-.13-2.28,3.75,3.75,0,0,1-.69-1.15c-.11-.19-.21-.38-.31-.58h-.24l-.46,1.15-.45-.33a1.36,1.36,0,0,0-.49-.29c-.35-.08-.71-.1-.68-.59a.1.1,0,0,0,0-.06c-.81-.22-.89-.95-1.16-1.58a2.24,2.24,0,0,0-1.68-1.34,2.88,2.88,0,0,1-1.64-1.24c-.34-.41-.69-.67-1.24-.28a.92.92,0,0,1-.81,0c-1.19-.68-2.37-1.4-3.52-2.15a1,1,0,0,1-.4-.81,2.63,2.63,0,0,0-.62-2.17c-.59-.83-1.25-1.64-1.75-2.48s-.8-1.56-1.24-2.3c-.17-.26-.52-.4-.8-.62l-.23.17c.25.53.51,1.06.77,1.59l1.42,2.74c.09.19.23.37.32.58s.19.51.28.77l-.33.14a18,18,0,0,0-1.11-2.13,4.37,4.37,0,0,0-1.06-.9c0-.49.16-.86,0-1-.83-.76-1-1.86-1.42-2.78-.12-.23-.31-.54-.52-.59-1.24-.31-1.41-1.47-1.94-2.34a5.93,5.93,0,0,1-.62-1.2,7.7,7.7,0,0,1-.24-3.27A17.27,17.27,0,0,0,132.34,123.06Z" fill="#68e1fd"></path><path d="M205.62,174.62a1.37,1.37,0,0,1-.76-1.48,2.71,2.71,0,0,0-.81-1.81,4.13,4.13,0,0,1-1-2.84,5.71,5.71,0,0,0-1.06-2.75c-.82-1.4-.26-2.62.32-3.82.26-.54.5-.93.1-1.46a.83.83,0,0,1-.11-.46,4.37,4.37,0,0,0-1.16-3.3,2.92,2.92,0,0,1-.62-3.2,1.63,1.63,0,0,0-.21-1.16,1,1,0,0,0-.85-.31c-.62.06-1,.08-1.24-.62s-1-.47-1.53-.36-1,.4-1.59.57a3.51,3.51,0,0,1-.78.12,11.56,11.56,0,0,0-2,.2,1.19,1.19,0,0,1-1.24-.18,21.44,21.44,0,0,1-1.86-1.57,20.67,20.67,0,0,1-1.41-2.05c-.1-.14-.28-.23-.4-.37a1.16,1.16,0,0,1-.32-.51,6.11,6.11,0,0,1,.21-2.48,2.57,2.57,0,0,0-.06-1.89c-.51-.81,0-1.29.28-1.86.39-.79.86-1.55,1.32-2.3a.94.94,0,0,1,.5-.35c.79-.24,1.33-.62,1.31-1.58a1.66,1.66,0,0,1,.92-1.5,6.64,6.64,0,0,0,1.24-1.3c.88.71,1.86.35,2.82-.05a7.48,7.48,0,0,1,1.92-.52,26.15,26.15,0,0,1,2.8-.18,5.5,5.5,0,0,1,1.06.14c-.18.56-.36,1.08-.57,1.7.43.82,1.48.39,2.25.73.08,0,.28,0,.28,0,.18,1,1.15.73,1.69,1.13s.74.09.79-.45a.9.9,0,0,1,1.37-.77,24.23,24.23,0,0,0,2.48.86,2.69,2.69,0,0,0,1.29-.1c.56-.15,1-.21,1.19.5a28.65,28.65,0,0,0,1.14,2.82c.35.74,1,1.41,1.11,2.16.13,1.24.93,2.07,1.28,3.14a2.37,2.37,0,0,0,.57.83,17.9,17.9,0,0,1,1.33,1.28c.21.25.19.69.37,1a.65.65,0,0,0,.58.27c1.06-.22,2.11-.52,3.29-.81a5.54,5.54,0,0,1-.31,1.55,12.91,12.91,0,0,1-3.17,4.55,17.94,17.94,0,0,0-2.82,3.72c-.09.12-.12.41,0,.46.57.47.21,1.08.3,1.61s.41.92.49,1.4a6,6,0,0,1,.11,2.15c-.1.47-.62.88-1,1.24-.62.57-1.24,1.07-1.86,1.63-.1.08-.07.34,0,.5s.2.56.29.84a1.26,1.26,0,0,1-.69,1.62h0c-.27.13-.52.28-.62.34a2.76,2.76,0,0,1-.09,1.25c-.93,1.48-1.86,3-3.66,3.57a12.66,12.66,0,0,1-2.22.23A4,4,0,0,0,205.62,174.62Z" fill="#68e1fd"></path><path d="M166.86,109.4l-.86-.7,1.93-1v-.8l-1.62-.62,0-.25,1.69.24-1.32-.92c-.79.46-1,.28-1.06-.9h.55c-.35-.51-.65-1-1-1.44a3.64,3.64,0,0,0-4-1.45,2.31,2.31,0,0,1-.94.13c-.33-.06-.93.31-1-.49,0-.1-.62-.17-1-.25v-.28l1.63-.09-2.76-.78a2.87,2.87,0,0,1,.62-.34c.8-.13,1.62-.2,2.42-.37.47-.09,1.08-.09,1.08-.88H160.1l0-.29,2.68-.69,0-.49c.07,0,.13-.06.17,0,.77.27,1.4-.32,2.14-.33a1.55,1.55,0,0,1,1.15.47c.2.18.62-.66,1.17-.18.1.09.36,0,.62,0l-.31-.53,2.79.71.07-.24a3.22,3.22,0,0,1-.68-.17.58.58,0,0,1-.32-.38c0-.1.22-.3.35-.32.7-.07,1.41-.08,2.12-.14.5,0,1-.19,1.49-.18,2,0,3.93,0,5.89.16a14,14,0,0,1,2.62.68l-2.12.35V97h.59c.34,0,.69-.08,1-.11l-.42.66A22.12,22.12,0,0,0,183.8,97a3.54,3.54,0,0,1,3,.19c-1.7.8-3.54,1.32-4.62,3a3.24,3.24,0,0,1,1.16.09c.24.1.36.49.58.82l-1.17.07c-.08.48,1.16.81.22,1.44l.53.56-1.21.18.55.62H181c-.36.49-.29.86.41,1.14a1.18,1.18,0,0,1,.82,1.45v0l-1.64-.69-.55.67,2.06.21a10.81,10.81,0,0,1-4.69,1.76c-.29,0-.62.35-.81.62a3,3,0,0,1-2.85,1.52c-.17,0-.56.43-.56.62a1.53,1.53,0,0,1-.78,1.6c-.08,0-.12.2-.15.31-.14.59-.31,1.18-.41,1.78s-.45.45-.81.29a14.7,14.7,0,0,1-1.41-.62,2.13,2.13,0,0,1-.77-.75c-.67-1.24-1.29-2.48-1.9-3.72A2,2,0,0,1,166.86,109.4Z" fill="#68e1fd"></path><path d="M269.05,162.59a4.2,4.2,0,0,1,.74.72,2.22,2.22,0,0,1,.39,1.11c0,.91.62,1.24,1.16,1.7a1.66,1.66,0,0,1,.27.26,2.92,2.92,0,0,0,.91,1.15,5,5,0,0,1,1.34,2.11,3.87,3.87,0,0,1-.36,3.42,10.22,10.22,0,0,0-1.29,3,4.27,4.27,0,0,1-2.27.72l-.42-.24a1.74,1.74,0,0,1-2.4-.56,1.76,1.76,0,0,1-.17-.37,6.54,6.54,0,0,0-.81-1.14l-.3.21.23-1.2-1.1,1.24c-.34-.57-.54-1.24-1-1.54a3.13,3.13,0,0,0-1.89-.4,7.63,7.63,0,0,0-2.61.72,3.16,3.16,0,0,1-1.93.62,2.77,2.77,0,0,0-1.41.48,1.07,1.07,0,0,1-1.46-.16.84.84,0,0,1-.13-.62c0-.36.21-.74.14-1.07a19,19,0,0,0-.72-2c-.13-.36-.38-.7,0-1.08.06-.06-.11-.32-.13-.49-.06-.57-.34-1.3-.08-1.66s1.09-.66,1.65-1c.83-.47,2.11-.12,2.48-1.36.06-.18.05-.38.12-.55a3.28,3.28,0,0,1,.32-.44l.29.23a14.66,14.66,0,0,1,1.33-1.51c.56-.5.9-.19,1.11.68a9.26,9.26,0,0,1,.92-1.24,7.51,7.51,0,0,1,1-.72,2.11,2.11,0,0,0,.35-.38l2.12.52h0c-.82,1.24-.82,1.24.42,2.16.23.16.46.32.7.47l.89.57c.14-.82.27-1.48.38-2.13s.22-1.36.32-2h.27Z" fill="#68e1fd"></path><path d="M155.83,107.8c.08-.93-.8-.9-1.24-1.35-.21.49-.35,1-1,.47-.12-.12-.41,0-.62-.06-1-.11-2-.22-3-.36-.2,0-.36-.22-.62-.37l.89-.28c-.85-.16-1.56-.21-1.2-1.15a1.71,1.71,0,0,1,2.15-1.08c-.18.39-.51.78-.48,1.14s.42.74.69,1.07c-.27-1.72-.13-2,1.1-2.18.62-.09.91.28,1,1.34a2.93,2.93,0,0,1,3.28.21,2.18,2.18,0,0,0,.82.22h.24a11,11,0,0,1,1.62.87,7.43,7.43,0,0,1,1,1.15l-.73.15-.09.18,3.27,1.76-1.24,1.57-1.63-1.42-.31.76c.62.58,1.75,1,1.5,2.43l-.92-.09.4,1c-1.15-.47-2.29-.51-3-1.53a1.71,1.71,0,0,0-1.86-.62,2.5,2.5,0,0,1-.9-.15c.05-.25.08-.51.15-.76a1,1,0,0,1,.17-.44,1.62,1.62,0,0,1,.53-.48c.09,0,.29.17.44.27l-.54.7,1.17-.13v-.2l-.39-.13c.19-.62,1.35-.67.95-1.58A1.47,1.47,0,0,0,155.83,107.8Z" fill="#68e1fd"></path><path d="M150.59,97.65c-.75.44-1.44-.31-2.28-.92a22.69,22.69,0,0,1,3.49-.36,10.26,10.26,0,0,0,3.1-.55,8.34,8.34,0,0,1,2.34-.09c1.44,0,2.87.09,4.3.2a5.74,5.74,0,0,1,1.33.43c-.31.16-.57.32-.84.44-1.24.54-2.5,1.07-3.79,1.59a4,4,0,0,1-.84.24,1.48,1.48,0,0,0-1.34,1.3l-1.8.74.78.45c-.68.1-1.2.71-1.83.06-.06-.06-.3,0-.46.06a8,8,0,0,1-3.73-.15l1.24-.37-.15-.4,1.13.08.07-.19-1-.46c.57-.9,1.39-.13,2.12-.31l-1.75-1c.18-.16.2-.19.21-.18,1.05.41,2-.22,3.1-.23C153,97.24,151.85,98.15,150.59,97.65Z" fill="#68e1fd"></path><path d="M135.85,106.63l2.25-.14v-.15c-.45,0-.92-.09-1.38-.11s-.92,0-1.38,0V106l.94-.36L135,105.3c.44-1,1.37-1.17,2.38-1.32l-.05.56h.26c.43-.41.79-.27,1.18.08s.55-.62.94-.13a3.62,3.62,0,0,0,.81.8l-.3-1.29h1.19a7.17,7.17,0,0,0,.82,1.86c.38.45,1.08.66,1.56,1.14l-.75.06.33.62a4.17,4.17,0,0,1-1.32,0,4.33,4.33,0,0,0-2.81.3c-.51.14-1.24.42-1.63-.41,0-.11-.33-.12-.5-.17l-1.3-.37Z" fill="#68e1fd"></path><path d="M271.15,158.27l-.62.44,1.86,1.94a2.57,2.57,0,0,1-2.08-1.14.8.8,0,0,0-1.05-.44.79.79,0,0,0-.46.5.69.69,0,0,1-.88.41.61.61,0,0,1-.24-.15c-.5-.58-1-.56-1.86-.31l.67-.93a1.58,1.58,0,0,0-1.18-1.24,10.47,10.47,0,0,1-1.73-.53c-.19-.07-.29-.35-.45-.56l.62-.28-1.56-.74a5.94,5.94,0,0,1,1-.38.72.72,0,0,1,.91.45.27.27,0,0,1,0,.12,11.25,11.25,0,0,0,.39,1.11l.26,0a2.6,2.6,0,0,1,.38-.51c.49-.41.9-.8,1.66-.22.58.44,1.5.42,2.17.79A18.16,18.16,0,0,1,271.15,158.27Z" fill="#68e1fd"></path><path d="M251.4,153.4l.77.26,3.28-3.1,1,1c-1,.91-1,1.54-.11,2.48-.7.28-1.28,1.54-1.24,2.86l-3.1-.62C251.84,155.38,251,154.58,251.4,153.4Z" fill="#68e1fd"></path><path d="M218.18,163.85c1.63.08,1.72-1.41,2.63-2.09a1.39,1.39,0,0,1,.25,1.86c-.07.1-.05.25-.08.37-.43,1.56-.85,3.1-1.32,4.66a.91.91,0,0,1-1.16.56,1,1,0,0,1-.31-.18,2.22,2.22,0,0,1-.28-2.21,4.7,4.7,0,0,0,.26-1.44C218.22,164.87,218.18,164.39,218.18,163.85Z" fill="#68e1fd"></path><path d="M193.9,117.54l-.67-.2v-1a.48.48,0,0,1,.2-.3c.41.18.62-.11.57-.38s-.45-.42-.7-.62c-.06,0-.16,0-.29,0l.1-.51c-.71-.67-1-1.16-.8-1.43.41-.57,1.31-.93,1.7-.67.62.41.62.72.18,1.56l1.76,2.44a.84.84,0,0,1,.43.19c.07.09-.12.38-.19.58l-.27.74-3.23.52Z" fill="#68e1fd"></path><path d="M249.64,158l-.92-.08-2.28-3.27-2.37-3.29c1.68.19,2.32,1.52,3.36,2.27a6.37,6.37,0,0,1,1.7,2.09c.12.21.5.27.72.38l-.24,1.92Z" fill="#68e1fd"></path><path d="M225,103.71a4.14,4.14,0,0,1-3.3-.9,20.14,20.14,0,0,0,1.95-1.86,4.36,4.36,0,0,1,2.56-1.24,30.09,30.09,0,0,1,3-.43,12.68,12.68,0,0,0,1.34-.37l.15.3a2.55,2.55,0,0,1-.72.4,18.73,18.73,0,0,0-2.78.55,7.22,7.22,0,0,0-3.1,2.12c-.12.15,0,.62.13.81A3.31,3.31,0,0,0,225,103.71Z" fill="#68e1fd"></path><path d="M182.21,112l-1.16-.34,1-.54h-1.15l-.12-.15,1.08-.62-.1-.26.62.8,2.48-.62L185,110a5.65,5.65,0,0,1,1.16,1.13c.34.62-.37.79-.68,1a4,4,0,0,1-1.4.66,2,2,0,0,1-1,0c-.48-.11-1-.29-1.44-.44Z" fill="#68e1fd"></path><path d="M264.54,129.61l-2,.49c.59-1,.91-1.13,2.4-1.13.12-.21.26-.44.37-.67s.16-.43.17-.44a1.82,1.82,0,0,0,.74-.07c.3-.62.53-1.24.76-1.86.15-.39,0-1,.76-1a1.89,1.89,0,0,1,0,2.09,2.53,2.53,0,0,0-.26,1.55c.1.86-.67.87-1,1-.67.18-1.24.35-1.43,1.13l-.25,0Z" fill="#68e1fd"></path><path d="M132.23,102.94a12.54,12.54,0,0,1,4.42.68l-2,1.24c-.6.38-1,.73-1.45,1l-1.4-.92C131.92,104.44,132.75,103.93,132.23,102.94Z" fill="#68e1fd"></path><path d="M147.25,99.34l.43-.37-1.74-.34c.33-.88.74-1.39,1.59-1.24a3.61,3.61,0,0,1,.62.24,2.15,2.15,0,0,0,.74.17c.35.35.62.86,1.18.39l.76.62C150,100,148.88,100.19,147.25,99.34Z" fill="#68e1fd"></path><path d="M201.21,97.06l2.63.23-.27-.62L208,98.43v.29h-1.57c-.1-.22-.13-.47-.27-.56a.66.66,0,0,0-.55,0c-.47.32-.89.69-1.43,1.12L202.94,99l.54-.28-.8-.06,0-.15,1-.36v-.19a3.52,3.52,0,0,1-1.29.16,4.13,4.13,0,0,1-1.14-.76Z" fill="#68e1fd"></path><path d="M147.83,101.32l.62-.18v.44c1.8,1.24,3.79,0,5.68.62a1.2,1.2,0,0,1-1.52.76l-.14-.06a3.89,3.89,0,0,0-.76,0c-1.1,0-2.21,0-3.31-.11-.18,0-.39-.36-.48-.62A3.44,3.44,0,0,1,147.83,101.32Z" fill="#68e1fd"></path><path d="M136.5,102l-.24,0h-.21c-.07,0,0-.13,0-.15.79-1,1.66-.41,2.48-.11.36.13.72.26,1.24.47l-.44-1,.52-.35c.07.06.15.1.18.16.18.44.3.92,1,.56.09-.06.44.14.48.27a.61.61,0,0,1-.25.51c-1.24.23-2.48.42-3.72.62,0,0-.12-.09-.28-.23l1.24-.33v-.18l-2.76.23,0-.13.83-.3Z" fill="#68e1fd"></path><path d="M280.53,181l3.41-3a2.22,2.22,0,0,1,.42.25c.11.1.24.39.2.43-.37.39-.39,1.09-1.06,1.24a.74.74,0,0,0-.38.27C282.16,181.53,282.16,181.53,280.53,181Z" fill="#68e1fd"></path><path d="M257.77,155.71l.62,1.32-.53.39-.62-1.24c0,1.35,0,1.44-.46,1.74l-.33-1.51-.17.05c.26-.85.52-1.71.78-2.6.8-.11,1.74.78,2.48-.38-.26.86-.35.92-1,.87a3.51,3.51,0,0,0-1.12,0c-.73.25-.26.62-.1,1l1.31-.44.07.18Z" fill="#68e1fd"></path><path d="M190.46,117v-1.24a7.91,7.91,0,0,0,.82-.78c.43-.49.88-.15,1.24,0s.32.5-.06.73c-.06,0-.08.16-.08.26,0,.3.08.8-.06.87a7.86,7.86,0,0,1-1.7.62c-.1,0-.28-.21-.41-.32Z" fill="#68e1fd"></path><path d="M145.68,103.7l-.54.44.78.35c.23.84-.62.81-1,1.14-.06.06-.44-.24-.67-.38l-1.37-.78.07-.25,1.19.2-.62-.65A1.56,1.56,0,0,1,145.68,103.7Z" fill="#68e1fd"></path><path d="M269.22,119.13l-.67,0c.07.7.15,1.39.22,2h-.67c.44-1.86-.59-3.85.47-5.92C268.8,116.65,269,117.89,269.22,119.13Z" fill="#68e1fd"></path><path d="M249.61,158a9.75,9.75,0,0,0,1.41.37c.77.09,1.56.09,2.34.13a.78.78,0,0,1,.53.15l-.46.24,1.2.49v.18a13,13,0,0,1-1.8-.12,23.91,23.91,0,0,1-2.77-.58.62.62,0,0,1-.45-.75.5.5,0,0,1,0-.13Z" fill="#68e1fd"></path><path d="M267.64,124l-.36.81c-.32-1-.18-1.34.51-1.36l.24-1.7c.62.37.76,1.37,1.7,1l.16.71-1.31.75Z" fill="#68e1fd"></path><path d="M267.28,100.65a10.43,10.43,0,0,1-1.24-.13c-.13,0-.33-.31-.3-.43s.25-.29.41-.4a.42.42,0,0,1,.31-.07c.92.36,1.86,0,2.78.07.17,0,.34.23.51.35-.15.14-.29.38-.46.41C268.62,100.55,268,100.59,267.28,100.65Z" fill="#68e1fd"></path><path d="M286.85,176.28a3.59,3.59,0,0,1-.31.62c-.39.52-.79,1-1.21,1.53a.13.13,0,0,1-.18,0,.13.13,0,0,1,0-.12l-.58-1.13.51-1.37c.54-.24.92,1.28,1.75.21Z" fill="#68e1fd"></path><path d="M143.29,101.76l-.06-.49.94.49-.23-.54a4.05,4.05,0,0,1,1.1,0c.15,0,.31.42.28.62s-.21.73-.39.76-.62-.19-.93-.29-.44-.09-.66-.15a3.37,3.37,0,0,1-.68-.22,5.35,5.35,0,0,1-.62-.44c.1-.12.25-.33.28-.31a4.45,4.45,0,0,1,.68.45.83.83,0,0,1,.13.18Z" fill="#68e1fd"></path><path d="M152.14,142.23a2,2,0,0,1,2.48-.83c1,.49,1.93,1,3,1.63l-1.49.17c-.33-.39-.52-.79-.85-.95a5.24,5.24,0,0,0-1.86-.62C153.06,141.6,152.63,142,152.14,142.23Z" fill="#68e1fd"></path><path d="M257,143.81c1.11.32,1.3.81.87,1.47s-.26.93.51,1.08a5.44,5.44,0,0,1,.68.23l-.26.58c-.51-.49-1.35-.38-1.86-1.06C256.41,145.26,257.59,144.71,257,143.81Z" fill="#68e1fd"></path><path d="M148.8,103.5a1.07,1.07,0,0,1-1.16,1h0c-.1,0-.29,0-.29.08-.1.62-.57.42-.7.17s-.28-.91-.1-1.13a1.73,1.73,0,0,1,1.17-.31A4.21,4.21,0,0,1,148.8,103.5Z" fill="#68e1fd"></path><path d="M259.69,150.62l.11.58-.22.14-.88-1.14-.67.14-.11-.18L260,149l.14,1.64Z" fill="#68e1fd"></path><path d="M245.55,96.54l-3.45.8c0-.23,0-.53.11-.62A2.85,2.85,0,0,1,245.55,96.54Z" fill="#68e1fd"></path><path d="M133.21,101.51a12.06,12.06,0,0,1,1.64-.84,10,10,0,0,1,1.72-.28l.13.28a7.51,7.51,0,0,1-.85.74,4.05,4.05,0,0,1-.43-.32C134.87,101.76,133.48,102,133.21,101.51Z" fill="#68e1fd"></path><path d="M157.5,143.87l1.24.11-.62-.71c1.17-.32,2.48.13,2.41.86C159.5,144.05,158.46,144.55,157.5,143.87Z" fill="#68e1fd"></path><path d="M153.92,112.82c-.44,0-.83.16-1,0-.44-.38-.72-.07-1.11.05a4.29,4.29,0,0,1-1.24,0c.84-1.32,1.07-1.4,2.11-.81l.21.12Z" fill="#68e1fd"></path><path d="M246.7,96.8l-.22.8c-1.68.26-2.14.2-3-.52Z" fill="#68e1fd"></path><path d="M209.29,97.19a17.75,17.75,0,0,1-2.42.11,5.5,5.5,0,0,1-1.73-.57h4.15Z" fill="#68e1fd"></path><path d="M144.6,100.19l-2.73-.54.63-.27-.9-.24v-.27c.37,0,.74.08,1.1.14a4.44,4.44,0,0,1,1.05.34,7.59,7.59,0,0,1,1,.62Z" fill="#68e1fd"></path><path d="M249.45,98.11l-3,.24-.12-.13c.49-.29,1-.76,1.49-.81a5.26,5.26,0,0,1,1.74.45Z" fill="#68e1fd"></path><path d="M236.62,148.89a8.48,8.48,0,0,1,.82,1.47c.07.17-.25.62-.49.71-.44.17-.62-.15-.58-.58s0-1,0-1.49Z" fill="#68e1fd"></path><path d="M270.38,179.82l-.8-1.74a8.3,8.3,0,0,1,1.41,0c.14,0,.35.51.28.66A5.45,5.45,0,0,1,270.38,179.82Z" fill="#68e1fd"></path><path d="M262.24,130.21c.88.72.83,1.57-.12,2.09l.05-1.24-.36-.21Z" fill="#68e1fd"></path><path d="M223.72,96.12l2.06-.69.1.15c-.19.26-.34.7-.56.75a8.28,8.28,0,0,1-1.65,0Z" fill="#68e1fd"></path><path d="M199.87,125.21l.54-.21c.06.15.19.33.14.42-.18.4.24,1.14-.68,1.18Z" fill="#68e1fd"></path><path d="M203.2,128.25l-1.34-.82,0-.17h1.47Z" fill="#68e1fd"></path><path d="M153.53,103.54l2,.39-.09.31C154.84,104,154,104.93,153.53,103.54Z" fill="#68e1fd"></path><path d="M144.91,99.23c.66.13,1.11.21,1.55.31a.34.34,0,0,1,.12.26.44.44,0,0,1-.25.25C145.73,100.24,145.3,100,144.91,99.23Z" fill="#68e1fd"></path><path d="M258,140l-.65,2C256.79,141.08,256.93,140.56,258,140Z" fill="#68e1fd"></path><path d="M271.56,157.73a2.86,2.86,0,0,0,1,0c.28-.11.46-.45.87-.62a3.92,3.92,0,0,1-.45.72.89.89,0,0,1-1.25.1A1.12,1.12,0,0,1,271.56,157.73Z" fill="#68e1fd"></path><path d="M145.87,102.38l1.33-.44.11.83a5.61,5.61,0,0,1-.82,0,4.89,4.89,0,0,1-.62-.19Z" fill="#68e1fd"></path><path d="M260.55,159.43l-2.06,1.4A1.83,1.83,0,0,1,260.55,159.43Z" fill="#68e1fd"></path><path d="M321.57,148.89s-7,1.45-6.45,14.05-24,15.58-19.33,23.61,16.11,16.67,7.91,31.53h20.24Z" opacity="0.12"></path><path d="M145.26,108.68l1.13.68,0,.17-1.81-.16Z" fill="#68e1fd"></path><path d="M145.78,100.85l1.64.14c-.62.74-1.12.28-1.66.07Z" fill="#68e1fd"></path><path d="M137.67,100.18l1.66-.28C139.05,100.68,138.48,100.8,137.67,100.18Z" fill="#68e1fd"></path><path d="M264.2,129.87c.45,1.06-.79.62-.79,1.18C263,130.21,263.85,130.29,264.2,129.87Z" fill="#68e1fd"></path><path d="M262.45,156.67h-1.58c.08-.16.13-.46.21-.46C261.61,156.17,262.18,156.06,262.45,156.67Z" fill="#68e1fd"></path><path d="M193.62,96.67s22.64,9,6.94,35.58c-11.8,19.95-29.43,1.8-31.69,18.87s2.45,23.14-11.21,34-14.74,32.91-14.74,32.91H111.25l46.68-69.19,8.69-19.82L155,113.76l2.26-18,16.67-7.08Z" opacity="0.12"></path><path d="M225.9,96.25l1.24-.11.05.38-1.24.16Z" fill="#68e1fd"></path><rect x="158.75" y="128.19" width="7.24" height="21.08" transform="translate(67.43 -52.57) rotate(23.09)" fill="#ffd200"></rect><rect x="158.75" y="128.19" width="7.24" height="21.08" transform="translate(67.43 -52.57) rotate(23.09)" opacity="0.08"></rect><rect x="149.73" y="142" width="11.14" height="27.09" transform="translate(73.46 -48.45) rotate(23.09)" fill="#24285b"></rect><path d="M183.23,88.07a23.76,23.76,0,1,0,12.53,31.17A23.76,23.76,0,0,0,183.23,88.07Zm-15.9,37.29a16.78,16.78,0,1,1,22-8.85A16.78,16.78,0,0,1,167.33,125.36Z" fill="#ffd200"></path><path d="M98.12,204l27-34.14,17.13,10.52-28.59,72.1H63.62l18.9-27.38Q90,214.27,98.12,204Z" fill="#68e1fd"></path><path d="M127.38,171.21s6.53-38.28,21-39,5.64,22.75,12.75,22,7.9,16-18.9,26.1Z" fill="#f4a28c"></path><circle cx="173.91" cy="110.01" r="16.88" fill="#fff"></circle><path d="M165.4,95.43A90.54,90.54,0,0,1,175,98.35c5.85,2.09,8.61,5,3,9s-8.79-4.92-9.92-1.08,3.12,4-1.28,8.45-5.06-3.16-8.76.52C158,115.26,152.16,105.2,165.4,95.43Z" fill="#68e1fd"></path><path d="M189.28,110.34a31.55,31.55,0,0,1-4.42-.93c-1.27-.36-3.07-.52-3.83,1.06-1.23,2.57,4.74,1.62,2.6,4s-.9,4.35,1.73,3,4-1,4-1a12.45,12.45,0,0,0,1.46-6Z" fill="#68e1fd"></path><rect x="73.44" y="58.56" width="69.26" height="40.45" opacity="0.12"></rect><rect x="51.2" y="42.52" width="80.59" height="46.13" fill="#24285b"></rect><path d="M83.13,59.58a9.69,9.69,0,1,0-18,5h0l8.27,13.56,8.23-13.49h0A9.55,9.55,0,0,0,83.13,59.58Zm-9.69,5.14A4.74,4.74,0,1,1,78.18,60,4.74,4.74,0,0,1,73.44,64.72Z" fill="#ffd200"></path><rect x="91.78" y="55.24" width="29.29" height="6.64" fill="#fff"></rect><rect x="91.78" y="67.29" width="29.29" height="6.64" fill="#fff" opacity="0.19"></rect><path d="M335.92,177.5s1.17-30.93-10.37-32.86c-4.4-.74-5.75,11-6.13,20.6a7.08,7.08,0,0,1-9.5,6.39c-4.16-1.55-8.24-1.33-8.86,5-1.32,13.44,15.6,16.54,15.6,16.54S335.19,200.86,335.92,177.5Z" fill="#f4a28c"></path><path d="M314.64,220.43l.18-22.91,22.56-11,15,65.9-39.71-.58.59-5.88Q314.54,233.24,314.64,220.43Z" fill="#68e1fd"></path></svg>